<?xml version="1.0" encoding="UTF-8" standalone="no"?>
<!-- Created with Inkscape (http://www.inkscape.org/) -->

<svg
   width="39.912857mm"
   height="53.93713mm"
   viewBox="0 0 39.912857 53.93713"
   version="1.1"
   id="svg5992"
   inkscape:version="1.2.1 (9c6d41e410, 2022-07-14, custom)"
   sodipodi:docname="2.svg"
   xmlns:inkscape="http://www.inkscape.org/namespaces/inkscape"
   xmlns:sodipodi="http://sodipodi.sourceforge.net/DTD/sodipodi-0.dtd"
   xmlns="http://www.w3.org/2000/svg"
   xmlns:svg="http://www.w3.org/2000/svg">
  <sodipodi:namedview
     id="namedview5994"
     pagecolor="#505050"
     bordercolor="#ffffff"
     borderopacity="1"
     inkscape:showpageshadow="0"
     inkscape:pageopacity="0"
     inkscape:pagecheckerboard="1"
     inkscape:deskcolor="#505050"
     inkscape:document-units="mm"
     showgrid="false"
     inkscape:zoom="0.91647663"
     inkscape:cx="20.731571"
     inkscape:cy="108.02239"
     inkscape:current-layer="layer1" />
  <defs
     id="defs5989">
    <radialGradient
       id="SVGID_118_"
       cx="-1737.3789"
       cy="1352.75"
       r="76.253304"
       gradientTransform="matrix(1.3473,0,0,-1.3473,2475.104,1953.579)"
       gradientUnits="userSpaceOnUse">
			<stop
   offset="0"
   style="stop-color:#FFF100"
   id="stop1716" />

			<stop
   offset="0.9216"
   style="stop-color:#006E3A"
   id="stop1718" />

			<stop
   offset="1"
   style="stop-color:#005C36"
   id="stop1720" />

		</radialGradient>
    <radialGradient
       id="SVGID_119_"
       cx="-28975.201"
       cy="216694.47"
       r="9004656"
       gradientTransform="matrix(1.3473,0,0,-1.3473,2471.0708,2080.5925)"
       gradientUnits="userSpaceOnUse">
			<stop
   offset="0"
   style="stop-color:#FFF100"
   id="stop1725" />

			<stop
   offset="1"
   style="stop-color:#006E3A"
   id="stop1727" />

		</radialGradient>
    <radialGradient
       id="SVGID_120_"
       cx="-24072.584"
       cy="213092.28"
       r="8834610"
       gradientTransform="matrix(1.3471,0,0,-1.3471,2389.3596,2050.2656)"
       gradientUnits="userSpaceOnUse">
			<stop
   offset="0"
   style="stop-color:#FFF100"
   id="stop1732" />

			<stop
   offset="1"
   style="stop-color:#006E3A"
   id="stop1734" />

		</radialGradient>
  </defs>
  <g
     inkscape:label="Layer 1"
     inkscape:groupmode="layer"
     id="layer1"
     transform="translate(-208.07861,-94.607392)">
    <g
       id="_720185488"
       transform="matrix(0.26458333,0,0,0.26458333,130.78959,80.568568)">
	<path
   fill="#bbbdbf"
   fill-opacity="0.749"
   d="m 366.887,239.171 c 41.408,0 75.007,4.022 75.007,8.755 0,4.969 -33.599,8.991 -75.007,8.991 -41.408,0 -74.771,-4.022 -74.771,-8.991 0,-4.732 33.363,-8.755 74.771,-8.755 z"
   id="path1675" />

	<path
   fill="#8bc53f"
   stroke="#005f30"
   stroke-width="2.6195"
   d="m 391.022,102.171 c 29.34,9.228 50.636,36.912 50.636,69.329 0,40.225 -32.416,72.878 -72.641,72.878 -40.225,0 -72.878,-32.653 -72.878,-72.878 0,-33.6 22.952,-61.993 53.948,-70.275 l 0.473,-1.656 c -1.893,-2.366 -6.625,-14.434 -7.335,-14.434 -8.518,0.237 -15.617,-6.389 -15.853,-14.907 -0.237,-8.282 6.389,-15.38 14.907,-15.617 8.282,-0.237 15.38,6.389 15.617,14.67 0.237,5.206 -2.13,9.701 -5.915,12.541 -0.473,0.473 4.022,13.487 4.496,16.327 l 2.839,1.183 c 3.076,-0.237 6.389,-0.473 9.701,-0.473 4.259,0 8.755,0.237 13.014,1.183 l 2.603,-1.183 c 0.473,-2.839 4.022,-16.09 3.549,-16.563 -3.786,-2.603 -6.389,-7.098 -6.625,-12.067 -0.237,-8.518 6.389,-15.617 14.67,-15.853 8.518,-0.237 15.617,6.389 15.853,14.907 0.237,8.282 -6.389,15.38 -14.67,15.617 -0.946,0 -5.442,12.777 -7.335,15.38 z"
   id="path1677" />

	<path
   fill="none"
   stroke="#278f3a"
   stroke-width="2.6195"
   d="m 368.543,101.461 c 39.042,0 70.512,31.47 70.512,70.512 0,38.805 -31.47,70.512 -70.512,70.512 -38.805,0 -70.512,-31.707 -70.512,-70.512 10e-4,-39.042 31.707,-70.512 70.512,-70.512"
   id="path1679" />

	<g
   id="g1685">
		<path
   fill="none"
   d="m 342.516,56.977 c 7.098,0 13.014,5.915 13.014,13.014 0,7.099 -5.915,12.777 -13.014,12.777 -7.099,0 -12.777,-5.679 -12.777,-12.777 0,-7.098 5.678,-13.014 12.777,-13.014 z"
   id="path1681" />

		<path
   fill="none"
   stroke="#278f3a"
   stroke-width="0.986"
   d="m 342.516,56.977 c 7.098,0 13.014,5.915 13.014,13.014 0,7.099 -5.915,12.777 -13.014,12.777 -7.099,0 -12.777,-5.679 -12.777,-12.777 0,-7.098 5.678,-13.014 12.777,-13.014 z"
   id="path1683" />

	</g>

	<g
   id="g1691">
		<path
   fill="none"
   d="m 396.701,56.977 c 7.098,0 13.014,5.679 13.014,12.777 0,7.098 -5.915,12.777 -13.014,12.777 -7.099,0 -12.777,-5.679 -12.777,-12.777 0,-7.098 5.678,-12.777 12.777,-12.777 z"
   id="path1687" />

		<path
   fill="none"
   stroke="#278f3a"
   stroke-width="0.986"
   d="m 396.701,56.977 c 7.098,0 13.014,5.679 13.014,12.777 0,7.098 -5.915,12.777 -13.014,12.777 -7.099,0 -12.777,-5.679 -12.777,-12.777 0,-7.098 5.678,-12.777 12.777,-12.777 z"
   id="path1689" />

	</g>

	<g
   id="g1697">
		<path
   fill="none"
   d="m 364.758,144.525 c 0,8.045 -5.679,17.983 -15.617,14.197 -12.777,-5.206 0,-24.608 9.938,-22.952 3.786,0.71 5.679,4.496 5.679,8.755 z"
   id="path1693" />

		<path
   fill="none"
   stroke="#278f3a"
   stroke-width="0.986"
   d="m 364.758,144.525 c 0,8.045 -5.679,17.983 -15.617,14.197 -12.777,-5.206 0,-24.608 9.938,-22.952 3.786,0.71 5.679,4.496 5.679,8.755 z"
   id="path1695" />

	</g>

	<g
   id="g1703">
		<path
   fill="none"
   d="m 369.253,140.502 c -5.915,12.304 8.282,34.783 22.479,25.081 14.197,-9.702 -4.496,-37.149 -18.693,-29.577 -1.419,0.711 -2.839,2.367 -3.786,4.496 z"
   id="path1699" />

		<path
   fill="none"
   stroke="#278f3a"
   stroke-width="0.986"
   d="m 369.253,140.502 c -5.915,12.304 8.282,34.783 22.479,25.081 14.197,-9.702 -4.496,-37.149 -18.693,-29.577 -1.419,0.711 -2.839,2.367 -3.786,4.496 z"
   id="path1701" />

	</g>

	<path
   fill="none"
   stroke="#1d3319"
   stroke-width="3.1434"
   d="m 344.645,195.397 c 5.915,-2.13 12.067,-3.549 15.617,-4.259 10.648,-1.893 53.475,14.434 34.546,28.394 -6.862,4.969 -15.853,-1.42 -22.952,-3.549 -7.572,-2.13 -14.907,-3.076 -22.715,-0.71 -6.152,1.893 -12.541,5.915 -17.036,-1.893 -4.733,-8.518 3.549,-14.197 12.54,-17.983"
   id="path1705" />

	<path
   fill="#1d3319"
   d="m 359.079,204.152 c -4.259,0.71 -10.884,5.679 -13.487,8.991 -1.42,1.656 -1.893,1.42 0.473,2.839 1.183,0.473 3.786,0.71 4.969,0.237 1.893,-0.71 3.076,-3.076 4.496,-4.496 1.656,-1.42 4.022,-4.259 6.389,-3.549 3.313,1.183 2.13,4.496 0.71,6.625 2.13,-0.71 4.496,-3.313 4.732,-5.679 4.732,0.71 6.389,-0.473 10.648,-2.839 -2.603,0.237 -6.152,0.71 -9.465,-0.237 -3.313,-0.709 -5.916,-2.365 -9.465,-1.892 z"
   id="path1707" />

	<path
   fill="#278f3a"
   d="m 373.512,118.024 c -1.656,0.946 -3.076,3.313 -3.786,4.969 3.313,3.313 8.518,-0.237 13.014,0 7.572,0.473 12.777,4.022 17.036,9.938 -1.893,-9.228 -16.327,-16.327 -25.318,-14.907 z"
   id="path1709" />

</g>
  </g>
</svg>
