<?xml version="1.0" encoding="UTF-8" standalone="no"?>
<!-- Created with Inkscape (http://www.inkscape.org/) -->

<svg
   width="42.14146mm"
   height="57.411137mm"
   viewBox="0 0 42.141461 57.411137"
   version="1.1"
   id="svg5992"
   inkscape:version="1.2.1 (9c6d41e410, 2022-07-14, custom)"
   sodipodi:docname="4.svg"
   xmlns:inkscape="http://www.inkscape.org/namespaces/inkscape"
   xmlns:sodipodi="http://sodipodi.sourceforge.net/DTD/sodipodi-0.dtd"
   xmlns="http://www.w3.org/2000/svg"
   xmlns:svg="http://www.w3.org/2000/svg">
  <sodipodi:namedview
     id="namedview5994"
     pagecolor="#505050"
     bordercolor="#ffffff"
     borderopacity="1"
     inkscape:showpageshadow="0"
     inkscape:pageopacity="0"
     inkscape:pagecheckerboard="1"
     inkscape:deskcolor="#505050"
     inkscape:document-units="mm"
     showgrid="false"
     inkscape:zoom="0.91647663"
     inkscape:cx="66.559253"
     inkscape:cy="137.48305"
     inkscape:current-layer="layer1" />
  <defs
     id="defs5989">
    <radialGradient
       id="SVGID_118_"
       cx="-1737.3789"
       cy="1352.75"
       r="76.253304"
       gradientTransform="matrix(1.3473,0,0,-1.3473,2475.104,1953.579)"
       gradientUnits="userSpaceOnUse">
			<stop
   offset="0"
   style="stop-color:#FFF100"
   id="stop1716" />

			<stop
   offset="0.9216"
   style="stop-color:#006E3A"
   id="stop1718" />

			<stop
   offset="1"
   style="stop-color:#005C36"
   id="stop1720" />

		</radialGradient>
    <radialGradient
       id="SVGID_119_"
       cx="-28975.201"
       cy="216694.47"
       r="9004656"
       gradientTransform="matrix(1.3473,0,0,-1.3473,2471.0708,2080.5925)"
       gradientUnits="userSpaceOnUse">
			<stop
   offset="0"
   style="stop-color:#FFF100"
   id="stop1725" />

			<stop
   offset="1"
   style="stop-color:#006E3A"
   id="stop1727" />

		</radialGradient>
    <radialGradient
       id="SVGID_120_"
       cx="-24072.584"
       cy="213092.28"
       r="8834610"
       gradientTransform="matrix(1.3471,0,0,-1.3471,2389.3596,2050.2656)"
       gradientUnits="userSpaceOnUse">
			<stop
   offset="0"
   style="stop-color:#FFF100"
   id="stop1732" />

			<stop
   offset="1"
   style="stop-color:#006E3A"
   id="stop1734" />

		</radialGradient>
    <radialGradient
       id="SVGID_112_"
       cx="-893.47668"
       cy="1309.4705"
       r="70.514"
       gradientTransform="matrix(1.3472,0,0,-1.3472,1798.2373,1918.4155)"
       gradientUnits="userSpaceOnUse">
		<stop
   offset="0"
   style="stop-color:#FFF100"
   id="stop1614" />

		<stop
   offset="1"
   style="stop-color:#006E3A"
   id="stop1616" />

	</radialGradient>
    <radialGradient
       id="SVGID_113_"
       cx="-974.05859"
       cy="1466.6222"
       r="12.8502"
       gradientTransform="matrix(1.3488,0,0,-1.3488,1867.4374,2047.6222)"
       gradientUnits="userSpaceOnUse">
		<stop
   offset="0"
   style="stop-color:#FFF100"
   id="stop1621" />

		<stop
   offset="1"
   style="stop-color:#006E3A"
   id="stop1623" />

	</radialGradient>
    <radialGradient
       id="SVGID_114_"
       cx="-874.62219"
       cy="1466.7423"
       r="12.8505"
       gradientTransform="matrix(1.3488,0,0,-1.3488,1787.4595,2047.5951)"
       gradientUnits="userSpaceOnUse">
		<stop
   offset="0"
   style="stop-color:#FFF100"
   id="stop1628" />

		<stop
   offset="1"
   style="stop-color:#006E3A"
   id="stop1630" />

	</radialGradient>
    <radialGradient
       id="SVGID_115_"
       cx="-2215.6433"
       cy="1622.572"
       r="26.633499"
       gradientTransform="matrix(1.9513,0,0,-1.9513,4919.958,3316.3838)"
       gradientUnits="userSpaceOnUse">
		<stop
   offset="0"
   style="stop-color:#555658"
   id="stop1635" />

		<stop
   offset="1"
   style="stop-color:#000000"
   id="stop1637" />

	</radialGradient>
    <radialGradient
       id="SVGID_116_"
       cx="-641.42328"
       cy="1259.4612"
       r="42.782799"
       gradientTransform="matrix(1.2718,0,0,-1.2718,1409.0055,1751.7029)"
       gradientUnits="userSpaceOnUse">
		<stop
   offset="0"
   style="stop-color:#555658"
   id="stop1642" />

		<stop
   offset="1"
   style="stop-color:#000000"
   id="stop1644" />

	</radialGradient>
    <radialGradient
       id="SVGID_117_"
       cx="-1951.9958"
       cy="1344.2617"
       r="10.3476"
       gradientTransform="matrix(1.7606,0,0,-1.7606,4009.8398,2602.6323)"
       gradientUnits="userSpaceOnUse">
		<stop
   offset="0"
   style="stop-color:#1D3319"
   id="stop1649" />

		<stop
   offset="1"
   style="stop-color:#006E3A"
   id="stop1651" />

	</radialGradient>
    <radialGradient
       id="SVGID_100_"
       cx="-519.21722"
       cy="1321.9581"
       r="74.126404"
       gradientTransform="matrix(1.3474,0,0,-1.3474,1499.0485,1928.6471)"
       gradientUnits="userSpaceOnUse">
			<stop
   offset="0"
   style="stop-color:#FFF100"
   id="stop1456" />

			<stop
   offset="0.9216"
   style="stop-color:#006E3A"
   id="stop1458" />

			<stop
   offset="1"
   style="stop-color:#005C36"
   id="stop1460" />

		</radialGradient>
    <radialGradient
       id="SVGID_101_"
       cx="-607.61078"
       cy="1482.7708"
       r="13.5019"
       gradientTransform="matrix(1.3472,0,0,-1.3472,1569.2484,2057.4019)"
       gradientUnits="userSpaceOnUse">
			<stop
   offset="0"
   style="stop-color:#FFF100"
   id="stop1465" />

			<stop
   offset="1"
   style="stop-color:#006E3A"
   id="stop1467" />

		</radialGradient>
    <radialGradient
       id="SVGID_102_"
       cx="-502.6402"
       cy="1487.0332"
       r="13.5061"
       gradientTransform="matrix(1.3469,0,0,-1.3469,1484.5818,2059.9932)"
       gradientUnits="userSpaceOnUse">
			<stop
   offset="0"
   style="stop-color:#FFF100"
   id="stop1472" />

			<stop
   offset="1"
   style="stop-color:#006E3A"
   id="stop1474" />

		</radialGradient>
    <radialGradient
       id="SVGID_103_"
       cx="1671.5831"
       cy="754.52118"
       r="2.7254"
       gradientTransform="matrix(0.8519,0,0,-0.8519,-662.4748,765.7676)"
       gradientUnits="userSpaceOnUse">
		<stop
   offset="0"
   style="stop-color:#ECE8C7"
   id="stop1481" />

		<stop
   offset="0.0196"
   style="stop-color:#ECE8C7"
   id="stop1483" />

		<stop
   offset="0.5608"
   style="stop-color:#FFFFFF"
   id="stop1485" />

		<stop
   offset="1"
   style="stop-color:#CCCECF"
   id="stop1487" />

	</radialGradient>
    <radialGradient
       id="SVGID_104_"
       cx="3591.7002"
       cy="184.68359"
       r="28.8601"
       gradientTransform="matrix(0.6484,0,0,-0.6484,-1555.3717,179.5646)"
       gradientUnits="userSpaceOnUse">
		<stop
   offset="0"
   style="stop-color:#FFF100"
   id="stop1492" />

		<stop
   offset="1"
   style="stop-color:#006E3A"
   id="stop1494" />

	</radialGradient>
    <radialGradient
       id="SVGID_105_"
       cx="2590.8857"
       cy="512.97467"
       r="43.756401"
       gradientTransform="matrix(0.7409,0,0,-0.7409,-1143.1013,559.5225)"
       gradientUnits="userSpaceOnUse">
			<stop
   offset="0"
   style="stop-color:#EDE9C7"
   id="stop1501" />

			<stop
   offset="0.0196"
   style="stop-color:#EDE9C7"
   id="stop1503" />

			<stop
   offset="0.5608"
   style="stop-color:#FFFFFF"
   id="stop1505" />

			<stop
   offset="1"
   style="stop-color:#CCCECF"
   id="stop1507" />

		</radialGradient>
  </defs>
  <g
     inkscape:label="Layer 1"
     inkscape:groupmode="layer"
     id="layer1"
     transform="translate(-195.89109,-86.569109)">
    <g
       id="_717195504"
       transform="matrix(0.26458333,0,0,0.26458333,11.301478,75.002313)">
	<path
   fill="#bbbdbf"
   fill-opacity="0.749"
   d="m 780.492,242.011 c 35.256,0 63.886,4.259 63.886,9.228 0,5.206 -28.631,9.465 -63.886,9.465 -35.255,0 -63.886,-4.259 -63.886,-9.465 0,-4.969 28.63,-9.228 63.886,-9.228 z"
   id="path1452" />

	<g
   id="g1479">
		<path
   fill="#8bc53f"
   stroke="#005f30"
   stroke-width="2.7542"
   d="m 798.948,95.545 c 31.233,8.518 54.895,36.439 56.551,70.512 1.656,42.354 -30.997,78.083 -73.114,79.976 -42.354,1.656 -78.083,-30.997 -79.74,-73.114 -1.656,-35.492 21.059,-66.253 53.475,-76.427 l 0.237,-1.656 c -2.13,-2.366 -7.572,-15.143 -8.282,-14.907 -8.991,0.473 -16.563,-6.152 -17.273,-14.907 -0.71,-8.755 5.915,-16.563 14.67,-17.273 8.991,-0.71 16.563,5.915 17.273,14.907 0.473,5.206 -1.893,10.174 -5.679,13.487 -0.473,0.473 4.969,13.724 5.679,16.8 l 2.839,1.183 c 3.313,-0.473 6.625,-0.946 10.174,-1.183 4.496,0 9.228,0 13.724,0.71 l 2.839,-1.42 c 0.237,-2.839 3.313,-17.036 2.839,-17.51 -4.259,-2.603 -7.099,-7.098 -7.572,-12.304 -0.71,-8.755 5.915,-16.563 14.907,-17.273 8.755,-0.71 16.563,5.915 17.036,14.907 0.71,8.755 -5.915,16.563 -14.67,17.273 -0.946,0 -4.969,13.487 -6.862,16.327 z"
   id="path1454" />

		
			<radialGradient
   id="radialGradient6776"
   cx="-519.21722"
   cy="1321.9581"
   r="74.126404"
   gradientTransform="matrix(1.3474,0,0,-1.3474,1499.0485,1928.6471)"
   gradientUnits="userSpaceOnUse">
			<stop
   offset="0"
   style="stop-color:#FFF100"
   id="stop6770" />

			<stop
   offset="0.9216"
   style="stop-color:#006E3A"
   id="stop6772" />

			<stop
   offset="1"
   style="stop-color:#005C36"
   id="stop6774" />

		</radialGradient>

		<path
   fill="url(#SVGID_100_)"
   stroke="#278f3a"
   stroke-width="2.7542"
   d="m 778.599,95.782 c 40.935,0 74.297,33.126 74.297,74.061 0,40.935 -33.363,74.061 -74.297,74.061 -40.935,0 -74.061,-33.126 -74.061,-74.061 0,-40.935 33.127,-74.061 74.061,-74.061 z"
   id="path1463"
   style="fill:url(#SVGID_100_)" />

		
			<radialGradient
   id="radialGradient6783"
   cx="-607.61078"
   cy="1482.7708"
   r="13.5019"
   gradientTransform="matrix(1.3472,0,0,-1.3472,1569.2484,2057.4019)"
   gradientUnits="userSpaceOnUse">
			<stop
   offset="0"
   style="stop-color:#FFF100"
   id="stop6779" />

			<stop
   offset="1"
   style="stop-color:#006E3A"
   id="stop6781" />

		</radialGradient>

		<path
   fill="url(#SVGID_101_)"
   fill-opacity="0.502"
   d="m 746.656,50.352 c 7.572,0 13.487,6.152 13.487,13.487 0,7.572 -5.915,13.487 -13.487,13.487 -7.335,0 -13.487,-5.915 -13.487,-13.487 0,-7.335 6.152,-13.487 13.487,-13.487 z"
   id="path1470"
   style="fill:url(#SVGID_101_)" />

		
			<radialGradient
   id="radialGradient6790"
   cx="-502.6402"
   cy="1487.0332"
   r="13.5061"
   gradientTransform="matrix(1.3469,0,0,-1.3469,1484.5818,2059.9932)"
   gradientUnits="userSpaceOnUse">
			<stop
   offset="0"
   style="stop-color:#FFF100"
   id="stop6786" />

			<stop
   offset="1"
   style="stop-color:#006E3A"
   id="stop6788" />

		</radialGradient>

		<path
   fill="url(#SVGID_102_)"
   fill-opacity="0.4118"
   d="m 803.681,47.749 c 7.335,0 13.487,6.152 13.487,13.487 0,7.572 -6.152,13.487 -13.487,13.487 -7.572,0 -13.724,-5.915 -13.724,-13.487 0,-7.335 6.152,-13.487 13.724,-13.487 z"
   id="path1477"
   style="fill:url(#SVGID_102_)" />

	</g>

	
		<radialGradient
   id="radialGradient6802"
   cx="1671.5831"
   cy="754.52118"
   r="2.7254"
   gradientTransform="matrix(0.8519,0,0,-0.8519,-662.4748,765.7676)"
   gradientUnits="userSpaceOnUse">
		<stop
   offset="0"
   style="stop-color:#ECE8C7"
   id="stop6794" />

		<stop
   offset="0.0196"
   style="stop-color:#ECE8C7"
   id="stop6796" />

		<stop
   offset="0.5608"
   style="stop-color:#FFFFFF"
   id="stop6798" />

		<stop
   offset="1"
   style="stop-color:#CCCECF"
   id="stop6800" />

	</radialGradient>

	<path
   fill="url(#SVGID_103_)"
   fill-opacity="0.549"
   d="m 845.325,143.578 c 5.206,25.555 -21.059,52.056 -58.208,59.391 -37.385,7.335 -71.695,-7.335 -76.664,-32.89 -4.969,-25.555 21.059,-52.292 58.444,-59.627 37.15,-7.335 71.459,7.572 76.428,33.126 z"
   id="path1490"
   style="fill:url(#SVGID_103_)" />

	
		<radialGradient
   id="radialGradient6809"
   cx="3591.7002"
   cy="184.68359"
   r="28.8601"
   gradientTransform="matrix(0.6484,0,0,-0.6484,-1555.3717,179.5646)"
   gradientUnits="userSpaceOnUse">
		<stop
   offset="0"
   style="stop-color:#FFF100"
   id="stop6805" />

		<stop
   offset="1"
   style="stop-color:#006E3A"
   id="stop6807" />

	</radialGradient>

	<path
   fill="url(#SVGID_104_)"
   d="m 757.304,171.499 c 3.549,-0.237 7.099,-0.237 10.174,0 7.099,0.237 13.251,-1.42 20.112,-3.313 5.442,-1.42 11.831,-4.732 17.51,-4.496 12.304,0.946 14.197,15.853 15.143,25.081 0.71,6.862 2.603,22.005 -5.679,25.081 -8.282,3.076 -20.349,-9.938 -28.867,-11.121 -14.907,-1.893 -29.34,22.242 -43.301,11.594 -8.755,-6.862 -11.358,-24.845 -6.625,-34.309 3.55,-7.097 14.198,-8.044 21.533,-8.517 z"
   id="path1497"
   style="fill:url(#SVGID_104_)" />

	<path
   fill="#1d3319"
   d="m 820.244,206.282 c -4.022,-1.893 -12.777,-1.183 -16.8,0 -2.13,0.71 -2.366,0.237 -1.183,2.839 0.71,1.183 2.839,2.839 4.259,3.076 1.893,0.473 4.259,-0.946 6.625,-1.42 2.13,-0.473 5.679,-1.42 7.572,0.71 2.13,2.839 -0.71,4.969 -3.076,5.915 2.366,0.71 5.679,0 7.099,-2.13 4.022,3.313 6.152,3.313 11.121,3.549 -2.366,-1.42 -5.915,-2.839 -8.282,-5.442 -2.366,-2.838 -3.786,-5.678 -7.335,-7.097 z"
   id="path1499" />

	<g
   id="g1518">
		
			<radialGradient
   id="radialGradient6821"
   cx="2590.8857"
   cy="512.97467"
   r="43.756401"
   gradientTransform="matrix(0.7409,0,0,-0.7409,-1143.1013,559.5225)"
   gradientUnits="userSpaceOnUse">
			<stop
   offset="0"
   style="stop-color:#EDE9C7"
   id="stop6813" />

			<stop
   offset="0.0196"
   style="stop-color:#EDE9C7"
   id="stop6815" />

			<stop
   offset="0.5608"
   style="stop-color:#FFFFFF"
   id="stop6817" />

			<stop
   offset="1"
   style="stop-color:#CCCECF"
   id="stop6819" />

		</radialGradient>

		<path
   fill="url(#SVGID_105_)"
   stroke="#f6921c"
   stroke-width="2.6147"
   d="m 760.853,171.026 c 5.915,-0.237 11.594,2.366 17.51,1.656 4.259,-0.473 9.228,-2.603 13.25,-4.022 7.335,-2.366 16.326,-7.335 22.952,-0.473 4.732,4.969 8.518,15.617 2.839,20.822 -0.946,0.71 -2.366,2.13 -3.549,2.13 -2.366,0 -1.42,-0.946 -1.183,-2.839 0.237,-3.076 0.71,-7.572 -0.473,-10.648 -2.839,0.946 -22.952,4.732 -31.943,5.206 -7.098,0.237 -14.434,-0.237 -21.295,-1.42 -4.496,-0.71 -8.991,-0.473 -13.251,-1.893 -0.473,1.42 -4.259,14.197 -2.13,14.434 -1.183,0 -10.884,-5.679 -10.884,-6.152 0.946,-13.252 17.983,-16.091 28.157,-16.801 z"
   id="path1510"
   style="fill:url(#SVGID_105_)" />

		
			<line
   fill="none"
   stroke="#f6921c"
   stroke-width="2.6147"
   stroke-linecap="round"
   x1="814.802"
   y1="171.26199"
   x2="812.19897"
   y2="177.651"
   id="line1512" />

		
			<line
   fill="none"
   stroke="#f6921c"
   stroke-width="2.6147"
   stroke-linecap="round"
   x1="797.76501"
   y1="167.00301"
   x2="798.00201"
   y2="173.155"
   id="line1514" />

		<path
   fill="none"
   stroke="#1d3319"
   stroke-width="2.6407"
   d="m 758.487,171.499 c 8.045,-0.237 16.09,0 24.135,-0.946 8.282,-0.946 15.853,-6.625 23.662,-6.625 10.648,0 12.777,12.067 13.251,20.349 0.473,7.335 2.603,21.769 -1.42,27.921 -4.969,8.045 -23.425,-8.045 -31.233,-8.991 -14.197,-2.13 -24.608,15.617 -38.095,14.434 -8.518,-0.71 -14.67,-15.617 -16.09,-22.479 -3.313,-15.38 8.282,-22.952 22.005,-23.662 1.182,-0.001 2.365,-0.001 3.785,-0.001"
   id="path1516" />

	</g>

	<g
   id="g1524">
		<path
   fill="none"
   d="m 751.625,152.097 c 1.893,-2.603 3.549,-5.206 5.915,-6.625 4.022,-2.13 8.045,1.42 7.099,5.442 -1.42,5.442 -12.067,11.358 -17.273,12.067 -3.076,0.71 -12.067,1.656 -12.777,-2.603 3.786,-2.366 8.045,-0.473 12.067,-2.839 2.13,-1.42 3.549,-3.313 4.969,-5.442 z"
   id="path1520" />

		<path
   fill="none"
   stroke="#1d3319"
   stroke-width="0.986"
   d="m 751.625,152.097 c 1.893,-2.603 3.549,-5.206 5.915,-6.625 4.022,-2.13 8.045,1.42 7.099,5.442 -1.42,5.442 -12.067,11.358 -17.273,12.067 -3.076,0.71 -12.067,1.656 -12.777,-2.603 3.786,-2.366 8.045,-0.473 12.067,-2.839 2.13,-1.42 3.549,-3.313 4.969,-5.442 z"
   id="path1522" />

	</g>

	<g
   id="g1530">
		<path
   fill="none"
   d="m 807.94,138.846 c -0.237,0 -0.237,0 -0.473,-0.237 -4.969,-3.076 -21.532,-17.273 -26.738,-8.991 -4.023,5.915 1.42,17.746 7.098,21.295 6.152,3.786 10.174,-0.237 16.327,0 7.098,0.237 9.701,-7.808 3.786,-12.067 z"
   id="path1526" />

		<path
   fill="none"
   stroke="#1d3319"
   stroke-width="0.986"
   d="m 807.94,138.846 c -0.237,0 -0.237,0 -0.473,-0.237 -4.969,-3.076 -21.532,-17.273 -26.738,-8.991 -4.023,5.915 1.42,17.746 7.098,21.295 6.152,3.786 10.174,-0.237 16.327,0 7.098,0.237 9.701,-7.808 3.786,-12.067 z"
   id="path1528" />

	</g>

	<path
   fill="#d6effb"
   d="m 712.583,101.224 c -4.023,2.13 -10.174,8.991 -9.701,13.96 0.71,4.969 8.045,6.625 11.358,9.465 7.808,6.625 4.496,25.318 17.983,22.242 7.572,-1.893 14.434,-8.991 20.586,-13.724 8.991,-6.862 19.403,-11.594 30.287,-14.67 7.808,-2.13 16.09,-2.839 23.898,-1.183 5.206,0.946 11.594,4.496 16.8,3.076 10.174,-2.603 9.701,-18.456 5.442,-25.555 -4.022,-7.098 -14.907,-8.518 -22.242,-11.358 -4.732,-1.656 -8.991,-3.786 -13.014,-6.862 -3.313,-2.366 -4.022,-3.786 -8.045,-4.259 -5.442,-0.473 -11.594,1.183 -17.036,2.13 -8.991,1.656 -18.219,3.786 -27.211,5.915 -12.541,2.839 -25.081,5.679 -37.385,8.991 -5.915,1.656 -5.915,4.969 -4.969,10.884 0.237,1.42 0.473,4.969 1.893,5.915 2.839,1.656 3.786,-1.42 6.625,-1.893 l 1.42,-0.237 c -0.946,0.71 -1.42,1.656 -2.366,2.366 9.701,-0.237 19.403,10.411 23.188,18.219 1.183,-5.442 12.304,-5.915 16.563,-7.098 13.014,-2.839 25.791,-5.915 39.042,-7.335 8.045,-0.946 16.326,-0.71 24.135,0 3.786,0.473 7.808,1.893 10.174,-1.42 1.656,-2.13 2.603,-9.228 0.71,-11.358 -3.786,-4.022 -17.273,0.237 -22.005,1.183 -8.282,1.656 -16.326,4.022 -24.608,5.679 -4.969,0.946 -13.251,0 -17.036,2.366 z"
   id="path1532" />

	<path
   fill="#c0e8fb"
   d="m 731.986,123.939 c -0.473,0.71 -0.71,1.656 -0.946,2.603 -0.946,-3.076 -3.786,-4.732 -5.679,-7.098 -2.366,-2.839 -3.549,-6.862 -6.862,-9.228 -1.656,-1.183 -5.915,-3.549 -8.045,-3.786 -1.893,0 -6.152,1.893 -5.442,4.496 0.473,1.893 4.969,1.656 6.389,2.603 2.603,1.656 4.496,3.786 6.389,5.915 5.679,5.442 6.389,13.724 11.358,19.166 1.893,-5.915 5.206,-10.884 10.648,-13.96 9.701,-5.206 25.318,-8.282 36.439,-9.465 6.152,-0.71 12.541,-0.473 18.929,-0.473 7.098,-0.237 15.853,-3.076 22.715,-2.13 2.13,0.237 3.076,1.656 5.206,1.42 0.473,-5.206 3.549,-15.617 -3.549,-17.983 0.237,2.366 0.71,4.732 0.473,7.098 0,-6.152 -17.983,-2.366 -21.295,-1.893 -14.197,2.366 -28.157,4.732 -42.591,4.732 20.349,0.946 39.515,-11.594 59.627,-10.174 4.969,0.473 6.152,4.259 5.206,9.228 -1.656,11.358 -18.456,4.732 -25.791,4.732 -17.273,-0.237 -33.126,4.259 -49.926,7.572 -4.971,0.946 -10.65,2.13 -13.253,6.625 z"
   id="path1534" />

	<path
   fill="none"
   stroke="#71d0f5"
   stroke-width="2.85"
   d="m 712.82,101.224 c -4.022,2.13 -10.411,8.991 -9.701,13.724 0.71,4.969 8.045,6.862 11.358,9.701 7.808,6.625 4.259,25.318 17.983,22.005 7.572,-1.656 14.434,-8.755 20.349,-13.487 9.228,-6.862 19.639,-11.831 30.523,-14.67 7.808,-2.13 16.09,-2.839 23.898,-1.183 5.206,0.946 11.358,4.496 16.8,3.076 10.174,-2.603 9.701,-18.456 5.442,-25.555 -4.022,-7.098 -14.907,-8.518 -22.242,-11.358 -4.732,-1.656 -8.991,-3.786 -13.014,-6.862 -3.313,-2.366 -4.259,-4.022 -8.045,-4.259 -5.679,-0.473 -11.594,1.183 -17.036,2.13 -8.991,1.656 -18.219,3.786 -27.447,5.915 -12.304,2.839 -25.081,5.679 -37.385,8.991 -5.679,1.656 -5.679,4.969 -4.732,10.884 0.237,1.42 0.473,4.969 1.893,5.915 2.603,1.656 3.786,-1.42 6.625,-1.893 0,0 1.42,-0.237 1.42,-0.473 -0.946,0.946 -1.42,1.893 -2.366,2.603 9.701,-0.237 19.403,10.411 23.188,18.219 1.183,-5.679 12.067,-5.915 16.563,-7.098 13.014,-2.839 25.791,-6.152 39.042,-7.335 8.045,-0.946 16.326,-0.946 24.135,0 3.786,0.473 7.808,1.656 10.174,-1.42 1.656,-2.13 2.603,-9.228 0.473,-11.358 -3.549,-4.022 -17.036,0.237 -21.769,1.183 -8.282,1.42 -16.327,3.786 -24.608,5.679 -4.969,0.946 -13.25,-0.237 -17.036,2.13"
   id="path1536" />

	<path
   fill="#ffffff"
   d="m 732.459,86.317 c -8.518,2.13 -18.219,1.893 -26.028,5.679 -0.946,0.473 -4.969,4.969 -4.496,4.969 1.183,-0.237 2.603,0.237 3.786,0 -0.237,0.71 0.237,1.893 0,2.603 9.465,0.237 17.273,6.625 22.479,14.197 0.237,-0.473 0.946,-1.183 1.183,-1.656 0.473,0.946 1.893,1.656 2.603,2.603 3.786,-3.549 6.625,-5.915 11.594,-8.755 -6.862,0.71 -14.67,-1.656 -20.349,-5.206 -0.946,-0.71 -5.679,-3.549 -5.679,-4.969 -0.237,-2.839 8.045,-4.969 10.174,-5.679 17.51,-7.098 42.591,-19.403 61.284,-10.884 -5.206,-4.496 -11.831,-4.732 -17.983,-3.076 -13.013,3.076 -25.791,6.862 -38.568,10.174 z"
   id="path1538" />

</g>
  </g>
</svg>
