<?xml version="1.0" encoding="UTF-8" standalone="no"?>
<!-- Created with Inkscape (http://www.inkscape.org/) -->

<svg
   width="39.194977mm"
   height="46.505299mm"
   viewBox="0 0 39.194977 46.505299"
   version="1.1"
   id="svg5992"
   inkscape:version="1.2.1 (9c6d41e410, 2022-07-14, custom)"
   sodipodi:docname="10.svg"
   xmlns:inkscape="http://www.inkscape.org/namespaces/inkscape"
   xmlns:sodipodi="http://sodipodi.sourceforge.net/DTD/sodipodi-0.dtd"
   xmlns="http://www.w3.org/2000/svg"
   xmlns:svg="http://www.w3.org/2000/svg">
  <sodipodi:namedview
     id="namedview5994"
     pagecolor="#505050"
     bordercolor="#ffffff"
     borderopacity="1"
     inkscape:showpageshadow="0"
     inkscape:pageopacity="0"
     inkscape:pagecheckerboard="1"
     inkscape:deskcolor="#505050"
     inkscape:document-units="mm"
     showgrid="false"
     inkscape:zoom="0.91647663"
     inkscape:cx="-122.20715"
     inkscape:cy="48.009953"
     inkscape:current-layer="layer1" />
  <defs
     id="defs5989">
    <radialGradient
       id="SVGID_118_"
       cx="-1737.3789"
       cy="1352.75"
       r="76.253304"
       gradientTransform="matrix(1.3473,0,0,-1.3473,2475.104,1953.579)"
       gradientUnits="userSpaceOnUse">
			<stop
   offset="0"
   style="stop-color:#FFF100"
   id="stop1716" />

			<stop
   offset="0.9216"
   style="stop-color:#006E3A"
   id="stop1718" />

			<stop
   offset="1"
   style="stop-color:#005C36"
   id="stop1720" />

		</radialGradient>
    <radialGradient
       id="SVGID_119_"
       cx="-28975.201"
       cy="216694.47"
       r="9004656"
       gradientTransform="matrix(1.3473,0,0,-1.3473,2471.0708,2080.5925)"
       gradientUnits="userSpaceOnUse">
			<stop
   offset="0"
   style="stop-color:#FFF100"
   id="stop1725" />

			<stop
   offset="1"
   style="stop-color:#006E3A"
   id="stop1727" />

		</radialGradient>
    <radialGradient
       id="SVGID_120_"
       cx="-24072.584"
       cy="213092.28"
       r="8834610"
       gradientTransform="matrix(1.3471,0,0,-1.3471,2389.3596,2050.2656)"
       gradientUnits="userSpaceOnUse">
			<stop
   offset="0"
   style="stop-color:#FFF100"
   id="stop1732" />

			<stop
   offset="1"
   style="stop-color:#006E3A"
   id="stop1734" />

		</radialGradient>
    <radialGradient
       id="SVGID_112_"
       cx="-893.47668"
       cy="1309.4705"
       r="70.514"
       gradientTransform="matrix(1.3472,0,0,-1.3472,1798.2373,1918.4155)"
       gradientUnits="userSpaceOnUse">
		<stop
   offset="0"
   style="stop-color:#FFF100"
   id="stop1614" />

		<stop
   offset="1"
   style="stop-color:#006E3A"
   id="stop1616" />

	</radialGradient>
    <radialGradient
       id="SVGID_113_"
       cx="-974.05859"
       cy="1466.6222"
       r="12.8502"
       gradientTransform="matrix(1.3488,0,0,-1.3488,1867.4374,2047.6222)"
       gradientUnits="userSpaceOnUse">
		<stop
   offset="0"
   style="stop-color:#FFF100"
   id="stop1621" />

		<stop
   offset="1"
   style="stop-color:#006E3A"
   id="stop1623" />

	</radialGradient>
    <radialGradient
       id="SVGID_114_"
       cx="-874.62219"
       cy="1466.7423"
       r="12.8505"
       gradientTransform="matrix(1.3488,0,0,-1.3488,1787.4595,2047.5951)"
       gradientUnits="userSpaceOnUse">
		<stop
   offset="0"
   style="stop-color:#FFF100"
   id="stop1628" />

		<stop
   offset="1"
   style="stop-color:#006E3A"
   id="stop1630" />

	</radialGradient>
    <radialGradient
       id="SVGID_115_"
       cx="-2215.6433"
       cy="1622.572"
       r="26.633499"
       gradientTransform="matrix(1.9513,0,0,-1.9513,4919.958,3316.3838)"
       gradientUnits="userSpaceOnUse">
		<stop
   offset="0"
   style="stop-color:#555658"
   id="stop1635" />

		<stop
   offset="1"
   style="stop-color:#000000"
   id="stop1637" />

	</radialGradient>
    <radialGradient
       id="SVGID_116_"
       cx="-641.42328"
       cy="1259.4612"
       r="42.782799"
       gradientTransform="matrix(1.2718,0,0,-1.2718,1409.0055,1751.7029)"
       gradientUnits="userSpaceOnUse">
		<stop
   offset="0"
   style="stop-color:#555658"
   id="stop1642" />

		<stop
   offset="1"
   style="stop-color:#000000"
   id="stop1644" />

	</radialGradient>
    <radialGradient
       id="SVGID_117_"
       cx="-1951.9958"
       cy="1344.2617"
       r="10.3476"
       gradientTransform="matrix(1.7606,0,0,-1.7606,4009.8398,2602.6323)"
       gradientUnits="userSpaceOnUse">
		<stop
   offset="0"
   style="stop-color:#1D3319"
   id="stop1649" />

		<stop
   offset="1"
   style="stop-color:#006E3A"
   id="stop1651" />

	</radialGradient>
    <radialGradient
       id="SVGID_100_"
       cx="-519.21722"
       cy="1321.9581"
       r="74.126404"
       gradientTransform="matrix(1.3474,0,0,-1.3474,1499.0485,1928.6471)"
       gradientUnits="userSpaceOnUse">
			<stop
   offset="0"
   style="stop-color:#FFF100"
   id="stop1456" />

			<stop
   offset="0.9216"
   style="stop-color:#006E3A"
   id="stop1458" />

			<stop
   offset="1"
   style="stop-color:#005C36"
   id="stop1460" />

		</radialGradient>
    <radialGradient
       id="SVGID_101_"
       cx="-607.61078"
       cy="1482.7708"
       r="13.5019"
       gradientTransform="matrix(1.3472,0,0,-1.3472,1569.2484,2057.4019)"
       gradientUnits="userSpaceOnUse">
			<stop
   offset="0"
   style="stop-color:#FFF100"
   id="stop1465" />

			<stop
   offset="1"
   style="stop-color:#006E3A"
   id="stop1467" />

		</radialGradient>
    <radialGradient
       id="SVGID_102_"
       cx="-502.6402"
       cy="1487.0332"
       r="13.5061"
       gradientTransform="matrix(1.3469,0,0,-1.3469,1484.5818,2059.9932)"
       gradientUnits="userSpaceOnUse">
			<stop
   offset="0"
   style="stop-color:#FFF100"
   id="stop1472" />

			<stop
   offset="1"
   style="stop-color:#006E3A"
   id="stop1474" />

		</radialGradient>
    <radialGradient
       id="SVGID_103_"
       cx="1671.5831"
       cy="754.52118"
       r="2.7254"
       gradientTransform="matrix(0.8519,0,0,-0.8519,-662.4748,765.7676)"
       gradientUnits="userSpaceOnUse">
		<stop
   offset="0"
   style="stop-color:#ECE8C7"
   id="stop1481" />

		<stop
   offset="0.0196"
   style="stop-color:#ECE8C7"
   id="stop1483" />

		<stop
   offset="0.5608"
   style="stop-color:#FFFFFF"
   id="stop1485" />

		<stop
   offset="1"
   style="stop-color:#CCCECF"
   id="stop1487" />

	</radialGradient>
    <radialGradient
       id="SVGID_104_"
       cx="3591.7002"
       cy="184.68359"
       r="28.8601"
       gradientTransform="matrix(0.6484,0,0,-0.6484,-1555.3717,179.5646)"
       gradientUnits="userSpaceOnUse">
		<stop
   offset="0"
   style="stop-color:#FFF100"
   id="stop1492" />

		<stop
   offset="1"
   style="stop-color:#006E3A"
   id="stop1494" />

	</radialGradient>
    <radialGradient
       id="SVGID_105_"
       cx="2590.8857"
       cy="512.97467"
       r="43.756401"
       gradientTransform="matrix(0.7409,0,0,-0.7409,-1143.1013,559.5225)"
       gradientUnits="userSpaceOnUse">
			<stop
   offset="0"
   style="stop-color:#EDE9C7"
   id="stop1501" />

			<stop
   offset="0.0196"
   style="stop-color:#EDE9C7"
   id="stop1503" />

			<stop
   offset="0.5608"
   style="stop-color:#FFFFFF"
   id="stop1505" />

			<stop
   offset="1"
   style="stop-color:#CCCECF"
   id="stop1507" />

		</radialGradient>
    <radialGradient
       id="SVGID_106_"
       cx="-140.1868"
       cy="1309.3925"
       r="70.510902"
       gradientTransform="matrix(1.3472,0,0,-1.3472,1195.1595,1918.5109)"
       gradientUnits="userSpaceOnUse">
			<stop
   offset="0"
   style="stop-color:#FFF100"
   id="stop1545" />

			<stop
   offset="1"
   style="stop-color:#006E3A"
   id="stop1547" />

		</radialGradient>
    <radialGradient
       id="SVGID_107_"
       cx="-214.66319"
       cy="1465.1354"
       r="12.8471"
       gradientTransform="matrix(1.347,0,0,-1.347,1254.4485,2043.1566)"
       gradientUnits="userSpaceOnUse">
			<stop
   offset="0"
   style="stop-color:#FFF100"
   id="stop1552" />

			<stop
   offset="1"
   style="stop-color:#006E3A"
   id="stop1554" />

		</radialGradient>
    <radialGradient
       id="SVGID_108_"
       cx="-115.1692"
       cy="1465.2555"
       r="12.8474"
       gradientTransform="matrix(1.347,0,0,-1.347,1174.4818,2043.1294)"
       gradientUnits="userSpaceOnUse">
			<stop
   offset="0"
   style="stop-color:#FFF100"
   id="stop1559" />

			<stop
   offset="1"
   style="stop-color:#006E3A"
   id="stop1561" />

		</radialGradient>
    <radialGradient
       id="SVGID_109_"
       cx="-1530.1787"
       cy="1762.231"
       r="7.5064998"
       gradientTransform="matrix(2.3317,0,0,-2.3317,4575.2949,4249.5923)"
       gradientUnits="userSpaceOnUse">
			<stop
   offset="0"
   style="stop-color:#555658"
   id="stop1566" />

			<stop
   offset="1"
   style="stop-color:#000000"
   id="stop1568" />

		</radialGradient>
    <radialGradient
       id="SVGID_110_"
       cx="37.406898"
       cy="1276.4313"
       r="12.5238"
       gradientTransform="matrix(1.2781,0,0,-1.2781,957.9388,1774.3531)"
       gradientUnits="userSpaceOnUse">
			<stop
   offset="0"
   style="stop-color:#555658"
   id="stop1573" />

			<stop
   offset="1"
   style="stop-color:#000000"
   id="stop1575" />

		</radialGradient>
    <radialGradient
       id="SVGID_111_"
       cx="-988.56281"
       cy="1368.2556"
       r="34.4953"
       gradientTransform="matrix(1.7591,0,0,-1.7591,2713.5066,2632.6028)"
       gradientUnits="userSpaceOnUse">
			<stop
   offset="0"
   style="stop-color:#1D3319"
   id="stop1580" />

			<stop
   offset="1"
   style="stop-color:#006E3A"
   id="stop1582" />

		</radialGradient>
    <radialGradient
       id="SVGID_93_"
       cx="240.53169"
       cy="1330.7733"
       r="69.319504"
       gradientTransform="matrix(1.3473,0,0,-1.3473,890.0596,1935.6334)"
       gradientUnits="userSpaceOnUse">
					<stop
   offset="0"
   style="stop-color:#FFF100"
   id="stop1374" />

					<stop
   offset="0.9216"
   style="stop-color:#006E3A"
   id="stop1376" />

					<stop
   offset="1"
   style="stop-color:#005C36"
   id="stop1378" />

				</radialGradient>
    <radialGradient
       id="SVGID_94_"
       cx="244.5052"
       cy="1476.1356"
       r="12.6278"
       gradientTransform="matrix(1.3475,0,0,-1.3475,886.8596,2052.8513)"
       gradientUnits="userSpaceOnUse">
					<stop
   offset="0"
   style="stop-color:#FFF100"
   id="stop1383" />

					<stop
   offset="1"
   style="stop-color:#006E3A"
   id="stop1385" />

				</radialGradient>
    <radialGradient
       id="SVGID_95_"
       cx="335.7439"
       cy="1441.6514"
       r="12.6278"
       gradientTransform="matrix(1.3475,0,0,-1.3475,813.8596,2024.8513)"
       gradientUnits="userSpaceOnUse">
					<stop
   offset="0"
   style="stop-color:#FFF100"
   id="stop1390" />

					<stop
   offset="1"
   style="stop-color:#006E3A"
   id="stop1392" />

				</radialGradient>
    <radialGradient
       id="SVGID_96_"
       cx="-1166.2091"
       cy="1938.519"
       r="7.8866"
       gradientTransform="matrix(3.1407,0,0,-3.1407,4937.4004,6220.6284)"
       gradientUnits="userSpaceOnUse">
				<stop
   offset="0"
   style="stop-color:#555658"
   id="stop1399" />

				<stop
   offset="1"
   style="stop-color:#000000"
   id="stop1401" />

			</radialGradient>
    <radialGradient
       id="SVGID_97_"
       cx="-141.55479"
       cy="1484.8141"
       r="7.8200998"
       gradientTransform="matrix(1.5949,0,0,-1.5949,1463.9656,2511.9233)"
       gradientUnits="userSpaceOnUse">
				<stop
   offset="0"
   style="stop-color:#555658"
   id="stop1406" />

				<stop
   offset="1"
   style="stop-color:#000000"
   id="stop1408" />

			</radialGradient>
    <radialGradient
       id="SVGID_98_"
       cx="117.502"
       cy="780.9165"
       r="42.012402"
       gradientTransform="matrix(1.4121,0,0,-0.9017,1051.1582,928.6301)"
       gradientUnits="userSpaceOnUse">
				<stop
   offset="0"
   style="stop-color:#143556"
   id="stop1413" />

				<stop
   offset="0.1686"
   style="stop-color:#12395A"
   id="stop1415" />

				<stop
   offset="0.3882"
   style="stop-color:#034366"
   id="stop1417" />

				<stop
   offset="0.6588"
   style="stop-color:#005378"
   id="stop1419" />

				<stop
   offset="0.9412"
   style="stop-color:#006C93"
   id="stop1421" />

				<stop
   offset="1"
   style="stop-color:#00729A"
   id="stop1423" />

			</radialGradient>
    <radialGradient
       id="SVGID_99_"
       cx="2348.7222"
       cy="573.13208"
       r="44.7136"
       gradientTransform="matrix(0.7688,0,0,-0.7688,-604.1497,622.5752)"
       gradientUnits="userSpaceOnUse">
					<stop
   offset="0"
   style="stop-color:#EDE9C7"
   id="stop1428" />

					<stop
   offset="0.0196"
   style="stop-color:#EDE9C7"
   id="stop1430" />

					<stop
   offset="0.5608"
   style="stop-color:#FFFFFF"
   id="stop1432" />

					<stop
   offset="1"
   style="stop-color:#CCCECF"
   id="stop1434" />

				</radialGradient>
    <radialGradient
       id="SVGID_89_"
       cx="456.20221"
       cy="1641.3805"
       r="11.8623"
       gradientTransform="matrix(1.5335,0,0,-1.5335,776.2114,2571.2275)"
       gradientUnits="userSpaceOnUse">
		<stop
   offset="0"
   style="stop-color:#FFF100"
   id="stop1293" />

		<stop
   offset="1"
   style="stop-color:#006E3A"
   id="stop1295" />

	</radialGradient>
    <radialGradient
       id="SVGID_90_"
       cx="-1035.8066"
       cy="1731.3822"
       r="13.5061"
       gradientTransform="matrix(5.0638,0,0,-5.0638,6676.6279,9004.2783)"
       gradientUnits="userSpaceOnUse">
		<stop
   offset="0"
   style="stop-color:#1F341B"
   id="stop1300" />

		<stop
   offset="0.2314"
   style="stop-color:#1F351C"
   id="stop1302" />

		<stop
   offset="0.4196"
   style="stop-color:#213A1F"
   id="stop1304" />

		<stop
   offset="0.5882"
   style="stop-color:#214325"
   id="stop1306" />

		<stop
   offset="0.749"
   style="stop-color:#214F2B"
   id="stop1308" />

		<stop
   offset="0.9098"
   style="stop-color:#196034"
   id="stop1310" />

		<stop
   offset="1"
   style="stop-color:#076E3A"
   id="stop1312" />

	</radialGradient>
    <radialGradient
       id="SVGID_91_"
       cx="-934.26611"
       cy="1884.1205"
       r="6.4828"
       gradientTransform="matrix(4.1983,0,0,-4.1983,5347.2681,8090.3164)"
       gradientUnits="userSpaceOnUse">
		<stop
   offset="0"
   style="stop-color:#ECE8C7"
   id="stop1317" />

		<stop
   offset="0.0196"
   style="stop-color:#ECE8C7"
   id="stop1319" />

		<stop
   offset="0.5608"
   style="stop-color:#FFFFFF"
   id="stop1321" />

		<stop
   offset="1"
   style="stop-color:#CCCECF"
   id="stop1323" />

	</radialGradient>
    <radialGradient
       id="SVGID_92_"
       cx="2264.4363"
       cy="612.74231"
       r="2.6006999"
       gradientTransform="matrix(0.7872,0,0,-0.7872,-333.589,646.6404)"
       gradientUnits="userSpaceOnUse">
		<stop
   offset="0"
   style="stop-color:#EDE9C7"
   id="stop1340" />

		<stop
   offset="0.0196"
   style="stop-color:#EDE9C7"
   id="stop1342" />

		<stop
   offset="0.5608"
   style="stop-color:#FFFFFF"
   id="stop1344" />

		<stop
   offset="1"
   style="stop-color:#CCCECF"
   id="stop1346" />

	</radialGradient>
    <radialGradient
       id="SVGID_82_"
       cx="1055.0876"
       cy="1309.3865"
       r="70.510902"
       gradientTransform="matrix(1.3472,0,0,-1.3472,237.1929,1918.47)"
       gradientUnits="userSpaceOnUse">
			<stop
   offset="0"
   style="stop-color:#FFF100"
   id="stop1219" />

			<stop
   offset="1"
   style="stop-color:#006E3A"
   id="stop1221" />

		</radialGradient>
    <radialGradient
       id="SVGID_83_"
       cx="980.12848"
       cy="1465.1444"
       r="12.8471"
       gradientTransform="matrix(1.347,0,0,-1.347,297.3818,2043.2383)"
       gradientUnits="userSpaceOnUse">
			<stop
   offset="0"
   style="stop-color:#FFF100"
   id="stop1226" />

			<stop
   offset="1"
   style="stop-color:#006E3A"
   id="stop1228" />

		</radialGradient>
    <radialGradient
       id="SVGID_84_"
       cx="1079.0463"
       cy="1465.2749"
       r="12.8474"
       gradientTransform="matrix(1.3471,0,0,-1.3471,218.3373,2043.3065)"
       gradientUnits="userSpaceOnUse">
			<stop
   offset="0"
   style="stop-color:#FFF100"
   id="stop1233" />

			<stop
   offset="1"
   style="stop-color:#006E3A"
   id="stop1235" />

		</radialGradient>
    <radialGradient
       id="SVGID_85_"
       cx="710.82452"
       cy="1526.5007"
       r="13.7811"
       gradientTransform="matrix(1.6987,0,0,-1.6987,457.6634,2741.2556)"
       gradientUnits="userSpaceOnUse">
			<stop
   offset="0"
   style="stop-color:#555658"
   id="stop1240" />

			<stop
   offset="1"
   style="stop-color:#000000"
   id="stop1242" />

		</radialGradient>
    <radialGradient
       id="SVGID_86_"
       cx="1158.0372"
       cy="1266.3339"
       r="18.348499"
       gradientTransform="matrix(1.2759,0,0,-1.2759,184.4943,1763.2743)"
       gradientUnits="userSpaceOnUse">
			<stop
   offset="0"
   style="stop-color:#555658"
   id="stop1247" />

			<stop
   offset="1"
   style="stop-color:#000000"
   id="stop1249" />

		</radialGradient>
    <radialGradient
       id="SVGID_87_"
       cx="542.29401"
       cy="1367.5327"
       r="59.939098"
       gradientTransform="matrix(1.7582,0,0,-1.7582,660.5178,2630.3494)"
       gradientUnits="userSpaceOnUse">
			<stop
   offset="0"
   style="stop-color:#1D3319"
   id="stop1254" />

			<stop
   offset="1"
   style="stop-color:#006E3A"
   id="stop1256" />

		</radialGradient>
    <radialGradient
       id="SVGID_88_"
       cx="2466.9014"
       cy="519.95331"
       r="56.458"
       gradientTransform="matrix(0.744,0,0,-0.744,-195.5748,570.7686)"
       gradientUnits="userSpaceOnUse">
				<stop
   offset="0"
   style="stop-color:#EDE9C7"
   id="stop1261" />

				<stop
   offset="0.0196"
   style="stop-color:#EDE9C7"
   id="stop1263" />

				<stop
   offset="0.5608"
   style="stop-color:#FFFFFF"
   id="stop1265" />

				<stop
   offset="1"
   style="stop-color:#CCCECF"
   id="stop1267" />

			</radialGradient>
    <radialGradient
       id="SVGID_79_"
       cx="824.3576"
       cy="1701.9022"
       r="44.883499"
       gradientTransform="matrix(2.321,0,0,-2.321,-78.7827,4110.9756)"
       gradientUnits="userSpaceOnUse">
		<stop
   offset="0"
   style="stop-color:#FBEC27"
   id="stop1121" />

		<stop
   offset="1"
   style="stop-color:#0B6E3A"
   id="stop1123" />

	</radialGradient>
    <radialGradient
       id="SVGID_80_"
       cx="630.01038"
       cy="1788.5826"
       r="23.645201"
       gradientTransform="matrix(4.0177,0,0,-4.0177,-659.0287,7390.2559)"
       gradientUnits="userSpaceOnUse">
		<stop
   offset="0"
   style="stop-color:#FBED22"
   id="stop1130" />

		<stop
   offset="0.9294"
   style="stop-color:#04714E"
   id="stop1132" />

		<stop
   offset="1"
   style="stop-color:#076E3A"
   id="stop1134" />

	</radialGradient>
    <radialGradient
       id="SVGID_81_"
       cx="1816.611"
       cy="980.9906"
       r="22.937"
       gradientTransform="matrix(1.0136,0,0,-1.0136,-1.1114,1155.0005)"
       gradientUnits="userSpaceOnUse">
		<stop
   offset="0"
   style="stop-color:#565759"
   id="stop1139" />

		<stop
   offset="1"
   style="stop-color:#010101"
   id="stop1141" />

	</radialGradient>
    <radialGradient
       id="SVGID_73_"
       cx="1893.876"
       cy="1400.5966"
       r="12.8471"
       gradientTransform="matrix(1.3474,0,0,-1.3474,-435.0293,1991.7424)"
       gradientUnits="userSpaceOnUse">
			<stop
   offset="0"
   style="stop-color:#FBED22"
   id="stop1048" />

			<stop
   offset="1"
   style="stop-color:#076E3A"
   id="stop1050" />

		</radialGradient>
    <radialGradient
       id="SVGID_74_"
       cx="1731.6604"
       cy="1455.197"
       r="12.3332"
       gradientTransform="matrix(1.4029,0,0,-1.4029,-383.6638,2140.3057)"
       gradientUnits="userSpaceOnUse">
			<stop
   offset="0"
   style="stop-color:#FBED22"
   id="stop1057" />

			<stop
   offset="1"
   style="stop-color:#076E3A"
   id="stop1059" />

		</radialGradient>
    <radialGradient
       id="SVGID_75_"
       cx="1861.5101"
       cy="1309.3763"
       r="70.510902"
       gradientTransform="matrix(1.3472,0,0,-1.3472,-408.7516,1918.4019)"
       gradientUnits="userSpaceOnUse">
			<stop
   offset="0"
   style="stop-color:#FBED22"
   id="stop1068" />

			<stop
   offset="1"
   style="stop-color:#076E3A"
   id="stop1070" />

		</radialGradient>
    <radialGradient
       id="SVGID_76_"
       cx="1572.8452"
       cy="1885.4357"
       r="20.4713"
       gradientTransform="matrix(2.1655,0,0,-3.2116,-1317.9904,6207.252)"
       gradientUnits="userSpaceOnUse">
			<stop
   offset="0"
   style="stop-color:#565759"
   id="stop1077" />

			<stop
   offset="1"
   style="stop-color:#010101"
   id="stop1079" />

		</radialGradient>
    <radialGradient
       id="SVGID_77_"
       cx="1576.1261"
       cy="1881.4911"
       r="20.685699"
       gradientTransform="matrix(2.143,0,0,-3.1784,-1290.0455,6131.9165)"
       gradientUnits="userSpaceOnUse">
			<stop
   offset="0"
   style="stop-color:#565759"
   id="stop1084" />

			<stop
   offset="1"
   style="stop-color:#010101"
   id="stop1086" />

		</radialGradient>
    <radialGradient
       id="SVGID_78_"
       cx="1827.9358"
       cy="1180.2039"
       r="20.807199"
       gradientTransform="matrix(1.3354,0,0,-1.3354,-363.6624,1797.3411)"
       gradientUnits="userSpaceOnUse">
			<stop
   offset="0"
   style="stop-color:#ECE8C7"
   id="stop1091" />

			<stop
   offset="0.0196"
   style="stop-color:#ECE8C7"
   id="stop1093" />

			<stop
   offset="0.5608"
   style="stop-color:#FFFFFF"
   id="stop1095" />

			<stop
   offset="1"
   style="stop-color:#CCCECF"
   id="stop1097" />

		</radialGradient>
  </defs>
  <g
     inkscape:label="Layer 1"
     inkscape:groupmode="layer"
     id="layer1"
     transform="translate(-245.84007,-110.44816)">
    <g
       id="_717159600"
       transform="matrix(0.26458333,0,0,0.26458333,-285.17451,87.975794)">
	<g
   id="g1114">
		<path
   fill="#8bc541"
   stroke="#046031"
   stroke-width="2.6195"
   d="m 2112.641,95.309 c 4.259,-2.366 9.465,-2.366 13.96,0 7.572,3.786 10.411,13.014 6.625,20.349 -3.786,7.572 -13.014,10.648 -20.585,6.862 -7.335,-4.022 -10.411,-13.251 -6.625,-20.586 0.473,-0.946 -2.839,-3.786 -3.313,-4.259 -1.42,-1.893 -2.129,-2.839 -2.366,-5.206 -1.656,-13.723 10.175,3.786 12.304,2.84 z"
   id="path1046" />

		
			<radialGradient
   id="radialGradient9830"
   cx="1893.876"
   cy="1400.5966"
   r="12.8471"
   gradientTransform="matrix(1.3474,0,0,-1.3474,-435.0293,1991.7424)"
   gradientUnits="userSpaceOnUse">
			<stop
   offset="0"
   style="stop-color:#FBED22"
   id="stop9826" />

			<stop
   offset="1"
   style="stop-color:#076E3A"
   id="stop9828" />

		</radialGradient>

		<path
   fill="url(#SVGID_73_)"
   fill-opacity="0.502"
   d="m 2119.976,96.019 c 7.099,0 12.777,5.679 12.777,12.777 0,7.098 -5.679,12.777 -12.777,12.777 -7.098,0 -13.014,-5.679 -13.014,-12.777 0,-7.099 5.916,-12.777 13.014,-12.777 z"
   id="path1053"
   style="fill:url(#SVGID_73_)" />

		<path
   fill="#8bc541"
   stroke="#046031"
   stroke-width="2.6195"
   d="m 2051.831,91.286 c -3.076,-3.549 -8.045,-5.442 -13.014,-4.969 -8.281,0.946 -14.434,8.518 -13.487,16.8 0.946,8.518 8.281,14.434 16.8,13.724 8.281,-0.946 14.434,-8.518 13.487,-17.036 -0.237,-1.183 15.144,-6.862 6.389,-10.174 -2.603,-0.948 -8.519,3.548 -10.175,1.655 z"
   id="path1055" />

		
			<radialGradient
   id="radialGradient9838"
   cx="1731.6604"
   cy="1455.197"
   r="12.3332"
   gradientTransform="matrix(1.4029,0,0,-1.4029,-383.6638,2140.3057)"
   gradientUnits="userSpaceOnUse">
			<stop
   offset="0"
   style="stop-color:#FBED22"
   id="stop9834" />

			<stop
   offset="1"
   style="stop-color:#076E3A"
   id="stop9836" />

		</radialGradient>

		<path
   fill="url(#SVGID_74_)"
   fill-opacity="0.502"
   d="m 2040.237,88.683 c 7.098,0 12.777,5.679 12.777,12.777 0,7.098 -5.679,12.777 -12.777,12.777 -7.099,0 -12.777,-5.679 -12.777,-12.777 -10e-4,-7.098 5.678,-12.777 12.777,-12.777 z"
   id="path1062"
   style="fill:url(#SVGID_74_)" />

		<path
   fill="#bcbdbf"
   fill-opacity="0.749"
   d="m 2083.064,242.957 c 39.278,0 70.985,4.022 70.985,8.755 0,4.969 -31.707,8.991 -70.985,8.991 -39.042,0 -70.748,-4.022 -70.748,-8.991 0,-4.732 31.707,-8.755 70.748,-8.755 z"
   id="path1064" />

		<path
   fill="#8bc541"
   stroke="#046031"
   stroke-width="2.6195"
   d="m 2102.94,105.956 -0.71,-1.893 c 1.656,-2.839 3.313,-6.862 3.313,-10.174 0,-0.71 -2.129,-8.755 -4.259,-6.625 -2.366,2.366 -2.603,14.434 -4.496,15.143 l -2.839,1.183 c -4.259,-0.71 -8.518,-1.183 -13.014,-1.183 -3.313,0 -6.389,0.237 -9.701,0.71 l -2.603,-1.183 c -0.237,-1.893 -2.366,-7.808 -3.549,-12.067 -3.313,-2.603 -5.916,-1.183 -8.045,1.893 1.656,3.786 4.259,9.938 5.442,11.594 l -0.237,1.656 c -31.233,8.282 -53.948,36.676 -53.948,70.275 0,40.225 32.416,72.878 72.641,72.878 40.225,0 72.878,-32.653 72.878,-72.878 0,-32.416 -21.296,-60.101 -50.873,-69.329 z"
   id="path1066" />

		
			<radialGradient
   id="radialGradient9847"
   cx="1861.5101"
   cy="1309.3763"
   r="70.510902"
   gradientTransform="matrix(1.3472,0,0,-1.3472,-408.7516,1918.4019)"
   gradientUnits="userSpaceOnUse">
			<stop
   offset="0"
   style="stop-color:#FBED22"
   id="stop9843" />

			<stop
   offset="1"
   style="stop-color:#076E3A"
   id="stop9845" />

		</radialGradient>

		<path
   fill="url(#SVGID_75_)"
   stroke="#2a9045"
   stroke-width="2.6195"
   d="m 2080.698,105.01 c 38.805,0 70.511,31.707 70.511,70.512 0,39.042 -31.707,70.512 -70.511,70.512 -39.042,0 -70.512,-31.47 -70.512,-70.512 10e-4,-38.805 31.47,-70.512 70.512,-70.512 z"
   id="path1073"
   style="fill:url(#SVGID_75_)" />

		<path
   fill="#195329"
   d="m 2070.524,228.997 c 4.259,-3.313 13.724,-4.969 16.8,0.71 -4.732,-2.13 -10.648,-3.313 -15.617,-0.946 0.237,-0.473 0.71,-0.71 1.183,-0.946 z"
   id="path1075" />

		
			<radialGradient
   id="radialGradient9855"
   cx="1572.8452"
   cy="1885.4357"
   r="20.4713"
   gradientTransform="matrix(2.1655,0,0,-3.2116,-1317.9904,6207.252)"
   gradientUnits="userSpaceOnUse">
			<stop
   offset="0"
   style="stop-color:#565759"
   id="stop9851" />

			<stop
   offset="1"
   style="stop-color:#010101"
   id="stop9853" />

		</radialGradient>

		<path
   fill="url(#SVGID_76_)"
   d="m 2034.795,165.347 c 0,0 14.197,-0.237 14.907,-0.237 7.808,-0.237 15.617,0 23.425,-0.237 2.129,-0.237 3.076,-1.42 2.129,-3.549 -0.473,-1.42 -1.183,-3.076 -1.893,-4.259 -1.183,-1.42 -4.022,-3.076 -5.679,-3.786 -1.42,-0.71 -3.076,-1.183 -4.496,-2.13 -2.839,-1.656 -5.206,-3.786 -8.518,-4.496 -2.839,-0.237 -5.916,0.946 -8.282,2.366 -5.678,3.551 -10.647,9.466 -11.593,16.328 z"
   id="path1082"
   style="fill:url(#SVGID_76_)" />

		
			<radialGradient
   id="radialGradient9862"
   cx="1576.1261"
   cy="1881.4911"
   r="20.685699"
   gradientTransform="matrix(2.143,0,0,-3.1784,-1290.0455,6131.9165)"
   gradientUnits="userSpaceOnUse">
			<stop
   offset="0"
   style="stop-color:#565759"
   id="stop9858" />

			<stop
   offset="1"
   style="stop-color:#010101"
   id="stop9860" />

		</radialGradient>

		<path
   fill="url(#SVGID_77_)"
   d="m 2091.819,164.164 c 0.237,0.473 0.71,0.71 1.183,1.183 1.42,0.473 4.022,0 5.679,0 4.259,-0.237 8.755,-0.237 13.014,-0.473 4.496,0 8.755,-0.237 13.25,-0.237 2.366,0.237 5.206,-0.237 7.572,0.473 0,0.237 0,0.237 0,0.237 -2.839,-5.915 -4.969,-12.067 -9.465,-15.143 -3.076,-1.893 -8.755,-4.496 -12.304,-3.076 -2.839,0.946 -4.969,3.313 -7.572,4.732 -2.13,0.946 -4.022,2.13 -6.152,3.076 -2.366,0.946 -3.786,2.603 -4.969,4.732 -0.946,1.42 -1.182,3.313 -0.236,4.496 z"
   id="path1089"
   style="fill:url(#SVGID_77_)" />

		
			<radialGradient
   id="radialGradient9873"
   cx="1827.9358"
   cy="1180.2039"
   r="20.807199"
   gradientTransform="matrix(1.3354,0,0,-1.3354,-363.6624,1797.3411)"
   gradientUnits="userSpaceOnUse">
			<stop
   offset="0"
   style="stop-color:#ECE8C7"
   id="stop9865" />

			<stop
   offset="0.0196"
   style="stop-color:#ECE8C7"
   id="stop9867" />

			<stop
   offset="0.5608"
   style="stop-color:#FFFFFF"
   id="stop9869" />

			<stop
   offset="1"
   style="stop-color:#CCCECF"
   id="stop9871" />

		</radialGradient>

		<path
   fill="url(#SVGID_78_)"
   stroke="#1f341b"
   stroke-width="2.2791"
   d="m 2080.225,213.853 c 2.13,0 4.259,0 6.625,-0.473 3.549,-0.473 6.862,-2.13 10.175,-3.549 2.603,-1.183 5.206,-2.603 8.045,-3.076 3.786,-0.946 2.603,4.259 1.42,6.389 -1.183,2.13 -4.259,6.389 -6.625,7.335 -3.313,1.42 -8.045,-0.237 -11.358,-1.656 -3.786,-1.656 -8.281,-2.839 -12.304,-2.366 -1.893,0 -3.786,0.71 -5.442,1.183 -1.42,0.473 -3.313,1.656 -4.732,1.656 3.076,-2.13 6.152,-3.786 9.701,-4.732 1.419,-0.474 3.075,-0.711 4.495,-0.711 z"
   id="path1100"
   style="fill:url(#SVGID_78_)" />

		<path
   fill="#195329"
   d="m 2089.453,152.097 c -0.473,-1.893 -0.237,-4.259 -0.237,-5.679 0.237,-3.076 1.42,-6.625 0.71,-9.701 -3.313,2.603 -3.549,8.991 -5.442,12.541 -1.183,2.366 -3.076,2.603 -4.022,0.237 -0.71,-1.893 -0.946,-5.442 -2.603,-6.625 -0.473,2.13 -0.71,4.259 -0.71,6.625 0,0.946 0.237,2.839 -0.473,3.786 -0.71,1.183 -2.129,0.473 -3.549,0.237 -3.313,0 -7.572,-1.656 -10.648,-3.549 -3.076,-1.656 -5.916,-4.022 -8.518,-6.389 -2.366,-2.13 -4.259,-4.969 -6.862,-6.862 0.237,0.473 0.473,1.183 0.71,1.893 1.893,4.969 5.679,8.518 9.938,11.594 4.969,3.786 12.777,8.045 19.166,7.335 0.237,0 0.473,0 0.946,0 0.71,-0.237 2.13,-0.473 2.603,-0.71 0.71,-0.473 0.71,-1.656 1.42,-2.13 0.473,-0.473 3.076,2.366 3.786,2.839 1.893,0.946 4.496,1.42 6.625,0.946 2.839,-0.237 5.916,-1.42 8.518,-2.603 4.022,-1.42 8.045,-3.313 11.594,-5.442 1.893,-0.946 3.549,-2.839 4.496,-4.732 0.473,-0.71 0.473,-1.656 0.947,-2.366 0.237,-0.237 0.946,-2.366 0.946,-2.603 -0.946,0.71 -1.893,1.42 -2.839,2.13 -4.022,3.076 -8.045,5.915 -12.777,8.282 -2.84,1.42 -7.808,4.496 -11.358,3.549 -1.421,-0.237 -2.131,-1.42 -2.367,-2.603 z"
   id="path1102" />

		<path
   fill="none"
   stroke="#f6921f"
   stroke-width="2.6885"
   stroke-linecap="round"
   d="m 2096.078,214.09 c 2.366,0 4.969,0 7.335,0"
   id="path1104" />

		<path
   fill="#dbd9d9"
   d="m 2041.183,159.432 c -0.946,0 -2.13,0.473 -2.366,1.42 1.183,0.71 6.389,1.183 7.808,0 -1.42,-1.42 -4.969,-1.42 -6.862,-1.183 z"
   id="path1106" />

		<path
   fill="#dbd9d9"
   d="m 2051.594,160.615 c -0.946,-0.237 -1.656,0 -2.129,0.473 0.473,0.71 2.366,0.946 2.366,-0.237 -0.237,0 -0.71,-0.237 -1.183,-0.237 h 0.946 z"
   id="path1108" />

		<path
   fill="#dbd9d9"
   d="m 2096.552,161.798 c 0.473,-0.473 8.518,1.42 8.281,-0.71 -0.237,-1.42 -7.572,-0.237 -8.281,0.71 z"
   id="path1110" />

		<path
   fill="#dbd9d9"
   d="m 2109.092,160.615 c -1.183,0 -3.076,0.946 -1.183,1.42 2.13,0.237 2.13,-1.183 0.237,-1.42 z"
   id="path1112" />

	</g>

</g>
  </g>
</svg>
