<?xml version="1.0" encoding="UTF-8" standalone="no"?>
<!-- Created with Inkscape (http://www.inkscape.org/) -->

<svg
   width="60.131516mm"
   height="53.56683mm"
   viewBox="0 0 60.131516 53.56683"
   version="1.1"
   id="svg5992"
   inkscape:version="1.2.1 (9c6d41e410, 2022-07-14, custom)"
   sodipodi:docname="11.svg"
   xmlns:inkscape="http://www.inkscape.org/namespaces/inkscape"
   xmlns:sodipodi="http://sodipodi.sourceforge.net/DTD/sodipodi-0.dtd"
   xmlns="http://www.w3.org/2000/svg"
   xmlns:svg="http://www.w3.org/2000/svg">
  <sodipodi:namedview
     id="namedview5994"
     pagecolor="#505050"
     bordercolor="#ffffff"
     borderopacity="1"
     inkscape:showpageshadow="0"
     inkscape:pageopacity="0"
     inkscape:pagecheckerboard="1"
     inkscape:deskcolor="#505050"
     inkscape:document-units="mm"
     showgrid="false"
     inkscape:zoom="0.91647663"
     inkscape:cx="125.48056"
     inkscape:cy="123.29829"
     inkscape:current-layer="layer1" />
  <defs
     id="defs5989">
    <radialGradient
       id="SVGID_118_"
       cx="-1737.3789"
       cy="1352.75"
       r="76.253304"
       gradientTransform="matrix(1.3473,0,0,-1.3473,2475.104,1953.579)"
       gradientUnits="userSpaceOnUse">
			<stop
   offset="0"
   style="stop-color:#FFF100"
   id="stop1716" />

			<stop
   offset="0.9216"
   style="stop-color:#006E3A"
   id="stop1718" />

			<stop
   offset="1"
   style="stop-color:#005C36"
   id="stop1720" />

		</radialGradient>
    <radialGradient
       id="SVGID_119_"
       cx="-28975.201"
       cy="216694.47"
       r="9004656"
       gradientTransform="matrix(1.3473,0,0,-1.3473,2471.0708,2080.5925)"
       gradientUnits="userSpaceOnUse">
			<stop
   offset="0"
   style="stop-color:#FFF100"
   id="stop1725" />

			<stop
   offset="1"
   style="stop-color:#006E3A"
   id="stop1727" />

		</radialGradient>
    <radialGradient
       id="SVGID_120_"
       cx="-24072.584"
       cy="213092.28"
       r="8834610"
       gradientTransform="matrix(1.3471,0,0,-1.3471,2389.3596,2050.2656)"
       gradientUnits="userSpaceOnUse">
			<stop
   offset="0"
   style="stop-color:#FFF100"
   id="stop1732" />

			<stop
   offset="1"
   style="stop-color:#006E3A"
   id="stop1734" />

		</radialGradient>
    <radialGradient
       id="SVGID_112_"
       cx="-893.47668"
       cy="1309.4705"
       r="70.514"
       gradientTransform="matrix(1.3472,0,0,-1.3472,1798.2373,1918.4155)"
       gradientUnits="userSpaceOnUse">
		<stop
   offset="0"
   style="stop-color:#FFF100"
   id="stop1614" />

		<stop
   offset="1"
   style="stop-color:#006E3A"
   id="stop1616" />

	</radialGradient>
    <radialGradient
       id="SVGID_113_"
       cx="-974.05859"
       cy="1466.6222"
       r="12.8502"
       gradientTransform="matrix(1.3488,0,0,-1.3488,1867.4374,2047.6222)"
       gradientUnits="userSpaceOnUse">
		<stop
   offset="0"
   style="stop-color:#FFF100"
   id="stop1621" />

		<stop
   offset="1"
   style="stop-color:#006E3A"
   id="stop1623" />

	</radialGradient>
    <radialGradient
       id="SVGID_114_"
       cx="-874.62219"
       cy="1466.7423"
       r="12.8505"
       gradientTransform="matrix(1.3488,0,0,-1.3488,1787.4595,2047.5951)"
       gradientUnits="userSpaceOnUse">
		<stop
   offset="0"
   style="stop-color:#FFF100"
   id="stop1628" />

		<stop
   offset="1"
   style="stop-color:#006E3A"
   id="stop1630" />

	</radialGradient>
    <radialGradient
       id="SVGID_115_"
       cx="-2215.6433"
       cy="1622.572"
       r="26.633499"
       gradientTransform="matrix(1.9513,0,0,-1.9513,4919.958,3316.3838)"
       gradientUnits="userSpaceOnUse">
		<stop
   offset="0"
   style="stop-color:#555658"
   id="stop1635" />

		<stop
   offset="1"
   style="stop-color:#000000"
   id="stop1637" />

	</radialGradient>
    <radialGradient
       id="SVGID_116_"
       cx="-641.42328"
       cy="1259.4612"
       r="42.782799"
       gradientTransform="matrix(1.2718,0,0,-1.2718,1409.0055,1751.7029)"
       gradientUnits="userSpaceOnUse">
		<stop
   offset="0"
   style="stop-color:#555658"
   id="stop1642" />

		<stop
   offset="1"
   style="stop-color:#000000"
   id="stop1644" />

	</radialGradient>
    <radialGradient
       id="SVGID_117_"
       cx="-1951.9958"
       cy="1344.2617"
       r="10.3476"
       gradientTransform="matrix(1.7606,0,0,-1.7606,4009.8398,2602.6323)"
       gradientUnits="userSpaceOnUse">
		<stop
   offset="0"
   style="stop-color:#1D3319"
   id="stop1649" />

		<stop
   offset="1"
   style="stop-color:#006E3A"
   id="stop1651" />

	</radialGradient>
    <radialGradient
       id="SVGID_100_"
       cx="-519.21722"
       cy="1321.9581"
       r="74.126404"
       gradientTransform="matrix(1.3474,0,0,-1.3474,1499.0485,1928.6471)"
       gradientUnits="userSpaceOnUse">
			<stop
   offset="0"
   style="stop-color:#FFF100"
   id="stop1456" />

			<stop
   offset="0.9216"
   style="stop-color:#006E3A"
   id="stop1458" />

			<stop
   offset="1"
   style="stop-color:#005C36"
   id="stop1460" />

		</radialGradient>
    <radialGradient
       id="SVGID_101_"
       cx="-607.61078"
       cy="1482.7708"
       r="13.5019"
       gradientTransform="matrix(1.3472,0,0,-1.3472,1569.2484,2057.4019)"
       gradientUnits="userSpaceOnUse">
			<stop
   offset="0"
   style="stop-color:#FFF100"
   id="stop1465" />

			<stop
   offset="1"
   style="stop-color:#006E3A"
   id="stop1467" />

		</radialGradient>
    <radialGradient
       id="SVGID_102_"
       cx="-502.6402"
       cy="1487.0332"
       r="13.5061"
       gradientTransform="matrix(1.3469,0,0,-1.3469,1484.5818,2059.9932)"
       gradientUnits="userSpaceOnUse">
			<stop
   offset="0"
   style="stop-color:#FFF100"
   id="stop1472" />

			<stop
   offset="1"
   style="stop-color:#006E3A"
   id="stop1474" />

		</radialGradient>
    <radialGradient
       id="SVGID_103_"
       cx="1671.5831"
       cy="754.52118"
       r="2.7254"
       gradientTransform="matrix(0.8519,0,0,-0.8519,-662.4748,765.7676)"
       gradientUnits="userSpaceOnUse">
		<stop
   offset="0"
   style="stop-color:#ECE8C7"
   id="stop1481" />

		<stop
   offset="0.0196"
   style="stop-color:#ECE8C7"
   id="stop1483" />

		<stop
   offset="0.5608"
   style="stop-color:#FFFFFF"
   id="stop1485" />

		<stop
   offset="1"
   style="stop-color:#CCCECF"
   id="stop1487" />

	</radialGradient>
    <radialGradient
       id="SVGID_104_"
       cx="3591.7002"
       cy="184.68359"
       r="28.8601"
       gradientTransform="matrix(0.6484,0,0,-0.6484,-1555.3717,179.5646)"
       gradientUnits="userSpaceOnUse">
		<stop
   offset="0"
   style="stop-color:#FFF100"
   id="stop1492" />

		<stop
   offset="1"
   style="stop-color:#006E3A"
   id="stop1494" />

	</radialGradient>
    <radialGradient
       id="SVGID_105_"
       cx="2590.8857"
       cy="512.97467"
       r="43.756401"
       gradientTransform="matrix(0.7409,0,0,-0.7409,-1143.1013,559.5225)"
       gradientUnits="userSpaceOnUse">
			<stop
   offset="0"
   style="stop-color:#EDE9C7"
   id="stop1501" />

			<stop
   offset="0.0196"
   style="stop-color:#EDE9C7"
   id="stop1503" />

			<stop
   offset="0.5608"
   style="stop-color:#FFFFFF"
   id="stop1505" />

			<stop
   offset="1"
   style="stop-color:#CCCECF"
   id="stop1507" />

		</radialGradient>
    <radialGradient
       id="SVGID_106_"
       cx="-140.1868"
       cy="1309.3925"
       r="70.510902"
       gradientTransform="matrix(1.3472,0,0,-1.3472,1195.1595,1918.5109)"
       gradientUnits="userSpaceOnUse">
			<stop
   offset="0"
   style="stop-color:#FFF100"
   id="stop1545" />

			<stop
   offset="1"
   style="stop-color:#006E3A"
   id="stop1547" />

		</radialGradient>
    <radialGradient
       id="SVGID_107_"
       cx="-214.66319"
       cy="1465.1354"
       r="12.8471"
       gradientTransform="matrix(1.347,0,0,-1.347,1254.4485,2043.1566)"
       gradientUnits="userSpaceOnUse">
			<stop
   offset="0"
   style="stop-color:#FFF100"
   id="stop1552" />

			<stop
   offset="1"
   style="stop-color:#006E3A"
   id="stop1554" />

		</radialGradient>
    <radialGradient
       id="SVGID_108_"
       cx="-115.1692"
       cy="1465.2555"
       r="12.8474"
       gradientTransform="matrix(1.347,0,0,-1.347,1174.4818,2043.1294)"
       gradientUnits="userSpaceOnUse">
			<stop
   offset="0"
   style="stop-color:#FFF100"
   id="stop1559" />

			<stop
   offset="1"
   style="stop-color:#006E3A"
   id="stop1561" />

		</radialGradient>
    <radialGradient
       id="SVGID_109_"
       cx="-1530.1787"
       cy="1762.231"
       r="7.5064998"
       gradientTransform="matrix(2.3317,0,0,-2.3317,4575.2949,4249.5923)"
       gradientUnits="userSpaceOnUse">
			<stop
   offset="0"
   style="stop-color:#555658"
   id="stop1566" />

			<stop
   offset="1"
   style="stop-color:#000000"
   id="stop1568" />

		</radialGradient>
    <radialGradient
       id="SVGID_110_"
       cx="37.406898"
       cy="1276.4313"
       r="12.5238"
       gradientTransform="matrix(1.2781,0,0,-1.2781,957.9388,1774.3531)"
       gradientUnits="userSpaceOnUse">
			<stop
   offset="0"
   style="stop-color:#555658"
   id="stop1573" />

			<stop
   offset="1"
   style="stop-color:#000000"
   id="stop1575" />

		</radialGradient>
    <radialGradient
       id="SVGID_111_"
       cx="-988.56281"
       cy="1368.2556"
       r="34.4953"
       gradientTransform="matrix(1.7591,0,0,-1.7591,2713.5066,2632.6028)"
       gradientUnits="userSpaceOnUse">
			<stop
   offset="0"
   style="stop-color:#1D3319"
   id="stop1580" />

			<stop
   offset="1"
   style="stop-color:#006E3A"
   id="stop1582" />

		</radialGradient>
    <radialGradient
       id="SVGID_93_"
       cx="240.53169"
       cy="1330.7733"
       r="69.319504"
       gradientTransform="matrix(1.3473,0,0,-1.3473,890.0596,1935.6334)"
       gradientUnits="userSpaceOnUse">
					<stop
   offset="0"
   style="stop-color:#FFF100"
   id="stop1374" />

					<stop
   offset="0.9216"
   style="stop-color:#006E3A"
   id="stop1376" />

					<stop
   offset="1"
   style="stop-color:#005C36"
   id="stop1378" />

				</radialGradient>
    <radialGradient
       id="SVGID_94_"
       cx="244.5052"
       cy="1476.1356"
       r="12.6278"
       gradientTransform="matrix(1.3475,0,0,-1.3475,886.8596,2052.8513)"
       gradientUnits="userSpaceOnUse">
					<stop
   offset="0"
   style="stop-color:#FFF100"
   id="stop1383" />

					<stop
   offset="1"
   style="stop-color:#006E3A"
   id="stop1385" />

				</radialGradient>
    <radialGradient
       id="SVGID_95_"
       cx="335.7439"
       cy="1441.6514"
       r="12.6278"
       gradientTransform="matrix(1.3475,0,0,-1.3475,813.8596,2024.8513)"
       gradientUnits="userSpaceOnUse">
					<stop
   offset="0"
   style="stop-color:#FFF100"
   id="stop1390" />

					<stop
   offset="1"
   style="stop-color:#006E3A"
   id="stop1392" />

				</radialGradient>
    <radialGradient
       id="SVGID_96_"
       cx="-1166.2091"
       cy="1938.519"
       r="7.8866"
       gradientTransform="matrix(3.1407,0,0,-3.1407,4937.4004,6220.6284)"
       gradientUnits="userSpaceOnUse">
				<stop
   offset="0"
   style="stop-color:#555658"
   id="stop1399" />

				<stop
   offset="1"
   style="stop-color:#000000"
   id="stop1401" />

			</radialGradient>
    <radialGradient
       id="SVGID_97_"
       cx="-141.55479"
       cy="1484.8141"
       r="7.8200998"
       gradientTransform="matrix(1.5949,0,0,-1.5949,1463.9656,2511.9233)"
       gradientUnits="userSpaceOnUse">
				<stop
   offset="0"
   style="stop-color:#555658"
   id="stop1406" />

				<stop
   offset="1"
   style="stop-color:#000000"
   id="stop1408" />

			</radialGradient>
    <radialGradient
       id="SVGID_98_"
       cx="117.502"
       cy="780.9165"
       r="42.012402"
       gradientTransform="matrix(1.4121,0,0,-0.9017,1051.1582,928.6301)"
       gradientUnits="userSpaceOnUse">
				<stop
   offset="0"
   style="stop-color:#143556"
   id="stop1413" />

				<stop
   offset="0.1686"
   style="stop-color:#12395A"
   id="stop1415" />

				<stop
   offset="0.3882"
   style="stop-color:#034366"
   id="stop1417" />

				<stop
   offset="0.6588"
   style="stop-color:#005378"
   id="stop1419" />

				<stop
   offset="0.9412"
   style="stop-color:#006C93"
   id="stop1421" />

				<stop
   offset="1"
   style="stop-color:#00729A"
   id="stop1423" />

			</radialGradient>
    <radialGradient
       id="SVGID_99_"
       cx="2348.7222"
       cy="573.13208"
       r="44.7136"
       gradientTransform="matrix(0.7688,0,0,-0.7688,-604.1497,622.5752)"
       gradientUnits="userSpaceOnUse">
					<stop
   offset="0"
   style="stop-color:#EDE9C7"
   id="stop1428" />

					<stop
   offset="0.0196"
   style="stop-color:#EDE9C7"
   id="stop1430" />

					<stop
   offset="0.5608"
   style="stop-color:#FFFFFF"
   id="stop1432" />

					<stop
   offset="1"
   style="stop-color:#CCCECF"
   id="stop1434" />

				</radialGradient>
    <radialGradient
       id="SVGID_89_"
       cx="456.20221"
       cy="1641.3805"
       r="11.8623"
       gradientTransform="matrix(1.5335,0,0,-1.5335,776.2114,2571.2275)"
       gradientUnits="userSpaceOnUse">
		<stop
   offset="0"
   style="stop-color:#FFF100"
   id="stop1293" />

		<stop
   offset="1"
   style="stop-color:#006E3A"
   id="stop1295" />

	</radialGradient>
    <radialGradient
       id="SVGID_90_"
       cx="-1035.8066"
       cy="1731.3822"
       r="13.5061"
       gradientTransform="matrix(5.0638,0,0,-5.0638,6676.6279,9004.2783)"
       gradientUnits="userSpaceOnUse">
		<stop
   offset="0"
   style="stop-color:#1F341B"
   id="stop1300" />

		<stop
   offset="0.2314"
   style="stop-color:#1F351C"
   id="stop1302" />

		<stop
   offset="0.4196"
   style="stop-color:#213A1F"
   id="stop1304" />

		<stop
   offset="0.5882"
   style="stop-color:#214325"
   id="stop1306" />

		<stop
   offset="0.749"
   style="stop-color:#214F2B"
   id="stop1308" />

		<stop
   offset="0.9098"
   style="stop-color:#196034"
   id="stop1310" />

		<stop
   offset="1"
   style="stop-color:#076E3A"
   id="stop1312" />

	</radialGradient>
    <radialGradient
       id="SVGID_91_"
       cx="-934.26611"
       cy="1884.1205"
       r="6.4828"
       gradientTransform="matrix(4.1983,0,0,-4.1983,5347.2681,8090.3164)"
       gradientUnits="userSpaceOnUse">
		<stop
   offset="0"
   style="stop-color:#ECE8C7"
   id="stop1317" />

		<stop
   offset="0.0196"
   style="stop-color:#ECE8C7"
   id="stop1319" />

		<stop
   offset="0.5608"
   style="stop-color:#FFFFFF"
   id="stop1321" />

		<stop
   offset="1"
   style="stop-color:#CCCECF"
   id="stop1323" />

	</radialGradient>
    <radialGradient
       id="SVGID_92_"
       cx="2264.4363"
       cy="612.74231"
       r="2.6006999"
       gradientTransform="matrix(0.7872,0,0,-0.7872,-333.589,646.6404)"
       gradientUnits="userSpaceOnUse">
		<stop
   offset="0"
   style="stop-color:#EDE9C7"
   id="stop1340" />

		<stop
   offset="0.0196"
   style="stop-color:#EDE9C7"
   id="stop1342" />

		<stop
   offset="0.5608"
   style="stop-color:#FFFFFF"
   id="stop1344" />

		<stop
   offset="1"
   style="stop-color:#CCCECF"
   id="stop1346" />

	</radialGradient>
    <radialGradient
       id="SVGID_82_"
       cx="1055.0876"
       cy="1309.3865"
       r="70.510902"
       gradientTransform="matrix(1.3472,0,0,-1.3472,237.1929,1918.47)"
       gradientUnits="userSpaceOnUse">
			<stop
   offset="0"
   style="stop-color:#FFF100"
   id="stop1219" />

			<stop
   offset="1"
   style="stop-color:#006E3A"
   id="stop1221" />

		</radialGradient>
    <radialGradient
       id="SVGID_83_"
       cx="980.12848"
       cy="1465.1444"
       r="12.8471"
       gradientTransform="matrix(1.347,0,0,-1.347,297.3818,2043.2383)"
       gradientUnits="userSpaceOnUse">
			<stop
   offset="0"
   style="stop-color:#FFF100"
   id="stop1226" />

			<stop
   offset="1"
   style="stop-color:#006E3A"
   id="stop1228" />

		</radialGradient>
    <radialGradient
       id="SVGID_84_"
       cx="1079.0463"
       cy="1465.2749"
       r="12.8474"
       gradientTransform="matrix(1.3471,0,0,-1.3471,218.3373,2043.3065)"
       gradientUnits="userSpaceOnUse">
			<stop
   offset="0"
   style="stop-color:#FFF100"
   id="stop1233" />

			<stop
   offset="1"
   style="stop-color:#006E3A"
   id="stop1235" />

		</radialGradient>
    <radialGradient
       id="SVGID_85_"
       cx="710.82452"
       cy="1526.5007"
       r="13.7811"
       gradientTransform="matrix(1.6987,0,0,-1.6987,457.6634,2741.2556)"
       gradientUnits="userSpaceOnUse">
			<stop
   offset="0"
   style="stop-color:#555658"
   id="stop1240" />

			<stop
   offset="1"
   style="stop-color:#000000"
   id="stop1242" />

		</radialGradient>
    <radialGradient
       id="SVGID_86_"
       cx="1158.0372"
       cy="1266.3339"
       r="18.348499"
       gradientTransform="matrix(1.2759,0,0,-1.2759,184.4943,1763.2743)"
       gradientUnits="userSpaceOnUse">
			<stop
   offset="0"
   style="stop-color:#555658"
   id="stop1247" />

			<stop
   offset="1"
   style="stop-color:#000000"
   id="stop1249" />

		</radialGradient>
    <radialGradient
       id="SVGID_87_"
       cx="542.29401"
       cy="1367.5327"
       r="59.939098"
       gradientTransform="matrix(1.7582,0,0,-1.7582,660.5178,2630.3494)"
       gradientUnits="userSpaceOnUse">
			<stop
   offset="0"
   style="stop-color:#1D3319"
   id="stop1254" />

			<stop
   offset="1"
   style="stop-color:#006E3A"
   id="stop1256" />

		</radialGradient>
    <radialGradient
       id="SVGID_88_"
       cx="2466.9014"
       cy="519.95331"
       r="56.458"
       gradientTransform="matrix(0.744,0,0,-0.744,-195.5748,570.7686)"
       gradientUnits="userSpaceOnUse">
				<stop
   offset="0"
   style="stop-color:#EDE9C7"
   id="stop1261" />

				<stop
   offset="0.0196"
   style="stop-color:#EDE9C7"
   id="stop1263" />

				<stop
   offset="0.5608"
   style="stop-color:#FFFFFF"
   id="stop1265" />

				<stop
   offset="1"
   style="stop-color:#CCCECF"
   id="stop1267" />

			</radialGradient>
    <radialGradient
       id="SVGID_79_"
       cx="824.3576"
       cy="1701.9022"
       r="44.883499"
       gradientTransform="matrix(2.321,0,0,-2.321,-78.7827,4110.9756)"
       gradientUnits="userSpaceOnUse">
		<stop
   offset="0"
   style="stop-color:#FBEC27"
   id="stop1121" />

		<stop
   offset="1"
   style="stop-color:#0B6E3A"
   id="stop1123" />

	</radialGradient>
    <radialGradient
       id="SVGID_80_"
       cx="630.01038"
       cy="1788.5826"
       r="23.645201"
       gradientTransform="matrix(4.0177,0,0,-4.0177,-659.0287,7390.2559)"
       gradientUnits="userSpaceOnUse">
		<stop
   offset="0"
   style="stop-color:#FBED22"
   id="stop1130" />

		<stop
   offset="0.9294"
   style="stop-color:#04714E"
   id="stop1132" />

		<stop
   offset="1"
   style="stop-color:#076E3A"
   id="stop1134" />

	</radialGradient>
    <radialGradient
       id="SVGID_81_"
       cx="1816.611"
       cy="980.9906"
       r="22.937"
       gradientTransform="matrix(1.0136,0,0,-1.0136,-1.1114,1155.0005)"
       gradientUnits="userSpaceOnUse">
		<stop
   offset="0"
   style="stop-color:#565759"
   id="stop1139" />

		<stop
   offset="1"
   style="stop-color:#010101"
   id="stop1141" />

	</radialGradient>
    <radialGradient
       id="SVGID_73_"
       cx="1893.876"
       cy="1400.5966"
       r="12.8471"
       gradientTransform="matrix(1.3474,0,0,-1.3474,-435.0293,1991.7424)"
       gradientUnits="userSpaceOnUse">
			<stop
   offset="0"
   style="stop-color:#FBED22"
   id="stop1048" />

			<stop
   offset="1"
   style="stop-color:#076E3A"
   id="stop1050" />

		</radialGradient>
    <radialGradient
       id="SVGID_74_"
       cx="1731.6604"
       cy="1455.197"
       r="12.3332"
       gradientTransform="matrix(1.4029,0,0,-1.4029,-383.6638,2140.3057)"
       gradientUnits="userSpaceOnUse">
			<stop
   offset="0"
   style="stop-color:#FBED22"
   id="stop1057" />

			<stop
   offset="1"
   style="stop-color:#076E3A"
   id="stop1059" />

		</radialGradient>
    <radialGradient
       id="SVGID_75_"
       cx="1861.5101"
       cy="1309.3763"
       r="70.510902"
       gradientTransform="matrix(1.3472,0,0,-1.3472,-408.7516,1918.4019)"
       gradientUnits="userSpaceOnUse">
			<stop
   offset="0"
   style="stop-color:#FBED22"
   id="stop1068" />

			<stop
   offset="1"
   style="stop-color:#076E3A"
   id="stop1070" />

		</radialGradient>
    <radialGradient
       id="SVGID_76_"
       cx="1572.8452"
       cy="1885.4357"
       r="20.4713"
       gradientTransform="matrix(2.1655,0,0,-3.2116,-1317.9904,6207.252)"
       gradientUnits="userSpaceOnUse">
			<stop
   offset="0"
   style="stop-color:#565759"
   id="stop1077" />

			<stop
   offset="1"
   style="stop-color:#010101"
   id="stop1079" />

		</radialGradient>
    <radialGradient
       id="SVGID_77_"
       cx="1576.1261"
       cy="1881.4911"
       r="20.685699"
       gradientTransform="matrix(2.143,0,0,-3.1784,-1290.0455,6131.9165)"
       gradientUnits="userSpaceOnUse">
			<stop
   offset="0"
   style="stop-color:#565759"
   id="stop1084" />

			<stop
   offset="1"
   style="stop-color:#010101"
   id="stop1086" />

		</radialGradient>
    <radialGradient
       id="SVGID_78_"
       cx="1827.9358"
       cy="1180.2039"
       r="20.807199"
       gradientTransform="matrix(1.3354,0,0,-1.3354,-363.6624,1797.3411)"
       gradientUnits="userSpaceOnUse">
			<stop
   offset="0"
   style="stop-color:#ECE8C7"
   id="stop1091" />

			<stop
   offset="0.0196"
   style="stop-color:#ECE8C7"
   id="stop1093" />

			<stop
   offset="0.5608"
   style="stop-color:#FFFFFF"
   id="stop1095" />

			<stop
   offset="1"
   style="stop-color:#CCCECF"
   id="stop1097" />

		</radialGradient>
    <radialGradient
       id="SVGID_57_"
       cx="2322.7791"
       cy="1423.3383"
       r="12.8513"
       gradientTransform="matrix(1.3466,0,0,-1.3466,-777.0849,2008.5846)"
       gradientUnits="userSpaceOnUse">
			<stop
   offset="0"
   style="stop-color:#FBEC27"
   id="stop770" />

			<stop
   offset="1"
   style="stop-color:#0B6E3A"
   id="stop772" />

		</radialGradient>
    <linearGradient
       id="SVGID_58_"
       gradientUnits="userSpaceOnUse"
       x1="2324.3867"
       y1="894.01202"
       x2="2423.6638"
       y2="1036.6091"
       gradientTransform="matrix(1,0,0,-1,0,1124.474)">
				<stop
   offset="0"
   style="stop-color:#2E63B0"
   id="stop777" />

				<stop
   offset="0.0118"
   style="stop-color:#2E63B0"
   id="stop779" />

				<stop
   offset="0.1294"
   style="stop-color:#6981C0"
   id="stop781" />

				<stop
   offset="0.3412"
   style="stop-color:#2E63B0"
   id="stop783" />

				<stop
   offset="0.6118"
   style="stop-color:#272C74"
   id="stop785" />

				<stop
   offset="0.6314"
   style="stop-color:#28357A"
   id="stop787" />

				<stop
   offset="0.6784"
   style="stop-color:#2B498E"
   id="stop789" />

				<stop
   offset="0.7412"
   style="stop-color:#2C579F"
   id="stop791" />

				<stop
   offset="0.7882"
   style="stop-color:#2E60AA"
   id="stop793" />

				<stop
   offset="0.8314"
   style="stop-color:#2E63B0"
   id="stop795" />

				<stop
   offset="1"
   style="stop-color:#2E63B0"
   id="stop797" />

			</linearGradient>
    <linearGradient
       id="SVGID_59_"
       gradientUnits="userSpaceOnUse"
       x1="2424.0537"
       y1="919.01868"
       x2="2334.3857"
       y2="944.25598"
       gradientTransform="matrix(1,0,0,-1,0,1124.474)">
				<stop
   offset="0"
   style="stop-color:#F7C434"
   id="stop802" />

				<stop
   offset="0"
   style="stop-color:#F7C434"
   id="stop804" />

				<stop
   offset="0.3686"
   style="stop-color:#FFFFFF"
   id="stop806" />

				<stop
   offset="0.6784"
   style="stop-color:#F8D438"
   id="stop808" />

				<stop
   offset="0.9216"
   style="stop-color:#F68E26"
   id="stop810" />

				<stop
   offset="1"
   style="stop-color:#F68E26"
   id="stop812" />

			</linearGradient>
    <radialGradient
       id="SVGID_60_"
       cx="2215.6487"
       cy="1688.2053"
       r="70.510902"
       gradientTransform="matrix(1.912,0,0,-1.912,-1918.3741,3346.8613)"
       gradientUnits="userSpaceOnUse">
			<stop
   offset="0"
   style="stop-color:#CADB29"
   id="stop831" />

			<stop
   offset="0.6118"
   style="stop-color:#A7572C"
   id="stop833" />

			<stop
   offset="1"
   style="stop-color:#0B6E3A"
   id="stop835" />

		</radialGradient>
    <radialGradient
       id="SVGID_61_"
       cx="2184.3403"
       cy="1458.9974"
       r="12.8432"
       gradientTransform="matrix(1.3473,0,0,-1.3473,-667.8738,2038.5518)"
       gradientUnits="userSpaceOnUse">
			<stop
   offset="0"
   style="stop-color:#FBED22"
   id="stop842" />

			<stop
   offset="1"
   style="stop-color:#076E3A"
   id="stop844" />

		</radialGradient>
    <radialGradient
       id="SVGID_62_"
       cx="2142.1348"
       cy="1451.965"
       r="50.432598"
       gradientTransform="matrix(2.0773,0,0,-2.0773,-2156.0444,3246.0393)"
       gradientUnits="userSpaceOnUse">
				<stop
   offset="0"
   style="stop-color:#1F341B"
   id="stop853" />

				<stop
   offset="1"
   style="stop-color:#076E3A"
   id="stop855" />

			</radialGradient>
    <radialGradient
       id="SVGID_63_"
       cx="2338.9646"
       cy="720.31262"
       r="49.5466"
       gradientTransform="matrix(0.8472,0,0,-0.8472,293.8142,794.2874)"
       gradientUnits="userSpaceOnUse">
					<stop
   offset="0"
   style="stop-color:#ECE8C7"
   id="stop860" />

					<stop
   offset="0.0196"
   style="stop-color:#ECE8C7"
   id="stop862" />

					<stop
   offset="0.5608"
   style="stop-color:#FFFFFF"
   id="stop864" />

					<stop
   offset="1"
   style="stop-color:#CCCECF"
   id="stop866" />

				</radialGradient>
    <radialGradient
       id="SVGID_64_"
       cx="2236.3813"
       cy="1641.6467"
       r="17.3536"
       gradientTransform="matrix(1.7639,0,0,-1.7639,-1621.8046,3008.1277)"
       gradientUnits="userSpaceOnUse">
			<stop
   offset="0"
   style="stop-color:#565759"
   id="stop885" />

			<stop
   offset="1"
   style="stop-color:#010101"
   id="stop887" />

		</radialGradient>
    <radialGradient
       id="SVGID_65_"
       cx="2244.105"
       cy="1344.4646"
       r="20.110001"
       gradientTransform="matrix(1.4589,0,0,-1.4589,-958.8871,2135.5911)"
       gradientUnits="userSpaceOnUse">
			<stop
   offset="0"
   style="stop-color:#565759"
   id="stop892" />

			<stop
   offset="1"
   style="stop-color:#010101"
   id="stop894" />

		</radialGradient>
    <linearGradient
       id="SVGID_66_"
       gradientUnits="userSpaceOnUse"
       x1="2356.3743"
       y1="850.99701"
       x2="2323.4443"
       y2="892.75012"
       gradientTransform="matrix(1,0,0,-1,0,1124.474)">
			<stop
   offset="0"
   style="stop-color:#F7C434"
   id="stop899" />

			<stop
   offset="0"
   style="stop-color:#F7C434"
   id="stop901" />

			<stop
   offset="0.3686"
   style="stop-color:#FFFFFF"
   id="stop903" />

			<stop
   offset="0.6784"
   style="stop-color:#F8D438"
   id="stop905" />

			<stop
   offset="0.9216"
   style="stop-color:#F68E26"
   id="stop907" />

			<stop
   offset="1"
   style="stop-color:#F68E26"
   id="stop909" />

		</linearGradient>
    <linearGradient
       id="SVGID_67_"
       gradientUnits="userSpaceOnUse"
       x1="2229.5278"
       y1="871.6933"
       x2="2216.1167"
       y2="886.02283"
       gradientTransform="matrix(1,0,0,-1,0,1124.474)">
			<stop
   offset="0"
   style="stop-color:#F7C434"
   id="stop914" />

			<stop
   offset="0"
   style="stop-color:#F7C434"
   id="stop916" />

			<stop
   offset="0.3686"
   style="stop-color:#FFFFFF"
   id="stop918" />

			<stop
   offset="0.6784"
   style="stop-color:#F8D438"
   id="stop920" />

			<stop
   offset="0.9216"
   style="stop-color:#F68E26"
   id="stop922" />

			<stop
   offset="1"
   style="stop-color:#F68E26"
   id="stop924" />

		</linearGradient>
    <linearGradient
       id="SVGID_68_"
       gradientUnits="userSpaceOnUse"
       x1="2325.6238"
       y1="998.82037"
       x2="2284.741"
       y2="1009.8657"
       gradientTransform="matrix(1,0,0,-1,0,1124.474)">
			<stop
   offset="0"
   style="stop-color:#F7C434"
   id="stop941" />

			<stop
   offset="0"
   style="stop-color:#F7C434"
   id="stop943" />

			<stop
   offset="0.3686"
   style="stop-color:#FFFFFF"
   id="stop945" />

			<stop
   offset="0.6784"
   style="stop-color:#F8D438"
   id="stop947" />

			<stop
   offset="0.9216"
   style="stop-color:#F68E26"
   id="stop949" />

			<stop
   offset="1"
   style="stop-color:#F68E26"
   id="stop951" />

		</linearGradient>
  </defs>
  <g
     inkscape:label="Layer 1"
     inkscape:groupmode="layer"
     id="layer1"
     transform="translate(-180.26468,-90.593455)">
    <g
       id="_717171344"
       transform="matrix(0.26458333,0,0,0.26458333,-402.32474,74.850966)">
	<g
   id="g964">
		<path
   fill="#8bc543"
   stroke="#0a6031"
   stroke-width="2.6195"
   d="m 2339.556,209.121 c 15.853,-28.394 10.648,-62.94 -10.411,-85.418 l 0.237,-2.13 c 2.839,-1.42 13.014,-10.174 13.724,-9.938 7.572,4.022 16.8,1.183 20.586,-6.389 3.786,-7.572 0.946,-16.8 -6.389,-20.586 -7.572,-4.022 -16.8,-0.946 -20.586,6.389 -2.366,4.496 -2.366,9.701 -0.237,13.96 0.237,0.473 -9.465,10.411 -11.121,12.777 l -2.839,-0.473 c -3.313,-2.603 -7.098,-5.206 -10.884,-7.335 -2.839,-1.656 -5.915,-3.076 -8.755,-4.259 l -1.42,-1.893 c -2.129,-1.42 -4.259,-2.13 -6.389,-2.603 0,0.237 0,0.473 0,0.473 l -1.183,1.183 c -30.997,-7.808 -64.833,5.679 -81.396,35.019 -19.639,35.256 -7.099,79.503 28.157,99.142 35.02,19.641 79.267,7.1 98.906,-27.919 z"
   id="path768" />

		
			<radialGradient
   id="radialGradient10416"
   cx="2322.7791"
   cy="1423.3383"
   r="12.8513"
   gradientTransform="matrix(1.3466,0,0,-1.3466,-777.0849,2008.5846)"
   gradientUnits="userSpaceOnUse">
			<stop
   offset="0"
   style="stop-color:#FBEC27"
   id="stop10412" />

			<stop
   offset="1"
   style="stop-color:#0B6E3A"
   id="stop10414" />

		</radialGradient>

		<path
   fill="url(#SVGID_57_)"
   fill-opacity="0.4118"
   d="m 2349.258,85.134 c 7.098,0 12.777,5.679 12.777,12.777 0,7.098 -5.679,12.777 -12.777,12.777 -7.099,0 -12.777,-5.679 -12.777,-12.777 0,-7.098 5.678,-12.777 12.777,-12.777 z"
   id="path775"
   style="fill:url(#SVGID_57_)" />

		<g
   id="g827">
			
				<linearGradient
   id="linearGradient10441"
   gradientUnits="userSpaceOnUse"
   x1="2324.3867"
   y1="894.01202"
   x2="2423.6638"
   y2="1036.6091"
   gradientTransform="matrix(1,0,0,-1,0,1124.474)">
				<stop
   offset="0"
   style="stop-color:#2E63B0"
   id="stop10419" />

				<stop
   offset="0.0118"
   style="stop-color:#2E63B0"
   id="stop10421" />

				<stop
   offset="0.1294"
   style="stop-color:#6981C0"
   id="stop10423" />

				<stop
   offset="0.3412"
   style="stop-color:#2E63B0"
   id="stop10425" />

				<stop
   offset="0.6118"
   style="stop-color:#272C74"
   id="stop10427" />

				<stop
   offset="0.6314"
   style="stop-color:#28357A"
   id="stop10429" />

				<stop
   offset="0.6784"
   style="stop-color:#2B498E"
   id="stop10431" />

				<stop
   offset="0.7412"
   style="stop-color:#2C579F"
   id="stop10433" />

				<stop
   offset="0.7882"
   style="stop-color:#2E60AA"
   id="stop10435" />

				<stop
   offset="0.8314"
   style="stop-color:#2E63B0"
   id="stop10437" />

				<stop
   offset="1"
   style="stop-color:#2E63B0"
   id="stop10439" />

			</linearGradient>

			<path
   fill="url(#SVGID_58_)"
   stroke="#242060"
   stroke-width="4.3379"
   d="m 2378.834,110.925 c 0.473,0.237 0.71,0.237 0.947,0.473 7.098,2.603 8.518,11.358 11.121,17.51 7.335,18.219 14.907,36.202 22.242,54.185 3.313,8.045 6.625,15.853 9.701,23.898 1.893,4.259 5.915,10.648 3.313,15.143 -1.893,3.549 -8.045,4.969 -11.358,6.389 -8.281,3.313 -16.8,6.862 -25.081,10.174 -3.549,1.656 -7.572,3.549 -11.357,4.496 -8.991,2.603 -11.358,-3.786 -14.434,-11.358 0,-0.237 -20.349,-49.453 -36.676,-88.968 -2.13,-4.969 1.656,-8.755 4.969,-12.067 8.755,-8.518 8.518,-12.541 4.732,-23.898 -2.603,-7.098 -4.969,-14.197 -7.572,-21.532 l 17.036,-6.862 c 1.42,3.549 3.076,6.862 4.732,10.411 2.839,6.152 4.022,17.036 11.121,20.349 5.207,2.367 11.122,0.238 16.564,1.657 z"
   id="path800"
   style="fill:url(#SVGID_58_)" />

			
				<linearGradient
   id="linearGradient10456"
   gradientUnits="userSpaceOnUse"
   x1="2424.0537"
   y1="919.01868"
   x2="2334.3857"
   y2="944.25598"
   gradientTransform="matrix(1,0,0,-1,0,1124.474)">
				<stop
   offset="0"
   style="stop-color:#F7C434"
   id="stop10444" />

				<stop
   offset="0"
   style="stop-color:#F7C434"
   id="stop10446" />

				<stop
   offset="0.3686"
   style="stop-color:#FFFFFF"
   id="stop10448" />

				<stop
   offset="0.6784"
   style="stop-color:#F8D438"
   id="stop10450" />

				<stop
   offset="0.9216"
   style="stop-color:#F68E26"
   id="stop10452" />

				<stop
   offset="1"
   style="stop-color:#F68E26"
   id="stop10454" />

			</linearGradient>

			<path
   fill="url(#SVGID_59_)"
   stroke="#d76828"
   stroke-width="2.6066"
   d="m 2366.294,159.905 c 1.42,3.549 0,8.045 -5.442,3.313 -4.969,3.786 3.549,8.755 7.099,9.228 5.206,0.946 11.357,0 16.326,-1.183 13.25,-2.603 21.532,-2.366 27.211,10.884 3.076,7.572 6.152,15.38 9.465,22.952 1.656,4.022 5.442,10.174 3.076,14.67 -1.893,3.313 -7.808,4.496 -11.121,5.915 -8.045,3.313 -15.853,6.625 -23.898,9.938 -3.549,1.42 -7.335,3.549 -10.884,4.496 -8.755,2.13 -11.121,-4.022 -13.96,-11.121 -5.442,-13.014 -10.884,-26.264 -16.326,-39.278 -2.84,-6.862 -4.023,-13.724 -7.099,-20.586 -3.549,-8.045 -5.442,-17.036 -2.839,-25.791 1.656,-4.969 8.518,-13.96 12.304,-5.442 -3.786,3.786 -5.915,8.518 -1.42,11.358 1.656,1.183 4.969,0.237 6.862,2.603 1.656,1.893 1.893,3.313 2.13,5.679 4.257,-2.604 7.333,-0.238 8.516,2.365 z"
   id="path815"
   style="fill:url(#SVGID_59_)" />

			<polygon
   fill="#2e63b0"
   stroke="#242060"
   stroke-width="4.3379"
   points="2329.855,97.438 2354.463,87.264 2357.776,95.309 2333.167,105.247 "
   id="polygon817" />

			<polygon
   fill="#2e63b0"
   stroke="#242060"
   stroke-width="4.3379"
   points="2323.703,85.134 2348.074,74.96 2350.677,81.112 2326.306,91.05 "
   id="polygon819" />

			<path
   fill="none"
   stroke="#d76828"
   stroke-width="2.6066"
   d="m 2403.916,176.468 c -6.625,1.893 -11.594,7.572 -19.166,8.755 -2.84,0.473 -8.518,0.71 -10.648,-1.183 -2.366,-2.13 -1.656,-5.442 1.183,-6.625 -7.572,2.13 -14.67,1.656 -16.563,-6.389 -0.237,-0.71 -4.969,-18.456 -8.045,-11.831"
   id="path821" />

			<path
   fill="none"
   stroke="#d76828"
   stroke-width="2.6066"
   d="m 2354.226,189.245 c 2.13,0.946 4.259,-0.473 6.389,-1.183 0.237,-0.237 0.237,-0.237 0,0 -4.022,4.969 5.206,7.098 8.282,7.335 5.679,0.473 11.121,-0.946 15.853,-3.549 3.786,-2.13 7.098,-5.206 11.121,-6.625 3.549,-1.183 10.648,-2.13 10.648,-7.572 -1.656,-0.71 -3.549,-0.71 -4.969,0.473"
   id="path823" />

			<path
   fill="#fbc15a"
   stroke="#d76828"
   stroke-width="2.6066"
   d="m 2373.392,142.395 c 8.518,-0.946 3.313,-13.724 -3.313,-8.755 -3.785,2.84 -1.419,9.465 3.313,8.755 z"
   id="path825" />

		</g>

		<path
   fill="#bcbdbf"
   fill-opacity="0.749"
   d="m 2283.715,241.301 c 41.408,0 74.771,4.022 74.771,8.755 0,4.969 -33.363,8.991 -74.771,8.991 -41.408,0 -75.007,-4.022 -75.007,-8.991 0,-4.733 33.599,-8.755 75.007,-8.755 z"
   id="path829" />

		
			<radialGradient
   id="radialGradient10472"
   cx="2215.6487"
   cy="1688.2053"
   r="70.510902"
   gradientTransform="matrix(1.912,0,0,-1.912,-1918.3741,3346.8613)"
   gradientUnits="userSpaceOnUse">
			<stop
   offset="0"
   style="stop-color:#CADB29"
   id="stop10466" />

			<stop
   offset="0.6118"
   style="stop-color:#A7572C"
   id="stop10468" />

			<stop
   offset="1"
   style="stop-color:#0B6E3A"
   id="stop10470" />

		</radialGradient>

		<path
   fill="url(#SVGID_60_)"
   stroke="#2c9045"
   stroke-width="2.6195"
   d="m 2275.67,103.59 c 39.042,0 70.511,31.47 70.511,70.512 0,38.805 -31.47,70.512 -70.511,70.512 -38.805,0 -70.512,-31.707 -70.512,-70.512 0,-39.042 31.707,-70.512 70.512,-70.512 z"
   id="path838"
   style="fill:url(#SVGID_60_)" />

		<path
   fill="#8bc541"
   stroke="#046031"
   stroke-width="2.6195"
   d="m 2292.706,83.715 c 2.366,-4.022 2.839,-9.228 0.71,-13.724 -3.549,-7.808 -12.541,-11.358 -20.112,-7.808 -7.808,3.549 -11.121,12.541 -7.808,20.349 3.549,7.572 12.541,11.121 20.349,7.572 1.183,-0.71 4.969,4.022 5.679,4.732 1.656,1.893 4.969,4.259 2.839,7.098 1.183,-0.71 2.366,-1.183 3.786,-1.656 -1.893,0.71 -3.549,1.656 -5.206,2.603 0.237,0 0.473,0 0.71,0 -0.237,0 -0.237,0 -0.473,0.237 3.076,0.237 6.152,1.893 8.991,2.603 0.473,-1.183 0.237,-2.603 0.237,-3.786 0,-2.13 -0.237,-4.732 -0.947,-6.862 -0.71,-1.656 -2.366,-3.076 -3.549,-4.496 -0.474,-0.71 -5.679,-5.916 -5.206,-6.862 z"
   id="path840" />

		
			<radialGradient
   id="radialGradient10480"
   cx="2184.3403"
   cy="1458.9974"
   r="12.8432"
   gradientTransform="matrix(1.3473,0,0,-1.3473,-667.8738,2038.5518)"
   gradientUnits="userSpaceOnUse">
			<stop
   offset="0"
   style="stop-color:#FBED22"
   id="stop10476" />

			<stop
   offset="1"
   style="stop-color:#076E3A"
   id="stop10478" />

		</radialGradient>

		<path
   fill="url(#SVGID_61_)"
   fill-opacity="0.502"
   d="m 2279.456,63.129 c 7.098,0 13.014,5.679 13.014,12.777 0,7.098 -5.915,12.777 -13.014,12.777 -7.099,0 -12.777,-5.679 -12.777,-12.777 0,-7.098 5.678,-12.777 12.777,-12.777 z"
   id="path847"
   style="fill:url(#SVGID_61_)" />

		<path
   fill="#bf262c"
   fill-opacity="0.3098"
   d="m 2247.986,121.1 c 9.701,0 17.273,7.572 17.273,17.273 0,9.465 -7.572,17.273 -17.273,17.273 -9.465,0 -17.273,-7.808 -17.273,-17.273 0,-9.701 7.808,-17.273 17.273,-17.273 z"
   id="path849" />

		<path
   fill="#bf262c"
   fill-opacity="0.3098"
   d="m 2320.154,166.53 c 9.465,0 17.273,7.808 17.273,17.273 0,9.701 -7.808,17.51 -17.273,17.51 -9.465,0 -17.273,-7.808 -17.273,-17.51 0,-9.464 7.808,-17.273 17.273,-17.273 z"
   id="path851" />

		<g
   id="g883">
			
				<radialGradient
   id="radialGradient10489"
   cx="2142.1348"
   cy="1451.965"
   r="50.432598"
   gradientTransform="matrix(2.0773,0,0,-2.0773,-2156.0444,3246.0393)"
   gradientUnits="userSpaceOnUse">
				<stop
   offset="0"
   style="stop-color:#1F341B"
   id="stop10485" />

				<stop
   offset="1"
   style="stop-color:#076E3A"
   id="stop10487" />

			</radialGradient>

			<path
   fill="url(#SVGID_62_)"
   stroke="#1f341b"
   stroke-width="3.1434"
   d="m 2282.295,216.693 c -11.358,1.656 -21.295,0.946 -30.05,-7.808 -7.099,-7.335 -10.411,-17.273 -12.777,-26.738 -2.129,-8.282 -4.259,-16.563 -6.389,-24.845 -1.183,-4.732 -5.915,-13.014 -2.366,-17.273 10.411,9.938 20.349,20.349 31.707,29.577 12.541,10.174 25.554,20.112 40.698,26.738 4.022,1.656 8.281,4.022 12.304,5.206 4.969,1.656 10.175,1.183 14.67,4.022 -2.839,1.183 -5.442,3.313 -8.755,4.496 -3.313,1.183 -7.098,0.946 -10.884,1.656 -9.229,1.893 -18.693,3.312 -28.158,4.969 z"
   id="path858"
   style="fill:url(#SVGID_62_)" />

			<g
   id="g881">
				
					<radialGradient
   id="radialGradient10500"
   cx="2338.9646"
   cy="720.31262"
   r="49.5466"
   gradientTransform="matrix(0.8472,0,0,-0.8472,293.8142,794.2874)"
   gradientUnits="userSpaceOnUse">
					<stop
   offset="0"
   style="stop-color:#ECE8C7"
   id="stop10492" />

					<stop
   offset="0.0196"
   style="stop-color:#ECE8C7"
   id="stop10494" />

					<stop
   offset="0.5608"
   style="stop-color:#FFFFFF"
   id="stop10496" />

					<stop
   offset="1"
   style="stop-color:#CCCECF"
   id="stop10498" />

				</radialGradient>

				<path
   fill="url(#SVGID_63_)"
   stroke="#f6921f"
   stroke-width="2.4873"
   d="m 2231.423,143.815 c 0.473,0.237 46.613,51.346 93.463,63.65 -0.473,-0.237 -3.313,2.839 -3.786,3.076 -3.313,2.839 -7.098,5.206 -11.121,7.335 -5.206,2.839 -11.358,5.679 -17.51,6.152 -0.946,0.237 -2.839,0.473 -3.786,0 -1.656,-1.42 -0.473,-1.656 0.71,-3.076 1.893,-2.13 4.732,-5.442 5.206,-8.518 -2.603,-0.71 -20.349,-8.755 -27.684,-13.251 -5.679,-3.786 -10.884,-8.045 -15.853,-12.777 -3.076,-2.839 -6.625,-5.442 -9.228,-8.755 -1.183,0.946 -11.121,8.755 -9.465,10.174 -2.13,-1.893 -3.076,-8.045 -3.313,-10.648 -0.473,-3.786 -0.71,-10.174 1.183,-13.487 -1.893,-1.42 -3.076,-3.786 -4.496,-5.679 0.237,-1.419 6.153,-13.723 5.68,-14.196 z"
   id="path869"
   style="fill:url(#SVGID_63_)" />

				
					<line
   fill="none"
   stroke="#f6921f"
   stroke-width="2.4873"
   stroke-linecap="round"
   x1="2300.2781"
   y1="208.884"
   x2="2294.5991"
   y2="212.43401"
   id="line871" />

				
					<line
   fill="none"
   stroke="#f6921f"
   stroke-width="2.4873"
   stroke-linecap="round"
   x1="2235.6819"
   y1="158.01199"
   x2="2230.4761"
   y2="163.69099"
   id="line873" />

				
					<line
   fill="none"
   stroke="#f6921f"
   stroke-width="2.4873"
   stroke-linecap="round"
   x1="2276.616"
   y1="183.33"
   x2="2272.8311"
   y2="189.48199"
   id="line875" />

				
					<line
   fill="none"
   stroke="#f6921f"
   stroke-width="2.4873"
   stroke-linecap="round"
   x1="2291.5229"
   y1="192.795"
   x2="2288.21"
   y2="197.76401"
   id="line877" />

				
					<line
   fill="none"
   stroke="#f6921f"
   stroke-width="2.4873"
   stroke-linecap="round"
   x1="2261"
   y1="171.26199"
   x2="2257.687"
   y2="176.468"
   id="line879" />

			</g>

		</g>

		
			<radialGradient
   id="radialGradient10514"
   cx="2236.3813"
   cy="1641.6467"
   r="17.3536"
   gradientTransform="matrix(1.7639,0,0,-1.7639,-1621.8046,3008.1277)"
   gradientUnits="userSpaceOnUse">
			<stop
   offset="0"
   style="stop-color:#565759"
   id="stop10510" />

			<stop
   offset="1"
   style="stop-color:#010101"
   id="stop10512" />

		</radialGradient>

		<path
   fill="url(#SVGID_64_)"
   d="m 2286.791,143.105 c -3.313,1.42 -7.335,1.183 -10.411,-0.946 -3.313,-2.13 -3.313,-6.862 -5.915,-9.465 -3.549,-3.549 -7.808,-6.389 -12.777,-7.098 -2.603,-0.237 -4.732,0.473 -7.572,0.71 -0.473,0 -6.389,-0.473 -6.389,-0.71 7.099,-6.152 20.113,-8.755 29.341,-6.625 8.755,1.893 19.639,5.679 18.929,16.563 -0.237,3.785 -2.367,6.388 -5.206,7.571 z"
   id="path890"
   style="fill:url(#SVGID_64_)" />

		
			<radialGradient
   id="radialGradient10521"
   cx="2244.105"
   cy="1344.4646"
   r="20.110001"
   gradientTransform="matrix(1.4589,0,0,-1.4589,-958.8871,2135.5911)"
   gradientUnits="userSpaceOnUse">
			<stop
   offset="0"
   style="stop-color:#565759"
   id="stop10517" />

			<stop
   offset="1"
   style="stop-color:#010101"
   id="stop10519" />

		</radialGradient>

		<path
   fill="url(#SVGID_65_)"
   d="m 2313.528,148.074 c -3.313,0.946 -12.067,2.839 -13.487,6.152 -1.893,4.022 5.679,5.206 8.518,5.915 4.022,0.71 7.808,2.13 11.594,4.022 4.259,2.366 9.701,10.174 15.143,8.755 7.098,-1.42 4.496,-14.907 1.656,-18.929 -5.442,-7.572 -14.434,-8.045 -23.188,-5.915 z"
   id="path897"
   style="fill:url(#SVGID_65_)" />

		
			<linearGradient
   id="linearGradient10536"
   gradientUnits="userSpaceOnUse"
   x1="2356.3743"
   y1="850.99701"
   x2="2323.4443"
   y2="892.75012"
   gradientTransform="matrix(1,0,0,-1,0,1124.474)">
			<stop
   offset="0"
   style="stop-color:#F7C434"
   id="stop10524" />

			<stop
   offset="0"
   style="stop-color:#F7C434"
   id="stop10526" />

			<stop
   offset="0.3686"
   style="stop-color:#FFFFFF"
   id="stop10528" />

			<stop
   offset="0.6784"
   style="stop-color:#F8D438"
   id="stop10530" />

			<stop
   offset="0.9216"
   style="stop-color:#F68E26"
   id="stop10532" />

			<stop
   offset="1"
   style="stop-color:#F68E26"
   id="stop10534" />

		</linearGradient>

		<path
   fill="url(#SVGID_66_)"
   stroke="#d76828"
   stroke-width="2.6066"
   d="m 2353.28,248.399 c -0.947,-0.237 -1.893,-0.237 -2.839,-0.71 0.473,-0.237 0.946,-0.237 1.183,-0.473 -1.656,-5.679 -21.532,-3.313 -25.318,-2.839 -4.259,0.71 -17.273,1.893 -17.746,7.808 4.969,2.839 18.219,2.603 23.662,1.183 -0.947,0.71 -1.656,2.13 -2.366,2.839 7.572,7.098 26.738,4.022 35.966,2.13 14.907,-2.839 1.656,-7.335 -6.152,-9.228 -1.894,-0.473 -4.261,-0.473 -6.39,-0.71 z"
   id="path912"
   style="fill:url(#SVGID_66_)" />

		
			<linearGradient
   id="linearGradient10551"
   gradientUnits="userSpaceOnUse"
   x1="2229.5278"
   y1="871.6933"
   x2="2216.1167"
   y2="886.02283"
   gradientTransform="matrix(1,0,0,-1,0,1124.474)">
			<stop
   offset="0"
   style="stop-color:#F7C434"
   id="stop10539" />

			<stop
   offset="0"
   style="stop-color:#F7C434"
   id="stop10541" />

			<stop
   offset="0.3686"
   style="stop-color:#FFFFFF"
   id="stop10543" />

			<stop
   offset="0.6784"
   style="stop-color:#F8D438"
   id="stop10545" />

			<stop
   offset="0.9216"
   style="stop-color:#F68E26"
   id="stop10547" />

			<stop
   offset="1"
   style="stop-color:#F68E26"
   id="stop10549" />

		</linearGradient>

		<path
   fill="url(#SVGID_67_)"
   stroke="#d76828"
   stroke-width="2.6066"
   d="m 2228.11,248.636 c 7.098,-0.71 7.572,-4.259 0.71,-5.915 -5.442,-1.183 -12.777,-1.42 -16.563,3.549 4.022,2.603 10.648,2.839 15.853,2.366 z"
   id="path927"
   style="fill:url(#SVGID_67_)" />

		<path
   fill="#ffffff"
   d="m 2271.884,120.863 c 0.473,0.237 0.71,0 1.183,0.237 1.42,2.839 -2.603,2.839 -2.13,0 0.237,-0.237 0.71,0 0.947,-0.237 z"
   id="path929" />

		<path
   fill="#ffffff"
   d="m 2275.67,122.993 c -2.13,3.786 4.022,5.679 5.442,3.076 2.129,-3.076 -3.313,-5.206 -5.206,-3.313 z"
   id="path931" />

		<path
   fill="#ffffff"
   d="m 2324.886,153.516 c 4.022,-2.13 -1.183,-6.625 -3.076,-3.549 -1.183,1.893 0.946,4.732 3.076,3.549 z"
   id="path933" />

		<path
   fill="#ffffff"
   d="m 2318.734,154.699 c 2.603,2.366 3.313,-2.839 1.42,-2.366 -1.183,0.473 -3.313,0.71 -1.42,2.366 z"
   id="path935" />

		<path
   fill="none"
   stroke="#1f341b"
   stroke-width="3.1434"
   d="m 2255.794,131.748 c 4.496,-2.13 12.067,2.366 11.831,7.808"
   id="path937" />

		<path
   fill="none"
   stroke="#1f341b"
   stroke-width="3.1434"
   d="m 2308.796,168.896 c 5.915,-3.549 11.358,1.42 15.853,4.496"
   id="path939" />

		
			<linearGradient
   id="linearGradient10572"
   gradientUnits="userSpaceOnUse"
   x1="2325.6238"
   y1="998.82037"
   x2="2284.741"
   y2="1009.8657"
   gradientTransform="matrix(1,0,0,-1,0,1124.474)">
			<stop
   offset="0"
   style="stop-color:#F7C434"
   id="stop10560" />

			<stop
   offset="0"
   style="stop-color:#F7C434"
   id="stop10562" />

			<stop
   offset="0.3686"
   style="stop-color:#FFFFFF"
   id="stop10564" />

			<stop
   offset="0.6784"
   style="stop-color:#F8D438"
   id="stop10566" />

			<stop
   offset="0.9216"
   style="stop-color:#F68E26"
   id="stop10568" />

			<stop
   offset="1"
   style="stop-color:#F68E26"
   id="stop10570" />

		</linearGradient>

		<path
   fill="url(#SVGID_68_)"
   stroke="#d76828"
   stroke-width="2.6066"
   d="m 2318.024,120.153 c -0.473,-2.603 1.42,-4.969 0.473,-7.572 -0.71,-1.893 -3.786,-4.732 -5.442,-6.152 -4.969,-4.022 -12.777,-6.625 -18.929,-6.389 -1.183,0.237 -5.206,0.237 -5.442,1.893 -0.237,1.656 3.076,2.603 4.259,3.076 1.893,0.71 3.786,0.946 5.679,1.656 3.549,0.946 0.947,1.656 3.076,4.022 1.42,1.893 4.496,1.183 6.389,1.893 1.893,0.71 3.313,1.893 4.022,3.549 2.13,4.022 1.42,8.991 0.71,13.25 -0.473,3.076 -1.42,10.174 2.13,11.594 4.496,1.893 6.388,-5.679 6.388,-8.755 0,-4.493 -2.366,-7.806 -3.313,-12.065 z"
   id="path954"
   style="fill:url(#SVGID_68_)" />

		<path
   fill="#70bde9"
   stroke="#afe0e8"
   stroke-width="2.169"
   d="m 2263.366,218.113 c 4.259,5.915 -2.839,14.197 2.366,19.403 2.13,1.893 5.442,1.893 7.335,0 2.129,-2.13 1.42,-4.969 0.71,-7.335 -1.183,-4.969 -3.786,-10.174 2.13,-12.304 1.656,-0.473 5.442,-0.71 5.206,-2.839 -0.473,-2.603 -4.732,-1.893 -6.625,-1.893 -2.603,0.237 -5.442,0.71 -8.045,0.71 -4.259,-0.237 -7.572,-2.13 -11.121,-4.259 -1.183,-0.946 -3.313,-2.603 -4.259,-0.71 -1.657,3.074 10.646,7.097 12.303,9.227 z"
   id="path956" />

		<path
   fill="#ffffff"
   d="m 2267.152,226.394 c -0.71,0.946 -2.839,7.098 -0.473,7.808 2.366,0.71 0.237,-6.389 0.473,-7.572 z"
   id="path958" />

		<path
   fill="#ffffff"
   d="m 2323.703,247.453 c -2.603,-0.473 -6.625,0 -7.808,2.13 1.656,0.71 5.442,1.893 6.625,0.473 -0.473,-0.237 -0.946,-0.71 -1.183,-0.946 1.42,-0.71 3.549,-0.946 4.732,-2.13 -1.42,0 -2.839,0 -4.022,0.473 z"
   id="path960" />

		<path
   fill="#ffffff"
   d="m 2220.538,243.667 c -1.656,0 -3.313,0.946 -4.259,1.893 0.946,1.183 2.603,0.237 4.259,0 0.473,-1.42 -0.237,-1.183 -1.183,-1.656 z"
   id="path962" />

	</g>

</g>
  </g>
</svg>
