<?xml version="1.0" encoding="UTF-8" standalone="no"?>
<svg
   version="1.1"
   x="0"
   y="0"
   width="1019.6246"
   height="647.01196"
   viewBox="0 0 1019.6246 647.01196"
   id="svg101"
   sodipodi:docname="student.svg"
   inkscape:version="1.2.1 (9c6d41e410, 2022-07-14, custom)"
   xml:space="preserve"
   xmlns:inkscape="http://www.inkscape.org/namespaces/inkscape"
   xmlns:sodipodi="http://sodipodi.sourceforge.net/DTD/sodipodi-0.dtd"
   xmlns="http://www.w3.org/2000/svg"
   xmlns:svg="http://www.w3.org/2000/svg"><defs
     id="defs105" /><sodipodi:namedview
     id="namedview103"
     pagecolor="#505050"
     bordercolor="#ffffff"
     borderopacity="1"
     inkscape:showpageshadow="0"
     inkscape:pageopacity="0"
     inkscape:pagecheckerboard="1"
     inkscape:deskcolor="#505050"
     showgrid="false"
     inkscape:zoom="1.0301062"
     inkscape:cx="398.98799"
     inkscape:cy="355.78856"
     inkscape:current-layer="Layer_1" /><g
     id="Layer_1"
     transform="translate(-0.00355526,-6.988059)"><g
       id="g264"
       transform="translate(0,12)"><path
         d="M 71.136,170.056 58.116,143.44 c 0,0 -11.384,0.656 -23.416,-5.636 C 24.184,132.304 3.748,112.308 2.872,97.4 2.252,87.06 5.712,79.656 11.772,75.388 15.3,65.896 22.748,57.208 28.768,57.152 30.996,49.064 43.04,43.068 49.732,44.02 c 7.172,-8.476 17.772,-6.66 22.952,-1.456 8.516,8.56 12.84,16.796 12.84,16.796 8.848,5.556 14.716,17.272 14.068,29.08 -0.912,16.416 -10.16,33.384 -10.16,33.384 l 10.644,23.04"
         fill="#f8d2b5"
         id="path2" /><path
         d="M 71.136,170.056 58.116,143.44 c 0,0 -11.384,0.656 -23.416,-5.636 C 24.184,132.304 3.748,112.308 2.872,97.4 2.252,87.06 5.712,79.656 11.772,75.388 15.3,65.896 22.748,57.208 28.768,57.152 30.996,49.064 43.04,43.068 49.732,44.02 c 7.172,-8.476 17.772,-6.66 22.952,-1.456 8.516,8.56 12.84,16.796 12.84,16.796 8.848,5.556 14.716,17.272 14.068,29.08 -0.912,16.416 -10.16,33.384 -10.16,33.384 l 10.644,23.04"
         fill-opacity="0"
         stroke="#1a1919"
         stroke-width="5.6"
         stroke-linecap="round"
         stroke-linejoin="round"
         id="path4" /><path
         d="m 38.528,117.572 19.144,-11.544 2.744,-7.104 6.644,-2.264 3.188,16.668 -31.72,4.244"
         fill="#cf957e"
         id="path6" /><g
         id="g14"><path
           d="m 85.088,58.896 c -8.66,-3.284 -30.084,-4.784 -33.664,-2.108 -9.52,7.124 7.564,18.292 21.336,19.88 0,0 -8.368,13.92 -1.916,39.708 m -57.692,-39.02 27.932,33.648 m -12,-52.812 29.756,40.156 m -8.916,-53.54 5.924,9.98 M 15.46,112.012 c 2.724,1.992 7.124,5.624 13.56,7.352 7.412,2.016 13.328,-2.736 13.968,-8.22 8.98,1.36 18.132,-6.728 16.068,-12.548 5.628,1.32 9.9,-3.584 9.556,-7.7"
           fill-opacity="0"
           stroke="#1a1919"
           stroke-width="5.6"
           stroke-linecap="round"
           stroke-linejoin="round"
           id="path8" /><path
           d="m 395.512,645.2 3.764,-64.504 22.168,-111.516 -28.812,-28.816 C 386,437 357.644,421.028 333.872,414.46 l -67.132,-9.872 c -9.224,-2.768 -32.688,-18.304 -42.188,-30.804 -13.252,-17.432 -43.5,-69.5 -53.5,-91.5 -16.908,-37.188 -66.336,-160.832 -66.336,-160.832 0,0 -14.056,8.964 -28.812,25.568 -14.76,16.604 -18.52,34.432 -18.52,34.432 0,0 102.92,214.208 116.128,259.332 11.38,38.892 17.272,201.332 17.272,201.332"
           fill="#6AC7E5"
           id="path10"
           style="fill:#d45500" /><path
           d="m 395.512,645.2 3.764,-64.504 22.168,-111.516 -28.812,-28.816 C 386,437 357.644,421.028 333.872,414.46 l -67.132,-9.872 c -9.224,-2.768 -32.688,-18.304 -42.188,-30.804 -13.252,-17.432 -43.5,-69.5 -53.5,-91.5 -16.908,-37.188 -66.336,-160.832 -66.336,-160.832 0,0 -14.056,8.964 -28.812,25.568 -14.76,16.604 -18.52,34.432 -18.52,34.432 0,0 102.92,214.208 116.128,259.332 11.38,38.892 17.272,201.332 17.272,201.332"
           fill-opacity="0"
           stroke="#1a1919"
           stroke-width="5.6"
           stroke-linecap="round"
           stroke-linejoin="round"
           id="path12" /></g><path
         d="m 116.216,149.452 c 0,0 -36.832,30 -44.832,60.668"
         fill-opacity="0"
         stroke="#1a1919"
         stroke-width="4"
         stroke-linecap="round"
         stroke-linejoin="round"
         id="path16" /><path
         d="m 285.136,391.552 -2.172,10.696 -5.132,0.608 c 0,0 -4.672,7.964 -4.104,15.02 3.044,3.628 19.596,7.536 23.788,8.024 5.768,0.664 25.8,-5.444 25.8,-5.444 l -1.344,-10.776 -5.008,-4.776 0.388,-10.252"
         fill="#f8d2b5"
         id="path18" /><path
         d="m 285.604,383.528 33.072,3.812 -1.58,16.116 c 0,0 -10.648,18.032 -43.276,10.98 l 2.68,-10.008 5.856,-2 3.248,-18.9"
         fill="#cf957e"
         id="path20" /><path
         d="m 272.548,416.6 c 0,0 25.276,18.592 50.752,3.856 l -4.256,14.668 -26.356,28.72 -19.124,-33.956 -1.016,-13.288"
         fill="#fff691"
         id="path22" /><path
         d="m 317.084,403.896 c 0,0 7.748,3.388 6.116,17.576 -0.824,7.108 -4.156,13.652 -4.156,13.652 l 22.592,37.58 c 0,0 -0.024,-38.14 -0.54,-43.968 -0.888,-10.064 -8.2,-19.56 -10.336,-21.872 -6.32,-6.816 -13.068,-8.676 -13.068,-8.676"
         fill="#6AC7E5"
         id="path24"
         style="fill:#d45500" /><path
         d="m 317.084,403.896 c 0,0 7.748,3.388 6.116,17.576 -0.824,7.108 -4.156,13.652 -4.156,13.652 l 22.592,37.58 c 0,0 -0.024,-38.14 -0.54,-43.968 -0.888,-10.064 -8.2,-19.56 -10.336,-21.872 -6.32,-6.816 -13.068,-8.676 -13.068,-8.676 m 1.352,36.936 -26.356,28.72 -19.124,-33.956 M 272.548,416.6 c 0,0 25.276,18.592 50.752,3.856"
         fill-opacity="0"
         stroke="#1a1919"
         stroke-width="5.6"
         stroke-linecap="round"
         stroke-linejoin="round"
         id="path26" /><path
         d="m 274.856,430.212 c 0,0 21.448,15.776 43.064,3.276"
         fill-opacity="0"
         stroke="#1a1919"
         stroke-width="4"
         stroke-linecap="round"
         stroke-linejoin="round"
         id="path28" /><path
         d="m 282.584,399.92 c 0,0 -8.324,1.524 -9.96,15.728 -0.816,7.1 0.94,14.24 0.94,14.24 l -30.552,31.448 c 0,0 8.704,-37.148 10.524,-42.696 3.164,-9.596 12.444,-17.188 15.048,-18.944 7.7,-5.204 14.696,-5.468 14.696,-5.468"
         fill="#6AC7E5"
         id="path30"
         style="fill:#d45500" /><path
         d="m 282.584,399.92 c 0,0 -8.324,1.524 -9.96,15.728 -0.816,7.1 0.94,14.24 0.94,14.24 l -30.552,31.448 c 0,0 8.704,-37.148 10.524,-42.696 3.164,-9.596 12.444,-17.188 15.048,-18.944 7.7,-5.204 14.696,-5.468 14.696,-5.468 m -0.816,-0.016 -3.08,16.168 m 40.356,-11.068 -1.86,16.2"
         fill-opacity="0"
         stroke="#1a1919"
         stroke-width="5.6"
         stroke-linecap="round"
         stroke-linejoin="round"
         id="path32" /><path
         d="m 444.128,486.76 c 0,0 12.324,4.692 12.244,8.96 -0.088,4.268 -8.016,86.224 -13.588,95.78 -10.852,18.632 -26.888,22.712 -36.452,18.992 -12.616,-4.892 -17.248,-20.236 -16.1,-31.244 1.148,-10.992 9.016,-74.128 10.084,-79.232 1.072,-5.104 8.196,-8 8.196,-8 l 35.616,-5.256"
         fill="#6AC7E5"
         id="path34"
         style="fill:#d45500" /><path
         d="m 444.128,486.76 c 0,0 12.324,4.692 12.244,8.96 -0.088,4.268 -8.016,86.224 -13.588,95.78 -10.852,18.632 -26.888,22.712 -36.452,18.992 -12.616,-4.892 -17.248,-20.236 -16.1,-31.244 1.148,-10.992 9.016,-74.128 10.084,-79.232 1.072,-5.104 8.196,-8 8.196,-8 z"
         fill-opacity="0"
         stroke="#1a1919"
         stroke-width="5.6"
         stroke-linecap="round"
         stroke-linejoin="round"
         id="path36" /><path
         d="m 454.368,517.312 c 0,0 -22.924,26.244 -57.34,5.616"
         fill-opacity="0"
         stroke="#1a1919"
         stroke-width="4"
         stroke-linecap="round"
         stroke-linejoin="round"
         id="path38" /><path
         d="m 448.336,493.904 3.068,-15.348 c 0,0 9.5,-20.984 12.536,-47.188 2.212,-18.992 -23.42,-37.556 -44.052,-29.784 -6.052,2.284 -36.244,22.404 -36.516,39.916 -0.316,20.176 9.224,20.828 18.648,21.788 0,0 -5.992,14.684 8.68,25.332 l -2.876,14.488 c 0,0 20.22,7.632 40.512,-9.204"
         fill="#f8d2b5"
         id="path40" /><path
         d="m 448.336,493.904 3.068,-15.348 c 0,0 9.5,-20.984 12.536,-47.188 2.212,-18.992 -23.42,-37.556 -44.052,-29.784 -6.052,2.284 -36.244,22.404 -36.516,39.916 -0.316,20.176 9.224,20.828 18.648,21.788 0,0 -5.992,14.684 8.68,25.332 l -2.876,14.488 c 0,0 20.22,7.632 40.512,-9.204 z"
         fill-opacity="0"
         stroke="#1a1919"
         stroke-width="5.6"
         stroke-linecap="round"
         stroke-linejoin="round"
         id="path42" /><path
         d="m 388.744,428.492 c 0,0 16.068,-2.516 28.972,3.228 M 397.48,418.788 c 0,0 15.804,-2.788 28.172,4.268 m -17.76,-13.484 c 0,0 15.472,-1.856 29.144,5.74 m -35.064,48.68 c -0.164,-0.124 2.644,-11.788 6.108,-18.728 0,0 -6.74,0.972 -14.176,-0.32"
         fill-opacity="0"
         stroke="#1a1919"
         stroke-width="4.8"
         stroke-linecap="round"
         stroke-linejoin="round"
         id="path44" /><path
         d="M 176.096,210.932 C 173.644,90.06 258.116,49.82 258.116,49.82 239.972,48.388 226.932,31.044 226.932,31.044 291.656,3.06 356.856,33.82 356.856,33.82 351.4,24.916 351.372,3.788 351.372,3.788 c 92.756,17.816 113.976,85.844 113.976,85.844 0,0 68.388,14.168 67.184,102.956 l -16.796,-5.78 c 0,0 2.256,36.968 -22.168,84.608 l -7.236,12.572 -305.86,-53.152 -4.376,-19.904"
         fill="#40332c"
         id="path46" /><path
         d="m 181.584,216.656 c 0.264,-102.46 54.808,-135.184 79.104,-144.684 6.968,-2.728 6.904,-5.252 4.696,-6.324 -6.8,-3.276 -12.864,-7.62 -15.356,-11.108 -21.056,13.64 -75.916,58.632 -73.932,156.392 l 5.488,5.724"
         fill="#8b7165"
         id="path48" /><path
         d="m 373.236,44.212 c -1.936,-9.34 -8.692,-26.668 -8.692,-26.668 37.608,7.224 63.444,22.704 80.888,38.552 -16.56,-19.888 -45.496,-42.976 -94.06,-52.308 0,0 0.028,21.128 5.484,30.032 0,0 -65.2,-30.76 -129.924,-2.776 0,0 13.932,11.452 23.012,17.008 50.02,-26.208 99.828,-5.852 118.98,2.536 5.028,2.204 5.12,-2.504 4.312,-6.376"
         fill="#8b7165"
         id="path50" /><path
         d="m 197.092,225.64 c 0,0 -5.132,-16.304 -20.996,-14.708 -33.068,3.336 -35.5,70.1 15.124,85.616"
         fill="#f8d2b5"
         id="path52" /><path
         d="m 463.744,277.128 c 0,0 10.816,-13.26 24.952,-5.88 29.484,15.344 8.716,78.584 -44.864,74.096"
         fill="#f8d2b5"
         id="path54" /><path
         d="m 191.36,275.372 2.28,-24.3 c 0,0 -3.644,-16.032 -13.168,-20.236 -12.256,-5.416 -16.32,14.3 -9.656,27.156 10.212,19.668 20.544,17.38 20.544,17.38"
         fill="#cf957e"
         id="path56" /><path
         d="m 452.536,325.548 6.88,-23.416 c 0,0 9.332,-13.552 19.728,-13.92 13.4,-0.48 9.86,19.328 -1.092,28.8 -16.776,14.492 -25.516,8.536 -25.516,8.536"
         fill="#cf957e"
         id="path58" /><path
         d="m 217.848,95.284 c 51.068,22.364 81.924,24.752 101.848,24.188 13.388,-0.376 6.888,-5.6 0.976,-7.228 C 259.856,95.52 243.716,70.908 243.716,70.908 l -25.868,24.376"
         fill="#8b7165"
         id="path60" /><path
         d="m 197.092,225.64 c 0,0 -5.132,-16.304 -20.996,-14.708 -33.068,3.336 -35.5,70.1 15.124,85.616 m -17.136,-68.136 c 0,0 11.612,-4.74 19.184,24.136 m 270.476,24.58 c 0,0 10.816,-13.26 24.952,-5.88 29.484,15.344 8.716,78.584 -44.864,74.096 m 40.648,-56.78 c 0,0 -9.02,-8.708 -26.764,15.304 M 176.096,210.932 C 173.644,90.06 258.116,49.82 258.116,49.82 239.972,48.388 226.932,31.044 226.932,31.044 291.656,3.06 356.856,33.82 356.856,33.82 351.4,24.916 351.372,3.788 351.372,3.788 c 92.756,17.816 113.976,85.844 113.976,85.844 0,0 68.388,14.168 67.184,102.956 l -16.796,-5.78 c 0,0 2.256,36.968 -22.168,84.608"
         fill-opacity="0"
         stroke="#1a1919"
         stroke-width="5.6"
         stroke-linecap="round"
         stroke-linejoin="round"
         id="path62" /><path
         d="m 305.784,499.252 c -0.14,4.052 -3.532,7.232 -7.576,7.1 -4.048,-0.132 -7.228,-3.528 -7.096,-7.58 0.14,-4.036 3.532,-7.216 7.58,-7.08 4.048,0.128 7.22,3.512 7.092,7.56 z m -2.016,46.436 c -0.14,4.048 -3.52,7.224 -7.576,7.092 -4.048,-0.132 -7.22,-3.532 -7.088,-7.568 0.136,-4.048 3.524,-7.22 7.572,-7.088 4.048,0.124 7.228,3.516 7.092,7.564 z m 1.08,46.428 c -0.132,4.056 -3.516,7.224 -7.564,7.1 -4.052,-0.132 -7.224,-3.524 -7.092,-7.576 0.132,-4.044 3.524,-7.216 7.568,-7.084 4.048,0.132 7.22,3.524 7.088,7.56 z"
         fill-opacity="0"
         stroke="#1a1919"
         stroke-width="4"
         id="path64" /><path
         d="m 330.692,151.184 c -11.792,9.52 -25.3,25.284 -25.3,25.284 72.924,14.516 117.436,-28.088 117.436,-28.088 0,0 -0.288,36.096 24.668,65.964 l 6.984,-15.028 c 0,0 15.148,22.352 10.704,63.364 -3.564,25.284 -12.232,65.108 -29.812,95.38 -32.876,56.64 -103.224,57.404 -135.36,51.224 -32.132,-6.172 -97.188,-32.94 -106.732,-97.732 -5.4,-36.612 2.4,-79.436 8.672,-103.72 18.9,-60.056 75.288,-65.936 75.288,-65.936 l -21.612,21.948 c 26.436,3.544 73.508,-12.488 73.508,-12.488 l 1.556,-0.172"
         fill="#f8d2b5"
         id="path66" /><path
         d="m 298.88,256.324 c -3.956,20.58 -19.956,34.8 -35.728,31.784 -15.772,-3.032 -25.368,-22.184 -21.412,-42.764 3.956,-20.584 19.96,-34.8 35.732,-31.772 15.776,3.032 25.368,22.168 21.408,42.752"
         fill="#fffffe"
         id="path68" /><path
         d="m 417.356,279.164 c -3.952,20.584 -19.944,34.82 -35.72,31.78 -15.784,-3.04 -25.372,-22.176 -21.408,-42.752 3.948,-20.596 19.948,-34.804 35.728,-31.788 15.776,3.032 25.352,22.176 21.4,42.76"
         fill="#fffffe"
         id="path70" /><path
         d="m 245.76,287.24 c -1.12,5.864 -12.384,8.64 -25.148,6.18 -12.756,-2.452 -22.196,-9.192 -21.068,-15.052 1.128,-5.868 12.392,-8.64 25.156,-6.192 12.756,2.46 22.188,9.204 21.06,15.064"
         fill="#ec9896"
         id="path72" /><path
         d="m 442.068,324.956 c -1.128,5.856 -12.392,8.624 -25.152,6.184 -12.764,-2.452 -22.2,-9.2 -21.072,-15.064 1.128,-5.868 12.388,-8.636 25.152,-6.184 12.764,2.448 22.196,9.196 21.072,15.064"
         fill="#ec9896"
         id="path74" /><path
         d="m 278.236,223.192 c 6.616,1.256 12.692,3.676 18.108,6.9 -3.76,-8.62 -10.412,-14.896 -18.872,-16.52 -9.548,-1.832 -19.156,2.684 -26.152,11.06 8.356,-2.58 17.56,-3.236 26.916,-1.44"
         fill="#d2e0eb"
         id="path76" /><path
         d="m 391.86,245.096 c -6.612,-1.268 -13.152,-1.28 -19.38,-0.296 6.7,-6.608 15.204,-9.98 23.652,-8.368 9.552,1.844 16.8,9.608 20.192,19.988 -6.8,-5.504 -15.1,-9.524 -24.464,-11.324"
         fill="#d2e0eb"
         id="path78" /><path
         d="m 374.792,341.82 c 0,0 -30.472,58.364 -70.576,50.664 -40.72,-7.824 -46.784,-73.204 -46.784,-73.204 0,0 59.476,1.52 117.36,22.54"
         fill="#df5158"
         id="path80" /><path
         d="m 357.928,338.932 c -0.5,2.596 -19.964,1.04 -43.472,-3.472 -23.52,-4.516 -42.172,-10.288 -41.672,-12.876 0.5,-2.596 19.964,-1.056 43.484,3.46 23.504,4.516 42.16,10.292 41.66,12.888"
         fill="#fffffe"
         id="path82" /><path
         d="m 299.768,190.396 c -7.836,-15.832 -37.616,-18.936 -48.624,-4.908 m 130.7,20.668 c 13.152,-11.788 41.956,-3.644 46.988,13.468"
         fill-opacity="0"
         stroke="#1a1919"
         stroke-width="5.6"
         stroke-linecap="round"
         stroke-linejoin="round"
         id="path84" /><path
         d="m 299.912,234.12 c -7.136,-27.564 -57.348,-37.344 -61.628,23.648 m 127.572,-8.352 c 15.104,-25.788 69.164,-17.516 49.952,42.552"
         fill-opacity="0"
         stroke="#1a1919"
         stroke-width="6.4"
         stroke-linecap="round"
         stroke-linejoin="round"
         id="path86" /><path
         d="m 319.672,306.952 1.448,-7.548 m 53.672,42.416 c 0,0 -30.472,58.364 -70.576,50.664 -40.72,-7.824 -46.784,-73.204 -46.784,-73.204 0,0 59.476,1.52 117.36,22.54 z"
         fill-opacity="0"
         stroke="#1a1919"
         stroke-width="5.6"
         stroke-linecap="round"
         stroke-linejoin="round"
         id="path88" /><path
         d="m 293.392,260.852 c -2.692,14.016 -12.76,23.864 -22.488,22 -9.728,-1.876 -15.432,-14.756 -12.736,-28.768 2.696,-14.024 12.756,-23.876 22.484,-22.008 9.736,1.876 15.436,14.744 12.74,28.776"
         fill="#1a1919"
         id="path90" /><path
         d="m 363.144,274.332 c -2.688,14.012 3.016,26.896 12.744,28.764 9.728,1.864 19.796,-7.98 22.484,-21.988 2.704,-14.032 -2.992,-26.912 -12.732,-28.784 -9.728,-1.868 -19.8,7.98 -22.496,22.008"
         fill="#1a1919"
         id="path92" /><path
         d="m 294.716,252.296 c -0.552,2.868 -3.328,4.748 -6.204,4.188 -2.868,-0.548 -4.752,-3.32 -4.196,-6.2 0.548,-2.872 3.32,-4.744 6.196,-4.196 2.876,0.552 4.752,3.328 4.204,6.208"
         fill="#fffffe"
         id="path94" /><path
         d="m 398.652,272.328 c -0.556,2.888 -3.328,4.76 -6.204,4.208 -2.872,-0.548 -4.752,-3.324 -4.2,-6.204 0.552,-2.868 3.328,-4.756 6.2,-4.2 2.872,0.556 4.76,3.328 4.204,6.196"
         fill="#fffffe"
         id="path96" /><path
         d="m 338.944,145.564 c -12.456,6.308 -33.552,30.904 -33.552,30.904 72.924,14.516 117.436,-28.088 117.436,-28.088 0,0 -0.288,36.096 24.668,65.964 l 6.984,-15.028 c 0,0 15.148,22.352 10.704,63.364 -3.564,25.284 -12.232,65.108 -29.812,95.38 -32.876,56.64 -103.224,57.404 -135.36,51.224 -32.132,-6.172 -97.188,-32.94 -106.732,-97.732 -5.4,-36.612 2.4,-79.436 8.672,-103.72 18.9,-60.056 75.288,-65.936 75.288,-65.936 l -21.612,21.948 c 26.436,3.544 73.508,-12.488 73.508,-12.488"
         fill-opacity="0"
         stroke="#1a1919"
         stroke-width="5.6"
         stroke-linecap="round"
         stroke-linejoin="round"
         id="path98" /></g><g
       id="g12"
       transform="matrix(-0.4057476,0,0,-0.4057476,1019.6339,658.1224)"><path
         d="m 934.906,621.813 c 116.214,-2.274 143.844,64.316 143.844,64.316 l 15.89,-87.899 c 49.79,35.997 94.25,146.114 85.91,232.422 l 35.33,171.988 c 144.68,366.7 -152.79,469.3 -152.79,469.3 -39.85,107.86 -409.344,199.13 -597.781,-39.8 -119.075,-150.97 -74.746,-379.88 -74.746,-379.88 l 33.132,-186.451 c 6.887,-47.532 16.731,-150.547 -16.718,-203.711 0,0 74.543,10.086 84.394,32.832 0,0 13.926,-34.543 105.442,-46.016"
         style="fill:#85483c;fill-opacity:1;fill-rule:nonzero;stroke:none"
         id="path14"
         inkscape:connector-curvature="0" /><path
         d="m 1120.57,7 c 30.77,315 9.07,459.469 -47.41,474.91 -27.89,7.629 -191.867,53.43 -245.812,73.75 l -118.907,6.469 c -43.554,-3.578 -112.175,20.293 -112.175,20.293 l -148.039,-78.672 15,-85 c 0,0 43.378,-214.852 73.761,-411.75 h 583.582"
         style="fill:#660080;fill-opacity:1;fill-rule:nonzero;stroke:none"
         id="path16-3"
         inkscape:connector-curvature="0" /><path
         d="M 511.383,161.012 C 520.551,112.672 528.676,50.6484 536.988,7 h 583.582 c 11.53,95.711 13.92,197.941 11.64,256.512 C 1039.71,97.6719 595.551,64.3516 511.383,161.012"
         style="fill:#660080;fill-opacity:1;fill-rule:nonzero;stroke:none"
         id="path18-6"
         inkscape:connector-curvature="0" /><path
         d="M 971.695,516.379 C 932.836,412.43 828.043,394.762 742.418,422.891 c -98.332,45 -114.375,144.371 -114.375,144.371 l 90.75,-6.84 106.973,-4.762 141.777,-39.781"
         style="fill:#fcd0b4;fill-opacity:1;fill-rule:nonzero;stroke:none"
         id="path20-7"
         inkscape:connector-curvature="0" /><path
         d="m 722.953,591.121 -4.754,-50.941 c 0,0 28.75,-39.168 54.16,-39.168 37.5,0 52.95,51.476 52.95,51.476 l -2.18,40.731"
         style="fill:#fcd0b4;fill-opacity:1;fill-rule:nonzero;stroke:none"
         id="path22-5"
         inkscape:connector-curvature="0" /><path
         d="m 727.223,629.352 95.906,1.25 0.84,-48.782 c 0,0 -21.746,-70.808 -103.418,-34.968 l 6.672,82.5"
         style="fill:#da907b;fill-opacity:1;fill-rule:nonzero;stroke:none"
         id="path24-3"
         inkscape:connector-curvature="0" /><path
         d="m 1065.99,1466.59 c -39.84,107.86 -412.244,204.48 -600.681,-34.45 -119.075,-150.97 -74.746,-370.5 -74.746,-370.5 l 16.25,3.75 c 0,0 -15.051,278.97 159.57,407.29 220,161.66 499.607,-6.09 499.607,-6.09"
         style="fill:#e7b39d;fill-opacity:1;fill-rule:nonzero;stroke:none"
         id="path26-5"
         inkscape:connector-curvature="0" /><path
         d="m 461.09,1035.05 c 0,0 -17.559,40.43 -56.262,31.08 -80.711,-19.47 -66.687,-192.567 63,-215.985"
         style="fill:#fcd0b4;fill-opacity:1;fill-rule:nonzero;stroke:none"
         id="path28-6"
         inkscape:connector-curvature="0" /><path
         d="m 1135.24,989.781 c 0,0 22.74,37.769 59.87,23.419 77.44,-29.95 45.09,-199.97 -88.6,-205.977"
         style="fill:#fcd0b4;fill-opacity:1;fill-rule:nonzero;stroke:none"
         id="path30-2"
         inkscape:connector-curvature="0" /><path
         d="m 1134.48,1027.57 c -1.24,-66.429 -10.73,-172.035 -45.07,-255.961 -64.26,-156.984 -237.785,-182.05 -319.023,-176.679 -81.242,5.371 -249.961,53.086 -292.981,217.168 -24.304,92.703 -17.859,205.792 -9.636,270.552 134.753,304.1 513.406,252.74 513.406,252.74 l 64.384,20.62 -31.64,-32.81 c 0,0 24.96,-162.83 120.56,-295.63"
         style="fill:#fcd0b4;fill-opacity:1;fill-rule:nonzero;stroke:none"
         id="path32-9"
         inkscape:connector-curvature="0" /><path
         d="m 707.574,991.012 c -3.273,-49.551 -36.719,-87.676 -74.707,-85.164 -37.988,2.519 -66.152,44.715 -62.871,94.262 3.281,49.55 36.758,87.69 74.734,85.17 37.989,-2.51 66.125,-44.72 62.844,-94.268"
         style="fill:#ffffff;fill-opacity:1;fill-rule:nonzero;stroke:none"
         id="path34-1"
         inkscape:connector-curvature="0" /><path
         d="m 1026.07,969.949 c -3.27,-49.551 -36.718,-87.687 -74.699,-85.168 -37.988,2.512 -66.133,44.719 -62.859,94.27 3.281,49.549 36.738,87.679 74.726,85.159 37.982,-2.51 66.112,-44.71 62.832,-94.261"
         style="fill:#ffffff;fill-opacity:1;fill-rule:nonzero;stroke:none"
         id="path36-2"
         inkscape:connector-curvature="0" /><path
         d="m 696,978.777 c -2.234,-33.75 -23.035,-59.863 -46.445,-58.312 -23.426,1.555 -40.606,30.168 -38.367,63.918 2.226,33.757 23.027,59.867 46.453,58.307 23.41,-1.54 40.586,-30.16 38.359,-63.913"
         style="fill:#231f20;fill-opacity:1;fill-rule:nonzero;stroke:none"
         id="path38-7"
         inkscape:connector-curvature="0" /><path
         d="m 897.203,965.465 c -2.238,-33.75 14.942,-62.371 38.367,-63.926 23.418,-1.543 44.211,24.563 46.446,58.313 2.226,33.757 -14.942,62.368 -38.36,63.928 -23.426,1.55 -44.226,-24.565 -46.453,-58.315"
         style="fill:#231f20;fill-opacity:1;fill-rule:nonzero;stroke:none"
         id="path40-0"
         inkscape:connector-curvature="0" /><path
         d="m 593.98,898.258 c -1.027,-15.496 -28.019,-26.348 -60.273,-24.219 -32.266,2.141 -57.598,16.445 -56.574,31.953 1.027,15.508 28.019,26.367 60.285,24.231 32.266,-2.141 57.586,-16.446 56.562,-31.965"
         style="fill:#f0b18a;fill-opacity:1;fill-rule:nonzero;stroke:none"
         id="path42-9"
         inkscape:connector-curvature="0" /><path
         d="m 1102.61,864.617 c -1.02,-15.508 -28.02,-26.359 -60.28,-24.219 -32.28,2.137 -57.6,16.446 -56.572,31.942 1.023,15.519 28.002,26.367 60.282,24.23 32.27,-2.129 57.6,-16.445 56.57,-31.953"
         style="fill:#f0b18a;fill-opacity:1;fill-rule:nonzero;stroke:none"
         id="path44-3"
         inkscape:connector-curvature="0" /><path
         d="m 696.598,999.285 c -0.461,-6.914 -6.438,-12.148 -13.352,-11.691 -6.914,0.461 -12.156,6.426 -11.699,13.356 0.461,6.91 6.445,12.15 13.359,11.7 6.914,-0.45 12.149,-6.44 11.692,-13.365"
         style="fill:#ffffff;fill-opacity:1;fill-rule:nonzero;stroke:none"
         id="path46-6"
         inkscape:connector-curvature="0" /><path
         d="m 980.094,980.535 c -0.461,-6.926 -6.446,-12.148 -13.36,-11.691 -6.925,0.449 -12.168,6.426 -11.711,13.34 0.461,6.925 6.446,12.168 13.372,11.711 6.914,-0.461 12.156,-6.446 11.699,-13.36"
         style="fill:#ffffff;fill-opacity:1;fill-rule:nonzero;stroke:none"
         id="path48-0"
         inkscape:connector-curvature="0" /><path
         d="m 461.832,904.852 -1.652,63.445 c 0,0 -13.797,40.203 -38.582,47.913 -31.914,9.94 -36.035,-42.276 -15.703,-73.245 31.093,-47.43 55.937,-38.113 55.937,-38.113"
         style="fill:#da907b;fill-opacity:1;fill-rule:nonzero;stroke:none"
         id="path50-6"
         inkscape:connector-curvature="0" /><path
         d="m 1122.06,861.168 10,62.687 c 0,0 18.97,38.036 44.56,42.403 32.95,5.652 30.13,-46.653 5.91,-74.668 -37.07,-42.922 -60.47,-30.422 -60.47,-30.422"
         style="fill:#da907b;fill-opacity:1;fill-rule:nonzero;stroke:none"
         id="path52-2"
         inkscape:connector-curvature="0" /><path
         d="m 649.34,1062.9 c 15.93,-1.06 30.93,-4.94 44.59,-10.95 -11.375,19.18 -28.836,31.99 -49.2,33.33 -22.996,1.52 -44.257,-11.89 -58.242,-33.67 18.867,8.53 40.325,12.77 62.852,11.29"
         style="fill:#d8e5f6;fill-opacity:1;fill-rule:nonzero;stroke:none"
         id="path54-6"
         inkscape:connector-curvature="0" /><path
         d="m 956.156,1042.59 c -15.926,1.06 -31.297,-0.82 -45.644,-4.96 13.801,17.5 32.804,27.91 53.164,26.56 23,-1.53 42.304,-17.63 53.304,-41.06 -17.589,10.94 -38.292,17.98 -60.824,19.46"
         style="fill:#d8e5f6;fill-opacity:1;fill-rule:nonzero;stroke:none"
         id="path56-1"
         inkscape:connector-curvature="0" /><path
         d="m 514.098,1448.77 c 98.847,-40.63 165.976,-45.45 203.953,-42.76 25.519,1.8 12.793,11.72 1.406,14.5 -117.098,28.61 -149.441,76.44 -149.441,76.44 l -55.918,-48.18"
         style="fill:#e7b39d;fill-opacity:1;fill-rule:nonzero;stroke:none"
         id="path58-8"
         inkscape:connector-curvature="0" /><path
         d="m 1087.23,1456.01 c 0,0 180.83,-102.5 151.66,-380.83 0,0 23.34,70.83 16.67,169.17 -4.18,61.64 -39.83,128.53 -83.33,163.33 -50,40 -85,48.33 -85,48.33"
         style="fill:#e7b39d;fill-opacity:1;fill-rule:nonzero;stroke:none"
         id="path60-7"
         inkscape:connector-curvature="0" /><path
         d="m 191.605,1158.54 -36.25,68.12 c 0,0 -29.589,-2.72 -61.4527,12.59 -27.8828,13.38 -82.8632,63.65 -86.4648,102.39 -2.5,26.87 5.8281,46.46 21.25,58.12 8.3281,25 26.9531,48.31 42.6172,48.95 5.0976,21.29 35.9253,37.95 53.4253,36.08 17.922,22.71 45.696,18.9 59.641,5.81 22.93,-21.55 34.902,-42.6 34.902,-42.6 23.536,-13.7 39.864,-43.67 39.207,-74.46 -0.917,-42.84 -23.496,-87.84 -23.496,-87.84 l 29.746,-59.04"
         style="fill:#fcd0b4;fill-opacity:1;fill-rule:nonzero;stroke:none"
         id="path62-9"
         inkscape:connector-curvature="0" /><path
         d="m 191.605,1158.54 -36.25,68.12 c 0,0 -29.589,-2.72 -61.4527,12.59 -27.8828,13.38 -82.8632,63.65 -86.4648,102.39 -2.5,26.87 5.8281,46.46 21.25,58.12 8.3281,25 26.9531,48.31 42.6172,48.95 5.0976,21.29 35.9253,37.95 53.4253,36.08 17.922,22.71 45.696,18.9 59.641,5.81 22.93,-21.55 34.902,-42.6 34.902,-42.6 23.536,-13.7 39.864,-43.67 39.207,-74.46 -0.917,-42.84 -23.496,-87.84 -23.496,-87.84 l 29.746,-59.04"
         style="fill:none;stroke:#231f20;stroke-width:14;stroke-linecap:round;stroke-linejoin:round;stroke-miterlimit:10;stroke-dasharray:none;stroke-opacity:1"
         id="path64-2"
         inkscape:connector-curvature="0" /><path
         d="m 102.055,1292.28 48.84,31.75 6.511,18.72 17.102,6.52 9.765,-43.15 -82.218,-13.84"
         style="fill:#da907b;fill-opacity:1;fill-rule:nonzero;stroke:none"
         id="path66-0"
         inkscape:connector-curvature="0" /><path
         d="m 218.109,1449.18 c -22.839,7.77 -78.757,9.76 -87.82,2.49 -24.172,-19.39 21.297,-46.94 57.285,-49.85 0,0 -20.558,-37 -1.476,-103.57"
         style="fill:none;stroke:#231f20;stroke-width:14;stroke-linecap:round;stroke-linejoin:round;stroke-miterlimit:10;stroke-dasharray:none;stroke-opacity:1"
         id="path68-2"
         inkscape:connector-curvature="0" /><path
         d="m 32.4375,1394.76 75.6915,-85.15"
         style="fill:none;stroke:#231f20;stroke-width:14;stroke-linecap:round;stroke-linejoin:round;stroke-miterlimit:10;stroke-dasharray:none;stroke-opacity:1"
         id="path70-3"
         inkscape:connector-curvature="0" /><path
         d="M 72.2305,1446.04 153.238,1344.13"
         style="fill:none;stroke:#231f20;stroke-width:14;stroke-linecap:round;stroke-linejoin:round;stroke-miterlimit:10;stroke-dasharray:none;stroke-opacity:1"
         id="path72-7"
         inkscape:connector-curvature="0" /><path
         d="m 125.309,1482.73 16.296,-25.44"
         style="fill:none;stroke:#231f20;stroke-width:14;stroke-linecap:round;stroke-linejoin:round;stroke-miterlimit:10;stroke-dasharray:none;stroke-opacity:1"
         id="path74-5"
         inkscape:connector-curvature="0" /><path
         d="M 825.766,555.66 C 880.492,540.309 1048.5,495.27 1075.21,481.91 1126.31,456.352 1151.35,317 1123.04,7"
         style="fill:none;stroke:#231f20;stroke-width:14;stroke-linecap:round;stroke-linejoin:round;stroke-miterlimit:10;stroke-dasharray:none;stroke-opacity:1"
         id="path76-9"
         inkscape:connector-curvature="0" /><path
         d="M 999.164,26.9492 1052.4,332.449 c 3.33,14.16 7.5,28.321 20,34.992"
         style="fill:none;stroke:#231f20;stroke-width:12;stroke-linecap:round;stroke-linejoin:round;stroke-miterlimit:10;stroke-dasharray:none;stroke-opacity:1"
         id="path78-2"
         inkscape:connector-curvature="0" /><path
         d="m 708.063,1155.13 c -24.875,21.69 -90.325,36.04 -129.375,-5.22"
         style="fill:none;stroke:#231f20;stroke-width:14;stroke-linecap:round;stroke-linejoin:round;stroke-miterlimit:10;stroke-dasharray:none;stroke-opacity:1"
         id="path80-2"
         inkscape:connector-curvature="0" /><path
         d="m 703.492,1043.51 c -24.836,62.76 -145.742,71.04 -137.969,-73.639"
         style="fill:none;stroke:#231f20;stroke-width:16;stroke-linecap:round;stroke-linejoin:round;stroke-miterlimit:10;stroke-dasharray:none;stroke-opacity:1"
         id="path82-8"
         inkscape:connector-curvature="0" /><path
         d="m 461.09,1035.05 c 0,0 -17.559,40.43 -56.262,31.08 -80.711,-19.47 -66.687,-192.567 63,-215.985"
         style="fill:none;stroke:#231f20;stroke-width:14;stroke-linecap:round;stroke-linejoin:round;stroke-miterlimit:10;stroke-dasharray:none;stroke-opacity:1"
         id="path84-9"
         inkscape:connector-curvature="0" /><path
         d="m 403.188,1019.83 c 0,0 27.257,16.06 54.621,-55.967"
         style="fill:none;stroke:#231f20;stroke-width:14;stroke-linecap:round;stroke-linejoin:round;stroke-miterlimit:10;stroke-dasharray:none;stroke-opacity:1"
         id="path86-7"
         inkscape:connector-curvature="0" /><path
         d="m 903.883,1142.18 c 27.508,18.22 94.265,23.82 127.557,-22.22"
         style="fill:none;stroke:#231f20;stroke-width:14;stroke-linecap:round;stroke-linejoin:round;stroke-miterlimit:10;stroke-dasharray:none;stroke-opacity:1"
         id="path88-3"
         inkscape:connector-curvature="0" /><path
         d="m 896.266,1024.84 c 27.996,65.03 157.504,61.4 129.904,-85.449"
         style="fill:none;stroke:#231f20;stroke-width:16;stroke-linecap:round;stroke-linejoin:round;stroke-miterlimit:10;stroke-dasharray:none;stroke-opacity:1"
         id="path90-6"
         inkscape:connector-curvature="0" /><path
         d="m 1135.24,989.781 c 0,0 22.74,37.769 59.87,23.419 77.44,-29.95 45.09,-199.97 -88.6,-205.977"
         style="fill:none;stroke:#231f20;stroke-width:14;stroke-linecap:round;stroke-linejoin:round;stroke-miterlimit:10;stroke-dasharray:none;stroke-opacity:1"
         id="path92-1"
         inkscape:connector-curvature="0" /><path
         d="m 1189.88,967.125 c 0,0 -24.88,19.492 -61.51,-48.289"
         style="fill:none;stroke:#231f20;stroke-width:14;stroke-linecap:round;stroke-linejoin:round;stroke-miterlimit:10;stroke-dasharray:none;stroke-opacity:1"
         id="path94-2"
         inkscape:connector-curvature="0" /><path
         d="m 544.625,1013.84 21.113,-15.172"
         style="fill:none;stroke:#231f20;stroke-width:14;stroke-linecap:round;stroke-linejoin:round;stroke-miterlimit:10;stroke-dasharray:none;stroke-opacity:1"
         id="path96-9"
         inkscape:connector-curvature="0" /><path
         d="m 1029.75,967.965 30.41,11.769"
         style="fill:none;stroke:#231f20;stroke-width:14;stroke-linecap:round;stroke-linejoin:round;stroke-miterlimit:10;stroke-dasharray:none;stroke-opacity:1"
         id="path98-3"
         inkscape:connector-curvature="0" /><path
         d="m 786.547,839.266 1.32,19.949"
         style="fill:none;stroke:#231f20;stroke-width:14;stroke-linecap:round;stroke-linejoin:round;stroke-miterlimit:10;stroke-dasharray:none;stroke-opacity:1"
         id="path100"
         inkscape:connector-curvature="0" /><path
         d="m 1134.48,1027.57 c -1.24,-66.429 -10.73,-172.035 -45.07,-255.961 -64.26,-156.984 -237.785,-182.05 -319.023,-176.679 -81.242,5.371 -249.961,53.086 -292.981,217.168 -24.304,92.703 -17.859,205.792 -9.636,270.552 134.753,304.1 513.406,252.74 513.406,252.74 l 64.384,20.62 -31.64,-32.81 c 0,0 24.96,-162.83 120.56,-295.63"
         style="fill:none;stroke:#231f20;stroke-width:14;stroke-linecap:round;stroke-linejoin:round;stroke-miterlimit:10;stroke-dasharray:none;stroke-opacity:1"
         id="path102"
         inkscape:connector-curvature="0" /><path
         d="m 389.313,1062.89 c 0,0 -37.239,218.43 81.835,369.41 188.438,238.92 552.092,147.5 591.942,39.64 0,0 302.47,-90.93 152.79,-469.3"
         style="fill:none;stroke:#231f20;stroke-width:14;stroke-linecap:round;stroke-linejoin:round;stroke-miterlimit:10;stroke-dasharray:none;stroke-opacity:1"
         id="path104"
         inkscape:connector-curvature="0" /><path
         d="m 423.695,865.809 c 6.887,-47.532 16.731,-150.547 -16.718,-203.711 0,0 74.543,10.086 84.394,32.832 0,0 13.926,-34.543 105.442,-46.016"
         style="fill:none;stroke:#231f20;stroke-width:14;stroke-linecap:round;stroke-linejoin:round;stroke-miterlimit:10;stroke-dasharray:none;stroke-opacity:1"
         id="path106"
         inkscape:connector-curvature="0" /><path
         d="m 1180.55,830.652 c 1.68,-74.64 -23.32,-184.64 -85.91,-232.422 l -15.89,87.899 c 0,0 -27.63,-66.59 -143.844,-64.316"
         style="fill:none;stroke:#231f20;stroke-width:14;stroke-linecap:round;stroke-linejoin:round;stroke-miterlimit:10;stroke-dasharray:none;stroke-opacity:1"
         id="path108"
         inkscape:connector-curvature="0" /><path
         d="m 826.645,535.16 -3.516,58.059"
         style="fill:none;stroke:#231f20;stroke-width:14;stroke-linecap:round;stroke-linejoin:round;stroke-miterlimit:10;stroke-dasharray:none;stroke-opacity:1"
         id="path110"
         inkscape:connector-curvature="0" /><path
         d="M 724.723,600.172 718.199,540.18"
         style="fill:none;stroke:#231f20;stroke-width:14;stroke-linecap:round;stroke-linejoin:round;stroke-miterlimit:10;stroke-dasharray:none;stroke-opacity:1"
         id="path112"
         inkscape:connector-curvature="0" /><path
         d="m 629.273,567.121 c 0,0 4.239,-64.711 79.551,-124.121 80.938,-63.84 221.094,-34.078 260.254,65.5"
         style="fill:none;stroke:#231f20;stroke-width:14;stroke-linecap:round;stroke-linejoin:round;stroke-miterlimit:10;stroke-dasharray:none;stroke-opacity:1"
         id="path114"
         inkscape:connector-curvature="0" /><path
         d="m 683.277,802.164 c 0,0 96.278,-120.008 209.942,-14.344"
         style="fill:none;stroke:#231f20;stroke-width:14;stroke-linecap:round;stroke-linejoin:round;stroke-miterlimit:10;stroke-dasharray:none;stroke-opacity:1"
         id="path116"
         inkscape:connector-curvature="0" /><path
         d="M 452.828,449.34 C 483.109,350.039 521.137,102.59 532.191,28.3711"
         style="fill:none;stroke:#231f20;stroke-width:14;stroke-linecap:round;stroke-linejoin:round;stroke-miterlimit:10;stroke-dasharray:none;stroke-opacity:1"
         id="path118"
         inkscape:connector-curvature="0" /><path
         d="m 714.703,561.012 c 0,0 -69.367,0.558 -107.695,17.226"
         style="fill:none;stroke:#231f20;stroke-width:14;stroke-linecap:round;stroke-linejoin:round;stroke-miterlimit:10;stroke-dasharray:none;stroke-opacity:1"
         id="path120"
         inkscape:connector-curvature="0" /><path
         d="m 607.008,578.238 c -38.332,16.672 -164.57,252.024 -198.965,324.442 -47.5,100 -142.676,371.23 -142.676,371.23 L 150.316,1150.32 c 0,0 214.309,-421.906 302.637,-701.91"
         style="fill:#660080;fill-opacity:1;fill-rule:nonzero;stroke:none"
         id="path122"
         inkscape:connector-curvature="0" /><path
         d="m 607.008,578.238 c -38.332,16.672 -164.57,252.024 -198.965,324.442 -47.5,100 -142.676,371.23 -142.676,371.23 L 150.316,1150.32 c 0,0 214.309,-421.906 302.637,-701.91"
         style="fill:none;stroke:#231f20;stroke-width:14;stroke-linecap:round;stroke-linejoin:round;stroke-miterlimit:10;stroke-dasharray:none;stroke-opacity:1"
         id="path124"
         inkscape:connector-curvature="0" /><path
         d="m 41.5195,1304.71 c 7.2539,-4.93 19.0313,-14 35.9571,-17.96 19.4804,-4.56 34.4534,8.32 35.6324,22.67 23.496,-2.76 46.621,19.12 40.735,34.06 14.773,-2.92 25.476,10.24 24.199,20.91"
         style="fill:none;stroke:#231f20;stroke-width:14;stroke-linecap:round;stroke-linejoin:round;stroke-miterlimit:10;stroke-dasharray:none;stroke-opacity:1"
         id="path126"
         inkscape:connector-curvature="0" /><path
         d="m 1039.02,7 18.73,120.941 c -80.754,84.379 -103.418,203.27 -103.418,203.27 0,0 -3.039,145.578 -28.34,206.289 l -37.929,13.512 c 31.386,-116.793 17.812,-210.231 17.812,-210.231 l -242.383,15.641 c 0,0 -15.988,109.066 15.399,221.816 H 635.563 C 610.27,520.801 615.035,353.102 615.035,353.102 c 0,0 -37.422,-121.071 -118.176,-195.043 L 515.992,7 h 523.028"
         style="fill:#fabb44;fill-opacity:1;fill-rule:nonzero;stroke:none"
         id="path128"
         inkscape:connector-curvature="0" /><path
         d="M 772.262,89.7617 C 558.754,70.9883 499.625,135.41 499.625,135.41 L 515.992,7 h 523.028 l 18.73,120.941 c -5.3,5.528 -44.26,53.778 -49.06,59.579 0,-1.372 -80.002,-84.008 -236.428,-97.7583"
         style="fill:#e4a83f;fill-opacity:1;fill-rule:nonzero;stroke:none"
         id="path130"
         inkscape:connector-curvature="0" /><path
         d="m 1039.02,7 18.73,120.941 c -80.754,84.379 -103.418,203.27 -103.418,203.27 0,0 -3.039,145.578 -28.34,206.289 l -37.929,13.512 c 31.386,-116.793 17.812,-210.231 17.812,-210.231 l -242.383,15.641 c 0,0 -15.988,109.066 15.399,221.816 H 635.563 C 610.27,520.801 615.035,353.102 615.035,353.102 c 0,0 -37.422,-121.071 -118.176,-195.043 L 515.992,7"
         style="fill:none;stroke:#231f20;stroke-width:14;stroke-linecap:round;stroke-linejoin:round;stroke-miterlimit:10;stroke-dasharray:none;stroke-opacity:1"
         id="path132"
         inkscape:connector-curvature="0" /></g><text
       xml:space="preserve"
       style="font-size:12.4921px;line-height:1.25;font-family:'Encode Sans';-inkscape-font-specification:'Encode Sans';text-decoration:none;text-decoration-line:none;text-decoration-color:#000000;letter-spacing:0px;word-spacing:0px;fill:#000000;stroke:#000000;stroke-width:0;stroke-linecap:butt;stroke-linejoin:miter;stroke-opacity:1;stop-color:#000000"
       x="-16.361286"
       y="-83.746788"
       id="text159"><tspan
         sodipodi:role="line"
         id="tspan157"
         x="-16.361286"
         y="-83.746788">From Openclipart https://openclipart.org/detail/284534/woman-homemaker and https://openclipart.org/detail/285447/male-can-do</tspan></text></g></svg>
