<?xml version="1.0" encoding="UTF-8" standalone="no"?>
<!-- Created with Inkscape (http://www.inkscape.org/) -->

<svg
   width="51.210896mm"
   height="59.47142mm"
   viewBox="0 0 51.210896 59.47142"
   version="1.1"
   id="svg5992"
   inkscape:version="1.2.1 (9c6d41e410, 2022-07-14, custom)"
   sodipodi:docname="1.svg"
   xmlns:inkscape="http://www.inkscape.org/namespaces/inkscape"
   xmlns:sodipodi="http://sodipodi.sourceforge.net/DTD/sodipodi-0.dtd"
   xmlns="http://www.w3.org/2000/svg"
   xmlns:svg="http://www.w3.org/2000/svg">
  <sodipodi:namedview
     id="namedview5994"
     pagecolor="#505050"
     bordercolor="#ffffff"
     borderopacity="1"
     inkscape:showpageshadow="0"
     inkscape:pageopacity="0"
     inkscape:pagecheckerboard="1"
     inkscape:deskcolor="#505050"
     inkscape:document-units="mm"
     showgrid="false"
     inkscape:zoom="0.2102413"
     inkscape:cx="-1484.0091"
     inkscape:cy="225.93087"
     inkscape:current-layer="layer1" />
  <defs
     id="defs5989">
    <radialGradient
       id="SVGID_118_"
       cx="-1737.3789"
       cy="1352.75"
       r="76.253304"
       gradientTransform="matrix(1.3473,0,0,-1.3473,2475.104,1953.579)"
       gradientUnits="userSpaceOnUse">
			<stop
   offset="0"
   style="stop-color:#FFF100"
   id="stop1716" />

			<stop
   offset="0.9216"
   style="stop-color:#006E3A"
   id="stop1718" />

			<stop
   offset="1"
   style="stop-color:#005C36"
   id="stop1720" />

		</radialGradient>
    <radialGradient
       id="SVGID_119_"
       cx="-28975.201"
       cy="216694.47"
       r="9004656"
       gradientTransform="matrix(1.3473,0,0,-1.3473,2471.0708,2080.5925)"
       gradientUnits="userSpaceOnUse">
			<stop
   offset="0"
   style="stop-color:#FFF100"
   id="stop1725" />

			<stop
   offset="1"
   style="stop-color:#006E3A"
   id="stop1727" />

		</radialGradient>
    <radialGradient
       id="SVGID_120_"
       cx="-24072.584"
       cy="213092.28"
       r="8834610"
       gradientTransform="matrix(1.3471,0,0,-1.3471,2389.3596,2050.2656)"
       gradientUnits="userSpaceOnUse">
			<stop
   offset="0"
   style="stop-color:#FFF100"
   id="stop1732" />

			<stop
   offset="1"
   style="stop-color:#006E3A"
   id="stop1734" />

		</radialGradient>
  </defs>
  <g
     inkscape:label="Layer 1"
     inkscape:groupmode="layer"
     id="layer1"
     transform="translate(-197.14455,-89.819374)">
    <g
       id="_720181616"
       transform="matrix(0.26458333,0,0,0.26458333,188.72075,81.377281)">
	<path
   fill="#bbbdbf"
   fill-opacity="0.749"
   d="m 132.874,237.515 c 51.109,0 92.517,4.259 92.517,9.465 0,5.442 -41.408,9.701 -92.517,9.701 -51.346,0 -92.754,-4.259 -92.754,-9.701 0,-5.206 41.408,-9.465 92.754,-9.465 z"
   id="path1712" />

	<g
   id="g1739">
		<path
   fill="#8bc53f"
   stroke="#005f30"
   stroke-width="2.8327"
   d="m 171.206,100.987 c 26.264,20.586 37.385,56.551 25.081,89.441 -15.38,40.698 -60.81,61.284 -101.508,46.14 C 54.081,221.188 33.495,175.758 48.875,135.06 61.652,100.987 95.725,81.112 130.271,84.424 l 0.946,-1.42 c -0.946,-3.076 -1.183,-17.273 -1.893,-17.51 -8.518,-3.076 -13.251,-12.304 -10.411,-21.059 3.076,-8.518 12.304,-13.251 21.059,-10.174 8.518,2.839 13.251,12.304 10.411,20.822 -1.893,5.206 -5.915,8.991 -10.884,10.411 -0.71,0.237 -0.946,15.143 -1.42,18.219 l 2.13,2.366 c 3.313,0.71 6.625,1.656 9.938,3.076 4.496,1.656 8.755,3.786 12.777,6.152 l 3.313,-0.237 c 1.42,-2.839 10.174,-14.67 9.701,-15.38 -2.839,-4.022 -3.786,-9.465 -2.13,-14.67 3.076,-8.755 12.304,-13.251 21.059,-10.411 8.518,3.076 13.251,12.304 10.174,21.059 -2.839,8.518 -12.304,13.251 -20.822,10.174 -0.946,-0.237 -10.174,10.884 -13.014,12.777 v 2.368 z"
   id="path1714" />

		
			<radialGradient
   id="radialGradient5959"
   cx="-1737.3789"
   cy="1352.75"
   r="76.253304"
   gradientTransform="matrix(1.3473,0,0,-1.3473,2475.104,1953.579)"
   gradientUnits="userSpaceOnUse">
			<stop
   offset="0"
   style="stop-color:#FFF100"
   id="stop5953" />

			<stop
   offset="0.9216"
   style="stop-color:#006E3A"
   id="stop5955" />

			<stop
   offset="1"
   style="stop-color:#005C36"
   id="stop5957" />

		</radialGradient>

		<path
   fill="url(#SVGID_118_)"
   stroke="#278f3a"
   stroke-width="2.8327"
   d="m 121.989,86.791 c 42.118,0 76.427,34.073 76.427,76.19 0,42.117 -34.309,76.19 -76.427,76.19 -42.118,0 -76.19,-34.073 -76.19,-76.19 0,-42.117 34.073,-76.19 76.19,-76.19 z"
   id="path1723"
   style="fill:url(#SVGID_118_)" />

		
			<radialGradient
   id="radialGradient5966"
   cx="-28975.201"
   cy="216694.47"
   r="9004656"
   gradientTransform="matrix(1.3473,0,0,-1.3473,2471.0708,2080.5925)"
   gradientUnits="userSpaceOnUse">
			<stop
   offset="0"
   style="stop-color:#FFF100"
   id="stop5962" />

			<stop
   offset="1"
   style="stop-color:#006E3A"
   id="stop5964" />

		</radialGradient>

		<path
   fill="url(#SVGID_119_)"
   fill-opacity="0.502"
   d="m 134.53,35.918 c 7.808,0 13.96,6.152 13.96,13.96 0,7.572 -6.152,13.96 -13.96,13.96 -7.572,0 -13.96,-6.389 -13.96,-13.96 0,-7.808 6.388,-13.96 13.96,-13.96 z"
   id="path1730"
   style="fill:url(#SVGID_119_)" />

		
			<radialGradient
   id="radialGradient5973"
   cx="-24072.584"
   cy="213092.28"
   r="8834610"
   gradientTransform="matrix(1.3471,0,0,-1.3471,2389.3596,2050.2656)"
   gradientUnits="userSpaceOnUse">
			<stop
   offset="0"
   style="stop-color:#FFF100"
   id="stop5969" />

			<stop
   offset="1"
   style="stop-color:#006E3A"
   id="stop5971" />

		</radialGradient>

		<path
   fill="url(#SVGID_120_)"
   fill-opacity="0.4118"
   d="m 189.425,56.504 c 7.572,0 13.96,6.152 13.96,13.724 0,7.808 -6.389,13.96 -13.96,13.96 -7.571,0 -13.96,-6.152 -13.96,-13.96 0,-7.572 6.388,-13.724 13.96,-13.724 z"
   id="path1737"
   style="fill:url(#SVGID_120_)" />

	</g>

	<g
   id="g1743">
		<path
   fill="none"
   d="m 101.167,185.459 c 4.022,-0.473 12.304,-1.183 14.67,1.893 1.656,2.366 -0.237,1.893 -2.13,1.656 -2.366,-0.237 -4.732,-0.946 -7.335,-0.946 -4.022,-0.237 -7.808,1.183 -11.594,2.603 -1.893,0.71 -5.679,1.42 -2.366,-1.42 2.13,-1.893 5.916,-3.312 8.755,-3.786 z"
   id="path1741" />

	</g>

	<g
   id="g1747">
		<path
   fill="none"
   d="m 151.566,184.986 c -2.13,-0.71 -4.259,-1.183 -6.152,-1.183 -2.839,-0.237 -9.701,-0.71 -10.174,3.549 1.893,1.183 4.969,-0.71 7.335,-0.71 5.915,-0.237 11.121,4.732 16.8,4.022 0.71,0 -2.366,-2.839 -2.366,-2.839 -1.657,-1.182 -3.55,-2.129 -5.443,-2.839 z"
   id="path1745" />

	</g>

	<g
   id="g1751">
		<path
   fill="none"
   d="m 132.164,229.707 c -3.076,-0.71 -5.679,-3.076 -5.206,-6.625 0.473,-3.076 1.656,-5.915 4.969,-7.098 2.13,-0.473 4.496,0 6.389,0.946 2.839,1.656 4.022,5.915 2.603,8.755 -1.42,3.785 -4.733,4.968 -8.755,4.022 z"
   id="path1749" />

	</g>

	<g
   id="g1755">
		<path
   fill="none"
   stroke="#1d3319"
   stroke-width="1.7894"
   d="m 126.722,222.608 c 0.237,-2.603 2.13,-5.442 4.496,-6.389 3.786,-1.42 9.465,1.183 10.411,5.206 0.946,4.969 -4.259,9.228 -8.755,8.045 -2.603,-0.473 -5.442,-2.366 -6.152,-5.206 0,-0.709 -0.237,-1.183 0,-1.656"
   id="path1753" />

	</g>

	<path
   fill="#185b00"
   d="m 39.41,93.179 c 1.183,0.946 1.656,2.366 2.839,3.313 -2.839,2.839 -1.183,10.884 0.71,13.96 1.42,-3.786 3.076,-7.808 6.625,-9.938 -0.473,4.022 2.603,6.389 4.022,9.701 -4.732,-2.366 -11.358,6.152 -11.594,10.411 -1.42,-3.076 -1.893,-6.862 -2.366,-9.938 -0.473,-3.786 0.237,-7.335 0,-10.884 -2.366,3.786 -4.732,9.228 -4.732,13.487 -0.71,-1.893 -0.237,-8.282 -3.076,-8.282 0.947,-0.709 7.336,-12.066 7.572,-11.83 z"
   id="path1757" />

	<path
   fill="#185b00"
   d="m 67.804,63.129 c 0.946,1.656 1.42,4.022 2.603,5.679 -4.969,3.076 -5.679,15.143 -4.259,20.112 3.313,-4.732 7.572,-9.938 13.251,-11.594 -2.13,5.206 1.42,9.938 2.13,15.143 C 75.614,87.5 62.836,97.201 61.18,103.117 59.997,98.385 60.943,92.706 61.417,87.974 62.127,82.532 64.493,77.8 65.439,72.594 60.47,76.853 55.501,83.952 53.845,89.867 53.372,87.028 56.448,78.036 52.189,76.853 54.081,76.143 67.331,62.419 67.804,63.129 Z"
   id="path1759" />

	<path
   fill="#185b00"
   d="m 107.083,37.101 c 0.946,2.839 0.71,5.679 1.656,8.518 -7.572,2.366 -12.067,17.983 -11.831,24.845 5.915,-5.206 13.014,-10.648 21.059,-10.884 -4.732,6.389 -1.656,13.487 -2.366,20.586 -5.915,-8.518 -25.791,0.237 -30.05,7.098 0.237,-6.389 3.313,-13.487 5.442,-19.403 2.366,-6.862 7.335,-12.541 10.174,-18.929 -7.808,4.022 -16.8,11.594 -21.059,18.929 0.71,-4.022 7.335,-14.907 2.366,-17.51 2.603,-0.473 24.372,-14.196 24.609,-13.25 z"
   id="path1761" />

</g>
  </g>
</svg>
