<?xml version="1.0" encoding="UTF-8" standalone="no"?>
<!-- Created with Inkscape (http://www.inkscape.org/) -->

<svg
   width="179.57545mm"
   height="299.37262mm"
   viewBox="0 0 179.57546 299.37262"
   version="1.1"
   id="svg4488"
   inkscape:version="1.3.2 (091e20ef0f, 2023-11-25, custom)"
   sodipodi:docname="Personal_best_icon.svg"
   xmlns:inkscape="http://www.inkscape.org/namespaces/inkscape"
   xmlns:sodipodi="http://sodipodi.sourceforge.net/DTD/sodipodi-0.dtd"
   xmlns="http://www.w3.org/2000/svg"
   xmlns:svg="http://www.w3.org/2000/svg"
   xmlns:rdf="http://www.w3.org/1999/02/22-rdf-syntax-ns#"
   xmlns:cc="http://creativecommons.org/ns#"
   xmlns:dc="http://purl.org/dc/elements/1.1/">
  <defs
     id="defs4482" />
  <sodipodi:namedview
     id="base"
     pagecolor="#ffffff"
     bordercolor="#666666"
     borderopacity="1.0"
     inkscape:pageopacity="0.0"
     inkscape:pageshadow="2"
     inkscape:zoom="0.35"
     inkscape:cx="10"
     inkscape:cy="994.28571"
     inkscape:document-units="mm"
     inkscape:current-layer="layer1"
     showgrid="false"
     inkscape:showpageshadow="0"
     inkscape:pagecheckerboard="1"
     inkscape:deskcolor="#d1d1d1"
     inkscape:window-width="1920"
     inkscape:window-height="1151"
     inkscape:window-x="0"
     inkscape:window-y="26"
     inkscape:window-maximized="1" />
  <metadata
     id="metadata4485">
    <rdf:RDF>
      <cc:Work
         rdf:about="">
        <dc:format>image/svg+xml</dc:format>
        <dc:type
           rdf:resource="http://purl.org/dc/dcmitype/StillImage" />
      </cc:Work>
    </rdf:RDF>
  </metadata>
  <g
     inkscape:label="Layer 1"
     inkscape:groupmode="layer"
     id="layer1"
     transform="translate(-102.92291,115.39983)">
    <g
       id="g8"
       transform="matrix(2.4472488,0,0,2.4472488,40.523319,-123.40973)"
       style="stroke-width:0.175509">
      <path
         style="fill:#176cc7;stroke-width:0.175509"
         d="M 69.09,4.24 C 68.01,5.2 59.61,21.87 59.61,21.87 l -6.25,25.21 24.32,-2.23 c 0,0 20.23,-37.62 20.64,-38.49 C 99.05,4.78 99.44,4.13 96.65,4.13 93.86,4.12 70.1,3.34 69.09,4.24 Z"
         id="path1" />
      <path
         style="fill:#fcc11a;stroke-width:0.175509"
         d="m 81.68,43.29 c -1.21,-0.65 -36.85,-1.21 -37.69,0 -0.76,1.1 -0.33,6.87 -0.04,7.56 0.52,1.2 11.97,5.85 11.97,5.85 v 2.89 c 0,0 0.78,0.32 7.46,0.32 6.68,0 8.01,-0.34 8.01,-0.34 l 0.05,-2.78 c 0,0 9.94,-5.12 10.46,-5.83 0.46,-0.59 0.99,-7.02 -0.22,-7.67 z m -10.34,9.14 c 0,0 0.14,-1.38 -0.55,-1.72 -0.69,-0.35 -12.62,-0.29 -13.56,-0.24 -0.94,0.05 -0.94,1.73 -0.94,1.73 l -7.47,-3.95 -0.13,-1.32 27.94,0.15 0.06,1.78 z"
         id="path2" />
      <path
         style="fill:#fdffff;stroke-width:0.175509"
         d="m 59.04,51.84 c -0.94,0 -1.65,1.06 -1.65,2.74 0,1.58 0.54,2.88 1.73,2.81 1.13,-0.06 1.67,-1.49 1.59,-2.83 -0.1,-1.57 -0.48,-2.72 -1.67,-2.72 z"
         id="path3" />
      <path
         style="fill:#f8932a;stroke-width:0.175509"
         d="m 29.31,92.09 c 0,23.96 21.71,33.93 36.12,33.5 16.79,-0.5 34.85,-13.24 33.36,-36.1 C 97.39,68.04 79.1,57.8 63.32,57.92 44.98,58.05 29.31,71.16 29.31,92.09 Z"
         id="path4" />
      <g
         id="g5"
         style="stroke-width:0.175509">
        <path
           style="fill:#fcc11a;stroke-width:0.175509"
           d="m 64.52,121.29 c -0.25,0 -0.51,0 -0.76,-0.01 -7.5,-0.25 -15.12,-3.08 -20.54,-8.33 -5.8,-5.62 -9.38,-12.73 -9.4,-20.9 C 33.77,70.59 52.16,62.7 63.99,62.7 c 0.03,0 0.07,0 0.1,0 v 0 c 16.03,0.07 29.88,12.05 30.24,28.94 0.16,7.52 -2.92,15.48 -8.96,21.42 -5.63,5.53 -13.94,8.23 -20.85,8.23 z"
           id="path5" />
      </g>
      <path
         style="fill:#2e9df4;stroke-width:0.175509"
         d="M 25.51,3.72 C 24.88,4.3 48.97,47.2 48.97,47.2 c 0,0 4.04,0.52 13.06,0.6 9.02,0.08 13.49,-0.52 13.49,-0.52 0,0 -18.73,-43.13 -19.85,-43.56 C 55.12,3.5 47.7,3.42 40.45,3.34 33.19,3.25 26.11,3.16 25.51,3.72 Z"
         id="path6" />
      <path
         style="fill:#fefffa;stroke-width:0.175509"
         d="M 52.29,67.35 C 50.83,66.1 43.4,69.87 38.18,78.5 c -3.5,5.79 -3.8,13.2 -1.57,13.32 2.23,0.12 2.2,-7.21 7.05,-13.62 5.86,-7.71 10.74,-9.04 8.63,-10.85 z"
         id="path7" />
      <path
         style="fill:#f8932a;stroke-width:0.175509"
         d="m 64.37,66.9 c -1.95,0 -4.99,12.89 -7.38,14.48 -2.39,1.59 -14.77,0.07 -14.91,1.81 -0.14,1.74 9.19,8.98 10.28,11.65 1.09,2.67 -4.71,14.62 -3.11,15.78 1.59,1.16 11.58,-7.17 14.91,-7.17 3.47,0 12.41,8.89 13.9,7.67 1.57,-1.28 -3.47,-12.96 -2.68,-15.64 0.8,-2.68 11.65,-8.4 11.22,-11 C 86.17,81.87 73.57,83.83 71.25,81.66 68.93,79.49 66.47,66.9 64.37,66.9 Z"
         id="path8" />
    </g>
  </g>
</svg>
