<?xml version="1.0" encoding="UTF-8" standalone="no"?>
<!-- Created with Inkscape (http://www.inkscape.org/) -->

<svg
   width="129.05872mm"
   height="127.73245mm"
   viewBox="0 0 129.05872 127.73245"
   version="1.1"
   id="svg4488"
   inkscape:version="1.3.2 (091e20ef0f, 2023-11-25, custom)"
   sodipodi:docname="Respect_icon.svg"
   xmlns:inkscape="http://www.inkscape.org/namespaces/inkscape"
   xmlns:sodipodi="http://sodipodi.sourceforge.net/DTD/sodipodi-0.dtd"
   xmlns="http://www.w3.org/2000/svg"
   xmlns:svg="http://www.w3.org/2000/svg"
   xmlns:rdf="http://www.w3.org/1999/02/22-rdf-syntax-ns#"
   xmlns:cc="http://creativecommons.org/ns#"
   xmlns:dc="http://purl.org/dc/elements/1.1/">
  <defs
     id="defs4482">
    <radialGradient
       id="face_1_"
       cx="63.599998"
       cy="-2382.8486"
       r="56.959702"
       gradientTransform="matrix(0.26458333,0,0,-0.26458333,280.05636,-385.90258)"
       gradientUnits="userSpaceOnUse">
      <stop
         offset="0.5"
         style="stop-color:#FDE030"
         id="stop1" />
      <stop
         offset="0.9188"
         style="stop-color:#F7C02B"
         id="stop2" />
      <stop
         offset="1"
         style="stop-color:#F4A223"
         id="stop3" />
    </radialGradient>
    <linearGradient
       id="SVGID_1_"
       gradientUnits="userSpaceOnUse"
       x1="51.814999"
       y1="59.901798"
       x2="35.739201"
       y2="20.163799">
      <stop
         offset="0"
         style="stop-color:#FFC400"
         id="stop9" />
      <stop
         offset="1"
         style="stop-color:#FFF176"
         id="stop10" />
    </linearGradient>
  </defs>
  <sodipodi:namedview
     id="base"
     pagecolor="#ffffff"
     bordercolor="#666666"
     borderopacity="1.0"
     inkscape:pageopacity="0.0"
     inkscape:pageshadow="2"
     inkscape:zoom="0.7"
     inkscape:cx="-20.714286"
     inkscape:cy="477.14286"
     inkscape:document-units="mm"
     inkscape:current-layer="layer1"
     showgrid="false"
     inkscape:showpageshadow="0"
     inkscape:pagecheckerboard="1"
     inkscape:deskcolor="#d1d1d1"
     inkscape:window-width="1920"
     inkscape:window-height="1151"
     inkscape:window-x="0"
     inkscape:window-y="26"
     inkscape:window-maximized="1" />
  <metadata
     id="metadata4485">
    <rdf:RDF>
      <cc:Work
         rdf:about="">
        <dc:format>image/svg+xml</dc:format>
        <dc:type
           rdf:resource="http://purl.org/dc/dcmitype/StillImage" />
      </cc:Work>
    </rdf:RDF>
  </metadata>
  <g
     inkscape:label="Layer 1"
     inkscape:groupmode="layer"
     id="layer1"
     transform="translate(-206.37501,-65.640127)">
    <g
       id="g6"
       transform="matrix(4.0962208,0,0,4.0962208,-943.52803,-868.98093)">
      <path
         id="face_8_"
         style="fill:url(#face_1_);stroke-width:0.264583"
         d="m 296.88386,259.34967 c -7.38188,0 -15.34583,-4.63021 -15.34583,-14.79021 0,-10.16 7.96395,-14.79021 15.34583,-14.79021 4.10104,0 7.88458,1.34938 10.68917,3.81 3.0427,2.69875 4.65666,6.50875 4.65666,10.98021 0,4.47146 -1.61396,8.255 -4.65666,10.95375 -2.80459,2.46063 -6.61459,3.83646 -10.68917,3.83646 z" />
      <path
         style="fill:#eb8f00;stroke-width:0.264583"
         d="m 309.55476,235.76736 c 1.41022,2.27541 2.14577,4.98475 2.14577,7.99835 0,4.47146 -1.61396,8.255 -4.65667,10.95375 -2.80458,2.46063 -6.61458,3.83646 -10.68917,3.83646 -4.77837,0 -9.80016,-1.94469 -12.74762,-6.06954 2.84691,4.67254 8.19944,6.86329 13.27679,6.86329 4.07458,0 7.88458,-1.37583 10.68917,-3.83646 3.0427,-2.69875 4.65666,-6.48229 4.65666,-10.95375 0,-3.37079 -0.9181,-6.36587 -2.67493,-8.7921 z"
         id="path3-2" />
      <path
         style="fill:#422b0d;stroke-width:0.264583"
         d="m 302.47715,250.15804 c -0.78846,-0.10847 -2.54,-0.14552 -5.69648,-0.14552 -0.005,0 -0.0106,0 -0.0132,0 -0.003,0 -0.0106,0 -0.0132,0 -3.15912,0 -4.90802,0.037 -5.69648,0.14552 -0.47889,0.0661 -0.66145,0.66146 -0.0503,1.06363 1.12713,0.74083 2.81782,1.24619 5.76263,1.26735 2.94481,-0.0185 4.6355,-0.52652 5.76262,-1.26735 0.6059,-0.40217 0.42334,-0.99748 -0.0556,-1.06363 z"
         id="path4" />
      <path
         style="fill:#f09300;stroke-width:0.264583"
         d="m 299.50588,230.80907 c -0.0132,-0.0185 -0.0265,-0.0344 -0.0397,-0.0503 -0.29368,-0.36777 -1.32821,-0.90222 -1.8071,-0.63235 -0.21167,0.11906 -0.28311,0.53446 -0.381,0.74083 -0.17198,0.36248 -0.39423,0.69321 -0.61383,1.02923 -0.69586,1.06098 -11.50409,9.00907 -11.50409,9.00907 l -3.07446,-0.508 c -0.29368,0.74877 -0.33337,1.62983 -0.33337,1.62983 0,0 0.83873,0.61119 4.32329,0.4101 2.2516,-0.12964 6.55902,-1.97908 7.37129,-3.33375 0.19844,-0.33073 1.84944,-2.62996 1.83356,-2.83104 0.37307,-0.19579 2.24632,-1.33879 3.21469,-2.14842 0.73819,-0.61647 1.20915,-1.10595 1.29646,-2.10343 0.037,-0.42069 -0.037,-0.86784 -0.28575,-1.21179 z"
         id="path5" />
      <path
         style="fill:#422b0d;stroke-width:0.264583"
         d="m 291.70861,239.80754 v 0 c -1.1086,0 -2.11667,0.93663 -2.11667,2.49238 0,1.55575 1.00807,2.49237 2.11667,2.49237 v 0 c 1.1086,0 2.11667,-0.93662 2.11667,-2.49237 0,-1.55575 -1.00542,-2.49238 -2.11667,-2.49238 z"
         id="path6" />
      <g
         id="g7"
         transform="matrix(0.26458333,0,0,0.26458333,280.05636,227.12342)">
        <g
           id="peepers_39_">
          <path
             style="fill:#896024"
             d="m 43.65,51.87 v 0 c -1.03,-0.72 -2.58,-0.49 -3.58,0.95 -1,1.45 -0.67,2.97 0.36,3.69 v 0 c 1.03,0.72 2.58,0.49 3.58,-0.95 1,-1.44 0.68,-2.97 -0.36,-3.69 z"
             id="path7" />
        </g>
      </g>
      <path
         style="fill:#422b0d;stroke-width:0.264583"
         d="m 301.85803,239.80754 v 0 c -1.10861,0 -2.11667,0.93663 -2.11667,2.49238 0,1.55575 1.00806,2.49237 2.11667,2.49237 v 0 c 1.1086,0 2.11666,-0.93662 2.11666,-2.49237 0,-1.55575 -1.00806,-2.49238 -2.11666,-2.49238 z"
         id="path8" />
      <g
         id="g9"
         transform="matrix(0.26458333,0,0,0.26458333,280.05636,227.12342)">
        <g
           id="peepers_6_">
          <path
             style="fill:#896024"
             d="m 82.01,51.87 v 0 c -1.03,-0.72 -2.58,-0.49 -3.58,0.95 -1,1.45 -0.67,2.97 0.36,3.69 v 0 c 1.03,0.72 2.58,0.49 3.58,-0.95 1.01,-1.45 0.67,-2.97 -0.36,-3.69 z"
             id="path9" />
        </g>
      </g>
      <g
         id="g13"
         transform="matrix(0.26458333,0,0,0.26458333,280.05636,227.12342)">
        <linearGradient
           id="linearGradient5"
           gradientUnits="userSpaceOnUse"
           x1="51.814999"
           y1="59.901798"
           x2="35.739201"
           y2="20.163799">
          <stop
             offset="0"
             style="stop-color:#FFC400"
             id="stop4" />
          <stop
             offset="1"
             style="stop-color:#FFF176"
             id="stop5" />
        </linearGradient>
        <path
           style="fill:url(#SVGID_1_)"
           d="m 7.67,50.17 c -8.08,-8.1 -5.56,-26.65 9.86,-30.96 7.22,-2.02 10.41,-4.34 14.36,-5.8 5.45,-2.02 12.4,-6.37 14.86,-6.51 3.25,-0.18 4.57,2.46 4.57,2.46 0,0 3.2,-1.79 5.46,-3.16 2.26,-1.37 3.77,-1.83 5.13,-1.05 1.63,0.92 2.57,3.22 2.57,3.22 0,0 1.03,-0.89 2.12,-1.96 1.51,-1.48 4.38,-1.01 5.61,1.54 1.12,2.32 -1.02,7.33 -1.02,7.33 0,0 3.24,0.02 1.74,4.77 -1.5,4.75 -3.95,5.85 -5.76,7.47 -1.81,1.62 -6.99,4.71 -9.27,6.12 0,0 1.87,2.18 1.09,4.97 -0.35,1.24 -1.47,2.07 -2.43,2.89 -1.34,1.15 -8.16,5.82 -9.6,6.84 -3.4,2.41 -14,7.65 -20.25,8.02 -0.02,-0.01 -10.79,2.09 -19.04,-6.19 z"
           id="path10" />
        <g
           id="g11">
          <path
             style="fill:#f09300"
             d="m 15.84,41.29 c -1.31,0.65 -3.05,-0.11 -1.79,-1.59 2.45,-2.46 5.28,-4.58 7.28,-7.46 1.08,-1.38 1.96,-3.02 2.33,-3.7 0.37,-0.68 0.96,-1.42 1.27,-0.55 0.21,0.6 -0.16,1.87 -0.51,2.79 -1.93,4.05 -4.63,8.22 -8.58,10.51 z"
             id="path11" />
        </g>
        <path
           style="fill:#f09300"
           d="m 73.52,20.45 c 1.68,-4.69 -1.71,-5.85 -1.71,-5.85 0,0 2.37,-4.41 0.57,-7.47 -1.34,-2.29 -3.11,-2.67 -5.18,-1.61 -1.42,0.73 -2.82,2.13 -2.82,2.13 0,0 -0.36,-2.2 -1.99,-3.12 C 60.44,3.59 58.97,3.61 56.06,5.85 54.34,7.17 51.31,9.37 51.31,9.37 49.37,6.25 46.84,6.9 46.74,6.91 c -2.47,0.13 -9.41,4.49 -14.86,6.51 -3.95,1.46 -7.9,2.11 -14.9,4.79 -13.6,5.21 -16.32,15.3 -13.41,24.63 -0.7,-14 7.41,-19.12 14.48,-21.83 4,-1.53 6.96,-2.38 9.57,-3.12 4.66,-1.18 8.98,-3.08 13.24,-5.3 2.18,-1.09 3.65,-1.97 4.43,-2.35 1.04,-0.5 2.22,-0.4 3.06,0.12 0.81,0.5 1.85,1.74 0.41,3.65 -1.18,1.56 -4.43,2.77 -7.36,4.13 -1.65,0.83 -11.35,4.98 -9.7,7.25 0.29,0.43 0.82,0.64 1.32,0.51 0.43,-0.14 1.27,-0.2 1.58,-0.57 2.58,-2.55 5.95,-3.74 9.37,-5.41 3.8,-1.77 6.95,-3.24 8.7,-7.75 l 0.59,-0.38 C 54.5,10.76 57,8.67 58.75,7.33 c 1.35,-1.28 4.04,-0.34 4.34,1.36 0.3,1.7 -0.82,3.27 -3.18,5.84 -4.25,4.34 -14.53,8.24 -18.93,13.5 -0.73,0.87 0.17,2.27 1.27,1.96 0.5,-0.14 1.21,-0.33 2.44,-1.79 1.23,-1.46 4.43,-3.52 8.31,-5.83 5.13,-3.11 9.99,-7.18 12.05,-12.3 0.61,-1.51 2.42,-2.46 4.09,-2.48 1.81,0.01 3.06,2.27 1.61,5.23 -0.65,1.34 -1.28,2.53 -4.24,5.69 -2.62,2.79 -6.17,4.87 -9.9,7.01 -3.34,1.91 -6.64,4.03 -8.22,5.92 -0.78,0.87 -0.29,2.32 0.86,2.04 0.48,-0.1 0.73,0.25 1.87,-1.09 1.14,-1.34 3.58,-3.22 6.58,-4.93 5.31,-2.71 9.7,-6.58 12.96,-10.98 0,0 2.01,0.23 1.38,2.83 -1.77,7.38 -10.63,10.06 -16.3,14.11 -3.36,1.72 -11.59,8.41 -13.23,7.69 -3.65,-1.61 -13.17,-2.17 -18.55,2.91 -0.6,0.57 -1.58,1.58 -1.26,2 0.32,0.42 1.02,-0.17 1.49,-0.47 4.24,-2.68 10.2,-3.98 17.45,-1.7 1.52,0.48 12.22,-6.57 15.38,-8.53 -0.05,-0.03 5.47,-3.37 8.46,-5.45 3.01,-2.09 6.34,-4.68 8.04,-9.42 z"
           id="path12" />
        <path
           style="fill:#f09300"
           d="m 58.55,33.99 c 0,0 0,0 0,0 0.46,-0.29 -2.13,1.25 -2.13,1.25 0.15,0.16 1.51,1.51 1.25,2.43 -0.11,0.4 0.03,1.35 -2.06,2.87 -1.12,0.81 -10.54,7.43 -10.54,7.43 -23.74,15.85 -39.04,0.55 -37.4,2.2 0.01,0.01 0.02,0.02 0.03,0.03 8.24,8.24 19.42,7.05 19.42,7.05 10.2,-1.51 16.8,-5.93 20.2,-8.34 1.44,-1.02 8.69,-6.09 10.03,-7.24 0.96,-0.82 2.01,-1.74 2.36,-2.99 0.76,-2.72 -1.06,-4.59 -1.16,-4.69 z"
           id="path13" />
      </g>
    </g>
  </g>
</svg>
