<?xml version="1.0" encoding="UTF-8" standalone="no"?>
<!-- Created with Inkscape (http://www.inkscape.org/) -->

<svg
   width="220.1369mm"
   height="249.3143mm"
   viewBox="0 0 220.1369 249.31429"
   version="1.1"
   id="svg4488"
   inkscape:version="1.3.2 (091e20ef0f, 2023-11-25, custom)"
   sodipodi:docname="Responsibility_icon.svg"
   xmlns:inkscape="http://www.inkscape.org/namespaces/inkscape"
   xmlns:sodipodi="http://sodipodi.sourceforge.net/DTD/sodipodi-0.dtd"
   xmlns="http://www.w3.org/2000/svg"
   xmlns:svg="http://www.w3.org/2000/svg"
   xmlns:rdf="http://www.w3.org/1999/02/22-rdf-syntax-ns#"
   xmlns:cc="http://creativecommons.org/ns#"
   xmlns:dc="http://purl.org/dc/elements/1.1/">
  <defs
     id="defs4482" />
  <sodipodi:namedview
     id="base"
     pagecolor="#ffffff"
     bordercolor="#666666"
     borderopacity="1.0"
     inkscape:pageopacity="0.0"
     inkscape:pageshadow="2"
     inkscape:zoom="0.35"
     inkscape:cx="1.4285714"
     inkscape:cy="1054.2857"
     inkscape:document-units="mm"
     inkscape:current-layer="layer1"
     showgrid="false"
     inkscape:showpageshadow="0"
     inkscape:pagecheckerboard="1"
     inkscape:deskcolor="#d1d1d1"
     inkscape:window-width="1920"
     inkscape:window-height="1151"
     inkscape:window-x="0"
     inkscape:window-y="26"
     inkscape:window-maximized="1" />
  <metadata
     id="metadata4485">
    <rdf:RDF>
      <cc:Work
         rdf:about="">
        <dc:format>image/svg+xml</dc:format>
        <dc:type
           rdf:resource="http://purl.org/dc/dcmitype/StillImage" />
      </cc:Work>
    </rdf:RDF>
  </metadata>
  <g
     inkscape:label="Layer 1"
     inkscape:groupmode="layer"
     id="layer1"
     transform="translate(-105.37702,130.88094)">
    <g
       id="g6"
       transform="matrix(8.0140004,0,0,7.8524192,-611.30835,-1529.8712)">
      <g
         id="g2"
         transform="matrix(0.26458333,0,0,0.26458333,85.002687,177.09679)">
        <path
           style="fill:#b0bec5"
           d="m 111.33,69.06 h 6.33 c 0.68,0 1.31,-0.34 1.65,-0.93 0.56,-0.95 1.24,-2.74 1.24,-5.83 0,-3.23 -0.74,-5.23 -1.32,-6.3 -0.33,-0.61 -0.99,-0.98 -1.68,-0.98 h -6.23 c -1.07,0 -1.93,0.87 -1.93,1.93 v 10.17 c 0,1.08 0.87,1.94 1.94,1.94 z"
           id="path1" />
      </g>
      <g
         id="g3"
         transform="matrix(0.26458333,0,0,0.26458333,85.002687,177.09679)">
        <path
           style="fill:#90a4ae"
           d="m 111.33,69.06 h 6.33 c 0.68,0 1.31,-0.34 1.65,-0.93 0.56,-0.95 1.24,-2.74 1.24,-5.83 0,-3.23 -0.74,-5.23 -1.32,-6.3 -0.33,-0.61 -0.99,-0.98 -1.68,-0.98 h -6.23 c -1.07,0 -1.93,0.87 -1.93,1.93 v 10.17 c 0,1.08 0.87,1.94 1.94,1.94 z"
           id="path2" />
      </g>
      <g
         id="g4"
         transform="matrix(0.26458333,0,0,0.26458333,85.002687,177.09679)">
        <path
           style="fill:#607d8b"
           d="m 106.85,69.06 h 3.99 c 0.43,0 0.82,-0.34 1.04,-0.93 0.35,-0.95 0.78,-2.74 0.78,-5.83 0,-3.23 -0.47,-5.23 -0.83,-6.3 -0.21,-0.61 -0.62,-0.98 -1.06,-0.98 h -3.93 c -0.67,0 -1.22,0.87 -1.22,1.93 v 10.17 c 0.02,1.08 0.56,1.94 1.23,1.94 z"
           id="path3" />
      </g>
      <g
         id="g40"
         transform="matrix(0.26458333,0,0,0.26458333,85.002687,177.09679)">
        <g
           id="g5">
          <path
             style="fill:#78909c"
             d="M 97.39,25.29 C 96.01,19.21 91.56,16.83 88.66,16.83 H 64 39.34 c -2.9,0 -7.35,2.38 -8.73,8.46 -1.17,5.13 -1.88,11.04 -1.88,11.04 L 64,35.12 99.28,36.33 c -0.01,0 -0.73,-5.91 -1.89,-11.04 z"
             id="path4" />
          <path
             style="fill:#a06841"
             d="M 89.63,4.02 H 38.16 l -3.65,15.24 c -1.08,3.8 1.78,7.59 5.73,7.59 h 47.43 c 3.98,0 6.84,-3.82 5.71,-7.64 z"
             id="path5" />
        </g>
        <g
           id="g7">
          <path
             style="fill:#78909c"
             d="m 30.6,102.76 c 1.38,6.08 5.83,8.46 8.73,8.46 H 64 88.66 c 2.9,0 7.35,-2.38 8.73,-8.46 1.17,-5.13 1.88,-11.04 1.88,-11.04 L 64,92.93 28.72,91.72 c 0,0 0.72,5.91 1.88,11.04 z"
             id="path6" />
          <path
             style="fill:#a06841"
             d="m 38.36,124.02 h 51.47 l 3.65,-15.24 c 1.08,-3.8 -1.78,-7.59 -5.73,-7.59 H 40.32 c -3.98,0 -6.84,3.82 -5.71,7.64 z"
             id="path7" />
        </g>
        <path
           style="fill:#784d30"
           d="M 87.75,101.2 H 40.32 c -3.98,0 -6.84,3.82 -5.71,7.64 l 1.28,5.17 c 3.62,-6.4 19.89,0.91 29.57,-0.12 11.99,-1.27 17.37,-5.05 21.93,-2.36 1.48,0.87 2.84,2.21 4.56,2.27 0.12,0 0.22,-0.02 0.34,-0.03 l 1.19,-4.98 c 1.08,-3.81 -1.78,-7.59 -5.73,-7.59 z"
           id="path8" />
        <path
           style="fill:#784d30"
           d="m 40.32,26.85 h 47.43 c 3.98,0 6.84,-3.82 5.71,-7.64 l -1.28,-5.17 c -3.62,6.4 -19.89,-0.91 -29.57,0.12 -11.99,1.27 -17.37,5.05 -21.93,2.36 -1.48,-0.87 -2.84,-2.21 -4.56,-2.27 -0.12,0 -0.22,0.02 -0.34,0.03 l -1.19,4.98 c -1.09,3.81 1.77,7.59 5.73,7.59 z"
           id="path9" />
        <g
           id="g39">
          <g
             id="g10">
            <circle
               style="fill:#b0bec5"
               cx="64"
               cy="64"
               r="47.27"
               id="circle9" />
            <circle
               style="fill:#fff3e0"
               cx="64.230003"
               cy="64"
               r="37.919998"
               id="circle10" />
          </g>
          <path
             style="opacity:0.64;fill:#eceff1"
             d="m 53.2,25.45 c -5.06,1.46 -12.14,3.71 -19.72,12.77 -7.49,8.95 -9.03,19.36 -9.51,26.54 0,0 -4.32,5.41 -4.53,4.4 C 17.81,61.32 21.1,43.8 29.71,34.54 39.73,23.76 52.77,19.94 57.47,19.22 58.29,19.09 54.74,25 53.2,25.45 Z"
             id="path10" />
          <g
             id="g38">
            <g
               id="g11">
              <circle
                 style="fill:#ffffff"
                 cx="64"
                 cy="64"
                 r="35.919998"
                 id="circle11" />
            </g>
            <circle
               style="fill:#563428"
               cx="64.260002"
               cy="64"
               r="3.99"
               id="circle12" />
            <g
               id="g37">
              <g
                 id="g36">
                <g
                   id="g14">
                  <g
                     id="g12">
                    <path
                       style="fill:#b2947c"
                       d="m 64,36.97 v 0 c -0.73,0 -1.32,-0.59 -1.32,-1.32 V 31.7 c 0,-0.73 0.59,-1.32 1.32,-1.32 v 0 c 0.73,0 1.32,0.59 1.32,1.32 v 3.95 c -0.01,0.73 -0.6,1.32 -1.32,1.32 z"
                       id="path12" />
                  </g>
                  <g
                     id="g13">
                    <path
                       style="fill:#b2947c"
                       d="m 64,97.61 v 0 c -0.73,0 -1.32,-0.59 -1.32,-1.32 v -3.95 c 0,-0.73 0.59,-1.32 1.32,-1.32 v 0 c 0.73,0 1.32,0.59 1.32,1.32 v 3.95 c -0.01,0.73 -0.6,1.32 -1.32,1.32 z"
                       id="path13" />
                  </g>
                </g>
                <g
                   id="g17">
                  <g
                     id="g15">
                    <path
                       style="fill:#b2947c"
                       d="m 96.29,65.32 h -3.95 c -0.73,0 -1.32,-0.59 -1.32,-1.32 v 0 c 0,-0.73 0.59,-1.32 1.32,-1.32 h 3.95 c 0.73,0 1.32,0.59 1.32,1.32 v 0 c 0,0.73 -0.59,1.32 -1.32,1.32 z"
                       id="path14" />
                  </g>
                  <g
                     id="g16">
                    <path
                       style="fill:#b2947c"
                       d="M 35.65,65.32 H 31.7 c -0.73,0 -1.32,-0.59 -1.32,-1.32 v 0 c 0,-0.73 0.59,-1.32 1.32,-1.32 h 3.95 c 0.73,0 1.32,0.59 1.32,1.32 v 0 c 0,0.73 -0.59,1.32 -1.32,1.32 z"
                       id="path15" />
                  </g>
                </g>
                <g
                   id="g20">
                  <g
                     id="g18">
                    <path
                       style="fill:#b2947c"
                       d="m 64,36.97 v 0 c -0.73,0 -1.32,-0.59 -1.32,-1.32 V 31.7 c 0,-0.73 0.59,-1.32 1.32,-1.32 v 0 c 0.73,0 1.32,0.59 1.32,1.32 v 3.95 c -0.01,0.73 -0.6,1.32 -1.32,1.32 z"
                       id="path17" />
                  </g>
                  <g
                     id="g19">
                    <path
                       style="fill:#b2947c"
                       d="m 64,97.61 v 0 c -0.73,0 -1.32,-0.59 -1.32,-1.32 v -3.95 c 0,-0.73 0.59,-1.32 1.32,-1.32 v 0 c 0.73,0 1.32,0.59 1.32,1.32 v 3.95 c -0.01,0.73 -0.6,1.32 -1.32,1.32 z"
                       id="path18" />
                  </g>
                </g>
                <g
                   id="g23">
                  <g
                     id="g21">
                    <path
                       style="fill:#b2947c"
                       d="m 48.68,40.11 -1.97,-3.42 c -0.36,-0.63 -0.15,-1.44 0.48,-1.8 v 0 c 0.63,-0.36 1.44,-0.15 1.8,0.48 l 1.97,3.42 c 0.36,0.63 0.15,1.44 -0.48,1.8 v 0 c -0.63,0.37 -1.43,0.15 -1.8,-0.48 z"
                       id="path20" />
                  </g>
                  <g
                     id="g22">
                    <path
                       style="fill:#b2947c"
                       d="m 79,92.63 -1.97,-3.42 c -0.36,-0.63 -0.15,-1.44 0.48,-1.8 v 0 c 0.63,-0.36 1.44,-0.15 1.8,0.48 l 1.97,3.42 c 0.36,0.63 0.15,1.44 -0.48,1.8 v 0 c -0.63,0.36 -1.43,0.15 -1.8,-0.48 z"
                       id="path21" />
                  </g>
                </g>
                <g
                   id="g26">
                  <g
                     id="g24">
                    <path
                       style="fill:#b2947c"
                       d="m 48.68,40.11 -1.97,-3.42 c -0.36,-0.63 -0.15,-1.44 0.48,-1.8 v 0 c 0.63,-0.36 1.44,-0.15 1.8,0.48 l 1.97,3.42 c 0.36,0.63 0.15,1.44 -0.48,1.8 v 0 c -0.63,0.37 -1.43,0.15 -1.8,-0.48 z"
                       id="path23" />
                  </g>
                  <g
                     id="g25">
                    <path
                       style="fill:#b2947c"
                       d="m 79,92.63 -1.97,-3.42 c -0.36,-0.63 -0.15,-1.44 0.48,-1.8 v 0 c 0.63,-0.36 1.44,-0.15 1.8,0.48 l 1.97,3.42 c 0.36,0.63 0.15,1.44 -0.48,1.8 v 0 c -0.63,0.36 -1.43,0.15 -1.8,-0.48 z"
                       id="path24" />
                  </g>
                </g>
                <g
                   id="g29">
                  <g
                     id="g27">
                    <path
                       style="fill:#b2947c"
                       d="M 38.79,50.97 35.37,49 c -0.63,-0.36 -0.85,-1.17 -0.48,-1.8 v 0 c 0.36,-0.63 1.17,-0.85 1.8,-0.48 l 3.42,1.97 c 0.63,0.36 0.85,1.17 0.48,1.8 v 0 c -0.37,0.62 -1.17,0.84 -1.8,0.48 z"
                       id="path26" />
                  </g>
                  <g
                     id="g28">
                    <path
                       style="fill:#b2947c"
                       d="m 91.31,81.29 -3.42,-1.97 c -0.63,-0.36 -0.85,-1.17 -0.48,-1.8 v 0 c 0.36,-0.63 1.17,-0.85 1.8,-0.48 l 3.42,1.97 c 0.63,0.36 0.85,1.17 0.48,1.8 v 0 c -0.37,0.63 -1.17,0.84 -1.8,0.48 z"
                       id="path27" />
                  </g>
                </g>
                <g
                   id="g32">
                  <g
                     id="g30">
                    <path
                       style="fill:#b2947c"
                       d="m 77.51,40.59 v 0 c -0.63,-0.36 -0.85,-1.17 -0.48,-1.8 L 79,35.37 c 0.36,-0.63 1.17,-0.85 1.8,-0.48 v 0 c 0.63,0.36 0.85,1.17 0.48,1.8 l -1.97,3.42 c -0.36,0.63 -1.17,0.84 -1.8,0.48 z"
                       id="path29" />
                  </g>
                  <g
                     id="g31">
                    <path
                       style="fill:#b2947c"
                       d="m 47.19,93.11 v 0 c -0.63,-0.36 -0.85,-1.17 -0.48,-1.8 l 1.97,-3.42 c 0.36,-0.63 1.17,-0.85 1.8,-0.48 v 0 c 0.63,0.36 0.85,1.17 0.48,1.8 l -1.97,3.42 c -0.37,0.63 -1.17,0.84 -1.8,0.48 z"
                       id="path30" />
                  </g>
                </g>
                <g
                   id="g35">
                  <g
                     id="g33">
                    <path
                       style="fill:#b2947c"
                       d="m 87.4,50.48 v 0 c -0.36,-0.63 -0.15,-1.44 0.48,-1.8 l 3.42,-1.97 c 0.63,-0.36 1.44,-0.15 1.8,0.48 v 0 c 0.36,0.63 0.15,1.44 -0.48,1.8 l -3.42,1.97 c -0.63,0.37 -1.43,0.16 -1.8,-0.48 z"
                       id="path32" />
                  </g>
                  <g
                     id="g34">
                    <path
                       style="fill:#b2947c"
                       d="m 34.89,80.81 v 0 c -0.36,-0.63 -0.15,-1.44 0.48,-1.8 l 3.42,-1.97 c 0.63,-0.36 1.44,-0.15 1.8,0.48 v 0 c 0.36,0.63 0.15,1.44 -0.48,1.8 l -3.42,1.97 c -0.63,0.36 -1.44,0.15 -1.8,-0.48 z"
                       id="path33" />
                  </g>
                </g>
              </g>
            </g>
            <line
               style="fill:none;stroke:#563428;stroke-width:4.4863;stroke-linecap:round;stroke-miterlimit:10"
               x1="49.450001"
               y1="55.740002"
               x2="64"
               y2="64"
               id="line37" />
            <line
               style="fill:none;stroke:#563428;stroke-width:3.1404;stroke-linecap:round;stroke-miterlimit:10"
               x1="84.779999"
               y1="52.080002"
               x2="64.660004"
               y2="64"
               id="line38" />
          </g>
        </g>
        <path
           style="fill:#b7855f"
           d="m 47.07,11.99 c 6.75,0.15 13.5,-0.87 20.25,-0.54 0.96,0.05 1.93,0.12 2.88,-0.05 0.95,-0.17 1.89,-0.61 2.44,-1.4 C 73.19,9.21 73.24,8.04 72.59,7.33 72.22,6.92 71.68,6.72 71.15,6.56 68.32,5.73 65.3,6 62.36,6.18 57.44,6.48 52.51,6.52 47.59,6.3 45.77,6.22 43.17,5.48 41.55,6.55 c -1.12,0.74 -1.79,2.28 -0.98,3.48 1.26,1.85 4.54,1.91 6.5,1.96 z"
           id="path39" />
      </g>
      <path
         style="opacity:0.75;fill:#fff3e0;stroke-width:0.264583"
         d="m 115.13079,193.08821 c -0.10319,-0.0238 -0.16404,-0.29369 0.0661,-0.35455 0.28839,-0.0741 0.95514,-0.0423 1.27793,0.008 0.16934,0.0265 0.22755,0.35719 -0.0873,0.381 -0.25929,0.0185 -1.15623,-0.0106 -1.25677,-0.0344 z"
         id="path40" />
      <path
         style="opacity:0.75;fill:#fff3e0;stroke-width:0.264583"
         d="m 115.11227,192.3606 c -0.21696,-0.0185 -0.48683,-0.4445 -0.11377,-0.46566 0.49742,-0.0291 0.95779,-0.008 1.21444,0.008 0.30956,0.0212 0.36512,0.44979 0.037,0.45509 -0.30427,0.003 -0.88371,0.0265 -1.13771,0.003 z"
         id="path41" />
    </g>
  </g>
</svg>
