<?xml version="1.0" encoding="UTF-8" standalone="no"?>
<!-- Generator: Adobe Illustrator 12.0.0, SVG Export Plug-In . SVG Version: 6.00 Build 51448)  -->

<svg
   version="1.1"
   id="Layer_1"
   width="254.02646"
   height="321.75159"
   viewBox="0 0 254.02645 321.7516"
   overflow="visible"
   enable-background="new 0 0 1435.478 1084.627"
   xml:space="preserve"
   sodipodi:docname="cell.svg"
   inkscape:version="1.4.3 (0d15f75042, 2025-12-25)"
   xmlns:inkscape="http://www.inkscape.org/namespaces/inkscape"
   xmlns:sodipodi="http://sodipodi.sourceforge.net/DTD/sodipodi-0.dtd"
   xmlns="http://www.w3.org/2000/svg"
   xmlns:svg="http://www.w3.org/2000/svg"><defs
   id="defs237" /><sodipodi:namedview
   id="namedview237"
   pagecolor="#505050"
   bordercolor="#ffffff"
   borderopacity="1"
   inkscape:showpageshadow="0"
   inkscape:pageopacity="0"
   inkscape:pagecheckerboard="1"
   inkscape:deskcolor="#d1d1d1"
   inkscape:zoom="0.38676892"
   inkscape:cx="637.33145"
   inkscape:cy="795.04836"
   inkscape:current-layer="Layer_1" />




<linearGradient
   id="XMLID_36_"
   gradientUnits="userSpaceOnUse"
   x1="580.64941"
   y1="928.15192"
   x2="1046.3478"
   y2="44.4063"
   gradientTransform="matrix(0.9928,0.1198,-0.1198,0.9928,86.9811,-69.5472)">
	<stop
   offset="0"
   style="stop-color:#758BC6"
   id="stop81" />
	<stop
   offset="1"
   style="stop-color:#D2EDF4"
   id="stop82" />
</linearGradient>

<g
   id="g90"
   transform="translate(-21.823598,-753.22653)">
	
		<radialGradient
   id="XMLID_37_"
   cx="128.5181"
   cy="1535.8306"
   r="87.405197"
   gradientTransform="matrix(0.9354,-0.3537,0.3537,0.9354,-471.2761,-454.9753)"
   gradientUnits="userSpaceOnUse">
		<stop
   offset="0"
   style="stop-color:#FFFFFF"
   id="stop83" />
		<stop
   offset="1"
   style="stop-color:#F8E0CF"
   id="stop84" />
	</radialGradient>
	<path
   fill="url(#XMLID_37_)"
   stroke="#75461c"
   stroke-width="2.1719"
   d="m 162.522,1072.024 c 1.226,-0.055 2.454,-0.099 3.687,-0.13 32.29,-0.786 112.743,-21.758 108.386,-66.794 -1.958,-20.238 -14.164,-43.77 -21.188,-63.309 -10.248,-28.506 -23.6,-54.498 -28.606,-84.815 -3.203,-19.394 -5.08,-36.372 -12.465,-55.271 -17.339,-44.363 -65.809,-56.06 -107.859,-41.411 -43.47,15.145 -92.762,54.04 -76.838,105.674 8.174,26.51 24.164,49.682 30.445,77.658 4.686,20.865 4.7,38.98 6.085,60.395 1.492,23.062 10.353,46.609 30.184,59.93 21.612,14.515 44.282,9.161 68.169,8.073 z"
   id="path84"
   style="fill:url(#XMLID_37_)" />
	<path
   fill="none"
   stroke="#c7982f"
   stroke-width="1.6742"
   d="m 161.764,1066.424 c 1.182,-0.054 2.365,-0.097 3.553,-0.127 31.113,-0.756 108.634,-20.964 104.437,-64.359 -1.887,-19.5 -13.647,-42.175 -20.416,-61.002 -9.876,-27.468 -22.741,-52.514 -27.564,-81.724 -3.085,-18.688 -4.895,-35.047 -12.012,-53.258 -16.707,-42.748 -63.409,-54.018 -103.927,-39.904 -41.887,14.594 -89.383,52.071 -74.04,101.824 7.877,25.543 23.286,47.872 29.337,74.83 4.514,20.104 4.528,37.56 5.862,58.192 1.439,22.221 9.976,44.911 29.084,57.747 20.826,13.986 42.669,8.827 65.686,7.781 z"
   id="path85" />
	
		<radialGradient
   id="XMLID_38_"
   cx="108.9697"
   cy="1565.6255"
   r="95.6091"
   gradientTransform="matrix(0.9354,-0.3537,0.3537,0.9354,-471.2761,-454.9753)"
   gradientUnits="userSpaceOnUse">
		<stop
   offset="0.0056"
   style="stop-color:#EF4623"
   id="stop85" />
		<stop
   offset="0.9775"
   style="stop-color:#F89843"
   id="stop86" />
	</radialGradient>
	<path
   fill="url(#XMLID_38_)"
   d="m 128.316,939.634 c 3.182,14.316 10.015,28.162 20.7,36.489 10.633,8.283 36.624,15.898 40.103,-2.934 2.077,-11.246 -10.195,-32.407 -12.039,-43.83 -1.627,-10.084 -5.133,-29.299 -13.325,-36.181 -16.295,-13.693 -35.988,5.688 -37.29,21.562 -0.637,7.761 -0.034,16.41 1.851,24.894 z"
   id="path86"
   style="fill:url(#XMLID_38_)" />
	<path
   fill="#e88f52"
   d="m 75.017,843.874 c -0.605,3.727 0.436,7.217 2.601,9.92 2.015,-0.309 3.933,-1.102 5.67,-2.144 0.388,-1.438 0.746,-5.463 0.55,-6.926 -2.455,-2.521 -4.554,-2.198 -7.602,-1.311"
   id="path87" />
	<circle
   fill="#e88f52"
   cx="180.97701"
   cy="853.27197"
   r="4.5609999"
   id="circle87" />
	
		<ellipse
   transform="matrix(0.9354,-0.3536,0.3536,0.9354,-353.5696,106.1923)"
   fill="#e88f52"
   cx="113.802"
   cy="1020.613"
   rx="2.77"
   ry="3.4200001"
   id="ellipse87" />
	
		<ellipse
   transform="matrix(0.9354,-0.3536,0.3536,0.9354,-342.5106,143.6258)"
   fill="#e88f52"
   cx="221.823"
   cy="1009.203"
   rx="4.5609999"
   ry="5.8639998"
   id="ellipse88" />
	
		<ellipse
   transform="matrix(0.9354,-0.3535,0.3535,0.9354,-316.7748,90.3972)"
   fill="#e88f52"
   cx="89.083"
   cy="912.40002"
   rx="4.5609999"
   ry="3.9089999"
   id="ellipse89" />
	
		<radialGradient
   id="XMLID_39_"
   cx="59.660198"
   cy="1415.7729"
   r="160.37061"
   gradientTransform="matrix(0.9354,-0.3537,0.3537,0.9354,-471.2761,-454.9753)"
   gradientUnits="userSpaceOnUse">
		<stop
   offset="0"
   style="stop-color:#FFFFFF"
   id="stop89" />
		<stop
   offset="0.9775"
   style="stop-color:#F89843"
   id="stop90" />
	</radialGradient>
	<path
   opacity="0.55"
   fill="url(#XMLID_39_)"
   d="m 159.767,1071.504 c 1.226,-0.056 2.454,-0.101 3.686,-0.13 32.291,-0.787 112.743,-21.759 108.386,-66.795 -1.957,-20.237 -14.162,-43.77 -21.187,-63.309 -10.249,-28.508 -23.601,-54.5 -28.606,-84.815 -3.203,-19.394 -5.08,-36.372 -12.466,-55.27 -17.339,-44.364 -65.807,-56.062 -107.857,-41.412 -43.472,15.144 -92.763,54.04 -76.839,105.675 8.174,26.507 24.164,49.681 30.446,77.658 4.685,20.865 4.7,38.979 6.084,60.395 1.493,23.06 10.353,46.608 30.184,59.928 21.612,14.514 44.28,9.161 68.169,8.075 z"
   id="path90"
   style="fill:url(#XMLID_39_)" />
</g>



<linearGradient
   id="XMLID_40_"
   gradientUnits="userSpaceOnUse"
   x1="1204.8564"
   y1="631.06488"
   x2="1354.7477"
   y2="346.61951">
	<stop
   offset="0.0056"
   style="stop-color:#466EB5"
   id="stop106" />
	<stop
   offset="0.4944"
   style="stop-color:#C7E9F2"
   id="stop107" />
	<stop
   offset="1"
   style="stop-color:#FFFFFF"
   id="stop108" />
</linearGradient>





<text
   xml:space="preserve"
   style="font-size:13.3333px;line-height:1.25;font-family:'DejaVu Sans';-inkscape-font-specification:'DejaVu Sans';text-align:center;text-decoration:none;text-decoration-line:none;text-decoration-color:#000000;letter-spacing:0px;word-spacing:0px;text-anchor:middle;fill:#000000;stroke:#000000;stroke-width:0;stroke-linecap:butt;stroke-linejoin:miter;stroke-opacity:1;stop-color:#000000"
   x="148.15945"
   y="-157.73788"
   id="text237"><tspan
     sodipodi:role="line"
     id="tspan237"
     x="148.15945"
     y="-157.73788">https://openclipart.org/detail/340489/organization-levels-of-a-mouse</tspan></text></svg>
