<?xml version="1.0" encoding="UTF-8" standalone="no"?>
<!-- Generator: Adobe Illustrator 16.0.0, SVG Export Plug-In . SVG Version: 6.00 Build 0)  -->

<svg
   version="1.1"
   x="0px"
   y="0px"
   width="250.64067"
   height="213.65277"
   viewBox="0 0 250.64066 213.65278"
   enable-background="new 0 0 595.28 283.46"
   xml:space="preserve"
   id="svg187"
   sodipodi:docname="biology.svg"
   inkscape:version="1.3.2 (091e20ef0f, 2023-11-25, custom)"
   xmlns:inkscape="http://www.inkscape.org/namespaces/inkscape"
   xmlns:sodipodi="http://sodipodi.sourceforge.net/DTD/sodipodi-0.dtd"
   xmlns="http://www.w3.org/2000/svg"
   xmlns:svg="http://www.w3.org/2000/svg"><defs
   id="defs187" /><sodipodi:namedview
   id="namedview187"
   pagecolor="#ffffff"
   bordercolor="#000000"
   borderopacity="0.25"
   inkscape:showpageshadow="2"
   inkscape:pageopacity="0.0"
   inkscape:pagecheckerboard="0"
   inkscape:deskcolor="#d1d1d1"
   inkscape:zoom="1.6344895"
   inkscape:cx="145.61121"
   inkscape:cy="172.22503"
   inkscape:window-width="1920"
   inkscape:window-height="1031"
   inkscape:window-x="0"
   inkscape:window-y="26"
   inkscape:window-maximized="1"
   inkscape:current-layer="svg187" />
<g
   id="Ebene_1"
   transform="translate(-184.47046,-22.042307)">
	<g
   id="g3">
		<g
   id="g2">
			<path
   fill="#bfd88a"
   d="m 428.373,41.576 c 16.764,24.188 -1.842,58.908 -14.957,80.354 -19.255,31.486 -45.166,60.89 -73.785,83.3 -39.581,30.994 -81.501,40.971 -122.336,4.725 -47.114,-41.819 -29.91,-92.237 12.582,-128.432 29.912,-25.479 69.019,-43.729 107.898,-53.018 26.727,-6.386 71.978,-13.794 90.598,13.071 z"
   id="path1" />
			<path
   fill="#2c4a20"
   d="m 428.695,41.378 c 0,0 0.346,0.559 1.009,1.649 0.331,0.545 0.742,1.224 1.225,2.031 0.392,0.868 0.842,1.875 1.344,3.02 1.867,4.625 3.642,12.049 2.453,22.597 -0.085,1.302 -0.354,2.676 -0.591,4.08 -0.23,1.402 -0.477,2.844 -0.871,4.34 -0.619,2.972 -1.545,6.117 -2.571,9.401 -2.12,6.574 -5.187,13.721 -9.001,21.199 -8.632,16.741 -19.422,31.963 -30.916,46.828 -12.695,15.291 -26.109,29.41 -40.859,42.732 -3.579,3.071 -7.127,6.011 -10.724,8.811 -3.514,2.703 -7.135,5.356 -10.699,7.746 -7.124,4.813 -14.188,8.915 -21.212,12.105 -7.036,3.139 -14.014,5.423 -21.046,6.685 -0.882,0.143 -1.763,0.283 -2.641,0.423 -0.879,0.135 -1.771,0.191 -2.652,0.297 -1.757,0.243 -3.555,0.261 -5.327,0.365 -3.579,0.058 -7.199,-0.199 -10.878,-0.688 -3.69,-0.551 -7.454,-1.448 -11.312,-2.68 -3.855,-1.204 -7.821,-2.841 -11.878,-4.885 -4.056,-2.016 -8.215,-4.44 -12.396,-7.267 -4.18,-2.821 -8.376,-6.046 -12.424,-9.556 -1.175,-1.071 -1.767,-1.602 -2.962,-2.66 -0.978,-0.902 -1.956,-1.88 -2.947,-2.812 -1.916,-1.906 -3.783,-3.82 -5.538,-5.811 -3.529,-3.959 -6.703,-8.068 -9.413,-12.221 -5.431,-8.332 -8.771,-16.771 -10.423,-25.07 -0.762,-4.153 -1.05,-8.278 -0.958,-12.378 0.193,-4.08 0.678,-8.152 1.663,-12.168 1.895,-8.048 5.444,-15.923 10.193,-23.62 5.133,-8.117 11.341,-15.521 18.168,-22.263 3.57,-3.58 7.433,-7.064 11.485,-10.47 0.623,-0.522 0.933,-0.783 1.56,-1.307 0.62,-0.491 0.933,-0.737 1.557,-1.23 1.039,-0.82 2.082,-1.642 3.126,-2.462 2.08,-1.642 4.379,-3.26 6.576,-4.889 18.512,-13.267 38.596,-23.407 59.584,-32.097 19.767,-7.224 39.317,-12.618 60.127,-15.816 9.078,-1.125 17.474,-1.525 24.87,-1.168 3.683,0.209 7.173,0.481 10.358,0.987 1.637,0.177 3.156,0.478 4.63,0.779 1.477,0.295 2.934,0.551 4.246,0.954 10.831,2.798 17.29,7.263 21.009,10.7 0.904,0.886 1.696,1.672 2.375,2.354 0.592,0.745 1.086,1.375 1.482,1.882 0.791,1.015 1.194,1.54 1.194,1.54 10e-4,0.007 0.003,0.01 0.005,0.013 z m -0.639,0.405 c 0,0 -0.405,-0.517 -1.206,-1.51 -0.4,-0.497 -0.901,-1.113 -1.498,-1.842 -0.685,-0.666 -1.48,-1.435 -2.392,-2.3 -1.861,-1.696 -4.432,-3.58 -7.833,-5.444 -3.493,-1.763 -7.786,-3.565 -13.246,-4.748 -14.59,-3.257 -29.029,-1.9 -43.702,-0.154 -20.083,3.167 -39.083,9.637 -57.922,17.091 -20.03,8.447 -39.307,18.9 -56.909,31.687 -2.099,1.584 -4.215,3.086 -6.273,4.738 -1.03,0.822 -2.058,1.646 -3.082,2.468 -0.615,0.494 -0.922,0.74 -1.533,1.233 -0.571,0.487 -0.856,0.73 -1.423,1.216 -3.916,3.305 -7.684,6.667 -11.155,10.137 -6.658,6.558 -12.71,13.747 -17.879,21.538 -4.781,7.432 -8.426,15.053 -10.485,22.847 -1.067,3.889 -1.651,7.833 -1.963,11.783 -0.223,3.967 -0.034,7.959 0.495,11.964 1.23,8.004 4.071,16.134 8.917,24.118 5.111,8.466 11.594,16.055 18.908,22.692 7.191,6.506 15.151,12.176 23.743,16.681 7.954,4.126 15.582,6.485 22.898,7.61 3.662,0.52 7.248,0.674 10.801,0.581 3.537,-0.175 7.052,-0.547 10.522,-1.318 6.967,-1.425 13.806,-4.13 20.698,-7.564 6.876,-3.511 13.775,-7.891 20.7,-12.935 3.475,-2.508 6.869,-5.193 10.406,-8.065 3.45,-2.787 6.938,-5.775 10.396,-8.846 14.236,-13.039 27.402,-26.781 39.995,-41.41 6.073,-7.292 11.915,-14.783 17.385,-22.54 5.308,-7.543 10.05,-15.05 14.027,-22.293 6.234,-12.272 12.131,-24.489 14.131,-38.263 0.799,-5.24 0.654,-9.706 0.254,-13.46 -0.529,-3.71 -1.366,-6.709 -2.286,-9.002 -0.483,-1.134 -0.919,-2.134 -1.297,-2.994 -0.474,-0.813 -0.877,-1.495 -1.204,-2.043 -0.65,-1.096 -0.994,-1.656 -0.994,-1.656 10e-4,-10e-4 0.004,0 0.006,0.003 z"
   id="path2" />
		</g>
	</g>
	<g
   id="g5">
		<path
   fill="#ffffff"
   d="m 415.405,89.557 c 1.325,1.911 0.211,7.997 -0.701,11.376 -1.04,3.863 -2.695,7.732 -4.346,11.257 -4.066,8.916 -9.995,16.294 -15.625,17.366 -1.398,0.314 -2.796,0.628 -2.255,-2.679 0.324,-2.502 1.731,-3.504 3.015,-4.366 2.61,-1.886 4.884,-3.172 7.388,-6.294 4.26,-5.412 7.118,-13.1 9.119,-20.846 0.434,-1.609 1.879,-7.952 3.161,-5.88"
   id="path3" />
		<g
   id="g4">
			<path
   fill="#b42218"
   d="m 414.326,90.188 c 1.412,2.987 -0.066,7.424 -0.827,10.413 -1.108,4.354 -3.042,8.47 -4.956,12.515 -1.77,3.739 -4.058,7.235 -6.772,10.351 -1.342,1.541 -2.934,2.816 -4.672,3.88 -4.078,2.497 -3.468,-2.003 -0.975,-3.756 5.751,-4.043 9.548,-8.361 12.584,-14.78 1.487,-3.145 2.577,-6.475 3.586,-9.797 0.305,-1.005 2.868,-7.767 1.983,-8.638 1.149,1.131 2.918,-0.635 1.768,-1.768 -4.072,-4.008 -7.733,14.572 -8.338,16.184 -2.671,7.122 -6.672,12.27 -12.845,16.641 -2.24,1.586 -5.182,5.32 -3.43,8.31 1.214,2.072 4.226,1.108 5.928,0.261 4.82,-2.399 8.111,-6.746 10.926,-11.206 3.357,-5.321 5.869,-11.504 7.623,-17.532 1.07,-3.676 2.29,-8.713 0.575,-12.339 -0.688,-1.458 -2.843,-0.188 -2.158,1.261 z"
   id="path4" />
		</g>
	</g>
	<g
   id="g7">
		<path
   fill="#ffffff"
   d="m 408.106,92.596 c 0.021,9.671 -4.657,15.661 -9.845,19.959 -1.243,1.045 -7.928,4.078 -5.056,-1.707 0.842,-1.5 2.278,-1.63 3.312,-2.215 1.322,-0.68 2.234,-1.469 3.446,-3.042 1.673,-2.311 3.026,-5.053 4.1,-8.389 0.861,-2.875 1.838,-5.201 3.635,-4.717"
   id="path5" />
		<g
   id="g6">
			<path
   fill="#b42218"
   d="m 406.856,92.596 c -0.157,7.47 -3.957,17.254 -11.617,20.128 -3.259,1.223 0.611,-2.418 1.909,-3.012 1.537,-0.702 2.956,-2.122 3.895,-3.49 1.238,-1.806 2.235,-3.664 3.11,-5.671 0.591,-1.355 1.556,-6.931 3.545,-6.815 1.611,0.094 1.603,-2.407 0,-2.5 -2.112,-0.123 -3.091,1.281 -3.931,3.059 -2.104,4.453 -2.775,9.503 -6.955,12.718 -2.466,1.897 -4.451,1.886 -5.453,5.196 -0.352,1.162 0.091,2.788 1.386,3.149 3.566,0.996 7.04,-2.325 9.28,-4.574 4.898,-4.916 7.187,-11.334 7.331,-18.189 0.035,-1.612 -2.465,-1.609 -2.5,0.001 z"
   id="path6" />
		</g>
	</g>
	<g
   id="g9">
		<g
   id="g8">
			<path
   fill="#b42218"
   d="m 402.949,86.45 c -1.254,1.12 -1.918,2.743 -1.321,4.383 0.188,0.518 0.618,0.932 1.205,0.917 1.83,-0.045 5.219,-0.67 5.749,-2.757 0.696,-2.739 -3.488,-4.8 -5.299,-2.709 -1.05,1.212 0.711,2.988 1.768,1.768 0.238,-0.275 0.574,-0.125 0.845,0.097 0.1,0.081 0.243,0.214 0.249,0.341 -0.012,-0.272 0.181,-0.259 -0.131,-0.073 -0.887,0.528 -2.281,0.812 -3.181,0.834 0.401,0.306 0.804,0.612 1.205,0.917 -0.308,-0.845 0.04,-1.379 0.679,-1.95 1.204,-1.077 -0.57,-2.839 -1.768,-1.768 z"
   id="path7" />
		</g>
	</g>
	<g
   id="g11">
		<path
   fill="#ffffff"
   d="m 391.5,116.833 c -2.833,0.333 -5.5,3.167 -1.5,4.5 2.833,0.833 5.5,-2.833 2.5,-4.5"
   id="path9" />
		<g
   id="g10">
			<path
   fill="#b42218"
   d="m 391.168,115.628 c -1.599,0.223 -3.442,1.123 -4.16,2.653 -0.998,2.127 0.835,3.607 2.66,4.258 1.821,0.65 3.831,-0.388 4.849,-1.887 1.205,-1.776 0.307,-3.882 -1.386,-4.897 -1.386,-0.832 -2.643,1.331 -1.262,2.158 0.588,0.353 0.957,0.891 0.47,1.521 -0.581,0.75 -1.429,0.901 -2.287,0.595 -0.194,-0.069 -0.75,-0.343 -0.809,-0.482 -0.096,-0.231 -0.065,0.073 -10e-4,-0.165 -0.02,0.07 0.153,-0.229 0.167,-0.245 0.598,-0.689 1.552,-0.976 2.423,-1.097 0.677,-0.094 1.036,-0.946 0.873,-1.538 -0.198,-0.721 -0.863,-0.968 -1.537,-0.874 z"
   id="path10" />
		</g>
	</g>
	<g
   id="g13">
		<path
   fill="#ffffff"
   d="m 399.833,95.5 c 2.834,5.167 -8.166,13.334 -10.333,6.833 1.667,-0.5 4.333,-0.667 5.5,-2 1.667,-1.833 0.5,-4.167 3.5,-5"
   id="path11" />
		<g
   id="g12">
			<path
   fill="#b42218"
   d="m 398.754,96.131 c 1.87,3.816 -6.385,10.285 -8.049,5.87 -0.291,0.513 -0.582,1.025 -0.873,1.538 1.838,-0.498 4.241,-0.602 5.698,-1.986 1.457,-1.384 1.407,-4.36 3.302,-5.014 1.515,-0.523 0.863,-2.938 -0.664,-2.411 -1.771,0.612 -2.715,1.608 -3.24,3.398 -0.367,1.249 -0.703,2.146 -2.008,2.666 -1.19,0.475 -2.52,0.603 -3.752,0.936 -0.612,0.166 -1.113,0.901 -0.873,1.538 3.116,8.268 16.003,-0.889 12.617,-7.797 -0.709,-1.448 -2.865,-0.18 -2.158,1.262 z"
   id="path12" />
		</g>
	</g>
</g>
<g
   id="Ebene_2"
   transform="translate(-184.47046,-22.042307)">
	<g
   id="g15">
		<g
   id="g14">
			<path
   fill="#c87f11"
   d="m 406.78,50.994 c -1.311,4.219 -12.896,6.026 -22.342,5.454 -9.446,-0.572 -21.213,-2.341 -21.968,-5.194 -1.578,-5.964 14.194,-11.868 22.281,-12.304 8.481,-0.457 24.397,4.419 22.029,12.044 z"
   id="path13" />
			<path
   fill="#c95d16"
   d="m 407.174,51.132 c 0,0 -0.215,0.047 -0.35,0.224 -0.15,0.172 -0.371,0.431 -0.7,0.748 -0.641,0.672 -1.777,1.467 -3.22,2.213 -1.445,0.733 -3.205,1.363 -5.06,1.884 -1.854,0.51 -3.828,0.928 -5.83,1.156 -2.002,0.238 -4.036,0.241 -6.161,0.097 -0.535,-0.06 -1.057,-0.092 -1.627,-0.153 -0.536,-0.083 -1.081,-0.159 -1.635,-0.227 -1.14,-0.176 -2.307,-0.359 -3.521,-0.572 -2.431,-0.462 -5.061,-0.902 -8.006,-1.454 -1.471,-0.281 -3.032,-0.615 -4.664,-1.104 -1.605,-0.47 -3.464,-1.194 -4.55,-2.486 -0.234,-0.414 -0.42,-0.566 -0.544,-0.969 -0.107,-0.373 -0.234,-0.774 -0.176,-1.118 0.013,-0.216 0.018,-0.324 0.033,-0.541 0.036,-0.177 0.104,-0.348 0.158,-0.524 0.071,-0.209 0.109,-0.315 0.185,-0.526 0.111,-0.199 0.167,-0.297 0.283,-0.497 0.816,-1.319 2.091,-2.508 3.568,-3.542 2.989,-2.056 6.716,-3.552 10.503,-4.565 3.794,-0.993 7.748,-1.438 11.349,-1.381 3.674,0.042 7.074,0.539 9.918,1.435 2.853,0.886 5.146,2.116 6.845,3.418 1.692,1.31 2.778,2.708 3.285,4.001 0.491,1.296 0.428,2.443 0.175,3.217 -0.102,0.385 -0.164,0.716 -0.244,0.912 -0.099,0.195 -0.007,0.341 -0.007,0.341 -0.002,0.006 -0.004,0.008 -0.007,0.013 z m 0.008,-0.012 c 0,0 -0.213,-0.177 -0.126,-0.363 0.069,-0.188 0.126,-0.497 0.207,-0.862 0.211,-0.728 0.18,-1.845 -0.438,-3.019 -0.583,-1.187 -1.899,-2.396 -3.724,-3.414 -1.819,-1.031 -4.218,-1.873 -6.953,-2.468 -2.744,-0.583 -5.853,-0.971 -9.15,-0.976 -3.364,0.013 -6.868,0.356 -10.35,1.153 -3.463,0.792 -6.883,2.058 -9.647,3.769 -1.388,0.846 -2.574,1.831 -3.362,2.889 -0.122,0.159 -0.186,0.237 -0.305,0.396 -0.084,0.163 -0.124,0.246 -0.205,0.409 -0.064,0.136 -0.146,0.272 -0.196,0.409 -0.038,0.165 -0.054,0.247 -0.089,0.411 -0.102,0.291 -0.034,0.517 -0.04,0.77 -0.024,0.224 0.249,0.648 0.288,0.834 0.633,1.006 2.069,1.755 3.536,2.283 1.483,0.518 3.004,0.89 4.447,1.163 2.896,0.549 5.512,0.81 7.945,0.927 1.222,0.061 2.396,0.096 3.528,0.121 0.582,-0.004 1.159,0 1.728,0.013 0.532,0.013 1.104,0.004 1.645,0.019 2.183,0.036 4.267,0.026 6.257,0.014 1.992,-0.022 3.897,-0.091 5.696,-0.349 1.793,-0.242 3.498,-0.655 4.901,-1.291 1.412,-0.608 2.48,-1.394 3.063,-1.99 0.313,-0.291 0.734,-0.509 0.885,-0.673 0.139,-0.175 0.466,-0.185 0.466,-0.185 -0.002,0.003 -0.004,0.005 -0.007,0.01 z"
   id="path14" />
		</g>
	</g>
	<g
   id="g17">
		<g
   id="g16">
			<path
   fill="#c87f11"
   d="m 208.042,157.003 c 4.373,-0.62 10.964,9.08 14.486,17.865 3.522,8.785 6.955,20.179 4.7,22.079 -4.714,3.975 -16.798,-7.752 -20.653,-14.877 -4.043,-7.471 -6.435,-23.945 1.467,-25.067 z"
   id="path15" />
			<path
   fill="#c95d16"
   d="m 207.999,156.589 c 0,0 0.133,0.176 0.351,0.223 0.22,0.063 0.549,0.149 0.977,0.312 0.882,0.292 2.085,0.979 3.377,1.963 1.281,0.993 2.604,2.314 3.868,3.768 1.253,1.458 2.474,3.063 3.535,4.775 1.07,1.708 1.946,3.548 2.725,5.53 0.175,0.51 0.368,0.993 0.558,1.535 0.154,0.52 0.319,1.045 0.495,1.574 0.328,1.104 0.661,2.24 0.988,3.43 0.622,2.395 1.351,4.958 2.111,7.856 0.375,1.449 0.741,3.004 0.996,4.688 0.262,1.652 0.4,3.643 -0.304,5.177 -0.273,0.389 -0.33,0.621 -0.642,0.905 -0.291,0.257 -0.599,0.547 -0.935,0.641 -0.2,0.081 -0.303,0.12 -0.506,0.198 -0.176,0.043 -0.357,0.053 -0.539,0.078 -0.22,0.025 -0.332,0.039 -0.555,0.061 -0.228,-0.016 -0.341,-0.023 -0.57,-0.043 -1.541,-0.174 -3.161,-0.815 -4.729,-1.709 -3.136,-1.823 -6.083,-4.556 -8.619,-7.546 -2.52,-3.004 -4.612,-6.386 -6.101,-9.664 -1.534,-3.338 -2.539,-6.627 -2.945,-9.58 -0.419,-2.956 -0.289,-5.557 0.163,-7.648 0.46,-2.09 1.261,-3.672 2.212,-4.682 0.962,-0.999 2.026,-1.43 2.833,-1.532 0.392,-0.073 0.718,-0.161 0.929,-0.172 0.218,0.005 0.309,-0.14 0.309,-0.14 0.009,0 0.012,0.002 0.018,0.002 z m -0.015,-0.002 c 0,0 -0.067,0.27 -0.273,0.271 -0.199,0.018 -0.504,0.098 -0.869,0.181 -0.749,0.121 -1.743,0.628 -2.54,1.688 -0.823,1.035 -1.356,2.739 -1.496,4.823 -0.154,2.086 0.113,4.617 0.745,7.345 0.646,2.73 1.623,5.705 3.029,8.688 1.45,3.035 3.26,6.058 5.469,8.864 2.197,2.791 4.803,5.339 7.533,7.106 1.358,0.893 2.759,1.545 4.053,1.805 0.195,0.042 0.291,0.062 0.484,0.102 0.184,0.006 0.274,0.009 0.456,0.013 0.15,0 0.31,0.017 0.455,0.004 0.165,-0.036 0.245,-0.057 0.408,-0.095 0.306,-0.033 0.482,-0.189 0.713,-0.292 0.213,-0.073 0.479,-0.506 0.63,-0.62 0.639,-1.003 0.702,-2.62 0.552,-4.172 -0.166,-1.563 -0.479,-3.095 -0.85,-4.516 -0.742,-2.854 -1.625,-5.329 -2.561,-7.578 -0.468,-1.13 -0.938,-2.21 -1.4,-3.245 -0.252,-0.523 -0.493,-1.045 -0.725,-1.564 -0.216,-0.487 -0.471,-0.999 -0.688,-1.493 -0.9,-1.989 -1.801,-3.871 -2.662,-5.665 -0.871,-1.791 -1.749,-3.483 -2.751,-5 -0.986,-1.518 -2.089,-2.881 -3.265,-3.877 -1.154,-1.017 -2.32,-1.645 -3.108,-1.917 -0.396,-0.158 -0.774,-0.447 -0.987,-0.513 -0.218,-0.05 -0.367,-0.342 -0.367,-0.342 0.008,-0.001 0.01,-0.002 0.015,-0.001 z"
   id="path16" />
		</g>
	</g>
	<g
   id="g19">
		<g
   id="g18">
			<path
   fill="#c87f11"
   d="m 380.456,144.831 c 1.907,3.983 -5.368,13.186 -12.685,19.188 -7.317,6.002 -17.148,12.702 -19.641,11.123 -5.211,-3.302 2.349,-18.353 7.98,-24.172 5.909,-6.103 20.9,-13.336 24.346,-6.139 z"
   id="path17" />
			<path
   fill="#c95d16"
   d="m 380.837,144.666 c 0,0 -0.127,0.18 -0.105,0.401 0.007,0.229 0.023,0.568 -0.002,1.025 -0.013,0.929 -0.309,2.284 -0.859,3.812 -0.562,1.52 -1.423,3.179 -2.429,4.821 -1.013,1.634 -2.178,3.279 -3.491,4.808 -1.307,1.535 -2.799,2.923 -4.455,4.262 -0.433,0.32 -0.837,0.65 -1.296,0.993 -0.449,0.303 -0.901,0.621 -1.354,0.948 -0.955,0.646 -1.938,1.3 -2.974,1.97 -2.097,1.313 -4.322,2.779 -6.858,4.376 -1.27,0.793 -2.642,1.609 -4.171,2.359 -1.497,0.746 -3.354,1.481 -5.029,1.271 -0.453,-0.145 -0.691,-0.132 -1.057,-0.344 -0.332,-0.201 -0.699,-0.406 -0.89,-0.698 -0.138,-0.167 -0.207,-0.249 -0.343,-0.419 -0.094,-0.154 -0.16,-0.324 -0.239,-0.49 -0.09,-0.202 -0.136,-0.307 -0.224,-0.513 -0.053,-0.222 -0.078,-0.334 -0.129,-0.559 -0.298,-1.522 -0.174,-3.26 0.207,-5.022 0.795,-3.539 2.517,-7.171 4.605,-10.488 2.107,-3.308 4.702,-6.319 7.381,-8.726 2.723,-2.467 5.556,-4.414 8.25,-5.69 2.694,-1.289 5.216,-1.946 7.347,-2.144 2.132,-0.189 3.878,0.096 5.128,0.7 1.241,0.617 1.974,1.504 2.314,2.244 0.188,0.352 0.367,0.635 0.441,0.833 0.061,0.21 0.228,0.254 0.228,0.254 0.002,0.007 0.003,0.01 0.004,0.016 z m -0.003,-0.015 c 0,0 -0.275,0.017 -0.338,-0.18 -0.077,-0.184 -0.245,-0.452 -0.434,-0.774 -0.34,-0.678 -1.124,-1.475 -2.375,-1.916 -1.234,-0.474 -3.021,-0.467 -5.05,0.026 -2.035,0.481 -4.369,1.496 -6.78,2.918 -2.41,1.438 -4.951,3.263 -7.373,5.501 -2.459,2.296 -4.799,4.933 -6.811,7.884 -2.002,2.935 -3.647,6.186 -4.513,9.32 -0.443,1.563 -0.643,3.093 -0.501,4.405 0.019,0.199 0.026,0.298 0.047,0.495 0.049,0.177 0.075,0.265 0.126,0.439 0.045,0.144 0.077,0.299 0.133,0.434 0.084,0.146 0.129,0.218 0.215,0.362 0.123,0.282 0.325,0.401 0.493,0.591 0.134,0.182 0.624,0.307 0.778,0.417 1.148,0.308 2.711,-0.121 4.146,-0.73 1.44,-0.628 2.807,-1.389 4.051,-2.17 2.498,-1.566 4.597,-3.15 6.46,-4.719 0.937,-0.786 1.826,-1.56 2.674,-2.312 0.424,-0.398 0.847,-0.787 1.272,-1.165 0.399,-0.353 0.814,-0.747 1.22,-1.104 1.626,-1.457 3.145,-2.881 4.596,-4.242 1.446,-1.37 2.798,-2.715 3.942,-4.127 1.15,-1.396 2.12,-2.859 2.717,-4.279 0.622,-1.406 0.872,-2.708 0.895,-3.541 0.032,-0.426 0.194,-0.872 0.192,-1.095 -0.018,-0.223 0.216,-0.454 0.216,-0.454 0.001,0.008 0.001,0.011 0.002,0.016 z"
   id="path18" />
		</g>
	</g>
	<g
   id="g21">
		<g
   id="g20">
			<path
   fill="#c87f11"
   d="m 311.313,90.129 c -2.938,3.299 -14.234,0.153 -22.598,-4.276 -8.364,-4.429 -18.344,-10.909 -17.851,-13.817 1.031,-6.08 17.831,-4.933 25.375,-1.986 7.911,3.09 20.382,14.117 15.074,20.079 z"
   id="path19" />
			<path
   fill="#c95d16"
   d="m 311.613,90.418 c 0,0 -0.216,-0.048 -0.412,0.057 -0.208,0.094 -0.515,0.241 -0.945,0.394 -0.861,0.347 -2.224,0.6 -3.846,0.683 -1.619,0.069 -3.482,-0.084 -5.387,-0.377 -1.898,-0.303 -3.869,-0.739 -5.786,-1.36 -1.922,-0.611 -3.774,-1.453 -5.649,-2.462 -0.463,-0.275 -0.924,-0.521 -1.418,-0.812 -0.453,-0.297 -0.92,-0.591 -1.396,-0.881 -0.965,-0.632 -1.949,-1.282 -2.967,-1.978 -2.022,-1.426 -4.235,-2.915 -6.688,-4.635 -1.222,-0.864 -2.507,-1.813 -3.79,-2.934 -1.267,-1.092 -2.659,-2.521 -3.113,-4.146 -0.042,-0.473 -0.148,-0.688 -0.094,-1.105 0.057,-0.384 0.105,-0.805 0.301,-1.093 0.101,-0.191 0.152,-0.287 0.257,-0.478 0.106,-0.146 0.237,-0.273 0.359,-0.411 0.152,-0.162 0.229,-0.243 0.384,-0.404 0.184,-0.135 0.277,-0.202 0.465,-0.335 1.289,-0.863 2.938,-1.42 4.712,-1.75 3.571,-0.634 7.586,-0.455 11.453,0.189 3.864,0.666 7.647,1.896 10.902,3.438 3.328,1.558 6.218,3.418 8.436,5.41 2.229,1.986 3.808,4.056 4.814,5.944 0.998,1.892 1.412,3.615 1.338,5.001 -0.09,1.384 -0.622,2.401 -1.172,3.001 -0.252,0.309 -0.442,0.584 -0.597,0.729 -0.17,0.137 -0.149,0.308 -0.149,0.308 -0.005,0.003 -0.007,0.004 -0.012,0.007 z m 0.012,-0.008 c 0,0 -0.119,-0.25 0.037,-0.383 0.141,-0.142 0.32,-0.4 0.545,-0.699 0.493,-0.575 0.927,-1.604 0.851,-2.928 -0.04,-1.321 -0.737,-2.968 -1.977,-4.649 -1.23,-1.691 -3.07,-3.452 -5.314,-5.125 -2.257,-1.667 -4.922,-3.305 -7.923,-4.674 -3.068,-1.38 -6.403,-2.517 -9.902,-3.231 -3.479,-0.711 -7.113,-0.973 -10.339,-0.559 -1.614,0.196 -3.103,0.602 -4.259,1.239 -0.177,0.094 -0.265,0.142 -0.438,0.236 -0.144,0.114 -0.215,0.171 -0.356,0.285 -0.115,0.097 -0.244,0.188 -0.347,0.291 -0.103,0.134 -0.154,0.201 -0.254,0.336 -0.212,0.223 -0.243,0.456 -0.353,0.684 -0.115,0.194 -0.041,0.696 -0.083,0.881 0.16,1.178 1.16,2.453 2.276,3.54 1.136,1.085 2.364,2.052 3.565,2.897 2.41,1.699 4.685,3.021 6.851,4.134 1.087,0.56 2.143,1.078 3.164,1.57 0.531,0.237 1.053,0.478 1.565,0.725 0.479,0.232 1.004,0.461 1.49,0.697 1.973,0.936 3.874,1.789 5.691,2.601 1.822,0.804 3.586,1.53 5.33,2.04 1.733,0.521 3.456,0.85 4.997,0.852 1.537,0.031 2.835,-0.243 3.612,-0.544 0.405,-0.135 0.878,-0.16 1.083,-0.247 0.198,-0.102 0.5,0.024 0.5,0.024 -0.004,0.003 -0.007,0.004 -0.012,0.007 z"
   id="path20" />
		</g>
	</g>
	<g
   id="g23">
		<g
   id="g22">
			<path
   fill="#356b34"
   d="m 326.329,69.46 c -4.638,-1.442 -3.804,-7.25 -0.962,-14.19 2.843,-6.942 4.534,-12.906 6.762,-12.411 2.228,0.496 6.359,7.349 5.965,15.25 -0.395,7.9 -7.125,12.794 -11.765,11.351 z"
   id="path21" />
			<path
   fill="#1a3e1d"
   d="m 326.189,69.644 c 0,0 -0.052,-0.085 -0.215,-0.148 -0.157,-0.074 -0.399,-0.163 -0.688,-0.327 -0.618,-0.32 -1.31,-0.893 -1.887,-1.682 -1.097,-1.582 -1.573,-3.988 -1.013,-6.814 0.271,-1.412 0.863,-2.93 1.586,-4.526 0.201,-0.398 0.399,-0.808 0.59,-1.224 0.215,-0.395 0.423,-0.796 0.625,-1.207 0.45,-0.843 0.906,-1.689 1.349,-2.544 0.921,-1.698 1.741,-3.47 2.511,-5.189 0.387,-0.856 0.777,-1.694 1.219,-2.419 0.426,-0.721 0.967,-1.363 1.771,-1.263 0.264,0.095 0.329,0.064 0.576,0.204 0.223,0.13 0.469,0.272 0.66,0.459 0.208,0.172 0.411,0.363 0.602,0.583 0.202,0.207 0.393,0.431 0.571,0.669 0.73,0.941 1.381,1.984 1.928,3.042 1.092,2.123 1.869,4.294 2.36,6.388 0.475,2.089 0.608,4.137 0.385,5.951 -0.212,1.867 -0.739,3.554 -1.618,4.952 -0.867,1.403 -2.034,2.525 -3.268,3.373 -1.241,0.842 -2.566,1.402 -3.796,1.689 -1.235,0.274 -2.335,0.282 -3.07,0.178 -0.367,-0.04 -0.665,-0.087 -0.85,-0.123 -0.184,-0.045 -0.312,-0.017 -0.312,-0.017 -0.006,-0.002 -0.01,-0.003 -0.016,-0.005 z m 0.016,0.005 c 0,0 0.178,-0.121 0.351,-0.083 0.175,0.026 0.466,0.043 0.807,0.069 0.675,0.079 1.726,0.019 2.813,-0.344 1.101,-0.34 2.204,-1.054 3.124,-2.011 0.933,-0.953 1.688,-2.189 2.28,-3.585 0.58,-1.402 1.051,-2.968 1.271,-4.66 0.21,-1.744 0.221,-3.564 -0.033,-5.483 -0.25,-1.907 -0.789,-3.903 -1.586,-5.801 -0.396,-0.945 -0.864,-1.863 -1.377,-2.665 -0.126,-0.209 -0.254,-0.402 -0.391,-0.57 -0.133,-0.192 -0.272,-0.345 -0.412,-0.486 -0.147,-0.177 -0.258,-0.237 -0.382,-0.354 -0.101,-0.112 -0.383,-0.191 -0.46,-0.256 -0.562,-0.171 -1.082,0.167 -1.531,0.738 -0.442,0.587 -0.846,1.346 -1.214,2.165 -0.743,1.643 -1.403,3.46 -1.965,5.206 -0.29,0.874 -0.553,1.735 -0.813,2.554 -0.127,0.428 -0.259,0.847 -0.396,1.26 -0.123,0.4 -0.252,0.793 -0.384,1.179 -0.53,1.561 -1.01,3.012 -1.469,4.343 -0.435,1.333 -0.813,2.555 -0.945,3.655 -0.135,1.097 -0.028,2.084 0.403,2.852 0.394,0.777 1.068,1.318 1.586,1.602 0.252,0.156 0.438,0.371 0.585,0.445 0.16,0.066 0.153,0.237 0.153,0.237 -0.005,-0.004 -0.009,-0.005 -0.015,-0.007 z"
   id="path22" />
		</g>
	</g>
	<ellipse
   fill="#56af31"
   stroke="#1a3e1d"
   stroke-miterlimit="10"
   cx="332.21399"
   cy="53.466999"
   rx="3.27"
   ry="6.0549998"
   id="ellipse23" />
	<circle
   fill="#294899"
   stroke="#1a3e1d"
   stroke-miterlimit="10"
   cx="239.894"
   cy="108.726"
   r="7.8839998"
   id="circle23" />
	<circle
   fill="#294899"
   stroke="#1a3e1d"
   stroke-miterlimit="10"
   cx="363.89401"
   cy="71.725998"
   r="7.8839998"
   id="circle24" />
	<circle
   fill="#294899"
   stroke="#1a3e1d"
   stroke-miterlimit="10"
   cx="302.89401"
   cy="209.72701"
   r="7.8839998"
   id="circle25" />
	<g
   id="g26">
		<circle
   fill="#993415"
   cx="280.453"
   cy="155.09399"
   r="30.364"
   id="circle26" />
		<path
   fill="#996714"
   d="m 311,155.099 c 0,0 -0.074,0.744 -0.139,2.14 -0.025,0.349 -0.034,0.74 -0.095,1.167 -0.063,0.427 -0.141,0.894 -0.215,1.397 -0.085,0.501 -0.139,1.05 -0.253,1.622 -0.136,0.567 -0.281,1.171 -0.434,1.809 -0.689,2.514 -1.678,5.604 -3.659,8.727 -1.938,3.119 -4.677,6.396 -8.444,9.038 -3.757,2.626 -8.53,4.535 -13.773,5.123 -0.652,0.094 -1.32,0.07 -1.984,0.11 -0.68,0.005 -1.307,0.097 -2.041,0.028 -1.314,-0.108 -2.622,-0.13 -4.014,-0.43 -2.771,-0.398 -5.421,-1.331 -8.015,-2.498 -2.591,-1.19 -4.967,-2.86 -7.211,-4.701 -2.195,-1.916 -4.134,-4.144 -5.823,-6.579 -1.653,-2.465 -2.925,-5.194 -3.864,-8.048 -0.916,-2.882 -1.369,-5.852 -1.496,-8.939 -0.002,-2.935 0.327,-6.069 1.137,-8.991 0.887,-2.909 2.118,-5.709 3.748,-8.256 1.678,-2.509 3.659,-4.79 5.91,-6.726 2.292,-1.875 4.75,-3.521 7.398,-4.692 2.642,-1.151 5.381,-2.032 8.148,-2.37 1.37,-0.27 2.752,-0.267 4.109,-0.347 0.193,-0.005 0.287,-0.021 0.561,-0.016 l 0.49,0.028 0.975,0.056 c 0.654,0.053 1.277,0.04 1.944,0.146 5.356,0.666 10.055,2.603 13.828,5.252 3.762,2.662 6.497,5.943 8.432,9.068 1.98,3.126 2.968,6.218 3.653,8.734 0.152,0.638 0.296,1.241 0.431,1.81 0.113,0.571 0.16,1.119 0.244,1.62 0.073,0.503 0.141,0.969 0.203,1.396 0.06,0.427 0.089,0.82 0.112,1.17 0.061,1.4 0.135,2.147 0.135,2.147 v 0.005 z m 0,-0.005 c 0,0 -0.184,-0.741 -0.264,-2.131 -0.029,-0.347 -0.094,-0.737 -0.158,-1.16 -0.067,-0.422 -0.177,-0.883 -0.256,-1.381 -0.086,-0.497 -0.168,-1.036 -0.303,-1.598 -0.154,-0.557 -0.327,-1.147 -0.5,-1.772 -0.733,-2.475 -1.963,-5.42 -4.051,-8.339 -2.057,-2.924 -4.935,-5.838 -8.614,-8.164 -3.667,-2.291 -8.203,-4.021 -13.032,-4.572 -0.598,-0.094 -1.273,-0.074 -1.912,-0.117 l -0.976,-0.042 -0.491,-0.021 -0.422,0.025 c -1.265,0.084 -2.555,0.066 -3.831,0.321 -2.582,0.305 -5.125,1.137 -7.617,2.15 -2.492,1.05 -4.815,2.554 -7,4.274 -2.149,1.778 -4.03,3.905 -5.681,6.226 -1.608,2.356 -2.853,4.972 -3.781,7.714 -0.893,2.777 -1.335,5.59 -1.477,8.613 0.013,2.871 0.329,5.849 1.117,8.667 0.876,2.796 2.079,5.483 3.664,7.922 1.641,2.394 3.563,4.574 5.768,6.373 2.233,1.754 4.639,3.235 7.188,4.266 2.54,0.997 5.172,1.778 7.749,2.021 1.255,0.227 2.62,0.184 3.927,0.24 0.579,0.046 1.256,-0.059 1.873,-0.079 0.628,-0.056 1.258,-0.046 1.872,-0.152 4.942,-0.628 9.402,-2.386 13.086,-4.699 3.675,-2.346 6.548,-5.265 8.602,-8.193 2.086,-2.923 3.313,-5.869 4.044,-8.346 0.172,-0.625 0.335,-1.218 0.489,-1.774 0.135,-0.561 0.197,-1.099 0.282,-1.595 0.078,-0.498 0.151,-0.958 0.218,-1.38 0.064,-0.422 0.197,-0.815 0.227,-1.163 0.076,-1.395 0.26,-2.139 0.26,-2.139 z"
   id="path26" />
	</g>
	<circle
   fill="#4cc2f1"
   stroke="#26a3dd"
   stroke-width="0.25"
   stroke-miterlimit="10"
   cx="238.989"
   cy="112.489"
   r="3.763"
   id="circle27" />
	<circle
   fill="#4cc2f1"
   stroke="#000000"
   stroke-width="0.25"
   stroke-miterlimit="10"
   cx="369.168"
   cy="72.434998"
   r="3.1719999"
   id="circle28" />
	<circle
   fill="#4cc2f1"
   stroke="#000000"
   stroke-width="0.25"
   stroke-miterlimit="10"
   cx="305.082"
   cy="206.267"
   r="3.4579999"
   id="circle29" />
	<circle
   fill="#1a1c38"
   stroke="#996714"
   stroke-width="0.25"
   stroke-miterlimit="10"
   cx="275.30801"
   cy="159.547"
   r="8.9069996"
   id="circle30" />
	<circle
   fill="#8a7318"
   stroke="#996714"
   stroke-width="0.25"
   stroke-miterlimit="10"
   cx="274.46301"
   cy="157.088"
   r="3.99"
   id="circle31" />
	<g
   id="g32">
		<g
   id="g31">
			<path
   fill="#2f9537"
   d="m 254.128,182.804 c 5.094,1.734 9.972,4.021 15.081,5.709 4.307,1.424 8.845,1.981 13.266,2.935 1.871,0.404 3.724,0.881 5.55,1.454 2.598,0.813 2.468,0.37 0.158,0.888 -4.808,1.076 -9.583,-1.956 -14.494,-1.24 -1.543,0.225 -3.648,1.117 -2.613,2.985 1.056,1.907 5.543,2.523 7.354,3.16 0.938,0.33 1.674,0.733 2.512,1.241 1.554,0.943 1.028,-0.347 0.337,-0.329 -1.785,0.044 -3.6,-0.313 -5.354,-0.598 -3.357,-0.544 -6.699,-1.266 -9.995,-2.102 -0.914,-0.232 -1.8,0.604 -1.538,1.537 0.207,0.736 -8.505,-1.504 -9.3,-1.792 -2.826,-1.024 -7.739,-2.744 -9.208,-5.65 -0.36,0.627 -0.72,1.254 -1.08,1.881 3.577,0.105 8.06,2.03 11.476,0.313 1.029,-0.518 0.656,-1.965 -0.298,-2.284 -5.111,-1.711 -10.349,-3.111 -14.791,-6.279 -0.1,0.762 -0.199,1.522 -0.298,2.284 4.418,-1.145 9.409,0.588 13.695,1.688 0.712,0.184 1.683,-0.372 1.583,-1.205 -0.182,-1.51 -0.866,-2.267 -2.071,-3.161 -0.895,-0.665 -2.018,-1.096 -3.007,-1.6 -0.385,-0.481 -0.759,-0.518 -1.121,-0.106 1.356,0.221 2.743,0.281 4.102,0.488 1.577,0.241 2.254,-2.168 0.665,-2.41 -1.843,-0.282 -3.7,-0.424 -5.542,-0.724 -0.553,-0.091 -1.118,0.048 -1.412,0.574 -2.509,4.494 5.524,3.93 5.886,6.938 0.527,-0.401 1.055,-0.804 1.583,-1.205 -4.745,-1.219 -10.123,-2.959 -15.025,-1.688 -1.125,0.291 -1.136,1.688 -0.298,2.284 4.619,3.294 10.072,4.752 15.388,6.531 -0.099,-0.762 -0.199,-1.522 -0.298,-2.284 -2.587,1.3 -7.304,-0.568 -10.214,-0.654 -0.999,-0.029 -1.489,1.07 -1.08,1.881 2.345,4.641 25.163,12.933 23.078,5.517 -0.513,0.513 -1.025,1.024 -1.538,1.537 3.905,0.99 7.865,1.796 11.848,2.392 1.742,0.26 5.839,1.336 7.008,-0.661 1.194,-2.038 -2.716,-3.806 -3.945,-4.339 -1.761,-0.765 -3.635,-1.276 -5.446,-1.909 -0.885,-0.776 -1.326,-0.655 -1.324,0.363 0.936,-0.245 1.89,-0.364 2.862,-0.36 1.893,-0.025 3.999,0.72 5.839,1.125 2.881,0.634 8.018,1.336 10.257,-1.241 1.706,-1.963 -1.578,-3.407 -2.922,-3.935 -4.132,-1.62 -8.762,-2.281 -13.115,-3.035 -7.545,-1.308 -14.349,-4.877 -21.537,-7.323 -1.53,-0.523 -2.181,1.892 -0.664,2.409 z"
   id="path31" />
		</g>
	</g>
	<g
   id="g34">
		<g
   id="g33">
			<path
   fill="#2f9537"
   d="m 291.89,102.016 c -7.067,0.646 -14.425,2.555 -21.848,5.642 -4.624,1.922 -10.85,5.161 -14.726,9.073 -7.595,7.669 11.895,-1.678 13.191,-2.074 5.416,-1.657 10.764,-2.78 15.874,-3.007 9.277,-0.412 17.413,2.487 24.977,6.013 2.27,1.058 4.555,1.985 6.646,3.331 1.292,0.832 5.748,8.63 1.879,5.973 -3.029,-2.08 -5.673,-5.435 -8.984,-7.315 -13.688,-7.772 -28.103,-7.243 -42.058,-3.634 -2.674,0.691 -8.263,3.193 -10.07,5.481 -1.992,2.523 0.024,2.896 3.064,2.362 6.15,-1.08 11.43,-1.823 17.416,-2.429 7.52,-0.762 14.75,0.631 20.783,4.332 3.064,1.879 5.817,4.133 8.542,6.244 2.529,1.959 5.234,3.017 7.438,5.392 2.997,3.231 4.187,9.115 9.203,3.018 6.159,-7.486 8.049,-20.11 2.757,-28.168 -6.846,-10.425 -22.222,-11.564 -34.084,-10.234 -2.017,0.226 -2.55,2.964 -0.584,2.826 7.677,-0.538 15.11,0.082 21.625,2.667 4.18,1.659 7.769,4.399 10.592,8.154 1.691,2.25 2.301,5.126 2.491,8.821 0.311,6.032 -3.678,17.014 -7.288,13.408 -2.281,-2.278 -4.349,-5.383 -7.116,-6.993 -2.814,-1.637 -5.442,-3.081 -8.377,-4.997 -5.782,-3.776 -12.368,-6.534 -19.748,-6.724 -3.137,-0.081 -6.345,0.362 -9.608,0.975 -2.132,0.4 -4.257,0.712 -6.437,1.105 0.674,-0.122 -12.819,3.184 -7.438,-0.589 4.423,-3.103 11.984,-4.336 16.316,-4.526 13.564,-0.596 23.865,1.229 34.261,8.984 1.823,1.36 8.392,12.704 11.374,3.246 1.629,-5.168 -1.357,-8.673 -3.443,-10.352 -4.85,-3.905 -11.086,-5.225 -17.217,-6.884 -7.825,-2.118 -16.455,-2.707 -25.644,-0.456 -4.701,1.152 -9.487,2.751 -14.284,4.694 -3.867,1.566 -4.25,1.253 -0.077,-1.326 2.874,-1.777 5.864,-3.149 8.762,-4.298 7.248,-2.874 14.405,-4.494 21.256,-4.909 1.974,-0.12 2.604,-3.011 0.584,-2.826 z"
   id="path32" />
		</g>
	</g>
	<circle
   fill="#426026"
   cx="275.78299"
   cy="105.847"
   r="1.319"
   id="circle34" />
	<circle
   fill="#426026"
   cx="294.78201"
   cy="115.847"
   r="1.319"
   id="circle35" />
	<circle
   fill="#426026"
   cx="282.78201"
   cy="115.847"
   r="1.319"
   id="circle36" />
	<circle
   fill="#426026"
   cx="270.78201"
   cy="116.847"
   r="1.319"
   id="circle37" />
	<circle
   fill="#426026"
   cx="257.78201"
   cy="121.847"
   r="1.319"
   id="circle38" />
	<circle
   fill="#426026"
   cx="267.78201"
   cy="120.847"
   r="1.319"
   id="circle39" />
	<circle
   fill="#426026"
   cx="278.78201"
   cy="119.847"
   r="1.319"
   id="circle40" />
	<circle
   fill="#426026"
   cx="289.78201"
   cy="120.847"
   r="1.319"
   id="circle41" />
	<circle
   fill="#426026"
   cx="299.78201"
   cy="124.847"
   r="1.319"
   id="circle42" />
	<circle
   fill="#426026"
   cx="306.78201"
   cy="131.847"
   r="1.319"
   id="circle43" />
	<circle
   fill="#426026"
   cx="317.78201"
   cy="138.847"
   r="1.319"
   id="circle44" />
	<circle
   fill="#426026"
   cx="261.78201"
   cy="115.847"
   r="1.319"
   id="circle45" />
	<circle
   fill="#426026"
   cx="270.78201"
   cy="112.847"
   r="1.319"
   id="circle46" />
	<circle
   fill="#426026"
   cx="278.78201"
   cy="110.847"
   r="1.319"
   id="circle47" />
	<circle
   fill="#426026"
   cx="290.78201"
   cy="110.847"
   r="1.319"
   id="circle48" />
	<circle
   fill="#426026"
   cx="300.78201"
   cy="109.847"
   r="1.319"
   id="circle49" />
	<circle
   fill="#426026"
   cx="307.78201"
   cy="115.847"
   r="1.319"
   id="circle50" />
	<circle
   fill="#426026"
   cx="317.78201"
   cy="119.847"
   r="1.319"
   id="circle51" />
	<circle
   fill="#426026"
   cx="318.78201"
   cy="128.847"
   r="1.319"
   id="circle52" />
	<circle
   fill="#426026"
   cx="310.78201"
   cy="123.847"
   r="1.319"
   id="circle53" />
	<circle
   fill="#426026"
   cx="302.78201"
   cy="119.847"
   r="1.319"
   id="circle54" />
	<circle
   fill="#426026"
   cx="254.782"
   cy="117.847"
   r="1.319"
   id="circle55" />
	<circle
   fill="#426026"
   cx="322.78201"
   cy="110.847"
   r="1.319"
   id="circle56" />
	<circle
   fill="#426026"
   cx="325.78201"
   cy="117.847"
   r="1.319"
   id="circle57" />
	<circle
   fill="#426026"
   cx="328.78201"
   cy="124.847"
   r="1.319"
   id="circle58" />
	<circle
   fill="#426026"
   cx="325.78201"
   cy="134.847"
   r="1.319"
   id="circle59" />
	<circle
   fill="#426026"
   cx="311.78201"
   cy="105.847"
   r="1.319"
   id="circle60" />
	<circle
   fill="#426026"
   cx="301.78201"
   cy="103.847"
   r="1.319"
   id="circle61" />
	<circle
   fill="#426026"
   cx="293.78201"
   cy="102.847"
   r="1.319"
   id="circle62" />
	<circle
   fill="#426026"
   cx="286.78201"
   cy="104.847"
   r="1.319"
   id="circle63" />
	<circle
   fill="#426026"
   cx="265.78201"
   cy="110.847"
   r="1.319"
   id="circle64" />
	<g
   id="g66">
		<path
   fill="#ffffff"
   d="m 217.423,115.473 c -1.337,0.551 -2.419,2.276 -3.705,3.742 -1.375,1.432 -2.956,2.604 -4.186,4.45 -2.489,3.501 -4.423,7.935 -6.087,11.937 -0.605,1.552 -1.72,3.623 -1.523,4.951 0.416,3.382 1.893,0.381 2.736,-1.257 1.804,-3.054 4.587,-6.261 6.656,-9.211 1.86,-2.673 4.578,-5.191 6.293,-8.279 0.932,-1.604 3.779,-8.902 0.828,-6.833"
   id="path64" />
		<g
   id="g65">
			<path
   fill="#d42016"
   d="m 216.792,114.394 c -4.961,3.151 -9.082,9.278 -11.693,14.421 -1.445,2.846 -6.811,11.302 -3.355,14.164 0.441,0.365 0.992,0.495 1.515,0.195 2.66,-1.525 4.382,-6.144 6.214,-8.556 3.128,-4.119 7.067,-8.094 9.482,-12.692 0.92,-1.752 4.065,-10.809 -1.15,-8.032 -1.423,0.757 -0.161,2.916 1.262,2.158 -0.625,-0.95 -0.889,-0.741 -0.794,0.628 -0.167,0.625 -0.362,1.242 -0.585,1.85 -0.787,2.305 -2.066,4.196 -3.574,6.105 -2.975,3.766 -5.943,7.512 -8.787,11.384 -0.621,0.856 -1.203,1.738 -1.746,2.646 -0.781,1.242 -1.216,3.828 0.009,-0.171 0.885,-2.888 2.376,-5.693 3.67,-8.417 1.363,-2.87 2.992,-5.603 5.196,-7.908 1.713,-1.791 3.51,-4.289 5.6,-5.616 1.354,-0.862 0.101,-3.026 -1.264,-2.159 z"
   id="path65" />
		</g>
	</g>
	<g
   id="g68">
		<path
   fill="#ffffff"
   d="m 226.655,120.328 c -2.159,-0.484 -7.188,5.604 -9.253,8.019 -2.573,2.932 -4.531,6.64 -6.283,10.608 -1.179,2.76 -3.873,9.402 -3.089,11.318 1.829,4.471 3.659,-5.191 4.414,-6.865 2.265,-5.02 5.584,-8.556 8.726,-12.16 1.706,-2.018 3.584,-3.432 5.202,-5.484 2.964,-3.674 0.14,-2.45 0.102,-4.969"
   id="path66" />
		<g
   id="g67">
			<path
   fill="#d42016"
   d="m 226.655,119.078 c -8.51,0.142 -25.291,31.986 -18.229,33.487 1.807,0.385 2.689,-1.177 3.261,-2.686 1.525,-4.029 2.487,-7.601 4.981,-11.252 3.096,-4.531 7.568,-7.864 10.783,-12.233 2.356,-3.204 0.725,-2.879 0.228,-5.933 -0.259,-1.588 -2.667,-0.912 -2.411,0.665 0.144,0.881 1.236,2.15 0.881,2.841 -1.614,3.141 -5.427,5.896 -7.76,8.563 -3.442,3.935 -6.514,8.095 -7.964,13.168 -0.259,0.904 -0.539,1.799 -0.837,2.69 -1.161,3.47 0.098,-1.926 0.265,-2.518 0.894,-3.171 2.286,-6.244 3.704,-9.205 1.571,-3.282 3.621,-6.146 5.981,-8.902 1.529,-1.786 4.543,-6.144 7.117,-6.187 1.611,-0.025 1.613,-2.525 0,-2.498 z"
   id="path67" />
		</g>
	</g>
	<g
   id="g70">
		<path
   fill="#ffffff"
   d="m 225.869,132.544 c -2.121,2.035 -11.806,15.61 -8.594,17.579 2.387,1.468 3.976,-4.174 5.598,-6.761 1.622,-2.588 6.288,-7.744 5.514,-10.73 -0.289,-0.829 -0.965,-1.45 -1.683,-0.657"
   id="path68" />
		<g
   id="g69">
			<path
   fill="#d42016"
   d="m 224.985,131.66 c -2.773,2.805 -14.281,17.146 -7.505,19.886 1.867,0.755 3.45,-1.785 4.166,-3.018 1.556,-2.68 2.797,-5.275 4.629,-7.804 1.621,-2.236 3.257,-4.641 3.447,-7.468 0.152,-2.271 -1.88,-3.298 -3.649,-2.36 -1.425,0.755 -0.162,2.913 1.262,2.158 -0.186,0.099 -0.93,2.82 -1.166,3.268 -0.436,0.828 -0.986,1.602 -1.51,2.374 -0.927,1.365 -1.957,2.656 -2.864,4.035 -0.926,1.406 -1.53,3.044 -2.307,4.534 -0.736,1.415 -1.97,2.596 -1.432,0.297 1.138,-4.869 5.213,-10.609 8.698,-14.135 1.133,-1.146 -0.634,-2.915 -1.769,-1.767 z"
   id="path69" />
		</g>
	</g>
	<circle
   fill="#426026"
   cx="344.78201"
   cy="122.847"
   r="1.319"
   id="circle70" />
	<circle
   fill="#426026"
   cx="349.78201"
   cy="127.847"
   r="1.319"
   id="circle71" />
	<circle
   fill="#426026"
   cx="349.78201"
   cy="133.847"
   r="1.319"
   id="circle72" />
	<circle
   fill="#426026"
   cx="345.78201"
   cy="138.847"
   r="1.319"
   id="circle73" />
	<circle
   fill="#426026"
   cx="327.78201"
   cy="161.84801"
   r="1.319"
   id="circle74" />
	<circle
   fill="#426026"
   cx="323.78201"
   cy="155.84801"
   r="1.319"
   id="circle75" />
	<circle
   fill="#426026"
   cx="321.78201"
   cy="151.84801"
   r="1.319"
   id="circle76" />
	<circle
   fill="#426026"
   cx="324.78201"
   cy="145.84801"
   r="1.319"
   id="circle77" />
	<circle
   fill="#426026"
   cx="331.78201"
   cy="142.847"
   r="1.319"
   id="circle78" />
	<circle
   fill="#426026"
   cx="338.78201"
   cy="141.847"
   r="1.319"
   id="circle79" />
	<polygon
   fill="#7f4712"
   stroke="#512910"
   stroke-miterlimit="10"
   points="369.372,108.481 366.764,107.109 364.154,108.481 364.652,105.576 362.542,103.518 365.459,103.094 366.764,100.451 368.067,103.094 370.984,103.518 368.874,105.576 "
   id="polygon79" />
</g>
<g
   id="Ebene_3"
   transform="translate(-184.47046,-22.042307)">
	<g
   id="g80">
		<g
   id="g79">
			<path
   fill="#b42218"
   d="m 368.39,43.352 c 0.001,1.195 0.071,2.364 0.576,3.465 0.284,0.62 1.166,0.767 1.71,0.448 0.631,-0.369 0.732,-1.091 0.448,-1.71 -0.3,-0.655 -0.234,-1.504 -0.234,-2.203 -10e-4,-1.612 -2.501,-1.612 -2.5,0 z"
   id="path79" />
		</g>
	</g>
	<g
   id="g82">
		<g
   id="g81">
			<path
   fill="#b42218"
   d="m 373.697,42.47 c 0.431,1.748 0.785,3.514 1.215,5.263 0.385,1.565 2.795,0.901 2.41,-0.665 -0.43,-1.749 -0.784,-3.515 -1.215,-5.263 -0.384,-1.564 -2.795,-0.9 -2.41,0.665 z"
   id="path80" />
		</g>
	</g>
	<g
   id="g84">
		<g
   id="g83">
			<path
   fill="#b42218"
   d="m 378.682,41.554 c 0.781,1.59 1.402,3.249 1.449,5.038 0.042,1.609 2.542,1.613 2.5,0 -0.059,-2.244 -0.811,-4.305 -1.791,-6.299 -0.711,-1.448 -2.867,-0.18 -2.158,1.261 z"
   id="path82" />
		</g>
	</g>
	<g
   id="g86">
		<g
   id="g85">
			<path
   fill="#b42218"
   d="m 385.034,40.446 c 0.379,1.903 0.735,3.793 0.765,5.74 0.024,1.611 2.524,1.613 2.5,0 -0.032,-2.166 -0.432,-4.288 -0.854,-6.405 -0.315,-1.58 -2.725,-0.909 -2.411,0.665 z"
   id="path84" />
		</g>
	</g>
	<g
   id="g88">
		<g
   id="g87">
			<path
   fill="#b42218"
   d="m 391.062,40.518 c 0.03,2.484 0.493,4.856 1.26,7.215 0.496,1.526 2.91,0.873 2.41,-0.665 -0.7,-2.154 -1.143,-4.279 -1.17,-6.55 -0.02,-1.611 -2.52,-1.613 -2.5,0 z"
   id="path86" />
		</g>
	</g>
	<g
   id="g90">
		<g
   id="g89">
			<path
   fill="#b42218"
   d="m 398.395,42.47 c 0.327,1.764 0.358,3.546 0.359,5.335 10e-4,1.612 2.501,1.612 2.5,0 -0.001,-2.018 -0.079,-4.012 -0.449,-6 -0.294,-1.583 -2.703,-0.91 -2.41,0.665 z"
   id="path88" />
		</g>
	</g>
	<g
   id="g92">
		<g
   id="g91">
			<path
   fill="#b42218"
   d="m 371.674,49.758 c 0.372,1.495 0.735,2.977 0.765,4.525 0.03,1.61 2.53,1.613 2.5,0 -0.033,-1.769 -0.429,-3.482 -0.854,-5.19 -0.391,-1.564 -2.802,-0.9 -2.411,0.665 z"
   id="path90" />
		</g>
	</g>
	<g
   id="g94">
		<g
   id="g93">
			<path
   fill="#b42218"
   d="m 378.511,49.02 c 0,2.024 0,4.049 0,6.073 0,1.612 2.5,1.612 2.5,0 0,-2.024 0,-4.049 0,-6.073 0,-1.612 -2.5,-1.612 -2.5,0 z"
   id="path92" />
		</g>
	</g>
	<g
   id="g96">
		<g
   id="g95">
			<path
   fill="#b42218"
   d="m 383.819,48.948 c 0.373,2.417 0.436,4.869 0.81,7.288 0.245,1.589 2.654,0.912 2.41,-0.665 -0.374,-2.417 -0.437,-4.869 -0.81,-7.288 -0.245,-1.59 -2.653,-0.912 -2.41,0.665 z"
   id="path94" />
		</g>
	</g>
	<g
   id="g98">
		<g
   id="g97">
			<path
   fill="#b42218"
   d="m 388.678,48.688 c -0.508,2.092 -0.828,4.252 -0.854,6.406 -0.02,1.613 2.48,1.611 2.5,0 0.023,-1.94 0.308,-3.857 0.765,-5.741 0.379,-1.567 -2.031,-2.231 -2.411,-0.665 z"
   id="path96" />
		</g>
	</g>
	<g
   id="g100">
		<g
   id="g99">
			<path
   fill="#b42218"
   d="m 394.705,49.02 c 0,1.484 0,2.969 0,4.454 0,1.612 2.5,1.612 2.5,0 0,-1.484 0,-2.969 0,-4.454 0,-1.612 -2.5,-1.612 -2.5,0 z"
   id="path98" />
		</g>
	</g>
	<g
   id="g102">
		<g
   id="g101">
			<path
   fill="#b42218"
   d="m 278.916,68.858 c 0,0.601 0.025,1.24 -0.234,1.798 -0.287,0.618 -0.18,1.342 0.449,1.71 0.546,0.32 1.423,0.169 1.71,-0.448 0.459,-0.989 0.574,-1.979 0.575,-3.06 10e-4,-1.612 -2.499,-1.612 -2.5,0 z"
   id="path100" />
		</g>
	</g>
	<g
   id="g104">
		<g
   id="g103">
			<path
   fill="#b42218"
   d="m 287.589,69.037 c -0.909,1.365 -1.722,2.75 -2.151,4.347 -0.418,1.56 1.993,2.22 2.411,0.665 0.373,-1.391 1.107,-2.563 1.898,-3.75 0.897,-1.346 -1.269,-2.597 -2.158,-1.262 z"
   id="path102" />
		</g>
	</g>
	<g
   id="g106">
		<g
   id="g105">
			<path
   fill="#b42218"
   d="m 294.92,71.423 c -1.647,1.25 -3.131,2.638 -4.093,4.497 -0.739,1.43 1.418,2.694 2.159,1.262 0.758,-1.467 1.887,-2.608 3.195,-3.601 0.542,-0.411 0.824,-1.069 0.448,-1.71 -0.312,-0.535 -1.165,-0.861 -1.709,-0.448 z"
   id="path104" />
		</g>
	</g>
	<g
   id="g108">
		<g
   id="g107">
			<path
   fill="#b42218"
   d="m 299.608,74.599 c -0.341,1.292 -1.085,1.894 -2.26,2.492 -1.437,0.731 -0.171,2.888 1.262,2.158 1.708,-0.87 2.911,-2.103 3.408,-3.985 0.413,-1.561 -1.998,-2.222 -2.41,-0.665 z"
   id="path106" />
		</g>
	</g>
	<g
   id="g110">
		<g
   id="g109">
			<path
   fill="#b42218"
   d="m 306.66,77.496 c -1.941,0.995 -3.571,2.369 -4.901,4.092 -0.418,0.541 -0.083,1.399 0.448,1.71 0.645,0.378 1.295,0.09 1.71,-0.448 1.061,-1.374 2.472,-2.409 4.005,-3.196 1.434,-0.736 0.17,-2.893 -1.262,-2.158 z"
   id="path108" />
		</g>
	</g>
	<g
   id="g112">
		<g
   id="g111">
			<path
   fill="#b42218"
   d="m 310.604,82.632 c -1.354,0.481 -2.383,1.344 -3.386,2.346 -1.142,1.141 0.626,2.908 1.768,1.768 0.677,-0.676 1.361,-1.375 2.282,-1.703 0.642,-0.228 1.064,-0.845 0.873,-1.538 -0.171,-0.62 -0.895,-1.101 -1.537,-0.873 z"
   id="path110" />
		</g>
	</g>
	<g
   id="g114">
		<g
   id="g113">
			<path
   fill="#b42218"
   d="m 302.974,85.231 c -0.733,1.421 -1.774,2.462 -3.195,3.195 -1.433,0.739 -0.169,2.896 1.262,2.158 1.768,-0.912 3.181,-2.324 4.092,-4.092 0.736,-1.429 -1.42,-2.694 -2.159,-1.261 z"
   id="path112" />
		</g>
	</g>
	<g
   id="g116">
		<g
   id="g115">
			<path
   fill="#b42218"
   d="m 297.54,81.409 c -0.047,1.954 -0.97,3.548 -2.62,4.589 -1.359,0.858 -0.106,3.022 1.262,2.158 2.404,-1.518 3.79,-3.897 3.857,-6.748 0.039,-1.613 -2.461,-1.609 -2.499,0.001 z"
   id="path114" />
		</g>
	</g>
	<g
   id="g118">
		<g
   id="g117">
			<path
   fill="#b42218"
   d="m 292.789,78.989 c -2.248,0.925 -4.226,2.316 -5.2,4.623 -0.266,0.627 -0.195,1.333 0.448,1.71 0.53,0.311 1.445,0.18 1.71,-0.448 0.716,-1.694 2.023,-2.781 3.707,-3.474 0.629,-0.259 1.07,-0.82 0.873,-1.538 -0.164,-0.597 -0.907,-1.133 -1.538,-0.873 z"
   id="path116" />
		</g>
	</g>
	<g
   id="g120">
		<g
   id="g119">
			<path
   fill="#b42218"
   d="m 286.374,77.134 c -0.805,1.54 -2.061,2.795 -3.6,3.601 -1.429,0.747 -0.165,2.904 1.262,2.158 1.887,-0.986 3.511,-2.61 4.498,-4.497 0.745,-1.427 -1.413,-2.691 -2.16,-1.262 z"
   id="path118" />
		</g>
	</g>
	<g
   id="g122">
		<g
   id="g121">
			<path
   fill="#b42218"
   d="m 280.706,73.491 c -1.09,1.429 -2.402,2.759 -4.005,3.6 -1.428,0.749 -0.164,2.907 1.262,2.158 1.995,-1.046 3.552,-2.727 4.902,-4.497 0.414,-0.543 0.085,-1.397 -0.449,-1.71 -0.642,-0.376 -1.297,-0.092 -1.71,0.449 z"
   id="path120" />
		</g>
	</g>
	<g
   id="g124">
		<g
   id="g123">
			<path
   fill="#b42218"
   d="m 211.817,159.556 c -1.528,0.388 -3.015,0.884 -4.347,1.746 -1.348,0.872 -0.096,3.037 1.262,2.158 1.164,-0.752 2.416,-1.154 3.75,-1.494 1.562,-0.397 0.899,-2.808 -0.665,-2.41 z"
   id="path122" />
		</g>
	</g>
	<g
   id="g126">
		<g
   id="g125">
			<path
   fill="#b42218"
   d="m 216.531,164.819 c -2.803,-0.398 -5.243,0.379 -7.289,2.346 -1.164,1.119 0.605,2.885 1.768,1.768 1.341,-1.289 2.98,-1.969 4.856,-1.703 1.576,0.223 2.256,-2.185 0.665,-2.411 z"
   id="path124" />
		</g>
	</g>
	<g
   id="g128">
		<g
   id="g127">
			<path
   fill="#b42218"
   d="m 220.652,171.252 c -3.322,0.445 -6.541,1.188 -9.645,2.475 -1.467,0.607 -0.825,3.027 0.665,2.41 2.88,-1.192 5.891,-1.971 8.979,-2.385 1.574,-0.211 1.595,-2.714 10e-4,-2.5 z"
   id="path126" />
		</g>
	</g>
	<g
   id="g130">
		<g
   id="g129">
			<path
   fill="#b42218"
   d="m 223.486,178.539 c -3.038,-0.376 -5.96,0.077 -8.728,1.386 -1.457,0.688 -0.187,2.844 1.262,2.158 2.367,-1.118 4.889,-1.362 7.466,-1.044 1.597,0.197 1.578,-2.305 0,-2.5 z"
   id="path128" />
		</g>
	</g>
	<g
   id="g132">
		<g
   id="g131">
			<path
   fill="#b42218"
   d="m 225.105,185.422 c -2.637,0.03 -5.197,0.479 -7.514,1.79 -1.403,0.794 -0.143,2.953 1.262,2.158 1.937,-1.096 4.052,-1.423 6.252,-1.448 1.611,-0.019 1.613,-2.519 0,-2.5 z"
   id="path130" />
		</g>
	</g>
	<g
   id="g134">
		<g
   id="g133">
			<path
   fill="#b42218"
   d="m 226.32,191.899 c -0.81,0 -1.62,0 -2.429,0 -1.612,0 -1.612,2.5 0,2.5 0.81,0 1.62,0 2.429,0 1.612,0 1.612,-2.5 0,-2.5 z"
   id="path132" />
		</g>
	</g>
	<g
   id="g136">
		<g
   id="g135">
			<path
   fill="#b42218"
   d="m 219.032,190.28 c -1.184,0.001 -2.117,0.33 -2.698,1.429 -0.319,0.603 -0.158,1.355 0.448,1.71 0.569,0.334 1.392,0.153 1.71,-0.448 0.004,-0.007 0.245,-0.384 0.079,-0.176 0.105,-0.102 0.095,-0.103 -0.031,-10e-4 0.122,-0.066 0.105,-0.063 -0.051,0.013 0.289,-0.101 -0.275,0.01 0.059,-0.018 0.161,-0.013 0.323,-0.009 0.484,-0.009 1.613,-0.002 1.613,-2.502 0,-2.5 z"
   id="path134" />
		</g>
	</g>
	<g
   id="g138">
		<g
   id="g137">
			<path
   fill="#b42218"
   d="m 214.174,185.018 c -1.081,0.001 -2.071,0.115 -3.06,0.575 -0.618,0.287 -0.768,1.164 -0.448,1.71 0.368,0.629 1.092,0.735 1.71,0.448 0.559,-0.259 1.198,-0.232 1.798,-0.233 1.613,-0.001 1.613,-2.501 0,-2.5 z"
   id="path136" />
		</g>
	</g>
	<g
   id="g140">
		<g
   id="g139">
			<path
   fill="#b42218"
   d="m 211.519,177.9 c -1.318,0.862 -2.731,1.567 -4.049,2.43 -1.343,0.878 -0.092,3.044 1.262,2.158 1.318,-0.862 2.731,-1.567 4.049,-2.43 1.343,-0.877 0.092,-3.043 -1.262,-2.158 z"
   id="path138" />
		</g>
	</g>
	<g
   id="g142">
		<g
   id="g141">
			<path
   fill="#b42218"
   d="m 210.125,170.848 c -2.352,0.05 -4.652,0.92 -6.147,2.795 -0.994,1.247 0.763,3.028 1.768,1.768 1.103,-1.383 2.627,-2.025 4.379,-2.063 1.61,-0.035 1.614,-2.535 0,-2.5 z"
   id="path140" />
		</g>
	</g>
	<g
   id="g144">
		<g
   id="g143">
			<path
   fill="#b42218"
   d="m 208.101,164.774 c -1.769,0.033 -3.482,0.428 -5.191,0.854 -1.563,0.39 -0.9,2.801 0.665,2.41 1.495,-0.373 2.978,-0.735 4.526,-0.765 1.61,-0.029 1.613,-2.529 0,-2.499 z"
   id="path142" />
		</g>
	</g>
	<g
   id="g146">
		<g
   id="g145">
			<path
   fill="#b42218"
   d="m 347.681,171.658 c 1.114,-0.341 2.27,-0.341 3.384,0 1.546,0.474 2.201,-1.94 0.664,-2.41 -1.517,-0.465 -3.195,-0.465 -4.712,0 -1.538,0.47 -0.882,2.884 0.664,2.41 z"
   id="path144" />
		</g>
	</g>
	<g
   id="g148">
		<g
   id="g147">
			<path
   fill="#b42218"
   d="m 349.396,164.035 c 1.412,0.043 2.663,0.691 3.823,1.449 1.354,0.885 2.605,-1.281 1.262,-2.158 -1.536,-1.004 -3.229,-1.734 -5.085,-1.791 -1.613,-0.05 -1.608,2.451 0,2.5 z"
   id="path146" />
		</g>
	</g>
	<g
   id="g150">
		<g
   id="g149">
			<path
   fill="#b42218"
   d="m 353.113,157.107 c 1.854,0.398 3.441,1.185 4.965,2.304 1.301,0.957 2.546,-1.215 1.262,-2.158 -1.68,-1.234 -3.519,-2.118 -5.563,-2.556 -1.572,-0.337 -2.24,2.073 -0.664,2.41 z"
   id="path148" />
		</g>
	</g>
	<g
   id="g152">
		<g
   id="g151">
			<path
   fill="#b42218"
   d="m 359.996,150.63 c 1.676,0.371 3.063,1.307 4.111,2.665 0.415,0.538 1.065,0.826 1.71,0.448 0.531,-0.312 0.866,-1.169 0.448,-1.71 -1.443,-1.872 -3.258,-3.295 -5.605,-3.813 -1.57,-0.348 -2.238,2.062 -0.664,2.41 z"
   id="path150" />
		</g>
	</g>
	<g
   id="g154">
		<g
   id="g153">
			<path
   fill="#b42218"
   d="m 367.39,145.241 c 1.421,0.733 2.462,1.774 3.195,3.195 0.739,1.434 2.896,0.169 2.158,-1.262 -0.911,-1.768 -2.324,-3.181 -4.092,-4.092 -1.43,-0.737 -2.695,1.42 -1.261,2.159 z"
   id="path152" />
		</g>
	</g>
	<g
   id="g156">
		<g
   id="g155">
			<path
   fill="#b42218"
   d="m 368.561,151.676 c 1.171,1.562 2.357,3.15 3.113,4.964 0.61,1.466 3.03,0.823 2.41,-0.664 -0.85,-2.04 -2.045,-3.801 -3.365,-5.562 -0.954,-1.273 -3.127,-0.029 -2.158,1.262 z"
   id="path154" />
		</g>
	</g>
	<g
   id="g158">
		<g
   id="g157">
			<path
   fill="#b42218"
   d="m 362.936,156.981 c 1.702,1.063 3.101,2.658 3.88,4.517 0.613,1.464 3.033,0.822 2.41,-0.664 -1.043,-2.491 -2.728,-4.573 -5.028,-6.011 -1.372,-0.857 -2.626,1.307 -1.262,2.158 z"
   id="path156" />
		</g>
	</g>
	<g
   id="g160">
		<g
   id="g159">
			<path
   fill="#b42218"
   d="m 356.353,163.181 c 1.955,0.825 3.62,2.254 5.116,3.728 1.148,1.132 2.917,-0.635 1.768,-1.768 -1.83,-1.804 -3.841,-3.367 -6.22,-4.37 -1.485,-0.627 -2.126,1.793 -0.664,2.41 z"
   id="path158" />
		</g>
	</g>
	<g
   id="g162">
		<g
   id="g161">
			<path
   fill="#b42218"
   d="m 353.445,168.894 c 0.868,0.017 1.711,0.242 2.355,0.849 1.172,1.104 2.943,-0.66 1.768,-1.768 -1.131,-1.065 -2.585,-1.551 -4.123,-1.581 -1.613,-0.032 -1.61,2.468 0,2.5 z"
   id="path160" />
		</g>
	</g>
</g>
<g
   id="Ebene_4"
   display="none"
   transform="translate(-184.47046,-22.042307)">
	<line
   display="inline"
   fill="none"
   stroke="#000000"
   stroke-miterlimit="10"
   x1="280.10199"
   y1="164.453"
   x2="361.996"
   y2="215.87"
   id="line162" />
	<line
   display="inline"
   fill="none"
   x1="308.46301"
   y1="166.858"
   x2="382.95001"
   y2="193.174"
   id="line163" />
	
		<line
   display="inline"
   fill="none"
   stroke="#000000"
   stroke-miterlimit="10"
   x1="370.04501"
   y1="109.847"
   x2="385.02399"
   y2="135.87199"
   id="line164" />
	<line
   display="inline"
   fill="none"
   stroke="#000000"
   stroke-miterlimit="10"
   x1="385"
   y1="135.5"
   x2="428"
   y2="135.5"
   id="line165" />
	<line
   display="inline"
   fill="none"
   x1="414"
   y1="108.5"
   x2="454"
   y2="108.5"
   id="line166" />
	<line
   display="inline"
   fill="none"
   stroke="#000000"
   stroke-miterlimit="10"
   x1="461.94699"
   y1="48.615002"
   x2="409.284"
   y2="47.806"
   id="line167" />
	<line
   display="inline"
   fill="none"
   stroke="#000000"
   stroke-miterlimit="10"
   x1="281.46301"
   y1="26.348"
   x2="324"
   y2="53.467999"
   id="line168" />
	<line
   display="inline"
   fill="none"
   stroke="#000000"
   stroke-miterlimit="10"
   x1="207.494"
   y1="66.429001"
   x2="281.78601"
   y2="104.528"
   id="line169" />
	
		<line
   display="inline"
   fill="none"
   stroke="#000000"
   stroke-miterlimit="10"
   x1="148.992"
   y1="186.672"
   x2="195.95399"
   y2="186.26801"
   id="line170" />
	<text
   transform="translate(83.8096,184.5273)"
   display="inline"
   font-family="MyriadPro-Regular"
   font-size="18px"
   id="text170">Zellmembran</text>
	<line
   display="inline"
   fill="none"
   stroke="#000000"
   stroke-miterlimit="10"
   x1="308.46301"
   y1="166.858"
   x2="382.95001"
   y2="193.174"
   id="line171" />
	<text
   transform="translate(382.8584,197.5303)"
   display="inline"
   font-family="MyriadPro-Regular"
   font-size="18px"
   id="text171">Zellkern</text>
	<text
   transform="translate(465.4248,54.2109)"
   display="inline"
   font-family="MyriadPro-Regular"
   font-size="18px"
   id="text172">Mitochondrien</text>
	<line
   display="inline"
   fill="none"
   stroke="#000000"
   stroke-miterlimit="10"
   x1="414"
   y1="106.5"
   x2="439"
   y2="106.5"
   id="line172" />
	<text
   transform="translate(440.5859,114.2026)"
   display="inline"
   font-family="MyriadPro-Regular"
   font-size="18px"
   id="text173">Golgi-Apparat</text>
	<line
   display="inline"
   fill="none"
   stroke="#2c4a20"
   stroke-miterlimit="10"
   x1="371"
   y1="67.5"
   x2="444"
   y2="67.5"
   id="line173" />
	
		<line
   display="inline"
   fill="none"
   stroke="#000000"
   stroke-miterlimit="10"
   x1="351.064"
   y1="133.528"
   x2="420.29599"
   y2="159.308"
   id="line174" />
	
		<line
   display="inline"
   fill="none"
   stroke="#000000"
   stroke-miterlimit="10"
   x1="288.78201"
   y1="219.65601"
   x2="302.409"
   y2="239.328"
   id="line175" />
	<line
   display="inline"
   fill="none"
   stroke="#000000"
   stroke-miterlimit="10"
   x1="171"
   y1="213.5"
   x2="235"
   y2="213.5"
   id="line176" />
</g>
<g
   id="Ebene_5"
   transform="translate(-184.47046,-22.042307)">
	<circle
   fill="#c04217"
   stroke="#b43417"
   stroke-miterlimit="10"
   cx="331.474"
   cy="83.620003"
   r="4.0110002"
   id="circle176" />
	<circle
   fill="#c04217"
   stroke="#b43417"
   stroke-miterlimit="10"
   cx="284.474"
   cy="213.62"
   r="4.0110002"
   id="circle177" />
	<circle
   fill="#c04217"
   stroke="#b43417"
   stroke-miterlimit="10"
   cx="340.474"
   cy="99.620003"
   r="4.0110002"
   id="circle178" />
	<circle
   stroke="#000000"
   stroke-width="0.5"
   stroke-miterlimit="10"
   cx="330.57401"
   cy="82.509003"
   r="0.89999998"
   id="circle179" />
	<circle
   stroke="#000000"
   stroke-width="0.5"
   stroke-miterlimit="10"
   cx="333.57401"
   cy="82.509003"
   r="0.89999998"
   id="circle180" />
	<circle
   stroke="#000000"
   stroke-width="0.5"
   stroke-miterlimit="10"
   cx="331.57401"
   cy="85.509003"
   r="0.89999998"
   id="circle181" />
	<circle
   stroke="#000000"
   stroke-width="0.5"
   stroke-miterlimit="10"
   cx="339.57401"
   cy="96.509003"
   r="0.89999998"
   id="circle182" />
	<circle
   stroke="#000000"
   stroke-width="0.5"
   stroke-miterlimit="10"
   cx="341.57401"
   cy="100.509"
   r="0.89999998"
   id="circle183" />
	<circle
   stroke="#000000"
   stroke-width="0.5"
   stroke-miterlimit="10"
   cx="338.57401"
   cy="101.509"
   r="0.89999998"
   id="circle184" />
	<circle
   stroke="#000000"
   stroke-width="0.5"
   stroke-miterlimit="10"
   cx="283.57401"
   cy="215.509"
   r="0.89999998"
   id="circle185" />
	<circle
   stroke="#000000"
   stroke-width="0.5"
   stroke-miterlimit="10"
   cx="286.57401"
   cy="213.509"
   r="0.89999998"
   id="circle186" />
	<circle
   stroke="#000000"
   stroke-width="0.5"
   stroke-miterlimit="10"
   cx="283.57401"
   cy="212.509"
   r="0.89999998"
   id="circle187" />
</g>
<text
   xml:space="preserve"
   style="font-size:21.3333px;font-family:ABeeZee;-inkscape-font-specification:ABeeZee;text-align:center;text-anchor:middle;fill:#000000;stroke-width:1.88976"
   x="-68.108734"
   y="-41.810791"
   id="text187"><tspan
     sodipodi:role="line"
     id="tspan187"
     x="-68.108749"
     y="-41.810791">https://openclipart.org/detail/297038/human-cell</tspan></text></svg>
