<?xml version="1.0" encoding="UTF-8" standalone="no"?>
<!-- Generator: Adobe Illustrator 12.0.0, SVG Export Plug-In . SVG Version: 6.00 Build 51448)  -->

<svg
   id="Layer_1"
   style="enable-background:new 0 0 133.151 120.754"
   space="preserve"
   sodipodi:docname="physics.svg"
   viewBox="0 0 133.151 120.754"
   sodipodi:version="0.32"
   version="1.1"
   inkscape:version="1.3.2 (091e20ef0f, 2023-11-25, custom)"
   xmlns:inkscape="http://www.inkscape.org/namespaces/inkscape"
   xmlns:sodipodi="http://sodipodi.sourceforge.net/DTD/sodipodi-0.dtd"
   xmlns="http://www.w3.org/2000/svg"
   xmlns:svg="http://www.w3.org/2000/svg"
   xmlns:rdf="http://www.w3.org/1999/02/22-rdf-syntax-ns#"
   xmlns:cc="http://creativecommons.org/ns#"
   xmlns:dc="http://purl.org/dc/elements/1.1/">
  <defs
     id="defs1" />
  <sodipodi:namedview
     id="base"
     bordercolor="#666666"
     inkscape:pageshadow="2"
     inkscape:window-width="1920"
     pagecolor="#ffffff"
     inkscape:zoom="2.9812678"
     inkscape:window-x="0"
     borderopacity="1.0"
     inkscape:current-layer="Layer_1"
     inkscape:cx="66.414698"
     inkscape:cy="60.209284"
     inkscape:window-y="26"
     inkscape:window-height="1031"
     inkscape:pageopacity="0.0"
     inkscape:showpageshadow="2"
     inkscape:pagecheckerboard="0"
     inkscape:deskcolor="#d1d1d1"
     inkscape:window-maximized="1" />
  <g
     id="g3"
     transform="matrix(1,0,0,-1,0,120.75431)">
    <radialGradient
       id="XMLID_3_"
       gradientUnits="userSpaceOnUse"
       cy="24.221001"
       cx="39.756001"
       gradientTransform="rotate(180,70.19,61.515)"
       r="120.09">
      <stop
         id="stop6"
         style="stop-color:#E88080"
         offset="0" />
      <stop
         id="stop8"
         style="stop-color:#DE4848"
         offset=".6181" />
      <stop
         id="stop10"
         style="stop-color:#D82A2A"
         offset="1" />
    </radialGradient>
    <path
       id="path12"
       style="fill:url(#XMLID_3_)"
       d="m 67.697,119.82 c 34.942,0 61.557,-25.644 64.317,-60.226 1.58,-19.809 -0.918,-40.315 -10.865,-57.748 -2.611,-1.459 -10.149,0 -13.112,0 -2.762,0 -9.751,-1.393 -11.364,1.805 -2.679,5.304 0.127,14.024 1.094,19.446 1.58,8.87 2.682,17.375 1.955,26.402 C 98.667,62.586 93.828,74.033 79.97,77.012 68.158,79.546 50.695,79.528 41.716,70.05 31.707,59.49 32.691,40.877 35.546,27.799 37.044,20.932 41.103,11.489 39.255,4.399 38.152,0.164 29.883,1.764 26.766,1.728 22.375,1.669 13.749,-0.486 11.507,3.723 6.041,13.971 2.808,24.95 1.688,36.504 -0.389,57.938 2.017,79.972 16.389,96.975 29.042,111.94 48.279,119.82 67.704,119.82" />
    <path
       id="path14"
       style="fill:#e5e5e5"
       d="m 131.27,37.805 c -0.921,-9.047 -2.576,-18.107 -5.783,-26.644 -0.451,-1.198 -3.217,-9.319 -4.482,-9.319 h -5.464 c -7.674,0 -19.95,-3.54 -19.67,7.253 0.196,7.574 2.227,15.067 3.336,22.535 0.972,6.537 0.015,6.175 6.214,6.175 h 25.84 m -97.402,0 C 34.738,27.882 38.686,18.454 39.449,8.537 39.977,1.672 36.501,1.845 31.025,1.775 24.954,1.7 18.884,1.625 12.81,1.546 10.913,1.525 6.973,14.191 6.383,15.979 4.055,23.047 2.593,30.396 1.905,37.805 h 31.954" />
    <linearGradient
       id="XMLID_4_"
       y2="583.92999"
       gradientUnits="userSpaceOnUse"
       y1="583.92999"
       gradientTransform="matrix(0,12.205,12.205,0,-7060.1,3307.9)"
       x2="-266.23999"
       x1="-268.14001">
      <stop
         id="stop17"
         style="stop-color:#919191"
         offset="0" />
      <stop
         id="stop19"
         style="stop-color:#919191"
         offset=".0056" />
      <stop
         id="stop21"
         style="stop-color:#BF0D00"
         offset="1" />
    </linearGradient>
    <path
       id="path23"
       style="fill:url(#XMLID_4_)"
       d="m 133.15,52.608 c 0,-10.226 -0.443,-20.501 -2.961,-30.46 -1.778,-7.036 -4.261,-21.252 -12.984,-21.252 -5.15,0 -12.748,-1.488 -17.681,0 C 90.589,1.013 96.787,22.5 97.527,26.75 99.84,40.009 102.206,62.443 89.779,72.058 80.581,79.174 63.73,78.443 53.118,75.663 39.017,71.969 35.263,58.664 34.68,45.513 34.198,34.58 37.524,24.487 39.555,13.869 40.184,10.58 41.458,5.482 39.332,2.441 37.75,0.184 33.673,0.863 31.334,0.834 27.576,0.784 13.76,-1.594 11.478,1.913 6,10.315 3,21.695 1.487,31.503 c -2.938,19.016 -2.112,39.8 7.687,56.819 14.843,25.779 46.697,37.219 75.123,30.58 30.928,-7.22 48.848,-35.537 48.848,-66.292 m -1.73,0 c 0,34.868 -23.729,64.123 -59.447,66.145 C 37.275,120.715 6.67,96.962 2.445,62.035 -0.007,41.771 3.339,20.425 13.201,2.503 17.964,2.557 22.725,2.624 27.489,2.682 33.246,2.755 39.296,1.046 38.555,8.886 36.76,27.857 27.847,46.557 37.179,65.203 43.302,77.437 57.15,79.258 69.502,79.044 80.509,78.852 91.86,76.473 96.924,65.588 104.335,49.657 99.663,31.587 97.319,15.167 96.582,10.001 94.989,2.793 101.839,2.793 h 17.051 c 5.063,0 8.566,15.372 9.658,19.741 2.46,9.829 2.87,19.991 2.87,30.079" />
    <path
       id="path25"
       style="fill:#ffa3a3"
       d="m 13.842,83.873 c 0,2.83 9.374,10.294 11.391,12.021 10.726,9.183 24.172,14.539 38.305,15.052 14.944,0.539 29.649,-3.849 42.247,-11.796 4.328,-2.729 8.4,-5.854 12.21,-9.27 0.515,-0.461 3.912,-4.399 4.675,-4.179 0.612,0.177 -12.533,14.285 -13.504,15.072 -12.204,9.93 -27.383,15.891 -43.197,15.891 -14.793,0 -28.845,-5.701 -39.604,-15.808 C 22.878,97.572 13.848,89.371 13.848,83.869" />
    <path
       id="path27"
       style="fill:#b20d0d"
       d="m 34.692,64.009 c 0.196,2.275 6.695,7.454 8.483,8.884 8.192,6.55 18.279,8.777 28.609,7.948 9.901,-0.796 26.275,-5.766 29.778,-16.91 -3.592,11.425 -14.2,19.624 -25.682,21.923 -15.076,3.015 -39.551,-3 -41.186,-21.845" />
    <path
       id="path29"
       style="fill:#ffffff"
       d="m 102.4,8.009 c 2.229,-4.608 16.587,7.405 16.066,9.742 0.063,-0.283 -4.482,-2.673 -5.126,-2.601 -1.48,0.167 6.305,14.689 7.322,14.479 -3.646,0.757 -11.687,-5.402 -13.663,-8.28 -1.72,-2.495 -6.16,-10.088 -4.6,-13.34" />
    <path
       id="path31"
       style="fill:#ffffff"
       d="M 19.027,34.021 C 17.605,32.25 15.848,30.488 13.76,29.528 9.386,27.516 10.079,32.158 7.441,32.896 9.124,32.425 12.339,5.814 19.403,13.057 c 4.221,4.326 13.22,27.401 -0.376,20.964" />
  </g>
  <metadata
     id="metadata1">
    <rdf:RDF>
      <cc:Work>
        <dc:format>image/svg+xml</dc:format>
        <dc:type
           rdf:resource="http://purl.org/dc/dcmitype/StillImage" />
        <cc:license
           rdf:resource="http://creativecommons.org/publicdomain/zero/1.0/" />
        <dc:publisher>
          <cc:Agent
             rdf:about="http://openclipart.org/">
            <dc:title>Openclipart</dc:title>
          </cc:Agent>
        </dc:publisher>
        <dc:title>Architetto -- Calamita</dc:title>
        <dc:date>2009-04-25T20:30:29</dc:date>
        <dc:description>U-shaped magnet by Francesco 'Architetto' Rollandin.</dc:description>
        <dc:source>https://openclipart.org/detail/25290/architetto----calamita-by-anonymous-25290</dc:source>
        <dc:creator>
          <cc:Agent>
            <dc:title>Anonymous</dc:title>
          </cc:Agent>
        </dc:creator>
        <dc:subject>
          <rdf:Bag>
            <rdf:li>magnet</rdf:li>
            <rdf:li>physics</rdf:li>
            <rdf:li>science</rdf:li>
            <rdf:li>technology</rdf:li>
            <rdf:li>tool</rdf:li>
          </rdf:Bag>
        </dc:subject>
      </cc:Work>
      <cc:License
         rdf:about="http://creativecommons.org/publicdomain/zero/1.0/">
        <cc:permits
           rdf:resource="http://creativecommons.org/ns#Reproduction" />
        <cc:permits
           rdf:resource="http://creativecommons.org/ns#Distribution" />
        <cc:permits
           rdf:resource="http://creativecommons.org/ns#DerivativeWorks" />
      </cc:License>
    </rdf:RDF>
  </metadata>
  <text
     xml:space="preserve"
     style="font-size:10.6667px;font-family:ABeeZee;-inkscape-font-specification:ABeeZee;text-align:center;text-anchor:middle;fill:#000000;stroke-width:1.88976"
     x="-28.886709"
     y="-16.106756"
     id="text1"><tspan
       sodipodi:role="line"
       id="tspan1"
       x="-28.886705"
       y="-16.106756">https://openclipart.org/detail/25290/architetto-calamita</tspan></text>
</svg>
