<?xml version="1.0" encoding="UTF-8" standalone="no"?>
<!-- Created with Inkscape (http://www.inkscape.org/) -->

<svg
   width="32.691277mm"
   height="28.049738mm"
   viewBox="0 0 32.691276 28.049737"
   version="1.1"
   id="svg40603"
   inkscape:version="1.2.1 (9c6d41e410, 2022-07-14)"
   sodipodi:docname="liquid.svg"
   xmlns:inkscape="http://www.inkscape.org/namespaces/inkscape"
   xmlns:sodipodi="http://sodipodi.sourceforge.net/DTD/sodipodi-0.dtd"
   xmlns="http://www.w3.org/2000/svg"
   xmlns:svg="http://www.w3.org/2000/svg">
  <sodipodi:namedview
     id="namedview40605"
     pagecolor="#ffffff"
     bordercolor="#000000"
     borderopacity="0.25"
     inkscape:showpageshadow="2"
     inkscape:pageopacity="0.0"
     inkscape:pagecheckerboard="0"
     inkscape:deskcolor="#d1d1d1"
     inkscape:document-units="mm"
     showgrid="false"
     inkscape:zoom="4.7572176"
     inkscape:cx="66.320279"
     inkscape:cy="77.776556"
     inkscape:window-width="1536"
     inkscape:window-height="961"
     inkscape:window-x="1912"
     inkscape:window-y="57"
     inkscape:window-maximized="1"
     inkscape:current-layer="layer1" />
  <defs
     id="defs40600" />
  <g
     inkscape:label="Layer 1"
     inkscape:groupmode="layer"
     id="layer1"
     transform="translate(-112.75683,-99.812301)">
    <path
       id="path18311"
       style="fill:none;stroke:#00c0ff;stroke-width:0.497417;stroke-linecap:round;stroke-linejoin:round;stroke-miterlimit:10;stroke-dasharray:none;stroke-opacity:1"
       d="m 136.32736,127.05945 -0.20108,0.0194 m 0.37359,-0.0374 -0.17251,0.018 m 0.37359,-0.018 h -0.20108 m 0.39547,-0.0194 -0.19439,0.0194 m 0.33902,-0.0194 h -0.14463 m 0.35948,0 h -0.21485 m 0.41628,0 h -0.20143 m 4.39208,-5.80708 0.0148,0.12559 m -0.0508,-0.26741 0.036,0.14182 m -0.0706,-0.28222 0.0346,0.1404 m -0.0854,-0.28257 0.0508,0.14217 m -0.10865,-0.25083 0.0579,0.10866 m -0.12952,-0.21908 0.0716,0.11042 m -0.14356,-0.2166 0.072,0.10618 m -0.0925,-0.20955 0.0205,0.10337 m -0.0205,-0.2286 v 0.12523 m -7.42068,3.46605 0.0645,0.1404 m -0.15834,-0.30586 0.0938,0.16546 m -0.16542,-0.32385 0.0716,0.15839 m -0.15838,-0.33619 0.0868,0.1778 m -0.15841,-0.33902 0.0716,0.16122 m -0.15698,-0.32385 0.0854,0.16263 m -0.14325,-0.30339 0.0579,0.14076 m -0.12987,-0.28681 0.072,0.14605 m -0.10763,-0.25083 0.0356,0.10478 m -0.0934,-0.32103 0.0579,0.21625 m -0.0939,-0.35666 0.036,0.14041 m -0.0152,-0.266 -0.0208,0.12559 m 0.036,-0.26599 -0.0152,0.1404 m 0.0371,-0.28786 -0.0219,0.14746 m 0.16548,-3.75391 -0.072,0.10619 m 0.14502,-0.21484 -0.073,0.10865 m 0.15838,-0.19826 -0.0854,0.0896 m 0.17218,-0.19861 -0.0868,0.10901 m 0.2011,-0.1778 -0.1143,0.0688 m 0.28645,-0.19439 -0.17215,0.12559 m 0.3309,-0.19861 -0.15875,0.073 m 0.32385,-0.16261 -0.1651,0.0896 m 3.70276,-1.89194 0.121,0.10477 m -0.26599,-0.21378 0.14499,0.10901 m -0.26741,-0.23425 0.12242,0.12524 m -0.24377,-0.25082 0.12135,0.12558 m -0.23706,-0.24659 0.11571,0.12101 m -0.2219,-0.2466 0.10619,0.12559 m -0.19297,-0.25082 0.0868,0.12523 m -0.17217,-0.25082 0.0854,0.12559 m -0.14467,-0.23566 0.0593,0.11007 m -0.1669,-0.30727 0.1076,0.1972 m -0.1584,-0.33902 0.0508,0.14182 m -0.0716,-0.24659 0.0208,0.10477 m -0.0208,-0.23001 v 0.12524 m 2.32198,-3.30447 0.14464,0.10477 m -0.31009,-0.21378 0.16545,0.10901 m -0.33761,-0.21767 0.17216,0.10866 m -0.28117,-0.1778 0.10901,0.0691 m -0.21484,-0.12554 0.10583,0.0564 m -0.2286,-0.1252 0.12277,0.0688 m -0.23036,-0.12524 0.10759,0.0564 m -0.32526,-0.14177 0.21767,0.0854 m -0.32385,-0.12562 0.10618,0.0402 m -0.20814,-0.10899 0.10196,0.0688 m -4.92619,-7.44538 -0.12136,0.0688 m 0.25894,-0.0938 -0.13758,0.025 m 0.33902,-0.025 h -0.20144 m 0.30868,0.025 -0.10724,-0.025 m 0.31679,0.0402 -0.20955,-0.0152 m 0.32526,0.0328 -0.11571,-0.0176 m 0.30868,0.0536 -0.19297,-0.036 m 0.32244,0.0882 -0.12947,-0.0522 m 0.21626,0.1418 -0.0868,-0.0896 m 0.0868,0.19861 v -0.10901 m 0.39546,4.21817 h 0.17251 m -0.33902,0 h 0.16651 m -0.31009,0 h 0.14358 m -0.25083,-0.0176 0.10725,0.0176 m -0.2727,-0.14319 0.16545,0.12559 m -3.21521,0.58702 0.10901,0.12524 m -0.19439,-0.25083 0.0854,0.12559 m -0.14184,-0.23036 0.0564,0.10477 m -0.092,-0.21343 0.0356,0.10866 m -0.0356,-0.39688 v 0.28822 m -0.67663,3.3969 0.10725,-0.10901 m -0.21626,0.1972 0.10901,-0.0882 m -0.20143,0.16123 0.0924,-0.073 m -0.26456,0.19823 0.17216,-0.12523 m -0.30163,0.17356 0.12947,-0.0483 m 2.05599,3.94685 0.0854,0.12524 m -0.15701,-0.21343 0.0716,0.0882 m -0.15169,-0.17781 0.0801,0.0896 m -0.15171,-0.17779 0.0716,0.0882 m -0.15838,-0.17781 0.0868,0.0896 m -0.17217,-0.16262 0.0854,0.073 m -0.25086,-0.21764 0.16546,0.14464 m -0.27411,-0.22896 0.10865,0.0843 m -0.0219,-0.15873 -0.0868,0.0744 m -7.082,-2.04361 0.0526,0.14887 m -0.12421,-0.30585 0.0716,0.15698 m -0.16368,-0.33478 0.0921,0.1778 m -0.12949,-0.28787 0.0374,0.11007 m -0.10901,-0.28787 0.0716,0.1778 m -0.14181,-0.31856 0.0702,0.14076 m -0.10054,-0.30339 0.0303,0.16263 m 1.94702,4.23333 0.0222,0.12559 m -0.0359,-0.27164 0.0138,0.14605 m -0.0138,-0.27128 v 0.12523 m 0,-0.33478 v 0.20955 m 0.0138,-0.35137 -0.0138,0.14182 m 0.036,-0.30304 -0.0222,0.16122 m 0.1806,-0.25082 -0.1584,0.0896 m 1.43722,5.62928 -0.0275,0.12523 m 0.0635,-0.25082 -0.036,0.12559 m 0.11432,-0.21908 -0.0783,0.0935 m 0.12945,-0.19968 -0.0511,0.10618 m 0.19433,-0.25082 -0.14323,0.14464 m 0.26599,-0.21379 -0.12276,0.0692 m 0.25223,-0.10624 -0.12947,0.037 m -3.54436,-0.2656 0.10196,0.0522 m -0.23848,-0.12558 0.13652,0.0734 m -0.27305,-0.0939 0.13653,0.0205 m -0.27975,-0.0523 0.14322,0.0318 m -0.28786,-0.0484 0.14464,0.0166 m -0.30304,-0.0413 0.1584,0.0247 m -0.32385,-0.0247 h 0.16545 m -0.33761,0 h 0.17216 m -0.3295,-0.0152 0.15734,0.0152 m -0.32244,-0.0318 0.1651,0.0166 m -0.31009,-0.0166 h 0.14499 m -0.40957,-0.037 0.26458,0.037 m -0.48225,-0.0522 0.21767,0.0152 m -0.35948,-0.0318 0.14181,0.0166 m -0.32243,-0.0731 0.18062,0.0564 m -3.23709,-4.12851 0.0953,0.10865 m -0.18067,-0.23424 0.0854,0.12559 m -0.13515,-0.23566 0.0498,0.11007 m -0.12282,-0.30304 0.073,0.19297 m -0.12239,-0.375 0.0494,0.18203 m -0.0716,-0.30727 0.0222,0.12524 m -0.0222,-0.28399 v 0.15875 m 0,-0.28398 v 0.12523 m 0.56797,4.37551 v 0.12523 m 0,-0.25082 v 0.12559 m 0,-0.25083 v 0.12524 m 0,-0.266 v 0.14076 m 0,-0.26599 v 0.12523 m 0,-0.26705 v 0.14182 m 0,-0.28399 v 0.14217 m 0,-0.39299 v 0.25082 m 0,-0.42862 v 0.1778 m 0,-0.32385 v 0.14605 m -0.0138,-0.27129 0.0138,0.12524 m -0.13657,-0.30304 0.12277,0.1778 m -3.74579,-4.16454 0.13511,0.0399 m -0.28646,-0.0731 0.15135,0.0332 m -0.29493,-0.0523 0.14358,0.019 m -0.29492,-0.0522 0.15134,0.0332 m -0.31679,-0.0484 0.16545,0.0152 m -0.34466,-0.0399 0.17921,0.0247 m -0.34466,-0.0247 h 0.16545 m -0.32385,0 h 0.1584 m -0.29493,0 h 0.13653 m -0.30163,0 h 0.1651 m -0.28786,0 h 0.12276 m -0.34607,0 h 0.22331 m -0.35843,0 h 0.13512 m -0.34431,0 h 0.20919 m 3.14078,-2.14312 0.14323,-0.0328 m -0.28645,0.0522 0.14322,-0.0194 m -0.2868,0.0402 0.14358,-0.0208 m -0.30198,0.0208 h 0.1584 m -0.33902,-0.0208 0.18062,0.0208 m -0.35278,-0.0402 0.17216,0.0194 m -0.33761,-0.037 0.16545,0.0176 m -0.32385,-0.0522 0.1584,0.0346 m -0.31539,-0.0678 0.15699,0.0332 m -0.32244,-0.0731 0.16545,0.0399 m -0.28821,-0.0731 0.12276,0.0332 m -0.24518,-0.0688 0.12242,0.0356 m -0.22296,-0.073 0.10054,0.0374 m -0.27305,-0.10901 0.17251,0.0716 m -0.31715,-0.12522 0.14464,0.0536 m -0.27411,-0.10617 0.12947,0.0526 m -0.2286,-0.12562 0.0991,0.073 m 4.97596,-2.76963 -0.10054,0.14464 m 0.16404,-0.30727 -0.0635,0.16263 m 0.12277,-0.33902 -0.0593,0.17639 m 0.0731,-0.39159 -0.0138,0.2152 m 4e-5,-0.32103 0.0138,0.10583 m -0.0357,-0.21343 0.0219,0.1076 m -0.0593,-0.21378 0.0374,0.10618 m -0.072,-0.23142 0.0346,0.12524 m -0.0924,-0.23425 0.0579,0.10901 m -0.16656,-0.30339 0.10866,0.19438 m -0.23002,-0.3556 0.12136,0.16122 m -0.2219,-0.28645 0.10054,0.12523 m -0.17921,-0.21484 0.0787,0.0896 m -0.15172,-0.28398 0.073,0.19438 m 3.58707,3.19828 0.10054,0.15875 m -0.20108,-0.33655 0.10054,0.1778 m -0.13653,-0.3182 0.036,0.1404 m -0.0716,-0.30586 0.0356,0.16546 m -0.0356,-0.29069 v 0.12523 m 0,-0.33619 v 0.21096 m 0,-0.32103 v 0.11007 m 0.0497,-0.21767 -0.0497,0.1076 m 0.25079,-0.16122 -0.20109,0.0536 m 4.04178,-3.14182 0.21484,0.0508 m -0.34607,-0.0882 0.13123,0.0374 m -0.23707,-0.0579 0.10584,0.0205 m -0.2286,-0.0371 0.12276,0.0166 m -0.2674,-0.0332 0.14464,0.0166 m -0.28928,-0.0512 0.14464,0.0346 m -0.28681,-0.0346 h 0.14217 m -0.27975,-0.018 0.13758,0.018 m -0.26705,-0.018 h 0.12947 m -0.27305,-0.019 0.14358,0.019 m -0.25083,-0.019 h 0.10725 m -0.30163,0 h 0.19438 m -0.31715,0 h 0.12277 m -0.28116,0 h 0.15839 m 1.79846,-3.00143 0.0427,0.14041 m -0.0924,-0.28505 0.0497,0.14464 m -0.0867,-0.28681 0.037,0.14217 m -0.073,-0.30056 0.036,0.15839 m -0.036,-0.30727 v 0.14888 m -0.0219,-0.30727 0.0219,0.15839 m -3e-5,-0.28363 -0.0219,0.12524 m 0.0357,-0.266 -0.0138,0.14076 m 0.1228,-0.31856 -0.109,0.1778 m 0.23706,-0.30303 -0.12806,0.12523 m 0.28646,-0.17886 -0.1584,0.0536 m 0.32385,-0.0938 -0.16545,0.0402 m 0.33761,-0.0568 -0.17216,0.0166 m 0.29493,-0.0166 h -0.12277 m 0.23707,0 h -0.1143 m -3.42301,1.52153 0.0166,0.14181 m -0.0304,-0.28363 0.0138,0.14182 m -0.036,-0.26741 0.0222,0.12559 m -0.0564,-0.26741 0.0342,0.14182 m -0.0702,-0.25082 0.036,0.109 m -0.0716,-0.23424 0.0356,0.12524 m -0.0716,-0.23425 0.036,0.10901 m -0.14501,-0.30621 0.10901,0.1972 m -0.25223,-0.37606 0.14322,0.17886 m -0.20778,-0.26847 0.0646,0.0896 m -0.15844,-0.17779 0.0938,0.0882 m -0.18764,-0.17781 0.0938,0.0896 m -0.18058,-0.17779 0.0868,0.0882 m -0.17218,-0.17781 0.0854,0.0896 m -0.17923,-0.16262 0.0938,0.073 m -0.17918,-0.15696 0.0854,0.084 m -0.18029,-0.17784 0.0949,0.0938 m -0.18063,-0.18199 0.0857,0.0882 m -0.17107,-0.17781 0.0854,0.0896 m -0.26461,-0.23142 0.17921,0.14182 m -0.27411,-0.21484 0.0949,0.073 m -0.19403,-0.14462 0.0991,0.0716 m 14.94758,7.86308 -0.16545,-0.11042 m 0.32385,0.19862 -0.1584,-0.0882 m 0.26458,0.12524 -0.10618,-0.037 m 0.21519,0.073 -0.10901,-0.036 m 0.23848,0.0692 -0.12947,-0.0332 m 0.25082,0.0717 -0.12135,-0.0385 m 0.35278,0.0921 -0.23143,-0.0536 m 0.35278,0.0868 -0.12135,-0.0332 m 0.23706,0.0484 -0.11571,-0.0152 m 0.23813,0.0565 -0.12242,-0.0413 m 0.33056,0.0773 -0.20814,-0.036 m 0.32244,0.0512 -0.1143,-0.0152 m 0.23706,0.0152 h -0.12276 m 0.3309,-0.036 -0.20814,0.036 m 0.32385,-0.0512 -0.11571,0.0152 m 0.23707,-0.0565 -0.12136,0.0413 m 0.23001,-0.0745 -0.10865,0.0332 m 0.21484,-0.0688 -0.10619,0.0356 m 0.2152,-0.0688 -0.10901,0.0332 m 0.23142,-0.0717 -0.12241,0.0385 m 0.23001,-0.0925 -0.1076,0.054 m 0.2152,-0.12562 -0.1076,0.0716 m 0.21484,-0.14039 -0.10724,0.0688 m 0.21625,-0.14323 -0.10901,0.0744 m 0.20955,-0.1626 -0.10054,0.0882 m 0.21484,-0.17639 -0.1143,0.0882 m 0.22331,-0.17781 -0.10901,0.0896 m 0.20814,-0.19578 -0.0991,0.10618 m 0.18588,-0.21378 -0.0868,0.1076 m 0.20146,-0.23284 -0.11466,0.12524 m 0.20144,-0.25083 -0.0868,0.12559 m 0.17358,-0.25082 -0.0868,0.12523 m 0.18029,-0.26846 -0.0935,0.14323 m 0.18593,-0.28399 -0.0924,0.14076 m 0.16542,-0.28681 -0.073,0.14605 m 0.13791,-0.30304 -0.0649,0.15699 m 0.12135,-0.32244 -0.0565,0.16545 m 0.12247,-0.32385 -0.066,0.1584 m 0.12279,-0.3362 -0.0568,0.1778 m 0.0924,-0.33901 -0.0356,0.16121 m 0.0716,-0.32385 -0.036,0.16264 m 0.0579,-0.32385 -0.0219,0.16121 m 0.0219,-0.33901 v 0.1778 m 0,-0.3362 v 0.1584 m -0.0219,-0.34044 0.0219,0.18204 m -0.0579,-0.34325 0.036,0.16121 m -0.0716,-0.31961 0.0356,0.1584 m -0.0716,-0.29881 0.036,0.14041 m -0.0924,-0.30304 0.0564,0.16263 m -0.10756,-0.30339 0.0512,0.14076 m -0.12281,-0.30586 0.0716,0.1651 m -0.13616,-0.29069 0.0646,0.12559 m -0.16549,-0.26881 0.10089,0.14322 m -0.18627,-0.26881 0.0854,0.12559 m -0.17359,-0.25083 0.0882,0.12524 m -0.19544,-0.2286 0.10724,0.10336 m -0.20814,-0.20955 0.1009,0.10619 m -0.21661,-0.19862 0.11571,0.0924 m -0.23671,-0.20246 0.121,0.11006 m -0.24377,-0.1778 0.12277,0.0677 m -0.25224,-0.15695 0.12947,0.0892 m -0.27305,-0.15834 0.14358,0.0691 m -0.27975,-0.16118 0.13617,0.0921 m -0.30162,-0.16512 0.16545,0.073 m -0.32385,-0.14356 0.1584,0.0706 m -0.32385,-0.10482 0.16545,0.0342 m -0.33761,-0.0882 0.17216,0.054 m -0.35278,-0.0731 0.18062,0.0191 m -0.35983,-0.0523 0.17921,0.0332 m -0.33761,-0.0332 h 0.1584 m -0.34573,0 h 0.18733 m -0.33761,0.0332 0.15028,-0.0332 m -0.33619,0.0523 0.18591,-0.0191 m -0.34466,0.0731 0.15875,-0.054 m -0.31715,0.10621 0.1584,-0.0522 m -0.30304,0.12523 0.14464,-0.073 m -0.28787,0.14461 0.14323,-0.0716 m -0.27975,0.1598 0.13652,-0.0882 m -0.2868,0.17357 0.15028,-0.0854 m -0.2727,0.19582 0.12242,-0.11042 m -0.25894,0.21943 0.13652,-0.10901 m -0.27305,0.23424 0.13653,-0.12523 m -0.25894,0.23424 0.12241,-0.10901 m -0.24518,0.23425 0.12277,-0.12524 m -0.25224,0.25083 0.12947,-0.12559 m -0.23001,0.28257 0.10054,-0.15698 m -0.2219,0.2988 0.12136,-0.14182 m -0.23707,0.30304 0.11571,-0.16122 m -0.22472,0.31962 0.10901,-0.1584 m -0.17251,0.32385 0.0635,-0.16545 m -0.13511,0.32808 0.0716,-0.16263 m -0.12945,0.32103 0.0579,-0.1584 m -0.12246,0.29915 0.0646,-0.14075 m -0.10764,0.31855 0.043,-0.1778 m -0.0786,0.3429 0.0356,-0.1651 m -0.073,0.3429 0.0374,-0.1778 m -0.073,0.33655 0.0356,-0.15875 m -0.0356,0.3362 v -0.17745 m 0,0.3429 v -0.16545 m 0,0.32385 v -0.1584 m 0,0.31962 v -0.16122 m 0.0356,0.31997 -0.0356,-0.15875 m 0.0497,0.31997 -0.0141,-0.16122 m 0.0512,0.32244 -0.037,-0.16122 m 0.0589,0.30727 -0.0219,-0.14605 m 0.0787,0.30445 -0.0568,-0.1584 m 0.0924,0.31962 -0.0356,-0.16122 m 0.0867,0.30303 -0.0511,-0.14181 m 0.0867,0.28257 -0.0356,-0.14076 m 0.10721,0.28681 -0.0716,-0.14605 m 0.12134,0.28787 -0.0497,-0.14182 m 0.10897,0.266 -0.0593,-0.12418 m 0.10904,0.23424 -0.0497,-0.11006 m 0.10615,0.21484 -0.0564,-0.10478 m 0.11566,0.2152 -0.0593,-0.11042 m 0.18066,0.30444 -0.12136,-0.19402 m 0.18733,0.28645 -0.066,-0.0924 m 0.1362,0.1806 -0.0702,-0.0882 m 0.16404,0.19297 -0.0938,-0.10477 m 0.16541,0.19438 -0.0716,-0.0896 m 0.15839,0.18344 -0.0868,-0.0938 m 0.17358,0.17917 -0.0868,-0.0854 m 0.17923,0.17359 -0.0924,-0.0882 m 0.18624,0.18063 -0.0938,-0.0924 m 0.18058,0.17777 -0.0868,-0.0854 m 0.17358,0.15843 -0.0868,-0.073 m 0.22862,0.18165 -0.14182,-0.10865 m 5.35482,8.46808 -0.17357,-0.0166 m 0.35983,1e-5 -0.18626,0.0166 m 0.37359,-0.0526 -0.18733,0.036 m 0.3168,-0.0526 -0.12947,0.0166 m 0.23848,-0.0536 -0.10901,0.037 m 0.23036,-0.073 -0.12135,0.036 m 0.23001,-0.0716 -0.10866,0.0356 m 0.23813,-0.0896 -0.12947,0.054 m 0.22895,-0.10621 -0.0995,0.0522 m 0.23038,-0.10335 -0.13088,0.0512 m 0.23672,-0.12564 -0.10584,0.0744 m 0.21484,-0.14742 -0.109,0.073 m 0.20955,-0.14462 -0.10055,0.0716 m 0.20814,-0.15556 -0.10759,0.084 m 0.20108,-0.17502 -0.0935,0.091 m 0.18734,-0.18342 -0.0938,0.0924 m 0.1573,-0.17778 -0.0635,0.0854 m 0.15169,-0.19264 -0.0882,0.10724 m 0.1584,-0.21766 -0.0702,0.11042 m 0.15029,-0.2152 -0.0801,0.10478 m 0.15171,-0.21343 -0.0716,0.10865 m 0.13616,-0.21484 -0.0646,0.10619 m 0.12245,-0.23178 -0.0579,0.12559 m 0.10764,-0.25082 -0.0497,0.12523 m 0.10086,-0.25082 -0.0512,0.12559 m 0.10905,-0.25083 -0.0579,0.12524 m 0.10059,-0.26564 -0.0427,0.1404 m 0.0783,-0.26599 -0.0356,0.12559 m 0.0494,-0.26741 -0.0138,0.14182 m 0.029,-0.28787 -0.0152,0.14605 m 0.036,-0.28681 -0.0208,0.14076 m 0.036,-0.28398 -0.0152,0.14322 m 0.0152,-0.28786 v 0.14464 m 0,-0.30586 v 0.16122 m 0,-0.32385 v 0.16263 m -0.0152,-0.31856 0.0152,0.15593 m -0.0512,-0.31821 0.036,0.16228 m -0.0716,-0.32385 0.0356,0.16157 m -0.0783,-0.33902 0.0427,0.17745 m -0.0938,-0.32103 0.0511,0.14358 m -0.10049,-0.28822 0.0494,0.14464 m -0.12137,-0.28645 0.072,0.14181 m -0.14502,-0.28363 0.073,0.14182 m -0.1432,-0.26741 0.0702,0.12559 m -0.1651,-0.266 0.0949,0.14041 m -0.16687,-0.26599 0.072,0.12558 m -0.13515,-0.25082 0.0632,0.12524 m -0.13622,-0.25083 0.073,0.12559 m -0.15837,-0.27164 0.0854,0.14605 m -0.18736,-0.25082 0.10196,0.10477 m -0.18768,-0.23001 0.0857,0.12524 m -0.18624,-0.23425 0.10054,0.10901 m -0.20814,-0.23424 0.1076,0.12523 m -0.22331,-0.23001 0.11571,0.10478 m -0.21484,-0.2152 0.0991,0.11042 m -0.20776,-0.21625 0.10866,0.10583 m -0.23142,-0.21343 0.12276,0.1076 m -0.25082,-0.19297 0.12806,0.0854 m -0.25083,-0.19441 0.12277,0.10901 m -0.24554,-0.18345 0.12277,0.0744 m -0.25082,-0.16259 0.12805,0.0882 m -0.25223,-0.14041 0.12418,0.0522 m -0.26741,-0.12523 0.14323,0.073 m -0.27129,-0.12556 0.12806,0.0526 m -0.2727,-0.10481 0.14464,0.0522 m -0.28116,-0.0882 0.13652,0.036 m -0.30197,-0.073 0.16545,0.037 m -0.32385,-0.0564 0.1584,0.0194 m -0.31539,-0.0526 0.15699,0.0332 m -0.32244,-0.0332 h 0.16545 m -0.33902,-0.0205 0.17357,0.0205 m -0.33902,-0.0205 h 0.16545 m -0.34466,0 h 0.17921 m -0.34466,0.037 0.16545,-0.037 m -0.32385,0.0536 0.1584,-0.0166 m -0.29598,0.073 0.13758,-0.0564 m -0.30163,0.0924 0.16405,-0.036 m -0.30057,0.10338 0.13652,-0.0674 m -0.28116,0.12525 0.14464,-0.0579 m -0.29633,0.14328 0.15169,-0.0854 m -0.30198,0.15842 0.15029,-0.073 m -0.27835,0.18201 0.12806,-0.10901 m -0.27269,0.19297 0.14463,-0.084 m -0.25364,0.19442 0.10901,-0.11042 m -0.23002,0.21802 0.12101,-0.1076 m -0.21484,0.23283 0.0938,-0.12523 m -0.17918,0.25082 0.0854,-0.12559 m -0.15842,0.25083 0.073,-0.12524 m -0.15837,0.25047 0.0854,-0.12523 m -0.15843,0.26882 0.073,-0.14359 m -0.15167,0.28399 0.0787,-0.1404 m -0.12844,0.28645 0.0497,-0.14605 m -0.12272,0.27164 0.073,-0.12559 m -0.12239,0.28258 0.0494,-0.15699 m -0.12102,0.2988 0.0716,-0.14181 m -0.10758,0.30444 0.036,-0.16263 m -0.0734,0.32809 0.0374,-0.16546 m -0.0512,0.33902 0.0137,-0.17356 m -0.0493,0.33619 0.0356,-0.16263 m -0.0356,0.35984 v -0.19721 m -0.0222,0.37642 0.0222,-0.17921 m -0.0222,0.37182 v -0.19261 m 0,0.37606 v -0.18345 m 0.0222,0.35984 -0.0222,-0.17639 m 0.0222,0.35419 v -0.1778 m 0.0356,0.34043 -0.0356,-0.16263 m 0.0493,0.32385 -0.0137,-0.16122 m 0.0511,0.3182 -0.0374,-0.15698 m 0.0734,0.2988 -0.036,-0.14182 m 0.0925,0.30445 -0.0565,-0.16263 m 0.0854,0.30339 -0.0289,-0.14076 m 0.10193,0.30762 -0.073,-0.16686 m 0.12239,0.30727 -0.0494,-0.14041 m 0.12807,0.28222 -0.0787,-0.14181 m 0.15172,0.2674 -0.073,-0.12559 m 0.15838,0.27023 -0.0854,-0.14464 m 0.15842,0.26988 -0.073,-0.12524 m 0.1806,0.25083 -0.1076,-0.12559 m 0.20144,0.25082 -0.0938,-0.12523 m 0.19293,0.25082 -0.0991,-0.12559 m 0.20775,0.22755 -0.10865,-0.10196 m 0.21625,0.21061 -0.1076,-0.10865 m 0.2152,0.21907 -0.1076,-0.11042 m 0.23001,0.21378 -0.12241,-0.10336 m 0.24377,0.19438 -0.12136,-0.091 m 0.25929,0.1792 -0.13793,-0.0882 m 0.23706,0.18168 -0.0991,-0.0935 m 0.22187,0.17782 -0.12277,-0.0843 m 0.24518,0.17637 -0.12241,-0.0921 m 0.25224,0.16513 -0.12983,-0.073 m 0.25224,0.14214 -0.12241,-0.0691 m 0.26599,0.12554 -0.14358,-0.0564 m 0.29492,0.10862 -0.15134,-0.0522 m 0.28646,0.10053 -0.13512,-0.0483 m 0.25788,0.0896 -0.12276,-0.0413 m 0.2741,0.0939 -0.15134,-0.0526 m 0.28928,0.084 -0.13794,-0.0314 m 0.28681,0.073 -0.14887,-0.0416 m 0.28646,0.0582 -0.13759,-0.0166 m 0.29634,0.0166 h -0.15875 m 0.30868,0 h -0.14993 m 0.30868,0 h -0.15875 m 0.31714,-0.0166 -0.15839,0.0166 m 0.32243,-0.0582 -0.16404,0.0416 m 0.30163,-0.073 -0.13759,0.0314 m 0.28928,-0.0674 -0.15169,0.036 m 0.28822,-0.072 -0.13653,0.036 m 0.33091,-0.0896 -0.19438,0.0536 m -5.93125,-0.2314 0.16545,0.0166 m -0.33902,-0.0579 0.17357,0.0413 m -0.35949,-0.0413 h 0.18592 m -0.37359,0 h 0.18767 m -0.29633,0 h 0.10866 m -0.3235,0.0247 0.21484,-0.0247 m -0.32244,0.0413 0.1076,-0.0166 m -0.21519,0.0526 0.10759,-0.036 m -0.30198,0.0843 0.19439,-0.0483 m -0.38841,0.12521 0.19402,-0.0769 m -0.39546,0.1665 0.20144,-0.0896 m -0.38171,0.17356 0.18027,-0.084 m -0.27411,0.14221 0.0938,-0.0582 m -0.25078,0.18344 0.15698,-0.12524 m -0.29351,0.25047 0.13653,-0.12523 m -0.266,0.2868 0.12947,-0.16157 m -0.23707,0.31856 0.1076,-0.15699 m -0.2166,0.31962 0.109,-0.16263 m -0.15839,0.32103 0.0494,-0.1584 m -0.0991,0.33902 0.0497,-0.18062 m -0.0497,0.29069 v -0.11007 m -0.0233,0.31962 0.0233,-0.20955 m -0.0233,0.31856 v -0.10901 m 0,0.23424 v -0.12523 m 0,0.23565 v -0.11042 m 0,0.33902 v -0.2286 m 0.0233,0.35384 -0.0233,-0.12524 m 0.0371,0.25083 -0.0138,-0.12559 m 0.0498,0.26881 -0.036,-0.14322 m 0.0579,0.26881 -0.0219,-0.12559 m 0.0494,0.266 -0.0275,-0.14041 m 0.0497,0.28223 -0.0222,-0.14182 m 0.0582,0.29069 -0.036,-0.14887 m 0.073,0.29245 -0.037,-0.14358 m 0.0716,0.29915 -0.0346,-0.15557 m 0.0635,0.30303 -0.0289,-0.14746 m 0.0645,0.30304 -0.0356,-0.15558 m 0.0716,0.31821 -0.036,-0.16263 m 0.0939,0.32103 -0.0579,-0.1584 m 0.11575,0.32385 -0.0579,-0.16545 m 0.10764,0.32667 -0.0497,-0.16122 m 0.0853,0.30339 -0.0356,-0.14217 m 0.10863,0.28399 -0.073,-0.14182 m 0.12274,0.26705 -0.0497,-0.12523 m 0.12131,0.26599 -0.0716,-0.14076 m 0.1224,0.28822 -0.0508,-0.14746 m 0.12947,0.2727 -0.0787,-0.12524 m 0.15032,0.25083 -0.0716,-0.12559 m 0.15838,0.25082 -0.0868,-0.12523 m 0.15841,0.25082 -0.0716,-0.12559 m 0.15839,0.25083 -0.0868,-0.12524 m 0.16547,0.2286 -0.0787,-0.10336 m 0.16548,0.20955 -0.0868,-0.10619 m 0.17217,0.21484 -0.0854,-0.10865 m 0.19441,0.21484 -0.10901,-0.10619 m 0.20144,0.19862 -0.0924,-0.0924 m 0.19435,0.19717 -0.10195,-0.10477 m 0.19438,0.19297 -0.0924,-0.0882 m 0.21481,0.1778 -0.12241,-0.0896 m 0.25188,0.17921 -0.12947,-0.0896 m 0.266,0.17779 -0.13653,-0.0882 m 0.25929,0.16123 -0.12276,-0.073 m 0.27305,0.14602 -0.15029,-0.073 m 0.28787,0.14603 -0.13758,-0.073 m 0.29457,0.12097 -0.15699,-0.048 m 0.32244,0.1048 -0.16545,-0.0568 m 0.34466,0.0924 -0.17921,-0.0356 m 0.34466,0.0522 -0.16545,-0.0166 m 0.33902,0.0332 -0.17357,-0.0166 m 0.33902,0.0166 h -0.16545 m 0.32385,-0.0166 -0.1584,0.0166 m 0.3168,-0.0332 -0.1584,0.0166 m 0.30021,-0.0522 -0.14181,0.0356 m 0.28681,-0.0716 -0.145,0.036 m 0.28117,-0.0896 -0.13617,0.0536 m 0.2741,-0.11005 -0.13793,0.0565 m 0.25929,-0.10906 -0.12136,0.0526 m 0.24377,-0.12139 -0.12241,0.0688 m 0.25224,-0.14183 -0.12983,0.073 m 0.25083,-0.14461 -0.121,0.0716 m 0.24377,-0.14075 -0.12277,0.0692 m 0.23036,-0.16268 -0.10759,0.0935 m 0.21484,-0.17782 -0.10725,0.0843 m 0.21626,-0.17637 -0.10901,0.0921 m 0.20814,-0.19829 -0.0991,0.10619 m 0.21481,-0.21661 -0.11571,0.11042 m 0.20143,-0.21484 -0.0857,0.10442 m 0.1806,-0.2092 -0.0949,0.10478 m 0.18027,-0.21378 -0.0854,0.109 m 0.15172,-0.23424 -0.0663,0.12524 m 0.14462,-0.25083 -0.0783,0.12559 m 0.14886,-0.26599 -0.0706,0.1404 m 0.12281,-0.28787 -0.0522,0.14747 m 0.10864,-0.28822 -0.0564,0.14075 m 0.10614,-0.28257 -0.0497,0.14182 m 0.0853,-0.30445 -0.0356,0.16263 m 0.073,-0.32244 -0.0374,0.15981 m 0.0512,-0.32244 -0.0138,0.16263 m 0.0357,-0.32103 -0.0219,0.1584 m 0.0219,-0.31962 v 0.16122 m 0,-0.32385 v 0.16263 m 0,-0.32385 v 0.16122 m -0.0219,-0.30197 0.0219,0.14075 m -0.0565,-0.30339 0.0346,0.16264 m -0.0716,-0.30304 0.037,0.1404 m -0.073,-0.28645 0.036,0.14605 m -0.0868,-0.28787 0.0508,0.14182 m -0.10054,-0.28258 0.0497,0.14076 m -0.12273,-0.28257 0.073,0.14181 m -0.15167,-0.30868 0.0787,0.16687 m -0.16548,-0.28822 0.0868,0.12135 m -0.17217,-0.26599 0.0854,0.14464 m -0.19406,-0.266 0.10866,0.12136 m -0.21484,-0.26741 0.10618,0.14605 m -0.21519,-0.25047 0.10901,0.10442 m -0.23178,-0.23001 0.12277,0.12559 m -0.24377,-0.21943 0.121,0.0938 m -0.25047,-0.19822 0.12947,0.10442 m -0.25224,-0.19402 0.12277,0.0896 m -0.266,-0.1778 0.14323,0.0882 m -0.28681,-0.18063 0.14358,0.0924 m -0.28821,-0.17777 0.14463,0.0854 m -0.28081,-0.15842 0.13618,0.073 m -0.30022,-0.16543 0.16404,0.0924 m -0.30868,-0.1626 0.14464,0.0702 m -0.31009,-0.14323 0.16545,0.073 m -0.32385,-0.12556 0.1584,0.0526 m -0.31715,-0.12563 0.15875,0.073 m -0.32385,-0.10334 0.1651,0.0303 m -0.32385,-0.0839 0.15875,0.0536 m -0.32244,-0.0702 0.16369,0.0166 m -0.31538,-0.0565 0.15169,0.0399 m -0.31009,-0.0551 0.1584,0.0152 m -0.32385,-0.0374 0.16545,0.0222 m -0.30868,-0.0222 h 0.14323 m -0.30198,-0.0152 0.15875,0.0152 m -0.30198,-0.0152 h 0.14323 m -0.39546,0 h 0.25223 m -0.35948,0 h 0.10725 m -8.06697,3.55953 0.17356,-0.12524 m -0.26599,0.19297 0.0924,-0.0677 m -0.18589,0.14073 0.0935,-0.073 m -0.15841,0.15837 0.0649,-0.0854 m -0.15838,0.16125 0.0935,-0.0759 m -0.15841,0.16127 0.0649,-0.0854 m -0.14357,0.15843 0.0787,-0.073 m -0.1295,0.16542 0.0508,-0.0924 m -0.12242,0.17778 0.0716,-0.0854 m -0.10758,0.19546 0.036,-0.11006 m -0.0868,0.21343 0.0508,-0.10337 m -0.073,0.21379 0.0222,-0.11042 m -0.0359,0.32102 0.0138,-0.2106 m -0.0346,0.3182 0.0208,-0.1076 m 2e-5,0.21802 -0.0208,-0.11042 m 0.0208,0.22049 v -0.11007 m 0.0138,0.23424 -0.0138,-0.12417 m 0.036,0.24941 -0.0222,-0.12524 m 0.0592,0.24942 -0.037,-0.12418 m 0.0508,0.24941 -0.0138,-0.12523 m 0.0498,0.248 -0.036,-0.12277 m 0.0716,0.24801 -0.0356,-0.12524 m 0.0716,0.25083 -0.036,-0.12559 m 0.0716,0.25082 -0.0356,-0.12523 m 0.0659,0.2674 -0.0303,-0.14217 m 0.073,0.26741 -0.0427,-0.12524 m 0.0995,0.25083 -0.0568,-0.12559 m 0.10619,0.25082 -0.0494,-0.12523 m 0.10196,0.25047 -0.0526,-0.12524 m 0.0868,0.25083 -0.0342,-0.12559 m 0.0854,0.25082 -0.0512,-0.12523 m 0.10765,0.23001 -0.0564,-0.10478 m 0.12237,0.23037 -0.066,-0.12559 m 0.1295,0.23424 -0.0635,-0.10865 m 0.15028,0.21343 -0.0868,-0.10478 m 0.15842,0.2152 -0.0716,-0.11042 m 0.15732,0.21378 -0.0857,-0.10336 m 0.15873,0.21343 -0.073,-0.11007 m 0.16507,0.22049 -0.0921,-0.11042 m 0.16513,0.19438 -0.073,-0.084 m 0.15872,0.17784 -0.0857,-0.0938 m 0.17389,0.18199 -0.0882,-0.0882 m 0.20109,0.17357 -0.11289,-0.0854 m 0.20109,0.15843 -0.0882,-0.073 m 0.19438,0.14461 -0.10618,-0.0716 m 0.20814,0.14463 -0.10196,-0.073 m 0.23143,0.14179 -0.12947,-0.0688 m 0.23706,0.14183 -0.10759,-0.073 m 0.24377,0.14073 -0.13618,-0.0677 m 0.28787,0.12555 -0.15169,-0.0579 m 0.2868,0.0935 -0.13511,-0.0356 m 0.26458,0.0674 -0.12947,-0.0318 m 0.27411,0.0731 -0.14464,-0.0413 m 0.28928,0.0579 -0.14464,-0.0166 m 0.27976,0.0332 -0.13512,-0.0166 m 0.28681,0.0166 h -0.15169 m 0.31009,0 h -0.1584 m 0.30868,-0.0166 -0.15028,0.0166 m 0.33761,-0.0565 -0.18733,0.0399 m 0.34572,-0.0731 -0.15839,0.0332 m 0.32385,-0.0854 -0.16546,0.0522 m 0.30057,-0.11005 -0.13511,0.0579 m 0.29351,-0.12563 -0.1584,0.0677 m 0.31009,-0.15731 -0.15169,0.0896 m 0.28927,-0.17885 -0.13758,0.0892 m 0.25894,-0.1774 -0.12136,0.0882 m 0.25083,-0.19721 -0.12947,0.10901 m 0.25894,-0.21801 -0.12947,0.109 m 0.23036,-0.21484 -0.10089,0.10584 m 0.21519,-0.22578 -0.1143,0.11994 m 0.21484,-0.23036 -0.10054,0.11042 m 0.19438,-0.23566 -0.0938,0.12524 m 0.17918,-0.266 -0.0854,0.14076 m 0.15842,-0.28681 -0.073,0.14605 m 0.13086,-0.28786 -0.0579,0.14181 m 0.0925,-0.28363 -0.0346,0.14182 m 0.0854,-0.28681 -0.0508,0.14499 m 0.0882,-0.29104 -0.0374,0.14605 m 0.0716,-0.28787 -0.0342,0.14182 m 0.0494,-0.30304 -0.0152,0.16122 m 0.036,-0.31961 -0.0208,0.15839 m 0.036,-0.31961 -0.0152,0.16122 m 0.0152,-0.32244 v 0.16122 m 0,-0.32385 v 0.16263 m 0,-0.31997 v 0.15734 m -0.0152,-0.33479 0.0152,0.17745 m -0.036,-0.35948 0.0208,0.18203 m -0.0564,-0.36124 0.0356,0.17921 m -0.0645,-0.33479 0.0289,0.15558 m -0.0663,-0.31821 0.0374,0.16263 m -0.073,-0.3048 0.0356,0.14217 m -0.0924,-0.30868 0.0568,0.16651 m -0.11324,-0.2921 0.0564,0.12559 m -0.12943,-0.26599 0.073,0.1404 m -0.13756,-0.26599 0.0646,0.12559 m -0.15844,-0.266 0.0938,0.14041 m -0.17917,-0.266 0.0854,0.12559 m -0.18065,-0.25082 0.0952,0.12523 m -0.18057,-0.24659 0.0854,0.12136 m -0.193,-0.2466 0.1076,0.12524 m -0.20814,-0.23566 0.10054,0.11042 m -0.21625,-0.23565 0.11571,0.12523 m -0.23707,-0.23565 0.12136,0.11042 m -0.24377,-0.23425 0.12241,0.12383 m -0.25188,-0.2286 0.12947,0.10477 m -0.27446,-0.20955 0.14499,0.10478 m -0.27975,-0.19861 0.13476,0.0938 m -0.28646,-0.18341 0.1517,0.0896 m -0.28822,-0.14181 0.13652,0.0522 m -0.28116,-0.12523 0.14464,0.073 m -0.28646,-0.10898 0.14182,0.036 m -0.28681,-0.0674 0.14499,0.0314 m -0.28116,-0.0494 0.13617,0.018 m -0.28786,-0.0582 0.15169,0.0402 m -0.28681,-0.0402 h 0.13512 m -0.27976,0 h 0.14464 m -0.28928,0.0166 0.14464,-0.0166 m -0.28786,0.0402 0.14322,-0.0236 m -0.29492,0.073 0.1517,-0.0494 m -0.28681,0.0854 0.13511,-0.036 m -0.25753,0.10903 0.12242,-0.073 m -0.27411,0.12521 0.15169,-0.0522 m -0.27305,0.14181 0.12136,-0.0896 m -0.24412,0.16262 0.12276,-0.073 m -0.22472,0.17778 0.10196,-0.10478 m -0.21626,0.19861 0.1143,-0.0938 m -0.20108,0.19717 0.0868,-0.10337 m -0.17217,0.20955 0.0854,-0.10618 m -0.17924,0.21484 0.0938,-0.10866 m -0.18588,0.21908 0.0921,-0.11042 m -0.16406,0.23424 0.072,-0.12382 m -0.13797,0.24941 0.066,-0.12559 m -0.13762,0.25083 0.0716,-0.12524 m -0.14321,0.25083 0.0716,-0.12559 m -0.14321,0.2674 0.0716,-0.14181 m -0.14357,0.2674 0.072,-0.12559 m -0.12986,0.25083 0.0579,-0.12524 m -0.12245,0.25048 0.0645,-0.12524 m -0.12095,0.25082 0.0565,-0.12558 m -0.10906,0.25082 0.0526,-0.12524 m -0.0882,0.25083 0.0356,-0.12559 m -0.0716,0.24695 0.036,-0.12136 m -0.0498,0.22719 0.0138,-0.10583 m -0.0498,0.30726 0.036,-0.20143 m -0.0787,0.34325 0.0427,-0.14182 m -12.63228,-8.95314 0.18732,0.0688 m -0.35948,-0.14183 0.17216,0.073 m -0.33091,-0.12556 0.15875,0.0526 m -0.34607,-0.12563 0.18732,0.073 m -0.3429,-0.12521 0.15558,0.0522 m -0.32244,-0.10864 0.16686,0.0564 m -0.30339,-0.0896 0.13653,0.0332 m -0.28117,-0.0844 0.14464,0.0512 m -0.27411,-0.0688 0.12947,0.0176 m -0.35136,-0.0412 0.22189,0.0236 m -0.33619,-0.0236 h 0.1143 m -0.28646,0.0564 0.17216,-0.0564 m -0.29493,0.12555 0.12277,-0.0691 m -0.23848,0.17775 0.11571,-0.10865 m -0.20108,0.26987 0.0854,-0.16122 m -0.15737,0.33902 0.072,-0.1778 m -0.10904,0.28822 0.037,-0.11042 m -0.073,0.2152 0.036,-0.10478 m -0.0716,0.24659 0.0356,-0.14181 m -0.0853,0.26705 0.0497,-0.12524 m -0.0853,0.266 0.0356,-0.14076 m -0.0797,0.26599 0.0441,-0.12523 m -0.0593,0.2921 0.0152,-0.16687 m -0.036,0.30727 0.0208,-0.1404 m -0.0208,0.30162 v -0.16122 m -0.0138,0.3048 0.0138,-0.14358 m -0.0138,0.32138 v -0.1778 m 0,0.33479 v -0.15699 m 0.0138,0.33902 -0.0138,-0.18203 m 0.0138,0.35948 v -0.17745 m 0.036,0.35666 -0.036,-0.17921 m 0.0801,0.36125 -0.0441,-0.18204 m 0.0935,0.35842 -0.0494,-0.17638 m 0.0854,0.34995 -0.036,-0.17357 m 0.0924,0.35702 -0.0564,-0.18345 m 0.10861,0.34466 -0.0522,-0.16121 m 0.13793,0.3182 -0.0857,-0.15699 m 0.15731,0.30445 -0.0716,-0.14746 m 0.16509,0.28787 -0.0935,-0.14041 m 0.16511,0.28117 -0.0716,-0.14076 m 0.15874,0.29104 -0.0871,-0.15028 m 0.17247,0.27128 -0.0854,-0.121 m 0.20111,0.24377 -0.11571,-0.12277 m 0.20108,0.23037 -0.0854,-0.1076 m 0.19441,0.21766 -0.10901,-0.11006 m 0.19439,0.19826 -0.0854,-0.0882 m 0.20111,0.1778 -0.11571,-0.0896 m 0.20108,0.16263 -0.0854,-0.073 m 0.18594,0.16119 -0.10054,-0.0882 m 0.20955,0.15699 -0.10901,-0.0688 m 0.22331,0.12137 -0.1143,-0.0526 m 0.21484,0.10904 -0.10054,-0.0564 m 0.2219,0.11002 -0.12136,-0.0536 m 0.24412,0.1104 -0.12276,-0.0568 m 0.35983,0.10901 -0.23707,-0.0522 m 0.38171,0.0839 -0.14464,-0.0317 m 0.27411,0.0522 -0.12947,-0.0205 m 0.28786,0.0205 h -0.15839 m 0.29351,0 h -0.13512 m 0.30198,-0.0205 -0.16686,0.0205 m 0.31009,-0.0357 -0.14323,0.0152 m 0.32385,-0.0526 -0.18062,0.0374 m 0.33902,-0.0688 -0.1584,0.0314 m 0.33055,-0.0882 -0.17215,0.0568 m 0.33761,-0.11042 -0.16546,0.0536 m 0.34467,-0.12521 -0.17921,0.0716 m 0.34431,-0.15697 -0.1651,0.0854 m 0.32244,-0.17924 -0.15734,0.0938 m 0.29492,-0.20281 -0.13758,0.10901 m 0.2674,-0.21343 -0.12982,0.10442 m 0.25083,-0.2092 -0.12101,0.10478 m 0.23001,-0.2152 -0.109,0.11042 m 0.19438,-0.23565 -0.0854,0.12523 m 0.17924,-0.2286 -0.0938,0.10337 m 0.16541,-0.22896 -0.0716,0.12559 m 0.14462,-0.25082 -0.073,0.12523 m 0.12239,-0.27269 -0.0494,0.14746 m 0.10761,-0.28822 -0.0582,0.14076 m 0.0857,-0.29916 -0.0275,0.1584 m 0.0645,-0.31962 -0.037,0.16122 m 0.0797,-0.3429 -0.0427,0.18168 m 0.0649,-0.35948 -0.0222,0.1778 m 0.0222,-0.35701 v 0.17921 m -0.0222,-0.35701 0.0222,0.1778 m -0.036,-0.35419 0.0138,0.17639 m -0.0565,-0.35419 0.0427,0.1778 m -0.0797,-0.36124 0.037,0.18344 m -0.0867,-0.34043 0.0497,0.15699 m -0.12132,-0.31821 0.0716,0.16122 m -0.15838,-0.30445 0.0868,0.14323 m -0.17217,-0.28787 0.0854,0.14464 m -0.18735,-0.27023 0.10195,0.12559 m -0.18768,-0.2674 0.0857,0.14181 m -0.17248,-0.2674 0.0868,0.12559 m -0.19405,-0.266 0.10725,0.14041 m -0.21626,-0.25047 0.10901,0.11006 m -0.21519,-0.23565 0.10618,0.12559 m -0.21484,-0.2346 0.10866,0.10901 m -0.23142,-0.21343 0.12276,0.10442 m -0.25082,-0.19403 0.12806,0.0896 m -0.25083,-0.19437 0.12277,0.10477 m -0.24554,-0.1972 0.12277,0.0924 m -0.26599,-0.19859 0.14322,0.10619 m -0.28645,-0.17921 0.14323,0.073 m -0.28117,-0.14462 0.13794,0.0716 m -0.28928,-0.14039 0.15134,0.0688 m -0.31009,-0.14182 0.15875,0.073 m -0.29386,-0.1104 0.13511,0.0374 m -0.28645,-0.0677 0.15134,0.0303 m -0.28787,-0.0479 0.13653,0.0176 m -0.39406,-0.0578 0.25753,0.0402 m -0.46708,-0.0568 0.20955,0.0166 m 8.46773,7.15078 0.12276,0.0522 m -0.24518,-0.11005 0.12242,0.0579 m -0.2727,-0.11047 0.15028,0.0526 m -0.2868,-0.10481 0.13652,0.0522 m -0.29492,-0.0882 0.1584,0.036 m -0.32385,-0.0882 0.16545,0.0522 m -0.32385,-0.0896 0.1584,0.0374 m -0.34573,-0.073 0.18733,0.0356 m -0.34572,-0.073 0.15839,0.0374 m -0.32949,-0.073 0.1711,0.0356 m -0.3362,-0.0674 0.1651,0.0318 m -0.32385,-0.0731 0.15875,0.0413 m -0.30339,-0.0579 0.14464,0.0166 m -0.30304,-0.0318 0.1584,0.0152 m -0.28787,-0.0152 h 0.12947 m -0.35983,0.0152 0.23036,-0.0152 m -0.42298,0.0731 0.19262,-0.0579 m -0.30727,0.0731 0.11465,-0.0152 m -0.25223,0.1048 0.13758,-0.0896 m -0.26035,0.21484 0.12277,-0.12524 m -0.20814,0.266 0.0854,-0.14076 m -0.16548,0.33902 0.0801,-0.19826 m -0.10056,0.30868 0.0205,-0.11042 m -0.0565,0.21378 0.036,-0.10336 m -0.0498,0.25082 0.0138,-0.14746 m -0.029,0.2727 0.0152,-0.12524 m -0.0357,0.266 0.0205,-0.14076 m -0.0357,0.28116 0.0152,-0.1404 m -0.0152,0.31962 v -0.17922 m 0,0.34185 v -0.16263 m 0.0152,0.34043 -0.0152,-0.1778 m 0.0357,0.35418 -0.0205,-0.17638 m 0.0494,0.35418 -0.0289,-0.1778 m 0.0649,0.34044 -0.036,-0.16264 m 0.0939,0.34573 -0.0579,-0.18309 m 0.10059,0.35665 -0.0427,-0.17356 m 0.10726,0.33337 -0.0646,-0.15981 m 0.12139,0.32526 -0.0568,-0.16545 m 0.14359,0.34184 -0.0868,-0.17639 m 0.15841,0.3362 -0.0716,-0.15981 m 0.15838,0.32244 -0.0868,-0.16263 m 0.16547,0.31997 -0.0787,-0.15734 m 0.16549,0.30339 -0.0868,-0.14605 m 0.17358,0.2921 -0.0868,-0.14605 m 0.19404,0.27129 -0.10724,-0.12524 m 0.20108,0.25083 -0.0938,-0.12559 m 0.21657,0.24659 -0.12277,-0.121 m 0.2219,0.22577 -0.0991,-0.10477 m 0.22857,0.21378 -0.12947,-0.10901 m 0.26035,0.19862 -0.13088,-0.0896 m 0.26599,0.16262 -0.13511,-0.073 m 0.25788,0.14603 -0.12277,-0.073 m 0.27411,0.12521 -0.15134,-0.0522 m 0.28787,0.084 -0.13653,-0.0318 m 0.27976,0.0526 -0.14323,-0.0208 m 0.27305,0.0208 h -0.12982 m 0.28822,0 h -0.1584 m 0.30162,-0.0208 -0.14322,0.0208 m 0.30162,-0.0525 -0.1584,0.0318 m 0.30198,-0.084 -0.14358,0.0522 m 0.30868,-0.11006 -0.1651,0.0579 m 0.3235,-0.11046 -0.1584,0.0526 m 0.31715,-0.1408 -0.15875,0.0882 m 0.30339,-0.1778 -0.14464,0.0896 m 0.30162,-0.1778 -0.15698,0.0882 m 0.30727,-0.19826 -0.15029,0.11006 m 0.28822,-0.21907 -0.13793,0.10901 m 0.28116,-0.23425 -0.14323,0.12524 m 0.2727,-0.22578 -0.12947,0.10054 m 0.25083,-0.22613 -0.12136,0.12559 m 0.22331,-0.25082 -0.10195,0.12523 m 0.20955,-0.25082 -0.1076,0.12559 m 0.20108,-0.23566 -0.0935,0.11007 m 0.17887,-0.23566 -0.0854,0.12559 m 0.17924,-0.25082 -0.0938,0.12523 m 0.18059,-0.26599 -0.0868,0.14076 m 0.18063,-0.266 -0.0938,0.12524 m 0.16542,-0.25083 -0.0716,0.12559 m 0.1418,-0.27023 -0.0702,0.14464 m 0.13652,-0.28786 -0.0663,0.14322 m 0.12275,-0.28363 -0.0564,0.14041 m 0.1072,-0.30304 -0.0508,0.16263 m 0.0882,-0.31997 -0.0374,0.15734 m 0.073,-0.32385 -0.0356,0.16651 m 0.0356,-0.30727 v 0.14076 m 0,-0.30339 v 0.16263 m -0.0219,-0.30303 0.0219,0.1404 m -0.0593,-0.2988 0.0374,0.1584 m -0.0868,-0.30445 0.0494,0.14605 m -0.12102,-0.28681 0.0716,0.14076 m -0.13792,-0.266 0.0663,0.12524 m -0.15873,-0.25083 0.0924,0.12559 m -0.18588,-0.23565 0.0935,0.11006 m -0.19404,-0.21343 0.10054,0.10337 m -0.20814,-0.19297 0.1076,0.0896 m -0.2152,-0.1778 0.1076,0.0882 m -0.23707,-0.18203 0.12947,0.0938 m -0.2674,-0.17777 0.13793,0.084 m -0.27975,-0.15702 0.14182,0.073 m -0.28646,-0.16684 0.14464,0.0938 m -0.30304,-0.16259 0.1584,0.0688 m -0.32385,-0.14183 0.16545,0.073 m -0.32385,-0.14038 0.1584,0.0674 m -0.33761,-0.14042 0.17921,0.073 m -0.34466,-0.12557 0.16545,0.0526 m -0.33902,-0.11045 0.17357,0.0579 m -0.33761,-0.0911 0.16404,0.0332 m -0.33619,-0.0674 0.17215,0.0342 m -0.28116,-0.0508 0.10901,0.0166 m -0.23848,-0.0374 0.12947,0.0208 m -8.26664,-15.60228 0.10583,-0.0332 m -0.20108,0.0858 0.0953,-0.0526 m -0.19444,0.0882 0.0991,-0.0356 m -0.2081,0.092 0.109,-0.0564 m -0.2233,0.11038 0.1143,-0.054 m -0.20109,0.12561 0.0868,-0.0716 m -0.18593,0.14039 0.0991,-0.0688 m -0.19435,0.14183 0.0953,-0.073 m -0.20148,0.12556 0.10618,-0.0526 m -0.19297,0.12563 0.0868,-0.073 m -0.19404,0.14179 0.10724,-0.0688 m -0.18027,0.15841 0.073,-0.0896 m -0.16542,0.16544 0.0924,-0.0758 m -0.23704,0.21762 0.14464,-0.14182 m -0.20955,0.28364 0.0649,-0.14182 m -0.12276,0.30304 0.0579,-0.16122 m -0.10764,0.33902 0.0497,-0.1778 m -0.0853,0.3556 0.0356,-0.1778 m -0.0797,0.35701 0.0441,-0.17921 m -0.0441,0.2868 v -0.10759 m 0,0.3182 v -0.21061 m 0,0.32103 v -0.11042 m 0.0303,0.32385 -0.0303,-0.21343 m 0.0659,0.33902 -0.0356,-0.12559 m 0.0494,0.23178 -0.0138,-0.10619 m 0.0498,0.21343 -0.036,-0.10724 m 0.0716,0.21766 -0.0356,-0.11042 m 0.0868,0.2152 -0.0512,-0.10478 m 0.0872,0.21484 -0.036,-0.11006 m 0.0854,0.21766 -0.0494,-0.1076 m 0.10725,0.20955 -0.0579,-0.10195 m 0.12281,0.22719 -0.0649,-0.12524 m 0.12946,0.23425 -0.0646,-0.10901 m 0.13657,0.23424 -0.072,-0.12523 m 0.13656,0.23424 -0.0646,-0.10901 m 0.14997,0.2346 -0.0854,-0.12559 m 0.15843,0.23566 -0.073,-0.11007 m 0.16542,0.21061 -0.0924,-0.10054 m 0.16543,0.21096 -0.073,-0.11042 m 0.18059,0.21766 -0.10759,-0.10724 m 0.19438,0.19685 -0.0868,-0.0896 m 0.2011,0.19437 -0.1143,-0.10477 m 0.20108,0.19438 -0.0868,-0.0896 m 0.20816,0.18203 -0.12136,-0.0924 m 0.23037,0.17777 -0.10901,-0.0854 m 0.23847,0.17359 -0.12946,-0.0882 m 0.25082,0.16546 -0.12136,-0.0773 m 0.25753,0.14609 -0.13617,-0.0688 m 0.26705,0.14183 -0.13088,-0.073 m 0.27305,0.14179 -0.14217,-0.0688 m 0.27976,0.14182 -0.13759,-0.073 m 0.30304,0.12557 -0.16545,-0.0526 m 0.30868,0.0882 -0.14323,-0.0356 m 0.30198,0.073 -0.15875,-0.0374 m 0.32385,0.073 -0.1651,-0.0356 m 0.32244,0.0522 -0.15734,-0.0166 m 0.30197,0.0332 -0.14463,-0.0166 m 0.30303,0.0166 h -0.1584 m 0.30163,-0.0166 -0.14323,0.0166 m 0.28787,-0.0332 -0.14464,0.0166 m 0.28681,-0.0371 -0.14217,0.0205 m 0.27975,-0.0523 -0.13758,0.0318 m 0.28928,-0.0882 -0.1517,0.0564 m 0.28822,-0.10897 -0.13652,0.0526 m 0.27975,-0.12562 -0.14323,0.073 m 0.2727,-0.14179 -0.12947,0.0688 m 0.25223,-0.16264 -0.12276,0.0938 m 0.24412,-0.18199 -0.12136,0.0882 m 0.23707,-0.19263 -0.11571,0.10443 m 0.21484,-0.21061 -0.0991,0.10618 m 0.18588,-0.23177 -0.0868,0.12559 m 0.15842,-0.25083 -0.0716,0.12524 m 0.14462,-0.25083 -0.073,0.12559 m 0.12945,-0.25082 -0.0564,0.12523 m 0.11425,-0.26987 -0.0579,0.14464 m 0.0868,-0.28681 -0.0289,0.14217 m 0.0511,-0.28399 -0.0222,0.14182 m 0.0359,-0.28222 -0.0137,0.1404 m 0.0137,-0.28645 v 0.14605 m 0,-0.28822 v 0.14217 m 0,-0.30763 v 0.16546 m -0.0137,-0.32385 0.0137,0.15839 m -0.0359,-0.31961 0.0222,0.16122 m -0.0511,-0.30163 0.0289,0.14041 m -0.0645,-0.30304 0.0356,0.16263 m -0.092,-0.30339 0.0564,0.14076 m -0.11426,-0.30339 0.0579,0.16263 m -0.10905,-0.30868 0.0511,0.14605 m -0.12271,-0.30303 0.0716,0.15698 m -0.14463,-0.2988 0.073,0.14182 m -0.1365,-0.30445 0.0635,0.16263 m -0.16404,-0.30339 0.10054,0.14076 m -0.18732,-0.28681 0.0868,0.14605 m -0.17218,-0.27129 0.0854,0.12524 m -0.1944,-0.26599 0.109,0.14075 m -0.20813,-0.24941 0.0991,0.10866 m -0.22999,-0.21485 0.13089,0.10619 m -0.26035,-0.19861 0.12946,0.0924 m -0.26599,-0.19436 0.13653,0.10196 m -0.28681,-0.19438 0.15028,0.0924 m -0.28646,-0.18166 0.13618,0.0893 m -0.28787,-0.15844 0.15169,0.0691 m -0.31009,-0.14071 0.1584,0.0716 m -0.29351,-0.10865 0.13511,0.0371 m -0.30056,-0.0897 0.16545,0.0526 m -0.32385,-0.0882 0.1584,0.0356 m -0.33197,-0.073 0.17357,0.0374 m -0.33902,-0.054 0.16545,0.0166 m -0.32385,-0.0508 0.1584,0.0342 m -0.32385,-0.0342 h 0.16545 m -0.34466,-0.0222 0.17921,0.0222 m -0.34466,-0.0222 h 0.16545 m -0.32244,-0.0152 0.15699,0.0152 m -0.30868,-0.0152 h 0.15169 m -0.33902,0 h 0.18733 m -0.34573,0 h 0.1584 m -0.42439,0 h 0.26599 m -0.48224,0 h 0.21625 m 6.83789,6.53874 0.0702,0.0896 m -0.15698,-0.16263 0.0868,0.073 m -0.1944,-0.16119 0.1076,0.0882 m -0.25224,-0.157 0.14464,0.0688 m -0.30304,-0.14323 0.1584,0.0744 m -0.34466,-0.1252 0.18626,0.0508 m -0.38029,-0.0924 0.19403,0.0416 m -0.38841,-0.0568 0.19438,0.0152 m -0.38876,-3e-5 0.19438,-0.0152 m -0.39547,0.0403 0.20109,-0.025 m -0.30727,0.0416 0.10618,-0.0166 m -0.27975,0.0674 0.17357,-0.0508 m -0.33902,0.12523 0.16545,-0.0744 m -0.30868,0.15837 0.14323,-0.084 m -0.26741,0.19442 0.12418,-0.11042 m -0.23036,0.23565 0.10618,-0.12523 m -0.17921,0.28645 0.073,-0.16122 m -0.12239,0.30339 0.0494,-0.14217 m -0.0854,0.32244 0.036,-0.18027 m -0.0579,0.35948 0.0219,-0.17921 m -0.0219,0.37218 v -0.19297 m 0,0.42439 v -0.23142 m 0.0219,0.35701 -0.0219,-0.12559 m 0.0219,0.23425 v -0.10866 m 0.0138,0.23425 -0.0138,-0.12559 m 0.036,0.23424 -0.0222,-0.10865 m 0.0497,0.33478 -0.0275,-0.22613 m 0.0494,0.35172 -0.0219,-0.12559 m 0.0371,0.23566 -0.0152,-0.11007 m 0.0512,0.2353 -0.036,-0.12523 m 0.0579,0.25082 -0.0219,-0.12559 m 0.0646,0.25083 -0.0427,-0.12524 m 0.0716,0.23566 -0.0289,-0.11042 m 0.0868,0.23565 -0.0579,-0.12523 m 0.0939,0.25082 -0.036,-0.12559 m 0.10091,0.24836 -0.0649,-0.12277 m 0.12135,0.24801 -0.0564,-0.12524 m 0.12237,0.248 -0.066,-0.12276 m 0.13655,0.248 -0.0706,-0.12524 m 0.1655,0.26706 -0.0949,-0.14182 m 0.1651,0.2674 -0.0702,-0.12558 m 0.15698,0.25082 -0.0868,-0.12524 m 0.15842,0.25083 -0.0716,-0.12559 m 0.16544,0.26599 -0.0938,-0.1404 m 0.18764,0.26599 -0.0938,-0.12559 m 0.17917,0.27164 -0.0854,-0.14605 m 0.17218,0.27129 -0.0868,-0.12524 m 0.1944,0.25083 -0.1076,-0.12559 m 0.21625,0.25082 -0.10865,-0.12523 m 0.23142,0.25082 -0.12277,-0.12559 m 0.22896,0.25083 -0.10619,-0.12524 m 0.23707,0.23001 -0.13088,-0.10477 m 0.25223,0.21519 -0.12135,-0.11042 m 0.24377,0.19439 -0.12242,-0.084 m 0.25189,0.17748 -0.12947,-0.0935 m 0.25082,0.16688 -0.12135,-0.0734 m 0.24412,0.14078 -0.12277,-0.0674 m 0.26741,0.14042 -0.14464,-0.073 m 0.28787,0.12522 -0.14323,-0.0522 m 0.30162,0.10617 -0.15839,-0.054 m 0.30868,0.0882 -0.15029,-0.0342 m 0.30868,0.0716 -0.15839,-0.0374 m 0.31714,0.054 -0.15875,-0.0166 m 0.33761,0.0166 h -0.17886 m 0.33761,0 h -0.15875 m 0.32385,-0.0166 -0.1651,0.0166 m 0.32385,-0.054 -0.15875,0.0374 m 0.30198,-0.0896 -0.14323,0.0522 m 0.28646,-0.12523 -0.14323,0.073 m 0.26599,-0.14461 -0.12276,0.0716 m 0.23036,-0.15556 -0.1076,0.084 m 0.21626,-0.17502 -0.10866,0.091 m 0.20108,-0.18343 -0.0924,0.0924 m 0.17919,-0.2014 -0.0868,0.109 m 0.15841,-0.23424 -0.0716,0.12524 m 0.13792,-0.25083 -0.0663,0.12559 m 0.12275,-0.26741 -0.0564,0.14182 m 0.11284,-0.28222 -0.0564,0.1404 m 0.1072,-0.28257 -0.0508,0.14217 m 0.10866,-0.28822 -0.0579,0.14605 m 0.0868,-0.30445 -0.0289,0.1584 m 0.0497,-0.31962 -0.0208,0.16122 m 0.036,-0.3182 -0.0152,0.15698 m 0.0152,-0.32244 v 0.16546 m -0.0152,-0.32385 0.0152,0.15839 m -0.036,-0.31961 0.0208,0.16122 m -0.0356,-0.32385 0.0148,0.16263 m -0.0494,-0.32103 0.0346,0.1584 m -0.0872,-0.32244 0.0526,0.16404 m -0.10199,-0.32279 0.0494,0.15875 m -0.11431,-0.33514 0.0649,0.17639 m -0.13651,-0.33867 0.0716,0.16228 m -0.13651,-0.34572 0.0649,0.18344 m -0.15698,-0.33902 0.0921,0.15558 m -0.17888,-0.31821 0.0868,0.16263 m -0.1944,-0.3048 0.1076,0.14217 m -0.21661,-0.29915 0.10901,0.15698 m -0.21766,-0.30303 0.10865,0.14605 m -0.23001,-0.29069 0.12136,0.14464 m -0.25083,-0.266 0.12947,0.12136 m -0.25223,-0.24659 0.12276,0.12523 m -0.24412,-0.23565 0.12136,0.11042 m -0.26459,-0.23566 0.14323,0.12524 m -0.27411,-0.23002 0.13088,0.10478 m -0.25223,-0.21378 0.12135,0.109 m -0.25082,-0.19861 0.12947,0.0896 m -0.266,-0.17779 0.13653,0.0882 m -0.28117,-0.17781 0.14464,0.0896 m -0.28645,-0.17779 0.14181,0.0882 m -0.28645,-0.16123 0.14464,0.073 m -0.30304,-0.1626 0.1584,0.0896 m -0.32385,-0.16263 0.16545,0.073 m -0.32385,-0.14602 0.1584,0.073 m -0.30198,-0.12522 0.14358,0.0522 m -0.30057,-0.10476 0.15699,0.0526 m -0.30162,-0.0882 0.14463,0.0356 m -0.31009,-0.073 0.16546,0.0374 m -0.30304,-0.0526 0.13758,0.0152 m -0.38841,-0.048 0.25083,0.0328 m -0.45896,-0.073 0.20813,0.0402 m 10.25243,3.31966 0.14464,0.12523 m -0.32385,-0.24659 0.17921,0.12136 m -0.35948,-0.21379 0.18027,0.0924 m -0.3817,-0.16542 0.20143,0.073 m -0.38876,-0.12521 0.18733,0.0522 m -0.37324,-0.0674 0.18591,0.0152 m -0.38029,-3e-5 0.19438,-0.0152 m -0.38876,0.0304 0.19438,-0.0152 m -0.38876,0.0522 0.19438,-0.037 m -0.39547,0.0949 0.20109,-0.0579 m -0.30869,0.0882 0.1076,-0.0303 m -0.28116,0.12555 0.17356,-0.0952 m -0.26599,0.146 0.0924,-0.0508 m -0.20106,0.10337 0.10866,-0.0526 m -0.26705,0.17783 0.15839,-0.12523 m -0.30197,0.2674 0.14358,-0.14217 m -0.2152,0.23178 0.0716,-0.0896 m -0.15697,0.16121 0.0854,-0.0716 m -0.15842,0.16121 0.073,-0.0896 m -0.15838,0.17779 0.0854,-0.0882 m -0.16548,0.19827 0.0801,-0.11007 m -0.15171,0.19403 0.0716,-0.084 m -0.12099,0.19442 0.0494,-0.11042 m -0.12278,0.21907 0.0734,-0.10865 m -0.12279,0.23283 0.0494,-0.12418 m -0.10725,0.23037 0.0579,-0.10619 m -0.10905,0.23142 0.0511,-0.12523 m -0.10755,0.25082 0.0565,-0.12559 m -0.0921,0.27023 0.0356,-0.14464 m -0.0716,0.26988 0.036,-0.12524 m -0.072,0.26882 0.036,-0.14358 m -0.073,0.28398 0.037,-0.1404 m -0.037,0.28504 v -0.14464 m -0.0138,0.28787 0.0138,-0.14323 m -4e-5,0.28399 -0.0138,-0.14076 m 0.0138,0.28258 v -0.14182 m 0.037,0.28646 -0.037,-0.14464 m 0.0592,0.2868 -0.0222,-0.14216 m 0.0719,0.28398 -0.0497,-0.14182 m 0.0853,0.26741 -0.0356,-0.12559 m 0.0921,0.25083 -0.0565,-0.12524 m 0.10765,0.23424 -0.0511,-0.109 m 0.12271,0.21766 -0.0716,-0.10866 m 0.1224,0.21485 -0.0508,-0.10619 m 0.12277,0.21096 -0.072,-0.10477 m 0.14361,0.19297 -0.0716,-0.0882 m 0.16509,0.18203 -0.0935,-0.0938 m 0.18028,0.17777 -0.0868,-0.084 m 0.1944,0.15702 -0.1076,-0.073 m 0.19297,0.15026 -0.0854,-0.0773 m 0.20111,0.1475 -0.11571,-0.0702 m 0.21661,0.14182 -0.1009,-0.0716 m 0.23037,0.14039 -0.12947,-0.0688 m 0.23001,0.12524 -0.10054,-0.0564 m 0.23001,0.10897 -0.12947,-0.0526 m 0.25223,0.10198 -0.12276,-0.0494 m 0.26599,0.10479 -0.14323,-0.0554 m 0.27129,0.0924 -0.12806,-0.037 m 0.28681,0.0702 -0.15875,-0.0332 m 0.29633,0.0526 -0.13758,-0.0194 m 0.28928,0.0399 -0.1517,-0.0205 m 0.28681,0.0357 -0.13511,-0.0152 m 0.29351,0.0152 h -0.1584 m 0.31009,0 h -0.15169 m 0.31009,-0.0152 -0.1584,0.0152 m 0.30163,-0.0357 -0.14323,0.0205 m 0.30163,-0.0579 -0.1584,0.0374 m 0.30162,-0.0896 -0.14322,0.0522 m 0.30868,-0.10759 -0.16546,0.0554 m 0.30198,-0.10478 -0.13652,0.0494 m 0.28116,-0.12525 -0.14464,0.0759 m 0.28646,-0.1461 -0.14182,0.0702 m 0.26458,-0.1584 -0.12276,0.0882 m 0.24553,-0.17357 -0.12277,0.0854 m 0.26035,-0.19441 -0.13758,0.10901 m 0.23707,-0.23425 -0.0995,0.12524 m 0.18628,-0.23424 -0.0868,0.109 m 0.18029,-0.23459 -0.0935,0.12559 m 0.18734,-0.25083 -0.0938,0.12524 m 0.16541,-0.26706 -0.0716,0.14182 m 0.1351,-0.28398 -0.0635,0.14216 m 0.12277,-0.2868 -0.0593,0.14464 m 0.10868,-0.30163 -0.0494,0.15699 m 0.0854,-0.32385 -0.036,0.16686 m 0.0498,-0.32526 -0.0138,0.1584 m 0.036,-0.33479 -0.0222,0.17639 m 0.0222,-0.33902 v 0.16263 m 0,-0.32103 v 0.1584 m -0.0222,-0.32385 0.0222,0.16545 m -0.0568,-0.32244 0.0346,0.15699 m -0.0635,-0.30304 0.0289,0.14605 m -0.0645,-0.3048 0.0356,0.15875 m -0.0949,-0.31997 0.0593,0.16122 m -0.10904,-0.32244 0.0497,0.16122 m -0.12132,-0.30727 0.0716,0.14605 m -0.14321,-0.28645 0.0716,0.1404 m -0.16544,-0.25082 0.0938,0.11042 m -0.18058,-0.23142 0.0868,0.121 m -0.17217,-0.22578 0.0854,0.10478 m -0.19441,-0.21379 0.10901,0.10901 m -0.21485,-0.19861 0.10584,0.0896 m -0.21484,-0.1778 0.109,0.0882 m -0.21801,-0.16122 0.10901,0.073 m -0.23707,-0.16261 0.12806,0.0896 m -0.2286,-0.14181 0.10054,0.0522 m -0.2219,-0.12522 0.12136,0.073 m -0.25224,-0.10899 0.13088,0.036 m -0.26035,-0.0882 0.12947,0.0522 m -0.25082,-0.0674 0.12135,0.0152 m -0.24377,-0.0565 0.12242,0.0413 m -0.25224,-0.0579 0.12982,0.0166 m -0.25082,-0.0332 0.121,0.0166 m -0.29351,-0.0374 0.17251,0.0208 m 4.47851,-5.61268 0.18733,0.0924 m -0.35948,-0.18059 0.17215,0.0882 m -0.37359,-0.14218 0.20144,0.054 m -0.39688,-0.10621 0.19544,0.0522 m -0.38982,-0.0716 0.19438,0.0194 m -0.38876,0 0.19438,-0.0194 m -0.35842,0.0554 0.16404,-0.036 m -0.32244,0.0882 0.1584,-0.0522 m -0.30163,0.1418 0.14323,-0.0896 m -0.28787,0.19861 0.14464,-0.10901 m -0.30339,0.23425 0.15875,-0.12524 m -0.24412,0.19544 0.0854,-0.0702 m -0.16513,0.14181 0.0797,-0.0716 m -0.16542,0.14075 0.0857,-0.0691 m -0.15732,0.16117 0.0716,-0.0921 m -0.19401,0.25085 0.12241,-0.15875 m -0.19402,0.25083 0.0716,-0.0921 m -0.18626,0.28648 0.11466,-0.19438 m -0.16546,0.31997 0.0508,-0.12559 m -0.10195,0.23001 0.0511,-0.10442 m -0.10754,0.21484 0.0564,-0.11042 m -0.1072,0.21943 0.0508,-0.10901 m -0.10054,0.21343 0.0497,-0.10442 m -0.10756,0.21061 0.0579,-0.10619 m -0.0939,0.21519 0.036,-0.109 m -0.0716,0.21766 0.0356,-0.10866 m -0.0578,0.23425 0.0222,-0.12559 m -0.0578,0.23036 0.0356,-0.10477 m -0.0356,0.25082 v -0.14605 m 0,0.28787 v -0.14182 m 0,0.28364 v -0.14182 m -0.0152,0.28257 0.0152,-0.14075 m -3e-5,0.30339 -0.0152,-0.16264 m 0.0152,0.30304 v -0.1404 m 0.0356,0.30303 -0.0356,-0.16263 m 0.0578,0.32385 -0.0222,-0.16122 m 0.0578,0.33902 -0.0356,-0.1778 m 0.0716,0.34043 -0.036,-0.16263 m 0.0939,0.33902 -0.0579,-0.17639 m 0.0939,0.33902 -0.036,-0.16263 m 0.10056,0.30868 -0.0646,-0.14605 m 0.1348,0.28681 -0.0702,-0.14076 m 0.15839,0.28258 -0.0882,-0.14182 m 0.15876,0.26705 -0.0706,-0.12523 m 0.1655,0.2674 -0.0949,-0.14217 m 0.1651,0.28681 -0.0702,-0.14464 m 0.15839,0.26988 -0.0882,-0.12524 m 0.15876,0.25083 -0.0706,-0.12559 m 0.15597,0.23177 -0.0854,-0.10618 m 0.1803,0.2106 -0.0949,-0.10442 m 0.2025,0.21343 -0.1076,-0.10901 m 0.19438,0.19862 -0.0868,-0.0896 m 0.1944,0.18203 -0.1076,-0.0924 m 0.2219,0.16119 -0.1143,-0.0688 m 0.23706,0.1584 -0.12276,-0.0896 m 0.22331,0.15839 -0.10055,-0.0688 m 0.23001,0.16123 -0.12946,-0.0924 m 0.23847,0.16402 -0.10901,-0.0716 m 0.23002,0.1418 -0.12101,-0.0702 m 0.24377,0.14322 -0.12276,-0.073 m 0.27305,0.14215 -0.15029,-0.0691 m 0.28787,0.12554 -0.13758,-0.0564 m 0.30162,0.12378 -0.16404,-0.0674 m 0.30727,0.12103 -0.14323,-0.0536 m 0.31715,0.11039 -0.17392,-0.0568 m 0.33902,0.0882 -0.1651,-0.0314 m 0.32385,0.0522 -0.15875,-0.0208 m 0.30198,0.0208 h -0.14323 m 0.30021,0 h -0.15698 m 0.30162,-0.0208 -0.14464,0.0208 m 0.28822,-0.0688 -0.14358,0.048 m 0.27446,-0.10444 -0.13088,0.0564 m 0.25188,-0.12555 -0.121,0.0691 m 0.25083,-0.14212 -0.12983,0.073 m 0.23037,-0.1612 -0.10054,0.0882 m 0.20778,-0.1778 -0.10724,0.0896 m 0.19438,-0.19826 -0.0871,0.10866 m 0.15871,-0.21767 -0.0716,0.10901 m 0.16368,-0.23424 -0.0921,0.12523 m 0.16512,-0.2674 -0.073,0.14217 m 0.14497,-0.26741 -0.072,0.12524 m 0.1228,-0.26705 -0.0508,0.14181 m 0.10054,-0.28822 -0.0497,0.14641 m 0.10756,-0.30198 -0.0579,0.15557 m 0.0935,-0.3182 -0.0356,0.16263 m 0.0716,-0.34572 -0.036,0.18309 m 0.073,-0.37606 -0.037,0.19297 m 0.0578,-0.38735 -0.0208,0.19438 m 0.0345,-0.393 -0.0138,0.19862 m 0.0138,-0.39123 v 0.19261 m 0,-0.39123 v 0.19862 m 0,-0.41769 v 0.21907 m -0.0138,-0.41345 0.0138,0.19438 m -0.0346,-0.40781 0.0208,0.21343 m -0.0578,-0.40923 0.037,0.1958 m -0.0948,-0.393 0.0579,0.1972 m -0.10765,-0.37606 0.0498,0.17886 m -0.10624,-0.35525 0.0564,0.17639 m -0.12237,-0.33902 0.066,0.16263 m -0.13797,-0.34043 0.072,0.1778 m -0.14502,-0.32244 0.073,0.14464 m -0.16508,-0.30339 0.0921,0.15875 m -0.17782,-0.3048 0.0857,0.14605 m -0.17249,-0.28645 0.0868,0.1404 m -0.18028,-0.26599 0.0935,0.12559 m -0.19404,-0.25083 0.10054,0.12524 m -0.2025,-0.25082 0.10196,0.12558 m -0.18768,-0.25082 0.0857,0.12524 m -0.17107,-0.21485 0.0854,0.0896 m -0.19406,-0.17779 0.10866,0.0882 m -0.2025,-0.16123 0.0938,0.073 m -0.26454,-0.2134 0.17074,0.1404 m -0.25788,-0.21096 0.0871,0.0706 m -0.18058,-0.12563 0.0935,0.055 m -0.27272,-0.18024 0.17922,0.12524 m -0.28822,-0.19544 0.109,0.0702 m -0.20813,-0.11042 0.0991,0.0402 m -0.21482,-0.0924 0.11572,0.0522 m -0.21767,-0.0854 0.10195,0.0332 m -0.20813,-0.0692 0.10618,0.036 m -0.2219,-0.055 0.11572,0.0191 m -0.33902,-0.0371 0.2233,0.018 m -0.35277,-0.0374 0.12947,0.0194 m -0.23707,-0.0194 h 0.1076 m -0.23001,0 h 0.12241 m -0.23001,0.0194 0.1076,-0.0194 m -0.30868,0.0564 0.20108,-0.037 m -0.37465,0.037 h 0.17357 m -3.193,-2.68147 -0.0702,-0.0882 m 0.17921,0.14183 -0.10901,-0.0536 m 0.25365,0.12521 -0.14464,-0.0716 m 0.27975,0.12416 -0.13511,-0.0526 m 0.28646,0.10623 -0.15135,-0.0536 m 0.28787,0.14602 -0.13652,-0.0924 m 0.29492,0.1612 -0.1584,-0.0688 m 0.25083,0.12524 -0.0924,-0.0564 m 0.25079,0.12555 -0.15839,-0.0691 m 0.31679,0.10473 -0.1584,-0.0356 m 0.3101,0.0356 h -0.1517 m 0.28822,0 h -0.13652 m 0.2868,-0.0191 -0.15028,0.0191 m 0.30868,-0.0523 -0.1584,0.0332 m 0.3168,-0.0858 -0.1584,0.0526 m 0.30304,-0.12562 -0.14464,0.073 m 0.28786,-0.14603 -0.14322,0.073 m 0.30056,-0.17777 -0.15734,0.10477 m 0.30198,-0.23001 -0.14464,0.12524 m 0.28787,-0.26988 -0.14323,0.14464 m 0.266,-0.28681 -0.12277,0.14217 m 0.21625,-0.30057 -0.0935,0.1584 m 0.18029,-0.32385 -0.0868,0.16545 m 0.15876,-0.3429 -0.072,0.17745 m 0.14221,-0.35525 -0.0702,0.1778 m 0.10724,-0.28398 -0.037,0.10618 m 0.073,-0.21519 -0.036,0.10901 m 0.0498,-0.23425 -0.0138,0.12524 m 0.0357,-0.25083 -0.0219,0.12559 m 0.0441,-0.2674 -0.0222,0.14181 m 0.0359,-0.28645 -0.0137,0.14464 m 0.0137,-0.30304 v 0.1584 m 0,-0.31962 v 0.16122 m -0.0137,-0.34325 0.0137,0.18203 m -0.0578,-0.34043 0.0441,0.1584 m -0.0938,-0.3362 0.0497,0.1778 m -0.10756,-0.33478 0.0579,0.15698 m -0.10729,-0.32385 0.0494,0.16687 m -0.12136,-0.30763 0.072,0.14076 m -0.13797,-0.28681 0.066,0.14605 m -0.13762,-0.28645 0.0716,0.1404 m -0.16544,-0.28222 0.0938,0.14182 m -0.18622,-0.26741 0.0924,0.12559 m -0.17919,-0.2674 0.0868,0.14181 m -0.17358,-0.2674 0.0868,0.12559 m -0.2011,-0.25083 0.1143,0.12524 m -0.21484,-0.25083 0.10054,0.12559 m -0.20955,-0.25082 0.10901,0.12523 m -0.21484,-0.23001 0.10583,0.10478 m -0.21484,-0.23002 0.10901,0.12524 m -0.21802,-0.23424 0.10901,0.109 m -0.23001,-0.21378 0.121,0.10478 m -0.2286,-0.19862 0.1076,0.0938 m -0.23707,-0.19822 0.12947,0.10442 m -0.23001,-0.17744 0.10054,0.073 m -0.22331,-0.14497 0.12277,0.072 m -0.25083,-0.1422 0.12806,0.0702 m -0.25082,-0.14323 0.12276,0.073 m -0.23177,-0.12521 0.10901,0.0522 m -0.23707,-0.10476 0.12806,0.0526 m -0.25083,-0.0882 0.12277,0.0356 m -0.24518,-0.073 0.12241,0.0374 m -0.24377,-0.0526 0.12136,0.0152 m -0.27305,-0.0357 0.15169,0.0205 m -0.28927,-4e-5 0.13758,-0.0205 m -0.28787,0.0205 h 0.15029 m -0.27164,0.0152 0.12135,-0.0152 m -0.26599,0.0318 0.14464,-0.0166 m -0.27411,0.073 0.12947,-0.0564 m -0.26458,0.0938 0.13511,-0.0374 m -0.25929,0.10478 0.12418,-0.0674 m -0.27411,0.12526 0.14993,-0.0579 m -0.2727,0.14327 0.12277,-0.0854 m -0.24413,0.17783 0.12136,-0.0924 m -0.23001,0.19717 0.10865,-0.10477 m -0.21625,0.21378 0.1076,-0.10901 m -0.19438,0.25083 0.0868,-0.14182 m -0.17923,0.26705 0.0924,-0.12523 m -0.17918,0.28645 0.0868,-0.16122 m -0.18064,0.30198 0.0938,-0.14076 m -0.16542,0.30339 0.0716,-0.16263 m -0.13615,0.32103 0.0645,-0.1584 m -0.13612,0.32385 0.0716,-0.16545 m -0.14462,0.32385 0.073,-0.1584 m -0.12274,0.31962 0.0497,-0.16122 m -0.1132,0.3182 0.0635,-0.15698 m -0.0787,0.3182 0.0152,-0.16122 m -0.0522,0.30868 0.037,-0.14746 m -0.0508,0.29246 0.0138,-0.145 m -0.036,0.28681 0.0222,-0.14181 m -0.0222,0.28222 v -0.14041 m -0.0138,0.28258 0.0138,-0.14217 m -0.0138,0.30339 v -0.16122 m 0,0.30444 v -0.14322 m 0.036,0.30303 -0.036,-0.15981 m 0.0498,0.30304 -0.0138,-0.14323 m 0.0508,0.28399 -0.037,-0.14076 m 0.0797,0.29104 -0.0427,-0.15028 m 0.0924,0.29069 -0.0497,-0.14041 m 0.0857,0.26564 -0.036,-0.12523 m 0.10902,0.24659 -0.073,-0.12136 m 0.12239,0.23178 -0.0494,-0.11042 m 0.13618,0.21519 -0.0868,-0.10477 m 0.15842,0.21343 -0.0716,-0.10866 m 0.23705,0.26706 -0.16545,-0.1584 m 0.30868,0.31962 -0.14323,-0.16122 m 0.30198,0.28681 -0.15875,-0.12559 m 0.30339,0.23424 -0.14464,-0.10865 m 0.30162,0.16121 -0.15698,-0.0526 m 0.27128,0.0734 -0.1143,-0.0208 m 0.28822,0.037 -0.17392,-0.0162 m 0.34608,0.0162 h -0.17216 m 0.33761,0 h -0.16545 m 0.31009,0 h -0.14464 m 0.27411,0 h -0.12947 m 0.23566,0 h -0.10619 m 0.23001,0 h -0.12382 m -3.32105,1.05445 h 0.15839 m -0.30868,0 h 0.15029 m -0.32244,0.0176 0.17215,-0.0176 m -0.28116,0.0176 h 0.10901 m -0.2152,0 h 0.10619 m -0.21484,0 h 0.10865 m -0.23142,0 h 0.12277 m -0.25083,0 h 0.12806 m -0.2727,0 h 0.14464 m -0.2674,0.0194 0.12276,-0.0194 m -0.25223,0.0194 h 0.12947 m -0.25083,0.0166 0.12136,-0.0166 m -0.25929,0.0166 h 0.13793 m -0.2674,0.0166 0.12947,-0.0166 m -0.27129,0.0318 0.14182,-0.0152 m -0.26459,0.0551 0.12277,-0.0399 m -0.24659,0.0579 0.12382,-0.018 m -0.33902,0.0702 0.2152,-0.0522 m -0.39441,0.14039 0.17921,-0.0882 m -0.32385,0.17781 0.14464,-0.0896 m -0.26599,0.21378 0.12135,-0.12418 m -0.24377,0.2674 0.12242,-0.14322 m -0.25894,0.30727 0.13652,-0.16405 m -0.23706,0.30727 0.10054,-0.14322 m -0.18733,0.26881 0.0868,-0.12559 m -0.14324,0.28681 0.0564,-0.16122 m -0.0924,0.31821 0.036,-0.15699 m -0.036,0.3362 v -0.17921 m 0,0.39264 v -0.21343 m 0.036,0.41204 -0.036,-0.19861 m 0.0702,0.30339 -0.0342,-0.10478 m 0.0564,0.21484 -0.0222,-0.11006 m 0.0525,0.23565 -0.0303,-0.12559 m 0.0508,0.23284 -0.0205,-0.10725 m 0.0565,0.23284 -0.036,-0.12559 m 0.0716,0.25082 -0.0356,-0.12523 m 0.0853,0.2674 -0.0497,-0.14217 m 0.10226,0.26741 -0.0526,-0.12524 m 0.12951,0.26705 -0.0769,-0.14181 m 0.12805,0.28257 -0.0512,-0.14076 m 0.14469,0.30339 -0.0935,-0.16263 m 0.15841,0.30445 -0.0649,-0.14182 m 0.15874,0.28646 -0.0938,-0.14464 m 0.17917,0.27023 -0.0854,-0.12559 m 0.19406,0.26599 -0.10866,-0.1404 m 0.20108,0.26599 -0.0924,-0.12559 m 0.19436,0.25083 -0.10196,-0.12524 m 0.18733,0.23142 -0.0854,-0.10618 m 0.20146,0.23142 -0.11606,-0.12524 m 0.2219,0.23566 -0.10584,-0.11042 m 0.20779,0.23566 -0.10195,-0.12524 m 0.21801,0.23001 -0.11606,-0.10477 m 0.23707,0.21378 -0.12101,-0.10901 m 0.2286,0.19862 -0.10759,-0.0896 m 0.22895,0.19684 -0.12136,-0.10724 m 0.25224,0.19296 -0.13088,-0.0857 m 0.25329,0.17919 -0.12241,-0.0935 m 0.24377,0.18311 -0.12136,-0.0896 m 0.25083,0.15698 -0.12947,-0.0674 m 0.25223,0.14077 -0.12276,-0.0734 m 0.24412,0.1422 -0.12136,-0.0688 m 0.25083,0.12524 -0.12947,-0.0564 m 0.25224,0.0924 -0.12277,-0.036 m 0.24377,0.0688 -0.121,-0.0328 m 0.25188,0.0702 -0.13088,-0.0374 m 0.2607,0.0773 -0.12982,-0.0399 m 0.26599,0.0551 -0.13617,-0.0152 m 0.25753,0.0152 h -0.12136 m 0.25083,-0.0152 -0.12947,0.0152 m 0.25224,-0.036 -0.12277,0.0208 m 0.26599,-0.0578 -0.14322,0.037 m 0.27269,-0.073 -0.12947,0.036 m 0.26741,-0.0882 -0.13794,0.0522 m 0.266,-0.12522 -0.12806,0.073 m 0.25788,-0.14038 -0.12982,0.0674 m 0.25223,-0.15701 -0.12241,0.0896 m 0.22295,-0.18344 -0.10054,0.0938 m 0.2152,-0.17917 -0.11466,0.0854 m 0.20144,-0.193 -0.0868,0.1076 m 0.17358,-0.21767 -0.0868,0.11007 m 0.17888,-0.21484 -0.0921,0.10477 m 0.17924,-0.23036 -0.0871,0.12559 m 0.15871,-0.23424 -0.0716,0.10865 m 0.14462,-0.21343 -0.073,0.10478 m 0.14462,-0.2152 -0.0716,0.11042 m 0.12099,-0.23566 -0.0494,0.12524 m 0.12277,-0.25082 -0.0734,0.12558 m 0.12279,-0.24659 -0.0494,0.12101 m 0.1129,-0.2466 -0.0635,0.12559 m 0.11571,-0.27022 -0.0522,0.14463 m 0.0882,-0.28645 -0.036,0.14182 m 0.0702,-0.30445 -0.0342,0.16263 m 0.0494,-0.30339 -0.0152,0.14076 m 0.036,-0.30339 -0.0208,0.16263 m 0.036,-0.30727 -0.0152,0.14464 m 0.0152,-0.30304 v 0.1584 m -0.0152,-0.31962 0.0152,0.16122 m -0.036,-0.31961 0.0208,0.15839 m -0.0564,-0.31961 0.0356,0.16122 m -0.0716,-0.32809 0.036,0.16687 m -0.0663,-0.32244 0.0303,0.15557 m -0.0934,-0.3182 0.0631,0.16263 m -0.11426,-0.32103 0.0512,0.1584 m -0.12281,-0.31997 0.0716,0.16157 m -0.14321,-0.30621 0.0716,0.14464 m -0.15698,-0.30727 0.0854,0.16263 m -0.15842,-0.28787 0.073,0.12524 m -0.16543,-0.266 0.0924,0.14076 m -0.18059,-0.26599 0.0882,0.12523 m -0.17358,-0.25047 0.0854,0.12524 m -0.17218,-0.23142 0.0868,0.10618 m -0.20145,-0.21096 0.11465,0.10478 m -0.2219,-0.21379 0.10725,0.10901 m -0.20779,-0.21907 0.10054,0.11006 m -0.20955,-0.19826 0.10901,0.0882 m -0.2166,-0.17357 0.10759,0.0854 m -0.21484,-0.16266 0.10725,0.0773 m -0.23001,-0.16267 0.12276,0.0854 m -0.23036,-0.15701 0.1076,0.0716 m -0.21485,-0.14075 0.10725,0.0692 m -0.21625,-0.12564 0.109,0.0564 m -0.32385,-0.15024 0.21485,0.0938 m -0.40923,-0.17917 0.19438,0.0854 m -0.30197,-0.14044 0.10759,0.055 m -0.27305,-0.1252 0.16546,0.0702 m -0.33761,-0.14181 0.17215,0.0716 m -0.28081,-0.0882 0.10866,0.0166 m -0.31009,-0.054 0.20143,0.0374 m -0.39581,-0.0374 h 0.19438 m -0.37324,0.018 0.17886,-0.018 m -0.35137,0.0374 0.17251,-0.0194 m -0.27976,0.036 0.10725,-0.0166 m -0.22296,0.0332 0.11571,-0.0166 m -0.30338,0.0716 0.18767,-0.055 m -0.35277,0.092 0.1651,-0.037 m -0.30868,0.0702 0.14358,-0.0332 m -4.21147,-5.2694 0.17216,0.0854 m -0.28116,-0.14185 0.109,0.0564 m -0.21625,-0.0924 0.10725,0.036 m -0.21485,-0.0882 0.1076,0.0522 m -0.21625,-0.0896 0.10865,0.0374 m -0.30303,-0.10478 0.19438,0.0674 m -0.38876,-0.14043 0.19438,0.073 m -0.39547,-0.12556 0.20109,0.0526 m -0.39547,-0.0731 0.19438,0.0205 m -0.30056,-0.0371 0.10618,0.0166 m -0.27163,-0.0166 h 0.16545 m -0.30304,0.0166 0.13759,-0.0166 m -0.29634,0.0522 0.15875,-0.0356 m -0.32385,0.0882 0.1651,-0.0526 m -0.3235,0.14221 0.1584,-0.0896 m -0.30056,0.18308 0.14216,-0.0935 m -0.30056,0.19404 0.1584,-0.10054 m -0.23143,0.1778 0.073,-0.0773 m -0.15837,0.14892 0.0854,-0.0716 m -0.21487,0.19718 0.12947,-0.12558 m -0.22331,0.28398 0.0938,-0.1584 m -0.18058,0.31962 0.0868,-0.16122 m -0.12278,0.26741 0.036,-0.10619 m -0.0716,0.21343 0.0356,-0.10724 m -0.0631,0.25082 0.0275,-0.14358 m -0.0635,0.26882 0.036,-0.12524 m -0.036,0.26988 v -0.14464 m 0,0.27023 v -0.12559 m 0.0138,0.28398 -0.0138,-0.15839 m 0.0138,0.30303 v -0.14464 m 0.0498,0.30304 -0.0498,-0.1584 m 0.10765,0.31962 -0.0579,-0.16122 m 0.12246,0.31997 -0.0646,-0.15875 m 0.13621,0.29915 -0.0716,-0.1404 m 0.15733,0.30586 -0.0857,-0.16546 m 0.18765,0.30727 -0.10195,-0.14181 m 0.20108,0.28786 -0.0991,-0.14605 m 0.18588,0.27164 -0.0868,-0.12559 m 0.19581,0.25083 -0.10901,-0.12524 m 0.22331,0.25083 -0.1143,-0.12559 m 0.21484,0.25082 -0.10054,-0.12523 m 0.19438,0.22578 -0.0938,-0.10055 m 0.19435,0.20955 -0.10055,-0.109 m 0.21485,0.19861 -0.1143,-0.0896 m 0.23706,0.19967 -0.12276,-0.11007 m 0.23142,0.19826 -0.10866,-0.0882 m 0.20814,0.19298 -0.0995,-0.10478 m 0.21521,0.1972 -0.11571,-0.0924 m 0.21625,0.17778 -0.10054,-0.0854 m 0.20779,0.15842 -0.10725,-0.073 m 0.2219,0.16543 -0.11465,-0.0924 m 0.2166,0.17777 -0.10195,-0.0854 m 0.22437,0.15843 -0.12242,-0.073 m 0.2286,0.14179 -0.10618,-0.0688 m 0.23706,0.14182 -0.13088,-0.073 m 0.23707,0.12557 -0.10619,-0.0526 m 0.22896,0.12562 -0.12277,-0.073 m 0.23848,0.12521 -0.11571,-0.0522 m 0.23706,0.10865 -0.12135,-0.0564 m 0.22331,0.10896 -0.10196,-0.0526 m 0.24518,0.0882 -0.14322,-0.0356 m 0.27269,0.073 -0.12947,-0.0374 m 0.266,0.073 -0.13653,-0.0356 m 0.25894,0.0522 -0.12241,-0.0166 m 0.27411,0.0332 -0.1517,-0.0166 m 0.28681,0.036 -0.13511,-0.0194 m 0.30056,0.036 -0.16545,-0.0166 m 0.31009,0.0166 h -0.14464 m 0.30304,-0.0166 -0.1584,0.0166 m 0.30163,-0.036 -0.14323,0.0194 m 0.28681,-0.0526 -0.14358,0.0332 m 0.27975,-0.0854 -0.13617,0.0522 m 0.28786,-0.12522 -0.15169,0.073 m 0.28822,-0.14603 -0.13653,0.073 m 0.266,-0.16119 -0.12947,0.0882 m 0.25894,-0.17781 -0.12947,0.0896 m 0.23001,-0.1986 -0.10054,0.109 m 0.20814,-0.23424 -0.1076,0.12524 m 0.19438,-0.26706 -0.0868,0.14182 m 0.16547,-0.28257 -0.0787,0.14075 m 0.15031,-0.2868 -0.0716,0.14605 m 0.1224,-0.30445 -0.0508,0.1584 m 0.0868,-0.3362 -0.036,0.1778 m 0.0716,-0.35984 -0.0356,0.18204 m 0.0497,-0.34325 -0.0141,0.16121 m 0.036,-0.33478 -0.0219,0.17357 m 0.0219,-0.3362 v 0.16263 m 0,-0.32808 v 0.16545 m 0,-0.32385 v 0.1584 m -0.0219,-0.3362 0.0219,0.1778 m -0.036,-0.33479 0.0141,0.15699 m -0.0497,-0.32385 0.0356,0.16686 m -0.0716,-0.30727 0.036,0.14041 m -0.0868,-0.30163 0.0508,0.16122 m -0.0868,-0.30303 0.036,0.14181 m -0.0924,-0.28398 0.0564,0.14217 m -0.11426,-0.26741 0.0579,0.12524 m -0.13092,-0.26988 0.073,0.14464 m -0.1365,-0.27023 0.0635,0.12559 m -0.13653,-0.25082 0.073,0.12523 m -0.14461,-0.23142 0.0716,0.10619 m -0.16403,-0.23178 0.0924,0.12559 m -0.17918,-0.23001 0.0868,0.10442 m -0.19405,-0.21343 0.10725,0.10901 m -0.21626,-0.19861 0.10901,0.0896 m -0.23848,-0.20002 0.12947,0.11042 m -0.2286,-0.1778 0.0991,0.0674 m -0.20811,-0.1556 0.10901,0.0882 m -0.2166,-0.14182 0.10759,0.0536 m -0.21484,-0.12521 0.10725,0.0716 m -0.21626,-0.12417 0.10901,0.0526 m -0.2166,-0.11045 0.10759,0.0579 m -0.20813,-0.0935 0.10054,0.0356 m -0.2286,-0.0673 0.12806,0.0318 m -0.23707,-0.0526 0.10901,0.0208 m -0.21767,-0.0578 0.10866,0.037 m -0.21484,-0.0522 0.10618,0.0152 m -0.23036,-0.0526 0.12418,0.0374 m -0.24518,-0.0526 0.121,0.0152 m -0.24377,-0.0523 0.12277,0.0371 m -0.25224,-0.0579 0.12947,0.0208 m -0.25753,-0.036 0.12806,0.0152 m -0.25082,-0.0152 h 0.12276 m -0.2674,-0.0205 0.14464,0.0205 m -0.32385,-0.0205 h 0.17921" />
  </g>
</svg>
