<?xml version="1.0" encoding="UTF-8" standalone="no"?>
<svg
   version="1.1"
   x="0"
   y="0"
   width="1407"
   height="1634"
   viewBox="0, 0, 1407, 1634"
   id="svg82"
   sodipodi:docname="students-stand.svg"
   inkscape:version="1.4.4 (dcaf3e7d9e, 2026-05-05)"
   xmlns:inkscape="http://www.inkscape.org/namespaces/inkscape"
   xmlns:sodipodi="http://sodipodi.sourceforge.net/DTD/sodipodi-0.dtd"
   xmlns="http://www.w3.org/2000/svg"
   xmlns:svg="http://www.w3.org/2000/svg">
  <sodipodi:namedview
     id="namedview82"
     pagecolor="#ffffff"
     bordercolor="#000000"
     borderopacity="0.25"
     inkscape:showpageshadow="2"
     inkscape:pageopacity="0.0"
     inkscape:pagecheckerboard="0"
     inkscape:deskcolor="#d1d1d1"
     inkscape:current-layer="svg82" />
  <defs
     id="defs1">
    <clipPath
       id="Clip_1">
      <path
         d="M0.06,0.49 L1406.91,0.49 L1406.91,1634 L0.06,1634 z"
         id="path1" />
    </clipPath>
  </defs>
  <g
     id="Layer_1">
    <g
       clip-path="url(#Clip_1)"
       id="g5">
      <path
         d="M370.14,1402.61 C367.771,1456.48 365.405,1510.34 363.03,1564.2 C362.753,1570.49 360.587,1573.14 354.378,1573.39 C351.198,1573.52 351.048,1575.43 350.444,1577.4 C345.985,1591.92 339.315,1605.19 328.247,1615.86 C316.23,1627.45 301.953,1633.55 285.087,1633.58 C275.557,1633.59 266.1,1633.45 256.986,1630.27 C240.32,1624.45 234.647,1610.83 242.214,1594.88 C245.452,1588.06 249.945,1582.08 254.927,1576.46 C256.449,1574.74 257.937,1573.55 254.724,1571.8 C251.888,1570.25 251.273,1567.17 251.18,1564 C250.337,1535.22 249.479,1506.44 248.545,1477.66 C247.097,1433.08 245.552,1388.5 244.112,1343.92 C242.983,1308.98 241.954,1274.04 240.863,1239.11 C240.791,1236.81 240.563,1234.52 240.385,1231.89 C233.702,1234.42 227.191,1236.3 221.06,1239.74 C196.115,1253.72 170.761,1248.26 150.818,1230.89 C135.443,1217.5 133.873,1199.66 138.398,1180.86 C141.103,1169.62 145.904,1159.21 151.644,1149.23 C153.097,1146.71 153.8,1144.16 153.95,1141.23 C156.497,1091.53 159.757,1041.88 163.776,992.277 C166.841,954.445 170.301,916.658 175.069,879.002 C179.713,842.32 185.659,805.916 200.103,771.527 C208.353,751.886 218.576,733.52 235.383,719.664 C239.89,715.948 244.829,712.899 250.521,710.104 C234.414,702.441 219.555,693.664 205.881,682.963 C168.285,653.541 142.82,615.326 125.212,571.456 C119.018,556.024 113.847,540.239 110.004,524.05 C109.267,520.945 108.168,519.478 104.58,519.207 C96.802,518.618 89.059,517.48 81.558,515.031 C62.885,508.936 52.527,495.679 51.054,476.116 C49.858,460.229 53.245,445.976 65.286,434.736 C67.37,432.791 65.872,431.546 65.11,430.05 C54.505,409.238 45.901,387.696 40.941,364.786 C28.431,307.008 40.603,255.256 78.636,209.781 C79.057,209.277 79.446,208.747 80.524,207.365 C73.296,209.923 67.038,212.301 60.676,214.357 C46.727,218.865 32.691,223.031 17.79,222.698 C13.22,222.595 8.832,221.726 4.94,219.241 C0.05,216.119 -1.286,211.906 1.275,206.796 C43.563,122.433 109.001,68.388 203.549,52.554 C208.304,51.758 213.096,51.161 217.885,50.586 C221.673,50.132 224.926,48.986 228.304,46.805 C261.551,25.333 297.812,11.317 336.833,4.871 C401.86,-5.871 464.345,3.076 523.249,32.434 C599.852,70.613 652.441,130.274 678.961,212.14 C689.927,245.992 696.813,280.658 698.75,316.24 C700.406,346.654 693.656,375.74 684.593,404.435 C681.888,413.001 678.468,421.306 674.575,429.396 C673.566,431.492 673.483,432.706 675.424,434.394 C694.319,450.828 693.009,480.897 683.981,496.52 C676.307,509.802 663.536,514.884 649.368,517.581 C647.898,517.861 646.377,518.449 644.949,518.285 C634.52,517.091 632.066,523.305 629.724,532.065 C617.993,575.922 599.219,616.374 569.367,651.127 C547.895,676.123 522.171,695.499 492.367,709.502 C490.902,710.19 489.117,710.39 488.212,712.062 C530.022,736.235 550.362,774.471 558.977,820.279 C566.554,860.564 570.461,901.316 574.226,942.09 C579.154,995.46 582.642,1048.93 585.857,1102.42 C586.675,1116.04 587.345,1129.67 587.954,1143.3 C588.066,1145.81 589.294,1147.72 590.415,1149.72 C597.672,1162.73 603.83,1176.17 605.049,1191.23 C606.959,1214.83 596.688,1231.55 575.212,1241.4 C555.704,1250.34 536.748,1249.55 518.502,1238.49 C513.08,1235.21 506.919,1234.79 501.257,1231.53 C500.436,1257.09 499.65,1282.02 498.831,1306.94 C497.585,1344.86 496.284,1382.78 495.068,1420.71 C493.947,1455.64 492.922,1490.58 491.825,1525.52 C491.417,1538.5 490.929,1551.47 490.468,1564.44 C490.378,1566.98 490.2,1569.75 487.854,1571.14 C484.322,1573.22 485.245,1574.81 487.474,1577.29 C493.733,1584.27 499.272,1591.81 501.83,1600.99 C505.133,1612.85 500.458,1622.92 489.358,1628.32 C484.698,1630.59 479.721,1631.87 474.592,1632.69 C437.681,1638.56 409.558,1622.83 395.173,1588.18 C394.346,1586.19 393.591,1584.16 392.92,1582.11 C391.429,1577.56 390.897,1572.7 383.954,1572.67 C380.426,1572.65 378.976,1568.91 378.82,1565.16 C377.922,1543.55 376.905,1521.94 375.945,1500.33 C374.587,1469.75 373.243,1439.16 371.893,1408.57 C371.247,1404.62 371.35,1400.59 370.696,1396.64 C370.38,1394.69 370.596,1392.72 370.533,1390.76 C370.695,1388.98 370.185,1387.15 371.007,1384.95 C370.128,1387.13 370.682,1388.96 370.503,1390.73 C370.549,1392.72 370.398,1394.7 370.615,1396.68 C371.081,1398.71 371.402,1400.73 370.14,1402.61"
         fill="#6E4100"
         id="path2" />
      <path
         d="M1181.06,872.731 C1190.73,898.957 1197.07,926.173 1204.72,952.99 C1225.61,1026.17 1246.14,1099.44 1266.71,1172.71 C1267.46,1175.4 1268.82,1176.88 1271.11,1178.21 C1282.5,1184.82 1293.44,1192.12 1303.35,1200.8 C1310.85,1207.36 1315.51,1215.49 1313.7,1225.92 C1312.04,1235.41 1302.93,1242.63 1291.5,1243.6 C1277.71,1244.76 1264.33,1242.38 1251.2,1238.33 C1249.96,1237.94 1248.62,1236.85 1247.46,1237.81 C1246.18,1238.85 1247.19,1240.18 1247.67,1241.41 C1247.96,1242.15 1247.89,1243.04 1247.96,1243.87 C1249.25,1259.87 1242.41,1265.17 1227.17,1259.76 C1214.07,1255.11 1206.31,1244.78 1200.02,1233.16 C1195.7,1225.2 1193.79,1216.55 1192.08,1207.63 C1190.81,1201.01 1187.8,1194.56 1186.46,1187.76 C1185.89,1184.83 1185.1,1181.93 1184.48,1179 C1183.94,1176.4 1183.98,1174.15 1179.71,1175.35 C1175.45,1176.56 1177.51,1178.72 1178.03,1180.53 C1188.11,1216.01 1198.27,1251.47 1208.41,1286.93 C1209.65,1291.25 1210.84,1295.57 1212.05,1299.89 C1214.14,1307.37 1212.58,1310.4 1205.29,1312.66 C1185.54,1318.78 1165.31,1322.69 1144.86,1325.49 C1131.67,1327.3 1131.92,1327.11 1130.86,1340.62 C1128.16,1375.13 1125.18,1409.62 1122.32,1444.11 C1119.85,1473.98 1117.38,1503.84 1114.93,1533.71 C1114.17,1542.99 1113.86,1552.34 1112.62,1561.56 C1111.49,1569.97 1115.32,1575.5 1121.42,1580.17 C1129.77,1586.57 1135.82,1594.38 1137.44,1605.1 C1139.47,1618.54 1127.13,1632.96 1113.56,1633.62 C1103.88,1634.08 1095.18,1631.62 1086.8,1627.17 C1067.55,1616.92 1064.85,1614.81 1054.34,1601.44 C1042.62,1618.02 1025.7,1627.09 1006.99,1632.72 C990.499,1637.67 973.952,1627.82 971.385,1612.1 C969.211,1598.79 976.281,1589.05 986.022,1581.18 C989.747,1578.17 992.875,1575.02 994.937,1570.71 C995.896,1568.7 996.383,1566.86 996.19,1564.55 C992.112,1516.13 988.128,1467.69 984.144,1419.25 C981.728,1389.89 979.234,1360.53 977.063,1331.14 C976.756,1326.98 974.608,1326.92 971.658,1326.55 C948.696,1323.65 925.961,1319.58 903.788,1312.79 C895.988,1310.4 894.437,1307.4 896.732,1299.36 C908.038,1259.75 919.34,1220.14 930.707,1180.55 C931.552,1177.6 931.839,1175.89 927.846,1175.17 C925.211,1174.69 924.423,1174.71 923.914,1177.4 C922.738,1183.6 921.916,1189.98 919.791,1195.88 C915.053,1209.01 914.664,1223.51 906.95,1235.72 C901.641,1244.12 895.815,1251.91 887.084,1257.04 C881.647,1260.24 875.785,1261.86 869.437,1261.34 C864.557,1260.93 861.535,1258.57 860.555,1253.49 C859.526,1248.15 860.192,1242.93 861.203,1237.03 C852.33,1239.97 843.881,1242.16 835.185,1243.09 C827.082,1243.95 818.926,1244.92 810.915,1242.45 C794.138,1237.27 788.831,1220.16 799.755,1206.33 C804.555,1200.26 810.65,1195.6 817.031,1191.31 C823.931,1186.67 830.456,1181.42 837.95,1177.75 C840.693,1176.4 841.116,1174.09 841.772,1171.77 C854.862,1125.39 867.894,1079 880.981,1032.63 C895.285,981.945 909.633,931.27 923.962,880.59 C923.717,875.517 926.328,871.311 928.455,867.087 C931.143,861.749 934.148,856.489 938.292,852.098 C940.9,849.334 939.686,848.392 936.837,847.394 C917.234,840.524 899.007,830.994 881.93,819.164 C853.862,799.719 832.243,774.617 816.078,744.681 C807.338,728.496 800.732,711.44 795.716,693.768 C794.825,690.63 793.393,688.98 789.9,688.866 C772.862,688.311 759.524,681.12 750.525,666.386 C741.92,649.605 741.848,632.035 745.661,614.104 C747.073,610.908 747.556,607.369 749.256,604.269 C755.705,592.511 765.53,585.969 778.998,585.44 C782.93,585.285 784.298,583.956 784.816,579.917 C791.459,528.173 806.411,479.262 836.083,435.771 C858.307,403.196 886.742,377.282 921.518,358.333 C942.001,347.172 963.59,339.085 986.037,333.096 C989.199,332.252 991.257,331.062 992.13,327.521 C993.349,322.573 997.366,319.727 1001.46,320.006 C1005.74,320.298 1009.61,323.851 1010.23,328.835 C1012.22,344.965 1015.98,360.614 1022.15,375.669 C1030.46,395.937 1041.69,414.397 1057.46,429.669 C1071.02,442.799 1086.69,452.207 1106.25,453.52 C1113.16,453.984 1115.98,457.55 1116.11,464.764 C1114.21,470.616 1111.11,472.771 1104.97,472.27 C1084.49,470.598 1066.63,462.564 1051.23,449.225 C1023.38,425.083 1006.48,394.223 996.905,359.015 C996.511,357.569 996.093,356.121 995.828,354.649 C995.219,351.268 993.447,350.352 990.114,351.243 C976.244,354.949 962.715,359.61 949.574,365.375 C922.58,377.217 898.485,393.467 877.772,414.376 C852.285,440.105 834.281,470.668 821.907,504.594 C812.1,531.479 805.903,559.192 803.108,587.687 C800.93,609.89 803.061,631.864 806.104,653.814 C809.108,673.887 814.345,693.361 821.742,712.256 C829.95,733.604 841.546,752.954 856.218,770.465 C883.693,803.257 919.07,823.466 959.725,835.149 C982.386,841.661 1005.56,844.924 1029.08,846.498 C1041.59,847.334 1054.08,847.691 1066.52,847.159 C1109.97,845.301 1152.28,838.247 1191.47,817.906 C1230.66,797.562 1259.8,767.525 1278.98,727.773 C1282.24,721.018 1285.46,714.253 1287.99,707.177 C1294.21,690.231 1298.36,672.755 1301.43,654.998 C1303.74,640.207 1304.99,625.288 1305.33,610.368 C1305.97,581.188 1300.05,552.904 1292.27,524.954 C1289.55,515.174 1286.11,505.643 1282.39,496.207 C1281.78,494.667 1281.07,493.146 1281.08,491.435 C1281.25,489.445 1282.7,488.681 1284.32,488.084 C1285.1,487.795 1285.92,487.633 1286.73,487.435 C1298.45,484.565 1298.32,484.612 1302.55,495.857 C1312.87,523.273 1319.23,551.634 1323.02,580.611 C1323.39,583.417 1324.08,585.013 1327.37,585.443 C1348.05,588.147 1358.4,598.462 1361.89,619.477 C1364.23,633.534 1363.55,647.381 1358.25,660.722 C1351.34,678.145 1337.79,686.962 1319.65,688.701 C1314.69,689.177 1312.73,690.925 1311.48,695.343 C1304.35,720.514 1293.7,744.103 1278.79,765.655 C1258.61,794.803 1232.78,817.57 1201.27,833.874 C1190.47,839.466 1179.43,844.501 1167.48,848.4 C1171.89,854.525 1176.62,860.284 1179.63,867.117 C1180.41,868.899 1181.82,870.545 1181.06,872.731"
         fill="#6E4100"
         id="path3" />
      <path
         d="M1115.08,464.766 C1114.82,458.039 1112.64,455.366 1106.45,454.901 C1082.79,453.12 1064.93,440.688 1049.93,423.573 C1028.67,399.326 1015.97,370.895 1010.34,339.24 C1009.7,335.645 1009.43,331.987 1008.93,328.365 C1008.32,323.885 1005.38,321.647 1001.21,321.176 C997.357,320.74 993.184,324.254 993.147,328.454 C993.114,332.173 991.52,333.068 988.329,333.868 C948.007,343.977 911.338,361.494 879.721,388.749 C852.874,411.892 832.143,439.787 816.844,471.752 C802.296,502.147 793.137,534.161 787.96,567.378 C787.141,572.627 786.466,577.904 785.925,583.189 C785.684,585.544 784.988,586.713 782.355,586.888 C761.423,588.282 753.537,594.324 747.085,613.651 C745.294,612.133 745.696,610.019 745.644,608.074 C744.54,566.922 748.465,526.244 758.259,486.265 C771.795,431.019 795.173,380.433 831.417,336.221 C847.089,317.104 864.644,299.888 884.533,285.132 C886.579,283.85 888.609,282.534 890.561,281.101 C891.839,280.359 892.812,279.252 893.904,278.28 C910.76,269.312 928.728,263.179 946.902,257.614 C950.552,256.496 953.73,255.076 955.777,251.695 C957.174,249.389 959.578,248.557 961.97,247.771 C984.52,240.362 1007.63,235.539 1031.14,232.329 C1045.03,230.432 1059.07,229.466 1072.94,229.665 C1110.73,230.205 1147.91,235.096 1183.64,248.64 C1216.28,261.014 1246.87,276.842 1274.35,298.533 C1292.62,312.96 1308.9,329.308 1323.08,347.761 C1324.35,349.421 1326.04,351.066 1325.16,353.559 C1320.82,354.26 1319.81,349.737 1316.24,348.038 C1317.03,367.653 1313.45,385.894 1300.28,401.05 C1287.13,416.187 1269.49,421.833 1249.58,424.285 C1258.3,428.255 1266.8,429.94 1275.57,430.305 C1294.8,431.104 1312.82,426.322 1330.04,418.1 C1337.24,414.659 1344.39,411.086 1351.07,406.662 C1352.58,405.663 1354.13,404.551 1356.15,405.316 C1358.11,406.556 1358.88,408.614 1359.74,410.594 C1375.82,447.56 1384.7,486.331 1389.46,526.254 C1393.16,557.29 1392.72,588.411 1392.1,619.492 C1391.3,659.22 1384.35,697.893 1368.6,734.713 C1355.36,765.685 1339.09,794.819 1316.6,820.073 C1302.29,836.147 1285.94,849.693 1265,856.556 C1261.66,857.649 1258.24,858.803 1254.78,858.758 C1248.13,858.672 1242.7,860.366 1239.64,866.795 C1224.87,868.224 1210.09,869.632 1195.32,871.094 C1190.56,871.566 1185.81,872.181 1181.06,872.731 C1176.95,863.964 1172.07,855.677 1165.05,848.113 C1176.74,843.731 1187.92,839.266 1198.68,833.762 C1245.82,809.633 1279.12,772.775 1299.88,724.274 C1304.47,713.55 1308.26,702.55 1311.36,691.32 C1312.08,688.693 1313.03,687.634 1316,687.551 C1341.47,686.842 1358.85,669.822 1361.03,644.487 C1362.09,632.209 1361.79,620.239 1357.47,608.615 C1352.17,594.315 1341.41,587.395 1326.53,586.888 C1322.66,586.757 1322.13,585.482 1321.72,582.037 C1317.87,550.046 1310.51,518.908 1298.47,488.942 C1297.52,486.581 1296.32,485.711 1294.01,486.82 C1290.12,488.684 1285.47,488.17 1281.8,490.733 C1273.72,494.006 1265.18,494.143 1256.66,494.394 C1254.96,493.73 1254.8,492.152 1254.6,490.693 C1254.03,486.54 1251.32,484.49 1247.51,484.174 C1220.19,481.912 1200.69,466.642 1184.64,446.03 C1165.22,421.076 1153.3,392.859 1149.37,361.378 C1149.19,359.892 1148.92,358.412 1148.57,356.958 C1147.62,352.955 1144.6,350.392 1141.33,350.731 C1138.05,351.07 1135.27,354.218 1135.37,358.233 C1135.51,363.891 1136.5,369.496 1137.68,375.019 C1144.08,405.117 1156.17,432.563 1175.69,456.59 C1184.9,467.931 1195.38,477.742 1207.91,485.343 C1209.57,486.352 1212.7,486.775 1211.59,490.137 C1209.51,491.346 1207.38,490.66 1205.28,490.235 C1187.79,486.684 1170.9,481.166 1154.62,473.902 C1149.82,471.758 1144.89,470.769 1139.78,470.02 C1131.44,468.797 1122.92,468.336 1115.08,464.766"
         fill="#C6986A"
         id="path4" />
      <path
         d="M1325.02,353.586 C1319.3,343.53 1311.37,335.211 1303.49,326.943 C1268.2,289.905 1225.51,264.609 1177.42,247.871 C1153.25,239.458 1128.4,234.755 1102.96,232.506 C1054.74,228.243 1007.82,234.411 961.896,249.21 C959.529,249.973 957.354,250.535 956.295,253.459 C955.135,256.661 951.886,257.693 948.753,258.575 C929.837,263.903 911.472,270.677 893.95,279.636 C892.828,280.803 891.029,280.895 889.96,282.151 C888.204,283.384 886.34,284.435 884.477,285.495 C867.673,295.718 851.049,306.172 835.906,318.835 C806,343.841 782.185,373.71 763.757,408.006 C743.393,445.903 731.22,486.368 725.663,528.891 C722.834,550.538 721.435,572.337 722.422,594.147 C724.013,629.328 728.456,664.141 738.471,698.047 C748.268,731.216 762.089,762.458 783.078,790.212 C796.979,808.592 813.7,823.944 833.046,836.445 C834.456,837.509 836.058,838.253 837.591,839.113 C848.65,845.735 860.627,850.254 872.73,854.481 C875.746,855.534 878.799,856.596 880.456,859.567 C881.476,861.397 882.705,863.411 880.867,865.527 C877.145,872.35 874.783,873.325 867.127,870.883 C818.063,855.231 781.821,823.646 755.199,780.319 C733.513,745.028 720.721,706.374 712.99,665.914 C706.657,632.766 703.857,599.278 705.214,565.568 C708.807,476.277 736.701,396.41 798.455,330.202 C827.892,298.642 863.18,275.31 902.483,257.499 C916.925,250.955 930.772,243.074 945.793,237.735 C984.801,223.871 1024.91,215.871 1066.37,215.231 C1156.74,213.835 1235.93,242.917 1302.83,303.717 C1341.45,338.817 1367.04,382.717 1383.74,431.888 C1399.44,478.126 1406.74,525.78 1406.88,574.567 C1406.96,601.707 1407.1,628.829 1404.2,655.896 C1400.66,688.979 1391.25,720.365 1377.72,750.565 C1362.77,783.909 1343.79,814.664 1317.33,840.273 C1300.96,856.125 1282.63,868.78 1259.62,872.999 C1256.2,873.626 1252.69,873.834 1249.21,874.072 C1243.96,874.431 1240.58,872.179 1239.64,866.795 C1239.81,861.381 1242.87,858.235 1247.99,858.023 C1272.14,857.028 1290.21,844.059 1306.63,828.212 C1331.3,804.392 1348.63,775.493 1362.76,744.558 C1373.86,720.263 1382.12,695.019 1386.31,668.597 C1388,657.952 1389.01,647.173 1389.79,636.415 C1391.56,611.823 1391.76,587.162 1390.79,562.552 C1388.7,509.835 1379.29,458.596 1357.98,409.968 C1357.31,408.448 1356.48,407 1355.73,405.519 C1354.25,404.86 1353.59,403.551 1352.94,402.163 C1345.66,386.432 1337,371.512 1326.63,357.6 C1325.74,356.396 1324.72,355.26 1325.02,353.586"
         fill="#6E4100"
         id="path5" />
    </g>
    <path
       d="M880.867,865.527 C880.685,859.846 877.379,857.199 872.201,855.575 C859.886,851.711 847.936,846.903 836.94,839.998 C835.93,838.575 834.372,837.859 832.977,836.928 C817.306,824.202 804.481,808.981 793.75,791.963 C770.511,755.107 758.256,714.342 751.158,671.76 C750.86,669.971 750.393,668.108 752.027,666.626 C761.303,680.974 774.716,687.693 791.564,687.536 C795.73,687.497 796.019,690.133 796.754,692.775 C803.898,718.466 814.603,742.546 829.668,764.575 C856.629,804 893.455,830.47 938.106,846.529 C943.222,848.369 943.195,848.279 939.597,852.44 C932.43,860.73 927.928,870.515 923.962,880.591 C913.594,877.146 902.798,875.059 892.702,870.759 C888.734,869.068 884.811,867.274 880.867,865.527"
       fill="#C6986A"
       id="path6" />
    <path
       d="M371.208,1396.4 C372.177,1400.42 372.045,1404.49 371.893,1408.57 C370.025,1406.96 372.034,1404.21 370.14,1402.61 C370.145,1400.61 370.151,1398.62 370.156,1396.62 C370.411,1396.08 370.762,1396 371.208,1396.4"
       fill="#E0D8CF"
       id="path7" />
    <path
       d="M616.096,520.722 C604.167,568.555 584.297,612.324 549.936,648.49 C513.008,687.357 467.254,708.909 414.355,714.602 C373.522,718.996 332.588,719.175 292.472,708.139 C228.599,690.568 182.866,650.839 152.553,592.598 C141.318,571.012 132.674,548.404 126.953,524.716 C128.857,523.726 128.939,523.61 130.611,524.789 C138.852,530.602 148.231,533.19 158.014,534.815 C181.924,538.788 200.32,525.372 209.521,505.762 C212.145,500.168 212.53,494.168 210.777,488.193 C205.071,468.74 193.874,454.615 172.852,450.968 C154.525,447.789 139.605,454.611 127.434,468.112 C124.989,470.825 123.051,473.961 121.2,477.136 C120.368,478.562 119.756,480.774 117.201,479.697 C106.301,408.171 113.996,338.826 144.456,273.03 C175.391,206.206 228.366,165.967 300.017,149.855 C304.38,148.874 304.942,151.113 305.946,154.115 C323.468,206.479 350.4,253.218 389.654,292.369 C408.096,310.763 429.27,325.15 454.037,334.084 C462.439,337.115 467.878,332.686 467.698,325.009 C467.562,319.209 467.572,313.372 467.482,307.555 C467.394,301.909 466.98,296.267 466.65,289.374 C469.605,292.513 471.806,294.829 473.982,297.169 C500.521,325.703 532.643,345.976 568.38,360.865 C574.265,363.316 578.309,361.295 580.329,355.139 C584.614,342.078 584.253,328.563 584.126,315.076 C584.117,314.113 584.125,313.15 584.125,311.354 C589.151,316.957 593.687,322.082 598.298,327.138 C604.595,334.041 611.537,340.273 618.894,346.003 C621.193,347.794 622.357,349.825 622.822,352.551 C628.727,387.146 631.28,421.914 627.949,456.949 C627.225,464.559 625.84,472.106 624.76,479.681 C621.306,480.652 621.09,477.465 620.078,475.739 C613.798,465.038 605.049,457.632 592.812,454.754 C567.069,448.7 539.578,468.458 537.424,494.702 C536.477,506.244 541.843,515.367 550.827,521.622 C565.447,531.8 581.612,535.383 599.1,529.414 C604.118,527.701 607.954,524.24 612.129,521.231 C613.133,520.507 614.418,517.787 616.096,520.722"
       fill="#FEF8EA"
       id="path8" />
    <path
       d="M240.926,1151.99 C240.438,1131.1 241.78,1106.64 242.246,1082.17 C242.845,1050.73 244.12,1019.3 245.178,987.874 C245.732,971.413 246.404,954.956 247.093,938.5 C248.248,910.913 249.458,883.328 250.65,855.742 C250.86,850.877 247.789,846.989 243.378,846.571 C238.434,846.102 234.885,848.815 234.501,854.481 C233.734,865.764 233.459,877.083 233.048,888.39 C231.983,917.656 230.953,946.924 229.91,976.192 C229.246,994.813 228.632,1013.44 227.912,1032.06 C226.369,1071.98 225.033,1111.9 224.958,1151.85 C224.952,1154.64 224.422,1155.48 221.256,1155.07 C205.429,1153.04 189.564,1151.3 173.692,1149.65 C170.745,1149.35 169.609,1148.47 169.799,1145.41 C171.17,1123.33 172.386,1101.24 173.732,1079.17 C174.775,1062.06 175.778,1044.96 177.082,1027.87 C178.828,1005 180.706,982.131 182.792,959.283 C184.681,938.589 186.67,917.897 189.069,897.257 C193.909,855.603 199.168,813.995 216.105,775.02 C223.394,758.246 232.258,742.478 247.09,730.974 C255.06,724.794 264.119,721.362 274.161,720.505 C278.666,720.12 281.318,721.183 282.461,726.531 C287.324,749.281 292.792,771.902 298.005,794.578 C298.695,797.58 299.539,800.435 302.61,801.864 C304.762,802.866 305.009,804.937 305.524,806.827 C318.032,852.702 330.52,898.582 343.009,944.462 C349.035,966.6 355.076,988.734 361.063,1010.88 C362.221,1015.17 364.601,1018.32 369.208,1018.35 C373.772,1018.39 376.232,1015.49 377.44,1011.08 C388.911,969.236 400.492,927.422 412.016,885.592 C419.478,858.507 426.895,831.41 434.344,804.322 C434.607,803.363 434.711,801.934 435.361,801.573 C442.507,797.607 441.976,790.01 443.606,783.681 C448.414,765.013 452.69,746.208 457.198,727.461 C458.726,721.109 463.007,718.894 469.394,721.276 C480.926,725.577 491.099,732.154 500.228,740.328 C523.242,760.937 535.636,787.372 541.94,817.065 C546.571,838.874 549.6,860.943 552.009,883.088 C554.76,908.373 557.413,933.672 559.76,958.997 C561.478,977.539 562.717,996.128 564.023,1014.71 C566.028,1043.24 567.996,1071.78 569.802,1100.32 C570.747,1115.27 571.239,1130.24 572.106,1145.18 C572.298,1148.49 571.118,1149.35 567.953,1149.67 C552.243,1151.26 536.542,1152.98 520.887,1155.04 C517.462,1155.49 516.992,1154.62 516.948,1151.62 C516.623,1129.15 516.31,1106.67 515.705,1084.2 C514.844,1052.26 513.774,1020.34 512.718,988.406 C512.14,970.948 511.417,953.494 510.74,936.038 C509.746,910.437 508.744,884.836 507.712,859.235 C507.632,857.25 507.335,855.268 507.059,853.296 C506.498,849.295 504.088,846.986 500.161,846.612 C496.084,846.225 493.092,847.872 491.676,851.999 C490.826,854.476 491.184,856.951 491.281,859.427 C491.905,875.385 492.617,891.34 493.224,907.299 C494.267,934.731 495.279,962.164 496.259,989.598 C496.966,1009.39 497.485,1029.18 498.293,1048.97 C499.319,1074.08 499.618,1099.21 500.404,1124.33 C501.091,1146.31 500.827,1168.28 501.11,1190.26 C501.175,1195.31 500.073,1197.41 494.573,1198.13 C468.802,1201.52 443.167,1202.46 417.817,1195.53 C401.871,1191.16 387.957,1183.46 377.836,1169.83 C373.853,1164.47 368.031,1164.11 364.426,1169.08 C351.03,1187.57 331.656,1194.99 310.254,1198.54 C288.364,1202.18 266.501,1200.95 244.656,1197.69 C241.068,1197.16 240.906,1195.25 240.912,1192.57 C240.942,1180.25 240.926,1167.92 240.926,1151.99"
       fill="#4576AD"
       id="path9" />
    <path
       d="M641.963,165.732 C659.75,198.345 669.984,233.511 676.982,269.746 C680.773,289.376 683.343,309.201 682.774,329.213 C681.863,361.216 673.484,391.549 660.921,420.837 C659.778,423.5 658.405,424.041 655.528,423.187 C645.254,420.137 645.199,420.272 644.996,409.702 C644.718,395.213 643.278,380.827 641.156,366.502 C640.312,360.807 640.499,360.597 645.995,361.623 C652.036,362.75 655.903,360.793 657.042,356.035 C658.203,351.186 655.706,347.481 649.966,345.961 C643.008,344.117 637.307,339.997 631.822,335.719 C611.515,319.883 594.408,301.218 582.273,278.295 C580.215,274.407 577.252,271.99 572.594,273.147 C568.196,274.24 566.472,277.828 566.64,283.293 C567.152,299.927 568.792,316.535 567.959,333.199 C567.81,336.168 567.264,339.118 566.848,342.522 C550.27,335.357 534.941,326.742 520.516,316.545 C499.663,301.806 481.975,283.833 466.776,263.357 C465.102,261.101 463.548,258.604 460.593,257.781 C454.938,256.204 450.486,259.903 450.129,266.486 C449.416,279.655 451.071,292.764 451.174,305.913 C451.199,309.021 451.178,312.13 451.178,315.538 C438.573,310.364 427.223,303.206 416.681,294.762 C384.206,268.748 361.028,235.436 342.084,198.906 C331.723,178.929 322.723,158.364 317.758,136.27 C317.067,133.195 316.646,130.056 316.178,126.934 C315.385,121.652 312.18,118.572 307.808,118.977 C303.251,119.4 299.442,123.532 300.354,128.449 C301.305,133.578 298.474,133.899 294.917,134.716 C223.573,151.106 169.515,190.432 135.031,255.581 C116.926,289.786 106.536,326.415 100.984,364.562 C98.994,378.233 97.76,391.965 96.952,405.746 C95.018,405.766 94.507,404.196 93.951,402.868 C81.324,372.709 73.597,341.5 75.909,308.59 C78.346,273.896 91.018,242.971 112.685,215.795 C123.152,202.667 134.94,190.847 147.745,181.942 C141.355,185.31 133.602,188.675 125.797,191.92 C124.59,192.422 123.22,192.741 122.029,191.682 C124.631,188.547 128.294,186.836 131.592,184.658 C137.983,180.437 139.658,176.849 137.154,172.191 C134.683,167.594 130.295,167.141 123.308,170.49 C100.072,181.625 76.68,192.399 52.059,200.215 C49.373,201.067 46.64,201.772 43.928,202.546 C42.734,200.362 44.214,198.659 45.127,197.006 C56.254,176.854 68.842,157.752 84.012,140.311 C103.459,117.952 126.162,99.768 151.81,85.123 C156.146,82.647 160.693,80.594 165.438,79.012 C167.338,78.255 169.319,77.676 171.036,76.506 C183.654,72.332 196.64,69.723 209.745,67.761 C222.079,65.914 234.49,64.799 246.986,64.618 C254.62,64.507 257.826,59.717 254.893,52.602 C253.74,49.802 255.359,49.488 256.907,48.669 C281.035,35.907 306.517,26.961 333.304,21.784 C352.958,17.985 372.806,16.229 392.832,16.728 C452.7,18.222 507.152,36.231 556.215,70.508 C577.765,85.563 596.787,103.383 613.431,123.735 C614.154,124.619 615.135,125.381 614.991,126.723 C616.649,129.129 615.23,131.225 614.184,133.239 C601.547,157.582 582.882,165.955 557.546,162.483 C556.771,162.377 556.012,162.133 554.431,161.933 C563.555,169.934 573.555,173.88 584.647,175.313 C604.714,177.907 623.595,173.334 641.963,165.732"
       fill="#BB9D8C"
       id="path10" />
    <path
       d="M434.611,1557.53 C422.447,1557.53 410.283,1557.45 398.122,1557.59 C395.145,1557.62 394.164,1556.78 394.054,1553.67 C393.11,1527.07 392.008,1500.47 390.891,1473.88 C389.592,1442.96 388.235,1412.05 386.892,1381.14 C385.904,1358.38 384.918,1335.61 383.896,1312.85 C382.628,1284.6 381.329,1256.36 380.029,1228.12 C379.761,1222.3 376.849,1219.44 371.348,1219.49 C364.714,1219.55 362.16,1221.84 361.873,1228.22 C360.813,1251.82 359.786,1275.42 358.766,1299.02 C357.415,1330.26 356.091,1361.5 354.741,1392.74 C353.801,1414.51 352.832,1436.28 351.885,1458.05 C350.502,1489.79 349.092,1521.53 347.804,1553.28 C347.677,1556.42 346.806,1557.62 343.445,1557.6 C319.286,1557.47 295.126,1557.48 270.966,1557.59 C267.964,1557.6 267.027,1556.81 266.951,1553.69 C266.393,1530.9 265.635,1508.12 264.912,1485.33 C263.924,1454.23 262.918,1423.13 261.905,1392.04 C261.256,1372.08 260.566,1352.13 259.92,1332.17 C258.903,1300.74 258.034,1269.31 256.795,1237.88 C256.553,1231.74 256.444,1225.58 256.006,1219.45 C255.786,1216.37 256.776,1215.23 259.915,1215.6 C270.187,1216.82 280.516,1216.99 290.832,1216.54 C313,1215.58 334.473,1211.78 353.903,1200.2 C359.07,1197.12 363.929,1193.6 368.064,1189.21 C369.821,1187.35 370.934,1186.72 373.178,1188.89 C389.037,1204.18 408.704,1211.28 429.997,1214.55 C446.348,1217.06 462.784,1217.39 479.266,1215.78 C485.873,1215.13 485.932,1215.27 485.731,1221.74 C484.744,1253.34 483.736,1284.93 482.727,1316.53 C482.068,1337.15 481.399,1357.77 480.728,1378.39 C479.732,1408.99 478.745,1439.59 477.725,1470.19 C476.8,1497.96 475.769,1525.72 474.975,1553.49 C474.877,1556.91 473.73,1557.63 470.599,1557.59 C458.605,1557.44 446.607,1557.53 434.611,1557.53"
       fill="#9D9D9D"
       id="path11" />
    <path
       d="M117.201,479.697 C121.324,476.682 122.69,471.67 125.817,467.869 C142.629,447.432 174.854,440.361 197.206,461.659 C206.22,470.248 212.326,481.152 212.956,494.066 C213.576,506.769 206.891,516.522 197.734,524.029 C177.291,540.787 150.641,540.87 129.022,525.13 C128.376,524.66 127.85,523.831 126.954,524.716 C122.436,509.984 119.642,494.879 117.201,479.697"
       fill="#FFD5BA"
       id="path12" />
    <path
       d="M616.096,520.722 C613.737,519.83 613.098,522.16 611.918,523.159 C600.57,532.763 587.585,535.455 573.267,532.491 C564.429,530.661 555.8,528.092 548.851,521.97 C534.281,509.135 532,493.359 542.166,476.37 C551.31,461.087 565.04,452.551 582.635,452.261 C599.891,451.976 613.029,460.346 621.492,475.632 C622.328,477.142 622.481,479.3 624.76,479.68 C622.539,493.502 620.054,507.268 616.096,520.722"
       fill="#FFD5BA"
       id="path13" />
    <path
       d="M122.029,191.682 C131.294,188.899 139.671,184.04 148.555,180.367 C149.86,179.828 150.964,178.491 152.684,179.135 C64.019,245.379 64.825,336.614 96.952,405.746 C96.978,406.078 97.03,406.411 97.024,406.742 C96.747,421.467 96.73,421.386 82.409,424.341 C80.134,424.811 79.839,423.476 79.207,422.243 C67.164,398.723 57.769,374.251 54.11,347.955 C45.38,285.226 68.557,235.368 116.277,195.613 C118.053,194.133 120.105,192.985 122.029,191.682"
       fill="#FEFEFE"
       id="path14" />
    <path
       d="M369.374,979.788 C366.446,969.237 363.761,959.667 361.137,950.081 C357.231,935.815 353.737,921.423 349.355,907.306 C346.495,898.096 349.333,889.488 350.591,880.741 C354.421,854.103 358.675,827.525 362.786,800.927 C363.161,798.501 362.45,796.315 361.572,794.144 C359.888,789.981 358.414,785.712 356.412,781.707 C354.656,778.192 355.697,776.758 358.658,774.209 C366.688,767.299 373.597,770.298 380.91,774.961 C382.742,776.129 383.074,777.116 382.111,778.922 C381.332,780.385 380.916,782.053 380.066,783.466 C374.471,792.766 373.894,802.37 376.017,813.045 C381.462,840.411 385.963,867.964 390.827,895.446 C391.264,897.918 391.382,900.391 390.694,902.869 C383.674,928.148 376.675,953.433 369.374,979.788"
       fill="#FF7164"
       id="path15" />
    <path
       d="M236.1,1212.87 C233.782,1216.76 231.079,1219.63 226.409,1218.82 C221.904,1218.05 219.898,1214.61 218.637,1210.59 C217.248,1206.18 218.548,1202.09 219.967,1197.95 C221.705,1192.88 219.76,1188.57 215.225,1187 C211.013,1185.53 206.863,1187.63 204.955,1192.42 C200.013,1204.82 201.076,1216.49 209.585,1227.12 C192.607,1236.51 164.731,1228.43 155.706,1211.55 C151.563,1203.8 151.641,1195.56 153.372,1187.23 C154.799,1180.36 157.404,1173.89 160.181,1167.47 C161.184,1165.15 162.488,1164.3 165.103,1164.62 C183.607,1166.88 202.119,1169.09 220.653,1171.1 C223.946,1171.46 224.611,1172.76 224.589,1175.79 C224.536,1183.28 224.796,1190.77 225.069,1198.26 C225.413,1207.72 226.92,1209.7 236.1,1212.87"
       fill="#FEF8EA"
       id="path16" />
    <path
       d="M532.152,1227.15 C540.567,1216.73 541.704,1205.24 537.042,1192.95 C535.115,1187.87 530.983,1185.52 526.647,1186.93 C521.988,1188.46 520.085,1192.87 521.971,1198.26 C523.844,1203.61 524.772,1208.91 521.691,1214.12 C518.058,1220.25 510.993,1220.58 506.929,1214.96 C505.69,1213.25 505.736,1212.27 507.878,1211.96 C514.047,1211.08 515.849,1206.8 516.408,1201.39 C517.298,1192.76 517.174,1184.11 517.086,1175.46 C517.056,1172.51 517.852,1171.48 520.834,1171.15 C539.509,1169.1 558.161,1166.84 576.822,1164.66 C578.475,1164.47 580.07,1164.18 580.997,1166.27 C585.87,1177.26 590.309,1188.32 589.18,1200.75 C588.602,1207.12 586.287,1212.63 581.934,1217.3 C572.552,1227.38 549.541,1237.54 532.152,1227.15"
       fill="#FEF8EA"
       id="path17" />
    <path
       d="M434.995,1573.53 C442.479,1573.53 449.966,1573.65 457.446,1573.47 C460.362,1573.4 462.422,1574.36 464.45,1576.4 C471.124,1583.11 477.877,1589.72 482.899,1597.85 C484.216,1599.99 485.271,1602.19 486.181,1604.53 C487.939,1609.05 486.216,1612.2 482.192,1613.83 C465.083,1620.73 439.772,1619.79 424.526,1604.39 C416.868,1596.66 411.581,1587.25 407.952,1576.93 C406.976,1574.16 407.816,1573.46 410.547,1573.49 C418.695,1573.6 426.845,1573.53 434.995,1573.53"
       fill="#6E4E25"
       id="path18" />
    <path
       d="M281.445,1617.41 C275.36,1618.1 269.498,1616.97 263.701,1615.48 C255.077,1613.25 253.349,1609.2 257.125,1601.23 C262.258,1590.39 271.326,1582.94 279.45,1574.66 C280.633,1573.45 282.144,1573.53 283.648,1573.53 C299.466,1573.53 315.283,1573.53 331.101,1573.53 C332.951,1573.52 335.1,1573.17 333.957,1576.25 C327.17,1594.55 317.065,1609.81 297.168,1615.93 C292.051,1617.5 286.756,1617.93 281.445,1617.41"
       fill="#6E4E25"
       id="path19" />
    <path
       d="M165.835,79.538 C135.587,93.679 109.644,113.598 87.345,138.324 C71.007,156.439 57.494,176.545 46.043,198.057 C45.267,199.515 44.63,201.048 43.928,202.546 C36.275,204.843 28.53,206.598 20.699,206.722 C19.864,205.976 20.074,205.351 20.382,204.777 C51.614,146.506 96.207,103.139 159.231,80.349 C161.092,79.676 163.019,79.185 164.915,78.608 C166.007,78.142 166.121,78.643 165.835,79.538"
       fill="#FEFEFE"
       id="path20" />
    <path
       d="M641.963,165.732 C641.949,166.804 641.628,167.548 640.467,167.986 C618.799,176.157 596.784,181.163 573.748,174.381 C565.233,171.874 557.485,167.752 551.076,160.017 C561.304,161.968 570.836,163.089 580.231,160.611 C598.118,155.892 609.182,143.946 614.991,126.723 C622.425,133.696 627.391,142.523 632.973,150.868 C636.189,155.676 638.981,160.768 641.963,165.732"
       fill="#FEFEFE"
       id="path21" />
    <path
       d="M298.84,726.434 C308.509,728.255 317.436,730.032 326.492,731.015 C327.698,731.146 328.924,732.034 329.939,732.828 C338.717,739.688 347.39,746.684 356.229,753.464 C359.014,755.601 358.068,756.376 355.625,757.735 C342.131,765.238 328.717,772.884 315.271,780.472 C313.371,781.544 311.758,783.085 310.892,779.115 C307.112,761.773 303.006,744.503 298.84,726.434"
       fill="#FEFEFE"
       id="path22" />
    <path
       d="M101.102,502.823 C98.147,502.343 95.159,502.009 92.242,501.359 C73.894,497.272 66.726,488.186 66.892,469.359 C67.035,453.032 77.324,440.928 93.76,437.419 C96.346,436.867 96.907,437.369 96.922,439.868 C97.043,459.937 100.644,479.593 104.33,499.217 C104.963,502.587 104.381,503.548 101.102,502.823"
       fill="#FEF8EA"
       id="path23" />
    <path
       d="M440.908,726.766 C436.608,744.396 432.384,761.429 428.356,778.507 C427.649,781.507 426.482,780.764 424.648,779.798 C410.412,772.294 396.147,764.843 381.253,757.04 C387.306,752.236 393.6,748.301 398.55,743.091 C408.773,732.331 421.738,729.134 435.624,727.686 C437.102,727.532 438.559,727.182 440.908,726.766"
       fill="#FEFEFE"
       id="path24" />
    <path
       d="M637.124,502.574 C640.823,481.689 644.745,461.129 645.094,440.131 C645.139,437.368 646.151,437.247 648.397,437.702 C671.023,442.286 682.389,470.74 669.182,489.853 C666.964,493.062 664.049,495.493 660.634,497.324 C654.992,500.349 644.637,502.691 637.124,502.574"
       fill="#FEF8EA"
       id="path25" />
    <path
       d="M401.168,861.907 C397.705,842.014 394.027,822.265 390.949,802.424 C389.938,795.913 394.965,790.764 397.157,784.971 C397.736,783.441 399.189,784.627 400.121,785.113 C406.012,788.182 411.851,791.35 417.76,794.383 C419.232,795.139 420.223,795.676 419.648,797.709 C413.65,818.95 407.744,840.217 401.799,861.474 C401.765,861.595 401.535,861.662 401.168,861.907"
       fill="#FEFEFE"
       id="path26" />
    <path
       d="M336.686,860.072 C331.023,839.394 325.612,819.562 320.138,799.748 C319.527,797.536 319.751,796.182 322.068,795 C327.383,792.29 332.576,789.32 337.695,786.25 C339.884,784.938 340.708,785.467 341.663,787.65 C344.813,794.852 346.874,801.819 345.234,810.127 C342.119,825.907 340.242,841.932 337.827,857.852 C337.761,858.286 337.415,858.678 336.686,860.072"
       fill="#FEFEFE"
       id="path27" />
    <path
       d="M357.78,732.77 C366.533,732.77 375.286,732.77 384.039,732.77 C384.283,733.072 384.527,733.375 384.772,733.677 C380.383,737.114 375.999,740.557 371.6,743.981 C370.728,744.661 370.044,744.003 369.42,743.507 C365.338,740.266 361.275,737.001 357.205,733.744 C357.397,733.419 357.589,733.094 357.78,732.77"
       fill="#FCF3DF"
       id="path28" />
    <path
       d="M165.835,79.538 C165.529,79.228 165.222,78.918 164.915,78.608 C166.727,77.241 168.847,76.774 171.036,76.506 C169.863,78.479 167.739,78.819 165.835,79.538"
       fill="#DCD1C7"
       id="path29" />
    <path
       d="M370.129,1390.65 C370.129,1388.94 370.129,1387.23 370.129,1384.82 C371.505,1387.13 370.838,1388.9 370.996,1390.58 C370.741,1390.99 370.45,1391 370.129,1390.65"
       fill="#92744B"
       id="path30" />
    <path
       d="M370.129,1390.65 C370.415,1390.6 370.704,1390.57 370.996,1390.58 C371.066,1392.52 371.137,1394.46 371.208,1396.4 C370.858,1396.47 370.507,1396.54 370.156,1396.62 C370.147,1394.63 370.138,1392.64 370.129,1390.65"
       fill="#BCAA94"
       id="path31" />
    <path
       d="M1255.92,493.637 C1264.55,492.669 1273.18,491.701 1281.8,490.733 C1293.96,519.886 1301.78,550.245 1305.49,581.528 C1308.43,606.263 1306.7,631.016 1302.66,655.585 C1299.7,655.029 1299.73,652.29 1298.91,650.27 C1294.45,639.372 1288.56,629.554 1279.69,621.499 C1264.71,607.888 1239.55,606.025 1222.33,616.483 C1201.43,629.176 1189.92,648.149 1188.71,672.246 C1187.9,688.255 1195.65,701.674 1208.5,711.291 C1222.22,721.568 1238.18,725.423 1255.14,723.976 C1266.29,723.024 1275.73,717.81 1283.54,709.696 C1286.57,706.541 1286.68,706.645 1288.97,707.64 C1274.21,748.427 1249.49,781.651 1213.64,806.275 C1182.58,827.602 1147.68,838.898 1110.78,844.473 C1068.98,850.788 1027.2,850.395 985.589,842.622 C940.138,834.131 899.149,816.443 866.009,783.216 C845.899,763.053 830.77,739.57 820.704,712.881 C822.547,711.427 822.69,711.226 824.73,712.679 C833.523,718.942 843.611,721.821 854.002,723.498 C870.338,726.136 884.871,722.852 896.983,710.436 C906.471,700.71 914.788,690.615 917.064,676.739 C917.936,671.424 917.981,666.142 916.643,660.885 C913.267,647.618 907.916,635.326 898.255,625.369 C879.533,606.074 851.024,604.492 829.843,621.145 C819.884,628.975 812.792,638.771 807.9,650.331 C807.312,651.722 807.289,653.805 804.916,653.684 C802.263,641.445 801.209,628.98 801.134,616.54 C800.73,548.953 818.478,486.862 859.989,432.896 C893.736,389.024 939.209,362.791 992.483,349.287 C996.981,348.147 996.271,351.129 996.737,353.115 C1003.41,381.594 1015.71,407.354 1034.21,430.021 C1049.61,448.893 1068.22,463.195 1092.41,469.072 C1096.62,470.096 1100.91,470.594 1105.22,470.995 C1110.22,471.459 1113.67,469.812 1115.08,464.767 C1122.1,464.919 1128.72,467.809 1135.69,467.976 C1150.86,468.338 1163.24,477.244 1177.22,481.214 C1188.7,484.474 1199.96,488.609 1211.99,489.581 C1214.45,488.22 1216.46,489.911 1218.5,490.714 C1225.73,493.571 1233.11,495.83 1240.78,497.157 C1246.39,498.125 1251.57,497.793 1255.92,493.637"
       fill="#FEF8EA"
       id="path32" />
    <path
       d="M1123.1,1165.59 C1107.7,1164.75 1092.22,1164.29 1077.63,1158.11 C1071.39,1155.47 1065.98,1151.77 1061.48,1146.67 C1056.34,1140.84 1051.97,1140.97 1047.06,1146.77 C1038.95,1156.34 1027.83,1160.17 1016.1,1162.55 C994.964,1166.84 973.744,1165.7 952.535,1163.07 C949.568,1162.7 946.622,1161.95 943.652,1161.86 C940.154,1161.75 939.507,1160.12 940.037,1157.07 C945.416,1126.11 948.941,1094.89 952.656,1063.71 C956.076,1034.99 958.915,1006.2 961.998,977.445 C963.912,959.595 965.811,941.743 967.692,923.889 C967.866,922.235 967.959,920.561 967.92,918.9 C967.805,914.097 964.766,910.822 960.356,910.633 C955.948,910.444 952.501,913.441 951.995,918.161 C950.313,933.862 948.438,949.549 947.126,965.283 C943.904,1003.93 938.436,1042.16 929.221,1079.92 C920.791,1114.46 913.622,1149.31 906.132,1184.08 C905.192,1188.45 903.672,1188.86 899.74,1187.75 C887.101,1184.2 874.388,1180.88 861.612,1177.85 C857.933,1176.98 857.155,1175.75 858.167,1172.2 C868.88,1134.63 879.476,1097.03 890.09,1059.43 C905.716,1004.07 921.324,948.702 936.956,893.344 C940.057,882.362 944.597,872.087 951.662,862.993 C956.781,856.406 962.521,852.38 971.295,856.106 C974.461,857.45 978.896,856.42 981.172,858.826 C983.477,861.262 981.014,865.151 981.114,868.45 C981.369,876.879 982.498,885.062 986.681,892.497 C987.951,894.754 987.362,895.763 985.369,896.667 C985.219,896.736 985.088,896.846 984.949,896.937 C971.537,905.745 971.002,905.859 975.433,923.173 C977.767,932.296 982.05,940.636 988.964,947.279 C991.069,949.301 991.101,950.958 989.741,953.346 C987.602,957.104 985.728,961.016 983.837,964.908 C980.764,971.233 982.452,975.401 989.048,977.798 C998.896,981.377 1008.71,985.054 1018.65,988.377 C1022.13,989.54 1024.07,991.257 1025.23,994.881 C1031.7,1015.16 1038.5,1035.33 1045.09,1055.56 C1046.48,1059.83 1048.47,1063.41 1053.48,1063.41 C1058.44,1063.41 1060.59,1059.98 1062.01,1055.68 C1068.66,1035.46 1075.48,1015.3 1082.09,995.07 C1083.12,991.926 1084.7,990.141 1087.92,989.07 C1098.34,985.606 1108.64,981.806 1118.97,978.105 C1126.41,975.441 1128.13,970.394 1123.94,963.722 C1121.55,959.918 1117.93,956.352 1117.11,952.232 C1116.18,947.561 1122.06,945.553 1124.45,941.938 C1130.67,932.549 1134.2,922.338 1135.59,911.279 C1135.97,908.263 1134.91,905.78 1132.72,903.648 C1128.85,899.881 1124.3,897.115 1119.59,894.628 C1117.35,893.448 1116.72,892.498 1118.21,890.145 C1123.77,881.381 1126.51,871.679 1126.91,861.355 C1127.01,858.628 1128,857.631 1130.64,857.31 C1133.6,856.951 1136.69,856.478 1139.35,855.242 C1145.01,852.606 1148.94,855.248 1152.67,858.855 C1162.86,868.7 1167.93,881.351 1171.68,894.581 C1187.58,950.727 1203.33,1006.91 1219.15,1063.08 C1229.47,1099.73 1239.78,1136.38 1250.22,1172.99 C1251.11,1176.11 1250.3,1176.98 1247.36,1177.71 C1233.96,1180.99 1220.59,1184.39 1207.29,1188.05 C1203.95,1188.96 1202.88,1188.02 1202.19,1184.97 C1191.51,1137.8 1180.4,1090.72 1170.27,1043.43 C1167.12,1028.71 1166.56,1013.43 1164.93,998.395 C1162.64,977.241 1160.44,956.076 1158.24,934.912 C1157.71,929.785 1157.31,924.643 1156.85,919.508 C1156.34,913.898 1152.81,910.346 1148.05,910.655 C1143.39,910.958 1140.41,914.511 1140.89,920.164 C1142.22,935.736 1143.74,951.293 1145.34,966.839 C1147.11,984.034 1149.01,1001.22 1150.94,1018.39 C1153.11,1037.72 1155.46,1057.02 1157.61,1076.35 C1159.99,1097.83 1162.81,1119.25 1165.92,1140.63 C1166.66,1145.73 1167.16,1150.89 1168.33,1155.89 C1169.23,1159.73 1168.97,1161.29 1164.38,1162 C1150.7,1164.1 1136.94,1164.77 1123.1,1165.59"
       fill="#4576AD"
       id="path33" />
    <path
       d="M752.027,666.626 C754.539,687.636 759.478,708.106 765.928,728.222 C776.02,759.694 790.408,788.897 811.8,814.363 C818.556,822.405 826.024,829.742 833.865,836.712 C834.141,837.586 834.007,838.055 832.963,837.623 C804.181,820.221 782.76,795.794 766.006,767.026 C745.407,731.656 733.671,693.189 726.998,653.048 C721.38,619.258 719.361,585.235 722.035,551.055 C728.216,472.06 754.474,401.3 808.981,342.484 C830.858,318.877 856.028,299.347 884.728,284.546 C885.835,284.076 886.025,284.63 885.87,285.569 C845.417,316.577 814.216,355.241 791.185,400.56 C772.057,438.199 759.731,478.06 752.944,519.696 C747.869,550.83 746.283,582.162 747.085,613.652 C743.161,631.829 743.577,649.602 752.027,666.626"
       fill="#FEFEFE"
       id="path34" />
    <path
       d="M1288.97,707.64 C1286.9,706.56 1286.39,708.678 1285.58,709.546 C1270.36,725.833 1251.79,728.521 1231.15,723.236 C1218.08,719.889 1206.57,713.991 1198.2,703.089 C1187.44,689.081 1184.54,673.522 1189.93,656.645 C1197.63,632.527 1212.42,615.014 1237.91,609.419 C1252.73,606.164 1266.93,609.391 1279.13,619.316 C1289.51,627.772 1295.92,638.84 1300.59,651.113 C1301.18,652.661 1301.45,654.333 1302.66,655.585 C1299.78,673.38 1295.74,690.868 1288.97,707.64"
       fill="#FFD5BA"
       id="path35" />
    <path
       d="M804.916,653.684 C808.495,645.292 812.683,637.338 818.55,630.186 C843.449,599.835 888.583,600.108 908.947,637.714 C914.261,647.528 918.798,657.68 918.948,669.178 C919.127,682.882 913.573,694.338 904.696,704.291 C900.504,708.991 896.129,713.756 891.05,717.392 C878.671,726.254 864.651,727.368 850.128,724.178 C840.524,722.069 831.188,719.211 823.156,713.192 C822.428,712.647 821.692,711.614 820.705,712.882 C812.78,693.859 807.518,674.126 804.916,653.684"
       fill="#FFD5BA"
       id="path36" />
    <path
       d="M1054.11,1315.74 C1044.3,1315.39 1034.48,1315.96 1024.66,1315 C1021.57,1314.7 1020.68,1313.73 1020.97,1310.76 C1022.89,1291.4 1024.75,1272.04 1026.55,1252.67 C1028.06,1236.28 1029.47,1219.88 1030.91,1203.48 C1031.65,1195.03 1032.37,1186.58 1033.08,1178.13 C1033.3,1175.63 1034.24,1173.97 1036.89,1173.01 C1042.39,1171 1047.47,1168.12 1051.94,1164.3 C1053.64,1162.84 1054.87,1162.9 1056.63,1164.33 C1061.3,1168.14 1066.48,1171.18 1072.16,1173.22 C1074.45,1174.04 1075.11,1175.56 1075.31,1177.72 C1076.14,1186.83 1077.07,1195.92 1077.91,1205.03 C1080.19,1229.53 1082.44,1254.03 1084.69,1278.54 C1085.71,1289.63 1086.66,1300.73 1087.76,1311.82 C1088.03,1314.5 1086.64,1314.67 1084.55,1314.91 C1074.42,1316.1 1064.25,1315.38 1054.11,1315.74"
       fill="#4576AD"
       id="path37" />
    <path
       d="M1061.82,1475.74 C1061.82,1453.6 1061.92,1431.46 1061.72,1409.32 C1061.69,1405.28 1062.94,1404.39 1066.79,1404.33 C1079.91,1404.15 1093.03,1403.63 1106.15,1402.99 C1109.33,1402.83 1109.79,1403.96 1109.56,1406.7 C1107.26,1433.84 1105.03,1460.99 1102.78,1488.15 C1101.08,1508.84 1099.36,1529.54 1097.69,1550.24 C1097.39,1553.99 1096.75,1556.1 1091.8,1556.63 C1082.94,1557.57 1076.58,1563.06 1073.96,1571.85 C1072.94,1575.25 1071.86,1575.54 1068.96,1573.88 C1064.65,1571.43 1062.74,1568.34 1062.79,1563.08 C1062.91,1548.45 1062.23,1533.82 1062.08,1519.19 C1061.93,1504.71 1062.05,1490.22 1062.05,1475.74 C1061.97,1475.74 1061.89,1475.74 1061.82,1475.74"
       fill="#9D9D9D"
       id="path38" />
    <path
       d="M1045.82,1487.1 C1045.82,1512.74 1045.83,1538.39 1045.81,1564.04 C1045.8,1569.32 1042.35,1573.49 1037.36,1574.94 C1035.13,1575.58 1035.36,1574.22 1034.99,1572.95 C1032.23,1563.4 1024.74,1557.06 1014.93,1556.34 C1012.11,1556.13 1011.28,1555.04 1011.08,1552.42 C1009.41,1530.21 1007.69,1507.99 1005.85,1485.79 C1003.72,1460.13 1001.48,1434.47 999.214,1408.81 C998.692,1402.89 998.557,1403.12 1004.75,1403.37 C1016.89,1403.86 1029.03,1404.27 1041.17,1404.33 C1044.96,1404.35 1045.92,1405.47 1045.9,1409.15 C1045.75,1435.14 1045.82,1461.12 1045.82,1487.1"
       fill="#9D9D9D"
       id="path39" />
    <path
       d="M1000.19,1313.57 C986.048,1312.21 972.025,1310.62 958.052,1308.56 C954.949,1308.11 954.89,1306.69 955.438,1304.09 C959.673,1283.94 963.755,1263.76 967.903,1243.6 C971.883,1224.25 975.94,1204.91 979.812,1185.54 C980.345,1182.87 981.004,1181.31 984.125,1181.43 C994.124,1181.81 1004.05,1180.7 1013.93,1179.37 C1016.56,1179.02 1017.09,1179.69 1016.86,1182.1 C1014.99,1201.44 1013.17,1220.79 1011.36,1240.14 C1009.89,1255.86 1008.46,1271.57 1007.03,1287.29 C1006.32,1295.07 1005.47,1302.83 1005.03,1310.63 C1004.81,1314.59 1002.23,1313.42 1000.19,1313.57"
       fill="#4576AD"
       id="path40" />
    <path
       d="M1107.34,1313.68 C1105.08,1314.23 1103.9,1313.12 1103.62,1309.74 C1102.19,1292.34 1100.48,1274.97 1098.86,1257.59 C1096.62,1233.59 1094.42,1209.58 1092.09,1185.59 C1091.46,1179.16 1091.56,1178.8 1097.89,1179.7 C1106.47,1180.92 1115.08,1181.72 1123.75,1181.41 C1126.74,1181.31 1128.23,1182.18 1128.86,1185.28 C1136.85,1224.69 1144.88,1264.1 1153.08,1303.47 C1153.85,1307.19 1153.18,1308.18 1149.34,1308.73 C1135.67,1310.65 1121.97,1312.27 1107.34,1313.68"
       fill="#4576AD"
       id="path41" />
    <path
       d="M1061.77,1359.85 C1061.77,1351.69 1061.87,1343.53 1061.71,1335.37 C1061.66,1332.59 1062.43,1331.66 1065.32,1331.66 C1080.97,1331.65 1096.57,1330.54 1112.16,1329.37 C1114.41,1329.2 1115.94,1329.01 1115.64,1332.26 C1114.07,1349.15 1112.65,1366.06 1111.34,1382.97 C1111.12,1385.82 1110.26,1386.96 1107.28,1387.09 C1093.33,1387.71 1079.38,1388.5 1065.4,1388.45 C1062.6,1388.44 1061.65,1387.7 1061.71,1384.82 C1061.88,1376.5 1061.77,1368.17 1061.77,1359.85"
       fill="#FEF8EA"
       id="path42" />
    <path
       d="M1045.76,1360.57 C1045.76,1368.72 1045.68,1376.87 1045.81,1385.01 C1045.86,1387.62 1045.02,1388.43 1042.41,1388.44 C1028.61,1388.5 1014.84,1387.69 1001.07,1387.07 C998.286,1386.95 997.406,1385.76 997.204,1383.19 C995.878,1366.29 994.497,1349.4 993.031,1332.51 C992.807,1329.94 993.245,1329.06 996.151,1329.29 C1011.38,1330.54 1026.64,1331.61 1041.93,1331.64 C1045.03,1331.65 1045.9,1332.58 1045.83,1335.62 C1045.64,1343.93 1045.77,1352.25 1045.76,1360.57"
       fill="#FEF8EA"
       id="path43" />
    <path
       d="M1156.47,1179.16 C1160.68,1176.94 1161.42,1180.7 1162.57,1184.75 C1172.86,1221.03 1183.23,1257.28 1193.75,1293.49 C1194.95,1297.64 1194.66,1299.76 1189.86,1300.52 C1184.47,1301.37 1179.16,1302.86 1173.85,1304.21 C1171.13,1304.91 1169.57,1304.6 1168.91,1301.35 C1161,1262.46 1152.99,1223.59 1144.95,1184.73 C1144.33,1181.77 1144.55,1180.1 1148.21,1180.24 C1150.5,1180.32 1152.81,1179.67 1156.47,1179.16"
       fill="#4576AD"
       id="path44" />
    <path
       d="M963.894,1183.19 C960.802,1198.32 957.793,1213.12 954.746,1227.91 C949.826,1251.81 944.817,1275.69 940.008,1299.61 C939.211,1303.57 938.111,1305.48 933.549,1303.99 C928.201,1302.24 922.643,1301.09 917.123,1299.93 C914.402,1299.36 913.573,1298.42 914.402,1295.54 C925.262,1257.89 936.052,1220.22 946.726,1182.52 C947.608,1179.4 948.817,1178.56 951.959,1179.31 C955.001,1180.04 958.208,1180.13 961.354,1180.37 C963.451,1180.52 964.526,1181.29 963.894,1183.19"
       fill="#4576AD"
       id="path45" />
    <path
       d="M1232.04,1244.84 C1220.01,1237.89 1214.15,1227.6 1210.16,1216.1 C1206.37,1205.16 1206.87,1204.59 1217.75,1201.8 C1230.79,1198.46 1243.83,1195.13 1256.84,1191.69 C1259.57,1190.96 1261.89,1191.17 1264.32,1192.7 C1273.77,1198.65 1283.13,1204.73 1291.64,1211.95 C1295.09,1214.87 1299.78,1218.36 1297.38,1223.54 C1295.17,1228.32 1289.59,1228.07 1284.93,1227.93 C1274.23,1227.62 1263.72,1225.95 1253.66,1222.15 C1248.19,1220.09 1243.03,1217.4 1239.11,1212.82 C1236.39,1209.64 1232.96,1208.77 1229.25,1210.67 C1225.3,1212.69 1224.07,1216.25 1225.23,1220.4 C1227.15,1227.28 1229.33,1234.09 1231.36,1240.94 C1231.64,1241.86 1231.7,1242.85 1232.04,1244.84"
       fill="#FEF8EA"
       id="path46" />
    <path
       d="M876.701,1243.36 C876.93,1237.2 879.803,1231.65 881.337,1225.78 C881.965,1223.37 882.906,1221.02 883.231,1218.57 C883.689,1215.15 882.258,1212.34 879.142,1210.71 C876.065,1209.1 872.737,1209.14 870.339,1211.67 C858.647,1224.02 843.171,1226.04 827.546,1227.67 C823.271,1228.11 818.932,1228.44 814.765,1226.73 C809.857,1224.72 808.9,1221.87 811.701,1217.38 C813.396,1214.66 815.663,1212.45 818.169,1210.52 C826.466,1204.13 835.062,1198.16 843.989,1192.68 C846.224,1191.3 848.313,1190.84 850.989,1191.57 C866.051,1195.62 881.156,1199.52 896.277,1203.35 C898.595,1203.94 900.434,1204.4 899.949,1207.41 C897.664,1221.56 891.57,1233.55 880.071,1242.45 C879.233,1243.1 878.283,1244.02 876.701,1243.36"
       fill="#FEF8EA"
       id="path47" />
    <path
       d="M781.401,602.847 C783.596,602.747 785.105,603.675 785.062,607.381 C784.825,627.715 786.854,647.868 790.89,667.796 C791.637,671.487 790.274,671.953 787.145,671.484 C774.533,669.592 766.149,662.874 762.859,650.363 C759.881,639.037 759.87,627.641 763.083,616.391 C765.7,607.232 771.804,602.72 781.401,602.847"
       fill="#FEF8EA"
       id="path48" />
    <path
       d="M1075.04,907.367 C1075.21,897.876 1075.22,897.836 1083.86,899.54 C1095.17,901.77 1106.09,905.082 1116.08,911.071 C1118.17,912.326 1119.26,913.513 1118.55,916.219 C1114.68,930.826 1106.26,941.378 1092.07,947.21 C1088.51,948.675 1087.23,947.739 1086.12,944.309 C1083.2,935.304 1079.99,926.386 1076.74,917.491 C1075.47,913.998 1074.43,910.552 1075.04,907.367"
       fill="#FF7164"
       id="path49" />
    <path
       d="M1034,909.761 C1033.67,911.2 1033.47,912.685 1032.99,914.071 C1029.39,924.426 1025.65,934.731 1022.17,945.121 C1021.2,948 1020.04,948.541 1017.19,947.445 C1002.84,941.937 994.328,931.422 990.244,916.906 C989.517,914.32 990.049,912.609 992.507,911.124 C1003.96,904.206 1016.6,900.925 1029.58,898.612 C1032.17,898.152 1033.29,899.164 1033.21,901.765 C1033.14,904.407 1033.2,907.053 1033.2,909.698 C1033.46,909.719 1033.73,909.74 1034,909.761"
       fill="#FF7164"
       id="path50" />
    <path
       d="M1316.19,671.588 C1319.83,653.296 1321.86,635.208 1322.56,616.976 C1322.69,613.488 1322.86,609.985 1322.68,606.507 C1322.52,603.538 1323.85,602.665 1326.51,602.855 C1332.84,603.31 1338.53,605.319 1341.1,611.558 C1347.61,627.385 1347.72,643.376 1339.84,658.709 C1335.17,667.786 1326.41,670.887 1316.19,671.588"
       fill="#FEF8EA"
       id="path51" />
    <path
       d="M1041.09,1590.99 C1038.21,1596.36 1035.51,1600.03 1031.36,1602.67 C1022.71,1608.19 1014.26,1614.01 1004.24,1616.95 C1001.59,1617.73 998.955,1617.67 996.348,1617.46 C989.182,1616.9 984.895,1609.05 988.502,1602.8 C990.531,1599.28 992.591,1595.7 996.402,1593.42 C1002.42,1589.84 1006.44,1584.41 1009.23,1578.01 C1009.81,1576.67 1010.77,1575.46 1011.7,1574.32 C1012.81,1572.94 1014.15,1572.11 1016.04,1573.08 C1017.59,1573.87 1018.94,1574.72 1018.93,1576.72 C1018.92,1579.71 1019.25,1582.74 1018.87,1585.69 C1017.74,1594.53 1025.31,1597.35 1032.4,1594.74 C1034.95,1593.8 1037.4,1592.59 1041.09,1590.99"
       fill="#6E4E25"
       id="path52" />
    <path
       d="M1068,1591.33 C1073.05,1593.34 1076.86,1595.82 1081.57,1595.58 C1086.56,1595.33 1089.55,1592.7 1089.93,1587.73 C1090.15,1584.87 1089.5,1582.14 1089,1579.36 C1088.42,1576.08 1090.1,1573.73 1093.04,1572.77 C1095.87,1571.84 1097.18,1574.13 1098.29,1576.28 C1101.93,1583.26 1106.23,1589.58 1112.92,1594.2 C1116.29,1596.52 1119.03,1599.78 1120.58,1603.85 C1123.08,1610.38 1118.65,1616.94 1111.64,1617.6 C1102.61,1618.45 1095.64,1613.53 1088.44,1609.61 C1080.66,1605.37 1072.39,1601.33 1068,1591.33"
       fill="#6E4E25"
       id="path53" />
    <path
       d="M1053.62,1029.87 C1049.64,1017.77 1046.1,1006.98 1042.53,996.193 C1042.26,995.399 1041.76,994.563 1042.49,993.895 C1048.63,988.342 1047.14,980.379 1048.76,973.479 C1051.03,963.815 1052.43,953.945 1054.79,944.119 C1057.15,957.658 1059.53,971.195 1061.85,984.741 C1062.33,987.525 1062.51,990.384 1064.59,992.579 C1065.36,993.384 1065.52,994.156 1065.15,995.253 C1061.42,1006.37 1057.73,1017.5 1053.62,1029.87"
       fill="#FEFEFE"
       id="path54" />
    <path
       d="M997.286,869.044 C997.438,860.814 997.433,861.668 1005.48,861.712 C1014.5,861.762 1019.48,865.185 1021.14,873.962 C1021.73,877.138 1025.85,880.152 1024.32,882.75 C1023.23,884.606 1018.57,884.342 1015.52,885.076 C1013.1,885.657 1010.49,885.907 1008.33,887.023 C1003.19,889.684 1001.14,887.005 999.74,882.685 C999.178,880.95 998.429,879.242 998.139,877.461 C997.687,874.683 997.554,871.853 997.286,869.044"
       fill="#FEFEFE"
       id="path55" />
    <path
       d="M1034.59,864.661 C1048.2,864.661 1060.94,864.661 1073.95,864.661 C1073,869.533 1070.65,873.508 1068.4,877.523 C1067.4,879.321 1065.66,879.093 1064.02,879.094 C1059.2,879.097 1054.31,878.607 1049.57,879.216 C1043.32,880.02 1039.96,877.275 1037.89,871.857 C1037.02,869.58 1035.86,867.414 1034.59,864.661"
       fill="#FEF8EA"
       id="path56" />
    <path
       d="M1084.09,883.059 C1086.64,877.142 1089.38,871.29 1090.95,865.016 C1091.32,863.539 1092.15,862.878 1093.73,862.729 C1098.69,862.261 1103.66,861.763 1108.59,861 C1111.1,860.611 1111.04,861.9 1110.77,863.523 C1109.56,870.79 1107.65,877.78 1103.16,883.848 C1101.51,886.089 1099.94,887.117 1096.93,886.123 C1092.86,884.774 1088.56,884.09 1084.09,883.059"
       fill="#FEFEFD"
       id="path57" />
    <path
       d="M1034.03,963.745 C1031.68,979.5 1034.05,976.485 1020.95,972.205 C1015.45,970.408 1010.05,968.331 1004.59,966.396 C1002.9,965.795 1001.44,965.182 1002.85,962.951 C1003.85,961.38 1004.04,959.024 1007.03,960.526 C1011.92,962.986 1017.16,964.552 1022.54,965.588 C1026.49,966.349 1030.14,965.942 1032.92,962.599 C1033.9,962.398 1034.41,962.636 1034.03,963.745"
       fill="#FF7063"
       id="path58" />
    <path
       d="M1075.84,962.666 C1078.72,966.503 1082.77,966.332 1086.72,965.429 C1090.9,964.472 1095.11,963.291 1099.01,961.542 C1102.13,960.144 1103.62,961.07 1104.88,963.705 C1106.62,967.335 1103.02,966.601 1101.75,967.098 C1094.8,969.803 1087.66,972.015 1080.74,974.765 C1077.16,976.185 1075.95,975.357 1075.82,971.649 C1075.73,969.018 1075.13,966.404 1074.76,963.782 C1074.37,962.692 1074.9,962.485 1075.84,962.666"
       fill="#FF7063"
       id="path59" />
    <path
       d="M1059.06,902.01 C1058.89,909.022 1058.9,908.863 1052.91,908.682 C1050.2,908.6 1049.44,907.501 1049.61,905.076 C1049.7,903.926 1049.65,902.753 1049.53,901.604 C1048.93,895.808 1052,893.431 1057.53,895.438 C1059.21,896.049 1059.21,896.049 1059.06,902.01"
       fill="#FF7163"
       id="path60" />
    <path
       d="M1034.1,958.796 C1034.46,957.734 1034.81,956.671 1035.55,954.457 C1035.97,957.032 1036.36,958.399 1035.03,959.66 C1034.6,959.498 1034.3,959.204 1034.1,958.796"
       fill="#A95327"
       id="path61" />
    <path
       d="M1034.1,958.796 C1034.41,959.084 1034.72,959.372 1035.03,959.66 C1034.86,961.062 1035.12,962.568 1034.03,963.744 C1033.66,963.363 1033.29,962.981 1032.92,962.599 C1033.32,961.331 1033.71,960.064 1034.1,958.796"
       fill="#ED6A56"
       id="path62" />
    <path
       d="M1075.84,962.666 C1075.48,963.038 1075.12,963.409 1074.76,963.782 C1073.94,962.829 1073.77,961.735 1074.06,960.517 C1075.49,960.551 1075.39,961.839 1075.84,962.666"
       fill="#E1664E"
       id="path63" />
    <path
       d="M1325.02,353.586 C1337.88,369.345 1347.51,387.017 1355.73,405.519 C1341.29,414.47 1326.46,422.624 1309.99,427.281 C1290.55,432.781 1271.09,434.168 1251.75,426.759 C1249.8,426.012 1247.63,425.552 1245.85,423.173 C1266.29,421.348 1285.11,416.306 1299.04,400.458 C1312.91,384.663 1315.98,365.605 1314.75,344.899 C1319.13,347.117 1321.15,351.498 1325.02,353.586"
       fill="#FEFEFE"
       id="path64" />
    <path
       d="M1255.92,493.637 C1254,498.121 1250.59,499.252 1245.87,498.994 C1233.84,498.336 1222.92,493.991 1211.99,489.581 C1202.21,483.278 1192.45,476.911 1184.39,468.404 C1158.5,441.075 1142.62,408.687 1135.89,371.733 C1135.12,367.49 1134.42,363.215 1134.06,358.922 C1133.62,353.652 1136.69,349.735 1141.22,349.208 C1145.65,348.694 1149.36,352.088 1149.98,357.361 C1154.18,393.223 1167.73,425.081 1191.48,452.301 C1204.66,467.411 1220.65,478.477 1240.88,482.224 C1242.51,482.526 1244.17,482.654 1245.83,482.759 C1253.76,483.263 1256.11,485.78 1255.92,493.637"
       fill="#6E4100"
       id="path65" />
    <path
       d="M885.87,285.569 C885.49,285.228 885.109,284.887 884.728,284.546 C886.125,282.993 888.065,282.409 889.902,281.64 C890.251,281.292 890.571,281.317 890.862,281.716 C889.677,283.62 887.728,284.536 885.87,285.569"
       fill="#EEE4DB"
       id="path66" />
    <path
       d="M890.862,281.716 L890.374,281.776 L889.902,281.64 C891.015,280.496 892.297,279.691 893.95,279.636 C893.401,281.043 892.383,281.752 890.862,281.716"
       fill="#C9B199"
       id="path67" />
    <path
       d="M832.963,837.623 C833.264,837.319 833.564,837.015 833.865,836.712 C835.328,837.397 836.694,838.173 836.94,839.997 C835.398,839.567 833.987,838.919 832.963,837.623"
       fill="#E0D2C4"
       id="path68" />
    <path
       d="M368.019,635.54 C339.974,634.572 313.798,625.317 293.706,602.162 C291.936,600.122 290.295,598.033 290.575,595.098 C290.855,592.172 292.361,590.083 295.116,589.098 C298.541,587.873 301.292,589.087 303.472,591.83 C310.863,601.128 320.205,607.847 330.868,612.938 C363.155,628.352 404.697,622.601 430.68,598.939 C433.126,596.711 435.202,594.073 437.413,591.593 C440.785,587.811 444.537,587.087 447.879,589.62 C451.211,592.145 451.47,596.599 448.21,600.644 C435.564,616.336 419.128,626.191 399.867,631.513 C390.048,634.227 379.993,635.43 368.019,635.54"
       fill="#6E4100"
       id="path69" />
    <path
       d="M286.94,424.601 C286.57,430.13 285.872,435.525 283.221,440.489 C277.024,452.092 261.878,452.792 254.702,441.789 C247.566,430.848 249.043,411.689 257.678,403.184 C267.615,393.399 278.865,395.684 283.987,408.559 C286.037,413.712 286.752,419.124 286.94,424.601"
       fill="#6E4100"
       id="path70" />
    <path
       d="M491.149,424.005 C491.363,430.56 490.24,436.543 486.902,441.919 C481.616,450.432 469.522,452.139 462.24,445.5 C450.925,435.183 452.747,409.071 465.377,400.552 C474.445,394.434 482.668,396.578 487.495,406.445 C490.239,412.052 491.44,418.036 491.149,424.005"
       fill="#6E4100"
       id="path71" />
    <path
       d="M271.61,250.128 C281.062,250.221 288.122,255.003 292.865,263.467 C294.762,266.853 294.3,270.182 290.882,272.105 C287.573,273.967 284.117,273.139 282.449,269.546 C278.326,260.667 267.397,259.631 260.184,267.712 C256.678,271.64 253.224,272.094 250.376,269.414 C247.509,266.717 247.936,263.227 251.474,259.388 C256.784,253.627 263.208,250.311 271.61,250.128"
       fill="#6E4100"
       id="path72" />
    <path
       d="M379.928,453.787 C379.682,457.68 378.424,460.008 375.801,461.19 C373.04,462.435 370.202,462.235 367.948,459.966 C363.636,455.625 362.107,449.961 361.341,444.193 C360.981,441.473 362.715,438.941 365.472,437.967 C368.223,436.994 371.393,436.833 373.263,439.464 C376.525,444.053 376.666,450.094 379.928,453.787"
       fill="#6E4300"
       id="path73" />
    <path
       d="M370.579,1134.02 C362.141,1133.92 355.083,1127.09 355.074,1119.02 C355.065,1110.73 362.329,1103.73 370.939,1103.71 C379.316,1103.7 386.789,1110.98 386.745,1119.11 C386.701,1127.22 379.21,1134.13 370.579,1134.02"
       fill="#6E4100"
       id="path74" />
    <path
       d="M370.868,1041.48 C379.47,1041.48 386.683,1048.11 386.745,1056.08 C386.809,1064.3 379.366,1071.52 370.88,1071.48 C362.161,1071.43 355.024,1064.47 355.091,1056.09 C355.156,1047.84 362.01,1041.49 370.868,1041.48"
       fill="#6E4100"
       id="path75" />
    <path
       d="M154.165,178.172 C154.831,176.414 155.962,176.251 157.209,175.948 C157.019,177.951 155.704,177.817 154.165,178.172"
       fill="#D4C2B8"
       id="path76" />
    <path
       d="M1056.88,764.425 C1032.51,763.159 1013.31,753.446 996.623,738.13 C992.694,734.524 989.008,730.652 986.052,726.176 C983.235,721.909 983.628,718.061 987.012,715.566 C990.441,713.037 994.588,714.176 997.731,718.217 C1011.05,735.337 1028.21,746.557 1049.77,749.642 C1068.55,752.331 1083.6,743.399 1097.24,731.673 C1102.19,727.421 1106.33,722.43 1109.98,717.007 C1112.49,713.289 1116.57,712.32 1119.91,714.327 C1123.26,716.341 1124.4,720.678 1121.85,724.375 C1105.78,747.634 1084.43,762.218 1056.88,764.425"
       fill="#6E4100"
       id="path77" />
    <path
       d="M1149.87,602.422 C1149.92,593.881 1151.31,587.071 1154.61,580.804 C1155.78,578.581 1155.67,577.044 1154.39,574.98 C1151.53,570.361 1150.6,565.084 1150.13,559.765 C1149.72,555.18 1152.02,551.934 1155.74,551.879 C1160.01,551.815 1162.02,554.199 1162.15,558.432 C1162.21,560.247 1162.64,562.053 1162.92,563.859 C1163.49,567.472 1164.52,569.996 1169.27,568.698 C1172.79,567.736 1176.06,569.568 1178.94,571.734 C1193.76,582.905 1196.65,607.601 1184.8,621.847 C1175.78,632.694 1161.13,631.454 1154.09,619.186 C1150.86,613.563 1149.7,607.408 1149.87,602.422"
       fill="#6E4100"
       id="path78" />
    <path
       d="M913.97,601.146 C913.973,600.15 913.903,599.146 913.984,598.155 C914.545,591.295 918.325,584.992 919.058,578.671 C919.754,572.671 914.156,566.42 914.099,559.451 C914.066,555.49 915.304,552.308 919.599,551.928 C923.796,551.557 926.005,553.963 926.163,558.25 C926.223,559.902 926.622,561.54 926.847,563.186 C927.385,567.121 928.306,570.074 933.612,568.675 C937.126,567.749 940.389,569.724 943.223,571.922 C957.468,582.969 960.528,606.653 949.562,620.919 C940.058,633.282 924.714,631.9 917.524,618.019 C914.784,612.731 913.744,607.067 913.97,601.146"
       fill="#6E4100"
       id="path79" />
    <path
       d="M940.69,423.567 C946.729,423.591 953.336,426.892 958.434,433.211 C960.727,436.054 960.887,439.169 958.172,441.708 C955.266,444.424 951.659,444.274 949.437,441.128 C942.363,431.108 926.899,435.914 923.036,445.918 C921.697,449.387 919.401,451.061 915.754,450.335 C911.956,449.578 910.368,445.916 911.791,441.694 C915.293,431.311 926.626,423.638 940.69,423.567"
       fill="#6E4100"
       id="path80" />
    <path
       d="M1050.88,605.476 C1052.93,605.273 1054.9,606.07 1056.27,607.95 C1058.13,610.504 1060.1,613.033 1061.53,615.826 C1063.31,619.308 1062.85,622.767 1059.39,625.086 C1055.76,627.529 1052.37,626.689 1049.76,623.318 C1047.93,620.958 1046.23,618.461 1044.79,615.85 C1042.1,610.98 1045.18,605.616 1050.88,605.476"
       fill="#6E4300"
       id="path81" />
    <path
       d="M1054.58,1084.48 C1062.81,1084.57 1069.44,1091.22 1069.49,1099.41 C1069.53,1107.61 1062.28,1114.67 1054.03,1114.47 C1045.98,1114.28 1039.18,1107.39 1039.07,1099.33 C1038.97,1091.04 1045.92,1084.38 1054.58,1084.48"
       fill="#6E4100"
       id="path82" />
  </g>
  <text
     xml:space="preserve"
     style="font-size:53.3333px;line-height:1;font-family:Ubuntu;-inkscape-font-specification:Ubuntu;text-align:center;writing-mode:lr-tb;direction:ltr;text-anchor:middle;fill:#000000;stroke:none;stroke-width:3.02362;stroke-linecap:round;stroke-linejoin:round"
     x="692.33777"
     y="-299.23071"
     id="text82"><tspan
       sodipodi:role="line"
       id="tspan82"
       x="692.33777"
       y="-299.23071">https://openclipart.org/detail/312492/uniformed-students</tspan></text>
  <path
     d="M 5.8451085,1153.3339 H 1401.222 c 0,0 0,-26.7002 0,-26.7002 H 5.8451085 Z"
     fill-opacity="0"
     stroke="#797979"
     stroke-width="11.516"
     stroke-linecap="round"
     stroke-linejoin="round"
     id="path63-6"
     sodipodi:nodetypes="ccccc"
     style="fill:#ffd42a;fill-opacity:1;stroke:#4d4d4d" />
  <rect
     style="fill:#4d4d4d;fill-opacity:1;stroke:none;stroke-width:3.02362;stroke-linecap:round;stroke-linejoin:round"
     id="rect82"
     width="20.391983"
     height="480.66611"
     x="61.175949"
     y="1153.3339"
     rx="1.0499595e-05"
     ry="1.0499595e-05" />
  <rect
     style="fill:#4d4d4d;fill-opacity:1;stroke:none;stroke-width:3.02362;stroke-linecap:round;stroke-linejoin:round"
     id="rect82-3"
     width="20.391983"
     height="480.66611"
     x="1334"
     y="1153.3339"
     rx="1.0499595e-05"
     ry="1.0499595e-05" />
</svg>
