<?xml version="1.0" encoding="UTF-8" standalone="no"?>
<svg
   version="1.1"
   x="0"
   y="0"
   width="295.2919"
   height="362.323"
   viewBox="0 0 295.2919 362.323"
   id="svg173"
   sodipodi:docname="1545656535.svg"
   inkscape:version="1.2.2 (b0a8486541, 2022-12-01)"
   xmlns:inkscape="http://www.inkscape.org/namespaces/inkscape"
   xmlns:sodipodi="http://sodipodi.sourceforge.net/DTD/sodipodi-0.dtd"
   xmlns="http://www.w3.org/2000/svg"
   xmlns:svg="http://www.w3.org/2000/svg">
  <defs
     id="defs177" />
  <sodipodi:namedview
     id="namedview175"
     pagecolor="#ffffff"
     bordercolor="#000000"
     borderopacity="0.25"
     inkscape:showpageshadow="2"
     inkscape:pageopacity="0.0"
     inkscape:pagecheckerboard="0"
     inkscape:deskcolor="#d1d1d1"
     showgrid="false"
     inkscape:zoom="1.0875179"
     inkscape:cx="239.07652"
     inkscape:cy="337.00594"
     inkscape:window-width="1920"
     inkscape:window-height="968"
     inkscape:window-x="0"
     inkscape:window-y="27"
     inkscape:window-maximized="1"
     inkscape:current-layer="Layer_1" />
  <g
     id="Layer_1"
     transform="translate(-6.878086,-7.184)">
    <path
       d="m 251.416,389.651 c -0.595,-7.887 -1.05,-13.709 -1.302,-16.595 -1.462,-16.73 -3.563,-43.619 -5.004,-61.495 7.856,8.988 18.364,21.195 25.773,29.313 z m 48.754,-50.485 c 0,-9.334 -48.532,-81.249 -50.782,-82.469 -6.991,-3.793 -36.099,-10.112 -36.122,-10.118 h -1.111 l -3.565,-1.985 c 0,0 -0.109,0.456 -0.355,1.222 l -0.436,-4.6 c 40.399,-2.894 64.611,-29.503 74.143,-62.484 11.886,-2.558 17.709,-9.246 17.709,-20.843 0,-12.16 -6.429,-17.174 -13.141,-19.103 -0.008,-0.176 -0.014,-0.352 -0.021,-0.528 0.527,-3.591 2.228,-15.894 4.725,-40.873 2.445,-24.458 -4.102,-62.037 -29.628,-68.229 0,0 -8.527,-11.196 -21.654,-14.343 -8.571,-2.664 -19.538,-5.629 -42.833,-5.629 -23.295,0 -52.624,11.203 -56.801,19.586 -26.826,4.885 -33.839,43.615 -31.339,68.615 2.694,26.942 4.461,39.14 4.828,41.56 -6.527,2.034 -12.64,7.088 -12.64,18.944 0,11.596 5.82,18.284 17.703,20.842 9.529,32.979 33.744,59.587 74.14,62.485 l -0.442,4.662 c -0.26,-0.801 -0.376,-1.284 -0.376,-1.284 l -3.564,1.985 h -1.084 c -0.006,0.001 -1.418,0.309 -3.692,0.827 -15.918,-0.442 -23.08,0.443 -35.642,0.517 -6.006,0.035 -27.405,0.42 -38.727,1.413 L 86.867,200.653 c 6.415,-8.679 8.848,-22.148 7.59,-36.528 -0.019,-0.227 -0.082,-0.449 -0.163,-0.668 -2.292,-8.85 -10.359,-19.529 -17.626,-22.299 v -7.22 c 2.493,-0.524 4.366,-2.734 4.366,-5.382 0,-3.037 -2.462,-5.5 -5.5,-5.5 h -29 c -3.039,0 -5.5,2.463 -5.5,5.5 0,2.648 1.873,4.859 4.367,5.382 v 6.058 c -5.049,-0.696 -10.874,0.756 -16.531,3.982 -14.86,8.472 -10.587,46.218 -4.553,54.155 5.605,7.376 6.11,7.331 17.303,8.071 -8.512,28.075 -28.639,94.242 -31.016,100.188 -3.026,7.567 -3.531,18.158 11.598,18.158 h 32.277 13.112 32.276 c 15.129,0 14.625,-10.591 11.598,-18.158 -0.74,-1.852 -3.204,-9.551 -6.5,-20.113 6.771,1.277 15.556,2.424 27.088,3.78 7.742,1.243 16.373,2.3 25.561,2.95 -0.942,10.307 -4.375,57.744 -6.454,81.546 -0.636,7.273 -2.544,32.981 -4.771,63.517 -4.219,57.834 -3.906,132.983 -3.906,132.983 h 2.052 l -3.564,88.022 3.221,5.261 -3.852,10.717 8.968,0.049 c -2.492,0.884 -4.747,2.075 -6.465,3.687 -6.641,6.237 -2.546,8.236 -2.546,8.236 h 31.847 v -11.799 l 1.983,0.011 12.504,-104.184 h 11.737 l 2.306,-38.332 2.307,38.332 h 11.433 l 12.504,104.184 1.985,-0.011 v 11.799 h 31.846 c 0,0 4.095,-1.999 -2.546,-8.236 -1.716,-1.612 -3.972,-2.803 -6.464,-3.687 l 8.966,-0.049 -3.851,-10.717 3.221,-5.261 -3.565,-88.022 h 2.356 c 0,0 0.238,-66.842 -3.237,-123.249 0.311,-0.104 0.628,-0.227 0.958,-0.391 7.037,-3.502 9.98,-22.92 6.396,-35.744 l 3.16,-6.04 2.741,1.125 29.153,-61.914 c 1.321,-1.642 2.133,-3.559 2.133,-5.676"
       fill="#797979"
       id="path2" />
    <path
       d="m 251.416,389.651 c -0.595,-7.887 -1.05,-13.709 -1.302,-16.595 -1.462,-16.73 -3.563,-43.619 -5.004,-61.495 7.856,8.988 18.364,21.195 25.773,29.313 z m 48.754,-50.485 c 0,-9.334 -48.532,-81.249 -50.782,-82.469 -6.991,-3.793 -36.099,-10.112 -36.122,-10.118 h -1.111 l -3.565,-1.985 c 0,0 -0.109,0.456 -0.355,1.222 l -0.436,-4.6 c 40.399,-2.894 64.611,-29.503 74.143,-62.484 11.886,-2.558 17.709,-9.246 17.709,-20.843 0,-12.16 -6.429,-17.174 -13.141,-19.103 -0.008,-0.176 -0.014,-0.352 -0.021,-0.528 0.527,-3.591 2.228,-15.894 4.725,-40.873 2.445,-24.458 -4.102,-62.037 -29.628,-68.229 0,0 -8.527,-11.196 -21.654,-14.343 -8.571,-2.664 -19.538,-5.629 -42.833,-5.629 -23.295,0 -52.624,11.203 -56.801,19.586 -26.826,4.885 -33.839,43.615 -31.339,68.615 2.694,26.942 4.461,39.14 4.828,41.56 -6.527,2.034 -12.64,7.088 -12.64,18.944 0,11.596 5.82,18.284 17.703,20.842 9.529,32.979 33.744,59.587 74.14,62.485 l -0.442,4.662 c -0.26,-0.801 -0.376,-1.284 -0.376,-1.284 l -3.564,1.985 h -1.084 c -0.006,0.001 -1.418,0.309 -3.692,0.827 -15.918,-0.442 -23.08,0.443 -35.642,0.517 -6.006,0.035 -27.405,0.42 -38.727,1.413 L 86.867,200.653 c 6.415,-8.679 8.848,-22.148 7.59,-36.528 -0.019,-0.227 -0.082,-0.449 -0.163,-0.668 -2.292,-8.85 -10.359,-19.529 -17.626,-22.299 v -7.22 c 2.493,-0.524 4.366,-2.734 4.366,-5.382 0,-3.037 -2.462,-5.5 -5.5,-5.5 h -29 c -3.039,0 -5.5,2.463 -5.5,5.5 0,2.648 1.873,4.859 4.367,5.382 v 6.058 c -5.049,-0.696 -10.874,0.756 -16.531,3.982 -14.86,8.472 -10.587,46.218 -4.553,54.155 5.605,7.376 6.11,7.331 17.303,8.071 -8.512,28.075 -28.639,94.242 -31.016,100.188 -3.026,7.567 -3.531,18.158 11.598,18.158 h 32.277 13.112 32.276 c 15.129,0 14.625,-10.591 11.598,-18.158 -0.74,-1.852 -3.204,-9.551 -6.5,-20.113 6.771,1.277 15.556,2.424 27.088,3.78 7.742,1.243 16.373,2.3 25.561,2.95 -0.942,10.307 -4.375,57.744 -6.454,81.546 -0.636,7.273 -2.544,32.981 -4.771,63.517 -4.219,57.834 -3.906,132.983 -3.906,132.983 h 2.052 l -3.564,88.022 3.221,5.261 -3.852,10.717 8.968,0.049 c -2.492,0.884 -4.747,2.075 -6.465,3.687 -6.641,6.237 -2.546,8.236 -2.546,8.236 h 31.847 v -11.799 l 1.983,0.011 12.504,-104.184 h 11.737 l 2.306,-38.332 2.307,38.332 h 11.433 l 12.504,104.184 1.985,-0.011 v 11.799 h 31.846 c 0,0 4.095,-1.999 -2.546,-8.236 -1.716,-1.612 -3.972,-2.803 -6.464,-3.687 l 8.966,-0.049 -3.851,-10.717 3.221,-5.261 -3.565,-88.022 h 2.356 c 0,0 0.238,-66.842 -3.237,-123.249 0.311,-0.104 0.628,-0.227 0.958,-0.391 7.037,-3.502 9.98,-22.92 6.396,-35.744 l 3.16,-6.04 2.741,1.125 29.153,-61.914 c 1.321,-1.642 2.133,-3.559 2.133,-5.676 z"
       fill-opacity="0"
       stroke="#797979"
       stroke-width="8"
       stroke-linecap="round"
       stroke-linejoin="round"
       id="path4"
       style="stroke:#2e2e2e;stroke-opacity:1" />
    <path
       d="m 256.854,664.338 3.221,-5.261 -9.259,-228.618 -0.322,-30.157 h -99.943 l -0.321,30.157 -9.259,228.618 3.221,5.261 -3.852,10.717 33.787,0.184 24.991,-208.217 1.405,-1.556 1.405,1.556 24.99,208.217 33.787,-0.184 z"
       fill="#a2a2a2"
       id="path6" />
    <path
       d="m 256.854,664.338 3.221,-5.261 -9.259,-228.618 -0.322,-30.157 h -99.943 l -0.321,30.157 -9.259,228.618 3.221,5.261 -3.852,10.717 33.787,0.184 24.991,-208.217 1.405,-1.556 1.405,1.556 24.99,208.217 33.787,-0.184 z"
       fill-opacity="0"
       stroke="#797979"
       stroke-width="4"
       stroke-linecap="round"
       stroke-linejoin="round"
       id="path8"
       style="stroke:#2e2e2e;stroke-opacity:1" />
    <path
       d="m 261.586,29.156 c 0,0 -8.527,-11.196 -21.654,-14.343 -8.571,-2.664 -19.538,-5.629 -42.833,-5.629 -23.295,0 -52.624,11.203 -56.801,19.586 -26.826,4.885 -33.839,43.615 -31.339,68.615 3.038,30.386 4.9,42.027 4.9,42.027 l 0.054,2.497 11.534,-8.241 74.64,-2.532 74.64,2.532 11.533,8.241 0.055,-2.497 c 0,0 1.861,-11.641 4.899,-42.027 2.445,-24.458 -4.102,-62.037 -29.628,-68.229"
       fill="#9b8c81"
       id="path10" />
    <path
       d="m 261.586,29.156 c 0,0 -8.527,-11.196 -21.654,-14.343 -8.571,-2.664 -19.538,-5.629 -42.833,-5.629 -23.295,0 -52.624,11.203 -56.801,19.586 -26.826,4.885 -33.839,43.615 -31.339,68.615 3.038,30.386 4.9,42.027 4.9,42.027 l 0.054,2.497 11.534,-8.241 74.64,-2.532 74.64,2.532 11.533,8.241 0.055,-2.497 c 0,0 1.861,-11.641 4.899,-42.027 2.445,-24.458 -4.102,-62.037 -29.628,-68.229 z"
       fill-opacity="0"
       stroke="#797979"
       stroke-width="4"
       stroke-linecap="round"
       stroke-linejoin="round"
       id="path12"
       style="stroke:#2e2e2e;stroke-opacity:1" />
    <path
       d="m 249.388,256.697 c -6.994,-3.794 -36.123,-10.118 -36.123,-10.118 h -25.74 c 0,0 -29.129,6.324 -36.122,10.118 l 10.101,41.608 h 77.78 z"
       fill="#ffffff"
       id="path14" />
    <path
       d="m 249.388,256.697 c -6.994,-3.794 -36.123,-10.118 -36.123,-10.118 h -25.74 c 0,0 -29.129,6.324 -36.122,10.118 l 10.101,41.608 h 77.78 z"
       fill-opacity="0"
       stroke="#797979"
       stroke-width="4"
       stroke-linecap="round"
       stroke-linejoin="round"
       id="path16" />
    <path
       d="m 213.266,246.579 h -4.959 l -1.423,-15.032 -6.489,-4.22 -6.49,4.22 -1.423,15.032 h -4.958 c -3.85,7.501 7.761,14.996 7.761,14.996 l 5.11,7.355 5.109,-7.355 c 0,0 11.612,-7.495 7.762,-14.996"
       fill="#ffefd9"
       id="path18" />
    <path
       d="m 213.266,246.579 h -4.959 l -1.423,-15.032 -6.489,-4.22 -6.49,4.22 -1.423,15.032 h -4.958 c -3.85,7.501 7.761,14.996 7.761,14.996 l 5.11,7.355 5.109,-7.355 c 0,0 11.612,-7.495 7.762,-14.996 z"
       fill-opacity="0"
       stroke="#797979"
       stroke-width="4"
       stroke-linecap="round"
       stroke-linejoin="round"
       id="path20" />
    <path
       d="m 213.265,246.579 c 0,0 29.129,6.324 36.123,10.118 2.25,1.22 50.782,73.135 50.782,82.469 0,9.334 -15.694,14.89 -22.026,9.223 -6.475,-5.793 -29.123,-32.579 -39.078,-43.68"
       fill="#ffffff"
       id="path22" />
    <path
       d="m 213.265,246.579 c 0,0 29.129,6.324 36.123,10.118 2.25,1.22 50.782,73.135 50.782,82.469 0,9.334 -15.694,14.89 -22.026,9.223 -6.475,-5.793 -29.123,-32.579 -39.078,-43.68"
       fill-opacity="0"
       stroke="#797979"
       stroke-width="4"
       stroke-linecap="round"
       stroke-linejoin="round"
       id="path24"
       style="stroke:#2e2e2e;stroke-opacity:1" />
    <path
       d="m 185.262,247.448 c -16.932,-0.538 -24.14,0.399 -37.072,0.475 -6.59,0.039 -31.714,0.497 -41.724,1.72 -12.445,1.52 -13.057,23.504 -11.075,30.557 0.596,2.12 29.869,11.105 66.896,13.105"
       fill="#ffffff"
       id="path26" />
    <path
       d="m 185.262,247.448 c -16.932,-0.538 -24.14,0.399 -37.072,0.475 -6.59,0.039 -31.714,0.497 -41.724,1.72 -12.445,1.52 -13.057,23.504 -11.075,30.557 0.596,2.12 29.869,11.105 66.896,13.105"
       fill-opacity="0"
       stroke="#797979"
       stroke-width="4"
       stroke-linecap="round"
       stroke-linejoin="round"
       id="path28"
       style="stroke:#2e2e2e;stroke-opacity:1" />
    <path
       d="M 111.537,253.805 82.906,192.119 42.552,206.267 c 0,0 20.281,40.047 40.577,69.51 6.908,10.028 20.815,11.073 72.806,17.019"
       fill="#ffffff"
       id="path30" />
    <path
       d="M 111.537,253.805 82.906,192.119 42.552,206.267 c 0,0 20.281,40.047 40.577,69.51 6.908,10.028 20.815,11.073 72.806,17.019"
       fill-opacity="0"
       stroke="#797979"
       stroke-width="4"
       stroke-linecap="round"
       stroke-linejoin="round"
       id="path32"
       style="stroke:#2e2e2e;stroke-opacity:1" />
    <path
       d="m 58.504,150.995 19.148,5.159 c 0,0 16.36,2.889 16.805,7.971 2.395,27.375 -8.566,51.482 -34.972,45.428 -38.11,-8.744 -35.246,-36.095 -35.284,-39.942 -0.231,-24.688 34.303,-18.616 34.303,-18.616"
       fill="#ffefd9"
       id="path34" />
    <path
       d="m 58.504,150.995 19.148,5.159 c 0,0 16.36,2.889 16.805,7.971 2.395,27.375 -8.566,51.482 -34.972,45.428 -38.11,-8.744 -35.246,-36.095 -35.284,-39.942 -0.231,-24.688 34.303,-18.616 34.303,-18.616 z"
       fill-opacity="0"
       stroke="#797979"
       stroke-width="4"
       stroke-linecap="round"
       stroke-linejoin="round"
       id="path36"
       style="stroke:#2e2e2e;stroke-opacity:1" />
    <path
       d="M 111.465,306.392 C 108.44,298.825 76.668,193.723 76.668,193.723 v -59.785 c 2.493,-0.524 4.366,-2.734 4.366,-5.382 0,-3.037 -2.462,-5.5 -5.5,-5.5 h -29 c -3.039,0 -5.5,2.463 -5.5,5.5 0,2.648 1.873,4.859 4.367,5.382 v 59.785 c 0,0 -31.772,105.102 -34.797,112.669 -3.026,7.567 -3.531,18.158 11.598,18.158 h 32.277 13.112 32.276 c 15.129,0 14.625,-10.591 11.598,-18.158"
       fill="#ffffff"
       id="path38" />
    <path
       d="M 111.465,306.392 C 108.44,298.825 76.668,193.723 76.668,193.723 v -59.785 c 2.493,-0.524 4.366,-2.734 4.366,-5.382 0,-3.037 -2.462,-5.5 -5.5,-5.5 h -29 c -3.039,0 -5.5,2.463 -5.5,5.5 0,2.648 1.873,4.859 4.367,5.382 v 59.785 c 0,0 -31.772,105.102 -34.797,112.669 -3.026,7.567 -3.531,18.158 11.598,18.158 h 32.277 13.112 32.276 c 15.129,0 14.625,-10.591 11.598,-18.158 z"
       fill-opacity="0"
       stroke="#797979"
       stroke-width="4"
       stroke-linecap="round"
       stroke-linejoin="round"
       id="path40"
       style="stroke:#2e2e2e;stroke-opacity:1" />
    <path
       d="m 14.783,308.063 c -1.619,4.046 -1.832,7.572 -0.573,9.431 1.431,2.113 5.136,2.556 7.992,2.556 h 77.665 c 2.856,0 6.562,-0.443 7.992,-2.556 1.259,-1.86 1.046,-5.385 -0.573,-9.431 -1.219,-3.05 -6.797,-20.907 -13.151,-41.567 H 27.934 c -6.354,20.66 -11.932,38.517 -13.151,41.567"
       fill="#daf4ff"
       id="path42" />
    <path
       d="m 157.826,291.039 c -0.396,1.749 -4.363,57.144 -6.666,83.516 -0.636,7.273 -2.544,32.981 -4.771,63.517 -4.219,57.834 -3.906,132.983 -3.906,132.983 h 55.885 l 2.306,-38.332 2.307,38.332 h 55.885 c 0,0 0.271,-75.908 -3.971,-134.204 -2.235,-30.71 -4.147,-56.532 -4.781,-63.795 -2.305,-26.372 -6.196,-78.002 -6.592,-79.751"
       fill="#ffffff"
       id="path44" />
    <path
       d="m 157.826,291.039 c -0.396,1.749 -4.363,57.144 -6.666,83.516 -0.636,7.273 -2.544,32.981 -4.771,63.517 -4.219,57.834 -3.906,132.983 -3.906,132.983 h 55.885 l 2.306,-38.332 2.307,38.332 h 55.885 c 0,0 0.271,-75.908 -3.971,-134.204 -2.235,-30.71 -4.147,-56.532 -4.781,-63.795 -2.305,-26.372 -6.196,-78.002 -6.592,-79.751"
       fill-opacity="0"
       stroke="#797979"
       stroke-width="4"
       stroke-linecap="round"
       stroke-linejoin="round"
       id="path46"
       style="stroke:#2e2e2e;stroke-opacity:1" />
    <path
       d="m 200.381,320.531 19.473,-65.209 -19.598,1.853 -19.346,-1.853 z"
       fill="#ffffff"
       id="path48" />
    <path
       d="m 200.381,320.531 19.473,-65.209 -19.598,1.853 -19.346,-1.853 z"
       fill-opacity="0"
       stroke="#797979"
       stroke-width="4"
       stroke-linecap="round"
       stroke-linejoin="round"
       id="path50" />
    <path
       d="m 208.59,244.594 c 0,0 -1.922,8.147 -8.209,13.603 0,0 5.764,-2.655 7.86,-0.747 2.095,1.909 10.48,7.157 10.48,7.157 l -4.193,-16.706 z"
       fill="#ffffff"
       id="path52" />
    <path
       d="m 208.59,244.594 c 0,0 -1.922,8.147 -8.209,13.603 0,0 5.764,-2.655 7.86,-0.747 2.095,1.909 10.48,7.157 10.48,7.157 l -4.193,-16.706 z"
       fill-opacity="0"
       stroke="#797979"
       stroke-width="4"
       stroke-linecap="round"
       stroke-linejoin="round"
       id="path54"
       style="stroke:#2e2e2e;stroke-opacity:1" />
    <path
       d="m 192.172,244.594 c 0,0 1.922,8.147 8.209,13.603 0,0 -5.763,-2.655 -7.859,-0.747 -2.096,1.909 -10.479,7.157 -10.479,7.157 l 4.192,-16.706 z"
       fill="#ffffff"
       id="path56" />
    <path
       d="m 192.172,244.594 c 0,0 1.922,8.147 8.209,13.603 0,0 -5.763,-2.655 -7.859,-0.747 -2.096,1.909 -10.479,7.157 -10.479,7.157 l 4.192,-16.706 z"
       fill-opacity="0"
       stroke="#797979"
       stroke-width="4"
       stroke-linecap="round"
       stroke-linejoin="round"
       id="path58"
       style="stroke:#2e2e2e;stroke-opacity:1" />
    <path
       d="m 205.399,267.298 -5.018,-0.359 -5.017,0.359 -3.344,33.43 8.361,23.681 8.362,-23.681 z"
       fill="#84ADDE"
       id="path60"
       style="fill:#ea2b1b;fill-opacity:1" />
    <path
       d="m 205.399,267.298 -5.018,-0.359 -5.017,0.359 -3.344,33.43 8.361,23.681 8.362,-23.681 z"
       fill-opacity="0"
       stroke="#797979"
       stroke-width="4"
       stroke-linecap="round"
       stroke-linejoin="round"
       id="path62"
       style="stroke:#2e2e2e;stroke-opacity:1" />
    <path
       d="m 194.766,257.166 0.641,9.5 c 0,0 2.593,1.875 4.974,1.875 2.381,0 4.975,-1.875 4.975,-1.875 l 0.638,-9.5 z"
       fill="#84ADDE"
       id="path64"
       style="fill:#ea2b1b;fill-opacity:1" />
    <path
       d="m 194.766,257.166 0.641,9.5 c 0,0 2.593,1.875 4.974,1.875 2.381,0 4.975,-1.875 4.975,-1.875 l 0.638,-9.5 z"
       fill-opacity="0"
       stroke="#797979"
       stroke-width="4"
       stroke-linecap="round"
       stroke-linejoin="round"
       id="path66"
       style="stroke:#2e2e2e;stroke-opacity:1" />
    <path
       d="m 202.422,365.466 c 0,1.129 -0.914,2.041 -2.041,2.041 -1.127,0 -2.041,-0.912 -2.041,-2.041 0,-1.127 0.914,-2.041 2.041,-2.041 1.127,0 2.041,0.914 2.041,2.041"
       fill="#ffffff"
       id="path68" />
    <path
       d="m 202.422,365.466 c 0,1.129 -0.914,2.041 -2.041,2.041 -1.127,0 -2.041,-0.912 -2.041,-2.041 0,-1.127 0.914,-2.041 2.041,-2.041 1.127,0 2.041,0.914 2.041,2.041 z"
       fill-opacity="0"
       stroke="#797979"
       stroke-width="4"
       stroke-linecap="round"
       stroke-linejoin="round"
       id="path70" />
    <path
       d="m 202.422,411.658 c 0,1.127 -0.914,2.041 -2.041,2.041 -1.127,0 -2.041,-0.914 -2.041,-2.041 0,-1.128 0.914,-2.042 2.041,-2.042 1.127,0 2.041,0.914 2.041,2.042"
       fill="#ffffff"
       id="path72" />
    <path
       d="m 202.422,411.658 c 0,1.127 -0.914,2.041 -2.041,2.041 -1.127,0 -2.041,-0.914 -2.041,-2.041 0,-1.128 0.914,-2.042 2.041,-2.042 1.127,0 2.041,0.914 2.041,2.042 z"
       fill-opacity="0"
       stroke="#797979"
       stroke-width="4"
       stroke-linecap="round"
       stroke-linejoin="round"
       id="path74" />
    <path
       d="m 186.034,247.901 -10.987,11.025 8,6 -8.332,4 25.666,70.377 z"
       fill="#ffffff"
       id="path76" />
    <path
       d="m 186.034,247.901 -10.987,11.025 8,6 -8.332,4 25.666,70.377 z"
       fill-opacity="0"
       stroke="#797979"
       stroke-width="4"
       stroke-linecap="round"
       stroke-linejoin="round"
       id="path78"
       style="stroke:#2e2e2e;stroke-opacity:1" />
    <path
       d="m 214.731,247.901 10.984,11.025 -8,6 8.334,4 -25.668,70.377 z"
       fill="#ffffff"
       id="path80" />
    <path
       d="m 214.731,247.901 10.984,11.025 -8,6 8.334,4 -25.668,70.377 z"
       fill-opacity="0"
       stroke="#797979"
       stroke-width="4"
       stroke-linecap="round"
       stroke-linejoin="round"
       id="path82"
       style="stroke:#2e2e2e;stroke-opacity:1" />
    <path
       d="m 235.405,312.136 c 0,1.288 -1.045,2.333 -2.334,2.333 -1.287,0 -2.332,-1.045 -2.332,-2.333 v -12.334 c 0,-1.288 1.045,-2.333 2.332,-2.333 1.289,0 2.334,1.045 2.334,2.333 z"
       fill="#797979"
       id="path84" />
    <path
       d="m 235.405,312.136 c 0,1.288 -1.045,2.333 -2.334,2.333 -1.287,0 -2.332,-1.045 -2.332,-2.333 v -12.334 c 0,-1.288 1.045,-2.333 2.332,-2.333 1.289,0 2.334,1.045 2.334,2.333 z"
       fill-opacity="0"
       stroke="#797979"
       stroke-width="4"
       stroke-linecap="round"
       stroke-linejoin="round"
       id="path86"
       style="stroke:#2e2e2e;stroke-opacity:1" />
    <path
       d="m 216.922,309.854 v 20.505 c 0,3.407 2.764,6.171 6.172,6.171 h 11.656 c 3.41,0 6.172,-2.764 6.172,-6.171 v -20.505 z"
       fill="#ffffff"
       id="path88" />
    <path
       d="m 216.922,309.854 v 20.505 c 0,3.407 2.764,6.171 6.172,6.171 h 11.656 c 3.41,0 6.172,-2.764 6.172,-6.171 v -20.505 z"
       fill-opacity="0"
       stroke="#797979"
       stroke-width="4"
       stroke-linecap="round"
       stroke-linejoin="round"
       id="path90"
       style="stroke:#2e2e2e;stroke-opacity:1" />
    <path
       d="m 235.465,315.636 c 0,1.288 -0.346,2.333 -0.773,2.333 -0.424,0 -0.77,-1.045 -0.77,-2.333 v -12.334 c 0,-1.288 0.346,-2.333 0.77,-2.333 0.427,0 0.773,1.045 0.773,2.333 z"
       fill="#797979"
       id="path92" />
    <path
       d="m 235.465,315.636 c 0,1.288 -0.346,2.333 -0.773,2.333 -0.424,0 -0.77,-1.045 -0.77,-2.333 v -12.334 c 0,-1.288 0.346,-2.333 0.77,-2.333 0.427,0 0.773,1.045 0.773,2.333 z"
       fill-opacity="0"
       stroke="#797979"
       stroke-width="4"
       stroke-linecap="round"
       stroke-linejoin="round"
       id="path94"
       style="stroke:#2e2e2e;stroke-opacity:1" />
    <path
       d="m 129.289,138.253 c 0,0 -28.142,-5.807 -28.142,19.636 0,14.967 9.687,21.763 29.605,22.048"
       fill="#ffefd9"
       id="path96" />
    <path
       d="m 129.289,138.253 c 0,0 -28.142,-5.807 -28.142,19.636 0,14.967 9.687,21.763 29.605,22.048"
       fill-opacity="0"
       stroke="#797979"
       stroke-width="4"
       stroke-linecap="round"
       stroke-linejoin="round"
       id="path98"
       style="stroke:#2e2e2e;stroke-opacity:1" />
    <path
       d="m 111.871,159.266 c 0,0 3.688,-1.703 7.204,-1.682"
       fill="#ffefd9"
       id="path100" />
    <path
       d="m 111.871,159.266 c 0,0 3.688,-1.703 7.204,-1.682"
       fill-opacity="0"
       stroke="#797979"
       stroke-width="4"
       stroke-linecap="round"
       stroke-linejoin="round"
       id="path102" />
    <path
       d="m 271.508,138.253 c 0,0 28.143,-5.807 28.143,19.636 0,14.967 -9.69,21.763 -29.608,22.048"
       fill="#ffefd9"
       id="path104" />
    <path
       d="m 271.508,138.253 c 0,0 28.143,-5.807 28.143,19.636 0,14.967 -9.69,21.763 -29.608,22.048"
       fill-opacity="0"
       stroke="#797979"
       stroke-width="4"
       stroke-linecap="round"
       stroke-linejoin="round"
       id="path106"
       style="stroke:#2e2e2e;stroke-opacity:1" />
    <path
       d="m 288.926,159.266 c 0,0 -3.689,-1.703 -7.205,-1.682"
       fill="#ffefd9"
       id="path108" />
    <path
       d="m 288.926,159.266 c 0,0 -3.689,-1.703 -7.205,-1.682"
       fill-opacity="0"
       stroke="#797979"
       stroke-width="4"
       stroke-linecap="round"
       stroke-linejoin="round"
       id="path110" />
    <path
       d="m 286.481,138.059 c 2.531,51.248 -24.621,103.431 -86.082,103.431 -61.172,0 -88.358,-51.691 -86.117,-102.704 2.183,-49.694 1.701,-98.747 86.117,-98.747 84.414,0 83.638,48.575 86.082,98.02"
       fill="#ffefd9"
       id="path112" />
    <path
       d="m 286.481,138.059 c 2.531,51.248 -24.621,103.431 -86.082,103.431 -61.172,0 -88.358,-51.691 -86.117,-102.704 2.183,-49.694 1.701,-98.747 86.117,-98.747 84.414,0 83.638,48.575 86.082,98.02 z"
       fill-opacity="0"
       stroke="#797979"
       stroke-width="4"
       stroke-linecap="round"
       stroke-linejoin="round"
       id="path114"
       style="stroke:#2f2f2f;stroke-opacity:1" />
    <path
       d="m 114.337,84.09 c 0,0 31.17,-27.876 36.854,-36.775 l -1.364,-11.29 c 0,0 -51.352,19.217 -35.49,48.065"
       fill="#9b8c81"
       id="path116" />
    <path
       d="m 114.337,84.09 c 0,0 31.17,-27.876 36.854,-36.775"
       fill="#9c8a76"
       id="path118" />
    <path
       d="m 114.337,84.09 c 0,0 31.17,-27.876 36.854,-36.775"
       fill-opacity="0"
       stroke="#797979"
       stroke-width="4"
       stroke-linecap="round"
       stroke-linejoin="round"
       id="path120"
       style="stroke:#2e2e2e;stroke-opacity:1" />
    <path
       d="m 282.225,87.055 -18.469,-13.37 1.385,10.704 c -15.365,-2.765 -67.666,-28.001 -67.666,-28.001 0,0 6.5,12.667 33,30.001 -44.5,-1.834 -75.25,-28.834 -87.554,-43.732 0,0 -4.196,-7.852 0.554,-11.852 4.75,-4 35.688,-20.841 73,-15 37.311,5.841 55.5,26.25 61.75,41 6.25,14.75 4,30.25 4,30.25"
       fill="#9b8c81"
       id="path122" />
    <path
       d="m 149.152,49.513 c 12.303,14.898 36.823,35.042 81.323,36.876 -26.5,-17.334 -33,-30.001 -33,-30.001 0,0 52.301,25.236 67.666,28.001 l -1.385,-10.704 18.469,13.37"
       fill-opacity="0"
       stroke="#797979"
       stroke-width="4"
       stroke-linecap="round"
       stroke-linejoin="round"
       id="path124"
       style="stroke:#2e2e2e;stroke-opacity:1" />
    <path
       d="m 218.476,199.728 c 0,0 -2.508,22.195 -18.076,22.195 -15.571,0 -18.078,-22.195 -18.078,-22.195 z"
       fill="#F4ACA6"
       id="path126"
       style="fill:#f08e85;fill-opacity:1" />
    <path
       d="m 218.476,199.728 c 0,0 -2.508,22.195 -18.076,22.195 -15.571,0 -18.078,-22.195 -18.078,-22.195 z"
       fill-opacity="0"
       stroke="#797979"
       stroke-width="4"
       stroke-linecap="round"
       stroke-linejoin="round"
       id="path128"
       style="stroke:#2e2e2e;stroke-opacity:1" />
    <path
       d="m 242.602,136.381 c 0,7.627 -2.539,13.81 -5.67,13.81 -3.129,0 -5.668,-6.183 -5.668,-13.81 0,-7.627 2.539,-13.809 5.668,-13.809 3.131,0 5.67,6.182 5.67,13.809"
       fill="#797979"
       id="path130"
       style="fill:#2e2e2e;fill-opacity:1" />
    <path
       d="m 158.776,136.381 c 0,7.627 2.537,13.81 5.668,13.81 3.131,0 5.668,-6.183 5.668,-13.81 0,-7.627 -2.537,-13.809 -5.668,-13.809 -3.131,0 -5.668,6.182 -5.668,13.809"
       fill="#797979"
       id="path132"
       style="fill:#2e2e2e;fill-opacity:1" />
    <path
       d="m 196.477,180.972 c 0,0 -1.333,6 3.919,5.667"
       fill-opacity="0"
       stroke="#797979"
       stroke-width="4"
       stroke-linecap="round"
       stroke-linejoin="round"
       id="path134"
       style="stroke:#2e2e2e;stroke-opacity:1" />
    <path
       d="m 153.961,105.305 c 0,0 3.434,-2.15 9.283,-2.15 4.985,0 8.453,2.65 8.453,2.65"
       fill-opacity="0"
       stroke="#797979"
       stroke-width="4"
       stroke-linecap="round"
       stroke-linejoin="round"
       id="path136"
       style="stroke:#2e2e2e;stroke-opacity:1" />
    <path
       d="m 246.83,105.305 c 0,0 -3.435,-2.15 -9.284,-2.15 -4.983,0 -8.452,2.65 -8.452,2.65"
       fill-opacity="0"
       stroke="#797979"
       stroke-width="4"
       stroke-linecap="round"
       stroke-linejoin="round"
       id="path138"
       style="stroke:#2e2e2e;stroke-opacity:1" />
    <path
       d="M 65.631,233.555 H 76.487"
       fill-opacity="0"
       stroke="#797979"
       stroke-width="4"
       stroke-linecap="round"
       stroke-linejoin="round"
       id="path140" />
    <path
       d="M 68.444,246.055 H 79.299"
       fill-opacity="0"
       stroke="#797979"
       stroke-width="4"
       stroke-linecap="round"
       stroke-linejoin="round"
       id="path142" />
    <path
       d="M 71.256,258.555 H 82.112"
       fill-opacity="0"
       stroke="#797979"
       stroke-width="4"
       stroke-linecap="round"
       stroke-linejoin="round"
       id="path144" />
    <path
       d="M 74.069,271.055 H 84.924"
       fill-opacity="0"
       stroke="#797979"
       stroke-width="4"
       stroke-linecap="round"
       stroke-linejoin="round"
       id="path146" />
    <path
       d="M 76.881,283.555 H 87.737"
       fill-opacity="0"
       stroke="#797979"
       stroke-width="4"
       stroke-linecap="round"
       stroke-linejoin="round"
       id="path148" />
    <path
       d="M 79.696,296.055 H 90.551"
       fill-opacity="0"
       stroke="#797979"
       stroke-width="4"
       stroke-linecap="round"
       stroke-linejoin="round"
       id="path150" />
    <path
       d="m 262.636,412.335 9.438,-18.044 -11.059,-6.055 -15.539,19.319"
       fill="#ffefd9"
       id="path152" />
    <path
       d="m 262.636,412.335 9.438,-18.044 -11.059,-6.055 -15.539,19.319"
       fill-opacity="0"
       stroke="#797979"
       stroke-width="4"
       stroke-linecap="round"
       stroke-linejoin="round"
       id="path154"
       style="stroke:#2e2e2e;stroke-opacity:1" />
    <path
       d="m 247.335,405.706 c -1.082,1.258 -4.829,1.608 -6.943,6.146 -3.961,8.497 -3.531,18.442 1.985,19.833 5.044,1.27 2.845,-7.114 2.845,-7.114 0,0 0.473,28.264 11.365,22.844 7.213,-3.589 10.127,-23.902 6.119,-36.694 -0.73,-2.332 0,0 0,0"
       fill="#ffefd9"
       id="path156" />
    <path
       d="m 247.335,405.706 c -1.082,1.258 -4.829,1.608 -6.943,6.146 -3.961,8.497 -3.531,18.442 1.985,19.833 5.044,1.27 2.845,-7.114 2.845,-7.114 0,0 0.473,28.264 11.365,22.844 7.213,-3.589 10.127,-23.902 6.119,-36.694 -0.73,-2.332 0,0 0,0"
       fill-opacity="0"
       stroke="#797979"
       stroke-width="4"
       stroke-linecap="round"
       stroke-linejoin="round"
       id="path158"
       style="stroke:#2e2e2e;stroke-opacity:1" />
    <path
       d="m 300.034,340.6 -31.15,66.156 -20.876,-8.567 23.468,-58.801"
       fill="#ffffff"
       id="path160" />
    <path
       d="m 300.034,340.6 -31.15,66.156 -20.876,-8.567 23.468,-58.801"
       fill-opacity="0"
       stroke="#797979"
       stroke-width="4"
       stroke-linecap="round"
       stroke-linejoin="round"
       id="path162"
       style="stroke:#2e2e2e;stroke-opacity:1" />
    <path
       d="M 24.317,198.133 C 18.283,190.196 14.01,152.45 28.87,143.978 43.733,135.502 59.78,139.232 59.752,162.159 59.723,185.084 58,207.351 44.381,206.392 30.466,205.413 30.351,206.075 24.317,198.133"
       fill="#ffefd9"
       id="path164" />
    <path
       d="M 24.317,198.133 C 18.283,190.196 14.01,152.45 28.87,143.978 43.733,135.502 59.78,139.232 59.752,162.159 59.723,185.084 58,207.351 44.381,206.392 30.466,205.413 30.351,206.075 24.317,198.133 Z"
       fill-opacity="0"
       stroke="#797979"
       stroke-width="4"
       stroke-linecap="round"
       stroke-linejoin="round"
       id="path166"
       style="stroke:#2e2e2e;stroke-opacity:1" />
    <path
       d="m 94.457,164.125 c -3.368,-14.776 -23.679,-35.47 -29.267,-15.207 -4.381,15.877 11.777,22.199 11.777,22.199"
       fill="#ffefd9"
       id="path168" />
    <path
       d="m 94.457,164.125 c -3.368,-14.776 -23.679,-35.47 -29.267,-15.207 -4.381,15.877 11.777,22.199 11.777,22.199"
       fill-opacity="0"
       stroke="#797979"
       stroke-width="4"
       stroke-linecap="round"
       stroke-linejoin="round"
       id="path170"
       style="stroke:#2e2e2e;stroke-opacity:1" />
  </g>
  <text
     xml:space="preserve"
     style="font-size:12px;font-family:abeezee;-inkscape-font-specification:abeezee;text-align:end;text-anchor:end;fill:none;stroke:#000000;stroke-width:4.40315"
     x="-64.854858"
     y="-66.971092"
     id="text1014"><tspan
       sodipodi:role="line"
       id="tspan1012"
       x="-64.854858"
       y="-66.971092"
       style="fill:#000000;fill-opacity:1;stroke:none">https://openclipart.org/detail/312510/scientist-2</tspan></text>
</svg>
