<?xml version="1.0" encoding="UTF-8" standalone="no"?>
<!-- Created with Inkscape (http://www.inkscape.org/) -->

<svg
   width="58.790836mm"
   height="58.790836mm"
   viewBox="0 0 58.790836 58.790836"
   version="1.1"
   id="svg4488"
   inkscape:version="1.3.2 (091e20ef0f, 2023-11-25, custom)"
   sodipodi:docname="punnett-Bb-bb-incomplete-dev.svg"
   xmlns:inkscape="http://www.inkscape.org/namespaces/inkscape"
   xmlns:sodipodi="http://sodipodi.sourceforge.net/DTD/sodipodi-0.dtd"
   xmlns="http://www.w3.org/2000/svg"
   xmlns:svg="http://www.w3.org/2000/svg"
   xmlns:rdf="http://www.w3.org/1999/02/22-rdf-syntax-ns#"
   xmlns:cc="http://creativecommons.org/ns#"
   xmlns:dc="http://purl.org/dc/elements/1.1/">
  <defs
     id="defs4482" />
  <sodipodi:namedview
     id="base"
     pagecolor="#ffffff"
     bordercolor="#666666"
     borderopacity="1.0"
     inkscape:pageopacity="0.0"
     inkscape:pageshadow="2"
     inkscape:zoom="1.3984305"
     inkscape:cx="64.357864"
     inkscape:cy="125.85538"
     inkscape:document-units="mm"
     inkscape:current-layer="layer1"
     showgrid="true"
     inkscape:showpageshadow="2"
     inkscape:pagecheckerboard="0"
     inkscape:deskcolor="#d1d1d1"
     inkscape:window-width="1920"
     inkscape:window-height="969"
     inkscape:window-x="0"
     inkscape:window-y="26"
     inkscape:window-maximized="1">
    <inkscape:grid
       id="grid1"
       units="px"
       originx="-58.20833"
       originy="-74.083335"
       spacingx="0.26458333"
       spacingy="0.26458334"
       empcolor="#0099e5"
       empopacity="0.30196078"
       color="#0099e5"
       opacity="0.14901961"
       empspacing="5"
       dotted="false"
       gridanglex="30"
       gridanglez="30"
       visible="true" />
  </sodipodi:namedview>
  <metadata
     id="metadata4485">
    <rdf:RDF>
      <cc:Work
         rdf:about="">
        <dc:format>image/svg+xml</dc:format>
        <dc:type
           rdf:resource="http://purl.org/dc/dcmitype/StillImage" />
      </cc:Work>
    </rdf:RDF>
  </metadata>
  <g
     inkscape:label="Layer 1"
     inkscape:groupmode="layer"
     id="layer1"
     transform="translate(-58.20833,-74.083335)">
    <rect
       style="fill:none;stroke:#000000;stroke-width:1.165"
       id="rect1"
       width="42.333332"
       height="42.333332"
       x="74.083336"
       y="89.958336"
       ry="4.8455809e-07" />
    <path
       style="fill:none;stroke:#000000;stroke-width:1.165"
       d="M 116.41666,111.125 H 58.20833"
       id="path1" />
    <path
       style="fill:none;stroke:#000000;stroke-width:1.165"
       d="M 95.249996,132.29167 V 74.083335"
       id="path2" />
    <path
       style="fill:none;stroke:#000000;stroke-width:1.165"
       d="m 74.08333,89.958335 v -15.875"
       id="path3" />
    <path
       style="fill:none;stroke:#000000;stroke-width:1.165"
       d="m 116.41666,89.958335 v -15.875"
       id="path4" />
    <path
       style="fill:none;stroke:#000000;stroke-width:1.165"
       d="m 74.08333,89.958335 h -15.875"
       id="path5" />
    <path
       style="fill:none;stroke:#000000;stroke-width:1.165"
       d="m 74.08333,132.29167 h -15.875"
       id="path6" />
    <path
       d="m 77.300677,95.983796 q 0.493888,-0.05644 1.213554,-0.09878 0.733778,-0.04233 1.693332,-0.04233 1.820332,0 2.779887,0.677332 0.973666,0.677333 0.973666,1.862666 0,0.790221 -0.409222,1.326443 -0.409222,0.536224 -1.213555,0.889004 0.959555,0.33866 1.453444,0.93133 0.493888,0.59266 0.493888,1.48166 0,1.35467 -1.058332,2.14489 -1.044222,0.79022 -3.07622,0.79022 -0.860777,0 -1.636888,-0.0423 -0.761999,-0.0282 -1.213554,-0.0988 z m 2.94922,8.847664 q 1.269999,0 1.961443,-0.45156 0.705555,-0.45156 0.705555,-1.31233 0,-0.84667 -0.691444,-1.32645 -0.691444,-0.47977 -1.975554,-0.47977 h -1.608666 v 3.48544 q 0.733777,0.0847 1.608666,0.0847 z m -0.05645,-4.61433 q 1.114777,0 1.763888,-0.45156 0.663221,-0.465666 0.663221,-1.213554 0,-0.804333 -0.64911,-1.213555 -0.649111,-0.409222 -1.777999,-0.409222 -0.465666,0 -0.846666,0.02822 -0.380999,0.01411 -0.705555,0.04233 v 3.217335 z m 5.856095,-4.826001 h 1.269999 v 3.866442 q 0.141111,-0.155222 0.352778,-0.324555 0.211666,-0.169334 0.465666,-0.296334 0.268111,-0.141111 0.592666,-0.225777 0.324555,-0.08467 0.705555,-0.08467 0.635,0 1.213555,0.254 0.592666,0.254 1.03011,0.733777 0.451555,0.479778 0.719666,1.185335 0.268111,0.70555 0.268111,1.59455 0,0.87489 -0.282222,1.59456 -0.282222,0.71966 -0.747888,1.24177 -0.465667,0.508 -1.072444,0.79022 -0.592666,0.28223 -1.213555,0.28223 -0.634999,0 -1.199443,-0.22578 -0.550333,-0.22578 -0.917222,-0.55033 v 0.60677 h -1.185332 z m 5.319885,6.745111 q 0,-0.635 -0.183445,-1.12889 -0.169333,-0.508 -0.479777,-0.86078 -0.296333,-0.352777 -0.705555,-0.536222 -0.395111,-0.183444 -0.846666,-0.183444 -0.606777,0 -1.100666,0.310444 -0.479777,0.296332 -0.733777,0.649112 v 3.92288 q 0.324555,0.254 0.761999,0.40923 0.437445,0.15522 0.931333,0.15522 0.508,0 0.945444,-0.19756 0.437444,-0.19755 0.747888,-0.55033 0.310444,-0.36689 0.479777,-0.86078 0.183445,-0.508 0.183445,-1.12888 z"
       id="text1"
       style="font-size:14.1111px;line-height:1.25;font-family:ABeeZee;-inkscape-font-specification:ABeeZee;text-align:center;letter-spacing:0px;word-spacing:0px;text-anchor:middle;stroke:#000000;stroke-width:0"
       aria-label="Bb" />
    <path
       d="m 81.491673,74.817124 q 0.493888,-0.05645 1.213554,-0.09878 0.733777,-0.04233 1.693332,-0.04233 1.820332,0 2.779887,0.677333 0.973666,0.677332 0.973666,1.862665 0,0.790221 -0.409222,1.326443 -0.409222,0.536222 -1.213555,0.889 0.959555,0.338666 1.453444,0.931332 0.493888,0.592666 0.493888,1.481666 0,1.354665 -1.058332,2.144887 -1.044222,0.790222 -3.07622,0.790222 -0.860777,0 -1.636888,-0.04233 -0.761999,-0.02822 -1.213554,-0.09878 z m 2.949219,8.84766 q 1.269999,0 1.961443,-0.451556 0.705555,-0.451555 0.705555,-1.312332 0,-0.846666 -0.691444,-1.326443 -0.691443,-0.479778 -1.975554,-0.479778 h -1.608665 v 3.485442 q 0.733777,0.08467 1.608665,0.08467 z m -0.05644,-4.61433 q 1.114777,0 1.763888,-0.451555 0.663221,-0.465667 0.663221,-1.213555 0,-0.804333 -0.64911,-1.213555 -0.649111,-0.409221 -1.777999,-0.409221 -0.465666,0 -0.846666,0.02822 -0.381,0.01411 -0.705555,0.04233 v 3.217331 z"
       id="text1-3"
       style="font-size:14.1111px;line-height:1.25;font-family:ABeeZee;-inkscape-font-specification:ABeeZee;text-align:center;letter-spacing:0px;word-spacing:0px;text-anchor:middle;stroke:#000000;stroke-width:0"
       aria-label="B" />
    <path
       d="m 102.77122,74.224458 h 1.27 v 3.866441 q 0.14111,-0.155222 0.35278,-0.324555 0.21166,-0.169333 0.46566,-0.296333 0.26811,-0.141111 0.59267,-0.225778 0.32455,-0.08467 0.70555,-0.08467 0.635,0 1.21356,0.254 0.59267,0.254 1.03011,0.733777 0.45155,0.479778 0.71967,1.185333 0.26811,0.705555 0.26811,1.594554 0,0.874888 -0.28223,1.594555 -0.28222,0.719666 -0.74788,1.241776 -0.46567,0.508 -1.07245,0.790222 -0.59266,0.282222 -1.21355,0.282222 -0.635,0 -1.19945,-0.225778 -0.55033,-0.225777 -0.91722,-0.550333 v 0.606778 h -1.18533 z m 5.31989,6.745106 q 0,-0.635 -0.18345,-1.128889 -0.16933,-0.507999 -0.47978,-0.860777 -0.29633,-0.352777 -0.70555,-0.536221 -0.39511,-0.183445 -0.84667,-0.183445 -0.60677,0 -1.10066,0.310444 -0.47978,0.296334 -0.73378,0.649111 v 3.922886 q 0.32455,0.254 0.762,0.409222 0.43744,0.155222 0.93133,0.155222 0.508,0 0.94545,-0.197555 0.43744,-0.197556 0.74788,-0.550333 0.31045,-0.366889 0.47978,-0.860777 0.18345,-0.508 0.18345,-1.128888 z"
       id="text1-3-7"
       style="font-size:14.1111px;line-height:1.25;font-family:ABeeZee;-inkscape-font-specification:ABeeZee;text-align:center;letter-spacing:0px;word-spacing:0px;text-anchor:middle;stroke:#000000;stroke-width:0"
       aria-label="b" />
    <path
       d="m 63.08372,95.391129 h 1.269999 v 3.866442 q 0.141111,-0.155222 0.352778,-0.324555 0.211666,-0.169334 0.465666,-0.296334 0.268111,-0.141111 0.592667,-0.225777 0.324555,-0.08467 0.705555,-0.08467 0.634999,0 1.213554,0.254 0.592666,0.254 1.03011,0.733777 0.451556,0.479778 0.719667,1.185335 0.26811,0.70555 0.26811,1.59455 0,0.87489 -0.282222,1.59456 -0.282222,0.71966 -0.747888,1.24177 -0.465666,0.508 -1.072443,0.79022 -0.592667,0.28223 -1.213555,0.28223 -0.635,0 -1.199444,-0.22578 -0.550333,-0.22578 -0.917221,-0.55033 v 0.60677 H 63.08372 Z m 5.319885,6.745111 q 0,-0.635 -0.183444,-1.12889 -0.169333,-0.508 -0.479777,-0.86078 -0.296334,-0.352777 -0.705555,-0.536222 -0.395111,-0.183444 -0.846666,-0.183444 -0.606778,0 -1.100666,0.310444 -0.479778,0.296332 -0.733778,0.649112 v 3.92288 q 0.324556,0.254 0.762,0.40923 0.437444,0.15522 0.931333,0.15522 0.507999,0 0.945443,-0.19756 0.437444,-0.19755 0.747889,-0.55033 0.310444,-0.36689 0.479777,-0.86078 0.183444,-0.508 0.183444,-1.12888 z"
       id="text1-3-3"
       style="font-size:14.1111px;line-height:1.25;font-family:ABeeZee;-inkscape-font-specification:ABeeZee;text-align:center;letter-spacing:0px;word-spacing:0px;text-anchor:middle;stroke:#000000;stroke-width:0"
       aria-label="b" />
    <path
       d="m 63.08372,116.55779 h 1.269999 v 3.86644 q 0.141111,-0.15522 0.352778,-0.32455 0.211666,-0.16933 0.465666,-0.29633 0.268111,-0.14111 0.592667,-0.22578 0.324555,-0.0847 0.705555,-0.0847 0.634999,0 1.213554,0.254 0.592666,0.254 1.03011,0.73378 0.451556,0.47978 0.719667,1.18533 0.26811,0.70556 0.26811,1.59456 0,0.87488 -0.282222,1.59455 -0.282222,0.71967 -0.747888,1.24178 -0.465666,0.508 -1.072443,0.79022 -0.592667,0.28222 -1.213555,0.28222 -0.635,0 -1.199444,-0.22578 -0.550333,-0.22577 -0.917221,-0.55033 v 0.60678 H 63.08372 Z m 5.319885,6.74511 q 0,-0.635 -0.183444,-1.12889 -0.169333,-0.508 -0.479777,-0.86078 -0.296334,-0.35277 -0.705555,-0.53622 -0.395111,-0.18344 -0.846666,-0.18344 -0.606778,0 -1.100666,0.31044 -0.479778,0.29634 -0.733778,0.64911 v 3.92289 q 0.324556,0.254 0.762,0.40922 0.437444,0.15522 0.931333,0.15522 0.507999,0 0.945443,-0.19755 0.437444,-0.19756 0.747889,-0.55034 0.310444,-0.36688 0.479777,-0.86077 0.183444,-0.508 0.183444,-1.12889 z"
       id="text1-3-2"
       style="font-size:14.1111px;line-height:1.25;font-family:ABeeZee;-inkscape-font-specification:ABeeZee;text-align:center;letter-spacing:0px;word-spacing:0px;text-anchor:middle;stroke:#000000;stroke-width:0"
       aria-label="b" />
    <path
       d="m 98.580225,116.55779 h 1.269999 v 3.86644 q 0.141111,-0.15522 0.352776,-0.32455 0.21167,-0.16933 0.46567,-0.29633 0.26811,-0.14111 0.59266,-0.22578 0.32456,-0.0847 0.70556,-0.0847 0.635,0 1.21355,0.254 0.59267,0.254 1.03011,0.73378 0.45156,0.47978 0.71967,1.18533 0.26811,0.70556 0.26811,1.59456 0,0.87488 -0.28222,1.59455 -0.28222,0.71967 -0.74789,1.24178 -0.46567,0.508 -1.07244,0.79022 -0.59267,0.28222 -1.21356,0.28222 -0.635,0 -1.19944,-0.22578 -0.55033,-0.22577 -0.917223,-0.55033 v 0.60678 h -1.185332 z m 5.319885,6.74511 q 0,-0.635 -0.18344,-1.12889 -0.16934,-0.508 -0.47978,-0.86078 -0.29634,-0.35277 -0.70556,-0.53622 -0.39511,-0.18344 -0.84666,-0.18344 -0.60678,0 -1.10067,0.31044 -0.47978,0.29634 -0.733776,0.64911 v 3.92289 q 0.324556,0.254 0.761996,0.40922 0.43745,0.15522 0.93134,0.15522 0.508,0 0.94544,-0.19755 0.43744,-0.19756 0.74789,-0.55034 0.31044,-0.36688 0.47978,-0.86077 0.18344,-0.508 0.18344,-1.12889 z m 3.06211,-6.74511 h 1.27 v 3.86644 q 0.14111,-0.15522 0.35277,-0.32455 0.21167,-0.16933 0.46567,-0.29633 0.26811,-0.14111 0.59267,-0.22578 0.32455,-0.0847 0.70555,-0.0847 0.635,0 1.21355,0.254 0.59267,0.254 1.03012,0.73378 0.45155,0.47978 0.71966,1.18533 0.26811,0.70556 0.26811,1.59456 0,0.87488 -0.28222,1.59455 -0.28222,0.71967 -0.74789,1.24178 -0.46566,0.508 -1.07244,0.79022 -0.59267,0.28222 -1.21356,0.28222 -0.635,0 -1.19944,-0.22578 -0.55033,-0.22577 -0.91722,-0.55033 v 0.60678 h -1.18533 z m 5.31988,6.74511 q 0,-0.635 -0.18344,-1.12889 -0.16934,-0.508 -0.47978,-0.86078 -0.29633,-0.35277 -0.70556,-0.53622 -0.39511,-0.18344 -0.84666,-0.18344 -0.60678,0 -1.10067,0.31044 -0.47978,0.29634 -0.73377,0.64911 v 3.92289 q 0.32455,0.254 0.76199,0.40922 0.43745,0.15522 0.93134,0.15522 0.508,0 0.94544,-0.19755 0.43744,-0.19756 0.74789,-0.55034 0.31044,-0.36688 0.47978,-0.86077 0.18344,-0.508 0.18344,-1.12889 z"
       id="text1-3-70"
       style="font-size:14.1111px;line-height:1.25;font-family:ABeeZee;-inkscape-font-specification:ABeeZee;text-align:center;letter-spacing:0px;word-spacing:0px;text-anchor:middle;stroke:#000000;stroke-width:0"
       aria-label="bb" />
    <path
       d="m 98.580225,95.391129 h 1.269999 v 3.866442 q 0.141111,-0.155222 0.352776,-0.324555 0.21167,-0.169334 0.46567,-0.296334 0.26811,-0.141111 0.59266,-0.225777 0.32456,-0.08467 0.70556,-0.08467 0.635,0 1.21355,0.254 0.59267,0.254 1.03011,0.733777 0.45156,0.479778 0.71967,1.185335 0.26811,0.70555 0.26811,1.59455 0,0.87489 -0.28222,1.59456 -0.28222,0.71966 -0.74789,1.24177 -0.46567,0.508 -1.07244,0.79022 -0.59267,0.28223 -1.21356,0.28223 -0.635,0 -1.19944,-0.22578 -0.55033,-0.22578 -0.917223,-0.55033 v 0.60677 h -1.185332 z m 5.319885,6.745111 q 0,-0.635 -0.18344,-1.12889 -0.16934,-0.508 -0.47978,-0.86078 -0.29634,-0.352777 -0.70556,-0.536222 -0.39511,-0.183444 -0.84666,-0.183444 -0.60678,0 -1.10067,0.310444 -0.47978,0.296332 -0.733776,0.649112 v 3.92288 q 0.324556,0.254 0.761996,0.40923 0.43745,0.15522 0.93134,0.15522 0.508,0 0.94544,-0.19756 0.43744,-0.19755 0.74789,-0.55033 0.31044,-0.36689 0.47978,-0.86078 0.18344,-0.508 0.18344,-1.12888 z m 3.06211,-6.745111 h 1.27 v 3.866442 q 0.14111,-0.155222 0.35277,-0.324555 0.21167,-0.169334 0.46567,-0.296334 0.26811,-0.141111 0.59267,-0.225777 0.32455,-0.08467 0.70555,-0.08467 0.635,0 1.21355,0.254 0.59267,0.254 1.03012,0.733777 0.45155,0.479778 0.71966,1.185335 0.26811,0.70555 0.26811,1.59455 0,0.87489 -0.28222,1.59456 -0.28222,0.71966 -0.74789,1.24177 -0.46566,0.508 -1.07244,0.79022 -0.59267,0.28223 -1.21356,0.28223 -0.635,0 -1.19944,-0.22578 -0.55033,-0.22578 -0.91722,-0.55033 v 0.60677 h -1.18533 z m 5.31988,6.745111 q 0,-0.635 -0.18344,-1.12889 -0.16934,-0.508 -0.47978,-0.86078 -0.29633,-0.352777 -0.70556,-0.536222 -0.39511,-0.183444 -0.84666,-0.183444 -0.60678,0 -1.10067,0.310444 -0.47978,0.296332 -0.73377,0.649112 v 3.92288 q 0.32455,0.254 0.76199,0.40923 0.43745,0.15522 0.93134,0.15522 0.508,0 0.94544,-0.19756 0.43744,-0.19755 0.74789,-0.55033 0.31044,-0.36689 0.47978,-0.86078 0.18344,-0.508 0.18344,-1.12888 z"
       id="text1-3-6"
       style="font-size:14.1111px;line-height:1.25;font-family:ABeeZee;-inkscape-font-specification:ABeeZee;text-align:center;letter-spacing:0px;word-spacing:0px;text-anchor:middle;stroke:#000000;stroke-width:0"
       aria-label="bb" />
  </g>
</svg>
