<?xml version="1.0" encoding="UTF-8" standalone="no"?>
<!-- Created with Inkscape (http://www.inkscape.org/) -->

<svg
   width="210mm"
   height="297mm"
   viewBox="0 0 210 297"
   version="1.1"
   id="svg4488"
   inkscape:version="1.3 (0e150ed6c4, 2023-07-21)"
   sodipodi:docname="punnett-AA-Aa-complete.svg"
   xmlns:inkscape="http://www.inkscape.org/namespaces/inkscape"
   xmlns:sodipodi="http://sodipodi.sourceforge.net/DTD/sodipodi-0.dtd"
   xmlns="http://www.w3.org/2000/svg"
   xmlns:svg="http://www.w3.org/2000/svg"
   xmlns:rdf="http://www.w3.org/1999/02/22-rdf-syntax-ns#"
   xmlns:cc="http://creativecommons.org/ns#"
   xmlns:dc="http://purl.org/dc/elements/1.1/">
  <defs
     id="defs4482" />
  <sodipodi:namedview
     id="base"
     pagecolor="#ffffff"
     bordercolor="#666666"
     borderopacity="1.0"
     inkscape:pageopacity="0.0"
     inkscape:pageshadow="2"
     inkscape:zoom="1.979899"
     inkscape:cx="282.33764"
     inkscape:cy="439.16382"
     inkscape:document-units="mm"
     inkscape:current-layer="layer1"
     showgrid="true"
     inkscape:showpageshadow="2"
     inkscape:pagecheckerboard="0"
     inkscape:deskcolor="#d1d1d1"
     inkscape:window-width="1920"
     inkscape:window-height="969"
     inkscape:window-x="0"
     inkscape:window-y="26"
     inkscape:window-maximized="1">
    <inkscape:grid
       id="grid1"
       units="px"
       originx="0"
       originy="0"
       spacingx="0.26458333"
       spacingy="0.26458334"
       empcolor="#0099e5"
       empopacity="0.30196078"
       color="#0099e5"
       opacity="0.14901961"
       empspacing="5"
       dotted="false"
       gridanglex="30"
       gridanglez="30"
       visible="true" />
  </sodipodi:namedview>
  <metadata
     id="metadata4485">
    <rdf:RDF>
      <cc:Work
         rdf:about="">
        <dc:format>image/svg+xml</dc:format>
        <dc:type
           rdf:resource="http://purl.org/dc/dcmitype/StillImage" />
        <dc:title />
      </cc:Work>
    </rdf:RDF>
  </metadata>
  <g
     inkscape:label="Layer 1"
     inkscape:groupmode="layer"
     id="layer1">
    <rect
       style="fill:none;stroke-width:1.165;stroke:#000000"
       id="rect1"
       width="42.333332"
       height="42.333332"
       x="74.083336"
       y="89.958336"
       ry="4.8455809e-07" />
    <path
       style="fill:none;stroke:#000000;stroke-width:1.165"
       d="M 116.41666,111.125 H 58.20833"
       id="path1" />
    <path
       style="fill:none;stroke:#000000;stroke-width:1.165"
       d="M 95.249996,132.29167 V 74.083335"
       id="path2" />
    <path
       style="fill:none;stroke:#000000;stroke-width:1.165"
       d="m 74.08333,89.958335 v -15.875"
       id="path3" />
    <path
       style="fill:none;stroke:#000000;stroke-width:1.165"
       d="m 116.41666,89.958335 v -15.875"
       id="path4" />
    <path
       style="fill:none;stroke:#000000;stroke-width:1.165"
       d="m 74.08333,89.958335 h -15.875"
       id="path5" />
    <path
       style="fill:none;stroke:#000000;stroke-width:1.165"
       d="m 74.08333,132.29167 h -15.875"
       id="path6" />
    <path
       style="font-weight:900;font-size:11.2889px;font-family:'Exo 2';-inkscape-font-specification:'Exo 2, Heavy';text-align:center;text-anchor:middle;fill:#1a1a1a;stroke-width:1.165"
       d="M 85.733462,82.984626 H 83.59986 l -0.395112,1.682046 h -2.494847 l 2.020714,-7.157163 q 0.07902,-0.282223 0.3048,-0.451556 0.225778,-0.180623 0.519289,-0.180623 h 2.223914 q 0.293511,0 0.519289,0.180623 0.225778,0.169333 0.3048,0.451556 l 2.020714,7.157163 h -2.494847 z m -0.395111,-1.715913 -0.383823,-1.670758 q -0.1016,-0.530578 -0.135467,-0.891823 h -0.3048 q -0.06773,0.530579 -0.135467,0.891823 l -0.383823,1.670758 z"
       id="text1"
       aria-label="A" />
    <path
       style="font-weight:900;font-size:11.2889px;font-family:'Exo 2';-inkscape-font-specification:'Exo 2, Heavy';text-align:center;text-anchor:middle;fill:#1a1a1a;stroke-width:1.165"
       d="m 81.878299,104.1513 h -2.133602 l -0.395111,1.68204 h -2.494847 l 2.020713,-7.157159 q 0.07902,-0.282223 0.3048,-0.451556 0.225778,-0.180623 0.51929,-0.180623 h 2.223913 q 0.293511,0 0.519289,0.180623 0.225778,0.169333 0.304801,0.451556 l 2.020713,7.157159 h -2.494847 z m -0.395111,-1.71592 -0.383823,-1.67075 q -0.1016,-0.53058 -0.135467,-0.891826 h -0.3048 q -0.06773,0.530576 -0.135467,0.891826 l -0.383822,1.67075 z m 8.105437,1.71592 h -2.133603 l -0.395111,1.68204 h -2.494847 l 2.020713,-7.157159 q 0.07902,-0.282223 0.3048,-0.451556 0.225778,-0.180623 0.51929,-0.180623 h 2.223913 q 0.293512,0 0.51929,0.180623 0.225778,0.169333 0.3048,0.451556 l 2.020713,7.157159 h -2.494847 z m -0.395112,-1.71592 -0.383823,-1.67075 q -0.1016,-0.53058 -0.135466,-0.891826 h -0.304801 q -0.06773,0.530576 -0.135466,0.891826 l -0.383823,1.67075 z"
       id="text1-9"
       aria-label="AA" />
    <path
       style="font-weight:900;font-size:11.2889px;font-family:'Exo 2';-inkscape-font-specification:'Exo 2, Heavy';text-align:center;text-anchor:middle;fill:#1a1a1a;stroke-width:1.165"
       d="m 103.04496,104.1513 h -2.1336 l -0.39511,1.68204 h -2.494847 l 2.020717,-7.157159 q 0.079,-0.282223 0.3048,-0.451556 0.22577,-0.180623 0.51929,-0.180623 h 2.22391 q 0.29351,0 0.51929,0.180623 0.22578,0.169333 0.3048,0.451556 l 2.02071,7.157159 h -2.49485 z m -0.39511,-1.71592 -0.38382,-1.67075 q -0.1016,-0.53058 -0.13547,-0.891826 h -0.3048 q -0.0677,0.530576 -0.13546,0.891826 l -0.38383,1.67075 z m 8.10544,1.71592 h -2.1336 l -0.39511,1.68204 h -2.49485 l 2.02071,-7.157159 q 0.079,-0.282223 0.3048,-0.451556 0.22578,-0.180623 0.51929,-0.180623 h 2.22391 q 0.29352,0 0.51929,0.180623 0.22578,0.169333 0.3048,0.451556 l 2.02072,7.157159 h -2.49485 z m -0.39511,-1.71592 -0.38383,-1.67075 q -0.1016,-0.53058 -0.13546,-0.891826 h -0.3048 q -0.0677,0.530576 -0.13547,0.891826 l -0.38382,1.67075 z"
       id="text1-2"
       aria-label="AA" />
    <path
       style="font-weight:900;font-size:11.2889px;font-family:'Exo 2';-inkscape-font-specification:'Exo 2, Heavy';text-align:center;text-anchor:middle;fill:#1a1a1a;stroke-width:1.165"
       d="m 82.403236,125.31796 h -2.133603 l -0.395111,1.68205 h -2.494847 l 2.020713,-7.15717 q 0.07902,-0.28222 0.3048,-0.45155 0.225778,-0.18062 0.51929,-0.18062 h 2.223913 q 0.293512,0 0.51929,0.18062 0.225778,0.16933 0.3048,0.45155 l 2.020713,7.15717 h -2.494847 z m -0.395112,-1.71591 -0.383823,-1.67076 q -0.1016,-0.53058 -0.135466,-0.89182 h -0.304801 q -0.06773,0.53058 -0.135466,0.89182 l -0.383823,1.67076 z m 3.939833,-0.62089 -0.21449,-1.50142 q 1.535291,-0.28223 3.217337,-0.28223 1.253068,0 1.862669,0.51929 0.6096,0.51929 0.6096,1.78365 v 3.49956 h -1.885246 l -0.214489,-0.79023 q -0.745068,0.94827 -1.95298,0.94827 -0.835379,0 -1.388535,-0.41769 -0.553156,-0.41769 -0.553156,-1.18533 v -0.56445 q 0,-0.67733 0.496712,-1.06115 0.496711,-0.39511 1.365957,-0.39511 h 1.761068 v -0.0452 q -0.01129,-0.3048 -0.158044,-0.42898 -0.146756,-0.13547 -0.508001,-0.13547 -1.241779,0 -2.438402,0.0564 z m 1.783646,2.04329 v 0.18062 q 0,0.34996 0.474134,0.34996 0.372533,0 0.846667,-0.28222 v -0.59832 h -0.891823 q -0.428978,0 -0.428978,0.34996 z"
       id="text1-0"
       aria-label="Aa" />
    <path
       style="font-weight:900;font-size:11.2889px;font-family:'Exo 2';-inkscape-font-specification:'Exo 2, Heavy';text-align:center;text-anchor:middle;fill:#1a1a1a;stroke-width:1.165"
       d="m 103.56991,125.31798 h -2.1336 l -0.39511,1.68204 h -2.494846 l 2.020716,-7.15716 q 0.079,-0.28222 0.3048,-0.45156 0.22578,-0.18062 0.51929,-0.18062 h 2.22391 q 0.29351,0 0.51929,0.18062 0.22578,0.16934 0.3048,0.45156 l 2.02071,7.15716 h -2.49484 z m -0.39511,-1.71592 -0.38382,-1.67075 q -0.1016,-0.53058 -0.13547,-0.89183 h -0.3048 q -0.0677,0.53058 -0.13546,0.89183 l -0.38383,1.67075 z m 3.93984,-0.62089 -0.21449,-1.50142 q 1.53529,-0.28222 3.21733,-0.28222 1.25307,0 1.86267,0.51929 0.6096,0.51929 0.6096,1.78364 v 3.49956 h -1.88524 l -0.21449,-0.79022 q -0.74507,0.94827 -1.95298,0.94827 -0.83538,0 -1.38854,-0.41769 -0.55315,-0.41769 -0.55315,-1.18534 v -0.56444 q 0,-0.67734 0.49671,-1.06116 0.49671,-0.39511 1.36596,-0.39511 h 1.76106 v -0.0452 q -0.0113,-0.3048 -0.15804,-0.42897 -0.14676,-0.13547 -0.508,-0.13547 -1.24178,0 -2.4384,0.0564 z m 1.78364,2.0433 v 0.18062 q 0,0.34995 0.47414,0.34995 0.37253,0 0.84666,-0.28222 v -0.59831 h -0.89182 q -0.42898,0 -0.42898,0.34996 z"
       id="text1-36"
       aria-label="Aa" />
    <path
       style="font-weight:900;font-size:11.2889px;font-family:'Exo 2';-inkscape-font-specification:'Exo 2, Heavy';text-align:center;text-anchor:middle;fill:#1a1a1a;stroke-width:1.165"
       d="m 106.90013,82.984626 h -2.13361 l -0.39511,1.682046 h -2.49484 l 2.02071,-7.157163 q 0.079,-0.282223 0.3048,-0.451556 0.22578,-0.180623 0.51929,-0.180623 h 2.22391 q 0.29351,0 0.51929,0.180623 0.22578,0.169333 0.3048,0.451556 l 2.02071,7.157163 h -2.49484 z m -0.39512,-1.715913 -0.38382,-1.670758 q -0.1016,-0.530578 -0.13546,-0.891823 h -0.30481 q -0.0677,0.530579 -0.13546,0.891823 l -0.38382,1.670758 z"
       id="text1-3"
       aria-label="A" />
    <path
       style="font-weight:900;font-size:11.2889px;font-family:'Exo 2';-inkscape-font-specification:'Exo 2, Heavy';text-align:center;text-anchor:middle;fill:#1a1a1a;stroke-width:1.165"
       d="m 67.20064,104.26771 h -2.133602 l -0.395111,1.68205 H 62.17708 l 2.020713,-7.157162 q 0.07902,-0.282223 0.3048,-0.451556 0.225778,-0.180623 0.51929,-0.180623 h 2.223913 q 0.293511,0 0.519289,0.180623 0.225778,0.169333 0.304801,0.451556 l 2.020713,7.157162 h -2.494847 z m -0.395111,-1.71591 -0.383823,-1.67076 q -0.1016,-0.53057 -0.135467,-0.891819 h -0.3048 q -0.06773,0.530579 -0.135467,0.891819 l -0.383822,1.67076 z"
       id="text1-7"
       aria-label="A" />
    <path
       style="font-weight:900;font-size:11.2889px;font-family:'Exo 2';-inkscape-font-specification:'Exo 2, Heavy';text-align:center;text-anchor:middle;fill:#1a1a1a;stroke-width:1.165"
       d="m 63.559972,123.09757 -0.214489,-1.50143 q 1.535291,-0.28222 3.217337,-0.28222 1.253068,0 1.862668,0.51929 0.609601,0.51929 0.609601,1.78365 v 3.49956 h -1.885246 l -0.214489,-0.79023 q -0.745068,0.94827 -1.95298,0.94827 -0.835379,0 -1.388535,-0.41769 -0.553156,-0.41769 -0.553156,-1.18533 v -0.56445 q 0,-0.67733 0.496712,-1.06115 0.496711,-0.39512 1.365956,-0.39512 h 1.761069 v -0.0452 q -0.01129,-0.3048 -0.158045,-0.42898 -0.146755,-0.13547 -0.508,-0.13547 -1.241779,0 -2.438403,0.0564 z m 1.783647,2.04329 v 0.18062 q 0,0.34996 0.474133,0.34996 0.372534,0 0.846668,-0.28222 v -0.59832 h -0.891823 q -0.428978,0 -0.428978,0.34996 z"
       id="text1-35"
       aria-label="a" />
  </g>
</svg>
