<?xml version="1.0" encoding="UTF-8" standalone="no"?>
<!-- Created with Inkscape (http://www.inkscape.org/) -->

<svg
   width="58.790836mm"
   height="58.790836mm"
   viewBox="0 0 58.790836 58.790836"
   version="1.1"
   id="svg4488"
   inkscape:version="1.3.2 (091e20ef0f, 2023-11-25, custom)"
   sodipodi:docname="punnett-Aa-Aa-complete-dev.svg"
   xmlns:inkscape="http://www.inkscape.org/namespaces/inkscape"
   xmlns:sodipodi="http://sodipodi.sourceforge.net/DTD/sodipodi-0.dtd"
   xmlns="http://www.w3.org/2000/svg"
   xmlns:svg="http://www.w3.org/2000/svg"
   xmlns:rdf="http://www.w3.org/1999/02/22-rdf-syntax-ns#"
   xmlns:cc="http://creativecommons.org/ns#"
   xmlns:dc="http://purl.org/dc/elements/1.1/">
  <defs
     id="defs4482" />
  <sodipodi:namedview
     id="base"
     pagecolor="#ffffff"
     bordercolor="#666666"
     borderopacity="1.0"
     inkscape:pageopacity="0.0"
     inkscape:pageshadow="2"
     inkscape:zoom="1.3968628"
     inkscape:cx="64.430095"
     inkscape:cy="125.63869"
     inkscape:document-units="mm"
     inkscape:current-layer="layer1"
     showgrid="true"
     inkscape:showpageshadow="2"
     inkscape:pagecheckerboard="0"
     inkscape:deskcolor="#d1d1d1"
     inkscape:window-width="1920"
     inkscape:window-height="969"
     inkscape:window-x="0"
     inkscape:window-y="26"
     inkscape:window-maximized="1">
    <inkscape:grid
       id="grid1"
       units="px"
       originx="-58.20833"
       originy="-74.083335"
       spacingx="0.26458333"
       spacingy="0.26458334"
       empcolor="#0099e5"
       empopacity="0.30196078"
       color="#0099e5"
       opacity="0.14901961"
       empspacing="5"
       dotted="false"
       gridanglex="30"
       gridanglez="30"
       visible="true" />
  </sodipodi:namedview>
  <metadata
     id="metadata4485">
    <rdf:RDF>
      <cc:Work
         rdf:about="">
        <dc:format>image/svg+xml</dc:format>
        <dc:type
           rdf:resource="http://purl.org/dc/dcmitype/StillImage" />
      </cc:Work>
    </rdf:RDF>
  </metadata>
  <g
     inkscape:label="Layer 1"
     inkscape:groupmode="layer"
     id="layer1"
     transform="translate(-58.20833,-74.083335)">
    <rect
       style="fill:none;stroke:#000000;stroke-width:1.165"
       id="rect1"
       width="42.333332"
       height="42.333332"
       x="74.083336"
       y="89.958336"
       ry="4.8455809e-07" />
    <path
       style="fill:none;stroke:#000000;stroke-width:1.165"
       d="M 116.41666,111.125 H 58.20833"
       id="path1" />
    <path
       style="fill:none;stroke:#000000;stroke-width:1.165"
       d="M 95.249996,132.29167 V 74.083335"
       id="path2" />
    <path
       style="fill:none;stroke:#000000;stroke-width:1.165"
       d="m 74.08333,89.958335 v -15.875"
       id="path3" />
    <path
       style="fill:none;stroke:#000000;stroke-width:1.165"
       d="m 116.41666,89.958335 v -15.875"
       id="path4" />
    <path
       style="fill:none;stroke:#000000;stroke-width:1.165"
       d="m 74.08333,89.958335 h -15.875"
       id="path5" />
    <path
       style="fill:none;stroke:#000000;stroke-width:1.165"
       d="m 74.08333,132.29167 h -15.875"
       id="path6" />
    <path
       d="m 75.381571,105.48057 3.866441,-9.524997 h 1.467554 l 3.809997,9.524997 -1.227665,0.49388 -1.100666,-2.82222 h -4.571997 l -1.100665,2.794 z m 2.666997,-3.45722 h 3.71122 l -1.848554,-4.741333 z m 6.759207,3.45722 3.866442,-9.524997 h 1.467554 l 3.809997,9.524997 -1.227666,0.49388 -1.100665,-2.82222 H 87.05144 l -1.100666,2.794 z m 2.666998,-3.45722 h 3.711219 l -1.848554,-4.741333 z"
       id="text1"
       style="font-size:14.1111px;line-height:1.25;font-family:ABeeZee;-inkscape-font-specification:ABeeZee;text-align:center;letter-spacing:0px;word-spacing:0px;text-anchor:middle;stroke:#000000;stroke-width:0"
       aria-label="AA" />
    <path
       d="m 80.094673,84.313894 3.866441,-9.524992 h 1.467555 l 3.809997,9.524992 -1.227666,0.493889 -1.100666,-2.82222 h -4.571996 l -1.100666,2.793998 z m 2.666998,-3.457219 h 3.711219 l -1.848554,-4.74133 z"
       id="text1-3"
       style="font-size:14.1111px;line-height:1.25;font-family:ABeeZee;-inkscape-font-specification:ABeeZee;text-align:center;letter-spacing:0px;word-spacing:0px;text-anchor:middle;stroke:#000000;stroke-width:0"
       aria-label="A" />
    <path
       d="m 102.11505,81.040119 q 0,-0.818444 0.254,-1.523999 0.254,-0.719666 0.70555,-1.241777 0.46567,-0.52211 1.10067,-0.818443 0.64911,-0.296334 1.41111,-0.296334 0.635,0 1.143,0.225778 0.52211,0.211667 0.90311,0.536222 V 77.3289 h 1.15711 v 5.559773 q 0,0.536222 0.254,0.705555 0.26811,0.155222 0.57855,0.155222 l -0.26811,0.987777 q -1.35466,0 -1.63688,-1.100666 -0.16934,0.225778 -0.39511,0.451556 -0.21167,0.211666 -0.49389,0.380999 -0.28223,0.169334 -0.635,0.268111 -0.35278,0.09878 -0.77611,0.09878 -0.69145,0 -1.29822,-0.268111 -0.59267,-0.268111 -1.04423,-0.761999 -0.43744,-0.493889 -0.70555,-1.185333 -0.254,-0.705555 -0.254,-1.580443 z m 3.58422,2.666998 q 0.53622,0 1.016,-0.254 0.47978,-0.254 0.80433,-0.663222 v -3.936997 q -0.381,-0.26811 -0.84667,-0.423333 -0.45155,-0.169333 -0.95955,-0.169333 -0.508,0 -0.93133,0.197556 -0.42334,0.197555 -0.73378,0.564444 -0.29633,0.352777 -0.46567,0.860777 -0.16933,0.507999 -0.16933,1.114777 0,0.592666 0.16933,1.100666 0.16934,0.493888 0.47978,0.860777 0.31045,0.352777 0.71967,0.550333 0.42333,0.197555 0.91722,0.197555 z"
       id="text1-3-7"
       style="font-size:14.1111px;line-height:1.25;font-family:ABeeZee;-inkscape-font-specification:ABeeZee;text-align:center;letter-spacing:0px;word-spacing:0px;text-anchor:middle;stroke:#000000;stroke-width:0"
       aria-label="a" />
    <path
       d="m 61.573837,105.48057 3.866441,-9.524997 h 1.467555 l 3.809997,9.524997 -1.227666,0.49388 -1.100666,-2.82222 h -4.571996 l -1.100666,2.794 z m 2.666998,-3.45722 h 3.711219 L 66.1035,97.282017 Z"
       id="text1-3-3"
       style="font-size:14.1111px;line-height:1.25;font-family:ABeeZee;-inkscape-font-specification:ABeeZee;text-align:center;letter-spacing:0px;word-spacing:0px;text-anchor:middle;stroke:#000000;stroke-width:0"
       aria-label="A" />
    <path
       d="m 62.427549,123.37345 q 0,-0.81844 0.254,-1.52399 0.254,-0.71967 0.705555,-1.24178 0.465666,-0.52211 1.100666,-0.81844 0.64911,-0.29634 1.41111,-0.29634 0.634999,0 1.142999,0.22578 0.522111,0.21167 0.90311,0.53622 v -0.59266 H 69.1021 v 5.55977 q 0,0.53622 0.253999,0.70555 0.268111,0.15523 0.578556,0.15523 l -0.268111,0.98777 q -1.354666,0 -1.636888,-1.10066 -0.169333,0.22577 -0.395111,0.45155 -0.211666,0.21167 -0.493888,0.381 -0.282222,0.16934 -0.635,0.26811 -0.352777,0.0988 -0.77611,0.0988 -0.691444,0 -1.298222,-0.26811 -0.592666,-0.26811 -1.044221,-0.762 -0.437444,-0.49389 -0.705555,-1.18533 -0.254,-0.70556 -0.254,-1.58045 z m 3.58422,2.667 q 0.536222,0 1.015999,-0.254 0.479777,-0.254 0.804333,-0.66322 v -3.937 q -0.381,-0.26811 -0.846666,-0.42333 -0.451556,-0.16933 -0.959555,-0.16933 -0.508,0 -0.931333,0.19755 -0.423333,0.19756 -0.733777,0.56445 -0.296333,0.35278 -0.465666,0.86077 -0.169334,0.508 -0.169334,1.11478 0,0.59267 0.169334,1.10067 0.169333,0.49389 0.479777,0.86077 0.310444,0.35278 0.719666,0.55034 0.423333,0.19755 0.917222,0.19755 z"
       id="text1-3-2"
       style="font-size:14.1111px;line-height:1.25;font-family:ABeeZee;-inkscape-font-specification:ABeeZee;text-align:center;letter-spacing:0px;word-spacing:0px;text-anchor:middle;stroke:#000000;stroke-width:0"
       aria-label="a" />
    <path
       d="m 75.741394,126.64723 3.866442,-9.52499 h 1.467554 l 3.809997,9.52499 -1.227665,0.49389 -1.100666,-2.82222 h -4.571997 l -1.100666,2.794 z m 2.666998,-3.45722 h 3.71122 l -1.848555,-4.74133 z m 7.253096,0.18344 q 0,-0.81844 0.253999,-1.52399 0.254,-0.71967 0.705555,-1.24178 0.465667,-0.52211 1.100666,-0.81844 0.649111,-0.29634 1.41111,-0.29634 0.635,0 1.142999,0.22578 0.522111,0.21167 0.903111,0.53622 v -0.59266 h 1.15711 v 5.55977 q 0,0.53622 0.254,0.70555 0.268111,0.15523 0.578555,0.15523 l -0.268111,0.98777 q -1.354666,0 -1.636888,-1.10066 -0.169333,0.22577 -0.395111,0.45155 -0.211666,0.21167 -0.493888,0.381 -0.282222,0.16934 -0.635,0.26811 -0.352777,0.0988 -0.77611,0.0988 -0.691444,0 -1.298221,-0.26811 -0.592666,-0.26811 -1.044222,-0.762 -0.437444,-0.49389 -0.705555,-1.18533 -0.253999,-0.70556 -0.253999,-1.58045 z m 3.584219,2.667 q 0.536222,0 1.015999,-0.254 0.479778,-0.254 0.804333,-0.66322 v -3.937 q -0.381,-0.26811 -0.846666,-0.42333 -0.451555,-0.16933 -0.959555,-0.16933 -0.508,0 -0.931333,0.19755 -0.423333,0.19756 -0.733777,0.56445 -0.296333,0.35278 -0.465666,0.86077 -0.169333,0.508 -0.169333,1.11478 0,0.59267 0.169333,1.10067 0.169333,0.49389 0.479777,0.86077 0.310445,0.35278 0.719666,0.55034 0.423333,0.19755 0.917222,0.19755 z"
       id="text1-3-1"
       style="font-size:14.1111px;line-height:1.25;font-family:ABeeZee;-inkscape-font-specification:ABeeZee;text-align:center;letter-spacing:0px;word-spacing:0px;text-anchor:middle;stroke:#000000;stroke-width:0"
       aria-label="Aa" />
    <path
       d="m 96.908058,105.48057 3.866442,-9.524997 h 1.46755 l 3.81,9.524997 -1.22766,0.49388 -1.10067,-2.82222 h -4.571997 l -1.100665,2.794 z m 2.666998,-3.45722 h 3.711224 l -1.84856,-4.741333 z m 7.253094,0.18344 q 0,-0.81844 0.254,-1.524 0.254,-0.719664 0.70556,-1.241775 0.46566,-0.522111 1.10066,-0.818444 0.64911,-0.296333 1.41111,-0.296333 0.635,0 1.143,0.225778 0.52211,0.211666 0.90311,0.536222 v -0.592667 h 1.15711 v 5.559769 q 0,0.53623 0.254,0.70556 0.26811,0.15522 0.57856,0.15522 l -0.26811,0.98778 q -1.35467,0 -1.63689,-1.10067 -0.16933,0.22578 -0.39511,0.45156 -0.21167,0.21166 -0.49389,0.381 -0.28222,0.16933 -0.635,0.26811 -0.35278,0.0988 -0.77611,0.0988 -0.69144,0 -1.29822,-0.26811 -0.59267,-0.26812 -1.04422,-0.762 -0.43745,-0.49389 -0.70556,-1.18534 -0.254,-0.70555 -0.254,-1.58044 z m 3.58422,2.667 q 0.53622,0 1.016,-0.254 0.47978,-0.254 0.80433,-0.66322 v -3.937 q -0.381,-0.268111 -0.84666,-0.423333 -0.45156,-0.169333 -0.95956,-0.169333 -0.508,0 -0.93133,0.197555 -0.42333,0.197556 -0.73378,0.564441 -0.29633,0.35278 -0.46566,0.86078 -0.16934,0.508 -0.16934,1.11478 0,0.59266 0.16934,1.10066 0.16933,0.49389 0.47977,0.86078 0.31045,0.35278 0.71967,0.55033 0.42333,0.19756 0.91722,0.19756 z"
       id="text1-3-6"
       style="font-size:14.1111px;line-height:1.25;font-family:ABeeZee;-inkscape-font-specification:ABeeZee;text-align:center;letter-spacing:0px;word-spacing:0px;text-anchor:middle;stroke:#000000;stroke-width:0"
       aria-label="Aa" />
    <path
       d="m 97.832328,123.37345 q 0,-0.81844 0.254,-1.52399 0.253999,-0.71967 0.705555,-1.24178 0.465666,-0.52211 1.100665,-0.81844 0.649112,-0.29634 1.411112,-0.29634 0.635,0 1.143,0.22578 0.52211,0.21167 0.90311,0.53622 v -0.59266 h 1.15711 v 5.55977 q 0,0.53622 0.254,0.70555 0.26811,0.15523 0.57855,0.15523 l -0.26811,0.98777 q -1.35466,0 -1.63689,-1.10066 -0.16933,0.22577 -0.39511,0.45155 -0.21166,0.21167 -0.49388,0.381 -0.28223,0.16934 -0.635,0.26811 -0.35278,0.0988 -0.77611,0.0988 -0.69145,0 -1.298226,-0.26811 -0.592666,-0.26811 -1.044221,-0.762 -0.437444,-0.49389 -0.705555,-1.18533 -0.254,-0.70556 -0.254,-1.58045 z m 3.584222,2.667 q 0.53622,0 1.016,-0.254 0.47977,-0.254 0.80433,-0.66322 v -3.937 q -0.381,-0.26811 -0.84667,-0.42333 -0.45155,-0.16933 -0.95955,-0.16933 -0.508,0 -0.93133,0.19755 -0.42334,0.19756 -0.733781,0.56445 -0.296334,0.35278 -0.465667,0.86077 -0.169333,0.508 -0.169333,1.11478 0,0.59267 0.169333,1.10067 0.169333,0.49389 0.479778,0.86077 0.31044,0.35278 0.71967,0.55034 0.42333,0.19755 0.91722,0.19755 z m 4.98122,-2.667 q 0,-0.81844 0.254,-1.52399 0.254,-0.71967 0.70556,-1.24178 0.46566,-0.52211 1.10066,-0.81844 0.64911,-0.29634 1.41111,-0.29634 0.635,0 1.143,0.22578 0.52211,0.21167 0.90311,0.53622 v -0.59266 h 1.15711 v 5.55977 q 0,0.53622 0.254,0.70555 0.26811,0.15523 0.57856,0.15523 l -0.26811,0.98777 q -1.35467,0 -1.63689,-1.10066 -0.16934,0.22577 -0.39511,0.45155 -0.21167,0.21167 -0.49389,0.381 -0.28222,0.16934 -0.635,0.26811 -0.35278,0.0988 -0.77611,0.0988 -0.69145,0 -1.29822,-0.26811 -0.59267,-0.26811 -1.04422,-0.762 -0.43745,-0.49389 -0.70556,-1.18533 -0.254,-0.70556 -0.254,-1.58045 z m 3.58422,2.667 q 0.53622,0 1.016,-0.254 0.47978,-0.254 0.80433,-0.66322 v -3.937 q -0.381,-0.26811 -0.84666,-0.42333 -0.45156,-0.16933 -0.95956,-0.16933 -0.508,0 -0.93133,0.19755 -0.42333,0.19756 -0.73378,0.56445 -0.29633,0.35278 -0.46566,0.86077 -0.16934,0.508 -0.16934,1.11478 0,0.59267 0.16934,1.10067 0.16933,0.49389 0.47977,0.86077 0.31045,0.35278 0.71967,0.55034 0.42333,0.19755 0.91722,0.19755 z"
       id="text1-3-6-3"
       style="font-size:14.1111px;line-height:1.25;font-family:ABeeZee;-inkscape-font-specification:ABeeZee;text-align:center;letter-spacing:0px;word-spacing:0px;text-anchor:middle;stroke:#000000;stroke-width:0"
       aria-label="aa" />
  </g>
</svg>
