<?xml version="1.0" encoding="UTF-8" standalone="no"?>
<!-- Created with Inkscape (http://www.inkscape.org/) -->

<svg
   width="58.790836mm"
   height="58.790836mm"
   viewBox="0 0 58.790836 58.790836"
   version="1.1"
   id="svg4488"
   inkscape:version="1.3.2 (091e20ef0f, 2023-11-25, custom)"
   sodipodi:docname="punnett-CC-cc-incomplete-dev.svg"
   xmlns:inkscape="http://www.inkscape.org/namespaces/inkscape"
   xmlns:sodipodi="http://sodipodi.sourceforge.net/DTD/sodipodi-0.dtd"
   xmlns="http://www.w3.org/2000/svg"
   xmlns:svg="http://www.w3.org/2000/svg"
   xmlns:rdf="http://www.w3.org/1999/02/22-rdf-syntax-ns#"
   xmlns:cc="http://creativecommons.org/ns#"
   xmlns:dc="http://purl.org/dc/elements/1.1/">
  <defs
     id="defs4482" />
  <sodipodi:namedview
     id="base"
     pagecolor="#ffffff"
     bordercolor="#666666"
     borderopacity="1.0"
     inkscape:pageopacity="0.0"
     inkscape:pageshadow="2"
     inkscape:zoom="1.3984305"
     inkscape:cx="64.357864"
     inkscape:cy="125.85538"
     inkscape:document-units="mm"
     inkscape:current-layer="layer1"
     showgrid="true"
     inkscape:showpageshadow="2"
     inkscape:pagecheckerboard="0"
     inkscape:deskcolor="#d1d1d1"
     inkscape:window-width="1920"
     inkscape:window-height="969"
     inkscape:window-x="0"
     inkscape:window-y="26"
     inkscape:window-maximized="1">
    <inkscape:grid
       id="grid1"
       units="px"
       originx="-58.20833"
       originy="-74.083335"
       spacingx="0.26458333"
       spacingy="0.26458334"
       empcolor="#0099e5"
       empopacity="0.30196078"
       color="#0099e5"
       opacity="0.14901961"
       empspacing="5"
       dotted="false"
       gridanglex="30"
       gridanglez="30"
       visible="true" />
  </sodipodi:namedview>
  <metadata
     id="metadata4485">
    <rdf:RDF>
      <cc:Work
         rdf:about="">
        <dc:format>image/svg+xml</dc:format>
        <dc:type
           rdf:resource="http://purl.org/dc/dcmitype/StillImage" />
      </cc:Work>
    </rdf:RDF>
  </metadata>
  <g
     inkscape:label="Layer 1"
     inkscape:groupmode="layer"
     id="layer1"
     transform="translate(-58.20833,-74.083335)">
    <rect
       style="fill:none;stroke:#000000;stroke-width:1.165"
       id="rect1"
       width="42.333332"
       height="42.333332"
       x="74.083336"
       y="89.958336"
       ry="4.8455809e-07" />
    <path
       style="fill:none;stroke:#000000;stroke-width:1.165"
       d="M 116.41666,111.125 H 58.20833"
       id="path1" />
    <path
       style="fill:none;stroke:#000000;stroke-width:1.165"
       d="M 95.249996,132.29167 V 74.083335"
       id="path2" />
    <path
       style="fill:none;stroke:#000000;stroke-width:1.165"
       d="m 74.08333,89.958335 v -15.875"
       id="path3" />
    <path
       style="fill:none;stroke:#000000;stroke-width:1.165"
       d="m 116.41666,89.958335 v -15.875"
       id="path4" />
    <path
       style="fill:none;stroke:#000000;stroke-width:1.165"
       d="m 74.08333,89.958335 h -15.875"
       id="path5" />
    <path
       style="fill:none;stroke:#000000;stroke-width:1.165"
       d="m 74.08333,132.29167 h -15.875"
       id="path6" />
    <path
       d="m 79.431451,100.88035 q 0,0.889 0.225778,1.62277 0.239888,0.71967 0.64911,1.24178 0.423333,0.52211 1.001888,0.80433 0.578555,0.28223 1.269999,0.28223 0.691444,0 1.199444,-0.15523 0.507999,-0.16933 0.987777,-0.45155 l 0.409222,1.11477 q -0.522111,0.28223 -1.199444,0.47978 -0.663222,0.18345 -1.552221,0.18345 -0.973666,0 -1.777998,-0.35278 -0.790222,-0.35278 -1.368777,-1.00189 -0.578555,-0.66322 -0.903111,-1.59455 -0.310444,-0.94545 -0.310444,-2.11667 0,-1.128886 0.310444,-2.07433 0.324556,-0.945444 0.917222,-1.622777 0.592666,-0.691443 1.425221,-1.072443 0.846666,-0.381 1.876776,-0.381 0.719666,0 1.28411,0.141111 0.578556,0.127 1.086555,0.366889 l -0.409222,1.128888 q -0.437444,-0.211667 -0.90311,-0.338667 -0.451555,-0.127 -1.072444,-0.127 -0.677333,0 -1.255888,0.268111 -0.578555,0.254 -1.001888,0.762 -0.423333,0.507999 -0.663221,1.241777 -0.225778,0.719666 -0.225778,1.651001 z m 11.69809,-1.044224 q -0.409222,-0.197555 -0.761999,-0.282222 -0.352778,-0.09878 -0.790222,-0.09878 -0.493888,0 -0.931332,0.183445 -0.423334,0.183444 -0.733778,0.536219 -0.310444,0.33867 -0.493888,0.83256 -0.169333,0.49389 -0.169333,1.12889 0,0.57855 0.155222,1.07244 0.169333,0.49389 0.465666,0.87489 0.296333,0.36689 0.705555,0.57855 0.409222,0.21167 0.917222,0.21167 0.536221,0 0.917221,-0.11289 0.381,-0.11289 0.818444,-0.35278 l 0.395111,1.07245 q -0.451556,0.23988 -0.987777,0.381 -0.536222,0.14111 -1.227666,0.14111 -0.790222,0 -1.425221,-0.28223 -0.635,-0.28222 -1.086555,-0.79022 -0.451555,-0.508 -0.705555,-1.21355 -0.239889,-0.70556 -0.239889,-1.55222 0,-0.79022 0.239889,-1.48167 0.254,-0.705553 0.719666,-1.227664 0.465666,-0.52211 1.114777,-0.818444 0.663222,-0.310444 1.481666,-0.310444 0.634999,0 1.100665,0.112889 0.465667,0.112889 0.903111,0.324555 z"
       id="text1"
       style="font-size:14.1111px;line-height:1.25;font-family:ABeeZee;-inkscape-font-specification:ABeeZee;text-align:center;letter-spacing:0px;word-spacing:0px;text-anchor:middle;stroke:#000000;stroke-width:0"
       aria-label="Cc" />
    <path
       d="m 82.55,79.713676 q 0,0.888999 0.225778,1.622776 0.239888,0.719666 0.64911,1.241777 0.423333,0.522111 1.001888,0.804333 0.578555,0.282222 1.269999,0.282222 0.691444,0 1.199444,-0.155222 0.508,-0.169334 0.987777,-0.451556 l 0.409222,1.114777 q -0.522111,0.282222 -1.199444,0.479778 -0.663221,0.183444 -1.552221,0.183444 -0.973666,0 -1.777998,-0.352778 -0.790222,-0.352777 -1.368777,-1.001888 -0.578555,-0.663221 -0.90311,-1.594554 -0.310445,-0.945444 -0.310445,-2.116665 0,-1.128888 0.310445,-2.074332 0.324555,-0.945443 0.917221,-1.622776 0.592666,-0.691444 1.425221,-1.072444 0.846666,-0.381 1.876777,-0.381 0.719666,0 1.28411,0.141111 0.578555,0.127 1.086554,0.366889 l -0.409222,1.128888 q -0.437444,-0.211666 -0.90311,-0.338666 -0.451555,-0.127 -1.072444,-0.127 -0.677332,0 -1.255888,0.268111 -0.578555,0.253999 -1.001888,0.761999 -0.423333,0.508 -0.663221,1.241777 Q 82.55,78.782343 82.55,79.713676 Z"
       id="text1-3"
       style="font-size:14.1111px;line-height:1.25;font-family:ABeeZee;-inkscape-font-specification:ABeeZee;text-align:center;letter-spacing:0px;word-spacing:0px;text-anchor:middle;stroke:#000000;stroke-width:0"
       aria-label="C" />
    <path
       d="m 103.71666,79.713676 q 0,0.888999 0.22578,1.622776 0.23989,0.719666 0.64911,1.241777 0.42334,0.522111 1.00189,0.804333 0.57856,0.282222 1.27,0.282222 0.69144,0 1.19944,-0.155222 0.508,-0.169334 0.98778,-0.451556 l 0.40922,1.114777 q -0.52211,0.282222 -1.19944,0.479778 -0.66322,0.183444 -1.55222,0.183444 -0.97367,0 -1.778,-0.352778 -0.79022,-0.352777 -1.36878,-1.001888 -0.57855,-0.663221 -0.90311,-1.594554 -0.31044,-0.945444 -0.31044,-2.116665 0,-1.128888 0.31044,-2.074332 0.32456,-0.945443 0.91722,-1.622776 0.59267,-0.691444 1.42522,-1.072444 0.84667,-0.381 1.87678,-0.381 0.71967,0 1.28411,0.141111 0.57856,0.127 1.08656,0.366889 l -0.40923,1.128888 q -0.43744,-0.211666 -0.90311,-0.338666 -0.45155,-0.127 -1.07244,-0.127 -0.67733,0 -1.25589,0.268111 -0.57855,0.253999 -1.00189,0.761999 -0.42333,0.508 -0.66322,1.241777 -0.22578,0.719666 -0.22578,1.650999 z"
       id="text1-3-7"
       style="font-size:14.1111px;line-height:1.25;font-family:ABeeZee;-inkscape-font-specification:ABeeZee;text-align:center;letter-spacing:0px;word-spacing:0px;text-anchor:middle;stroke:#000000;stroke-width:0"
       aria-label="C" />
    <path
       d="m 68.629381,121.00279 q -0.409222,-0.19756 -0.761999,-0.28222 -0.352778,-0.0988 -0.790222,-0.0988 -0.493889,0 -0.931333,0.18344 -0.423333,0.18345 -0.733777,0.53623 -0.310444,0.33866 -0.493888,0.83255 -0.169334,0.49389 -0.169334,1.12889 0,0.57855 0.155223,1.07244 0.169333,0.49389 0.465666,0.87489 0.296333,0.36689 0.705555,0.57856 0.409222,0.21166 0.917221,0.21166 0.536222,0 0.917222,-0.11289 0.381,-0.11288 0.818444,-0.35277 l 0.395111,1.07244 q -0.451556,0.23989 -0.987777,0.381 -0.536222,0.14111 -1.227666,0.14111 -0.790222,0 -1.425221,-0.28222 -0.635,-0.28222 -1.086555,-0.79022 -0.451555,-0.508 -0.705555,-1.21356 -0.239889,-0.70555 -0.239889,-1.55222 0,-0.79022 0.239889,-1.48166 0.254,-0.70556 0.719666,-1.22767 0.465666,-0.52211 1.114777,-0.81844 0.663222,-0.31045 1.481665,-0.31045 0.635,0 1.100666,0.11289 0.465667,0.11289 0.903111,0.32456 z"
       id="text1-3-2"
       style="font-size:14.1111px;line-height:1.25;font-family:ABeeZee;-inkscape-font-specification:ABeeZee;text-align:center;letter-spacing:0px;word-spacing:0px;text-anchor:middle;stroke:#000000;stroke-width:0"
       aria-label="c" />
    <path
       d="m 100.59812,122.04701 q 0,0.889 0.22577,1.62278 0.23989,0.71966 0.64911,1.24177 0.42334,0.52212 1.00189,0.80434 0.57856,0.28222 1.27,0.28222 0.69144,0 1.19944,-0.15522 0.508,-0.16934 0.98778,-0.45156 l 0.40922,1.11478 q -0.52211,0.28222 -1.19944,0.47978 -0.66322,0.18344 -1.55222,0.18344 -0.97367,0 -1.778,-0.35278 -0.79022,-0.35277 -1.36878,-1.00188 -0.578552,-0.66323 -0.903107,-1.59456 -0.310445,-0.94544 -0.310445,-2.11666 0,-1.12889 0.310445,-2.07434 0.324555,-0.94544 0.917217,-1.62277 0.59267,-0.69145 1.42523,-1.07245 0.84666,-0.381 1.87677,-0.381 0.71967,0 1.28411,0.14112 0.57856,0.127 1.08656,0.36688 l -0.40923,1.12889 q -0.43744,-0.21166 -0.90311,-0.33866 -0.45155,-0.127 -1.07244,-0.127 -0.67733,0 -1.25589,0.26811 -0.57855,0.254 -1.00189,0.762 -0.42333,0.508 -0.66322,1.24177 -0.22577,0.71967 -0.22577,1.651 z m 11.69809,-1.04422 q -0.40923,-0.19756 -0.762,-0.28222 -0.35278,-0.0988 -0.79023,-0.0988 -0.49388,0 -0.93133,0.18344 -0.42333,0.18345 -0.73378,0.53623 -0.31044,0.33866 -0.49388,0.83255 -0.16934,0.49389 -0.16934,1.12889 0,0.57855 0.15522,1.07244 0.16934,0.49389 0.46567,0.87489 0.29633,0.36689 0.70556,0.57856 0.40922,0.21166 0.91722,0.21166 0.53622,0 0.91722,-0.11289 0.381,-0.11288 0.81844,-0.35277 l 0.39511,1.07244 q -0.45155,0.23989 -0.98777,0.381 -0.53623,0.14111 -1.22767,0.14111 -0.79022,0 -1.42522,-0.28222 -0.635,-0.28222 -1.08655,-0.79022 -0.45156,-0.508 -0.70556,-1.21356 -0.23989,-0.70555 -0.23989,-1.55222 0,-0.79022 0.23989,-1.48166 0.254,-0.70556 0.71967,-1.22767 0.46566,-0.52211 1.11477,-0.81844 0.66322,-0.31045 1.48167,-0.31045 0.635,0 1.10066,0.11289 0.46567,0.11289 0.90311,0.32456 z"
       id="text1-3-70"
       style="font-size:14.1111px;line-height:1.25;font-family:ABeeZee;-inkscape-font-specification:ABeeZee;text-align:center;letter-spacing:0px;word-spacing:0px;text-anchor:middle;stroke:#000000;stroke-width:0"
       aria-label="Cc" />
    <path
       d="m 79.431451,122.04701 q 0,0.889 0.225778,1.62278 0.239888,0.71966 0.64911,1.24177 0.423333,0.52212 1.001888,0.80434 0.578555,0.28222 1.269999,0.28222 0.691444,0 1.199444,-0.15522 0.507999,-0.16934 0.987777,-0.45156 l 0.409222,1.11478 q -0.522111,0.28222 -1.199444,0.47978 -0.663222,0.18344 -1.552221,0.18344 -0.973666,0 -1.777998,-0.35278 -0.790222,-0.35277 -1.368777,-1.00188 -0.578555,-0.66323 -0.903111,-1.59456 -0.310444,-0.94544 -0.310444,-2.11666 0,-1.12889 0.310444,-2.07434 0.324556,-0.94544 0.917222,-1.62277 0.592666,-0.69145 1.425221,-1.07245 0.846666,-0.381 1.876776,-0.381 0.719666,0 1.28411,0.14112 0.578556,0.127 1.086555,0.36688 l -0.409222,1.12889 q -0.437444,-0.21166 -0.90311,-0.33866 -0.451555,-0.127 -1.072444,-0.127 -0.677333,0 -1.255888,0.26811 -0.578555,0.254 -1.001888,0.762 -0.423333,0.508 -0.663221,1.24177 -0.225778,0.71967 -0.225778,1.651 z m 11.69809,-1.04422 q -0.409222,-0.19756 -0.761999,-0.28222 -0.352778,-0.0988 -0.790222,-0.0988 -0.493888,0 -0.931332,0.18344 -0.423334,0.18345 -0.733778,0.53623 -0.310444,0.33866 -0.493888,0.83255 -0.169333,0.49389 -0.169333,1.12889 0,0.57855 0.155222,1.07244 0.169333,0.49389 0.465666,0.87489 0.296333,0.36689 0.705555,0.57856 0.409222,0.21166 0.917222,0.21166 0.536221,0 0.917221,-0.11289 0.381,-0.11288 0.818444,-0.35277 l 0.395111,1.07244 q -0.451556,0.23989 -0.987777,0.381 -0.536222,0.14111 -1.227666,0.14111 -0.790222,0 -1.425221,-0.28222 -0.635,-0.28222 -1.086555,-0.79022 -0.451555,-0.508 -0.705555,-1.21356 -0.239889,-0.70555 -0.239889,-1.55222 0,-0.79022 0.239889,-1.48166 0.254,-0.70556 0.719666,-1.22767 0.465666,-0.52211 1.114777,-0.81844 0.663222,-0.31045 1.481666,-0.31045 0.634999,0 1.100665,0.11289 0.465667,0.11289 0.903111,0.32456 z"
       id="text1-3-70-3"
       style="font-size:14.1111px;line-height:1.25;font-family:ABeeZee;-inkscape-font-specification:ABeeZee;text-align:center;letter-spacing:0px;word-spacing:0px;text-anchor:middle;stroke:#000000;stroke-width:0"
       aria-label="Cc" />
    <path
       d="m 100.59812,100.88035 q 0,0.889 0.22577,1.62277 0.23989,0.71967 0.64911,1.24178 0.42334,0.52211 1.00189,0.80433 0.57856,0.28223 1.27,0.28223 0.69144,0 1.19944,-0.15523 0.508,-0.16933 0.98778,-0.45155 l 0.40922,1.11477 q -0.52211,0.28223 -1.19944,0.47978 -0.66322,0.18345 -1.55222,0.18345 -0.97367,0 -1.778,-0.35278 -0.79022,-0.35278 -1.36878,-1.00189 -0.578552,-0.66322 -0.903107,-1.59455 -0.310445,-0.94545 -0.310445,-2.11667 0,-1.128886 0.310445,-2.07433 0.324555,-0.945444 0.917217,-1.622777 0.59267,-0.691443 1.42523,-1.072443 0.84666,-0.381 1.87677,-0.381 0.71967,0 1.28411,0.141111 0.57856,0.127 1.08656,0.366889 l -0.40923,1.128888 q -0.43744,-0.211667 -0.90311,-0.338667 -0.45155,-0.127 -1.07244,-0.127 -0.67733,0 -1.25589,0.268111 -0.57855,0.254 -1.00189,0.762 -0.42333,0.507999 -0.66322,1.241777 -0.22577,0.719666 -0.22577,1.651001 z m 11.69809,-1.044224 q -0.40923,-0.197555 -0.762,-0.282222 -0.35278,-0.09878 -0.79023,-0.09878 -0.49388,0 -0.93133,0.183445 -0.42333,0.183444 -0.73378,0.536219 -0.31044,0.33867 -0.49388,0.83256 -0.16934,0.49389 -0.16934,1.12889 0,0.57855 0.15522,1.07244 0.16934,0.49389 0.46567,0.87489 0.29633,0.36689 0.70556,0.57855 0.40922,0.21167 0.91722,0.21167 0.53622,0 0.91722,-0.11289 0.381,-0.11289 0.81844,-0.35278 l 0.39511,1.07245 q -0.45155,0.23988 -0.98777,0.381 -0.53623,0.14111 -1.22767,0.14111 -0.79022,0 -1.42522,-0.28223 -0.635,-0.28222 -1.08655,-0.79022 -0.45156,-0.508 -0.70556,-1.21355 -0.23989,-0.70556 -0.23989,-1.55222 0,-0.79022 0.23989,-1.48167 0.254,-0.705553 0.71967,-1.227664 0.46566,-0.52211 1.11477,-0.818444 0.66322,-0.310444 1.48167,-0.310444 0.635,0 1.10066,0.112889 0.46567,0.112889 0.90311,0.324555 z"
       id="text1-3-6"
       style="font-size:14.1111px;line-height:1.25;font-family:ABeeZee;-inkscape-font-specification:ABeeZee;text-align:center;letter-spacing:0px;word-spacing:0px;text-anchor:middle;stroke:#000000;stroke-width:0"
       aria-label="Cc" />
  </g>
</svg>
