<?xml version="1.0" encoding="UTF-8" standalone="no"?>
<svg
   id="svg5272"
   viewBox="0 0 231.24843 245.99544"
   version="1.1"
   sodipodi:docname="blog.svg"
   inkscape:version="1.3.2 (091e20ef0f, 2023-11-25, custom)"
   width="231.24843"
   height="245.99544"
   xmlns:inkscape="http://www.inkscape.org/namespaces/inkscape"
   xmlns:sodipodi="http://sodipodi.sourceforge.net/DTD/sodipodi-0.dtd"
   xmlns:xlink="http://www.w3.org/1999/xlink"
   xmlns="http://www.w3.org/2000/svg"
   xmlns:svg="http://www.w3.org/2000/svg"
   xmlns:rdf="http://www.w3.org/1999/02/22-rdf-syntax-ns#"
   xmlns:cc="http://creativecommons.org/ns#"
   xmlns:dc="http://purl.org/dc/elements/1.1/">
  <sodipodi:namedview
     id="namedview1"
     pagecolor="#505050"
     bordercolor="#ffffff"
     borderopacity="1"
     inkscape:showpageshadow="0"
     inkscape:pageopacity="0"
     inkscape:pagecheckerboard="1"
     inkscape:deskcolor="#d1d1d1"
     inkscape:zoom="1.7703708"
     inkscape:cx="348.23213"
     inkscape:cy="35.585765"
     inkscape:current-layer="g6313" />
  <defs
     id="defs5274">
    <linearGradient
       id="linearGradient5891">
      <stop
         id="stop5893"
         stop-color="#ffb200"
         offset="0" />
      <stop
         id="stop5895"
         stop-color="#ff5200"
         offset="1" />
    </linearGradient>
    <linearGradient
       id="linearGradient5883">
      <stop
         id="stop5885"
         stop-color="#00aad4"
         offset="0" />
      <stop
         id="stop5887"
         stop-color="#0085a6"
         stop-opacity=".99107"
         offset="1" />
    </linearGradient>
    <linearGradient
       id="linearGradient5865">
      <stop
         id="stop5867"
         stop-color="#009bc2"
         offset="0" />
      <stop
         id="stop5869"
         stop-color="#0cf"
         offset="1" />
    </linearGradient>
    <filter
       id="filter6021"
       height="1.6890919"
       width="1.1363679"
       y="-0.34454594"
       x="-0.068183933"
       color-interpolation-filters="sRGB">
      <feGaussianBlur
         id="feGaussianBlur6023"
         stdDeviation="13.631673" />
    </filter>
    <linearGradient
       id="linearGradient6394"
       y2="1052.5"
       xlink:href="#linearGradient5891"
       gradientUnits="userSpaceOnUse"
       x2="171.34"
       y1="779.63"
       x1="175.7" />
    <linearGradient
       id="linearGradient6396"
       y2="428.56"
       xlink:href="#linearGradient5865"
       gradientUnits="userSpaceOnUse"
       x2="-25.643"
       y1="761.41998"
       x1="335.64001" />
    <linearGradient
       id="linearGradient6398"
       y2="591.35999"
       xlink:href="#linearGradient5891"
       gradientUnits="userSpaceOnUse"
       x2="43.958"
       y1="591.35999"
       x1="-112.14" />
    <linearGradient
       id="linearGradient6402"
       y2="795.53003"
       xlink:href="#linearGradient5883"
       gradientUnits="userSpaceOnUse"
       x2="290.97"
       y1="753.39001"
       x1="184.8" />
    <linearGradient
       id="linearGradient6404"
       y2="559.90002"
       xlink:href="#linearGradient5865"
       gradientUnits="userSpaceOnUse"
       x2="101.95"
       y1="511.14999"
       x1="91.004997" />
    <linearGradient
       id="linearGradient6406"
       y2="402.89999"
       xlink:href="#linearGradient5883"
       gradientUnits="userSpaceOnUse"
       x2="77.777"
       gradientTransform="matrix(1.4907,0,0,1.4907,-34.079,-205.58)"
       y1="402.89999"
       x1="23.108" />
    <linearGradient
       id="linearGradient6408"
       y2="402.89999"
       xlink:href="#linearGradient5883"
       gradientUnits="userSpaceOnUse"
       x2="77.777"
       gradientTransform="matrix(0.48511,0.64249,-0.64249,0.48511,318.52,176.58)"
       y1="402.89999"
       x1="23.108" />
    <linearGradient
       id="linearGradient6420"
       y2="402.89999"
       xlink:href="#linearGradient5883"
       gradientUnits="userSpaceOnUse"
       x2="77.777"
       gradientTransform="matrix(1.1713,0,0,1.1713,-10.109,-69.027)"
       y1="402.89999"
       x1="23.108" />
    <linearGradient
       id="linearGradient6424"
       y2="750.53003"
       xlink:href="#linearGradient5891"
       gradientUnits="userSpaceOnUse"
       x2="34.845001"
       y1="750.53003"
       x1="-139.89999" />
  </defs>
  <g
     id="layer1"
     transform="translate(-14.996734,-799.36702)">
    <g
       id="g6313"
       transform="matrix(0.31968,0,0,0.31968,101.61,687.13)">
      <g
         id="g1"
         transform="matrix(-1,0,0,1,181.49994,0)">
        <g
           id="g6236">
          <g
             id="g6197"
             transform="matrix(0.77641,0,0,0.77641,42.236,204.28)">
            <path
               id="path6019"
               opacity="0.63158"
               d="m 402.04,1084.7 c 0,26.221 -107.41,47.477 -239.91,47.477 -132.5,0 -239.91,-21.256 -239.91,-47.477 0,-26.221 107.41,-47.477 239.91,-47.477 132.5,0 239.91,21.256 239.91,47.477 z"
               transform="matrix(1.1116,0,0,1.0714,8.6788,-67.869)"
               filter="url(#filter6021)"
               fill="#93aca7" />
            <path
               id="path5325"
               d="m 136.88,872.97 a 10.001,10.001 0 0 0 -8.125,4.5625 c 0,0 -54.197,83.015 -5.0938,171.34 -12.985,0.4866 -30.095,1.117 -48.969,1.7188 -17.217,0.5489 -34.644,1.0545 -48.125,1.2812 -6.7405,0.1133 -12.48,0.1643 -16.656,0.125 -2.0879,-0.02 -3.8061,-0.068 -4.9375,-0.125 -1.1314,-0.057 -2.4032,-0.4595 -0.46875,0.094 a 10.001,10.001 0 1 0 -5.5,19.219 c 2.793,0.7984 3.3752,0.5762 4.9688,0.6563 1.5936,0.08 3.5025,0.1351 5.75,0.1562 4.4951,0.042 10.351,-0.01 17.188,-0.125 4.7389,-0.08 10.042,-0.2082 15.531,-0.3438 -5.0954,1.1736 -10.013,2.3031 -14.406,3.2813 -6.5803,1.4651 -12.214,2.6684 -16.312,3.4687 -2.0493,0.4004 -3.724,0.7034 -4.8438,0.875 -1.1197,0.1718 -2.4435,0.035 -0.4375,0.1876 a 10.001,10.001 0 1 0 -1.5312,19.937 c 2.8963,0.2211 3.4228,-0.102 5,-0.3437 1.5772,-0.2417 3.4503,-0.6004 5.6562,-1.0313 4.4119,-0.8615 10.139,-2.0766 16.812,-3.5624 10.358,-2.3064 23.062,-5.2786 36.031,-8.3438 -11.654,6.0281 -23.063,11.897 -32.312,16.531 -6.0272,3.02 -11.187,5.5716 -14.969,7.3438 -1.8906,0.8861 -3.4555,1.5615 -4.5,2 -1.0445,0.4385 -2.3582,0.6203 -0.375,0.2812 a 10.003,10.003 0 1 0 3.375,19.719 c 2.8633,-0.4893 3.2788,-0.9448 4.75,-1.5625 1.4712,-0.6177 3.2148,-1.39 5.25,-2.3437 4.0704,-1.9078 9.3248,-4.4996 15.438,-7.5626 12.225,-6.1256 27.795,-14.122 43.125,-22.094 25.59,-13.308 46.666,-24.464 54.219,-28.469 a 10.001,10.001 0 0 0 8.5938,-5.0313 10.001,10.001 0 0 0 -2.375,-15.969 10.001,10.001 0 0 0 -0.15625,-0.094 10.001,10.001 0 0 0 -0.15625,-0.062 10.001,10.001 0 0 0 -1.9688,-0.7813 c -53.01,-82.266 -0.9375,-159.31 -0.9375,-159.31 a 10.001,10.001 0 0 0 -8.5312,-15.625 z m 98.75,0 a 10.001,10.001 0 0 0 -8.25,15.625 c 0,0 52.073,77.046 -0.9375,159.31 a 10.001,10.001 0 0 0 -2.7812,1.25 10.001,10.001 0 0 0 -2.0312,15.406 10.001,10.001 0 0 0 1.625,1.5625 10.005,10.005 0 0 0 6.4062,3.3125 c 6.865,3.6414 28.761,15.246 54.969,28.875 15.33,7.9722 30.868,15.968 43.094,22.094 6.1127,3.0629 11.398,5.6547 15.469,7.5626 2.0352,0.9538 3.7476,1.726 5.2188,2.3437 1.4712,0.6177 1.9179,1.0732 4.7812,1.5625 a 10.003,10.003 0 1 0 3.375,-19.719 c 1.9832,0.339 0.63824,0.1573 -0.40625,-0.2812 -1.04449,-0.4385 -2.5781,-1.1139 -4.4688,-2 -3.7813,-1.7722 -8.9728,-4.3237 -15,-7.3438 -9.2492,-4.6343 -20.659,-10.503 -32.312,-16.531 12.97,3.0652 25.673,6.0374 36.031,8.3438 6.6737,1.4858 12.432,2.7008 16.844,3.5624 2.206,0.431 4.0478,0.7896 5.625,1.0313 1.5772,0.2417 2.1037,0.5648 5,0.3437 a 10.001,10.001 0 1 0 -1.5,-19.937 c 2.006,-0.1531 0.651,-0.016 -0.46875,-0.1876 -1.1198,-0.1715 -2.7945,-0.4746 -4.8438,-0.875 -4.0986,-0.8004 -9.7322,-2.0036 -16.312,-3.4687 -4.3932,-0.9782 -9.3155,-2.1077 -14.406,-3.2813 5.5003,0.1359 10.815,0.264 15.562,0.3438 6.8362,0.1149 12.692,0.1673 17.188,0.125 2.2475,-0.021 4.1564,-0.076 5.75,-0.1562 1.5936,-0.08 2.1758,0.1421 4.9688,-0.6563 a 10.001,10.001 0 0 0 -4.8438,-19.406 c 0.0382,-0.02 -0.43165,0.057 -1.1562,0.094 -1.1314,0.057 -2.8184,0.1054 -4.9062,0.125 -4.1758,0.039 -9.947,-0.012 -16.688,-0.125 -13.481,-0.2267 -30.908,-0.7323 -48.125,-1.2812 -18.849,-0.601 -35.964,-1.2011 -48.938,-1.6876 49.123,-88.337 -5.125,-171.37 -5.125,-171.37 a 10.001,10.001 0 0 0 -8.4062,-4.5625 z"
               style="color:#000000;text-indent:0;text-transform:none;fill:url(#linearGradient6394)"
               fill="url(#linearGradient6394)" />
            <path
               id="path6005"
               d="m 118.12,898.48 -1.6964,4.1964 c 0,0 6.4286,5.6696 19.196,4.4196 l 2.7679,-5.8036 z"
               fill="#d66c0b" />
            <path
               id="path6007"
               d="m 255.45,900.44 1.6964,4.1964 c 0,0 -6.4286,5.6696 -19.196,4.4196 l -2.7679,-5.8036 z"
               fill="#d66c0b" />
          </g>
          <path
             id="path5280"
             d="m -67.143,586.57 c 0,0 -2.8571,-167.53 160,-167.53 125.05,0 127.97,120.46 129.05,189.34 31.279,135.03 207.78,18.526 228.09,-13.634 0,0 45.714,311.91 -258.57,311.91 -304.29,0 -258.57,-320.08 -258.57,-320.08 z"
             fill="url(#linearGradient6396)"
             style="fill:url(#linearGradient6396)" />
          <g
             id="g5857"
             transform="translate(-28.284)">
            <path
               id="path5286"
               d="m -112.14,508.08 c 0,0 97.143,-23.571 155.71,67.857 58.567,91.428 11.429,69.286 -90,101.43 0,0 23.571,-44.286 20.714,-80 0,0 -24.286,-56.429 -86.429,-89.286 z"
               fill="url(#linearGradient6398)"
               style="fill:url(#linearGradient6398)" />
            <path
               id="path5288"
               d="m -90.468,515.64 c 0,0 44.935,-5.0019 107.7,66.694 62.765,71.6959 0.74863,50.85 -54.11,87.216 0,0 19.223,-40.263 16.893,-72.734 0,0 -19.805,-51.303 -70.483,-81.176 z"
               fill="#aa4400" />
            <path
               id="path5290"
               d="m -3.0625,561.09 c -7.0127,5.0213 -11.594,13.248 -11.594,22.531 0,14.65 11.41,26.62 25.812,27.594 6.2413,-16.692 6.0625,-28.875 6.0625,-28.875 -7.0033,-7.9998 -13.76,-15.046 -20.281,-21.25 z"
               fill="#552200" />
            <path
               id="path5292"
               d="m 2.6562,592.34 c -2.7598,0.10242 -5.5625,0.67969 -8.375,1.8125 -25.714,10.357 -20,61.062 -20,61.062 0,0 7.2806,-13.513 22.562,-17.5 11.89,-16.38 16.854,-32.127 18.906,-42.625 -4.1771,-1.837 -8.5854,-2.9173 -13.094,-2.75 z"
               fill="#ff0000" />
          </g>
          <path
             id="path6009"
             d="m 174.54,814.27 c 0,0 108.99,70.049 187.76,-22.634 78.77,-92.683 -122.93,5.8828 -137.42,-64.12 z"
             fill="#2c89a0" />
          <path
             id="path5282"
             d="m 171.73,813.76 c 0,0 116.66,64.696 187.32,-34.32 70.66,-99.016 -115.01,5.6337 -135.37,-62.893 z"
             fill="url(#linearGradient6402)"
             style="fill:url(#linearGradient6402)" />
          <path
             id="path5317"
             transform="matrix(1.6477,0,0,1.6477,-64.937,-346.14)"
             fill="url(#linearGradient6404)"
             d="m 123.24,534.41 c 0,12.692 -10.289,22.981 -22.981,22.981 -12.692,0 -22.981,-10.289 -22.981,-22.981 0,-12.692 10.289,-22.981 22.981,-22.981 12.692,0 22.981,10.289 22.981,22.981 z"
             style="fill:url(#linearGradient6404)" />
          <path
             id="path5319"
             d="m 123.24,534.41 c 0,12.692 -10.289,22.981 -22.981,22.981 -12.692,0 -22.981,-10.289 -22.981,-22.981 0,-12.692 10.289,-22.981 22.981,-22.981 12.692,0 22.981,10.289 22.981,22.981 z"
             transform="matrix(1.321,0,0,1.321,-32.183,-171.55)" />
          <path
             id="path5321"
             transform="matrix(0.52556,0,0,0.52556,54.748,239.18)"
             fill="#ffffff"
             d="m 123.24,534.41 c 0,12.692 -10.289,22.981 -22.981,22.981 -12.692,0 -22.981,-10.289 -22.981,-22.981 0,-12.692 10.289,-22.981 22.981,-22.981 12.692,0 22.981,10.289 22.981,22.981 z" />
          <path
             id="path5323"
             transform="matrix(0.3409,0,0,0.3409,85.992,350.59)"
             fill="#ffffff"
             d="m 123.24,534.41 c 0,12.692 -10.289,22.981 -22.981,22.981 -12.692,0 -22.981,-10.289 -22.981,-22.981 0,-12.692 10.289,-22.981 22.981,-22.981 12.692,0 22.981,10.289 22.981,22.981 z" />
          <path
             id="path5907"
             d="m 10.345,376.87 c 0,0 61.365,22.965 70.776,62.118 9.411,39.153 -1.8824,-50.823 -33.882,-77.176 -31.9996,-26.353 -61.741,2.6353 -36.894,15.059 z"
             fill="url(#linearGradient6406)"
             style="fill:url(#linearGradient6406)" />
          <path
             id="path5917"
             d="m 81.944,385.27 c 0,0 10.072,33.92 -3.7397,50.717 -13.8117,16.797 21.291,-17.35 22.236,-39.717 0.94431,-22.367 -21.227,-25.752 -18.496,-11 z"
             fill="url(#linearGradient6408)"
             style="fill:url(#linearGradient6408)" />
        </g>
        <g
           id="g6227"
           transform="matrix(0.14411,0.04424,-0.058633,0.191,-134.62,328.88)"
           fill="#00222b">
          <rect
             id="rect6207"
             ry="3.4093001"
             height="123.24"
             width="472.75"
             y="1234.2"
             x="-14.142" />
          <g
             id="g6217">
            <path
               id="path6209"
               d="m -105.06,1691.8 c 0,60.81 -39.799,110.11 -88.893,110.11 -49.094,0 -88.893,-49.296 -88.893,-110.11 0,-60.81 39.799,-110.11 88.893,-110.11 49.094,0 88.893,49.296 88.893,110.11 z"
               transform="matrix(0.64623,0.76314,-0.76314,0.64623,1256.8,700.05)" />
            <path
               id="path6211"
               style="color:#000000;text-indent:0;text-transform:none"
               d="m 16.794,1308.1 -31.906,2.7188 c 0,0 7.1255,84.198 -6.5,175.66 -6.8128,45.729 -18.898,93.053 -38.875,131.81 -19.977,38.759 -47.2,68.545 -85.187,82.781 l 11.219,29.938 c 47.092,-17.648 80.012,-54.612 102.41,-98.062 22.395,-43.451 34.92,-93.808 42.062,-141.75 14.285,-95.884 6.7812,-183.09 6.7812,-183.09 z" />
          </g>
          <g
             id="g6221"
             transform="translate(440.43,16.162)">
            <path
               id="path6223"
               d="m -105.06,1691.8 c 0,60.81 -39.799,110.11 -88.893,110.11 -49.094,0 -88.893,-49.296 -88.893,-110.11 0,-60.81 39.799,-110.11 88.893,-110.11 49.094,0 88.893,49.296 88.893,110.11 z"
               transform="matrix(0.64623,0.76314,-0.76314,0.64623,1256.8,700.05)" />
            <path
               id="path6225"
               style="color:#000000;text-indent:0;text-transform:none"
               d="m 16.794,1308.1 -31.906,2.7188 c 0,0 7.1255,84.198 -6.5,175.66 -6.8128,45.729 -18.898,93.053 -38.875,131.81 -19.977,38.759 -47.2,68.545 -85.187,82.781 l 11.219,29.938 c 47.092,-17.648 80.012,-54.612 102.41,-98.062 22.395,-43.451 34.92,-93.808 42.062,-141.75 14.285,-95.884 6.7812,-183.09 6.7812,-183.09 z" />
          </g>
        </g>
      </g>
    </g>
  </g>
  <metadata
     id="metadata1">
    <rdf:RDF>
      <cc:Work>
        <dc:format>image/svg+xml</dc:format>
        <dc:type
           rdf:resource="http://purl.org/dc/dcmitype/StillImage" />
        <cc:license
           rdf:resource="http://creativecommons.org/publicdomain/zero/1.0/" />
        <dc:publisher>
          <cc:Agent
             rdf:about="http://openclipart.org/">
            <dc:title>Openclipart</dc:title>
          </cc:Agent>
        </dc:publisher>
        <dc:title>Bird Mascot</dc:title>
        <dc:date>2010-07-04T20:25:24</dc:date>
        <dc:description>Twitter Mascot Version</dc:description>
        <dc:source>https://openclipart.org/detail/70159/twitter-bird-mascot-by-evandrodesouza</dc:source>
        <dc:creator>
          <cc:Agent>
            <dc:title>evandrodesouza</dc:title>
          </cc:Agent>
        </dc:creator>
        <dc:subject>
          <rdf:Bag>
            <rdf:li>animal</rdf:li>
            <rdf:li>bird</rdf:li>
            <rdf:li>blue</rdf:li>
            <rdf:li>cartoon</rdf:li>
            <rdf:li>draw</rdf:li>
            <rdf:li>icon</rdf:li>
            <rdf:li>logo</rdf:li>
            <rdf:li>mascot</rdf:li>
            <rdf:li>symbol</rdf:li>
            <rdf:li>tweet</rdf:li>
            <rdf:li>twitter</rdf:li>
            <rdf:li>web</rdf:li>
          </rdf:Bag>
        </dc:subject>
      </cc:Work>
      <cc:License
         rdf:about="http://creativecommons.org/publicdomain/zero/1.0/">
        <cc:permits
           rdf:resource="http://creativecommons.org/ns#Reproduction" />
        <cc:permits
           rdf:resource="http://creativecommons.org/ns#Distribution" />
        <cc:permits
           rdf:resource="http://creativecommons.org/ns#DerivativeWorks" />
      </cc:License>
    </rdf:RDF>
  </metadata>
  <text
     xml:space="preserve"
     style="font-size:16px;line-height:1.25;font-family:ABeeZee;-inkscape-font-specification:ABeeZee;text-decoration:none;text-decoration-line:none;text-decoration-color:#000000;letter-spacing:0px;word-spacing:0px;fill:#000000;stroke:#000000;stroke-width:0;stroke-linecap:butt;stroke-linejoin:miter;stroke-opacity:1;stop-color:#000000"
     x="0.62303913"
     y="-68.16391"
     id="text1"><tspan
       sodipodi:role="line"
       id="tspan1"
       x="0.62303913"
       y="-68.16391">https://openclipart.org/detail/70159/bird-mascot</tspan></text>
</svg>
