<?xml version="1.0" encoding="UTF-8" standalone="no"?>
<!-- Created with Inkscape (http://www.inkscape.org/) -->

<svg
   width="562.25543"
   height="709.79504"
   id="svg4825"
   version="1.1"
   inkscape:version="1.3 (0e150ed6c4, 2023-07-21)"
   sodipodi:docname="Cipygeek.svg"
   xmlns:inkscape="http://www.inkscape.org/namespaces/inkscape"
   xmlns:sodipodi="http://sodipodi.sourceforge.net/DTD/sodipodi-0.dtd"
   xmlns:xlink="http://www.w3.org/1999/xlink"
   xmlns="http://www.w3.org/2000/svg"
   xmlns:svg="http://www.w3.org/2000/svg"
   xmlns:rdf="http://www.w3.org/1999/02/22-rdf-syntax-ns#"
   xmlns:cc="http://creativecommons.org/ns#"
   xmlns:dc="http://purl.org/dc/elements/1.1/">
  <defs
     id="defs4827">
    <linearGradient
       inkscape:collect="always"
       xlink:href="#linearGradient3785"
       id="linearGradient4514"
       gradientUnits="userSpaceOnUse"
       x1="356.40964"
       y1="104.41735"
       x2="288.22116"
       y2="102.45306"
       gradientTransform="matrix(1.0510473,0.3224562,-0.24738447,1.3699999,29.329009,-28.848184)" />
    <linearGradient
       id="linearGradient3785">
      <stop
         style="stop-color:#ff9900;stop-opacity:1;"
         offset="0"
         id="stop3787" />
      <stop
         style="stop-color:#ffffff;stop-opacity:1;"
         offset="1"
         id="stop3789" />
    </linearGradient>
    <linearGradient
       inkscape:collect="always"
       xlink:href="#linearGradient3785"
       id="linearGradient4399"
       gradientUnits="userSpaceOnUse"
       x1="365.11295"
       y1="127.82292"
       x2="313.37445"
       y2="126.4492" />
    <linearGradient
       id="linearGradient4608">
      <stop
         style="stop-color:#ff9900;stop-opacity:1;"
         offset="0"
         id="stop4610" />
      <stop
         style="stop-color:#ffffff;stop-opacity:1;"
         offset="1"
         id="stop4612" />
    </linearGradient>
    <linearGradient
       inkscape:collect="always"
       xlink:href="#linearGradient4268"
       id="linearGradient4197"
       gradientUnits="userSpaceOnUse"
       gradientTransform="translate(-7.6711127,-131.53371)"
       x1="337.19406"
       y1="682.37433"
       x2="323.78152"
       y2="719.49744" />
    <linearGradient
       id="linearGradient4268">
      <stop
         style="stop-color:#ffffff;stop-opacity:1;"
         offset="0"
         id="stop4270" />
      <stop
         style="stop-color:#cecece;stop-opacity:1;"
         offset="1"
         id="stop4272" />
    </linearGradient>
    <linearGradient
       inkscape:collect="always"
       xlink:href="#linearGradient3785"
       id="linearGradient4521"
       gradientUnits="userSpaceOnUse"
       x1="532.61163"
       y1="515.01868"
       x2="462.27725"
       y2="446.07578"
       gradientTransform="matrix(1.2958598,-0.32437863,0.48754022,1.2485752,-661.49515,75.648446)" />
    <linearGradient
       id="linearGradient4619">
      <stop
         style="stop-color:#ff9900;stop-opacity:1;"
         offset="0"
         id="stop4621" />
      <stop
         style="stop-color:#ffffff;stop-opacity:1;"
         offset="1"
         id="stop4623" />
    </linearGradient>
    <linearGradient
       inkscape:collect="always"
       xlink:href="#linearGradient4268"
       id="linearGradient4287"
       x1="617.03015"
       y1="566.2713"
       x2="546.47729"
       y2="607.1825"
       gradientUnits="userSpaceOnUse"
       gradientTransform="translate(-6.6040627,-134.3488)" />
    <linearGradient
       id="linearGradient4626">
      <stop
         style="stop-color:#ffffff;stop-opacity:1;"
         offset="0"
         id="stop4628" />
      <stop
         style="stop-color:#cecece;stop-opacity:1;"
         offset="1"
         id="stop4630" />
    </linearGradient>
    <linearGradient
       inkscape:collect="always"
       xlink:href="#linearGradient4268"
       id="linearGradient4289"
       x1="520.44366"
       y1="606.35565"
       x2="521.37878"
       y2="615.69952"
       gradientUnits="userSpaceOnUse"
       gradientTransform="translate(-6.6040627,-134.3488)" />
    <linearGradient
       id="linearGradient4633">
      <stop
         style="stop-color:#ffffff;stop-opacity:1;"
         offset="0"
         id="stop4635" />
      <stop
         style="stop-color:#cecece;stop-opacity:1;"
         offset="1"
         id="stop4637" />
    </linearGradient>
    <linearGradient
       inkscape:collect="always"
       xlink:href="#linearGradient4268"
       id="linearGradient4291"
       x1="388.9502"
       y1="590.44556"
       x2="494.76254"
       y2="613.67908"
       gradientUnits="userSpaceOnUse"
       gradientTransform="translate(-6.6040627,-134.3488)" />
    <linearGradient
       id="linearGradient4640">
      <stop
         style="stop-color:#ffffff;stop-opacity:1;"
         offset="0"
         id="stop4642" />
      <stop
         style="stop-color:#cecece;stop-opacity:1;"
         offset="1"
         id="stop4644" />
    </linearGradient>
    <linearGradient
       inkscape:collect="always"
       xlink:href="#linearGradient4265"
       id="linearGradient4279"
       x1="548.1875"
       y1="674.56213"
       x2="651.21271"
       y2="674.56213"
       gradientUnits="userSpaceOnUse"
       gradientTransform="translate(-6.6040627,-134.3488)" />
    <linearGradient
       id="linearGradient4265">
      <stop
         style="stop-color:#008000;stop-opacity:1;"
         offset="0"
         id="stop4267" />
      <stop
         style="stop-color:#62b862;stop-opacity:1;"
         offset="1"
         id="stop4269" />
    </linearGradient>
    <linearGradient
       inkscape:collect="always"
       xlink:href="#linearGradient4265"
       id="linearGradient4271"
       x1="365.875"
       y1="693.92981"
       x2="533.44592"
       y2="702.01105"
       gradientUnits="userSpaceOnUse"
       gradientTransform="translate(-6.6040627,-134.3488)" />
    <linearGradient
       id="linearGradient4651">
      <stop
         style="stop-color:#008000;stop-opacity:1;"
         offset="0"
         id="stop4653" />
      <stop
         style="stop-color:#62b862;stop-opacity:1;"
         offset="1"
         id="stop4655" />
    </linearGradient>
    <linearGradient
       inkscape:collect="always"
       xlink:href="#linearGradient4268"
       id="linearGradient4526"
       gradientUnits="userSpaceOnUse"
       gradientTransform="translate(-7.0705627,-135.14463)"
       x1="572.66656"
       y1="516.37677"
       x2="572.24774"
       y2="535.31714" />
    <linearGradient
       id="linearGradient4658">
      <stop
         style="stop-color:#ffffff;stop-opacity:1;"
         offset="0"
         id="stop4660" />
      <stop
         style="stop-color:#cecece;stop-opacity:1;"
         offset="1"
         id="stop4662" />
    </linearGradient>
    <linearGradient
       inkscape:collect="always"
       xlink:href="#linearGradient4268"
       id="linearGradient4529"
       gradientUnits="userSpaceOnUse"
       gradientTransform="translate(-7.0705627,-135.14463)"
       x1="533.51654"
       y1="532.008"
       x2="537.04114"
       y2="576.95978" />
    <linearGradient
       id="linearGradient4665">
      <stop
         style="stop-color:#ffffff;stop-opacity:1;"
         offset="0"
         id="stop4667" />
      <stop
         style="stop-color:#cecece;stop-opacity:1;"
         offset="1"
         id="stop4669" />
    </linearGradient>
    <linearGradient
       inkscape:collect="always"
       xlink:href="#linearGradient3997"
       id="linearGradient4047"
       gradientUnits="userSpaceOnUse"
       x1="424.27991"
       y1="419.02753"
       x2="425.00781"
       y2="534.15967" />
    <linearGradient
       inkscape:collect="always"
       id="linearGradient3997">
      <stop
         style="stop-color:#feffff;stop-opacity:1;"
         offset="0"
         id="stop3999" />
      <stop
         style="stop-color:#feffff;stop-opacity:0;"
         offset="1"
         id="stop4001" />
    </linearGradient>
    <linearGradient
       inkscape:collect="always"
       xlink:href="#linearGradient4014"
       id="linearGradient4534"
       gradientUnits="userSpaceOnUse"
       x1="624.73492"
       y1="29.458651"
       x2="627.20197"
       y2="147.14142"
       gradientTransform="translate(-137.64395,243.62218)" />
    <linearGradient
       id="linearGradient4014">
      <stop
         style="stop-color:#a1e2f9;stop-opacity:1;"
         offset="0"
         id="stop4016" />
      <stop
         id="stop4022"
         offset="0.5"
         style="stop-color:#a1e2f9;stop-opacity:0;" />
      <stop
         style="stop-color:#a1e2f9;stop-opacity:1;"
         offset="1"
         id="stop4018" />
    </linearGradient>
    <linearGradient
       inkscape:collect="always"
       xlink:href="#linearGradient3997"
       id="linearGradient4043"
       gradientUnits="userSpaceOnUse"
       x1="422.25912"
       y1="416.11279"
       x2="423.99741"
       y2="538.04602" />
    <linearGradient
       inkscape:collect="always"
       xlink:href="#linearGradient4014"
       id="linearGradient4539"
       gradientUnits="userSpaceOnUse"
       x1="501.74588"
       y1="39.301609"
       x2="502.19263"
       y2="149.91331"
       gradientTransform="translate(-137.64395,243.62218)" />
    <linearGradient
       id="linearGradient4688">
      <stop
         style="stop-color:#a1e2f9;stop-opacity:1;"
         offset="0"
         id="stop4690" />
      <stop
         id="stop4692"
         offset="0.5"
         style="stop-color:#a1e2f9;stop-opacity:0;" />
      <stop
         style="stop-color:#a1e2f9;stop-opacity:1;"
         offset="1"
         id="stop4694" />
    </linearGradient>
    <linearGradient
       inkscape:collect="always"
       xlink:href="#linearGradient3857"
       id="linearGradient4385"
       gradientUnits="userSpaceOnUse"
       x1="289.55499"
       y1="526.77795"
       x2="287.06577"
       y2="466.30676" />
    <linearGradient
       id="linearGradient3857">
      <stop
         style="stop-color:#0000ff;stop-opacity:1;"
         offset="0"
         id="stop3859" />
      <stop
         style="stop-color:#000000;stop-opacity:0;"
         offset="1"
         id="stop3861" />
    </linearGradient>
    <linearGradient
       inkscape:collect="always"
       xlink:href="#linearGradient3857"
       id="linearGradient4375"
       gradientUnits="userSpaceOnUse"
       x1="289.55499"
       y1="526.77795"
       x2="287.06577"
       y2="466.30676" />
    <linearGradient
       id="linearGradient4701">
      <stop
         style="stop-color:#0000ff;stop-opacity:1;"
         offset="0"
         id="stop4703" />
      <stop
         style="stop-color:#000000;stop-opacity:0;"
         offset="1"
         id="stop4705" />
    </linearGradient>
    <linearGradient
       inkscape:collect="always"
       xlink:href="#linearGradient3785"
       id="linearGradient4449"
       gradientUnits="userSpaceOnUse"
       x1="475.32288"
       y1="482.37473"
       x2="457.71649"
       y2="436.65485" />
    <linearGradient
       id="linearGradient4708">
      <stop
         style="stop-color:#ff9900;stop-opacity:1;"
         offset="0"
         id="stop4710" />
      <stop
         style="stop-color:#ffffff;stop-opacity:1;"
         offset="1"
         id="stop4712" />
    </linearGradient>
    <linearGradient
       inkscape:collect="always"
       xlink:href="#linearGradient3785"
       id="linearGradient4553"
       gradientUnits="userSpaceOnUse"
       x1="532.61163"
       y1="515.01868"
       x2="462.27725"
       y2="446.07578"
       gradientTransform="matrix(0.11533102,1.3309425,-1.3479343,0.11387718,796.00316,-316.64285)" />
    <linearGradient
       id="linearGradient4715">
      <stop
         style="stop-color:#ff9900;stop-opacity:1;"
         offset="0"
         id="stop4717" />
      <stop
         style="stop-color:#ffffff;stop-opacity:1;"
         offset="1"
         id="stop4719" />
    </linearGradient>
    <linearGradient
       inkscape:collect="always"
       xlink:href="#linearGradient3785"
       id="linearGradient4479"
       gradientUnits="userSpaceOnUse"
       x1="475.32288"
       y1="482.37473"
       x2="457.71649"
       y2="436.65485" />
    <linearGradient
       id="linearGradient4722">
      <stop
         style="stop-color:#ff9900;stop-opacity:1;"
         offset="0"
         id="stop4724" />
      <stop
         style="stop-color:#ffffff;stop-opacity:1;"
         offset="1"
         id="stop4726" />
    </linearGradient>
    <linearGradient
       inkscape:collect="always"
       xlink:href="#linearGradient4011"
       id="linearGradient4482"
       gradientUnits="userSpaceOnUse"
       gradientTransform="matrix(1.0706372,0.28125843,-0.26540456,1.1345914,147.38087,-322.87769)"
       x1="343.07144"
       y1="796.06476"
       x2="419.02679"
       y2="771.06476" />
    <linearGradient
       id="linearGradient4011">
      <stop
         style="stop-color:#969696;stop-opacity:1;"
         offset="0"
         id="stop4013" />
      <stop
         style="stop-color:#5a5a5a;stop-opacity:1;"
         offset="1"
         id="stop4015" />
    </linearGradient>
    <linearGradient
       inkscape:collect="always"
       xlink:href="#linearGradient3991"
       id="linearGradient4485"
       gradientUnits="userSpaceOnUse"
       gradientTransform="matrix(1.0706372,0.28125843,-0.26540456,1.1345914,147.38087,-322.87769)"
       x1="299.75"
       y1="756.40955"
       x2="273.39731"
       y2="644.98102" />
    <linearGradient
       id="linearGradient3991">
      <stop
         style="stop-color:#3366ff;stop-opacity:1;"
         offset="0"
         id="stop3993" />
      <stop
         style="stop-color:#ffffff;stop-opacity:1;"
         offset="1"
         id="stop3995" />
    </linearGradient>
    <linearGradient
       inkscape:collect="always"
       xlink:href="#linearGradient3966"
       id="linearGradient4488"
       gradientUnits="userSpaceOnUse"
       gradientTransform="matrix(1.0706372,0.28125843,-0.26540456,1.1345914,147.38087,-322.87769)"
       x1="181.86549"
       y1="532.22729"
       x2="240.01822"
       y2="436.26279" />
    <linearGradient
       id="linearGradient3966">
      <stop
         style="stop-color:#9cdafb;stop-opacity:1;"
         offset="0"
         id="stop3968" />
      <stop
         style="stop-color:#ffffff;stop-opacity:1;"
         offset="1"
         id="stop3970" />
    </linearGradient>
    <linearGradient
       inkscape:collect="always"
       xlink:href="#linearGradient3946"
       id="linearGradient4491"
       gradientUnits="userSpaceOnUse"
       gradientTransform="matrix(1.0706372,0.28125843,-0.26540456,1.1345914,147.38087,-322.87769)"
       x1="363.65851"
       y1="474.67557"
       x2="475.70157"
       y2="435.2796" />
    <linearGradient
       id="linearGradient3946">
      <stop
         style="stop-color:#9cdafb;stop-opacity:1;"
         offset="0"
         id="stop3948" />
      <stop
         style="stop-color:#1aa9f6;stop-opacity:1;"
         offset="1"
         id="stop3950" />
    </linearGradient>
    <linearGradient
       inkscape:collect="always"
       xlink:href="#linearGradient3933"
       id="linearGradient4494"
       gradientUnits="userSpaceOnUse"
       gradientTransform="matrix(1.0706372,0.28125843,-0.26540456,1.1345914,147.38087,-322.87769)"
       x1="375.05139"
       y1="587.9411"
       x2="385.1897"
       y2="521.77252" />
    <linearGradient
       id="linearGradient3933">
      <stop
         style="stop-color:#ff9900;stop-opacity:1;"
         offset="0"
         id="stop3935" />
      <stop
         style="stop-color:#8d5500;stop-opacity:1;"
         offset="1"
         id="stop3937" />
    </linearGradient>
    <linearGradient
       inkscape:collect="always"
       xlink:href="#linearGradient3914"
       id="linearGradient4497"
       gradientUnits="userSpaceOnUse"
       gradientTransform="matrix(1.0706372,0.28125843,-0.26540456,1.1345914,147.38087,-322.87769)"
       x1="362.79047"
       y1="690.60773"
       x2="438.36722"
       y2="604.74475" />
    <linearGradient
       id="linearGradient3914">
      <stop
         style="stop-color:#3366ff;stop-opacity:1;"
         offset="0"
         id="stop3916" />
      <stop
         style="stop-color:#00279c;stop-opacity:1;"
         offset="1"
         id="stop3918" />
    </linearGradient>
    <linearGradient
       inkscape:collect="always"
       xlink:href="#linearGradient4183"
       id="linearGradient4508"
       gradientUnits="userSpaceOnUse"
       x1="397.6665"
       y1="972.90173"
       x2="366.4501"
       y2="816.83032"
       gradientTransform="matrix(1.0746554,0.13206338,-0.13405693,1.0586744,35.928338,-224.79332)" />
    <linearGradient
       inkscape:collect="always"
       id="linearGradient4183">
      <stop
         style="stop-color:#000000;stop-opacity:1;"
         offset="0"
         id="stop4185" />
      <stop
         style="stop-color:#000000;stop-opacity:0;"
         offset="1"
         id="stop4187" />
    </linearGradient>
    <linearGradient
       inkscape:collect="always"
       xlink:href="#linearGradient4167"
       id="linearGradient4505"
       gradientUnits="userSpaceOnUse"
       gradientTransform="matrix(1.1667649,0.14338262,-0.14554704,1.1494141,8.2842633,-303.86171)"
       x1="402.37152"
       y1="915.92322"
       x2="384.4075"
       y2="806.28033" />
    <linearGradient
       inkscape:collect="always"
       id="linearGradient4167">
      <stop
         style="stop-color:#ffff00;stop-opacity:1;"
         offset="0"
         id="stop4169" />
      <stop
         style="stop-color:#ffff00;stop-opacity:0;"
         offset="1"
         id="stop4171" />
    </linearGradient>
    <linearGradient
       inkscape:collect="always"
       xlink:href="#linearGradient4159"
       id="linearGradient4511"
       gradientUnits="userSpaceOnUse"
       x1="377.17279"
       y1="987.5235"
       x2="372.08328"
       y2="827.16638"
       gradientTransform="matrix(1.0746554,0.13206338,-0.13405693,1.0586744,52.633931,117.6469)" />
    <linearGradient
       inkscape:collect="always"
       id="linearGradient4159">
      <stop
         style="stop-color:#ff0000;stop-opacity:1;"
         offset="0"
         id="stop4161" />
      <stop
         style="stop-color:#ff0000;stop-opacity:0;"
         offset="1"
         id="stop4163" />
    </linearGradient>
    <linearGradient
       y2="827.16638"
       x2="372.08328"
       y1="987.5235"
       x1="377.17279"
       gradientTransform="matrix(1.0746554,0.13206338,-0.13405693,1.0586744,35.928338,-224.79332)"
       gradientUnits="userSpaceOnUse"
       id="linearGradient4823"
       xlink:href="#linearGradient4159"
       inkscape:collect="always" />
  </defs>
  <sodipodi:namedview
     id="base"
     pagecolor="#ffffff"
     bordercolor="#666666"
     borderopacity="1.0"
     inkscape:pageopacity="0.0"
     inkscape:pageshadow="2"
     inkscape:zoom="0.98665698"
     inkscape:cx="309.63142"
     inkscape:cy="341.05065"
     inkscape:document-units="px"
     inkscape:current-layer="layer1"
     showgrid="false"
     fit-margin-top="0"
     fit-margin-left="0"
     fit-margin-right="0"
     fit-margin-bottom="0"
     inkscape:window-width="1871"
     inkscape:window-height="1056"
     inkscape:window-x="49"
     inkscape:window-y="24"
     inkscape:window-maximized="1"
     inkscape:showpageshadow="0"
     inkscape:pagecheckerboard="1"
     inkscape:deskcolor="#d1d1d1" />
  <metadata
     id="metadata4830">
    <rdf:RDF>
      <cc:Work
         rdf:about="">
        <dc:format>image/svg+xml</dc:format>
        <dc:type
           rdf:resource="http://purl.org/dc/dcmitype/StillImage" />
        <dc:title />
      </cc:Work>
    </rdf:RDF>
  </metadata>
  <g
     inkscape:label="Calque 1"
     inkscape:groupmode="layer"
     id="layer1"
     transform="translate(-90.652595,-164.85262)">
    <path
       sodipodi:nodetypes="sccssccs"
       inkscape:connector-curvature="0"
       id="path4429"
       d="m 264.1718,763.10288 c 5.84575,43.0748 52.05335,61.243 52.05335,61.243 0.35021,42.9425 -21.08861,44.6522 -21.08861,44.6522 0,0 70.45522,-10.0764 95.88219,-69.4004 25.42698,-59.324 -11.7975,-102.7253 -28.01606,-116.122 -16.21856,-13.3968 -32.63857,-18.6728 -32.63857,-18.6728 l -37.07241,20.6952 c 0,0 -34.96564,34.5299 -29.11989,77.6048 z"
       style="fill:url(#linearGradient4823);fill-opacity:1;stroke:none" />
    <path
       inkscape:connector-curvature="0"
       id="path4433"
       d="m 315.33025,688.43558 c 0,0 -27.72446,34.6206 -14.86399,60.6684 12.86049,26.0478 20.64558,24.3397 34.08265,41.6574 7.32835,9.4448 4.38551,25.565 4.38551,25.565 0,0 22.64728,-13.4303 29.78039,-60.3093 7.1331,-46.8791 -15.81907,-73.5774 -18.83912,-73.359 -3.02003,0.2184 -34.54544,5.7775 -34.54544,5.7775 z"
       style="fill:url(#linearGradient4505);fill-opacity:1;stroke:none"
       sodipodi:nodetypes="csscssc" />
    <path
       id="path4431"
       d="m 330.48716,658.18498 c -0.58153,-0.061 -1.13571,-0.04 -1.68327,0.096 -17.78608,11.4871 -40.41455,17.7693 -51.69415,36.8213 -17.86146,24.8431 -26.83193,59.0079 -14.01898,87.817 9.00942,20.2856 26.65267,35.7848 46.53098,45.4314 -0.33144,12.6005 -2.23888,29.1573 -15.70749,34.6248 -4.4443,2.2486 -7.72375,5.9156 -11.02922,9.5305 17.95144,6.4733 35.77912,-3.208 52.18389,-9.4456 38.63993,-17.249 68.94913,-54.7531 70.97565,-97.516 2.59183,-44.4045 -26.29183,-87.7511 -67.83284,-104.5281 -2.43186,-0.7505 -5.2048,-2.5659 -7.72457,-2.8308 z m -0.12004,6.6041 c 0,0 16.40686,5.2951 32.62542,18.6919 16.21856,13.3967 53.45561,56.8094 28.02863,116.1334 -23.66852,55.2213 -86.29012,67.7439 -94.84704,69.2156 4.23699,-0.9789 20.36235,-7.1559 20.05803,-44.472 0,0 -46.21771,-18.1893 -52.06346,-61.2642 -5.84574,-43.0749 29.12927,-77.5941 29.12927,-77.5941 l 37.06915,-20.7106 z"
       style="fill:url(#linearGradient4508);fill-opacity:1;stroke:none"
       inkscape:connector-curvature="0" />
    <path
       inkscape:connector-curvature="0"
       style="fill:#000000;fill-opacity:1;stroke:#000000;stroke-width:5;stroke-linejoin:round;stroke-miterlimit:4;stroke-opacity:1;stroke-dasharray:none"
       d="m 351.01316,167.37228 c -10.08776,-0.11437 -18.54656,5.7436 -28.1875,7.53125 -13.33699,3.58525 -26.64531,13.93551 -29.1875,27.84375 -25.39388,6.84703 -49.44476,18.66248 -70.5,34.4375 -37.34616,27.02581 -67.14909,63.49164 -88.875,104.03125 2.67027,3.77724 5.70728,7.15871 9.03125,10.21875 -1.03406,3.97359 -0.87446,8.15255 1.125,12.09375 3.13198,7.64355 14.25742,10.3936 20,3.96875 0.50308,-0.35912 0.98185,-0.74702 1.46875,-1.125 6.46228,3.17795 13.19237,5.8839 19.84375,8.34375 0.65395,2.91779 1.31371,5.83245 1.96875,8.75 -14.13659,14.61486 -28.44759,29.12454 -42.625,43.75 -31.01198,3.02518 -57.135143,34.40026 -51.031253,65.78125 4.248381,33.3714 41.857323,56.24933 73.750003,46.53125 9.27722,-2.14512 17.62341,-6.96913 24.46875,-13.4375 13.92043,7.93515 27.61678,16.37749 41.625,24.03125 0.49954,0.26511 1.00137,0.5401 1.5,0.8125 3.43778,27.01658 6.88175,54.04509 10.3125,81.0625 4.91344,2.49439 9.86101,4.8659 14.96875,7.0625 1.32067,17.62755 2.66097,35.2537 4.0625,52.875 33.59005,19.1571 75.67958,29.2025 113.3125,15.9062 9.04195,-2.6125 17.82795,-6.0361 26.3125,-10.0937 3.07133,-14.3828 6.23031,-28.7507 9.34375,-43.125 22.49315,3.7728 45.44562,5.4042 68.125,6.6875 4.48166,0.058 7.55267,-0.1951 11.4375,1.2188 15.12456,3.4343 33.79401,4.1211 45.15625,-8.12505 1.75608,-2.54266 3.37794,-4.56861 6.5,-5.25 33.66176,-18.94225 68.07881,-36.89555 102.125,-55.28125 1.11205,-52.66459 4.8492,-105.42686 2.71875,-158.0625 -1.64623,-5.04549 -7.93244,-6.25455 -12.21875,-4.1875 -11.79062,-8.46327 -26.93491,-12.2537 -41.40625,-11.875 -5.74145,-0.0547 -11.30959,0.69852 -16.6875,2.09375 2.88135,-17.71075 7.73856,-36.79724 1.03125,-54 3.24564,-3.04178 0.50979,-7.92128 -1.3125,-11.15625 -2.21431,-5.46198 -4.62553,-10.83718 -7.21875,-16.125 0.75082,-12.54795 -0.44856,-25.24672 -3.375,-37.3125 -4.84555,-17.07356 -13.76275,-35.10413 -30.5625,-42.9375 -4.18363,-1.81429 -8.72367,-2.78229 -13.34375,-2.5 -4.96601,1.23613 -9.99001,1.51486 -15.03125,1.5625 -26.17137,-22.98835 -56.86677,-40.78898 -90.125,-51.375 -1.43035,-12.55252 -10.1076,-24.77891 -23.28125,-28.71875 -5.19264,-2.51326 -10.61966,-3.7112 -15.34375,-6.9375 -9.18188,-4.15936 -19.82178,-5.14721 -29.875,-4.96875 z m 174.15625,100.5 c 15.48702,0.14619 25.39583,15.02689 30.4375,28.03125 2.95764,8.18928 4.98374,16.8472 5.96875,25.625 -11.56813,-19.25664 -25.64055,-37.02353 -41.71875,-52.71875 1.69982,-0.53583 3.46886,-0.87404 5.3125,-0.9375 z m -15.875,141.5 c 1.73705,1.9935 3.50814,3.95392 5.46875,5.6875 -2.70719,-0.0703 -5.43371,0.29291 -8.0625,1.03125 0.85797,-2.24194 1.73525,-4.47702 2.59375,-6.71875 z m -304.65625,36 c 6.0705,4.55884 12.34502,8.77808 18.90625,12.65625 1.4926,11.65769 2.98025,23.31053 4.46875,34.96875 -5.65253,-2.35856 -11.31535,-4.70075 -17,-6.96875 0.30803,-6.74852 -0.6589,-13.57575 -3.15625,-20.09375 -1.74526,-5.20705 -4.29046,-10.07952 -7.46875,-14.46875 1.42216,-2.02566 2.81888,-4.0738 4.25,-6.09375 z"
       id="path4560" />
    <path
       inkscape:connector-curvature="0"
       id="path4324"
       d="m 407.22735,206.55597 c -2.24916,-0.60242 -4.50987,-1.16443 -6.77498,-1.70453 -53.35655,-14.00844 -111.86465,-7.04511 -159.27021,22.74074 -43.85793,26.60125 -79.48439,67.04219 -104.55826,113.43704 12.58245,16.98241 31.95427,25.09592 50.78183,32.19552 5.14665,22.766 10.25207,45.53285 15.49388,68.27525 7.20306,5.62908 14.71906,10.71961 22.48427,15.31536 7.43487,57.97463 14.80841,115.92603 22.15393,173.85933 4.92987,2.52 9.95165,4.8561 15.04489,7.0383 1.34598,17.6542 2.65777,35.3137 4.0535,52.9633 33.23102,18.6153 73.33312,28.0695 109.82418,15.5659 8.94236,-2.5942 17.68356,-5.8514 26.14071,-9.8803 3.49446,-16.4053 7.10667,-32.7822 10.65088,-49.1756 1.27502,-0.4212 2.55013,-0.8423 3.81822,-1.2927 5.48633,-1.7968 10.10176,-5.8742 10.37678,-12.4784 16.31318,-54.579 32.62687,-109.143 48.88526,-163.74029 2.96113,-0.93663 5.90705,-1.89292 8.84805,-2.90684 9.68882,-25.40982 19.38988,-50.81365 29.15171,-76.19213 19.86868,-5.24498 39.38033,-12.02335 58.27407,-20.63253 4.44491,-2.15477 10.44044,-3.80469 5.85078,-9.67816 -23.61685,-59.90769 -69.89707,-109.30742 -125.425,-136.52036 -14.72526,-7.22037 -30.06039,-12.97164 -45.80449,-17.1889 z"
       style="fill:#000000;fill-opacity:1;stroke:none" />
    <path
       inkscape:connector-curvature="0"
       id="path4326"
       d="m 141.94559,340.6557 c 0,0 79.12715,-158.54813 233.1974,-135.92003 154.07027,22.62811 199.93417,158.73119 199.93417,158.73119 0,0 -90.19901,51.17255 -250.10782,33.97511 C 165.06054,380.24452 141.94559,340.6557 141.94559,340.6557 z"
       style="fill:#9cdafb;fill-opacity:1;stroke:none" />
    <path
       inkscape:connector-curvature="0"
       id="path4328"
       d="m 509.04483,391.90205 c -78.17652,19.35807 -160.67021,16.31538 -239.64151,2.56791 -25.72789,-4.99039 -52.09131,-10.02025 -76.98325,-19.01933 l 14.40622,63.36043 c 0,0 52.24528,44.14743 133.4559,45.40869 81.21062,1.26128 141.5745,-21.17969 141.5745,-21.17969 l 27.18814,-71.13801 z"
       style="fill:#ff9900;fill-opacity:1;stroke:none" />
    <path
       inkscape:connector-curvature="0"
       id="path4330"
       d="m 471.27126,471.24861 c -32.27288,9.71127 -65.65528,14.95851 -99.17095,16.92655 -48.44539,4.1911 -98.82675,-4.55218 -141.93516,-28.593 l 21.45749,168.03112 c 0,0 40.18545,22.1139 91.94097,24.1531 51.7555,2.0391 77.66729,-13.054 77.66729,-13.054 l 50.04036,-167.46377 z"
       style="fill:#3366ff;fill-opacity:1;stroke:none" />
    <path
       sodipodi:nodetypes="cccscc"
       inkscape:connector-curvature="0"
       id="path4332"
       d="m 408.42493,648.67088 c -46.16272,13.9676 -96.43097,9.0242 -141.28828,-9.0411 l 3.65978,48.0748 c 0,0 32.02982,18.2265 65.3803,19.5842 30.66457,1.2483 62.58316,-14.2639 62.58316,-14.2639 z"
       style="fill:#969696;fill-opacity:1;stroke:none" />
    <path
       inkscape:connector-curvature="0"
       id="path4334"
       d="m 471.27126,471.24861 c -32.27288,9.71127 -65.65528,14.95851 -99.17095,16.92655 -17.39802,1.50514 -35.04934,1.31568 -52.5202,-0.62498 55.94255,35.8858 93.06662,92.2082 99.75483,152.1318 1.20694,-0.5885 1.89596,-0.9696 1.89596,-0.9696 l 50.04036,-167.46377 z"
       style="fill:url(#linearGradient4497);fill-opacity:1;stroke:none" />
    <path
       inkscape:connector-curvature="0"
       id="path4336"
       d="m 509.04483,391.90205 c -78.17652,19.35807 -160.67021,16.31538 -239.64151,2.56791 -9.77107,-1.89527 -19.63361,-3.81411 -29.4726,-5.93604 -2.22606,0.38005 -4.43366,0.76999 -6.70271,1.1747 125.14786,30.31454 211.22208,50.52686 248.64526,73.26053 l 27.17156,-71.0671 z"
       style="fill:url(#linearGradient4494);fill-opacity:1;stroke:none" />
    <path
       inkscape:connector-curvature="0"
       id="path4338"
       d="m 402.77228,210.24588 c -8.79926,-2.23981 -17.98646,-4.10928 -27.61585,-5.52354 -1.64749,-0.24196 -3.29506,-0.45318 -4.92541,-0.65412 60.73753,38.43685 95.14872,101.22735 81.31916,160.34803 -2.91437,12.45881 -7.80737,24.00599 -14.35685,34.50302 C 526.4162,391.078 575.071,363.48333 575.071,363.48333 c 0,0 -40.30997,-119.63974 -172.29872,-153.23745 z"
       style="fill:url(#linearGradient4491);fill-opacity:1;stroke:none" />
    <path
       inkscape:connector-curvature="0"
       id="path4340"
       d="m 354.5209,221.28008 c -71.21582,-18.70854 -158.73118,37.33246 -198.52915,125.89626 18.88037,13.90509 42.11039,20.26656 64.16504,26.90477 3.61036,0.95086 7.23219,1.89028 10.85679,2.77683 0.73883,-3.106 1.55759,-6.22043 2.43208,-9.33431 21.5512,-76.74094 78.03512,-131.74936 137.27974,-140.51884 -5.12297,-2.31919 -10.5307,-4.2342 -16.2045,-5.72471 z"
       style="fill:url(#linearGradient4488);fill-opacity:1;stroke:none" />
    <path
       inkscape:connector-curvature="0"
       id="path4342"
       d="m 245.19558,472.2996 15.7223,154.59418 c 14.05048,6.3488 28.74819,11.3637 43.7602,14.8454 l 7.13403,-150.4339 c -22.83683,-3.21374 -45.39548,-9.47792 -66.61653,-19.00568 z"
       style="fill:url(#linearGradient4485);fill-opacity:1;stroke:none" />
    <path
       inkscape:connector-curvature="0"
       id="path4344"
       d="m 408.42493,648.67088 c -31.49238,9.5287 -64.88794,10.2495 -97.1803,4.0139 1.98286,1.9688 3.61929,3.8987 4.72595,5.7577 7.28437,12.2363 6.01179,31.6871 6.01179,31.6871 0,0 6.89751,-33.0217 20.85886,-26.7733 13.96136,6.2483 13.64008,33.6911 13.64008,33.6911 0,0 6.71116,-30.49 15.50568,-28.1797 8.79452,2.3104 12.18579,29.4327 12.18579,29.4327 l 0.9368,0.2461 c 8.32454,-2.9598 13.65031,-5.5216 13.65031,-5.5216 l 9.66504,-44.354 z"
       style="fill:url(#linearGradient4482);fill-opacity:1;stroke:none" />
    <path
       inkscape:connector-curvature="0"
       id="path4473"
       d="m 249.23583,305.60742 c -22.9937,0.52118 -41.82125,22.22974 -37.64456,43.73892 2.75778,21.19232 26.80677,36.69452 48.69205,31.24676 22.13974,-4.17318 36.66118,-28.14973 29.26371,-48.42756 -5.21263,-16.20684 -22.31407,-27.57875 -40.3112,-26.55812 z"
       style="fill:#000000;fill-opacity:1;stroke:none" />
    <path
       transform="matrix(1.0662366,0,0,1.0094691,-252.68535,-123.87)"
       d="m 506.84404,463.06445 c 0,18.89859 -15.32033,34.21892 -34.21892,34.21892 -18.89858,0 -34.21892,-15.32033 -34.21892,-34.21892 0,-18.89858 15.32034,-34.21891 34.21892,-34.21891 18.89859,0 34.21892,15.32033 34.21892,34.21891 z"
       sodipodi:ry="34.218918"
       sodipodi:rx="34.218918"
       sodipodi:cy="463.06445"
       sodipodi:cx="472.62512"
       id="path4475"
       style="fill:#ff9900;fill-opacity:1;stroke:none"
       sodipodi:type="arc" />
    <path
       sodipodi:type="arc"
       style="fill:url(#linearGradient4479);fill-opacity:1;stroke:none"
       id="path4477"
       sodipodi:cx="472.62512"
       sodipodi:cy="463.06445"
       sodipodi:rx="34.218918"
       sodipodi:ry="34.218918"
       d="m 506.84404,463.06445 c 0,18.89859 -15.32033,34.21892 -34.21892,34.21892 -18.89858,0 -34.21892,-15.32033 -34.21892,-34.21892 0,-18.89858 15.32034,-34.21891 34.21892,-34.21891 18.89859,0 34.21892,15.32033 34.21892,34.21891 z"
       transform="matrix(0.94820302,0,0,0.89771975,-196.89972,-72.122864)" />
    <path
       sodipodi:nodetypes="cccccccc"
       style="fill:#000000;fill-opacity:1;stroke:none"
       d="m 254.93244,356.8026 c -2.08464,-12.06568 -17.7482,-12.80338 -26.87399,-8.497 -13.9716,4.7133 -20.26401,19.25976 -31.06481,28.22518 -17.1135,18.20803 -47.28465,48.48588 -64.43399,66.56209 1.89335,16.22985 15.86696,24.62047 31.44689,34.2185 6.98241,4.1343 18.36337,2.40653 20.58438,-6.30573 22.4152,-33.54704 47.36623,-65.60385 68.17545,-100.02664 1.89533,-4.45082 3.04888,-9.34531 2.16607,-14.1764 z"
       id="path4463"
       inkscape:connector-curvature="0" />
    <path
       sodipodi:nodetypes="ccsccsc"
       style="fill:#ff9900;fill-opacity:1;stroke:none"
       d="m 244.68196,375.08768 -68.59614,98.73385 c 0,0 -10.90296,2.78327 -17.24232,-9.03913 -6.33935,-11.82241 -15.13784,-22.77294 -15.13784,-22.77294 l 80.2635,-86.3328 c 0,0 17.94043,-8.62572 23.85746,-1.67698 5.91704,6.94875 -3.14466,21.088 -3.14466,21.088 z"
       id="path4465"
       inkscape:connector-curvature="0" />
    <path
       style="fill:url(#linearGradient4553);fill-opacity:1;stroke:none"
       d="m 244.24267,358.79501 c -2.20454,-5.37201 -10.88697,-1.41038 -14.56238,0.39234 -10.91578,5.35396 -16.25342,17.44993 -25.37249,25.21011 -15.79324,16.80016 -31.58647,33.60032 -47.37971,50.40049 1.99411,11.5177 4.83047,27.02491 16.54005,33.33479 27.50265,-43.28565 51.95537,-72.65757 69.44709,-101.64233 1.3292,-2.20256 2.33807,-5.23269 1.32744,-7.6954 z"
       id="path4467"
       inkscape:connector-curvature="0"
       sodipodi:nodetypes="sscccss" />
    <path
       inkscape:connector-curvature="0"
       id="path4443"
       d="m 149.27083,429.01535 c -32.53143,0.75827 -59.168603,32.34245 -53.259423,63.63654 3.901691,30.83308 37.926143,53.38752 68.889373,45.46147 31.32325,-6.07162 51.86814,-40.95555 41.40223,-70.45813 -7.37482,-23.57962 -31.56989,-40.12482 -57.03218,-38.63988 z"
       style="fill:#000000;fill-opacity:1;stroke:none" />
    <path
       transform="matrix(1.465629,0,0,1.4269468,-540.57989,-176.50709)"
       d="m 506.84404,463.06445 c 0,18.89859 -15.32033,34.21892 -34.21892,34.21892 -18.89858,0 -34.21892,-15.32033 -34.21892,-34.21892 0,-18.89858 15.32034,-34.21891 34.21892,-34.21891 18.89859,0 34.21892,15.32033 34.21892,34.21891 z"
       sodipodi:ry="34.218918"
       sodipodi:rx="34.218918"
       sodipodi:cy="463.06445"
       sodipodi:cx="472.62512"
       id="path4445"
       style="fill:#ff9900;fill-opacity:1;stroke:none"
       sodipodi:type="arc" />
    <path
       sodipodi:type="arc"
       style="fill:url(#linearGradient4449);fill-opacity:1;stroke:none"
       id="path4447"
       sodipodi:cx="472.62512"
       sodipodi:cy="463.06445"
       sodipodi:rx="34.218918"
       sodipodi:ry="34.218918"
       d="m 506.84404,463.06445 c 0,18.89859 -15.32033,34.21892 -34.21892,34.21892 -18.89858,0 -34.21892,-15.32033 -34.21892,-34.21892 0,-18.89858 15.32034,-34.21891 34.21892,-34.21891 18.89859,0 34.21892,15.32033 34.21892,34.21891 z"
       transform="matrix(1.3033822,0,0,1.2689822,-463.89801,-103.35931)" />
    <path
       transform="matrix(0.94882165,0,0,1.3016788,129.74489,-322.8379)"
       d="m 304.46429,504.86218 c 0,18.54099 -7.71509,33.57143 -17.23214,33.57143 -9.51705,0 -17.23215,-15.03044 -17.23215,-33.57143 0,-18.54099 7.7151,-33.57143 17.23215,-33.57143 9.51705,0 17.23214,15.03044 17.23214,33.57143 z"
       sodipodi:ry="33.57143"
       sodipodi:rx="17.232143"
       sodipodi:cy="504.86218"
       sodipodi:cx="287.23215"
       id="path4369"
       style="fill:#000000;stroke:none"
       sodipodi:type="arc" />
    <path
       sodipodi:type="arc"
       style="fill:url(#linearGradient4375);fill-opacity:1;stroke:none"
       id="path4371"
       sodipodi:cx="287.23215"
       sodipodi:cy="504.86218"
       sodipodi:rx="17.232143"
       sodipodi:ry="33.57143"
       d="m 304.46429,504.86218 c 0,18.54099 -7.71509,33.57143 -17.23214,33.57143 -9.51705,0 -17.23215,-15.03044 -17.23215,-33.57143 0,-18.54099 7.7151,-33.57143 17.23215,-33.57143 9.51705,0 17.23214,15.03044 17.23214,33.57143 z"
       transform="matrix(0.82808083,0,0,1.1360357,164.42554,-239.21096)" />
    <path
       transform="matrix(0.41361896,0,0,0.56743967,278.4723,34.019986)"
       d="m 304.46429,504.86218 c 0,18.54099 -7.71509,33.57143 -17.23214,33.57143 -9.51705,0 -17.23215,-15.03044 -17.23215,-33.57143 0,-18.54099 7.7151,-33.57143 17.23215,-33.57143 9.51705,0 17.23214,15.03044 17.23214,33.57143 z"
       sodipodi:ry="33.57143"
       sodipodi:rx="17.232143"
       sodipodi:cy="504.86218"
       sodipodi:cx="287.23215"
       id="path4373"
       style="fill:#ffffff;stroke:none"
       sodipodi:type="arc" />
    <path
       sodipodi:type="arc"
       style="fill:#000000;stroke:none"
       id="path4379"
       sodipodi:cx="287.23215"
       sodipodi:cy="504.86218"
       sodipodi:rx="17.232143"
       sodipodi:ry="33.57143"
       d="m 304.46429,504.86218 c 0,18.54099 -7.71509,33.57143 -17.23214,33.57143 -9.51705,0 -17.23215,-15.03044 -17.23215,-33.57143 0,-18.54099 7.7151,-33.57143 17.23215,-33.57143 9.51705,0 17.23214,15.03044 17.23214,33.57143 z"
       transform="matrix(0.94882165,0,0,1.3016788,231.26522,-327.88866)" />
    <path
       transform="matrix(0.82808083,0,0,1.1360357,265.94586,-244.26172)"
       d="m 304.46429,504.86218 c 0,18.54099 -7.71509,33.57143 -17.23214,33.57143 -9.51705,0 -17.23215,-15.03044 -17.23215,-33.57143 0,-18.54099 7.7151,-33.57143 17.23215,-33.57143 9.51705,0 17.23214,15.03044 17.23214,33.57143 z"
       sodipodi:ry="33.57143"
       sodipodi:rx="17.232143"
       sodipodi:cy="504.86218"
       sodipodi:cx="287.23215"
       id="path4381"
       style="fill:url(#linearGradient4385);fill-opacity:1;stroke:none"
       sodipodi:type="arc" />
    <path
       sodipodi:type="arc"
       style="fill:#ffffff;stroke:none"
       id="path4383"
       sodipodi:cx="287.23215"
       sodipodi:cy="504.86218"
       sodipodi:rx="17.232143"
       sodipodi:ry="33.57143"
       d="m 304.46429,504.86218 c 0,18.54099 -7.71509,33.57143 -17.23214,33.57143 -9.51705,0 -17.23215,-15.03044 -17.23215,-33.57143 0,-18.54099 7.7151,-33.57143 17.23215,-33.57143 9.51705,0 17.23214,15.03044 17.23214,33.57143 z"
       transform="matrix(0.41361896,0,0,0.56743967,379.99262,28.969226)" />
    <path
       inkscape:connector-curvature="0"
       id="path3194"
       d="m 524.73105,259.80968 c -6.59042,1.08618 -13.02826,2.18704 -19.8125,1.5 -5.68848,-0.63064 -10.97801,0.83964 -14.93563,5.03281 -15.07584,12.08234 -25.93286,29.39476 -30.65812,48.09219 -4.22481,-0.11667 -8.38051,0.77354 -12.28125,2.1875 -4.08196,-18.3343 -12.35488,-38.55356 -30.09375,-47.34375 -7.22959,-3.87552 -15.63242,-2.69193 -23.21875,-1.09375 -8.53539,0.33061 -18.08707,-1.8334 -25.1875,4.03125 -17.60382,10.93427 -28.29972,30.73419 -31.3125,50.875 -51.17454,-1.1748 -102.42457,-3.56891 -153.65625,-3.03125 -10.84265,-0.0906 -18.0458,8.959 -25.99187,15.01429 -6.88835,6.48955 -15.89301,15.28894 -12.00813,25.67321 1.58207,7.18243 11.10798,11.47143 16.71875,5.78125 10.13345,-6.85902 16.7462,-17.93433 27.75,-23.59375 48.76394,0.8505 97.51335,2.42498 146.28125,3.0625 2.02594,22.58988 5.98204,48.9735 25.8125,63.03125 10.63838,6.7061 23.77517,2.62467 35.5625,3.65625 7.81365,1.1385 16.27194,0.34888 23,-4.34375 18.78409,-12.26363 25.93596,-36.35368 27.96875,-57.8125 1.38347,-4.93318 -2.09521,-12.68714 4.46875,-14.28125 1.93293,-0.8386 5.12169,-2.12613 4.125,1.34375 1.81898,22.9709 5.48743,49.54785 25.21875,64.1875 10.61955,7.31694 24.2027,3.0404 36.1875,4.09375 7.81365,1.1385 16.27194,0.34888 23,-4.34375 18.87138,-12.39577 25.92439,-36.43361 28,-57.96875 2.28499,-26.18578 -3.11233,-55.12406 -21.8125,-74.3125 -6.19564,-5.78392 -14.42742,-9.96755 -23.125,-9.4375 z m 1.15625,6.0625 c 16.12865,0.56632 26.1887,15.70316 31.5625,29.25 10.1009,27.4943 9.30169,60.03677 -4.8125,85.875 -6.20271,11.3104 -18.54735,22.24784 -32.375,18.5 -17.4877,-5.56002 -25.63759,-24.50742 -29.75913,-40.97369 -5.75285,-26.6948 -3.49498,-57.01778 12.88413,-79.71381 5.38475,-6.93453 13.24177,-12.97766 22.5,-12.9375 z m -19.78125,1.5 c -16.99958,14.46476 -22.68381,38.22013 -24.40625,59.25 -3.99391,-5.46245 -9.62102,-9.93916 -16.3125,-11.4375 4.872,-19.23583 16.93502,-36.59278 33.21875,-47.8125 2.5,0 5,0 7.5,0 z m -101.15625,5.3125 c 16.59595,0.62251 26.79839,16.53157 32.03125,30.625 9.63596,27.574 8.62937,59.92084 -5.9375,85.59375 -6.37537,11.16119 -19.12999,21.55084 -32.6875,17.125 -17.09267,-6.2273 -24.88886,-24.79953 -28.96875,-41.25 -5.53979,-26.53326 -3.23566,-56.70828 13.03125,-79.125 5.36604,-6.9314 13.25107,-13.01027 22.53125,-12.96875 z m -19.8125,1.5 c -18.02757,15.68922 -23.66943,40.9517 -24.49002,63.93727 -0.28348,22.45263 5.2521,46.24289 20.14627,63.43773 1.79823,1.87005 3.75312,3.65098 5.84375,5.125 -8.05377,0.13262 -17.07699,1.62767 -23.5,-4.40625 -15.64445,-13.40742 -18.72646,-35.38726 -20.5625,-54.75 0.3875,-3.53886 6.95577,0.35722 9.5625,-2.5 6.75449,-3.64779 8.82864,-14.77257 1.1875,-18.71875 -2.93671,-1.92345 -6.42932,-2.82232 -9.90625,-3.125 2.90585,-20.33174 14.96959,-40.11613 33.96875,-49 2.58333,0 5.16667,0 7.75,0 z m 78.4375,62.3125 c 4.15499,4.09421 9.5579,10.03207 16.09375,7.21875 3.29585,-3.12055 2.15193,1.75027 2.8125,4.21875 2.69826,18.59438 8.98971,38.40496 23.65625,50.84375 3.34456,2.73829 -9.15036,0.33197 -11.53068,1.21496 -13.40984,-1.90754 -21.12867,-15.7308 -25.1659,-27.47434 -3.70577,-11.44495 -5.90559,-24.21816 -5.86592,-36.02187 z"
       style="fill:#000000;stroke:none" />
    <path
       style="fill:#d36533;fill-opacity:1;stroke:none"
       d="m 348.49196,342.40037 c 0,0 -151.27034,-3.283 -158.34141,-3.53554 -7.07107,-0.25253 -27.27412,25.00128 -33.33503,26.26397 -6.06092,1.26269 -10.35407,-8.08122 -6.81853,-15.15229 3.53553,-7.07107 21.46574,-22.47589 28.53681,-25.25381 7.07107,-2.77792 167.43278,2.77792 167.43278,2.77792 0,0 7.57614,1.51523 8.33376,6.56599 0.75761,5.05076 -5.80838,8.33376 -5.80838,8.33376 z"
       id="path3162"
       inkscape:connector-curvature="0" />
    <path
       style="fill:url(#linearGradient4539);fill-opacity:1;stroke:none"
       d="m 377.04073,272.18998 c 0,0 -30.31646,11.40149 -35.9375,52.875 4.58247,0.14889 8.96183,0.96577 12.59375,4.03125 5.48131,4.62468 1.45413,12.82548 -4.25,15.0625 -3.03115,-0.0292 -6.06078,-0.0878 -9.09375,-0.125 0.0539,1.20359 0.12688,2.41477 0.21875,3.65625 4.44812,60.1085 32.46875,61.125 32.46875,61.125 l 20.8125,-0.1875 c -7.6609,-3.4869 -14.21828,-10.15267 -18.34375,-17.53125 -15.29793,-26.43805 -16.42592,-60.57672 -6.375,-89.21875 4.22619,-11.54393 11.73434,-23.7826 22.5,-29.6875 l -14.59375,0 z"
       id="path3164"
       inkscape:connector-curvature="0" />
    <path
       sodipodi:type="arc"
       style="fill:url(#linearGradient4043);fill-opacity:1;stroke:none"
       id="path3166"
       sodipodi:cx="420.60226"
       sodipodi:cy="480.23703"
       sodipodi:rx="40.279831"
       sodipodi:ry="66.5438"
       d="m 460.8821,480.23703 c 0,36.75113 -18.0339,66.5438 -40.27984,66.5438 -22.24593,0 -40.27983,-29.79267 -40.27983,-66.5438 0,-36.75113 18.0339,-66.5438 40.27983,-66.5438 22.24594,0 40.27984,29.79267 40.27984,66.5438 z"
       transform="matrix(0.99975752,0,0,1.0397014,-15.566043,-159.42815)" />
    <path
       style="fill:#d36533;fill-opacity:1;stroke:none"
       d="m 458.72823,318.43998 c -5.23809,0 -9.63131,1.49946 -12.875,3.125 0.7144,4.58872 1.14058,9.23821 1.28125,13.90625 2.87617,-2.51304 6.76409,-4.72101 11.78125,-4.375 10.35714,0.71428 10.54464,8.38839 16.4375,9.28125 5.89286,0.89286 6.79018,-7.14286 3.21875,-11.25 -3.57142,-4.10714 -8.41518,-10.6875 -19.84375,-10.6875 z"
       id="path3178"
       inkscape:connector-curvature="0" />
    <path
       style="fill:url(#linearGradient4534);fill-opacity:1;stroke:none"
       d="m 498.00948,265.37748 c 0,0 -27.03236,16.29169 -35.0625,51.34375 4.24165,0.65674 8.29372,2.41418 11.5625,5.25 5.19424,4.07039 11.17283,11.61267 6.53125,18.21875 -4.37785,5.13874 -11.41905,0.43416 -14.34375,-3.78125 -0.79603,-0.79005 -1.65735,-1.41197 -2.5625,-1.90625 -0.93754,-0.01 -1.87446,-0.023 -2.8125,-0.0312 0.0539,0.85464 0.12688,5.16477 0.21875,6.40625 4.44812,60.1085 32.46875,61.125 32.46875,61.125 l 20.8125,-0.1875 c -7.6609,-3.4869 -14.21828,-10.15267 -18.34375,-17.53125 -15.29793,-26.43805 -16.42592,-60.57672 -6.375,-89.21875 4.22619,-11.54393 11.73434,-23.7826 22.5,-29.6875 l -14.59375,0 z"
       id="path3185"
       inkscape:connector-curvature="0" />
    <path
       transform="matrix(0.99975752,0,0,1.0397014,105.39972,-166.24668)"
       d="m 460.8821,480.23703 c 0,36.75113 -18.0339,66.5438 -40.27984,66.5438 -22.24593,0 -40.27983,-29.79267 -40.27983,-66.5438 0,-36.75113 18.0339,-66.5438 40.27983,-66.5438 22.24594,0 40.27984,29.79267 40.27984,66.5438 z"
       sodipodi:ry="66.5438"
       sodipodi:rx="40.279831"
       sodipodi:cy="480.23703"
       sodipodi:cx="420.60226"
       id="path3187"
       style="fill:url(#linearGradient4047);fill-opacity:1;stroke:none"
       sodipodi:type="arc" />
    <path
       style="fill:#000000;fill-opacity:1;stroke:none"
       d="m 481.56939,347.37057 c -13.1406,1.14051 -28.8517,0.24023 -38.9376,10.1875 -8.8611,10.99017 -4.2583,30.45204 8.875,35.71875 15.4078,4.15587 31.7574,0.61104 47.2813,3.5 6.7686,3.85972 11.083,10.97799 16.7187,16.28125 4.0458,3.46606 3.2654,4.33487 -1.4374,3.96875 -11.9959,0.31915 -24.7085,8.9432 -25.0938,21.8125 -0.8293,4.91933 1.1592,10.68923 -0.8438,15.0625 -8.377,8.54699 -3.8375,21.32292 -1.8154,31.50026 3.7255,12.83231 7.8549,25.89438 14.253,37.68724 4.911,8.1061 12.964,15.98601 21.8571,9.95536 -4.1774,3.01638 -2.5575,9.41829 2.2053,11.73214 40.3706,19.61266 42.5013,2.2608 50.1071,-9.3125 9.0682,-13.79845 2.7785,-34.41642 6.6885,-49.92285 3.8241,-20.39766 1.9571,-41.61367 -4.4206,-61.2334 2.7897,-17.87952 8.0405,-36.97005 2.1876,-54.71875 -2.4248,-7.61088 -11.9931,-11.81592 -18.9063,-7.03125 -4.9703,2.73629 -8.1969,8.34412 -8.625,13.78125 -8.052,-10.75752 -17.3377,-21.86251 -31.0313,-25.125 -12.6429,-3.56266 -25.9895,-4.05974 -39.0624,-3.84375 z"
       id="path4080"
       inkscape:connector-curvature="0"
       sodipodi:nodetypes="cccccccccccssccccccc" />
    <path
       style="fill:url(#linearGradient4529);fill-opacity:1;stroke:none"
       d="m 519.35799,468.46755 c 0,0 -9.8214,23.75001 7.1429,56.96429 -6.0715,10.35714 -20.3572,4.28571 -26.7857,-12.85714 -6.4286,-17.14286 -16.7858,-45 -10.3572,-53.92857 6.4286,-8.92858 21.7857,-13.92857 21.7857,-13.92857 0,0 -9.2857,-2.85715 -18.2143,2.85714 0,-7.14286 -1.4285,-15.71429 7.8572,-22.14286 12.2205,-8.46035 28.9286,-2.14286 28.9286,-2.14286 0,0 -22.3429,-26.41366 -28.5715,-30 -4.7182,-2.71668 -38.2143,-0.71428 -48.2143,-3.57142 -10,-2.85715 -17.5,-26.78572 -1.7857,-33.57143 15.7143,-6.78572 62.8572,-7.14286 78.5715,3.21428 15.7142,10.35715 33.5714,40 40.3571,57.14286 6.7857,17.14286 11.7857,42.5 8.2143,62.5 -3.5714,20 0.5357,44.46428 -5.5358,53.03571 -6.0714,8.57143 -12.3214,30.89286 -47.3214,8.39286 0,0 -1.25,-6.96428 6.4286,-10.35714 0,0 -18.0357,-44.28572 -12.5,-61.60715 z"
       id="path4051"
       inkscape:connector-curvature="0"
       sodipodi:nodetypes="ccssccscsssssssccc" />
    <path
       sodipodi:nodetypes="scccss"
       style="fill:url(#linearGradient4526);fill-opacity:1;stroke:none"
       d="m 566.83569,364.57412 c -4.4835,0.29849 -8.8304,4.24554 -9.9688,7.28125 -0.808,2.15481 -0.5971,4.46786 -0.9107,10.04911 7.6053,11.12566 13.9131,23.19125 18.4063,35.875 2.8534,-15.0149 4.9573,-31.93709 2.5044,-42.36161 -2.0089,-8.53794 -6.0751,-11.10713 -10.0312,-10.84375 z"
       id="path4053"
       inkscape:connector-curvature="0" />
    <path
       style="fill:#000000;stroke:none"
       d="m 598.70844,421.7137 c -0.85003,-0.002 -1.71019,7.1e-4 -2.5625,0.0312 -27.25548,-0.26127 -50.35044,17.83859 -66.625,38.0625 -2.50396,2.95994 -4.8115,6.05457 -7.125,9.15625 -3.2762,-0.68224 -6.63201,-1.01951 -10.09375,-0.84375 -5.31405,0.27815 -11.05228,2.85362 -14.6875,6.96875 -7.93739,-14.84167 -25.97374,-20.4431 -41.21875,-24.8125 -13.85584,-3.70312 -28.11668,-6.20674 -42.53125,-5.96875 -13.667,-0.007 -27.93283,3.43228 -38.3125,12.5625 -2.29974,-0.24788 -4.61862,-0.38788 -6.96875,-0.34375 -7.97169,1.0199 -9.49341,10.40365 -9.9375,16.875 -2.46862,16.67588 -2.72427,33.67698 -3.53125,50.53128 26.67799,1.1893 53.78729,0.883 80,5.9687 9.48821,4.7527 9.11553,19.6538 2.5,26.6563 -5.01841,4.4619 -12.31396,4.1016 -18.1875,6.8125 6.38835,2.4302 16.14502,2.5893 17.90625,10.8437 3.62369,9.2389 -0.28867,22.633 -11.125,24.5625 1.5559,14.2293 -12.50319,27.478 -26.65625,24.6563 -15.24485,-0.036 -30.27565,-2.508 -44.84375,-6.875 2.29717,6.8331 -1.01561,15.9466 4.9375,21.2187 33.18661,13.8933 69.551,17.6154 105.125,20.65625 7.59714,0.4919 15.20304,0.8326 22.8125,1.0625 -0.11489,-3.00155 3.84576,1.2963 5.875,1.0312 9.26761,1.9635 19.23306,3.0661 28.59375,1.0938 7.09464,-1.9693 14.7462,-6.39035 18.09375,-13.15625 2.33407,0.3145 5.43746,-2.082 7.21875,-3.25 32.56137,-17.5318 65.10362,-35.1313 97.71875,-52.5625 1.25614,-51.8119 4.43813,-103.70027 2.96875,-155.49998 -0.64228,-2.83404 -3.447,-4.88932 -6.34375,-4.46875 -1.73349,0.4063 -3.43989,0.87402 -5.125,1.40625 -0.22914,-0.81509 -0.79816,-1.58172 -1.84375,-2.1875 -10.83975,-6.54193 -23.28079,-10.16167 -36.03125,-10.1875 z"
       id="path4207"
       inkscape:connector-curvature="0" />
    <path
       style="fill:url(#linearGradient4271);fill-opacity:1;stroke:none"
       d="m 371.27094,460.4637 c -2.32929,0.046 -4.16656,0.50201 -5.375,1.46875 -3.35766,2.68613 -5.50343,27.84827 -6.625,58.12503 20.60293,0.6371 41.32629,1.2928 61.75,3.5625 8.22322,0.8459 19.74245,0.7274 23.09375,10 5.0125,10.5482 1.4425,26.9977 -11.1875,29.875 2.6722,0.7314 4.7991,2.7621 6.125,5.125 6.6106,10.7993 4.09185,28.3944 -8.90625,33.0937 -0.2508,11.9863 -9.64171,23.5982 -21.90625,25.5 -16.34663,0.8604 -32.93389,-0.8887 -48.78125,-5.2187 0.48222,7.2509 1.11069,11.754 1.875,12.1562 11.61428,6.1128 55.57739,18.9459 122.5,21.2188 l 4.78125,-76.25 2.28125,76.25 c 0,0 2.03347,2.2711 20.46875,3.2812 18.43529,1.0102 26,-12.625 26,-12.625 2.52538,-77.0241 4.28125,-151.78123 4.28125,-151.78123 0,0 -8.569,6.58863 -23.46875,7.09373 -14.89975,0.5051 -23.5,-4.06248 -23.5,-4.06248 l -6.5625,76.28128 2.28125,-86.37503 c 0,0 -43.19654,-4.02443 -57.84375,-7.8125 -12.35859,-3.19618 -45.03171,-18.46865 -60.25,-18.90625 -0.35228,-0.0101 -0.69849,-0.007 -1.03125,0 z m 167.03125,24.15625 c -4.38233,0.39306 -11.73438,6.14063 -21.5,7.78125 -11.16072,1.875 -21.08482,-4.48214 -21.53125,-4.75 0,0 -2.30804,5.63393 -0.96875,6.4375 1.33928,0.80357 8.55803,3.47768 20.34375,4.90628 11.78571,1.4285 21.96428,-5.19199 25,-7.15628 3.03571,-1.96429 4.36161,-5.51339 0.34375,-7.03125 -0.50223,-0.18973 -1.06145,-0.24365 -1.6875,-0.1875 z"
       id="path4126"
       inkscape:connector-curvature="0" />
    <path
       style="fill:url(#linearGradient4279);fill-opacity:1;stroke:none"
       d="m 642.27094,436.68245 c -8.29963,-0.13812 -41.22059,24.51206 -61.46875,33.84375 -11.11759,5.12372 -26.09003,8.22216 -35.00893,13.99107 -1.13515,48.27721 -2.65266,106.36851 -4.20982,154.63391 0.29121,1.5992 0.32125,3.1338 0.125,4.5938 l 99.4375,-53.5313 c 0,0 5.30663,-147.47793 2.78125,-152.78123 -0.23676,-0.49718 -0.79767,-0.73571 -1.65625,-0.75 z"
       id="path4128"
       inkscape:connector-curvature="0"
       sodipodi:nodetypes="sscccccs" />
    <path
       style="fill:url(#linearGradient4291);fill-opacity:1;stroke:none"
       d="m 414.17719,448.2762 c -20.34485,0.31233 -29.94684,6.74151 -33.09375,9.4375 10.93954,2.13428 21.38915,6.70963 31.84375,10.5 24.44381,11.0918 51.56467,11.92755 77.84375,14.96875 1.79092,0.96247 3.6711,0.0125 5.46875,0.34375 -0.0145,-1.00299 -0.25328,-2.28022 -0.875,-3.90625 -2.32143,-6.07143 -9.30357,-20.36608 -55.375,-28.9375 -10.07813,-1.875 -18.60654,-2.51688 -25.8125,-2.40625 z"
       id="path4140"
       inkscape:connector-curvature="0" />
    <path
       style="fill:url(#linearGradient4289);fill-opacity:1;stroke:none"
       d="m 513.61469,472.05745 c -12.62447,0.39237 -15.9375,10.59375 -15.9375,10.59375 0,0 0.25702,0.84122 0.65625,2 10.37424,7.38879 24.10382,3.26491 34.46875,-2.40625 1.79072,-1.50664 4.19011,-1.93969 6.46875,-1.59375 -4.07674,-2.83322 -12.52299,-7.77162 -23.03125,-8.53125 -0.92634,-0.067 -1.78337,-0.0887 -2.625,-0.0625 z"
       id="path4149"
       inkscape:connector-curvature="0" />
    <path
       style="fill:url(#linearGradient4287);fill-opacity:1;stroke:none"
       d="m 596.98969,425.7137 c -5.10964,0.0721 -10.67394,0.70447 -16.6875,2.125 -24.69939,5.8345 -45.4584,30.93012 -53.71875,42.1875 9.43645,2.94516 12.62094,3.70723 19.98661,10.29018 13.61489,-9.03072 32.17529,-13.59408 45.91964,-22.47768 12.8298,-7.57767 25.35612,-16.65148 39.3125,-22.0625 l 0.5,-0.375 c 0,0 -13.17072,-10.00009 -35.3125,-9.6875 z"
       id="path4158"
       inkscape:connector-curvature="0"
       sodipodi:nodetypes="sscccccs" />
    <path
       style="fill:#000000;stroke:none"
       d="m 434.58006,455.23725 c 1.13642,0.25254 27.4552,0.76267 39.77476,8.83883 11.36422,7.44988 11.49048,10.73287 13.00571,15.02602 0,0 -8.33376,-2.52538 -30.1783,-6.81853 -21.84455,-4.29314 -37.37565,-5.3033 -37.37565,-5.3033 0,0 30.80965,-1.13642 39.77476,1.89404 8.9651,3.03046 22.09708,6.81853 22.09708,6.81853 0,0 -2.77792,-7.95495 -18.81409,-13.00571 -16.03617,-5.05077 -28.28427,-7.44988 -28.28427,-7.44988 z"
       id="path4181"
       inkscape:connector-curvature="0"
       sodipodi:nodetypes="cscscscsc" />
    <path
       style="fill:#000000;stroke:none"
       d="m 536.73174,470.64208 c 0,0 6.69226,-12.37437 19.1929,-20.96067 12.50063,-8.5863 21.84454,-10.35406 21.84454,-10.35406 -21.2132,10.98541 -41.03744,31.31473 -41.03744,31.31473 z"
       id="path4183"
       inkscape:connector-curvature="0"
       sodipodi:nodetypes="cscc" />
    <path
       style="fill:#000000;stroke:none"
       d="m 544.81296,475.06149 c 0,0 5.17703,-12.12183 20.96066,-20.20305 15.78364,-8.08122 23.10724,-7.44987 23.10724,-7.44987 -16.62247,6.87934 -39.58644,21.17153 -44.0679,27.65292 z"
       id="path4185"
       inkscape:connector-curvature="0"
       sodipodi:nodetypes="cscc" />
    <path
       style="fill:#000000;fill-opacity:1;stroke:none"
       d="m 160.48448,474.97523 c -11.45938,3.9174 -7.85018,18.76081 -1.02223,26.64023 8.57819,12.36845 24.83645,15.92288 36.77729,24.62081 22.91318,13.13207 45.75386,26.20271 68.54548,39.38987 15.66695,-4.41331 35.89832,-8.53293 41.15208,-24.73546 2.18773,-7.2343 -2.69319,-17.65201 -12.00136,-18.32604 -39.68733,-15.62663 -78.59134,-33.87876 -118.70688,-47.85368 -4.96627,-1.05938 -10.1694,-1.3495 -14.74438,0.26427 z"
       id="path4453"
       inkscape:connector-curvature="0" />
    <path
       style="fill:#ff9900;fill-opacity:1;stroke:none"
       d="m 181.57068,481.64358 117.53379,48.4589 c 0,0 5.80138,9.79712 -4.23499,17.67447 -10.03639,7.87736 -29.69269,12.27851 -29.69269,12.27851 L 167.9506,504.2633 c 0,0 -13.58251,-15.46427 -8.29133,-22.15381 5.29119,-6.68955 21.91141,-0.46591 21.91141,-0.46591 z"
       id="path4455"
       inkscape:connector-curvature="0" />
    <path
       style="fill:url(#linearGradient4521);fill-opacity:1;stroke:none"
       d="m 165.43769,484.70027 c -4.74799,2.94396 1.61302,10.46257 4.43114,13.62492 8.36966,9.39203 21.91825,12.44662 32.19012,19.7593 21.14234,12.11947 42.28467,24.23895 63.42701,36.35843 10.93779,-3.7434 25.62219,-8.92588 28.6691,-20.95672 -50.81464,-18.82858 -86.90176,-37.04796 -120.67159,-48.78685 -2.56618,-0.89204 -5.86915,-1.34869 -8.04578,9.2e-4 z"
       id="path4457"
       inkscape:connector-curvature="0"
       sodipodi:nodetypes="sscccss" />
    <path
       inkscape:connector-curvature="0"
       id="path4189"
       d="m 344.5789,485.09129 c -15.79608,1.32093 -26.41667,15.44559 -36.65625,25.53129 -7.01548,-10.9073 -23.1307,-15.16252 -33.84375,-7.1875 -16.72424,9.9736 -21.74399,31.6425 -18.49894,49.7455 1.31579,13.586 6.83467,29.8719 21.03019,34.442 8.29716,1.8229 17.00543,-1.5263 24.53125,-3.125 7.44105,12.6173 20.87187,20.0562 33.09375,27.0937 23.27071,11.7163 49.93465,16.9953 75.96875,15.625 12.26454,-1.9018 21.65547,-13.5137 21.90627,-25.5 12.9981,-4.6993 15.5168,-22.2944 8.9062,-33.0937 -1.3259,-2.363 -3.4528,-4.3936 -6.125,-5.125 12.63,-2.8773 16.2,-19.3268 11.1875,-29.875 -3.3513,-9.2726 -14.8705,-9.1541 -23.09372,-10 -20.96018,-2.3293 -42.23778,-2.9717 -63.375,-3.625 0.24086,-10.2813 0.47168,-20.5627 0.71875,-30.84379 -4.67587,-2.86742 -10.18701,-4.52727 -15.75,-4.0625 z"
       style="fill:#000000;stroke:none" />
    <path
       sodipodi:nodetypes="ccsssccssccsscssccsc"
       inkscape:connector-curvature="0"
       id="path4191"
       d="m 298.04318,528.32848 c 0.35715,-0.7143 7.13761,-14.8595 7.13761,-14.8595 0,0 -7.99239,-11.2912 -18.88525,-10.2197 -10.89286,1.0714 -29.15984,13.8182 -27.3595,41.8649 1.45921,22.7324 6.49729,31.475 15.66044,37.5105 6.31994,4.1628 23.26813,-1.6176 23.26813,-1.6176 0,0 -4.79296,-5.8408 -0.24728,-32.3574 0.25254,17.1726 3.45631,33.3496 13.27774,41.921 9.82143,8.5714 34.7121,30.6814 89.96193,33.1434 24.63917,1.098 26.59667,-18.4848 26.59667,-18.4848 0,0 -42.54517,-2.8453 -82.4462,-15.4722 0,0 71.59663,10.7121 83.3823,8.7478 11.7858,-1.9643 15.9848,-17.0645 8.0463,-29.6407 -3.2254,-5.1096 -35.37782,3.6318 -90.1786,-13.0357 34.34519,5.8084 75,7.3214 87.8571,3.9286 12.8572,-3.3929 11.7858,-23.3929 5.5358,-28.75 -6.25,-5.3572 -84.10719,-7.1429 -84.10719,-7.1429 l 0.71429,-32.32142 c 0,0 -10.53571,-6.78571 -23.92857,1.96429 -13.39286,8.75003 -34.28572,34.82143 -34.28572,34.82143 z"
       style="fill:url(#linearGradient4197);fill-opacity:1;stroke:none" />
    <path
       id="path4389"
       d="m 375.13189,172.21977 c -0.86931,-0.27899 -1.73436,-0.52472 -2.6025,-0.75325 -12.91752,-2.61895 -27.58367,-4.10045 -39.71264,2.99827 -14.08336,2.93014 -29.71281,8.03221 -36.63218,25.67696 -4.45735,14.91813 6.47813,28.50748 16.25875,33.58974 27.1021,15.401 58.85583,16.11534 86.63151,3.62453 9.78067,-4.36286 21.49455,-15.93144 18.73926,-31.21161 -3.59891,-16.72752 -18.81633,-24.1729 -30.34601,-28.33259 -0.54649,-0.13044 -1.00623,-0.11179 -1.41623,-0.0278 -3.34229,-2.5983 -7.12271,-4.34578 -10.91996,-5.56422 z"
       style="fill:#000000;fill-opacity:1;stroke:none"
       inkscape:connector-curvature="0" />
    <path
       transform="matrix(1.019069,0.09230238,-0.24029586,1.3307436,41.7487,-8.6868644)"
       d="m 371.98867,127.18872 c 0,7.04339 -14.18968,12.75318 -31.69353,12.75318 -17.50386,0 -31.69354,-5.70979 -31.69354,-12.75318 0,-7.04338 14.18968,-12.75318 31.69354,-12.75318 17.50385,0 31.69353,5.7098 31.69353,12.75318 z"
       sodipodi:ry="12.753176"
       sodipodi:rx="31.693537"
       sodipodi:cy="127.18872"
       sodipodi:cx="340.29514"
       id="path4391"
       style="fill:#ff9900;fill-opacity:1;stroke:none"
       sodipodi:type="arc" />
    <path
       inkscape:connector-curvature="0"
       id="path4393"
       d="m 391.48015,185.14027 c 2.72322,3.23557 4.00145,6.82792 3.33616,10.51222 -1.97849,10.95676 -20.12222,18.41668 -40.51714,16.66819 -20.39493,-1.74848 -35.32923,-12.06222 -33.35073,-23.01898 0.4891,-2.70863 1.96407,-5.23106 4.21819,-7.42644 -13.90962,4.60036 -23.70153,12.61911 -25.45477,22.32849 -3.08688,17.09493 19.92001,33.07198 51.40941,35.69842 31.48941,2.62644 59.53408,-9.10345 62.62095,-26.19837 2.00725,-11.11599 -7.03987,-21.75314 -22.26207,-28.56353 z"
       style="fill:#ff9900;fill-opacity:1;stroke:none" />
    <path
       sodipodi:type="arc"
       style="fill:url(#linearGradient4399);fill-opacity:1;stroke:none"
       id="path4395"
       sodipodi:cx="340.29514"
       sodipodi:cy="127.18872"
       sodipodi:rx="31.693537"
       sodipodi:ry="12.753176"
       d="m 371.98867,127.18872 c 0,7.04339 -14.18968,12.75318 -31.69353,12.75318 -17.50386,0 -31.69354,-5.70979 -31.69354,-12.75318 0,-7.04338 14.18968,-12.75318 31.69354,-12.75318 17.50385,0 31.69353,5.7098 31.69353,12.75318 z"
       transform="matrix(0.83412987,0.07555148,-0.19668732,1.0892422,99.136068,27.729636)" />
    <path
       inkscape:connector-curvature="0"
       id="path4397"
       d="m 399.06693,195.91732 c -3.01182,15.79109 -17.65997,19.3607 -28.24854,21.29065 -17.21366,2.65504 -36.75311,0.5172 -50.52181,-14.5058 -2.16251,-2.99935 -3.70846,-6.90219 -3.8578,-11.07891 -5.659,2.90926 -14.72646,9.57441 -11.96077,19.01299 6.74273,14.85214 21.50578,17.92919 33.52808,21.44966 22.11555,4.77036 46.7208,4.10823 66.43458,-11.02414 4.83969,-3.79069 7.44133,-13.25195 2.23645,-18.33644 -2.06996,-2.70708 -5.14014,-6.28303 -7.61019,-6.80801 z"
       style="fill:url(#linearGradient4514);fill-opacity:1;stroke:none" />
    <text
       xml:space="preserve"
       style="font-size:16px;line-height:1.25;font-family:ABeeZee;-inkscape-font-specification:ABeeZee;text-align:center;text-decoration:none;text-decoration-line:none;text-decoration-color:#000000;letter-spacing:0px;word-spacing:0px;text-anchor:middle;fill:#000000;stroke:#000000;stroke-width:0;stroke-linecap:butt;stroke-linejoin:miter;stroke-opacity:1;stop-color:#000000"
       x="99.755501"
       y="116.19504"
       id="text1"><tspan
         sodipodi:role="line"
         id="tspan1"
         x="99.755501"
         y="116.19504">https://openclipart.org/detail/222618/cipy-geek</tspan></text>
  </g>
</svg>
