<?xml version="1.0" encoding="UTF-8" standalone="no"?>
<svg
   viewBox="0 0 175 175"
   version="1.1"
   id="svg1"
   sodipodi:docname="rollcall.svg"
   inkscape:version="1.3.2 (091e20ef0f, 2023-11-25, custom)"
   xmlns:inkscape="http://www.inkscape.org/namespaces/inkscape"
   xmlns:sodipodi="http://sodipodi.sourceforge.net/DTD/sodipodi-0.dtd"
   xmlns:xlink="http://www.w3.org/1999/xlink"
   xmlns="http://www.w3.org/2000/svg"
   xmlns:svg="http://www.w3.org/2000/svg"
   xmlns:rdf="http://www.w3.org/1999/02/22-rdf-syntax-ns#"
   xmlns:cc="http://creativecommons.org/ns#"
   xmlns:dc="http://purl.org/dc/elements/1.1/">
  <defs
     id="defs1" />
  <sodipodi:namedview
     id="namedview1"
     pagecolor="#ffffff"
     bordercolor="#000000"
     borderopacity="0.25"
     inkscape:showpageshadow="2"
     inkscape:pageopacity="0.0"
     inkscape:pagecheckerboard="0"
     inkscape:deskcolor="#d1d1d1"
     inkscape:zoom="1.3485714"
     inkscape:cx="86.758476"
     inkscape:cy="87.129239"
     inkscape:window-width="1366"
     inkscape:window-height="719"
     inkscape:window-x="0"
     inkscape:window-y="26"
     inkscape:window-maximized="1"
     inkscape:current-layer="svg1" />
  <g
     id="imagebot_2"
     label="icon">
    <g
       id="imagebot_3"
       transform="translate(2.5911 2.6482) matrix(1.3703 0 0 1.3703 -350.25 -244.89)"
       label="icon" />
    <title
       id="title1">icon</title>
  </g>
  <g
     id="imagebot_2-5"
     label="icon"
     transform="translate(3.4987503,0.23602112)">
    <g
       id="imagebot_3-3"
       transform="matrix(1.3703,0,0,1.3703,-347.6589,-242.2418)"
       label="icon">
      <path
         id="imagebot_26-5"
         stroke-linejoin="round"
         d="m 260.1,178.72 c -2.53,0.23 -4.5,2.19 -4.5,4.56 v 113.89 c 0,2.52 2.23,4.55 5,4.55 h 90 c 2.77,0 5,-2.03 5,-4.55 V 202.08 L 332.16,178.72 H 260.6 c -0.18,0 -0.33,-0.02 -0.5,0 z"
         stroke="#000000"
         stroke-width="1.5"
         fill="#ffffff" />
      <path
         id="imagebot_25-6"
         stroke-linejoin="round"
         d="m 332.21,178.71 v 18.37 c 0,2.77 2.23,5 5,5 h 18.4 z"
         stroke="#000000"
         stroke-width="1.5"
         fill="#ffffff" />
      <path
         id="imagebot_24-2"
         stroke-linejoin="round"
         d="m 332.21,178.71 v 18.37 c 0,2.77 2.23,5 5,5 h 18.4 z"
         stroke="#000000"
         stroke-width="1.5"
         fill="#ffffff" />
      <rect
         id="imagebot_21-9"
         stroke-linejoin="round"
         ry="2"
         rx="2"
         height="10"
         width="10"
         stroke="#000000"
         y="200.21001"
         x="262.60999"
         stroke-width="1.5"
         fill="#ffffff" />
      <use
         id="imagebot_23-1"
         xlink:href="#imagebot_21-9"
         transform="translate(5.0448e-7,20)"
         height="180"
         width="180"
         y="0"
         x="0" />
      <use
         id="imagebot_22-2"
         xlink:href="#imagebot_21-9"
         transform="translate(5.0448e-7,40)"
         height="180"
         width="180"
         y="0"
         x="0" />
      <use
         id="imagebot_20-7"
         xlink:href="#imagebot_21-9"
         transform="translate(5.0448e-7,60)"
         height="180"
         width="180"
         y="0"
         x="0" />
      <path
         id="imagebot_17-0"
         d="m 279.6,205.22 h 29"
         fill-rule="evenodd"
         stroke="#000000"
         stroke-width="3"
         fill="none" />
      <use
         id="imagebot_19-9"
         xlink:href="#imagebot_17-0"
         transform="translate(5.0448e-7,20)"
         height="180"
         width="180"
         y="0"
         x="0" />
      <use
         id="imagebot_18-3"
         xlink:href="#imagebot_17-0"
         transform="translate(5.0448e-7,40)"
         height="180"
         width="180"
         y="0"
         x="0" />
      <use
         id="imagebot_16-6"
         xlink:href="#imagebot_17-0"
         transform="translate(5.0448e-7,60)"
         height="180"
         width="180"
         y="0"
         x="0" />
      <path
         id="imagebot_15-0"
         stroke-linejoin="round"
         d="m 264.25,198.26 c 0.39,0.71 0.03,0.03 0.52,0.98 0.13,0.26 0.29,0.52 0.41,0.78 0.52,1.14 0.88,2.36 1.28,3.55 0.31,0.67 0.68,2.5 1.24,3 0.14,0.11 0.35,0.15 0.52,0.1 0.26,-0.07 0.95,-0.47 0.67,-0.46 -0.46,0.01 -0.86,0.32 -1.29,0.48 2.79,-2.38 5.57,-4.79 8.59,-6.87 1.95,-1.35 3.06,-1.97 5.07,-3.16 4.88,-2.75 2.81,-1.65 6.17,-3.4 l -2,1.61 c -1.87,0.95 -1.15,0.81 -2,0.95 -1.98,1.16 -3.23,1.85 -5.14,3.16 -2.9,1.99 -5.55,4.31 -8.14,6.68 -1.18,0.79 -2.33,1.64 -3.55,2.38 -0.26,0.16 -0.57,0.32 -0.89,0.31 -0.56,0 -0.81,-0.79 -0.94,-1.13 -0.29,-0.75 -0.45,-1.56 -0.75,-2.3 -0.63,-1.78 -1.24,-3.61 -2.48,-5.08 z"
         stroke-width="3"
         fill="#ff0000" />
      <use
         id="imagebot_14-6"
         xlink:href="#imagebot_15-0"
         transform="translate(5.0448e-7,20)"
         height="180"
         width="180"
         y="0"
         x="0" />
      <g
         id="imagebot_4-2"
         transform="matrix(0.97525,-0.22111,0.22111,0.97525,145.67,216.37)">
        <path
           id="imagebot_13-6"
           stroke-width="1px"
           fill="#aa0000"
           d="m 156.39,104.43 -0.72,-1.34 -5.67,2.13 -0.05,0.07 z"
           fill-rule="evenodd" />
        <rect
           id="imagebot_12-1"
           transform="rotate(-118.54)"
           width="4.4545002"
           y="99.323997"
           x="-171.00999"
           height="60"
           fill="#aa0000" />
        <rect
           id="imagebot_11-8"
           transform="rotate(-118.54)"
           width="4.4545002"
           y="99.323997"
           x="-166.56"
           height="60"
           fill="#d40000" />
        <rect
           id="imagebot_10-7"
           transform="rotate(-118.54)"
           width="4.4545002"
           y="99.323997"
           x="-162.10001"
           height="60"
           fill="#ff2a2a" />
        <path
           id="imagebot_9-9"
           stroke-width="1px"
           fill="#ffd42a"
           d="m 155.67,103.09 11.27,-4.224 0.07,0.048 -2.15,-4.105 -0.01,0.051 -9.91,6.9 z"
           fill-rule="evenodd" />
        <path
           id="imagebot_8-2"
           stroke-width="1px"
           fill="#d40000"
           d="m 155.67,103.09 -0.73,-1.33 -4.94,3.46 z"
           fill-rule="evenodd" />
        <path
           id="imagebot_7-0"
           stroke-width="1px"
           fill="#ff2a2a"
           d="m 154.94,101.76 -0.69,-1.27 -4.25,4.73 z"
           fill-rule="evenodd" />
        <path
           id="imagebot_6-2"
           stroke-width="1px"
           fill="#ffdd55"
           d="m 154.94,101.76 9.91,-6.9 0.01,-0.051 -2.05,-3.854 -8.56,9.535 z"
           fill-rule="evenodd" />
        <path
           id="imagebot_5-3"
           stroke-width="1px"
           fill="#ffcc00"
           d="m 156.39,104.43 12.67,-1.66 -2.05,-3.856 -0.07,-0.048 -11.27,4.224 z"
           fill-rule="evenodd" />
      </g>
    </g>
    <title
       id="title1-7">icon</title>
  </g>
  <metadata
     id="metadata1">
    <rdf:RDF>
      <cc:Work>
        <dc:format>image/svg+xml</dc:format>
        <dc:type
           rdf:resource="http://purl.org/dc/dcmitype/StillImage" />
        <cc:license
           rdf:resource="http://creativecommons.org/publicdomain/zero/1.0/" />
        <dc:publisher>
          <cc:Agent
             rdf:about="http://openclipart.org/">
            <dc:title>Openclipart</dc:title>
          </cc:Agent>
        </dc:publisher>
        <dc:title>CheckList</dc:title>
        <dc:date>2012-04-27T14:30:59</dc:date>
        <dc:description />
        <dc:source>https://openclipart.org/detail/169719/checklist-by-dako</dc:source>
        <dc:creator>
          <cc:Agent>
            <dc:title>DaKo</dc:title>
          </cc:Agent>
        </dc:creator>
        <dc:subject>
          <rdf:Bag>
            <rdf:li>checklist check list paper pencil</rdf:li>
          </rdf:Bag>
        </dc:subject>
      </cc:Work>
      <cc:License
         rdf:about="http://creativecommons.org/publicdomain/zero/1.0/">
        <cc:permits
           rdf:resource="http://creativecommons.org/ns#Reproduction" />
        <cc:permits
           rdf:resource="http://creativecommons.org/ns#Distribution" />
        <cc:permits
           rdf:resource="http://creativecommons.org/ns#DerivativeWorks" />
      </cc:License>
    </rdf:RDF>
  </metadata>
  <text
     xml:space="preserve"
     style="font-weight:900;font-size:42.6667px;font-family:'Exo 2';-inkscape-font-specification:'Exo 2, Heavy';text-align:center;text-anchor:middle;fill:#000000;stroke:#000000;stroke-width:4.40315"
     x="-41.388901"
     y="-27.51251"
     id="text1"><tspan
       sodipodi:role="line"
       id="tspan1"
       x="-41.388908"
       y="-27.51251"
       style="font-style:normal;font-variant:normal;font-weight:normal;font-stretch:normal;font-family:'Exo 2';-inkscape-font-specification:'Exo 2, ';stroke:none">https://openclipart.org/detail/169719/checklist</tspan></text>
</svg>
