<?xml version="1.0" encoding="UTF-8" standalone="no"?>
<!-- Created with Inkscape (http://www.inkscape.org/) -->

<svg
   version="1.0"
   width="744.70056"
   height="753.70477"
   id="svg9105"
   inkscape:version="1.3 (0e150ed6c4, 2023-07-21)"
   sodipodi:docname="Science-Girl-BlackHair.svg"
   xmlns:inkscape="http://www.inkscape.org/namespaces/inkscape"
   xmlns:sodipodi="http://sodipodi.sourceforge.net/DTD/sodipodi-0.dtd"
   xmlns="http://www.w3.org/2000/svg"
   xmlns:svg="http://www.w3.org/2000/svg">
  <sodipodi:namedview
     id="namedview1"
     pagecolor="#505050"
     bordercolor="#ffffff"
     borderopacity="1"
     inkscape:showpageshadow="0"
     inkscape:pageopacity="0"
     inkscape:pagecheckerboard="1"
     inkscape:deskcolor="#d1d1d1"
     inkscape:zoom="0.58316369"
     inkscape:cx="1000.5767"
     inkscape:cy="539.29969"
     inkscape:current-layer="svg9105" />
  <defs
     id="defs9107" />
  <g
     transform="translate(543.77886,344.4902)"
     id="layer1">
    <path
       d="M -543.77886,-344.4902 L 200.92172,-344.4902 L 200.92172,409.21456 L -543.77886,409.21456 L -543.77886,-344.4902 z"
       id="path7328"
       style="fill:#000000;fill-opacity:0;fill-rule:nonzero;stroke:none;stroke-linecap:square;stroke-miterlimit:10" />
    <path
       d="M -174.0106,-142.21563 L -174.0106,-142.21563 C -178.35035,-215.35154 -122.2258,-278.17936 -48.652959,-282.54546 L -48.652959,-282.54546 C -13.322033,-284.64214 21.389679,-272.70114 47.846051,-249.34934 C 74.30239,-225.99755 90.3362,-193.14782 92.420259,-158.02671 L 92.420259,-158.02671 C 96.760004,-84.890799 40.635487,-22.062994 -32.937351,-17.696862 L -32.937351,-17.696862 C -106.51019,-13.330763 -169.67084,-69.079683 -174.01059,-142.21561 L -174.0106,-142.21563 z"
       id="path7482"
       style="fill:#c526dd;fill-rule:nonzero;stroke:none;stroke-linecap:square;stroke-miterlimit:10" />
    <path
       d="M -446.31304,-139.02071 L -446.31304,-139.02071 C -451.85939,-232.49108 -372.71061,-313.23417 -269.52933,-319.36545 L -269.52933,-319.36545 C -166.34802,-325.49673 -78.206826,-254.69441 -72.660508,-161.22405 L -72.660508,-161.22405 C -67.114127,-67.753684 -146.2629,12.98942 -249.4442,19.120708 L -249.4442,19.120708 C -352.62551,25.251996 -440.76669,-45.550313 -446.31304,-139.02071 L -446.31304,-139.02071 z"
       id="path7484"
       style="fill:#c526dd;fill-rule:nonzero;stroke:none;stroke-linecap:square;stroke-miterlimit:10" />
    <path
       d="M -522.88636,48.986675 L -522.88636,48.986675 C -527.22595,-24.146623 -471.10529,-86.976754 -397.53738,-91.348367 L -397.53738,-91.348367 C -362.20881,-93.447644 -327.49939,-81.509677 -301.04476,-58.160633 C -274.59009,-34.811573 -258.5573,-1.964094 -256.47335,33.155753 L -256.47335,33.155753 C -252.13379,106.28908 -308.25441,169.1192 -381.82235,173.4908 L -381.82235,173.4908 C -455.39026,177.86234 -518.54678,122.11997 -522.88636,48.986675 L -522.88636,48.986675 z"
       id="path7486"
       style="fill:#c526dd;fill-rule:nonzero;stroke:none;stroke-linecap:square;stroke-miterlimit:10" />
    <path
       d="M -197.30426,213.74392 L -197.30426,213.74392 C -202.16696,131.79453 -136.03761,61.197624 -49.600173,56.061289 L -49.600173,56.061289 C -8.0914647,53.594749 32.644826,66.862331 63.647128,92.945352 C 94.649383,119.02834 113.37819,155.79016 115.71336,195.14363 L 115.71336,195.14363 C 120.57609,277.09302 54.446691,347.68991 -31.990711,352.82626 L -31.990711,352.82626 C -118.42816,357.96256 -192.44153,295.69326 -197.30426,213.74392 L -197.30426,213.74392 z"
       id="path7488"
       style="fill:#c526dd;fill-rule:nonzero;stroke:none;stroke-linecap:square;stroke-miterlimit:10" />
    <path
       d="M -92.561045,17.381604 L -92.561045,17.381604 C -96.900647,-55.751694 -40.780018,-118.58181 32.787913,-122.95341 L 32.787913,-122.95341 C 68.116496,-125.05271 102.82593,-113.11472 129.28056,-89.765688 C 155.7352,-66.416628 171.76799,-33.569149 173.85194,1.5507142 L 173.85194,1.5507142 C 178.19154,74.683981 122.07086,137.51414 48.502979,141.88574 L 48.502979,141.88574 C -25.064952,146.25729 -88.221492,90.514935 -92.561045,17.381604 L -92.561045,17.381604 z"
       id="path7490"
       style="fill:#c526dd;fill-rule:nonzero;stroke:none;stroke-linecap:square;stroke-miterlimit:10" />
    <path
       d="M -367.34558,245.21127 L -367.34558,245.21127 C -372.32294,161.32978 -306.65172,89.188331 -220.66482,84.078765 L -220.66482,84.078765 C -179.37245,81.625116 -138.82178,95.273585 -107.93353,122.02172 C -77.045299,148.76988 -58.349645,186.42666 -55.959397,226.70794 L -55.959397,226.70794 C -50.982052,310.58943 -116.65328,382.73088 -202.64018,387.84045 L -202.64018,387.84045 C -288.6271,392.95001 -362.36822,329.09276 -367.34558,245.21127 L -367.34558,245.21127 z"
       id="path7492"
       style="fill:#c526dd;fill-rule:nonzero;stroke:none;stroke-linecap:square;stroke-miterlimit:10" />
    <path
       d="M -299.78972,41.609474 L -299.78972,41.609474 C -305.33606,-51.860923 -226.18729,-132.60403 -123.00598,-138.7353 L -123.00598,-138.7353 C -19.824712,-144.86659 68.316468,-74.064262 73.862802,19.406118 L 73.862802,19.406118 C 79.409167,112.87651 0.26038952,193.61962 -102.92087,199.75088 L -102.92087,199.75088 C -206.10219,205.88218 -294.24337,135.07985 -299.78972,41.609474 L -299.78972,41.609474 z"
       id="path7494"
       style="fill:#c526dd;fill-rule:nonzero;stroke:none;stroke-linecap:square;stroke-miterlimit:10" />
    <path
       d="M -162.36471,280.79647 C -168.20413,285.99973 -165.59382,298.12035 -156.37942,301.61215 C -147.16504,305.10395 -118.06486,303.4021 -107.07832,301.74728 C -96.091772,300.09246 -92.263143,295.73759 -90.460159,291.68324 C -88.657176,287.62887 -91.113263,280.96948 -96.260402,277.42104 C -101.40751,273.87264 -110.32547,269.83007 -121.34284,270.39262 C -132.36027,270.95518 -156.52528,275.59326 -162.36471,280.79647 L -162.36471,280.79647 z"
       id="path7496"
       style="fill:#000000;fill-rule:nonzero;stroke:none;stroke-linecap:square;stroke-miterlimit:10" />
    <path
       d="M -158.51069,275.76642 C -163.72786,279.08248 -163.96842,286.68144 -157.81992,288.80511 C -151.67146,290.92879 -129.9869,289.63361 -121.61978,288.50834 C -113.25271,287.38303 -109.66404,284.61581 -107.61725,282.05324 C -105.5705,279.49065 -106.18923,275.32348 -109.33912,273.1327 C -112.48907,270.94196 -118.3217,268.46978 -126.51693,268.90873 C -134.7122,269.34768 -153.29354,272.45031 -158.51069,275.76642 L -158.51069,275.76642 z"
       id="path7498"
       style="fill:#ffffff;fill-rule:nonzero;stroke:none;stroke-linecap:square;stroke-miterlimit:10" />
    <path
       d="M -200.35945,270.52802 C -193.71635,274.4912 -194.00553,286.87169 -202.31682,292.08165 C -210.62814,297.29168 -239.23801,301.27557 -250.22728,301.78801 C -261.21653,302.30043 -265.7471,298.77787 -268.25241,295.15624 C -270.75772,291.53465 -269.60521,284.5341 -265.25901,280.05844 C -260.91285,275.58278 -252.99196,269.89077 -242.17537,268.30237 C -231.35877,266.71398 -207.00252,266.5648 -200.35945,270.52802 L -200.35945,270.52802 z"
       id="path7500"
       style="fill:#000000;fill-rule:nonzero;stroke:none;stroke-linecap:square;stroke-miterlimit:10" />
    <path
       d="M -205.03998,266.34891 C -199.35207,268.58423 -197.70827,275.98159 -203.29243,279.25597 C -208.87659,282.53035 -230.2008,285.47262 -238.54494,285.99506 C -246.88908,286.51755 -250.89173,284.50368 -253.35726,282.3908 C -255.82282,280.27787 -255.99443,276.07549 -253.33819,273.31771 C -250.68197,270.55989 -245.46962,267.00547 -237.4199,265.84396 C -229.37021,264.68251 -210.7279,264.11354 -205.03998,266.34891 L -205.03998,266.34891 z"
       id="path7502"
       style="fill:#ffffff;fill-rule:nonzero;stroke:none;stroke-linecap:square;stroke-miterlimit:10" />
    <path
       d="M -0.36694921,-25.187179 C 0.70931491,-28.757358 8.9802402,-36.496756 13.990553,-41.109371 C 19.000913,-45.721987 26.018579,-51.503841 29.69507,-52.862886 C 33.371545,-54.221932 36.789857,-52.267416 36.049466,-49.263644 C 35.309075,-46.259872 30.005449,-39.769463 25.252662,-34.840238 C 20.499923,-29.911014 11.802826,-21.297157 7.5329203,-19.688313 C 3.2629983,-18.07947 -1.4432133,-21.617 -0.36694921,-25.187179 L -0.36694921,-25.187179 z"
       id="path7504"
       style="fill:#f3e19f;fill-opacity:1;fill-rule:nonzero;stroke:none;stroke-linecap:square;stroke-miterlimit:10" />
    <path
       d="M 7.2475258,-24.020426 C 9.0856119,-27.533768 18.520438,-33.764899 24.217842,-37.459729 C 29.915199,-41.154544 37.733566,-45.613954 41.431822,-46.189364 C 45.130095,-46.764741 47.802375,-43.906559 46.40751,-40.91206 C 45.012613,-37.917594 38.598879,-32.311253 33.06252,-28.222517 C 27.526162,-24.133781 17.491929,-17.080024 13.189422,-16.379676 C 8.8869305,-15.679327 5.4094876,-20.507068 7.2475258,-24.020426 L 7.2475258,-24.020426 z"
       id="path7506"
       style="fill:#f3e19f;fill-opacity:1;fill-rule:nonzero;stroke:none;stroke-linecap:square;stroke-miterlimit:10" />
    <path
       d="M 9.8150719,-19.329399 C 12.321001,-22.399744 22.421472,-26.897379 28.504878,-29.548547 C 34.588331,-32.199667 42.793433,-35.254842 46.315667,-35.236231 C 49.8379,-35.217604 51.616712,-32.080098 49.638183,-29.436817 C 47.659654,-26.793569 40.472673,-22.428361 34.444543,-19.376644 C 28.416428,-16.324894 17.574403,-11.134304 13.469478,-11.126417 C 9.3646009,-11.118545 7.3091905,-16.259023 9.8150719,-19.329399 L 9.8150719,-19.329399 z"
       id="path7508"
       style="fill:#f3e19f;fill-opacity:1;fill-rule:nonzero;stroke:none;stroke-linecap:square;stroke-miterlimit:10" />
    <path
       d="M 8.1246624,-18.366394 C 11.438049,-20.637089 21.606,-21.635691 27.706678,-22.177352 C 33.807388,-22.71903 41.825186,-22.910796 44.728828,-21.616395 C 47.632487,-20.322026 47.833367,-16.430665 45.128693,-14.41109 C 42.423971,-12.391515 34.717684,-10.475289 28.500655,-9.4989627 C 22.283626,-8.5226209 11.222429,-7.0752691 7.8264411,-8.5531823 C 4.430437,-10.03108 4.8112762,-16.095699 8.1246624,-18.366394 L 8.1246624,-18.366394 z"
       id="path7510"
       style="fill:#f3e19f;fill-opacity:1;fill-rule:nonzero;stroke:none;stroke-linecap:square;stroke-miterlimit:10" />
    <path
       d="M 6.6117261,-31.541177 L 16.254524,-11.584488 L -14.049422,6.9589952 L -23.692204,-12.997678 L 6.6117261,-31.541177 z"
       id="path7512"
       style="fill:#f3e19f;fill-opacity:1;fill-rule:nonzero;stroke:none;stroke-linecap:square;stroke-miterlimit:10" />
    <path
       d="M 3.8947667,-15.036851 C 1.6209327,-17.245706 1.7314989,-26.679322 1.8661574,-32.365014 C 2.0007522,-38.050675 2.7953186,-45.754396 4.7025106,-49.150942 C 6.6097503,-52.547472 11.256082,-54.473434 13.309405,-52.74421 C 15.362664,-51.014969 16.655615,-44.380915 17.022257,-38.77553 C 17.388899,-33.170145 17.697286,-23.068352 15.509369,-19.1119 C 13.321467,-15.155448 6.1686485,-12.827996 3.8947667,-15.036851 L 3.8947667,-15.036851 z"
       id="path7514"
       style="fill:#f3e19f;fill-opacity:1;fill-rule:nonzero;stroke:none;stroke-linecap:square;stroke-miterlimit:10" />
    <path
       d="M -195.14097,14.891195 L -144.80449,14.891195 L -144.80449,46.759257 L -195.14097,46.759257 L -195.14097,14.891195 z"
       id="path7516"
       style="fill:#f3e19f;fill-opacity:1;fill-rule:nonzero;stroke:none;stroke-linecap:square;stroke-miterlimit:10" />
    <path
       d="M -302.53929,-97.638183 L -302.53929,-97.638183 C -302.53929,-162.06616 -246.9622,-214.29537 -178.40443,-214.29537 L -178.40443,-214.29537 C -145.48179,-214.29537 -113.90761,-202.00473 -90.627817,-180.12727 C -67.347975,-158.24982 -54.269513,-128.57759 -54.269513,-97.638183 L -54.269513,-97.638183 C -54.269513,-33.210219 -109.84659,19.018985 -178.40443,19.018985 L -178.40443,19.018985 C -246.9622,19.018985 -302.53929,-33.210219 -302.53929,-97.638183 L -302.53929,-97.638183 z"
       id="path7518"
       style="fill:#f3e19f;fill-opacity:1;fill-rule:nonzero;stroke:none;stroke-linecap:square;stroke-miterlimit:10" />
    <path
       d="M -127.50294,180.63858 L -127.50294,284.92493 L -166.54761,284.87476 L -166.54761,180.5884 L -127.50294,180.63858 z"
       id="path7520"
       style="fill:#0b5394;fill-rule:nonzero;stroke:none;stroke-linecap:square;stroke-miterlimit:10" />
    <path
       d="M -181.65784,176.9249 L -192.19688,280.6592 L -229.83632,276.79486 L -219.29727,173.06058 L -181.65784,176.9249 z"
       id="path7522"
       style="fill:#0b5394;fill-rule:nonzero;stroke:none;stroke-linecap:square;stroke-miterlimit:10" />
    <path
       d="M -289.69589,-126.93422 L -285.41754,-79.847279 L -261.87198,-148.33852 L -255.45237,-114.09499 L -214.78504,-159.04066 L -219.06339,-126.93422 L -176.25478,-167.60155 L -94.920158,-135.49927 L -107.76358,-163.32318 L -58.535356,-94.82777 L -64.954954,-148.33852 L -129.16787,-197.56672 L -197.65909,-197.56672 L -261.87198,-169.74281 L -289.69589,-126.93422 z"
       id="path7524"
       style="fill:#000000;fill-opacity:1;fill-rule:nonzero;stroke:none;stroke-linecap:square;stroke-miterlimit:10" />
    <path
       d="M -166.53963,-188.26979 L -167.33424,-210.57743 L -172.11445,-216.95104 L -185.66047,-222.52586 L -209.56151,-220.13785 L -248.5978,-204.20382 L -267.71864,-189.86319 L -286.04486,-168.35016 L -304.36691,-129.31387 L -306.7591,-99.039214 L -300.38549,-32.910898 L -283.65267,51.539466 L -278.87246,24.451613 L -270.11083,41.979048 L -270.11083,14.092406 L -261.34503,20.466018 L -285.24607,-75.932782 L -285.24607,-130.10849 L -227.88356,-181.09739 L -166.53963,-188.26979 z"
       id="path7526"
       style="fill:#fff551;fill-rule:nonzero;stroke:none;stroke-linecap:square;stroke-miterlimit:10" />
    <path
       d="M -166.53963,-188.26979 L -167.33424,-210.57743 L -172.11445,-216.95104 L -185.66047,-222.52586 L -209.56151,-220.13785 L -248.5978,-204.20382 L -267.71864,-189.86319 L -286.04486,-168.35016 L -304.36691,-129.31387 L -306.7591,-99.039214 L -300.38549,-32.910898 L -283.65267,51.539466 L -278.87246,24.451613 L -270.11083,41.979048 L -270.11083,14.092406 L -261.34503,20.466018 L -285.24607,-75.932782 L -285.24607,-130.10849 L -227.88356,-181.09739 L -166.53963,-188.26979 z"
       id="path7528"
       style="fill:#1a1a1a;fill-rule:nonzero;stroke:#000000;stroke-width:12.74722481;stroke-linecap:butt;stroke-miterlimit:8;stroke-opacity:1" />
    <path
       d="M -173.77859,-190.16132 L -173.10136,-212.87942 L -169.02719,-219.37029 L -157.4819,-225.04769 L -137.11103,-222.61574 L -103.84041,-206.38853 L -87.543722,-191.78403 L -71.924292,-169.87516 L -56.308384,-130.12061 L -54.269561,-99.2889 L -59.701759,-31.943814 L -73.963179,54.060437 L -78.03732,26.474152 L -85.504835,44.324091 L -85.504835,15.924326 L -92.975968,22.415228 L -72.605074,-75.7573 L -72.605074,-130.92982 L -121.49514,-182.85693 L -173.77859,-190.16132 z"
       id="path7530"
       style="fill:#fff551;fill-rule:nonzero;stroke:none;stroke-linecap:square;stroke-miterlimit:10" />
    <path
       d="M -173.77859,-190.16132 L -173.10136,-212.87942 L -169.02719,-219.37029 L -157.4819,-225.04769 L -137.11103,-222.61574 L -103.84041,-206.38853 L -87.543722,-191.78403 L -71.924292,-169.87516 L -56.308384,-130.12061 L -54.269561,-99.2889 L -59.701759,-31.943814 L -73.963179,54.060437 L -78.03732,26.474152 L -85.504835,44.324091 L -85.504835,15.924326 L -92.975968,22.415228 L -72.605074,-75.7573 L -72.605074,-130.92982 L -121.49514,-182.85693 L -173.77859,-190.16132 z"
       id="path7532"
       style="fill:#1a1a1a;fill-rule:nonzero;stroke:#000000;stroke-width:12.74722481;stroke-linecap:butt;stroke-miterlimit:8;stroke-opacity:1" />
    <path
       d="M -152.199,-88.680007 L -152.199,-88.680007 C -152.199,-97.480117 -144.88533,-104.61404 -135.86348,-104.61404 L -135.86348,-104.61404 C -131.53103,-104.61404 -127.37601,-102.93528 -124.31253,-99.947056 C -121.24904,-96.958835 -119.52794,-92.905967 -119.52794,-88.680007 L -119.52794,-88.680007 C -119.52794,-79.879864 -126.8416,-72.745976 -135.86348,-72.745976 L -135.86348,-72.745976 C -144.88534,-72.745976 -152.199,-79.879864 -152.199,-88.680007 L -152.199,-88.680007 z"
       id="path7534"
       style="fill:#000000;fill-rule:nonzero;stroke:none;stroke-linecap:square;stroke-miterlimit:10" />
    <path
       d="M -137.06377,-88.680007 L -137.06377,-88.680007 C -137.06377,-91.992166 -134.38996,-94.677225 -131.09165,-94.677225 L -131.09165,-94.677225 C -129.50773,-94.677225 -127.98872,-94.045361 -126.8687,-92.920674 C -125.74873,-91.795986 -125.11954,-90.270558 -125.11954,-88.680007 L -125.11954,-88.680007 C -125.11954,-85.367847 -127.79334,-82.682788 -131.09165,-82.682788 L -131.09165,-82.682788 C -134.38996,-82.682788 -137.06377,-85.367847 -137.06377,-88.680007 L -137.06377,-88.680007 z"
       id="path7536"
       style="fill:#ffffff;fill-rule:nonzero;stroke:none;stroke-linecap:square;stroke-miterlimit:10" />
    <path
       d="M -219.12193,-88.680007 L -219.12193,-88.680007 C -219.12193,-97.480117 -211.80826,-104.61404 -202.78641,-104.61404 L -202.78641,-104.61404 C -198.45396,-104.61404 -194.29897,-102.93528 -191.23546,-99.947056 C -188.17194,-96.958835 -186.45089,-92.905967 -186.45089,-88.680007 L -186.45089,-88.680007 C -186.45089,-79.879864 -193.76456,-72.745976 -202.78641,-72.745976 L -202.78641,-72.745976 C -211.80826,-72.745976 -219.12193,-79.879864 -219.12193,-88.680007 L -219.12193,-88.680007 z"
       id="path7538"
       style="fill:#000000;fill-rule:nonzero;stroke:none;stroke-linecap:square;stroke-miterlimit:10" />
    <path
       d="M -203.9867,-88.680007 L -203.9867,-88.680007 C -203.9867,-91.992166 -201.31289,-94.677225 -198.01458,-94.677225 L -198.01458,-94.677225 C -196.43068,-94.677225 -194.91164,-94.045361 -193.79167,-92.920674 C -192.67166,-91.795986 -192.04246,-90.270558 -192.04246,-88.680007 L -192.04246,-88.680007 C -192.04246,-85.367847 -194.71627,-82.682788 -198.01458,-82.682788 L -198.01458,-82.682788 C -201.31289,-82.682788 -203.9867,-85.367847 -203.9867,-88.680007 z"
       id="path7540"
       style="fill:#ffffff;fill-rule:nonzero;stroke:none;stroke-linecap:square;stroke-miterlimit:10" />
    <path
       d="M -184.06706,-65.577749 L -152.199,-64.969228 L -154.59119,-58.294622 L -161.75942,-52.830668 L -172.11863,-52.830668 L -180.08564,-56.472231 L -184.06706,-65.577749 z"
       id="path7542"
       style="fill:#ddb374;fill-rule:nonzero;stroke:none;stroke-linecap:square;stroke-miterlimit:10" />
    <path
       d="M -226.7721,-102.61182 L -230.82889,-111.01074 L -213.48606,-121.58004 L -185.19295,-126.8597 L -211.17609,-114.60946 L -226.7721,-102.61182 z"
       id="path7544"
       style="fill:#fff551;fill-rule:nonzero;stroke:none;stroke-linecap:square;stroke-miterlimit:10" />
    <path
       d="M -108.38253,-104.61404 L -105.19573,-113.37984 L -123.51773,-122.14147 L -152.199,-124.53366 L -125.11113,-114.97325 L -108.38253,-104.61404 z"
       id="path7546"
       style="fill:#fff551;fill-rule:nonzero;stroke:none;stroke-linecap:square;stroke-miterlimit:10" />
    <path
       d="M -232.75137,-30.68791 C -242.45761,-25.664515 -193.92651,-5.5730087 -174.51408,-6.5781273 C -155.10166,-7.5832301 -106.57061,-32.700234 -116.27681,-36.71851 C -125.98301,-40.736802 -223.04514,-35.711304 -232.75137,-30.68791 L -232.75137,-30.68791 z"
       id="path7548"
       style="fill:#ffffff;fill-rule:nonzero;stroke:none;stroke-linecap:square;stroke-miterlimit:10" />
    <path
       d="M -232.75137,-30.68791 C -242.45761,-25.664515 -193.92651,-5.5730087 -174.51408,-6.5781273 C -155.10166,-7.5832301 -106.57061,-32.700234 -116.27681,-36.71851 C -125.98301,-40.736802 -223.04514,-35.711304 -232.75137,-30.68791 L -232.75137,-30.68791 z"
       id="path7550"
       style="fill:none;fill-rule:nonzero;stroke:#ddb374;stroke-width:3.1868062;stroke-linecap:butt;stroke-linejoin:round;stroke-miterlimit:10" />
    <path
       d="M -245.5632,-54.842068 L -245.5632,-54.842068 C -245.5632,-55.928753 -244.48813,-56.809698 -243.16199,-56.809698 L -243.16199,-56.809698 C -241.83581,-56.809698 -240.76074,-55.928753 -240.76074,-54.842068 L -240.76074,-54.842068 C -240.76074,-53.755399 -241.83581,-52.874454 -243.16199,-52.874454 L -243.16199,-52.874454 C -244.48813,-52.874454 -245.5632,-53.755399 -245.5632,-54.842068 z"
       id="path7552"
       style="fill:#ddb374;fill-rule:nonzero;stroke:none;stroke-linecap:square;stroke-miterlimit:10" />
    <path
       d="M -234.23131,-46.288123 L -234.23131,-46.288123 C -234.23131,-47.374808 -233.15624,-48.255737 -231.83007,-48.255737 L -231.83007,-48.255737 C -230.50393,-48.255737 -229.42886,-47.374808 -229.42886,-46.288123 L -229.42886,-46.288123 C -229.42886,-45.201438 -230.50393,-44.320509 -231.83007,-44.320509 L -231.83007,-44.320509 C -233.15624,-44.320509 -234.23131,-45.201438 -234.23131,-46.288123 z"
       id="path7554"
       style="fill:#ddb374;fill-rule:nonzero;stroke:none;stroke-linecap:square;stroke-miterlimit:10" />
    <path
       d="M -224.05479,-59.270725 L -224.05479,-59.270725 C -223.15872,-59.945595 -221.76405,-59.68595 -220.93968,-58.690774 L -220.93968,-58.690774 C -220.11531,-57.695598 -220.17342,-56.341763 -221.06947,-55.666877 L -221.06947,-55.666877 C -221.96553,-54.991976 -223.36021,-55.251621 -224.18457,-56.246796 L -224.18457,-56.246796 C -225.00895,-57.241972 -224.95084,-58.595839 -224.05479,-59.270725 L -224.05479,-59.270725 z"
       id="path7556"
       style="fill:#ddb374;fill-rule:nonzero;stroke:none;stroke-linecap:square;stroke-miterlimit:10" />
    <path
       d="M -212.93758,-52.47749 L -212.93758,-52.47749 C -212.93758,-53.564175 -211.86251,-54.445104 -210.53634,-54.445104 L -210.53634,-54.445104 C -209.2102,-54.445104 -208.13513,-53.564175 -208.13513,-52.47749 L -208.13513,-52.47749 C -208.13513,-51.390805 -209.2102,-50.509876 -210.53634,-50.509876 L -210.53634,-50.509876 C -211.86251,-50.509876 -212.93758,-51.390805 -212.93758,-52.47749 z"
       id="path7558"
       style="fill:#ddb374;fill-rule:nonzero;stroke:none;stroke-linecap:square;stroke-miterlimit:10" />
    <path
       d="M -239.03373,-64.649066 L -239.03373,-64.649066 C -239.03373,-65.735751 -237.95866,-66.61668 -236.63252,-66.61668 L -236.63252,-66.61668 C -235.30636,-66.61668 -234.2313,-65.735751 -234.2313,-64.649066 L -234.2313,-64.649066 C -234.2313,-63.562381 -235.30636,-62.681452 -236.63252,-62.681452 L -236.63252,-62.681452 C -237.95866,-62.681452 -239.03373,-63.562381 -239.03373,-64.649066 z"
       id="path7560"
       style="fill:#ddb374;fill-rule:nonzero;stroke:none;stroke-linecap:square;stroke-miterlimit:10" />
    <path
       d="M -257.77623,-49.413997 L -257.77623,-49.413997 C -258.1705,-50.432054 -257.48284,-51.618996 -256.2403,-52.065101 L -256.2403,-52.065101 C -254.9978,-52.511206 -253.67091,-52.047574 -253.27665,-51.029533 L -253.27665,-51.029533 C -252.88238,-50.011476 -253.57003,-48.82455 -254.81255,-48.378413 L -254.81255,-48.378413 C -256.05509,-47.932308 -257.38196,-48.39594 -257.77623,-49.413997 L -257.77623,-49.413997 z"
       id="path7562"
       style="fill:#ddb374;fill-rule:nonzero;stroke:none;stroke-linecap:square;stroke-miterlimit:10" />
    <path
       d="M -97.602222,-57.95126 L -97.602222,-57.95126 C -97.727145,-56.871825 -98.814977,-56.110863 -100.03191,-56.251609 L -100.03191,-56.251609 C -101.24884,-56.392354 -102.1341,-57.381523 -102.00913,-58.460973 L -102.00913,-58.460973 C -101.88421,-59.540408 -100.79637,-60.30137 -99.579444,-60.160625 L -99.579444,-60.160625 C -98.362499,-60.019863 -97.477252,-59.030695 -97.602222,-57.95126 z"
       id="path7564"
       style="fill:#ddb374;fill-rule:nonzero;stroke:none;stroke-linecap:square;stroke-miterlimit:10" />
    <path
       d="M -107.01735,-67.650926 L -107.01735,-67.650926 C -107.14233,-66.571491 -108.23011,-65.810529 -109.44709,-65.951275 L -109.44709,-65.951275 C -110.66402,-66.09202 -111.54923,-67.081189 -111.42431,-68.16064 L -111.42431,-68.16064 C -111.29939,-69.240075 -110.21155,-70.001036 -108.99462,-69.860291 L -108.99462,-69.860291 C -107.77768,-69.71953 -106.89243,-68.730361 -107.01735,-67.650926 L -107.01735,-67.650926 z"
       id="path7566"
       style="fill:#ddb374;fill-rule:nonzero;stroke:none;stroke-linecap:square;stroke-miterlimit:10" />
    <path
       d="M -117.84843,-55.83495 L -117.84843,-55.83495 C -118.74832,-55.259651 -119.99827,-55.665603 -120.64035,-56.741628 L -120.64035,-56.741628 C -121.28236,-57.817653 -121.07342,-59.156335 -120.17353,-59.731617 L -120.17353,-59.731617 C -119.27368,-60.306915 -118.02374,-59.90098 -117.38166,-58.824939 L -117.38166,-58.824939 C -116.7396,-57.748898 -116.94859,-56.410232 -117.84843,-55.83495 L -117.84843,-55.83495 z"
       id="path7568"
       style="fill:#ddb374;fill-rule:nonzero;stroke:none;stroke-linecap:square;stroke-miterlimit:10" />
    <path
       d="M -127.26903,-63.762847 L -127.26903,-63.762847 C -127.39395,-62.683412 -128.48178,-61.922451 -129.69871,-62.063196 L -129.69871,-62.063196 C -130.91564,-62.203941 -131.80091,-63.19311 -131.67594,-64.272561 L -131.67594,-64.272561 C -131.55101,-65.351996 -130.46318,-66.112957 -129.24625,-65.972212 L -129.24625,-65.972212 C -128.02931,-65.831451 -127.14406,-64.842282 -127.26903,-63.762847 z"
       id="path7570"
       style="fill:#ddb374;fill-rule:nonzero;stroke:none;stroke-linecap:square;stroke-miterlimit:10" />
    <path
       d="M -104.72147,-48.90261 L -104.72147,-48.90261 C -104.84639,-47.823175 -105.93422,-47.062214 -107.15115,-47.202959 L -107.15115,-47.202959 C -108.36808,-47.343704 -109.25335,-48.332873 -109.12842,-49.412324 L -109.12842,-49.412324 C -109.00345,-50.491759 -107.91567,-51.252721 -106.69869,-51.111975 L -106.69869,-51.111975 C -105.48174,-50.971214 -104.59654,-49.982045 -104.72147,-48.90261 L -104.72147,-48.90261 z"
       id="path7572"
       style="fill:#ddb374;fill-rule:nonzero;stroke:none;stroke-linecap:square;stroke-miterlimit:10" />
    <path
       d="M -134.75047,-54.307848 L -134.75047,-54.307848 C -134.87544,-53.228413 -135.96323,-52.467451 -137.18019,-52.608197 L -137.18019,-52.608197 C -138.39712,-52.748942 -139.28236,-53.738111 -139.15743,-54.817562 L -139.15743,-54.817562 C -139.03247,-55.896997 -137.94467,-56.657958 -136.72774,-56.517213 L -136.72774,-56.517213 C -135.5108,-56.376436 -134.62555,-55.387283 -134.75047,-54.307848 z"
       id="path7574"
       style="fill:#ddb374;fill-rule:nonzero;stroke:none;stroke-linecap:square;stroke-miterlimit:10" />
    <path
       d="M -85.770917,-62.046911 L -85.770917,-62.046911 C -85.526187,-60.993799 -86.293649,-59.887754 -87.485164,-59.576499 L -87.485164,-59.576499 C -88.676615,-59.265244 -89.840931,-59.866626 -90.085678,-60.919738 L -90.085678,-60.919738 C -90.330409,-61.97285 -89.56293,-63.078895 -88.371431,-63.39015 L -88.371431,-63.39015 C -87.179932,-63.701421 -86.015664,-63.100023 -85.770917,-62.046911 z"
       id="path7576"
       style="fill:#ddb374;fill-rule:nonzero;stroke:none;stroke-linecap:square;stroke-miterlimit:10" />
    <path
       d="M -177.3404,66.291877 L -9.7695572,-25.849493 L 5.5873114,2.1542475 L -161.9835,94.295618 L -177.3404,66.291877 z"
       id="path7578"
       style="fill:#ffffff;fill-rule:nonzero;stroke:none;stroke-linecap:square;stroke-miterlimit:10" />
    <path
       d="M -171.83006,83.871782 L -172.63304,187.15439"
       id="path7580"
       style="fill:#000000;fill-opacity:0;fill-rule:nonzero;stroke:none;stroke-linecap:square;stroke-miterlimit:10" />
    <path
       d="M -171.83006,83.871782 L -172.63304,187.15439"
       id="path7582"
       style="fill:none;fill-rule:nonzero;stroke:#d156d7;stroke-width:3.1868062;stroke-linecap:butt;stroke-linejoin:round;stroke-miterlimit:10" />
    <path
       d="M -147.27691,198.30819 L -192.67365,198.30819 L -192.67365,198.30819 C -203.37122,198.30819 -213.6306,194.05865 -221.19492,186.4943 C -228.75921,178.93002 -233.00882,168.67059 -233.00882,157.97304 L -233.00882,28.228122 C -233.00882,28.227533 -233.00833,28.227055 -233.00774,28.227055 L -106.94178,28.228122 L -106.94178,28.228122 C -106.94121,28.228122 -106.94071,28.228584 -106.94071,28.229158 L -106.94178,157.97304 L -106.94178,157.97304 C -106.94178,180.24957 -125.00042,198.30819 -147.27691,198.30819 L -147.27691,198.30819 z"
       id="path7584"
       style="fill:#ffffff;fill-rule:nonzero;stroke:none;stroke-linecap:square;stroke-miterlimit:10" />
    <path
       d="M -145.58281,26.264587 L -169.97319,93.965369 L -194.36354,26.264587 L -145.58281,26.264587 z"
       id="path7586"
       style="fill:#f3e19f;fill-opacity:1;fill-rule:nonzero;stroke:none;stroke-linecap:square;stroke-miterlimit:10" />
    <path
       d="M -151.29532,26.827107 L -120.33062,34.806694 L -166.50167,85.745417 L -151.29532,26.827107 z"
       id="path7588"
       style="fill:#b7b7b7;fill-rule:nonzero;stroke:none;stroke-linecap:square;stroke-miterlimit:10" />
    <path
       d="M -151.29532,26.827107 L -120.33062,34.806694 L -166.50167,85.745417 L -151.29532,26.827107 z"
       id="path7590"
       style="fill:none;fill-rule:nonzero;stroke:#b7b7b7;stroke-width:3.1868062;stroke-linecap:butt;stroke-linejoin:round;stroke-miterlimit:10" />
    <path
       d="M -156.4481,46.759257 L -169.9732,94.987952 L -183.49831,46.759257 L -156.4481,46.759257 z"
       id="path7592"
       style="fill:#84f245;fill-rule:nonzero;stroke:none;stroke-linecap:square;stroke-miterlimit:10" />
    <path
       d="M -269.87244,-124.22003 L -269.87244,-124.22003 C -268.09855,-168.28992 -223.73351,-202.29676 -170.78033,-200.17641 C -117.82718,-198.05606 -76.338146,-160.61148 -78.11205,-116.54157 C -90.045763,-151.78591 -127.86098,-176.89509 -171.64688,-178.64836 C -215.43277,-180.40163 -255.14442,-158.39678 -269.87244,-124.22003 L -269.87244,-124.22003 z"
       id="path7594"
       style="fill:#84f245;fill-rule:nonzero;stroke:none;stroke-linecap:square;stroke-miterlimit:10" />
    <path
       d="M -170.45414,87.280294 L -170.90581,179.47181"
       id="path7596"
       style="fill:#000000;fill-opacity:0;fill-rule:nonzero;stroke:none;stroke-linecap:square;stroke-miterlimit:10" />
    <path
       d="M -170.45414,87.280294 L -170.90581,179.47181"
       id="path7598"
       style="fill:none;fill-rule:nonzero;stroke:#b7b7b7;stroke-width:6.3736124;stroke-linecap:round;stroke-linejoin:round;stroke-miterlimit:10" />
    <path
       d="M -78.32606,-94.774184 C -75.819988,-86.570739 -76.655345,-81.375241 -78.32606,-76.726472 C -79.996775,-72.077702 -80.470064,-70.151756 -88.350382,-66.881551 C -96.230685,-63.611362 -112.53827,-56.615 -125.60784,-57.105242 C -138.67746,-57.595437 -155.48355,-69.596152 -166.76801,-69.822846 C -178.05244,-70.049523 -184.81808,-60.584996 -193.31454,-58.465371 C -201.81101,-56.345779 -207.68891,-57.331904 -217.74684,-57.105242 C -227.80473,-56.878533 -246.11408,-53.555618 -253.66207,-57.105242 C -261.21002,-60.654819 -263.46199,-68.001682 -263.03461,-78.402828 C -262.60722,-88.804005 -267.14221,-110.76771 -251.0978,-119.51217 C -235.05336,-128.25665 -193.05722,-129.79714 -166.76801,-130.86964 C -140.4788,-131.94213 -108.10283,-131.96308 -93.362543,-125.94717 C -78.622194,-119.93128 -80.832149,-102.97764 -78.32606,-94.774184 L -78.32606,-94.774184 z"
       id="path7600"
       style="fill:#ffffff;fill-opacity:0.3885002;fill-rule:nonzero;stroke:none;stroke-linecap:square;stroke-miterlimit:10" />
    <path
       d="M -78.32606,-94.774184 C -75.819988,-86.570739 -76.655345,-81.375241 -78.32606,-76.726472 C -79.996775,-72.077702 -80.470064,-70.151756 -88.350382,-66.881551 C -96.230685,-63.611362 -112.53827,-56.615 -125.60784,-57.105242 C -138.67746,-57.595437 -155.48355,-69.596152 -166.76801,-69.822846 C -178.05244,-70.049523 -184.81808,-60.584996 -193.31454,-58.465371 C -201.81101,-56.345779 -207.68891,-57.331904 -217.74684,-57.105242 C -227.80473,-56.878533 -246.11408,-53.555618 -253.66207,-57.105242 C -261.21002,-60.654819 -263.46199,-68.001682 -263.03461,-78.402828 C -262.60722,-88.804005 -267.14221,-110.76771 -251.0978,-119.51217 C -235.05336,-128.25665 -193.05722,-129.79714 -166.76801,-130.86964 C -140.4788,-131.94213 -108.10283,-131.96308 -93.362543,-125.94717 C -78.622194,-119.93128 -80.832149,-102.97764 -78.32606,-94.774184 L -78.32606,-94.774184 z"
       id="path7602"
       style="fill:none;fill-rule:nonzero;stroke:#666666;stroke-width:12.74722481;stroke-linecap:butt;stroke-linejoin:round;stroke-miterlimit:10" />
    <path
       d="M 14.026341,-98.658869 L 25.879953,-42.170355 L 8.7047727,35.527422 L 31.154834,38.593783 L 62.621439,35.597373 L 94.634851,26.284059 L 111.03478,14.452276 L 63.408468,-48.922161 L 50.583676,-106.12285 L 14.026341,-98.658869 z"
       id="path7604"
       style="fill:#efefef;fill-rule:nonzero;stroke:none;stroke-linecap:square;stroke-miterlimit:10" />
    <path
       d="M 14.026341,-98.658869 L 25.879953,-42.170355 L 8.7047727,35.527422 L 31.154834,38.593783 L 62.621439,35.597373 L 94.634851,26.284059 L 111.03478,14.452276 L 63.408468,-48.922161 L 50.583676,-106.12285 L 14.026341,-98.658869 z"
       id="path7606"
       style="fill:none;fill-rule:nonzero;stroke:#999999;stroke-width:6.3736124;stroke-linecap:butt;stroke-linejoin:round;stroke-miterlimit:10" />
    <path
       d="M 40.558446,-25.409013 L 24.128134,-27.782562 L 8.7047727,35.527422 L 31.15485,38.593783 L 62.621454,35.597373 L 94.634851,26.284059 L 111.03478,14.452276 L 70.321304,-37.869091 L 60.799844,-29.939616 L 40.558446,-25.409013 z"
       id="path7608"
       style="fill:#29d726;fill-rule:nonzero;stroke:none;stroke-linecap:square;stroke-miterlimit:10" />
    <path
       d="M 14.026341,-98.658869 L 25.879953,-42.170355 L 8.7047727,35.527422 L 31.154834,38.593783 L 62.621439,35.597373 L 94.634851,26.284059 L 111.03478,14.452276 L 63.408468,-48.922161 L 50.583676,-106.12285 L 14.026341,-98.658869 z"
       id="path7610"
       style="fill:#000000;fill-opacity:0;fill-rule:nonzero;stroke:none;stroke-linecap:square;stroke-miterlimit:10" />
    <path
       d="M 14.026341,-98.658869 L 25.879953,-42.170355 L 8.7047727,35.527422 L 31.154834,38.593783 L 62.621439,35.597373 L 94.634851,26.284059 L 111.03478,14.452276 L 63.408468,-48.922161 L 50.583676,-106.12285 L 14.026341,-98.658869 z"
       id="path7612"
       style="fill:none;fill-rule:nonzero;stroke:#666666;stroke-width:6.3736124;stroke-linecap:butt;stroke-linejoin:round;stroke-miterlimit:10" />
    <path
       d="M 31.701021,-37.770555 L 31.701021,-37.770555 C 31.701021,-42.357723 35.531992,-46.076328 40.257739,-46.076328 L 40.257739,-46.076328 C 42.527096,-46.076328 44.703541,-45.201262 46.308225,-43.643631 C 47.912958,-42.085984 48.814441,-39.973371 48.814441,-37.770555 L 48.814441,-37.770555 C 48.814441,-33.183386 44.983486,-29.464782 40.257739,-29.464782 L 40.257739,-29.464782 C 35.531992,-29.464782 31.701021,-33.183386 31.701021,-37.770555 L 31.701021,-37.770555 z"
       id="path7614"
       style="fill:#29d726;fill-rule:nonzero;stroke:none;stroke-linecap:square;stroke-miterlimit:10" />
    <path
       d="M 42.56368,-60.922988 L 42.56368,-60.922988 C 42.56368,-64.526183 45.563278,-67.447177 49.263478,-67.447177 L 49.263478,-67.447177 C 51.04041,-67.447177 52.744522,-66.759783 54.001,-65.536289 C 55.257462,-64.312762 55.963324,-62.653297 55.963324,-60.922988 L 55.963324,-60.922988 C 55.963324,-57.319794 52.963695,-54.398831 49.263478,-54.398831 L 49.263478,-54.398831 C 45.563278,-54.398831 42.56368,-57.319794 42.56368,-60.922988 L 42.56368,-60.922988 z"
       id="path7616"
       style="fill:#29d726;fill-rule:nonzero;stroke:none;stroke-linecap:square;stroke-miterlimit:10" />
    <path
       d="M 25.445751,-83.619582 L 25.445751,-83.619582 C 25.445751,-86.488297 27.805023,-88.813821 30.715294,-88.813821 L 30.715294,-88.813821 C 32.112868,-88.813821 33.453175,-88.266582 34.44142,-87.292455 C 35.429616,-86.318376 35.984838,-84.997174 35.984838,-83.619582 L 35.984838,-83.619582 C 35.984838,-80.750898 33.625549,-78.425342 30.715294,-78.425342 L 30.715294,-78.425342 C 27.805023,-78.425342 25.445751,-80.750898 25.445751,-83.619582 L 25.445751,-83.619582 z"
       id="path7618"
       style="fill:#29d726;fill-rule:nonzero;stroke:none;stroke-linecap:square;stroke-miterlimit:10" />
    <path
       d="M -348.67011,-26.211642 C -349.88385,-30.176523 -359.11576,-38.777633 -364.70791,-43.903898 C -370.30003,-49.030178 -378.1293,-55.456628 -382.22288,-56.969293 C -386.31647,-58.481943 -390.10705,-56.315472 -389.26944,-52.979794 C -388.43184,-49.644116 -382.50458,-42.43274 -377.19724,-36.955226 C -371.88991,-31.477712 -362.18004,-21.905295 -357.42551,-20.114692 C -352.67099,-18.324105 -347.45638,-22.246777 -348.67011,-26.211642 L -348.67011,-26.211642 z"
       id="path7620"
       style="fill:#cc8c44;fill-rule:nonzero;stroke:none;stroke-linecap:square;stroke-miterlimit:10" />
    <path
       d="M -357.12922,-24.924109 C -359.18952,-28.826655 -369.70807,-35.754438 -376.05952,-39.862438 C -382.41098,-43.970454 -391.12391,-48.929507 -395.23795,-49.572142 C -399.35198,-50.214762 -402.30883,-47.044224 -400.7437,-43.718203 C -399.17857,-40.392181 -392.0215,-34.161162 -385.84716,-29.615996 C -379.67283,-25.070813 -368.48398,-17.229119 -363.69767,-16.447124 C -358.91134,-15.665146 -355.06892,-21.021562 -357.12922,-24.924109 L -357.12922,-24.924109 z"
       id="path7622"
       style="fill:#cc8c44;fill-rule:nonzero;stroke:none;stroke-linecap:square;stroke-miterlimit:10" />
    <path
       d="M -359.96078,-19.718556 C -362.76136,-23.129969 -374.01145,-28.133844 -380.78702,-31.083488 C -387.56257,-34.033164 -396.6987,-37.433566 -400.61413,-37.416532 C -404.52956,-37.399483 -406.49182,-33.917897 -404.27959,-30.981207 C -402.06735,-28.044518 -394.05671,-23.190709 -387.3407,-19.79633 C -380.6247,-16.401983 -368.54689,-10.628 -363.98356,-10.61503 C -359.42024,-10.602076 -357.16021,-16.30716 -359.96078,-19.718556 L -359.96078,-19.718556 z"
       id="path7624"
       style="fill:#cc8c44;fill-rule:nonzero;stroke:none;stroke-linecap:square;stroke-miterlimit:10" />
    <path
       d="M -358.07694,-18.647678 C -361.7713,-21.172106 -373.07945,-22.291265 -379.86401,-22.898893 C -386.64854,-23.506569 -395.56257,-23.727702 -398.7842,-22.293591 C -402.00585,-20.859513 -402.21032,-16.539366 -399.19383,-14.294389 C -396.17735,-12.04938 -387.60129,-9.9139645 -380.68529,-8.8236307 C -373.7693,-7.7332649 -361.46597,-6.1149729 -357.6979,-7.752338 C -353.92984,-9.3896712 -354.38259,-16.123249 -358.07694,-18.647678 L -358.07694,-18.647678 z"
       id="path7626"
       style="fill:#f3d79f;fill-rule:nonzero;stroke:none;stroke-linecap:square;stroke-miterlimit:10" />
    <path
       d="M -356.02646,-34.170053 L -367.09164,-11.125525 L -333.3141,9.4934143 L -322.24892,-13.551114 L -356.02646,-34.170053 z"
       id="path7628"
       style="fill:#f3d79f;fill-rule:nonzero;stroke:none;stroke-linecap:square;stroke-miterlimit:10" />
    <path
       d="M -341.27032,-27.685285 L -216.15011,36.30768 L -230.71163,64.65413 L -355.83184,0.66113316 L -341.27032,-27.685285 z"
       id="path7630"
       style="fill:#ffffff;fill-rule:nonzero;stroke:none;stroke-linecap:square;stroke-miterlimit:10" />
    <path
       d="M -370.09544,-127.93786 C -367.44293,-126.62663 -363.67066,-125.10539 -360.89749,-124.43843 C -358.12431,-123.77146 -356.12367,-123.62013 -353.45641,-123.93609 C -350.78915,-124.25205 -346.0061,-128.18318 -344.89389,-126.33415 C -343.78168,-124.48511 -345.87496,-118.26149 -346.78314,-112.84189 C -347.69132,-107.42228 -345.83664,-116.81847 -350.34298,-93.816485 C -354.8493,-70.8145 -367.7845,1.2168325 -373.82112,25.170015 C -379.85773,49.123214 -381.73928,46.582102 -386.56264,49.902707 C -391.38599,53.223279 -399.55205,49.542024 -402.76124,45.093513 C -405.97043,40.645019 -407.39152,38.823536 -405.81776,23.211643 C -404.244,7.5997982 -397.51854,-25.715807 -393.31872,-48.577636 C -389.1189,-71.439465 -383.36989,-100.00458 -380.61886,-113.95928 C -377.86784,-127.91399 -378.56648,-129.97606 -376.81256,-132.30581 C -375.05867,-134.63557 -372.74796,-129.2491 -370.09544,-127.93786 L -370.09544,-127.93786 z"
       id="path7632"
       style="fill:#efefef;fill-rule:nonzero;stroke:none;stroke-linecap:square;stroke-miterlimit:10" />
    <path
       d="M -370.09544,-127.93786 C -367.44293,-126.62663 -363.67066,-125.10539 -360.89749,-124.43843 C -358.12431,-123.77146 -356.12367,-123.62013 -353.45641,-123.93609 C -350.78915,-124.25205 -346.0061,-128.18318 -344.89389,-126.33415 C -343.78168,-124.48511 -345.87496,-118.26149 -346.78314,-112.84189 C -347.69132,-107.42228 -345.83664,-116.81847 -350.34298,-93.816485 C -354.8493,-70.8145 -367.7845,1.2168325 -373.82112,25.170015 C -379.85773,49.123214 -381.73928,46.582102 -386.56264,49.902707 C -391.38599,53.223279 -399.55205,49.542024 -402.76124,45.093513 C -405.97043,40.645019 -407.39152,38.823536 -405.81776,23.211643 C -404.244,7.5997982 -397.51854,-25.715807 -393.31872,-48.577636 C -389.1189,-71.439465 -383.36989,-100.00458 -380.61886,-113.95928 C -377.86784,-127.91399 -378.56648,-129.97606 -376.81256,-132.30581 C -375.05867,-134.63557 -372.74796,-129.2491 -370.09544,-127.93786 L -370.09544,-127.93786 z"
       id="path7634"
       style="fill:none;fill-rule:nonzero;stroke:#666666;stroke-width:6.3736124;stroke-linecap:butt;stroke-linejoin:round;stroke-miterlimit:10" />
    <path
       d="M -382.52061,-61.531939 C -379.81246,-60.518025 -375.98453,-59.294275 -373.20124,-58.681357 C -370.41796,-58.068423 -368.43253,-57.83577 -365.8209,-57.854397 C -363.20926,-57.87304 -358.75564,-60.043637 -357.53141,-58.79323 C -356.3072,-57.542823 -357.94893,-53.732486 -358.4756,-50.351954 C -359.00223,-46.971438 -357.81261,-52.813252 -360.6913,-38.510085 C -363.56999,-24.206934 -371.42327,20.66411 -375.74778,35.467032 C -380.07229,50.269954 -382.10328,48.52744 -386.63837,50.307447 C -391.17348,52.087453 -399.48652,49.19181 -402.95838,46.147103 C -406.43023,43.102413 -407.95751,41.84842 -407.46949,32.039256 C -406.98148,22.230107 -402.61596,1.5272593 -400.03029,-12.707806 C -397.44462,-26.942871 -393.71884,-44.694879 -391.95547,-53.37107 C -390.1921,-62.04723 -391.02258,-63.404746 -389.4501,-64.76489 C -387.87761,-66.125035 -385.22874,-62.545854 -382.52061,-61.531939 L -382.52061,-61.531939 z"
       id="path7636"
       style="fill:#ff951e;fill-rule:nonzero;stroke:none;stroke-linecap:square;stroke-miterlimit:10" />
    <path
       d="M -370.57005,-125.40134 C -367.91755,-124.09009 -364.14527,-122.56887 -361.3721,-121.9019 C -358.59893,-121.23494 -356.59828,-121.08361 -353.93102,-121.39957 C -351.26376,-121.71549 -346.48071,-125.64666 -345.3685,-123.79761 C -344.25629,-121.94856 -346.34958,-115.72496 -347.25775,-110.30534 C -348.16593,-104.88573 -346.31125,-114.28192 -350.81759,-91.279931 C -355.32391,-68.277946 -368.25911,3.7533709 -374.29573,27.706569 C -380.33234,51.659768 -382.21389,49.118657 -387.03725,52.439229 C -391.8606,55.759801 -400.02666,52.078562 -403.23585,47.630068 C -406.44504,43.181541 -407.86613,41.360058 -406.29237,25.748197 C -404.71861,10.136337 -397.99315,-23.179284 -393.79333,-46.041113 C -389.59351,-68.902926 -383.8445,-97.468071 -381.09347,-111.42274 C -378.34245,-125.37743 -379.04109,-127.43951 -377.28717,-129.76927 C -375.53328,-132.09905 -373.22257,-126.71256 -370.57005,-125.40134 L -370.57005,-125.40134 z"
       id="path7638"
       style="fill:#000000;fill-opacity:0;fill-rule:nonzero;stroke:none;stroke-linecap:square;stroke-miterlimit:10" />
    <path
       d="M -370.57005,-125.40134 C -367.91755,-124.09009 -364.14527,-122.56887 -361.3721,-121.9019 C -358.59893,-121.23494 -356.59828,-121.08361 -353.93102,-121.39957 C -351.26376,-121.71549 -346.48071,-125.64666 -345.3685,-123.79761 C -344.25629,-121.94856 -346.34958,-115.72496 -347.25775,-110.30534 C -348.16593,-104.88573 -346.31125,-114.28192 -350.81759,-91.279931 C -355.32391,-68.277946 -368.25911,3.7533709 -374.29573,27.706569 C -380.33234,51.659768 -382.21389,49.118657 -387.03725,52.439229 C -391.8606,55.759801 -400.02666,52.078562 -403.23585,47.630068 C -406.44504,43.181541 -407.86613,41.360058 -406.29237,25.748197 C -404.71861,10.136337 -397.99315,-23.179284 -393.79333,-46.041113 C -389.59351,-68.902926 -383.8445,-97.468071 -381.09347,-111.42274 C -378.34245,-125.37743 -379.04109,-127.43951 -377.28717,-129.76927 C -375.53328,-132.09905 -373.22257,-126.71256 -370.57005,-125.40134 L -370.57005,-125.40134 z"
       id="path7640"
       style="fill:none;fill-rule:nonzero;stroke:#666666;stroke-width:6.3736124;stroke-linecap:butt;stroke-linejoin:round;stroke-miterlimit:10" />
    <path
       d="M -377.20419,-73.187842 L -377.20419,-73.187842 C -376.36048,-77.69703 -372.23973,-80.709454 -368.00024,-79.916306 L -368.00024,-79.916306 C -365.96438,-79.535418 -364.17284,-78.309916 -363.01974,-76.509419 C -361.86666,-74.708937 -361.44648,-72.480929 -361.85165,-70.315526 L -361.85165,-70.315526 C -362.69536,-65.806339 -366.81611,-62.793915 -371.05559,-63.587095 L -371.05559,-63.587095 C -375.29507,-64.380243 -378.04789,-68.678655 -377.20419,-73.187842 L -377.20419,-73.187842 z"
       id="path7642"
       style="fill:#ff951e;fill-rule:nonzero;stroke:none;stroke-linecap:square;stroke-miterlimit:10" />
    <path
       d="M -379.70707,-89.654898 L -379.70707,-89.654898 C -379.17943,-92.47484 -376.63521,-94.364871 -374.02437,-93.876413 L -374.02437,-93.876413 C -372.77062,-93.641864 -371.66885,-92.878958 -370.96149,-91.75553 C -370.2541,-90.632101 -369.99904,-89.240215 -370.25242,-87.88603 L -370.25242,-87.88603 C -370.78006,-85.066089 -373.3243,-83.176026 -375.93512,-83.664484 L -375.93512,-83.664484 C -378.54594,-84.152941 -380.23471,-86.834926 -379.70707,-89.654898 L -379.70707,-89.654898 z"
       id="path7644"
       style="fill:#ff951e;fill-rule:nonzero;stroke:none;stroke-linecap:square;stroke-miterlimit:10" />
    <path
       d="M -367.68786,-101.59236 L -367.68786,-101.59236 C -367.02511,-105.13432 -363.79689,-107.50219 -360.4774,-106.88115 L -360.4774,-106.88115 C -358.88333,-106.58293 -357.48098,-105.62121 -356.57884,-104.20761 C -355.6767,-102.794 -355.34869,-101.04429 -355.66694,-99.343363 L -355.66694,-99.343363 C -356.32966,-95.801419 -359.5579,-93.433526 -362.87739,-94.054571 L -362.87739,-94.054571 C -366.19686,-94.6756 -368.35057,-98.050396 -367.68786,-101.59236 L -367.68786,-101.59236 z"
       id="path7646"
       style="fill:#ff951e;fill-rule:nonzero;stroke:none;stroke-linecap:square;stroke-miterlimit:10" />
    <path
       d="M -374.98712,-114.88049 L -374.98712,-114.88049 C -374.45948,-117.70043 -371.91525,-119.59048 -369.30443,-119.10201 L -369.30443,-119.10201 C -368.05067,-118.86746 -366.94892,-118.10455 -366.24154,-116.98112 C -365.53415,-115.8577 -365.27911,-114.46581 -365.53249,-113.11162 L -365.53249,-113.11162 C -366.06013,-110.29168 -368.60435,-108.40162 -371.21517,-108.89008 L -371.21517,-108.89008 C -373.82601,-109.37854 -375.51476,-112.06055 -374.98714,-114.88049 L -374.98712,-114.88049 z"
       id="path7648"
       style="fill:#ff951e;fill-rule:nonzero;stroke:none;stroke-linecap:square;stroke-miterlimit:10" />
    <path
       d="M -440.08865,-28.427444 C -436.99543,-25.47882 -424.37142,-22.447132 -416.76694,-20.686055 C -409.16247,-18.92501 -398.89549,-17.134821 -394.46181,-17.861126 C -390.02813,-18.587447 -387.72699,-22.469662 -390.16489,-25.043964 C -392.60279,-27.61825 -401.5623,-31.084587 -409.08921,-33.306907 C -416.61612,-35.529226 -430.15976,-39.191153 -435.32634,-38.377896 C -440.49291,-37.564671 -443.18189,-31.3761 -440.08865,-28.427444 L -440.08865,-28.427444 z"
       id="path7650"
       style="fill:#f3e19f;fill-opacity:1;fill-rule:nonzero;stroke:none;stroke-linecap:square;stroke-miterlimit:10" />
    <path
       d="M -433.15915,-33.899398 C -429.33877,-31.438498 -416.40816,-30.568516 -408.63827,-30.110891 C -400.86837,-29.653249 -390.5517,-29.634001 -386.53979,-31.153566 C -382.52787,-32.673147 -381.48177,-37.033717 -384.56677,-39.228343 C -387.65178,-41.422953 -397.2175,-43.380066 -405.0498,-44.321385 C -412.8821,-45.262704 -426.87569,-46.613209 -431.56058,-44.876224 C -436.24548,-43.139224 -436.97954,-36.360281 -433.15915,-33.899398 L -433.15915,-33.899398 z"
       id="path7652"
       style="fill:#f3e19f;fill-opacity:1;fill-rule:nonzero;stroke:none;stroke-linecap:square;stroke-miterlimit:10" />
    <path
       d="M -433.25467,-40.027132 C -429.01933,-38.38564 -416.40628,-39.61981 -408.84223,-40.420687 C -401.2782,-41.221579 -391.37068,-42.820575 -387.87043,-44.832437 C -384.37017,-46.844316 -384.37271,-50.977572 -387.8407,-52.491926 C -391.30868,-54.006265 -400.94273,-54.288934 -408.67835,-53.918548 C -416.41396,-53.548177 -430.15831,-52.584885 -434.25437,-50.269639 C -438.35042,-47.954392 -437.49003,-41.668624 -433.25467,-40.027132 L -433.25467,-40.027132 z"
       id="path7654"
       style="fill:#f3e19f;fill-opacity:1;fill-rule:nonzero;stroke:none;stroke-linecap:square;stroke-miterlimit:10" />
    <path
       d="M -435.4846,-40.030096 C -430.89692,-39.642469 -420.19683,-44.401677 -413.80937,-47.314434 C -407.42193,-50.227206 -399.32161,-54.573612 -397.15988,-57.506764 C -394.99814,-60.439885 -397.00013,-64.431359 -400.83898,-64.913236 C -404.67782,-65.395129 -413.44357,-62.943487 -420.19297,-60.397994 C -426.94237,-57.852501 -438.7868,-53.034974 -441.33541,-49.64034 C -443.88401,-46.24569 -440.07227,-40.417755 -435.4846,-40.030096 L -435.4846,-40.030096 z"
       id="path7656"
       style="fill:#cc8c44;fill-rule:nonzero;stroke:none;stroke-linecap:square;stroke-miterlimit:10" />
    <path
       d="M -429.53596,-26.043809 L -431.21837,-51.388096 L -446.64942,-51.893062 L -444.967,-26.548806 L -429.53596,-26.043809 z"
       id="path7658"
       style="fill:#cc8c44;fill-rule:nonzero;stroke:none;stroke-linecap:square;stroke-miterlimit:10" />
    <path
       d="M -441.58504,-40.954238 C -442.60151,-37.46623 -437.15256,-28.128092 -433.80072,-22.538418 C -430.44888,-16.948744 -425.2972,-9.7215292 -421.47399,-7.4161777 C -417.65079,-5.1108102 -411.92954,-5.8210856 -410.86151,-8.7063084 C -409.79349,-11.591531 -412.25915,-18.934156 -415.06589,-24.727499 C -417.87262,-30.520841 -423.28207,-40.761962 -427.70193,-43.466413 C -432.12179,-46.170896 -440.56858,-44.442261 -441.58504,-40.954238 L -441.58504,-40.954238 z"
       id="path7660"
       style="fill:#cc8c44;fill-rule:nonzero;stroke:none;stroke-linecap:square;stroke-miterlimit:10" />
    <path
       d="M -463.92867,-6.8142697 L -452.48357,-74.479981 L -394.08644,-64.601439 L -405.53155,3.0642719 L -463.92867,-6.8142697 z"
       id="path7662"
       style="fill:#c526dd;fill-rule:nonzero;stroke:none;stroke-linecap:square;stroke-miterlimit:10" />
    <path
       d="M -349.71234,-13.741574 C -347.89312,-16.483056 -349.41936,-26.872825 -350.40356,-33.125657 C -351.38777,-39.378474 -353.30065,-47.768442 -355.61752,-51.258537 C -357.93443,-54.748631 -362.62216,-56.249027 -364.30489,-54.066145 C -365.98762,-51.883278 -366.21157,-44.392802 -365.71392,-38.161225 C -365.21625,-31.929649 -363.98587,-20.7467 -361.31894,-16.676766 C -358.652,-12.606816 -351.53156,-11.000092 -349.71234,-13.741574 L -349.71234,-13.741574 z"
       id="path7664"
       style="fill:#f3e19f;fill-opacity:1;fill-rule:nonzero;stroke:none;stroke-linecap:square;stroke-miterlimit:10" />
    <path
       d="M -188.40815,27.320631 L -219.12193,34.597576 L -174.50664,85.787228 L -188.40815,27.320631 z"
       id="path7666"
       style="fill:#b7b7b7;fill-rule:nonzero;stroke:none;stroke-linecap:square;stroke-miterlimit:10" />
    <path
       d="M -188.40815,27.320631 L -219.12193,34.597576 L -174.50664,85.787228 L -188.40815,27.320631 z"
       id="path7668"
       style="fill:none;fill-rule:nonzero;stroke:#b7b7b7;stroke-width:3.1868062;stroke-linecap:butt;stroke-linejoin:round;stroke-miterlimit:10" />
  </g>
  <text
     xml:space="preserve"
     style="font-size:16px;line-height:1.25;font-family:ABeeZee;-inkscape-font-specification:ABeeZee;text-align:center;text-decoration:none;text-decoration-line:none;text-decoration-color:#000000;letter-spacing:0px;word-spacing:0px;text-anchor:middle;fill:#000000;stroke:#000000;stroke-width:0;stroke-linecap:butt;stroke-linejoin:miter;stroke-opacity:1;stop-color:#000000"
     x="-74.467529"
     y="-90.510895"
     id="text1"><tspan
       sodipodi:role="line"
       id="tspan1"
       x="-74.467529"
       y="-90.510895">https://openclipart.org/detail/216208/science-girl-with-black-hair</tspan></text>
</svg>
