<?xml version="1.0" encoding="UTF-8" standalone="no"?>
<!-- Created with Inkscape (http://www.inkscape.org/) -->

<svg
   id="svg3361"
   sodipodi:docname="Community.svg"
   viewBox="0 0 933.82 926.76"
   version="1.1"
   inkscape:version="1.2.1 (9c6d41e410, 2022-07-14)"
   xmlns:inkscape="http://www.inkscape.org/namespaces/inkscape"
   xmlns:sodipodi="http://sodipodi.sourceforge.net/DTD/sodipodi-0.dtd"
   xmlns="http://www.w3.org/2000/svg"
   xmlns:svg="http://www.w3.org/2000/svg"
   xmlns:rdf="http://www.w3.org/1999/02/22-rdf-syntax-ns#"
   xmlns:cc="http://creativecommons.org/ns#"
   xmlns:dc="http://purl.org/dc/elements/1.1/">
  <defs
     id="defs42" />
  <sodipodi:namedview
     id="base"
     bordercolor="#666666"
     inkscape:pageshadow="2"
     inkscape:window-y="57"
     pagecolor="#ffffff"
     inkscape:window-height="961"
     inkscape:window-maximized="1"
     inkscape:zoom="0.32638889"
     inkscape:window-x="1912"
     showgrid="false"
     borderopacity="1.0"
     inkscape:current-layer="g3568"
     inkscape:cx="896.17021"
     inkscape:cy="611.23404"
     inkscape:window-width="1536"
     inkscape:pageopacity="0.0"
     inkscape:document-units="px"
     inkscape:showpageshadow="2"
     inkscape:pagecheckerboard="0"
     inkscape:deskcolor="#d1d1d1" />
  <g
     id="layer1"
     inkscape:label="Layer 1"
     inkscape:groupmode="layer"
     transform="translate(137.98 -47.775)">
    <g
       id="g3568"
       transform="translate(-24.511 166.98)">
      <g
         id="g3659"
         style="fill:#808080"
         transform="translate(1064.1 -579.06)">
        <g
           id="g3661"
           style="fill:#808080"
           transform="translate(-530.04 229.79)">
          <path
             id="path3663"
             sodipodi:rx="77.14286"
             sodipodi:ry="77.14286"
             style="color:#000000;fill:#808080"
             sodipodi:type="arc"
             d="m354.29 212.36c0 42.605-34.538 77.143-77.143 77.143s-77.143-34.538-77.143-77.143 34.538-77.143 77.143-77.143 77.143 34.538 77.143 77.143z"
             transform="translate(-451.15 100.98)"
             sodipodi:cy="212.36218"
             sodipodi:cx="277.14285" />
          <path
             id="path3665"
             style="color:#000000;fill:#808080"
             d="m-174.02 395.44c-93.998 0-171.33 71.224-181 162.66h34.812c9.4866-72.294 71.301-128.09 146.19-128.09 74.886 0 136.73 55.8 146.22 128.09h34.812c-9.677-91.43-87.039-162.66-181.03-162.66z" />
          <path
             id="path3667"
             d="m-198.53 560.25c-59.204 0-107.19 85.749-107.19 191.5 0 3.2344 0.0706 6.4335 0.15625 9.625 21.553-36.703 61.391-61.344 107.03-61.344 45.63 0 85.507 24.622 107.06 61.312 0.08505-3.181 0.125-6.37 0.125-9.5938 0-105.75-47.983-191.5-107.19-191.5z"
             style="color:#000000;fill:#808080"
             transform="translate(24.511 -166.98)" />
        </g>
        <g
           id="g3669"
           style="fill:#808080"
           transform="matrix(-1 0 0 -1 -878.06 1622.8)">
          <path
             id="path3671"
             sodipodi:rx="77.14286"
             sodipodi:ry="77.14286"
             style="color:#000000;fill:#808080"
             sodipodi:type="arc"
             d="m354.29 212.36c0 42.605-34.538 77.143-77.143 77.143s-77.143-34.538-77.143-77.143 34.538-77.143 77.143-77.143 77.143 34.538 77.143 77.143z"
             transform="translate(-451.15 100.98)"
             sodipodi:cy="212.36218"
             sodipodi:cx="277.14285" />
          <path
             id="path3673"
             style="color:#000000;fill:#808080"
             d="m-174.02 395.44c-93.998 0-171.33 71.224-181 162.66h34.812c9.4866-72.294 71.301-128.09 146.19-128.09 74.886 0 136.73 55.8 146.22 128.09h34.812c-9.677-91.43-87.039-162.66-181.03-162.66z" />
          <path
             id="path3675"
             style="color:#000000;fill:#808080"
             d="m-198.53 560.25c-59.204 0-107.19 85.749-107.19 191.5 0 3.2344 0.0706 6.4335 0.15625 9.625 21.553-36.703 61.391-61.344 107.03-61.344 45.63 0 85.507 24.622 107.06 61.312 0.08505-3.181 0.125-6.37 0.125-9.5938 0-105.75-47.983-191.5-107.19-191.5z"
             transform="translate(24.511 -166.98)" />
        </g>
        <g
           id="g3677"
           style="fill:#808080"
           transform="matrix(0 1 -1 0 -7.5368 1100.3)">
          <path
             id="path3679"
             sodipodi:rx="77.14286"
             sodipodi:ry="77.14286"
             style="color:#000000;fill:#808080"
             sodipodi:type="arc"
             d="m354.29 212.36c0 42.605-34.538 77.143-77.143 77.143s-77.143-34.538-77.143-77.143 34.538-77.143 77.143-77.143 77.143 34.538 77.143 77.143z"
             transform="translate(-451.15 100.98)"
             sodipodi:cy="212.36218"
             sodipodi:cx="277.14285" />
          <path
             id="path3681"
             style="color:#000000;fill:#808080"
             d="m-174.02 395.44c-93.998 0-171.33 71.224-181 162.66h34.812c9.4866-72.294 71.301-128.09 146.19-128.09 74.886 0 136.73 55.8 146.22 128.09h34.812c-9.677-91.43-87.039-162.66-181.03-162.66z" />
          <path
             id="path3683"
             style="color:#000000;fill:#808080"
             d="m-198.53 560.25c-59.204 0-107.19 85.749-107.19 191.5 0 3.2344 0.0706 6.4335 0.15625 9.625 21.553-36.703 61.391-61.344 107.03-61.344 45.63 0 85.507 24.622 107.06 61.312 0.08505-3.181 0.125-6.37 0.125-9.5938 0-105.75-47.983-191.5-107.19-191.5z"
             transform="translate(24.511 -166.98)" />
        </g>
        <g
           id="g3685"
           style="fill:#808080"
           transform="matrix(0 -1 1 0 -1400.6 752.29)">
          <path
             id="path3687"
             sodipodi:rx="77.14286"
             sodipodi:ry="77.14286"
             style="color:#000000;fill:#808080"
             sodipodi:type="arc"
             d="m354.29 212.36c0 42.605-34.538 77.143-77.143 77.143s-77.143-34.538-77.143-77.143 34.538-77.143 77.143-77.143 77.143 34.538 77.143 77.143z"
             transform="translate(-451.15 100.98)"
             sodipodi:cy="212.36218"
             sodipodi:cx="277.14285" />
          <path
             id="path3689"
             style="color:#000000;fill:#808080"
             d="m-174.02 395.44c-93.998 0-171.33 71.224-181 162.66h34.812c9.4866-72.294 71.301-128.09 146.19-128.09 74.886 0 136.73 55.8 146.22 128.09h34.812c-9.677-91.43-87.039-162.66-181.03-162.66z" />
          <path
             id="path3691"
             d="m-198.53 560.25c-59.204 0-107.19 85.749-107.19 191.5 0 3.2344 0.0706 6.4335 0.15625 9.625 21.553-36.703 61.391-61.344 107.03-61.344 45.63 0 85.507 24.622 107.06 61.312 0.08505-3.181 0.125-6.37 0.125-9.5938 0-105.75-47.983-191.5-107.19-191.5z"
             style="color:#000000;fill:#808080"
             transform="translate(24.511 -166.98)" />
        </g>
      </g>
      <g
         id="g3641"
         transform="translate(1050.9 -585.19)">
        <g
           id="g3576"
           transform="translate(-530.04 229.79)">
          <path
             id="path2901"
             sodipodi:rx="77.14286"
             sodipodi:ry="77.14286"
             style="color:#000000;fill:#d44117"
             sodipodi:type="arc"
             d="m354.29 212.36c0 42.605-34.538 77.143-77.143 77.143s-77.143-34.538-77.143-77.143 34.538-77.143 77.143-77.143 77.143 34.538 77.143 77.143z"
             transform="translate(-451.15 100.98)"
             sodipodi:cy="212.36218"
             sodipodi:cx="277.14285" />
          <path
             id="path2903"
             style="color:#000000;fill:#d44117"
             d="m-174.02 395.44c-93.998 0-171.33 71.224-181 162.66h34.812c9.4866-72.294 71.301-128.09 146.19-128.09 74.886 0 136.73 55.8 146.22 128.09h34.812c-9.677-91.43-87.039-162.66-181.03-162.66z" />
          <path
             id="path2911"
             style="color:#000000;fill:#d44117"
             d="m-198.53 560.25c-59.204 0-107.19 85.749-107.19 191.5 0 3.2344 0.0706 6.4335 0.15625 9.625 21.553-36.703 61.391-61.344 107.03-61.344 45.63 0 85.507 24.622 107.06 61.312 0.08505-3.181 0.125-6.37 0.125-9.5938 0-105.75-47.983-191.5-107.19-191.5z"
             transform="translate(24.511 -166.98)" />
        </g>
        <g
           id="g3581"
           style="fill:#6bb427"
           transform="matrix(-1 0 0 -1 -878.06 1622.8)">
          <path
             id="path3583"
             sodipodi:rx="77.14286"
             sodipodi:ry="77.14286"
             style="color:#000000;fill:#6bb427"
             sodipodi:type="arc"
             d="m354.29 212.36c0 42.605-34.538 77.143-77.143 77.143s-77.143-34.538-77.143-77.143 34.538-77.143 77.143-77.143 77.143 34.538 77.143 77.143z"
             transform="translate(-451.15 100.98)"
             sodipodi:cy="212.36218"
             sodipodi:cx="277.14285" />
          <path
             id="path3585"
             style="color:#000000;fill:#6bb427"
             d="m-174.02 395.44c-93.998 0-171.33 71.224-181 162.66h34.812c9.4866-72.294 71.301-128.09 146.19-128.09 74.886 0 136.73 55.8 146.22 128.09h34.812c-9.677-91.43-87.039-162.66-181.03-162.66z" />
          <path
             id="path3587"
             d="m-198.53 560.25c-59.204 0-107.19 85.749-107.19 191.5 0 3.2344 0.0706 6.4335 0.15625 9.625 21.553-36.703 61.391-61.344 107.03-61.344 45.63 0 85.507 24.622 107.06 61.312 0.08505-3.181 0.125-6.37 0.125-9.5938 0-105.75-47.983-191.5-107.19-191.5z"
             style="color:#000000;fill:#6bb427"
             transform="translate(24.511 -166.98)" />
        </g>
        <g
           id="g3625"
           style="fill:#f2a438"
           transform="matrix(0 1 -1 0 -7.5368 1100.3)">
          <path
             id="path3627"
             sodipodi:rx="77.14286"
             sodipodi:ry="77.14286"
             style="color:#000000;fill:#f2a438"
             sodipodi:type="arc"
             d="m354.29 212.36c0 42.605-34.538 77.143-77.143 77.143s-77.143-34.538-77.143-77.143 34.538-77.143 77.143-77.143 77.143 34.538 77.143 77.143z"
             transform="translate(-451.15 100.98)"
             sodipodi:cy="212.36218"
             sodipodi:cx="277.14285" />
          <path
             id="path3629"
             style="color:#000000;fill:#f2a438"
             d="m-174.02 395.44c-93.998 0-171.33 71.224-181 162.66h34.812c9.4866-72.294 71.301-128.09 146.19-128.09 74.886 0 136.73 55.8 146.22 128.09h34.812c-9.677-91.43-87.039-162.66-181.03-162.66z" />
          <path
             id="path3631"
             d="m-198.53 560.25c-59.204 0-107.19 85.749-107.19 191.5 0 3.2344 0.0706 6.4335 0.15625 9.625 21.553-36.703 61.391-61.344 107.03-61.344 45.63 0 85.507 24.622 107.06 61.312 0.08505-3.181 0.125-6.37 0.125-9.5938 0-105.75-47.983-191.5-107.19-191.5z"
             style="color:#000000;fill:#f2a438"
             transform="translate(24.511 -166.98)" />
        </g>
        <g
           id="g3633"
           style="fill:#5775b1"
           transform="matrix(0 -1 1 0 -1400.6 752.29)">
          <path
             id="path3635"
             sodipodi:rx="77.14286"
             sodipodi:ry="77.14286"
             style="color:#000000;fill:#5775b1"
             sodipodi:type="arc"
             d="m354.29 212.36c0 42.605-34.538 77.143-77.143 77.143s-77.143-34.538-77.143-77.143 34.538-77.143 77.143-77.143 77.143 34.538 77.143 77.143z"
             transform="translate(-451.15 100.98)"
             sodipodi:cy="212.36218"
             sodipodi:cx="277.14285" />
          <path
             id="path3637"
             style="color:#000000;fill:#5775b1"
             d="m-174.02 395.44c-93.998 0-171.33 71.224-181 162.66h34.812c9.4866-72.294 71.301-128.09 146.19-128.09 74.886 0 136.73 55.8 146.22 128.09h34.812c-9.677-91.43-87.039-162.66-181.03-162.66z" />
          <path
             id="path3639"
             style="color:#000000;fill:#5775b1"
             d="m-198.53 560.25c-59.204 0-107.19 85.749-107.19 191.5 0 3.2344 0.0706 6.4335 0.15625 9.625 21.553-36.703 61.391-61.344 107.03-61.344 45.63 0 85.507 24.622 107.06 61.312 0.08505-3.181 0.125-6.37 0.125-9.5938 0-105.75-47.983-191.5-107.19-191.5z"
             transform="translate(24.511 -166.98)" />
        </g>
      </g>
      <text
         xml:space="preserve"
         style="font-size:16px;font-family:ABeeZee;-inkscape-font-specification:ABeeZee;fill:none;stroke:#000000"
         x="-36.357819"
         y="-250.94968"
         id="text2127"><tspan
           sodipodi:role="line"
           id="tspan2125"
           x="-36.357819"
           y="-250.94968">https://openclipart.org/detail/74185/community</tspan></text>
    </g>
  </g>
  <metadata
     id="metadata39">
    <rdf:RDF>
      <cc:Work>
        <dc:format>image/svg+xml</dc:format>
        <dc:type
           rdf:resource="http://purl.org/dc/dcmitype/StillImage" />
        <cc:license
           rdf:resource="http://creativecommons.org/licenses/publicdomain/" />
        <dc:publisher>
          <cc:Agent
             rdf:about="http://openclipart.org/">
            <dc:title>Openclipart</dc:title>
          </cc:Agent>
        </dc:publisher>
        <dc:title>Community</dc:title>
        <dc:date>2010-07-21T08:57:15</dc:date>
        <dc:description />
        <dc:source>https://openclipart.org/detail/74185/community-by-russel-74185</dc:source>
        <dc:creator>
          <cc:Agent>
            <dc:title>russel</dc:title>
          </cc:Agent>
        </dc:creator>
        <dc:subject>
          <rdf:Bag>
            <rdf:li>Community</rdf:li>
            <rdf:li>crowd</rdf:li>
            <rdf:li>group</rdf:li>
            <rdf:li>man</rdf:li>
            <rdf:li>men</rdf:li>
            <rdf:li>people</rdf:li>
          </rdf:Bag>
        </dc:subject>
      </cc:Work>
      <cc:License
         rdf:about="http://creativecommons.org/licenses/publicdomain/">
        <cc:permits
           rdf:resource="http://creativecommons.org/ns#Reproduction" />
        <cc:permits
           rdf:resource="http://creativecommons.org/ns#Distribution" />
        <cc:permits
           rdf:resource="http://creativecommons.org/ns#DerivativeWorks" />
      </cc:License>
    </rdf:RDF>
  </metadata>
</svg>
