<?xml version="1.0" encoding="UTF-8" standalone="no"?>
<!-- Created with Inkscape (http://www.inkscape.org/) -->

<svg
   id="svg2"
   sodipodi:docname="computer+sport.svg"
   viewBox="0 0 292.25783 146.36599"
   version="1.1"
   inkscape:version="1.2.1 (9c6d41e410, 2022-07-14)"
   xml:space="preserve"
   width="292.25784"
   height="146.366"
   xmlns:inkscape="http://www.inkscape.org/namespaces/inkscape"
   xmlns:sodipodi="http://sodipodi.sourceforge.net/DTD/sodipodi-0.dtd"
   xmlns:xlink="http://www.w3.org/1999/xlink"
   xmlns="http://www.w3.org/2000/svg"
   xmlns:svg="http://www.w3.org/2000/svg"
   xmlns:rdf="http://www.w3.org/1999/02/22-rdf-syntax-ns#"
   xmlns:cc="http://creativecommons.org/ns#"
   xmlns:dc="http://purl.org/dc/elements/1.1/"><defs
     id="defs14"><linearGradient
       id="linearGradient2752"><stop
         id="stop2754"
         style="stop-color:#9d9d9d"
         offset="0" /><stop
         id="stop2756"
         style="stop-color:#b9b9b9"
         offset="1" /></linearGradient><linearGradient
       id="linearGradient2711"><stop
         id="stop2713"
         style="stop-color:#909090"
         offset="0" /><stop
         id="stop2715"
         style="stop-color:#bebebe;stop-opacity:0"
         offset="1" /></linearGradient><linearGradient
       id="linearGradient2454"
       inkscape:collect="always"><stop
         id="stop2456"
         style="stop-color:#000000"
         offset="0" /><stop
         id="stop2458"
         style="stop-color:#000000;stop-opacity:0"
         offset="1" /></linearGradient><linearGradient
       id="linearGradient2253"><stop
         id="stop2255"
         style="stop-color:#8f8f8f"
         offset="0" /><stop
         id="stop2257"
         style="stop-color:#494949"
         offset="1" /></linearGradient><linearGradient
       id="linearGradient2245"><stop
         id="stop2247"
         style="stop-color:#dde1d9"
         offset="0" /><stop
         id="stop2249"
         style="stop-color:#cacdc6"
         offset="1" /></linearGradient><linearGradient
       id="linearGradient2251"
       y2="33.34"
       xlink:href="#linearGradient2245"
       gradientUnits="userSpaceOnUse"
       x2="34.784"
       gradientTransform="matrix(0.84929345,0,0,0.66525857,13.697245,457.0558)"
       y1="7.2294002"
       x1="8.6115999"
       inkscape:collect="always" /><linearGradient
       id="linearGradient2421"
       y2="55.201"
       gradientUnits="userSpaceOnUse"
       x2="34.974998"
       gradientTransform="matrix(0.8329074,0,0,0.67834486,15.670336,458.78791)"
       y1="13.005"
       x1="17.698"
       inkscape:collect="always"><stop
         id="stop2417"
         style="stop-color:#ffffff"
         offset="0" /><stop
         id="stop2419"
         style="stop-color:#ffffff;stop-opacity:0"
         offset="1" /></linearGradient><radialGradient
       id="radialGradient2460"
       xlink:href="#linearGradient2454"
       gradientUnits="userSpaceOnUse"
       cy="67.501999"
       cx="12.576"
       gradientTransform="matrix(1.8302627,0,0,0.50399913,10.246177,455.02934)"
       r="8.7663002"
       inkscape:collect="always" /><linearGradient
       id="linearGradient2673"
       y2="26.729"
       gradientUnits="userSpaceOnUse"
       y1="1.6538"
       gradientTransform="matrix(0.93129886,0,0,0.6734516,15.362571,457.03543)"
       x2="17.198999"
       x1="11.492"
       inkscape:collect="always"><stop
         id="stop2669"
         style="stop-color:#ffffff"
         offset="0" /><stop
         id="stop2671"
         style="stop-color:#fcfcff;stop-opacity:0"
         offset="1" /></linearGradient><linearGradient
       id="linearGradient2681"
       y2="8.8666"
       gradientUnits="userSpaceOnUse"
       y1="32.622002"
       gradientTransform="matrix(0.88251654,0,0,0.7106359,15.461241,457.03543)"
       x2="16.316"
       x1="19.15"
       inkscape:collect="always"><stop
         id="stop2677"
         style="stop-color:#5b5b97"
         offset="0" /><stop
         id="stop2679"
         style="stop-color:#1b1b43"
         offset="1" /></linearGradient><linearGradient
       id="linearGradient2689"
       y2="162.45"
       gradientUnits="userSpaceOnUse"
       y1="171.28999"
       gradientTransform="matrix(4.2883343,0,0,0.13174985,15.670336,457.52561)"
       x2="3.707"
       x1="3.707"
       inkscape:collect="always"><stop
         id="stop2685"
         style="stop-color:#000000"
         offset="0" /><stop
         id="stop2687"
         style="stop-color:#000000;stop-opacity:0"
         offset="1" /></linearGradient><linearGradient
       id="linearGradient2707"
       y2="64.892998"
       gradientUnits="userSpaceOnUse"
       y1="53.535"
       gradientTransform="matrix(1.3652285,0,0,0.41383043,14.918682,458.03626)"
       x2="12.128"
       x1="12.207"
       inkscape:collect="always"><stop
         id="stop2703"
         style="stop-color:#585956"
         offset="0" /><stop
         id="stop2705"
         style="stop-color:#bbbeb8"
         offset="1" /></linearGradient><linearGradient
       id="linearGradient2717"
       y2="3.8450999"
       xlink:href="#linearGradient2711"
       gradientUnits="userSpaceOnUse"
       y1="3.9384"
       x2="35.521"
       x1="34.300999"
       inkscape:collect="always"
       gradientTransform="matrix(1.0006013,0,0,0.49492634,7.4285286,466.27438)" /><linearGradient
       id="linearGradient2741"
       y2="74.098"
       gradientUnits="userSpaceOnUse"
       y1="101.28"
       gradientTransform="matrix(1.6112447,0,0,0.35064642,15.670336,457.6538)"
       x2="8.6485004"
       x1="13.629"
       inkscape:collect="always"><stop
         id="stop2637"
         style="stop-color:#f9fff5"
         offset="0" /><stop
         id="stop2639"
         style="stop-color:#f9fff5;stop-opacity:0"
         offset="1" /></linearGradient><linearGradient
       id="linearGradient2758"
       y2="100.2"
       xlink:href="#linearGradient2752"
       gradientUnits="userSpaceOnUse"
       y1="88.509003"
       gradientTransform="matrix(1.7362447,0,0,0.32541341,14.918682,458.03626)"
       x2="8.1134005"
       x1="8.1134005"
       inkscape:collect="always" /><linearGradient
       id="linearGradient2979"
       y2="31.246"
       xlink:href="#linearGradient2253"
       gradientUnits="userSpaceOnUse"
       y1="5.3818002"
       gradientTransform="matrix(0.83012628,0,0,0.68059982,14.918682,458.03626)"
       x2="32.536999"
       x1="10.391"
       inkscape:collect="always" /><linearGradient
       id="linearGradient2981"
       y2="52.535999"
       xlink:href="#linearGradient2245"
       gradientUnits="userSpaceOnUse"
       y1="48.643002"
       gradientTransform="matrix(0.84929345,0,0,0.66525857,14.918682,458.03626)"
       x2="18.177"
       x1="18.316999"
       inkscape:collect="always" /><linearGradient
       id="linearGradient2991"
       y2="44.879002"
       gradientUnits="userSpaceOnUse"
       y1="49.952999"
       gradientTransform="matrix(1.0551181,0,0,0.47342142,56.5633,460.68298)"
       x2="-23.886"
       x1="-23.886"
       inkscape:collect="always"><stop
         id="stop2987"
         style="stop-color:#d8dfd6"
         offset="0" /><stop
         id="stop2989"
         style="stop-color:#d8dfd6;stop-opacity:0"
         offset="1" /></linearGradient><radialGradient
       inkscape:collect="always"
       xlink:href="#linearGradient2454"
       id="radialGradient408"
       gradientUnits="userSpaceOnUse"
       gradientTransform="matrix(1.4475346,0,0,0.53428671,13.43146,447.80099)"
       cx="12.576"
       cy="67.501999"
       r="8.7663002" /><radialGradient
       inkscape:collect="always"
       xlink:href="#linearGradient2454"
       id="radialGradient410"
       gradientUnits="userSpaceOnUse"
       gradientTransform="matrix(1.4475346,0,0,0.53428671,13.43146,443.73906)"
       cx="12.576"
       cy="67.501999"
       r="8.7663002" /><linearGradient
       inkscape:collect="always"
       xlink:href="#linearGradient2253"
       id="linearGradient412"
       gradientUnits="userSpaceOnUse"
       gradientTransform="matrix(0.83012628,0,0,0.68059982,14.918682,458.03626)"
       x1="10.391"
       y1="5.3818002"
       x2="32.536999"
       y2="31.246" /><linearGradient
       inkscape:collect="always"
       xlink:href="#linearGradient2752"
       id="linearGradient414"
       gradientUnits="userSpaceOnUse"
       gradientTransform="matrix(1.7362447,0,0,0.32541341,14.918682,458.03626)"
       x1="8.1134005"
       y1="88.509003"
       x2="8.1134005"
       y2="100.2" /><linearGradient
       inkscape:collect="always"
       xlink:href="#linearGradient2752"
       id="linearGradient416"
       gradientUnits="userSpaceOnUse"
       gradientTransform="matrix(1.7362447,0,0,0.32541341,14.918682,458.03626)"
       x1="8.1134005"
       y1="88.509003"
       x2="8.1134005"
       y2="100.2" /><linearGradient
       inkscape:collect="always"
       xlink:href="#linearGradient2711"
       id="linearGradient418"
       gradientUnits="userSpaceOnUse"
       x1="34.300999"
       y1="3.9384"
       x2="35.521"
       y2="3.8450999"
       gradientTransform="matrix(1.0006013,0,0,0.49492634,7.0872027,460.1814)" /><linearGradient
       inkscape:collect="always"
       xlink:href="#linearGradient2711"
       id="linearGradient420"
       gradientUnits="userSpaceOnUse"
       x1="34.300999"
       y1="3.9384"
       x2="35.521"
       y2="3.8450999"
       gradientTransform="matrix(1.0006013,0,0,0.49492634,7.1721396,461.76424)" /><linearGradient
       inkscape:collect="always"
       xlink:href="#linearGradient2711"
       id="linearGradient422"
       gradientUnits="userSpaceOnUse"
       x1="34.300999"
       y1="3.9384"
       x2="35.521"
       y2="3.8450999"
       gradientTransform="matrix(1.0006013,0,0,0.49492634,7.2578281,463.26754)" /><linearGradient
       inkscape:collect="always"
       xlink:href="#linearGradient2711"
       id="linearGradient424"
       gradientUnits="userSpaceOnUse"
       x1="34.300999"
       y1="3.9384"
       x2="35.521"
       y2="3.8450999"
       gradientTransform="matrix(1.0006013,0,0,0.49492634,7.342765,464.77085)" /></defs><sodipodi:namedview
     id="base"
     bordercolor="#666666"
     inkscape:pageshadow="2"
     inkscape:window-y="57"
     pagecolor="#ffffff"
     inkscape:window-height="961"
     inkscape:window-maximized="1"
     inkscape:zoom="1.4"
     inkscape:window-x="1912"
     showgrid="false"
     borderopacity="1.0"
     inkscape:current-layer="g3612"
     inkscape:cx="65"
     inkscape:cy="81.785714"
     inkscape:window-width="1536"
     inkscape:pageopacity="0.0"
     inkscape:document-units="px"
     inkscape:showpageshadow="2"
     inkscape:pagecheckerboard="0"
     inkscape:deskcolor="#d1d1d1" /><g
     id="layer1"
     inkscape:label="Camada 1"
     inkscape:groupmode="layer"
     transform="translate(-19.877538,-450.94685)"><g
       id="g3612"
       transform="matrix(1.3304,0,0,1.3304,-103.13,-148.96)"><g
         id="g3619"
         transform="matrix(0.94554,0.3255,-0.3255,0.94554,178.67,-56.15)"><circle
           id="path2830"
           style="fill:#ea8e0b;stroke:#000000;stroke-width:5"
           transform="translate(-8.2143,2.8571)"
           cx="265.35715"
           cy="503.07648"
           r="52.5" /><path
           id="path3604"
           sodipodi:nodetypes="cc"
           style="fill:none;stroke:#000000;stroke-width:3"
           d="m 251.07,452.36 c 13.67,21.37 31.69,32.56 53.93,33.93" /><path
           id="path3606"
           sodipodi:nodetypes="cc"
           style="fill:none;stroke:#000000;stroke-width:3"
           d="m 211.79,479.51 c 41.883,-8.77 75.922,0.43681 95,43.929" /><path
           id="path3608"
           sodipodi:nodetypes="cc"
           style="fill:none;stroke:#000000;stroke-width:3"
           d="m 207.5,523.79 c 51.186,-44.221 82.415,-49.421 70,30.714" /><path
           id="path3610"
           sodipodi:nodetypes="cc"
           style="fill:none;stroke:#000000;stroke-width:3"
           d="m 282.86,459.86 c -8.953,35.104 -28.318,63.961 -46.429,93.571" /></g><text
         xml:space="preserve"
         style="font-size:9.01984px;fill:#000000;stroke-width:0.751654"
         x="160.24181"
         y="428.3674"
         id="text120"><tspan
           sodipodi:role="line"
           id="tspan118"
           style="stroke-width:0.751654"
           x="160.24181"
           y="428.3674">https://openclipart.org/detail/74377/basketball</tspan></text><g
         id="g482"
         transform="matrix(3.0522113,0,0,3.0522113,42.34285,-947.20041)"><ellipse
           id="path2452"
           style="color:#000000;fill:url(#radialGradient408);fill-rule:evenodd;stroke-width:0.879435"
           cx="31.635313"
           cy="483.86642"
           rx="12.689548"
           ry="4.6837292" /><ellipse
           id="path2407"
           style="color:#000000;fill:#adb0aa;fill-rule:evenodd;stroke:#4b4d4a;stroke-width:0.751654"
           cx="31.360815"
           cy="482.78043"
           rx="7.0613489"
           ry="2.961211" /><ellipse
           id="path1825"
           style="color:#000000;fill:none;stroke:#7b7f7a;stroke-width:0.706757"
           cx="31.361473"
           cy="482.2489"
           rx="6.6395745"
           ry="2.7843378" /><ellipse
           id="path2983"
           style="color:#000000;fill:none;stroke:url(#linearGradient2991);stroke-width:0.481054"
           cx="31.361473"
           cy="481.68515"
           rx="6.6395745"
           ry="2.7843378" /><path
           id="path2411"
           sodipodi:nodetypes="ccccccccccccccccc"
           style="fill:#d0d0d0;fill-rule:evenodd;stroke:#979797;stroke-width:0.300661;stroke-linejoin:round"
           d="m 34.227161,479.65833 -0.04735,0.75165 c 0,0 3.25015,2.7052 6.764882,3.1592 1.757366,0.22625 3.573362,0.52766 5.073662,0.89222 1.500301,0.36455 2.696934,0.84185 3.100572,1.24473 0.233012,0.23377 0.338995,0.43145 0.375826,0.5878 0.03683,0.15559 0.02856,0.26683 -0.07066,0.42243 -0.198437,0.31268 -0.811786,0.7276 -1.855081,1.05682 -2.088094,0.65995 -5.803518,1.08088 -10.946332,1.08088 v 0.75165 c 5.183403,0 8.917619,-0.39687 11.157546,-1.10418 1.119964,-0.35327 1.897926,-0.76292 2.278263,-1.36199 0.190168,-0.29991 0.26834,-0.66822 0.187913,-1.01023 -0.08043,-0.342 -0.289387,-0.66521 -0.587041,-0.96286 -0.659952,-0.65996 -1.906946,-1.05758 -3.453097,-1.43266 -1.546152,-0.37582 -3.394468,-0.68776 -5.167619,-0.91626 -3.547054,-0.45776 -6.811485,-3.1592 -6.811484,-3.1592 z" /><ellipse
           id="path2462"
           style="color:#000000;fill:url(#radialGradient410);fill-rule:evenodd;stroke-width:0.879435"
           cx="31.635313"
           cy="479.8045"
           rx="12.689548"
           ry="4.6837292" /><rect
           id="rect2699"
           style="color:#000000;fill:url(#linearGradient2707);fill-rule:evenodd;stroke-width:0.751654"
           height="2.059531"
           width="6.794723"
           y="481.11502"
           x="28.051575" /><path
           id="rect2404"
           sodipodi:nodetypes="cssssssss"
           style="color:#000000;fill:url(#linearGradient2251);fill-rule:evenodd;stroke:url(#linearGradient412);stroke-width:0.751654"
           d="m 20.241066,459.31076 h 22.239928 c 0.684757,0 1.220686,0.43859 1.253007,1.05352 l 1.001202,19.2258 c 0.0436,0.84035 -0.67724,1.51909 -1.51834,1.51909 H 19.505197 c -0.84095,0 -1.562011,-0.67874 -1.518265,-1.51909 l 1.001278,-19.2258 c 0.03022,-0.58125 0.41153,-1.05337 1.252781,-1.05337 z" /><path
           id="path2377"
           sodipodi:nodetypes="ccccc"
           style="fill:url(#linearGradient2681);fill-rule:evenodd;stroke:#000079;stroke-width:0.375827;stroke-linejoin:round"
           d="m 21.240465,461.27273 -0.933704,16.5702 h 20.783975 l -1.003458,-16.5003 -18.846963,-0.07 z" /><path
           id="path2393"
           style="fill:none;stroke:url(#linearGradient2689);stroke-width:0.748782;stroke-linecap:round;stroke-opacity:0.24841"
           d="M 19.561947,479.63578 H 43.185669" /><path
           id="path2397"
           sodipodi:nodetypes="cssssssss"
           style="color:#000000;fill:none;stroke:url(#linearGradient2421);stroke-width:0.751654;stroke-opacity:0.70064"
           d="m 20.116066,460.07046 22.433103,-0.0284 c 0.21347,-2.3e-4 0.420175,0.17837 0.437463,0.49053 l 1.023752,18.64326 c 0.0436,0.7945 -0.405893,1.34246 -1.201143,1.34246 H 19.865766 c -0.795926,0 -1.19761,-0.54796 -1.154616,-1.34246 l 0.995265,-18.411 c 0.02909,-0.53796 0.125075,-0.69393 0.409351,-0.6943 z" /><path
           id="path2443"
           sodipodi:nodetypes="ccccc"
           style="opacity:0.53143;fill:url(#linearGradient2673);fill-rule:evenodd;stroke-width:0.751654"
           d="m 21.466713,461.60391 -0.603202,13.4328 c 8.302014,-1.80472 8.584636,-7.8871 18.907095,-9.88199 l -0.121016,-3.5009 -18.182501,-0.0496 z" /><ellipse
           id="path2657"
           style="color:#000000;fill:url(#radialGradient2460);fill-rule:evenodd;stroke-width:0.960447"
           cx="33.26313"
           cy="489.05029"
           rx="16.044662"
           ry="4.4182181" /><path
           id="path2409"
           sodipodi:nodetypes="cssssssss"
           style="color:#000000;fill:url(#linearGradient2981);fill-rule:evenodd;stroke:url(#linearGradient2979);stroke-width:0.751654"
           d="m 19.776018,485.70989 h 23.303518 c 0.8411,0 0.734366,0.20445 0.820806,0.46077 l 2.130186,6.33268 c 0.08644,0.25706 0.0203,0.46076 -0.820806,0.46076 H 17.64508 c -0.840875,0 -0.906945,-0.2037 -0.82058,-0.46076 l 2.130712,-6.33268 c 0.08629,-0.25632 -0.02037,-0.46077 0.820956,-0.46077 z" /><path
           id="path2611"
           sodipodi:nodetypes="ccccccccc"
           style="fill:#7a7d77;fill-rule:evenodd;stroke-width:0.751654"
           d="m 19.723027,487.22222 -1.328774,3.85373 h 4.119137 l 0.398377,-1.52811 h 11.162056 l 0.412658,1.55968 h 4.6362 l -1.262027,-3.8853 H 19.723252 Z" /><path
           id="path2613"
           style="fill:#777874;fill-rule:evenodd;stroke-width:0.751654"
           d="m 23.243998,489.81317 -0.332231,1.26278 h 11.095159 l -0.332231,-1.32893 z" /><path
           id="path2619"
           style="color:#000000;fill:#777a75;fill-rule:evenodd;stroke-width:0.751654"
           d="m 43.175597,487.22222 1.262027,3.78683 -4.119062,-0.0661 -1.129736,-3.65378 z" /><path
           id="path2615"
           style="color:#000000;fill:url(#linearGradient414);fill-rule:evenodd;stroke-width:0.751654"
           d="m 43.175597,486.82384 1.262027,3.78683 -4.119062,-0.0661 -1.129736,-3.65454 z" /><path
           id="path2617"
           sodipodi:nodetypes="ccccccccc"
           style="fill:url(#linearGradient416);fill-rule:evenodd;stroke-width:0.751654"
           d="m 19.723027,486.75695 -1.328774,3.85372 h 4.119137 l 0.398377,-1.52811 h 11.162056 l 0.412658,1.55968 h 4.6362 l -1.262027,-3.88529 H 19.723252 Z" /><path
           id="path2621"
           style="color:#000000;fill:url(#linearGradient2758);fill-rule:evenodd;stroke-width:0.751654"
           d="m 23.243998,489.41479 -0.332231,1.26203 h 11.095159 l -0.332231,-1.32817 z" /><path
           id="path2631"
           sodipodi:nodetypes="ccccc"
           style="color:#000000;fill:none;stroke:url(#linearGradient2741);stroke-width:0.375827;stroke-linejoin:round"
           d="m 19.524665,486.2819 h 23.922129 l 1.982111,6.08313 H 17.421538 l 2.102977,-6.08313 z" /><ellipse
           id="path2709"
           style="color:#000000;fill:url(#linearGradient418);fill-rule:evenodd;stroke-width:0.703721"
           cx="41.888931"
           cy="462.13062"
           rx="0.84019423"
           ry="0.41558436" /><ellipse
           id="path2719"
           style="color:#000000;fill:url(#linearGradient420);fill-rule:evenodd;stroke-width:0.703721"
           cx="41.973869"
           cy="463.71347"
           rx="0.84019423"
           ry="0.41558436" /><ellipse
           id="path2723"
           style="color:#000000;fill:url(#linearGradient422);fill-rule:evenodd;stroke-width:0.703721"
           cx="42.059555"
           cy="465.21677"
           rx="0.84019423"
           ry="0.41558436" /><ellipse
           id="path2727"
           style="color:#000000;fill:url(#linearGradient424);fill-rule:evenodd;stroke-width:0.703721"
           cx="42.144493"
           cy="466.72006"
           rx="0.84019423"
           ry="0.41558436" /><ellipse
           id="path2731"
           style="color:#000000;fill:url(#linearGradient2717);fill-rule:evenodd;stroke-width:0.703721"
           cx="42.230259"
           cy="468.2236"
           rx="0.84019423"
           ry="0.41558436" /><path
           id="text2735"
           style="fill:#4a4a4a;stroke-width:0.751654"
           d="m 29.951755,478.56993 h 0.211966 c 0.06239,0 0.111245,0.0135 0.144318,0.0421 0.03382,0.0278 0.05111,0.0677 0.05111,0.11876 0,0.0519 -0.01729,0.0924 -0.05111,0.12026 -0.03307,0.0278 -0.08193,0.0421 -0.144318,0.0421 h -0.08418 v 0.17137 H 29.95176 v -0.49459 m 0.127781,0.0925 v 0.1383 h 0.07065 c 0.02481,0 0.0436,-0.006 0.05713,-0.018 0.01353,-0.012 0.0203,-0.0293 0.0203,-0.0519 0,-0.0218 -0.0068,-0.0391 -0.0203,-0.0511 -0.01353,-0.0113 -0.03232,-0.0173 -0.05713,-0.0173 h -0.07065 m 0.59531,-0.009 c -0.03909,0 -0.06915,0.0143 -0.0902,0.0428 -0.0218,0.0286 -0.03232,0.0691 -0.03232,0.12102 0,0.0526 0.01052,0.0924 0.03232,0.12101 0.02105,0.0293 0.05111,0.0436 0.0902,0.0436 0.03909,0 0.06915,-0.0143 0.09095,-0.0436 0.02105,-0.0286 0.03232,-0.0684 0.03232,-0.12101 0,-0.0519 -0.01128,-0.0925 -0.03232,-0.12102 -0.0218,-0.0286 -0.05186,-0.0428 -0.09095,-0.0428 m 0,-0.0925 c 0.07968,0 0.142062,0.0226 0.187161,0.0684 0.0451,0.0451 0.06765,0.10824 0.06765,0.18792 0,0.0804 -0.02255,0.14281 -0.06765,0.18866 -0.0451,0.0451 -0.107486,0.0684 -0.187161,0.0684 -0.07968,0 -0.141311,-0.0233 -0.187162,-0.0684 -0.0451,-0.0459 -0.06765,-0.10823 -0.06765,-0.18866 0,-0.0797 0.02255,-0.14282 0.06765,-0.18792 0.04585,-0.0458 0.107486,-0.0684 0.187162,-0.0684 m 0.35027,0.009 h 0.142814 l 0.179646,0.339 v -0.339 h 0.121016 v 0.49459 h -0.142063 l -0.180397,-0.33975 v 0.33975 h -0.121016 v -0.49459 m 0.498347,0 h 0.139807 l 0.112748,0.17589 0.112748,-0.17589 h 0.139808 l -0.188665,0.28638 v 0.20821 h -0.127781 v -0.20821 l -0.188665,-0.28638" /></g><text
         xml:space="preserve"
         style="font-size:12.0265px;line-height:1.25;font-family:ABeeZee;-inkscape-font-specification:ABeeZee;text-align:center;text-decoration:none;text-decoration-line:none;text-decoration-color:#000000;letter-spacing:0px;word-spacing:0px;text-anchor:middle;fill:#000000;stroke:#000000;stroke-width:0;stroke-linecap:butt;stroke-linejoin:miter;stroke-opacity:1;stop-color:#000000"
         x="-23.797352"
         y="433.76883"
         id="text235"><tspan
           sodipodi:role="line"
           id="tspan233"
           x="-23.797359"
           y="433.76883"
           style="stroke-width:0">https://openclipart.org/detail/34531/tango-computer</tspan></text></g></g><metadata
     id="metadata11"><rdf:RDF><cc:Work><dc:format>image/svg+xml</dc:format><dc:type
           rdf:resource="http://purl.org/dc/dcmitype/StillImage" /><cc:license
           rdf:resource="http://creativecommons.org/publicdomain/zero/1.0/" /><dc:publisher><cc:Agent
             rdf:about="http://openclipart.org/"><dc:title>Openclipart</dc:title></cc:Agent></dc:publisher><dc:title>Basketball</dc:title><dc:date>2010-07-23T05:55:11</dc:date><dc:description>A ball used in the game of basketball.</dc:description><dc:source>https://openclipart.org/detail/74377/basketball-by-laobc</dc:source><dc:creator><cc:Agent><dc:title>laobc</dc:title></cc:Agent></dc:creator><dc:subject><rdf:Bag><rdf:li>ball</rdf:li><rdf:li>basketball</rdf:li><rdf:li>orange</rdf:li><rdf:li>sports</rdf:li><rdf:li>sports2010</rdf:li></rdf:Bag></dc:subject></cc:Work><cc:License
         rdf:about="http://creativecommons.org/publicdomain/zero/1.0/"><cc:permits
           rdf:resource="http://creativecommons.org/ns#Reproduction" /><cc:permits
           rdf:resource="http://creativecommons.org/ns#Distribution" /><cc:permits
           rdf:resource="http://creativecommons.org/ns#DerivativeWorks" /></cc:License></rdf:RDF></metadata></svg>
