<?xml version="1.0" encoding="UTF-8" standalone="no"?>
<svg
   version="1.1"
   x="0"
   y="0"
   width="1864.8406"
   height="884.29437"
   viewBox="0 0 1864.8406 884.29437"
   id="svg9857"
   inkscape:version="1.2.2 (b0a8486541, 2022-12-01)"
   sodipodi:docname="video+write.svg"
   xml:space="preserve"
   xmlns:inkscape="http://www.inkscape.org/namespaces/inkscape"
   xmlns:sodipodi="http://sodipodi.sourceforge.net/DTD/sodipodi-0.dtd"
   xmlns:xlink="http://www.w3.org/1999/xlink"
   xmlns="http://www.w3.org/2000/svg"
   xmlns:svg="http://www.w3.org/2000/svg"
   xmlns:rdf="http://www.w3.org/1999/02/22-rdf-syntax-ns#"
   xmlns:cc="http://creativecommons.org/ns#"
   xmlns:dc="http://purl.org/dc/elements/1.1/"><metadata
     id="metadata10112"><rdf:RDF><cc:Work
         rdf:about=""><dc:format>image/svg+xml</dc:format><dc:type
           rdf:resource="http://purl.org/dc/dcmitype/StillImage" /><dc:creator><cc:Agent><dc:title>j4p4n</dc:title></cc:Agent></dc:creator><dc:description>just a remix</dc:description><cc:license
           rdf:resource="http://creativecommons.org/publicdomain/zero/1.0/" /></cc:Work><cc:License
         rdf:about="http://creativecommons.org/publicdomain/zero/1.0/"><cc:permits
           rdf:resource="http://creativecommons.org/ns#Reproduction" /><cc:permits
           rdf:resource="http://creativecommons.org/ns#Distribution" /><cc:permits
           rdf:resource="http://creativecommons.org/ns#DerivativeWorks" /></cc:License></rdf:RDF></metadata><sodipodi:namedview
     pagecolor="#ffffff"
     bordercolor="#666666"
     borderopacity="1"
     objecttolerance="10"
     gridtolerance="10"
     guidetolerance="10"
     inkscape:pageopacity="0"
     inkscape:pageshadow="2"
     inkscape:window-width="1440"
     inkscape:window-height="850"
     id="namedview10110"
     showgrid="false"
     inkscape:zoom="0.23872536"
     inkscape:cx="8.377828"
     inkscape:cy="774.94909"
     inkscape:window-x="0"
     inkscape:window-y="27"
     inkscape:window-maximized="1"
     inkscape:current-layer="g10774"
     inkscape:showpageshadow="0"
     inkscape:pagecheckerboard="1"
     inkscape:deskcolor="#d1d1d1" /><defs
     id="defs9859"><clipPath
       id="Clip_1"><path
         d="m 0.06,0.544 h 1993.5 V 898 H 0.06 Z"
         id="path9862"
         inkscape:connector-curvature="0" /></clipPath><clipPath
       id="Clip_2"><path
         d="m 0.06,0.544 h 1993.5 V 898 H 0.06 Z"
         id="path9865"
         inkscape:connector-curvature="0" /></clipPath><clipPath
       id="clipPath16">
      <path
   id="path18"
   d="M 0,600 H 800 V 0 H 0 Z" />
    </clipPath><linearGradient
       id="2"><stop
         id="I"
         stop-color="#2e3436" /><stop
         id="J"
         offset="1"
         stop-color="#2e3436"
         stop-opacity="0" /></linearGradient><linearGradient
       id="3"><stop
         id="K"
         stop-color="#fff" /><stop
         id="L"
         offset="1"
         stop-color="#fff"
         stop-opacity="0" /></linearGradient><linearGradient
       id="4"><stop
         id="M"
         stop-color="#fff"
         stop-opacity="0.8" /><stop
         id="N"
         offset="1"
         stop-color="#fff"
         stop-opacity="0" /></linearGradient><linearGradient
       id="5"><stop
         id="O"
         stop-color="#729fcf" /><stop
         id="P"
         offset="1"
         stop-color="#204a87" /></linearGradient><linearGradient
       id="6"><stop
         id="Q"
         stop-color="#eeeeec" /><stop
         id="R"
         offset="1"
         stop-color="#eeeeec"
         stop-opacity="0" /></linearGradient><radialGradient
       cx="38.150002"
       cy="48.603001"
       r="8.783"
       id="7"
       xlink:href="#2"
       gradientUnits="userSpaceOnUse"
       gradientTransform="matrix(1,0,0,0.3129771,0,33.391671)" /><radialGradient
       cx="24.377001"
       cy="45.941002"
       r="23.08"
       id="8"
       xlink:href="#2"
       gradientUnits="userSpaceOnUse"
       gradientTransform="matrix(1,0,0,0.1455399,0,39.255173)" /><linearGradient
       y1="2.5940001"
       x2="0"
       y2="22.281"
       id="9"
       xlink:href="#5"
       gradientUnits="userSpaceOnUse" /><linearGradient
       y1="23.531"
       x2="0"
       y2="42.41"
       id="A"
       xlink:href="#5"
       gradientUnits="userSpaceOnUse" /><linearGradient
       y1="23.563"
       x2="0"
       y2="42.380001"
       id="B"
       xlink:href="#4"
       gradientUnits="userSpaceOnUse" /><linearGradient
       y1="2.625"
       x2="0"
       y2="22.25"
       id="C"
       xlink:href="#4"
       gradientUnits="userSpaceOnUse" /><linearGradient
       y1="4.2189999"
       x2="0"
       y2="43.780998"
       id="D"
       xlink:href="#4"
       gradientUnits="userSpaceOnUse" /><linearGradient
       x1="4.0939999"
       y1="-58.009998"
       x2="15.298"
       y2="33.905998"
       id="E"
       xlink:href="#6"
       gradientUnits="userSpaceOnUse"
       gradientTransform="translate(0,-1.4999995)" /><linearGradient
       y1="18.438"
       x2="0"
       y2="43.563"
       id="F"
       xlink:href="#4"
       gradientUnits="userSpaceOnUse" /><linearGradient
       x1="21.469"
       y1="-4.052"
       x2="31.610001"
       y2="33.080002"
       id="G"
       xlink:href="#3"
       gradientUnits="userSpaceOnUse" /></defs><g
     id="Layer_1"
     transform="translate(-1108.2336,-9.619509)"><g
       id="g10654"><g
         id="g10774"><g
           id="g10"
           transform="matrix(2.0973041,0,0,-2.0973041,1655.6422,1079.2446)">
    <g
   id="g12">
      <g
   id="g14"
   clip-path="url(#clipPath16)">
        <g
   id="g20"
   transform="translate(628.15,144.6)">
          <path
   id="path22"
   style="fill:#4faf4f"
   d="m 0,0 c 0,-30.155 -24.445,-54.6 -54.6,-54.6 h -310.8 c -30.155,0 -54.6,24.445 -54.6,54.6 v 310.8 c 0,30.155 24.445,54.6 54.6,54.6 H -54.6 C -24.445,365.4 0,340.955 0,310.8 Z" />
        </g>
        <g
   id="g24"
   transform="translate(553.23,416.44)">
          <path
   id="path26"
   style="fill:#3d913d"
   d="m 0,0 -277.31,-277.31 49.135,-49.133 h 248.5 c 30.155,0 54.6,24.444 54.6,54.599 v 196.92 l -74.92,74.92 z" />
        </g>
        <g
   id="g28"
   transform="translate(392.65,181.62)">
          <path
   id="path30"
   style="fill:#fbb03b"
   d="M 0,0 C -3.244,-3.247 -9.218,-2.572 -13.319,1.527 L -72.716,60.924 C -76.817,65.025 -77.49,71 -74.244,74.246 l 164.91,164.91 c 3.266,3.263 9.221,2.573 13.322,-1.528 l 59.397,-59.398 c 4.101,-4.101 4.791,-10.056 1.528,-13.319 L -0.007,0.001 Z" />
        </g>
        <g
   id="g32"
   transform="translate(418.65,207.76)">
          <path
   id="path34"
   style="fill:#fbb03b"
   d="m 0,0 c -3.244,-3.243 -9.218,-2.569 -13.319,1.526 l -59.397,59.33 c -4.101,4.097 -4.774,10.065 -1.528,13.308 l 164.91,164.73 c 3.266,3.259 9.221,2.57 13.322,-1.526 l 59.397,-59.332 c 4.101,-4.097 4.791,-10.045 1.528,-13.304 L -0.007,0.002 Z" />
        </g>
        <g
   id="g36"
   transform="translate(372.44,161.41)">
          <path
   id="path38"
   style="fill:#fcfad2"
   d="m 0,0 -96.52,-22.273 22.274,96.52 96.519,22.274 z" />
        </g>
        <g
   id="g40"
   transform="translate(313.2,228.68)">
          <path
   id="path42"
   style="fill:#fbb03b"
   d="m 0,0 c 3.93,-3.929 6.314,-8.845 7.209,-14.041 7.662,-0.302 15.062,-3.251 20.735,-8.923 5.919,-5.919 8.862,-13.716 8.944,-21.721 5.623,-0.714 10.949,-3.151 15.159,-7.364 4.187,-4.185 6.624,-9.476 7.352,-15.064 l 208.83,208.84 c 4.382,4.382 4.6,11.246 0.5,15.347 l -59.396,59.397 c -4.102,4.1 -10.968,3.883 -15.351,-0.499 L -14.668,7.302 c 5.438,-0.798 10.581,-3.22 14.67,-7.31" />
        </g>
        <g
   id="g44"
   transform="translate(517.82,306.79)">
          <path
   id="path46"
   style="fill:#f2f2f2"
   d="M 0,0 -74.246,74.247 -37.123,111.37 37.123,37.121 Z" />
        </g>
        <g
   id="g48"
   transform="translate(495.75,328.86)">
          <path
   id="path50"
   style="fill:#e6e6e6"
   d="M 0,0 -24.156,24.154 12.965,61.278 37.121,37.123 Z" />
        </g>
        <g
   id="g52"
   transform="translate(517.85,306.76)">
          <path
   id="path54"
   style="fill:#cccccc"
   d="M 0,0 -22.101,22.103 15.021,59.226 37.123,37.123 Z" />
        </g>
        <g
   id="g56"
   transform="translate(286.2,183.67)">
          <path
   id="path58"
   style="fill:#666666"
   d="m 0,0 -10.276,-44.535 44.53,10.277 c -0.026,8.761 -3.377,17.511 -10.061,24.193 C 17.51,-3.38 8.759,-0.029 0,0" />
        </g>
        <g
   id="g60"
   transform="translate(582.93,386.75)">
          <path
   id="path62"
   style="fill:#ff8a6a"
   d="m 0,0 -59.396,59.397 c -4.102,4.1 -10.968,3.883 -15.351,-0.5 l -39.01,-39.01 74.246,-74.247 39.011,39.012 C 3.882,-10.963 4.1,-4.099 0,0.003" />
        </g>
        <g
   id="g64"
   transform="translate(350.01,185.36)">
          <path
   id="path66"
   style="fill:#db923b"
   d="m 0,0 c 0.024,-0.457 0.069,-0.909 0.072,-1.369 5.64,-0.698 10.976,-3.124 15.186,-7.337 4.187,-4.186 6.614,-9.486 7.326,-15.092 l 145.23,145.23 -23.19,23.19 L 0.004,0.002 Z" />
        </g>
        <g
   id="g68"
   transform="translate(471.59,353.02)">
          <path
   id="path70"
   style="fill:#f2a43d"
   d="m 0,0 -140.6,-140.59 c 3.734,-1.48 7.207,-3.685 10.19,-6.669 5.919,-5.919 8.844,-13.732 8.899,-21.764 0.229,-0.03 0.451,-0.079 0.679,-0.111 l 144.99,144.98 -24.16,24.15 z" />
        </g>
      </g>
    </g>
  </g><text
           xml:space="preserve"
           style="font-size:26.8455px;line-height:1.25;font-family:ABeeZee;-inkscape-font-specification:ABeeZee;text-align:center;text-decoration:none;text-decoration-line:none;text-decoration-color:#000000;letter-spacing:0px;word-spacing:0px;text-anchor:middle;fill:#000000;stroke:#000000;stroke-width:0;stroke-linecap:butt;stroke-linejoin:miter;stroke-opacity:1;stop-color:#000000"
           x="2471.2512"
           y="-225.83308"
           id="text197"><tspan
             sodipodi:role="line"
             id="tspan195"
             x="2471.2512"
             y="-225.83308"
             style="stroke-width:0">https://openclipart.org/detail/190958/pencil-icon</tspan></text><g
           id="1"
           transform="matrix(19.181348,0,0,19.181348,1099.3807,-7.8972012)"><g
             transform="translate(-0.4615383,-0.5150002)"
             id="H"><path
               d="m 46.933716,48.603432 a 8.78331,2.7489748 0 1 1 -17.56662,0 8.78331,2.7489748 0 1 1 17.56662,0 z"
               transform="translate(-4.2910826,-3.8224065)"
               id="S"
               opacity="0.8"
               fill="url(#7)"
               style="fill:url(#7)" /><path
               d="m 47.453955,45.941494 a 23.076923,3.3586143 0 1 1 -46.153847,0 23.076923,3.3586143 0 1 1 46.153847,0 z"
               transform="translate(-0.3770313,-2.8001078)"
               id="T"
               opacity="0.8"
               fill="url(#8)"
               style="fill:url(#8)" /><rect
               width="42"
               height="42"
               x="3"
               y="1.5"
               id="U"
               fill="#2e3436"
               rx="6" /><path
               d="M 9,4.09375 C 6.2608771,4.09375 4.09375,6.2608771 4.09375,9 v 30 c 0,2.739123 2.1671271,4.90625 4.90625,4.90625 h 30 c 2.739123,0 4.90625,-2.167127 4.90625,-4.90625 V 9 C 43.90625,6.2608771 41.739123,4.09375 39,4.09375 Z"
               transform="translate(0,-1.4999995)"
               id="V"
               fill="#555753" /><g
               transform="translate(-0.125)"
               id="W"><path
                 d="m 9,2.59375 c -1.6957941,0 -3.1524455,0.8422535 -4.03125,2.125 v 35.5625 c 0.8788045,1.282747 2.3354559,2.125 4.03125,2.125 h 1.1875 V 2.59375 Z"
                 id="e"
                 fill="#2e3436" /><path
                 d="m 38.0625,2.59375 v 39.8125 H 39 c 1.870417,0 3.452161,-1.01814 4.28125,-2.53125 V 5.125 C 42.452161,3.6118905 40.870417,2.59375 39,2.59375 Z"
                 id="f"
                 fill="#2e3436" /><path
                 d="m 11.46875,2.59375 v 19.6875 h 25.25 V 2.59375 Z"
                 id="g"
                 fill="url(#9)"
                 style="fill:url(#9)" /><path
                 d="m 11.46875,23.53125 v 18.875 H 36.75 v -18.875 z"
                 id="h"
                 fill="url(#A)"
                 style="fill:url(#A)" /><path
                 d="m 39.15625,2.59375 v 0.375 H 40.9375 C 40.394929,2.7419244 39.78247,2.6130513 39.15625,2.59375 Z m 0,2.25 V 6.75 H 42.1875 V 4.84375 Z m 0,3.78125 v 1.90625 H 42.1875 V 8.625 Z m 0,3.78125 v 1.90625 h 3.03125 v -1.90625 z m 0,3.78125 v 1.875 h 3.03125 v -1.875 z m 0,3.78125 V 21.875 h 3.03125 v -1.90625 z m 0,3.78125 v 1.90625 H 42.1875 V 23.75 Z m 0,3.78125 v 1.875 h 3.03125 v -1.875 z m 0,3.78125 v 1.875 h 3.03125 v -1.875 z m 0,3.78125 V 37 h 3.03125 v -1.90625 z m 0,3.78125 v 1.875 h 3.03125 v -1.875 z"
                 id="i"
                 fill="#d3d7cf" /><path
                 d="m 9,2.59375 c -0.6847807,0 -1.3491427,0.129033 -1.9375,0.375 h 2.03125 v -0.375 z m -2.9375,2.25 V 6.75 H 9.09375 V 4.84375 Z m 0,3.78125 v 1.90625 H 9.09375 V 8.625 Z m 0,3.78125 v 1.90625 h 3.03125 v -1.90625 z m 0,3.78125 v 1.875 h 3.03125 v -1.875 z m 0,3.78125 V 21.875 h 3.03125 v -1.90625 z m 0,3.78125 v 1.90625 H 9.09375 V 23.75 Z m 0,3.78125 v 1.875 h 3.03125 v -1.875 z m 0,3.78125 v 1.875 h 3.03125 v -1.875 z m 0,3.78125 V 37 h 3.03125 v -1.90625 z m 0,3.78125 v 1.875 h 3.03125 v -1.875 z"
                 id="j"
                 fill="#d3d7cf" /><path
                 d="M 12,24.0625 V 41.875 H 36.21875 V 24.0625 Z"
                 id="k"
                 opacity="0.8"
                 fill="none"
                 stroke="url(#B)"
                 style="stroke:url(#B)" /><path
                 d="M 12,3.125 V 21.75 H 36.1875 V 3.125 Z"
                 id="l"
                 opacity="0.8"
                 fill="none"
                 stroke="url(#C)"
                 style="stroke:url(#C)" /></g><path
               d="M 9,4.53125 C 6.5045343,4.53125 4.53125,6.5045343 4.53125,9 v 30 c 0,2.495466 1.9732843,4.46875 4.46875,4.46875 h 30 c 2.495466,0 4.46875,-1.973284 4.46875,-4.46875 V 9 C 43.46875,6.5045343 41.495466,4.53125 39,4.53125 Z"
               transform="translate(0,-1.4999995)"
               id="X"
               opacity="0.8"
               fill="none"
               stroke="url(#D)"
               stroke-linecap="round"
               stroke-dashoffset="30"
               style="stroke:url(#D)" /><path
               d="m 9,2.5937505 c -2.7391229,0 -4.90625,2.1671271 -4.90625,4.90625 V 24.656251 c 12.085208,-5.133143 25.680845,-9.569523 39.8125,-12.53125 V 7.5000005 c 0,-2.7391229 -2.167127,-4.90625 -4.90625,-4.90625 z"
               id="Y"
               opacity="0.6"
               fill="url(#E)"
               style="fill:url(#E)" /><path
               d="M 48,31.000003 C 48,38.731987 41.731987,45 33.999999,45 26.268012,45 20,38.731987 20,31.000003 20,23.268017 26.268012,17.000004 33.999999,17.000004 41.731987,17.000004 48,23.268017 48,31.000003 Z"
               id="Z"
               fill="#7c0000" /><path
               d="m 34,18.46875 c -6.940107,0 -12.53125,5.591143 -12.53125,12.53125 0,6.940104 5.591142,12.53125 12.53125,12.53125 6.940107,0 12.53125,-5.591147 12.53125,-12.53125 0,-6.940106 -5.591143,-12.53125 -12.53125,-12.53125 z"
               id="a"
               fill="#cc0000" /><path
               d="m 34,18.9375 c -6.689286,0 -12.0625,5.373214 -12.0625,12.0625 0,6.689282 5.373214,12.0625 12.0625,12.0625 6.689286,0 12.0625,-5.373219 12.0625,-12.0625 0,-6.689285 -5.373214,-12.0625 -12.0625,-12.0625 z"
               id="b"
               opacity="0.8"
               fill="none"
               stroke="url(#F)"
               style="stroke:url(#F)" /><g
               id="c"><path
                 d="m 27.4375,22.46875 c -0.627045,0.05958 -1.102747,0.571158 -1.09375,1.1875 l 0.03125,7.6875 v 7.6875 c 0.0012,0.474511 0.294169,0.843203 0.625,1.03125 0.375369,0.213356 0.830224,0.230067 1.21875,0 l 6.625,-3.84375 6.65625,-3.875 C 41.857573,32.136308 42.093415,31.717743 42.09375,31.3125 42.094091,30.90542 41.912624,30.490294 41.5,30.25 L 34.8125,26.4375 28.15625,22.625 v 0.03125 c -0.0066,-0.0039 -0.02454,0.004 -0.03125,0 -0.158069,-0.09361 -0.362576,-0.210797 -0.6875,-0.1875 z"
                 transform="translate(1.7813755,-0.3466833)"
                 id="m"
                 fill="#7c0000" /><path
                 d="m 27.875,24.25 0.03125,7.09375 v 7.09375 l 6.15625,-3.5625 6.15625,-3.59375 -6.15625,-3.5 a 1.5427305,1.5427305 0 0 1 -0.03125,0 z"
                 transform="translate(1.7813755,-0.3466833)"
                 id="n"
                 fill="#d3d7cf" /></g><path
               d="m 34,18.46875 c -6.940107,0 -12.53125,5.591143 -12.53125,12.53125 0,1.336241 0.209488,2.606554 0.59375,3.8125 7.49281,-2.858413 15.699958,-5.706019 23.65625,-8.21875 C 43.936232,21.850168 39.379937,18.46875 34,18.46875 Z"
               id="d"
               fill="url(#G)"
               style="fill:url(#G)" /></g></g><text
           xml:space="preserve"
           style="font-weight:bold;font-size:61.139px;font-family:'Sansation Light';-inkscape-font-specification:'Sansation Light,  Bold';fill:#ff6600;stroke:none;stroke-width:40.3806"
           x="624.25171"
           y="-200.3576"
           id="text214"><tspan
             sodipodi:role="line"
             id="tspan212"
             x="624.25171"
             y="-200.3576"
             style="stroke-width:40.3806">https://openclipart.org/detail/212399/media-player</tspan></text></g></g></g></svg>
